<?xml version="1.0" encoding="utf-8"?>
<!-- Generator: Adobe Illustrator 19.0.0, SVG Export Plug-In . SVG Version: 6.00 Build 0)  -->
<svg version="1.1" id="Layer_1" xmlns="http://www.w3.org/2000/svg" xmlns:xlink="http://www.w3.org/1999/xlink" x="0px" y="0px"
	 viewBox="-345 257 100 100" style="enable-background:new -345 257 100 100;" xml:space="preserve">
<style type="text/css">
	.st0{fill:#FFFFFF;}
	.st1{fill:#EAEAEA;}
	.st2{fill:#D1D1D1;}
</style>
<g>
	<g>
		<g>
			<path class="st0" d="M-270.2,329c-0.2-3.3-0.1-5.8-0.1-7.8c0.1-4.2,0.1-6.6-1.6-10.2c-2.2-4.7-7-6.7-7.1-6.8l0.8-2
				c0.2,0.1,5.7,2.3,8.2,7.8c1.8,4.1,1.8,6.8,1.8,11.1c0,2.1-0.1,4.5,0.1,7.7L-270.2,329z"/>
		</g>
		<g>
			<g>
				<g>
					<path class="st0" d="M-259.4,342.7c-0.3-0.7-1.3-2.8-1.3-2.8s-0.6,0.3-0.7,0.1c-0.1-0.2,0.5-0.6,0.5-0.6s0,0-0.3-0.5
						c-0.3-0.5-3.2-1.9-4.9-5.1c-1-1.8-1.6-5.1-1.9-6.5c0,0,0-0.1,0-0.1l-2,2c0,0.5,0.1,0.9,0.1,1.4c0.1,0.9,0.4,1.4,1.8,4.1
						c1.4,2.7,5.3,7.4,5.5,7.7s0.3,0.2,0.3,0.2c0.1-0.1,0.6-0.2,1-0.1s0.8,0.6,1.1,1.1C-260.2,343.6-259.4,342.8-259.4,342.7z"/>
				</g>
			</g>
			<g>
				<path class="st1" d="M-269.7,332.2c-0.2-0.4-0.6-1.3-0.6-2.1c0-0.8,0-4.1,0-4.2c0-0.1,2-0.7,2-0.5s0,0.9,0.2,1.6
					c0.2,0.7,0.9,3.8,0.9,4C-267.1,331.2-269.6,332.3-269.7,332.2z"/>
			</g>
			<g>
				<path class="st1" d="M-281.9,298.9l0.2,0.2c0.7,0.7,1.5,1.7,2.2,2.2c0.3,0.2,1.7,0.9,3.3,2c0,0-0.1,0.5-0.4,1
					c-0.5,0.8-0.8,0.8-0.8,0.8c-0.4-0.3-1.6-0.8-2.1-0.9c-1.4-0.6-2.8-1-4.7-2.5L-281.9,298.9z"/>
			</g>
		</g>
		<g>
			<g>
				<path class="st0" d="M-291.1,292.1c0,0-2.1-4.9-6.8-7.1c-3.6-1.7-6-1.6-10.2-1.6c-2,0-4.6,0.1-7.8-0.1l0.1-2.1
					c3.2,0.2,5.6,0.1,7.7,0.1c4.2-0.1,7-0.1,11.1,1.8c5.5,2.5,7.8,8,7.8,8.2L-291.1,292.1l1-0.4L-291.1,292.1z"/>
			</g>
			<g>
				<path class="st0" d="M-313,281.5c0,0,2.2,0.6-1.2-0.2c-1.4-0.3-4.7-0.9-6.5-1.9c-3.2-1.8-4.6-4.6-5.1-4.9s-0.5-0.3-0.5-0.3
					s-0.4,0.6-0.6,0.5c-0.2-0.1,0.1-0.7,0.1-0.7s-2.1-1.1-2.8-1.3c-0.1,0-0.8,0.9-0.8,0.9c0.4,0.3,0.9,0.7,1.1,1.1
					c0.1,0.4,0,0.9-0.1,1c-0.1,0.1-0.1,0.1,0.2,0.3c0.3,0.2,5,4.1,7.7,5.5c2.7,1.4,3.2,1.7,4.1,1.8
					C-308.1,283.9-313,281.5-313,281.5z"/>
			</g>
			<g>
				<path class="st1" d="M-319.1,282.8c0.4,0.2,1.3,0.6,2.1,0.6c0.8,0,4.1,0,4.2,0c0.1,0,0.7-2,0.5-2c-0.2,0-0.9,0-1.6-0.2
					s-3.8-0.9-4-0.9C-318.1,280.2-319.3,282.7-319.1,282.8z"/>
			</g>
			<g>
				<path class="st1" d="M-285.8,295l-0.2-0.2c-0.7-0.7-1.7-1.4-2.2-2.2c-0.2-0.3-0.9-1.7-1.9-3.3c0,0-0.4,0.1-1,0.4
					c-0.6,0.4-0.9,0.9-0.9,0.9c0.3,0.4,0.4,0.9,0.6,1.3c0.8,1.6,1.3,3.6,2.8,5.4L-285.8,295z"/>
			</g>
		</g>
		<g>
			<path class="st2" d="M-282.5,301.9c0.6-0.9,1.6-2.4,1.1-2.9c-1.5-1.5-3.3-3.3-4.6-4.6c-0.4-0.4-2.1,0.7-2.9,1.2
				c-0.6,0.3-0.6,0.6-0.3,1.1c1.1,2,3.2,3.9,5.5,5.5C-283.2,302.5-282.8,302.5-282.5,301.9z"/>
		</g>
	</g>
	<g>
		<path class="st0" d="M-262.9,341C-262.9,341-262.9,341-262.9,341l-57-7.5c-0.3,0-0.5-0.3-0.6-0.6l-7.8-56.6
			c-0.1-0.4,0.2-0.7,0.6-0.8c0.4-0.1,0.7,0.2,0.8,0.6l7.7,56.1l56.4,7.5c0.4,0,0.6,0.4,0.6,0.8C-262.3,340.7-262.6,341-262.9,341z"
			/>
	</g>
	<g>
		<g>
			<path class="st2" d="M-323.1,331c1.6-1.2,8.3-6.4,11-5.8c0,0,0,0,0,0.1l-6.6,6.6c-1.2-0.8-3.4-0.7-4.4-0.6
				C-323.2,331.2-323.2,331.1-323.1,331z"/>
		</g>
		<g>
			<path class="st1" d="M-317.9,336.2c1.2-1.6,6.4-8.3,5.8-11c0,0,0,0-0.1,0l-6.6,6.6c0.8,1.2,0.7,3.4,0.6,4.4
				C-318.1,336.3-318,336.3-317.9,336.2z"/>
		</g>
		<g>
			<path class="st0" d="M-319.8,333.4c-0.2,0-0.3-0.1-0.5-0.2c-0.3-0.3-0.3-0.7,0-0.9L-281,293c0.3-0.3,0.7-0.3,0.9,0
				c0.3,0.3,0.3,0.7,0,0.9l-39.3,39.3C-319.4,333.4-319.6,333.4-319.8,333.4z"/>
		</g>
		<g>
			<path class="st1" d="M-283.1,294l1.8,0.1l0.3,2c0,0.1,0.2,0.2,0.3,0.1l2.2-3.1l1.1-0.1c0,0,0.1,0,0.1-0.1l3-5.6
				c0.1-0.1-0.1-0.3-0.2-0.2l-5.6,3c0,0-0.1,0.1-0.1,0.1l0.1,1.2l-3.1,2.1C-283.3,293.8-283.3,294-283.1,294z"/>
		</g>
	</g>
</g>
</svg>
