<?xml version="1.0" encoding="utf-8"?>
<!-- Generator: Adobe Illustrator 19.0.0, SVG Export Plug-In . SVG Version: 6.00 Build 0)  -->
<svg version="1.1" id="Layer_1" xmlns="http://www.w3.org/2000/svg" xmlns:xlink="http://www.w3.org/1999/xlink" x="0px" y="0px"
	 viewBox="-345 257 100 100" style="enable-background:new -345 257 100 100;" xml:space="preserve">
<style type="text/css">
	.st0{fill:#D1D1D1;}
	.st1{fill:#D3D4D5;}
	.st2{fill:#B2B2B2;}
	.st3{fill:#EAEAEA;}
	.st4{fill:#FFFFFF;}
	.st5{fill:#F4F4F4;}
	.st6{fill:#BDBDBC;}
</style>
<path class="st0" d="M-302.8,325.6c0,0,2,6.1,8.9,6.3c6.7,0.3,13.9-3.6,22.8,1.2c4.3,2.3,12.5,12.1,13,13.1c0.8,1.6-3.6,4.9-5,3.2
	c-1.1-1.3-7.4-8.5-11.3-10.2c-7.9-3.5-13,1.9-22.5,0.3C-307.2,337.9-314,326-314,326"/>
<polygon class="st1" points="-291.9,342.6 -291.7,341.4 -291.7,339.9 -292.9,340.7 "/>
<polygon class="st2" points="-290.2,331.9 -290,331.8 -290,329.1 -291.2,329.9 "/>
<polygon class="st0" points="-296.5,329.8 -296.5,331.8 -290.2,332 -290.2,329.8 -290.2,329.4 "/>
<path class="st3" d="M-300.3,341.7c0,0,1.8,1.1,3.6,1.4c2.2,0.3,4.8-0.5,4.8-0.5v-1.8l-4.9-0.3l-3.4-0.8L-300.3,341.7L-300.3,341.7z
	"/>
<path class="st3" d="M-286,325.9c0,0-0.1,5.9-6.6,5.9c-3.7,0-6.3-2.3-7.1-3.1c-1.7-1.6-6.3,2.8-4.2,5.5c1,1.3,5.1,4.5,10,4.9
	c3.6,0.3,9.5-1.3,12.7-4c4.4-3.7,4.3-10.4,4.3-10.4L-286,325.9z"/>
<path class="st4" d="M-296.5,341.2c3.2,0.5,4.5-0.4,4.5-0.4l0.3-0.9h-3.2l2.6-10.1h2.2l0.2-0.6c0,0-1.5-0.2-2.8-0.2
	c-0.8,0-3.4,0.2-3.4,0.2l-0.3,0.6h2.3l-3.2,9.7l-2.3-0.6l-0.5,0.8C-300.3,339.7-298.9,340.9-296.5,341.2"/>
<path class="st5" d="M-274.5,316.5l-6.7-4.9l-4.4-4.4l-5.4-12.6l-2.5-3.8l0.9-4.8c0,0,22.9,2.5,20.1-3s-13.5-8.9-22.7-8.9
	c-8.8,0-17.3,2.7-22.3,7.9c-3.2,3.4,17.4,2.7,17.4,2.7l2.2,6.8l-0.5,0.3l-4.3,8.9l-4.3,8.5l-6.2,6.6l-4.3,1.2l-7.2-1
	c0,0,2,7.5,4.8,9.7c6,4.9,16.6,0.6,24.6,0.6c9.3,0,15.5,5.4,20.8,0.9c5.4-4.4,9.6-11.5,9.6-11.5L-274.5,316.5z"/>
<path class="st0" d="M-292.6,319.2c0,0-1.1,1.2-2.8,1.2c-1.6,0-2.6-1.2-2.6-1.2s-6.3,1.2-5.6,2c0.7,0.9,5.3,1.9,8.2,1.9
	c3,0,8.8-1.3,9.2-1.9s-2.8-3.1-2.8-3.1L-292.6,319.2z"/>
<path class="st6" d="M-268.4,299.7c0.4,6.9-0.6,11.7-3.2,13.6c-2.6,1.9,8.6-3,8.6-3l3.9-5.2l-1-11.6l-3.7-4.6l-6.4-3.4l-8.9,0.3
	C-279.1,286-269.1,288.2-268.4,299.7"/>
<path class="st6" d="M-313.4,285.6c0,0-6.3,2-7.6,5.6c-1.3,3.6-3.6,13.2-1.8,16.6s3.1,5.4,4.3,6c1.2,0.6-8.4-2.2-8.4-2.2l-4.7-10.9
	v-8.6l7.2-5.9L-313.4,285.6z"/>
<path class="st0" d="M-335.8,288.9c9-12.9,34.1-6.2,41.1-6.2c7.1,0,29.1-5.8,39.4,7.2c3.2,4.1,2.2,18.2,1,20.2
	c-2.4,3.9-14.1,10.8-19.4,10c-6.4-1-14.7-13.2-18.2-23.9c-0.7-2.2-1.5-4.5-2.9-4.5c-1.6,0-2.6,1.8-3.5,4.5
	c-3,9.4-13.7,22.9-18.8,22.9c-5.2,0-16.4-5.3-19.5-11C-338.6,304.7-337.1,290.9-335.8,288.9 M-327.2,290.9c-3.3,2.6-3,12.9-0.8,15.7
	c2.2,2.9,7.1,6.5,11.3,6.2c11.5-1,18.1-22,15.2-24.1C-304.6,286.4-318.2,283.7-327.2,290.9 M-289.2,289.5c-3,2.1,3.8,23,15.2,24.1
	c4.3,0.3,9.1-3.3,11.3-6.2s2.5-13.1-0.8-15.7C-272.5,284.6-286.1,287.2-289.2,289.5"/>
<path class="st3" d="M-298.7,292.4c-1.1,7.3-9.8,20.4-15.6,24.1c-2.7,1.6-4.3,1.9-6.7,1.1c-2.4-0.8-11.7-6.1-13.4-7.6
	c-1.7-1.6-2.2-3.2-2.2-4.5c0-2.2,0.1-11.7,0.7-13.9c0.3-1.2,0.7-2.7,3.6-4.4c5.1-3.1,21.2-4.8,28.9-2.6
	C-298.6,286.1-298.1,288.7-298.7,292.4 M-305.7,287.3c-6.5-1.8-20-0.4-24.3,2.2c-2.4,1.5-2.7,2.7-3,3.7c-0.4,1.8-0.6,9.8-0.5,11.6
	c0,1,0.4,2.5,1.8,3.8c1.5,1.3,9.3,5.7,11.3,6.3c2,0.6,3.4,0.4,5.6-1c4.9-3,11-14.5,13.2-20.7C-300.5,290.2-301.6,288.4-305.7,287.3"
	/>
<path class="st3" d="M-286.7,284.7c7.7-2.2,23.8-0.5,28.9,2.6c2.9,1.7,3.2,3.2,3.6,4.4c0.5,2.2,0.7,11.7,0.7,13.9
	c0,1.2-0.5,3-2.2,4.5c-1.7,1.6-11,6.8-13.4,7.6c-2.4,0.8-4,0.5-6.7-1.1c-5.8-3.6-14.5-16.8-15.6-24.1
	C-292.1,288.7-291.5,286.1-286.7,284.7 M-288.5,293.3c2.2,6.2,8.3,17.6,13.2,20.7c2.3,1.4,3.6,1.6,5.6,1c2-0.6,9.8-5,11.3-6.3
	c1.5-1.3,1.8-2.7,1.8-3.8c0-1.8-0.1-9.8-0.5-11.6c-0.3-1-0.5-2.3-3-3.7c-4.3-2.6-17.8-4-24.3-2.2
	C-288.5,288.4-289.6,290.2-288.5,293.3"/>
<path class="st3" d="M-293.8,299.3c0,0,0.8,19.1,1.2,20c0.5,0.9,5.7,2.1,6.4,2c0.7-0.1-1.1-5.3-2.4-9.9
	C-290.2,305.6-293.4,298.4-293.8,299.3"/>
<path class="st3" d="M-296.8,299.3c0,0-0.8,19.1-1.2,20c-0.5,0.9-4.9,2.1-5.6,2c-0.7-0.1,0.8-5.3,2-9.9
	C-300.1,305.6-297.3,298.4-296.8,299.3"/>
</svg>
