<?xml version="1.0" encoding="utf-8"?>
<!-- Generator: Adobe Illustrator 16.0.0, SVG Export Plug-In . SVG Version: 6.00 Build 0)  -->
<!DOCTYPE svg PUBLIC "-//W3C//DTD SVG 1.1//EN" "http://www.w3.org/Graphics/SVG/1.1/DTD/svg11.dtd">
<svg version="1.1" id="Layer_1" xmlns="http://www.w3.org/2000/svg" xmlns:xlink="http://www.w3.org/1999/xlink" x="0px" y="0px"
	 width="100px" height="100px" viewBox="0 0 100 100" enable-background="new 0 0 100 100" xml:space="preserve">
<g>
	<path fill="#FFFFFF" d="M65.977,64.388c-0.541,2.188-0.19,4.449,0.982,6.372c1.168,1.928,3.024,3.281,5.221,3.818
		c0.667,0.162,1.348,0.242,2.025,0.242c3.904,0,7.28-2.636,8.214-6.416c0.542-2.184,0.193-4.451-0.982-6.371
		c-1.169-1.93-3.025-3.281-5.221-3.819c-0.534-0.131-1.073-0.206-1.622-0.231c0.271-1.641-0.049-3.13-0.95-4.418
		c-2.105-3.005-6.788-4.044-8.527-4.333c0.211-2.501-1.439-4.861-3.965-5.479L48.657,40.7c-0.411-0.099-0.828-0.154-1.245-0.154
		c-2.415,0-4.499,1.636-5.071,3.966c-0.685,2.783,1.031,5.604,3.829,6.287l12.498,3.055c0.406,0.098,0.83,0.15,1.249,0.15
		c2.171,0,4.077-1.33,4.855-3.303c1.456,0.239,5.836,1.158,7.63,3.728c0.732,1.047,0.943,2.234,0.642,3.624
		C69.64,58.506,66.818,60.984,65.977,64.388z M58.516,44.658l-1.765,7.176l-6.078-1.485l1.758-7.175L58.516,44.658z M50.964,42.814
		l-1.756,7.177l-2.677-0.655c-1.99-0.488-3.21-2.488-2.723-4.467c0.411-1.656,1.889-2.811,3.604-2.811
		c0.294,0,0.593,0.03,0.884,0.105L50.964,42.814z M63.515,49.683c-0.405,1.656-1.891,2.814-3.599,2.814
		c-0.298,0-0.598-0.035-0.889-0.109l-0.809-0.195l1.764-7.172l0.813,0.195C62.783,45.699,64.002,47.705,63.515,49.683z
		 M67.446,64.744c0.765-3.102,3.541-5.27,6.749-5.27c0.553,0,1.115,0.066,1.658,0.201c1.809,0.438,3.33,1.555,4.292,3.138
		c0.96,1.582,1.245,3.435,0.808,5.23c-0.769,3.109-3.543,5.271-6.748,5.271c-0.554,0-1.111-0.062-1.664-0.2
		c-1.807-0.438-3.326-1.555-4.291-3.133C67.289,68.402,67,66.541,67.446,64.744z"/>
	<path fill="#FFFFFF" d="M8.992,45.276l18.979,12.761c0.379,3.467,2.871,6.311,6.301,7.154l11.531,2.812l-6.134,6.058
		c-0.808,0.796-1.253,1.86-1.26,2.989c-0.003,1.131,0.436,2.2,1.235,3c0.808,0.808,1.88,1.253,3.021,1.253
		c1.129,0,2.197-0.435,2.997-1.228l9.832-9.703c0.658,0.163,1.322,0.235,1.976,0.235c3.747,0,7.165-2.536,8.098-6.319
		c1.096-4.443-1.648-8.948-6.111-10.037l-21.208-5.179c-1.2-0.293-2.456-0.313-3.664-0.069L15.27,36.024
		c-0.934-0.625-2.015-0.959-3.138-0.959c-1.867,0-3.607,0.917-4.653,2.461C5.745,40.078,6.422,43.555,8.992,45.276z M40.737,75.127
		l14.326-14.141c0.516-0.508,1.201-0.792,1.927-0.792c0.74,0,1.432,0.283,1.951,0.806c0.517,0.517,0.797,1.209,0.797,1.938
		c-0.004,0.727-0.287,1.41-0.814,1.922L44.601,79.006c-0.516,0.512-1.204,0.793-1.935,0.793c-0.736,0-1.431-0.288-1.947-0.809
		c-0.512-0.519-0.797-1.203-0.793-1.933C39.926,76.33,40.214,75.647,40.737,75.127z M29.772,59.246l2.418,1.625
		c0.93,0.625,2.017,0.956,3.137,0.956c1.871,0,3.61-0.921,4.653-2.458c0.838-1.237,1.14-2.724,0.855-4.19
		c-0.284-1.468-1.126-2.731-2.369-3.566l-1.885-1.271c0.432,0.021,0.871,0.086,1.305,0.189l21.211,5.182
		c3.653,0.891,5.899,4.58,5,8.216c-0.816,3.315-3.969,5.464-7.285,5.139l3.176-3.136c0.811-0.797,1.257-1.86,1.257-2.99
		c0.009-1.134-0.431-2.196-1.227-2.999c-0.811-0.809-1.882-1.257-3.026-1.257c-1.134,0-2.192,0.438-2.999,1.231l-6.929,6.846
		l-12.428-3.038C32.295,63.159,30.49,61.439,29.772,59.246z M8.7,38.418l11.387,8.495c0.136,0.104,0.295,0.153,0.452,0.153
		c0.228,0,0.456-0.109,0.604-0.307c0.257-0.329,0.186-0.803-0.147-1.049L9.76,37.323c0.681-0.483,1.51-0.751,2.373-0.751
		c0.814,0,1.607,0.238,2.292,0.698l23.198,15.588c0.909,0.612,1.52,1.534,1.729,2.609c0.211,1.065-0.013,2.151-0.628,3.058
		c-0.761,1.123-2.032,1.795-3.4,1.795c-0.814,0-1.607-0.242-2.288-0.701L9.833,44.028C7.981,42.787,7.476,40.279,8.7,38.418z"/>
	<path fill="#FFFFFF" d="M83.592,59.541c0,1.59,1.299,2.881,2.895,2.881c1.594,0,2.891-1.292,2.891-2.881
		c0-1.583-1.297-2.873-2.891-2.873C84.89,56.668,83.592,57.958,83.592,59.541z M85.103,59.541c0-0.758,0.618-1.372,1.382-1.372
		c0.755,0,1.377,0.614,1.377,1.372c0,0.76-0.622,1.377-1.377,1.377C85.721,60.918,85.103,60.301,85.103,59.541z"/>
	<path fill="#FFFFFF" d="M81.5,47.542c1.593,0,2.892-1.292,2.892-2.884c0-1.579-1.299-2.876-2.892-2.876s-2.893,1.297-2.893,2.876
		C78.607,46.25,79.907,47.542,81.5,47.542z M81.5,46.033c-0.759,0-1.379-0.614-1.379-1.375c0-0.752,0.62-1.369,1.379-1.369
		c0.761,0,1.378,0.617,1.378,1.369C82.88,45.419,82.261,46.033,81.5,46.033z"/>
	<path fill="#FFFFFF" d="M89.687,42.405c1.597,0,2.896-1.291,2.896-2.884c0-1.583-1.299-2.88-2.896-2.88s-2.892,1.297-2.892,2.88
		C86.793,41.114,88.09,42.405,89.687,42.405z M88.307,39.521c0-0.752,0.618-1.371,1.378-1.371c0.759,0,1.38,0.618,1.38,1.371
		c0,0.757-0.621,1.374-1.38,1.374C88.925,40.896,88.307,40.279,88.307,39.521z"/>
	<path fill="#FFFFFF" d="M86.707,28.896c0-1.588-1.298-2.877-2.895-2.877c-1.598,0-2.893,1.289-2.893,2.877
		c0,1.587,1.296,2.876,2.893,2.876C85.408,31.772,86.707,30.484,86.707,28.896z M85.191,28.896c0,0.758-0.619,1.374-1.379,1.374
		c-0.758,0-1.379-0.617-1.379-1.374s0.621-1.37,1.379-1.37C84.574,27.526,85.191,28.14,85.191,28.896z"/>
	<path fill="#FFFFFF" d="M93.294,23.581c0-1.586-1.298-2.877-2.898-2.877c-1.593,0-2.892,1.291-2.892,2.877
		c0,1.585,1.299,2.878,2.892,2.878C91.995,26.459,93.294,25.166,93.294,23.581z M91.777,23.581c0,0.758-0.619,1.374-1.382,1.374
		c-0.759,0-1.375-0.617-1.375-1.374s0.618-1.373,1.375-1.373C91.158,22.208,91.777,22.824,91.777,23.581z"/>
</g>
</svg>
