<?xml version="1.0" encoding="utf-8"?>
<!-- Generator: Adobe Illustrator 19.0.0, SVG Export Plug-In . SVG Version: 6.00 Build 0)  -->
<svg version="1.1" id="Layer_1" xmlns="http://www.w3.org/2000/svg" xmlns:xlink="http://www.w3.org/1999/xlink" x="0px" y="0px"
	 viewBox="-345 257 100 100" style="enable-background:new -345 257 100 100;" xml:space="preserve">
<style type="text/css">
	.st0{fill:#EAEAEA;}
	.st1{clip-path:url(#SVGID_2_);}
	.st2{fill:#FFFFFF;}
	.st3{fill:#E2E2E2;}
	.st4{fill:#BDBDBC;}
	.st5{fill:#D1D1D1;}
</style>
<g>
	<path class="st0" d="M-609.5,596.9l-67-67c-0.6-0.6-0.6-1.4,0-2c0.6-0.6,1.4-0.6,2,0l67,67c0.6,0.6,0.6,1.4,0,2
		C-608.1,597.5-608.9,597.5-609.5,596.9z"/>
</g>
<g>
	<path class="st0" d="M-676.5,594.9l67-67c0.6-0.6,1.4-0.6,2,0c0.6,0.6,0.6,1.4,0,2l-67,67c-0.6,0.6-1.4,0.6-2,0
		C-677.1,596.3-677.1,595.5-676.5,594.9z"/>
</g>
<g>
	<path class="st0" d="M-271.6,324.1c0.8-2.8,2.8-10,5.4-14.7c2.6-4.7,8.3-12.5,10.3-15c2-2.5,3.6-5.9,3.7-6.9c0.1-1-0.1-2.7-0.9-3.3
		c-0.8-0.6-1.6-0.8-1.9-0.8c-0.3,0-1.6,1-1.6,1s-8.5,3.9-10.9,4.1c-2.4,0.2-11.4,0.2-12.8,0.2s-3.9,0-6.1,0.8
		c-2.3,0.8-8.9,4-10.8,4.9s-14.5,10.9-16.3,12.5c-1.8,1.6-5.6,5.3-9.5,12.5c-3.9,7.2-3.9,7.8-4.1,8.2c-0.1,0.4,0.2,0.7,0.2,1.2
		s-0.7,1.5-0.3,2c0.4,0.5,2.1,2.2,2.8,2.2s2.2,0,3.2,0.4c1,0.4,3.2,1.8,7.3,1.8c3.5,0,6.9,0,9.4-1.2c2.4-1.3,7.3-1.7,9.5-3
		c2.1-1.2,4.6-2.2,5.8-2.3s1.9-0.2,2.3,0.1c0.4,0.3,4.7-0.4,6.3-0.8c2.3-0.5,4.3-1.2,4.8-1.7s2.4-0.4,2.9-0.8
		S-271.8,325-271.6,324.1z"/>
</g>
<g>
	<defs>
		<path id="SVGID_1_" d="M-271.6,324.1c0.8-2.8,2.8-10,5.4-14.7c2.6-4.7,8.3-12.5,10.3-15c2-2.5,3.6-5.9,3.7-6.9
			c0.1-1-0.1-2.7-0.9-3.3c-0.8-0.6-1.6-0.8-1.9-0.8c-0.3,0-1.6,1-1.6,1s-8.5,3.9-10.9,4.1c-2.4,0.2-11.4,0.2-12.8,0.2
			s-3.9,0-6.1,0.8c-2.3,0.8-8.9,4-10.8,4.9s-14.5,10.9-16.3,12.5c-1.8,1.6-5.6,5.3-9.5,12.5c-3.9,7.2-3.9,7.8-4.1,8.2
			c-0.1,0.4,0.2,0.7,0.2,1.2s-0.7,1.5-0.3,2c0.4,0.5,2.1,2.2,2.8,2.2s2.2,0,3.2,0.4c1,0.4,5.3,1.9,7.3,1.8c2,0,7.9-0.6,9.4-1.2
			c1.4-0.6,7.9-2.6,9.2-3.4s4.8-2.8,6-2.9s1.9-0.2,2.3,0.1c0.4,0.3,5.6,0.4,7.1,0s3.5-1,4.1-1.5s2.4-0.4,2.9-0.8
			S-271.8,325-271.6,324.1z"/>
	</defs>
	<clipPath id="SVGID_2_">
		<use xlink:href="#SVGID_1_"  style="overflow:visible;"/>
	</clipPath>
	<g class="st1">
		<path class="st2" d="M-292.8,293.8c-1.8,1.2-4.4,2.9-5.7,4.2c-1.4,1.3-7.7,6.7-9.4,8.1c-1.7,1.3-6.8,5.6-7.9,7.4
			c-1.1,1.8-3.1,4.9-3.7,6.2s-0.6-0.8-0.3-1.3c0.3-0.5,1.5-2.7,0.9-2.5c-0.5,0.2-1.3,0.6-1.7,1.3c-0.6,1-2.1,3.9-3.2,6.1
			c-0.7,1.5-2.7,4.9-3.1,6c-0.2,0.6-1.1-3.6-1.1-3.6l4.3-12.3l15.2-16.5l10.4-5.9l14.7-3.2c0,0,0.1,0.5-0.9,1
			C-285.3,289.2-291.1,292.6-292.8,293.8z"/>
	</g>
</g>
<g>
	<path class="st0" d="M-308.6,304.3c0,0.4,1.3,0.9,2.3-0.4c1-1.3,4.1-3.8,3.8-4.1c-0.3-0.3-1.1,0.3-1.8,0.9c-0.8,0.6-3.9,1.8-4,2.5
		S-308.6,303.8-308.6,304.3z"/>
</g>
<g>
	<path class="st3" d="M-290.2,325.5c1.1-0.1,2.5-0.9,3.3-3c0.8-2,0.9-3.5,1.5-5.3c0.5-1.5,1.2-4.1,1.3-5c0-0.2-0.8-0.7-1-0.5
		c-0.6,0.5-1.1,0.4-1,0c0.2-0.8,1.3-3.1,3.6-6.6c1.4-2.1,4.6-5.4,5.4-7.4c0.5-1.4,2.1-5.8,0.7-5s-11.5,11.7-11.5,11.7l-5.5,8.2
		l-0.5,8.9C-294,321.6-292.1,325.6-290.2,325.5z"/>
</g>
<g>
	<path class="st4" d="M-289.4,320.9c-0.3,0.7-0.7,1.6-0.5,1.6c0.2,0,1.4-0.3,1.6-0.8s0.4-1.7,0.3-2c-0.1-0.3-0.3-0.5-0.4-0.3
		C-288.5,319.6-289,319.9-289.4,320.9z"/>
</g>
<g>
	<path class="st5" d="M-288.9,318.2c0.3-0.3,0.1,1.4-0.4,2.7c-0.5,1.3-0.5,1.7-0.7,1.6s-0.4-0.4-0.4-1c0-0.6,0.5-1.4,0.8-1.9
		C-289.3,319-289.1,318.4-288.9,318.2z"/>
</g>
<g>
	<path class="st5" d="M-287.8,319.7c-0.2,0.1-0.2,1.5-0.7,2.1c-0.5,0.7-1,0.9-1.2,0.9c-0.2,0.1-0.7,0.6-0.5,0.7
		c0.3,0.1,1.2,0.2,1.2,0.2l1.1-1.2l0.7-2.1C-287.1,320.3-287.7,319.6-287.8,319.7z"/>
</g>
<g>
	<path class="st0" d="M-287.3,319.3c-0.2,0.5-0.2,1-0.3,1.5c-0.1,0.4-0.8,1.8-1,2.1s-1.2,0.6-1.2,0.8s0.9,0.6,1.4,0.2s1.5-1.9,1.6-3
		c0.1-1.1,0.4-1.7,0.3-1.9C-286.7,318.7-287.2,319-287.3,319.3z"/>
</g>
<g>
	<path class="st2" d="M-257.8,283.4c-1.6,0.3-8.2,4-9.5,4.8c-1.3,0.7-2.8,1.3-3.6,3.1c-0.8,1.8-0.9,3-2,4.8
		c-1.1,1.8-3.2,4.1-4.1,6.2s-3,7.5-3.6,8.6s-1.3,2.8-1.3,2.8s2.5-3.6,4.1-4.9c1.6-1.3,5.5-5.3,6.3-6.3c0.8-1,5.3-5.1,6.7-6.2
		c1.4-1.2,6.8-6.5,7.8-8.9C-256,284.8-254.8,282.8-257.8,283.4z"/>
</g>
<g>
	<path class="st4" d="M-307.7,302.9c-0.5,0.6-0.7,1.2-0.6,1.4s0.8,0.2,1,0s0.9-0.7,0.9-1.1c0-0.4,0-0.6-0.3-0.6
		S-307.5,302.7-307.7,302.9z"/>
</g>
<g>
	<path class="st2" d="M-275.4,291.6c-1.7,0-8.2,1.6-9.9,2c-1.7,0.3-4.6,1.5-6,2.8c-1.4,1.3-5.5,4.1-6.6,5.1c-1.1,1-3.5,2.8-4.6,4.4
		c-1.1,1.5-3.4,3.5-4.8,4.2c-1.4,0.7-2,1.6-2.4,2.9c-0.4,1.3-2.8,3.7-3.8,5.2s-0.8,2.7-1.3,4.3s-0.3,2.7-0.5,4.7
		c-0.2,2,0.4,4.4,2.3,4.7c1.9,0.3,3.3-0.3,4,0c0.7,0.3,3.2-1.3,4-2.3c0.8-1,3.6-2.7,4.3-3.7c0.7-1,2.1-1.8,3.8-2.7
		c0.2-0.1,0.6,0,1.2,0.2c0.5,0.2,2.2,1.9,2.8,2.2c1.2,0.6,2.9-0.6,2-1.2c-1.3-0.8-1.4-3.1-1.3-3.5c0.5-1.6,2.3-3.5,2.3-4.2
		s1.2-1.5,1.2-3.1c0-1,2.5-6,3.7-7.6s3.3-6.3,5.1-8s4.1-4.4,5.4-5.4C-274.4,292.3-274.3,291.6-275.4,291.6z"/>
</g>
<g>
	<path class="st2" d="M-306.7,337.8c-0.1,0-0.2-0.1-0.2-0.2c0-0.1,0.1-0.2,0.2-0.2c0.4,0,1.2-0.2,2-0.3c1.2-0.2,2.8-0.5,3.9-0.6
		c1.3-0.1,2.1-0.1,3,0c0.5,0,0.9,0,1.5,0c0.9,0,2.6-0.8,4.3-1.7c1.4-0.7,2.8-1.4,4-1.8c0.1,0,0.2,0,0.3,0.1c0,0.1,0,0.2-0.1,0.3
		c-1.2,0.4-2.6,1.1-3.9,1.8c-1.8,0.9-3.5,1.8-4.5,1.8c-0.6,0-1.1,0-1.5,0c-0.8,0-1.6-0.1-2.9,0c-1.2,0.1-2.7,0.4-3.9,0.6
		C-305.5,337.6-306.3,337.8-306.7,337.8C-306.7,337.8-306.7,337.8-306.7,337.8z"/>
</g>
<g>
	<path class="st2" d="M-330.2,329c0,0-0.1,0-0.1,0c-0.7-0.5-1.4-1.8-0.9-2.8c0.3-0.6,1.7-1.8,4.4-2.2c0.1,0,0.2,0.1,0.3,0.2
		c0,0.1-0.1,0.2-0.2,0.3c-2.6,0.4-3.8,1.5-4.1,2c-0.4,0.8,0.2,1.9,0.7,2.2c0.1,0.1,0.1,0.2,0.1,0.3
		C-330.1,328.9-330.1,329-330.2,329z"/>
</g>
<g>
	<path class="st2" d="M-332,334.7c0,0-0.1,0-0.1,0c-0.8-0.6-1.1-1.6-1.3-2.3c-0.2-0.7-0.3-1.2-0.7-1.3c-1.1-0.4-2.9-2.1-2.9-3.6
		c0-2.7,2.6-3.2,5.3-3.5c0.1,0,0.2,0.1,0.2,0.2c0,0.1-0.1,0.2-0.2,0.2c-2.6,0.3-4.9,0.7-4.9,3.1c0,1.3,1.6,2.9,2.6,3.2
		c0.6,0.2,0.8,0.9,1,1.6c0.2,0.7,0.4,1.6,1.2,2.1c0.1,0.1,0.1,0.2,0,0.3C-331.9,334.6-331.9,334.7-332,334.7z"/>
</g>
<g>
	<path class="st2" d="M-317.7,337.9c-0.4,0-0.8,0-1.1-0.1c-0.5,0-1-0.1-1.6,0c-1,0.1-1.4-0.3-1.7-0.8c-0.2-0.2-0.4-0.5-0.8-0.8
		c-0.1-0.1-0.1-0.2,0-0.3c0.1-0.1,0.2-0.1,0.3,0c0.4,0.3,0.7,0.6,0.9,0.8c0.4,0.4,0.6,0.7,1.4,0.6c0.6,0,1.1,0,1.6,0
		c0.7,0.1,1.4,0.1,2.2,0c0.1,0,0.2,0.1,0.3,0.2c0,0.1-0.1,0.2-0.2,0.3C-316.9,337.9-317.3,337.9-317.7,337.9z"/>
</g>
<g>
	<path class="st2" d="M-323.6,338.8c-0.9,0-1.7-0.4-2.1-1.1c-0.1-0.1-0.6-0.2-1.1-0.3c-0.7-0.1-1.7-0.3-2.5-0.7
		c-0.1-0.1-0.1-0.2-0.1-0.3c0.1-0.1,0.2-0.1,0.3-0.1c0.7,0.4,1.6,0.5,2.3,0.7c0.7,0.1,1.3,0.2,1.5,0.5c0.2,0.3,0.7,0.9,1.7,0.9
		c0.1,0,0.2,0.1,0.2,0.2C-323.4,338.7-323.5,338.8-323.6,338.8z"/>
</g>
<g>
	<path class="st2" d="M-281.9,333.8c-0.1,0-0.2,0-0.2-0.1c-0.1-0.1,0-0.2,0.1-0.3c1-0.5,1.2-0.5,1.6-0.6c0.1,0,0.2,0,0.3,0
		c0.1,0,0.2,0.1,0.3,0.2c0,0.1-0.1,0.2-0.2,0.3c-0.1,0-0.2,0-0.3,0C-280.7,333.3-280.8,333.3-281.9,333.8
		C-281.8,333.8-281.8,333.8-281.9,333.8z"/>
</g>
<g>
	<path class="st2" d="M-331.5,322.7c0,0-0.1,0-0.1,0c-0.1-0.1-0.1-0.2-0.1-0.3c0.8-1.3,1.6-1.2,2.4-1.1c0.5,0.1,1.1,0.1,1.8-0.1
		c0.1,0,0.2,0,0.3,0.1c0,0.1,0,0.2-0.1,0.3c-0.8,0.3-1.4,0.2-2,0.1c-0.8-0.1-1.4-0.2-2,0.9C-331.4,322.7-331.4,322.7-331.5,322.7z"
		/>
</g>
<g>
	<path class="st2" d="M-312.5,340.1c-0.2,0-0.4,0-0.7,0c-0.1,0-0.2-0.1-0.2-0.2c0-0.1,0.1-0.2,0.2-0.2c1,0.1,2,0,2.9-0.3
		c0.1,0,0.2,0,0.3,0.2c0,0.1,0,0.2-0.2,0.3C-310.9,340-311.7,340.1-312.5,340.1z"/>
</g>
<g>
	<path class="st2" d="M-296.9,339.1c-0.3,0-0.6,0-0.8-0.1c-0.1,0-0.2-0.1-0.2-0.3c0-0.1,0.1-0.2,0.3-0.2c1.1,0.2,2.4-0.1,3.4-0.7
		c0.1-0.1,0.2,0,0.3,0.1c0.1,0.1,0,0.2-0.1,0.3C-294.9,338.9-295.9,339.1-296.9,339.1z"/>
</g>
<g>
	<path class="st2" d="M-283.8,338.6c-0.1,0-0.2-0.1-0.2-0.2c0-0.1,0-0.2,0.2-0.3l2.9-0.7c0.4-0.1,0.8-0.2,1.2-0.3
		c1.2-0.4,2.1-1.3,3.1-2.1c0.1-0.1,0.2-0.1,0.3,0c0.1,0.1,0.1,0.2,0,0.3c-0.9,0.8-2,1.7-3.2,2.1c-0.4,0.1-0.8,0.2-1.2,0.3
		L-283.8,338.6C-283.8,338.6-283.8,338.6-283.8,338.6z"/>
</g>
<g>
	<path class="st2" d="M-262.4,323.1c-0.1,0-0.1,0-0.2-0.1l-1.2-1.4c-0.1-0.1-0.2-0.2-0.3-0.2c-0.1,0-0.3,0-0.5,0.1l-0.1,0
		c-1.1,0.4-2.3,0.4-3.4-0.2c-0.1-0.1-0.2-0.2-0.1-0.3c0.1-0.1,0.2-0.2,0.3-0.1c0.9,0.5,2,0.5,3,0.2l0.1,0c0.2-0.1,0.5-0.2,0.8-0.1
		c0.2,0.1,0.4,0.2,0.5,0.4l1.2,1.4c0.1,0.1,0.1,0.2,0,0.3C-262.3,323.1-262.4,323.1-262.4,323.1z"/>
</g>
<g>
	<path class="st2" d="M-271.5,334.6c-0.1,0-0.2,0-0.2-0.1c-0.1-0.1,0-0.2,0.1-0.3c2.4-1.4,5-2.6,7.7-3.5c0.2-0.1,0.4-0.1,0.5-0.2
		c0.1-0.1,0.2-0.3,0.3-0.4l1.1-2.1c0.1-0.2,0.2-0.4,0.1-0.5c0-0.1-0.2-0.2-0.3-0.2c-1-0.6-1.8-1.6-2.3-2.7c0-0.1,0-0.2,0.1-0.3
		c0.1,0,0.2,0,0.3,0.1c0.4,1,1.2,1.9,2.1,2.5c0.2,0.1,0.4,0.2,0.5,0.4c0.2,0.4,0,0.7-0.1,0.9l-1.1,2.1c-0.1,0.2-0.2,0.4-0.4,0.5
		c-0.2,0.2-0.4,0.3-0.6,0.3c-2.6,0.9-5.2,2.1-7.6,3.4C-271.4,334.6-271.4,334.6-271.5,334.6z"/>
</g>
<g>
	<path class="st2" d="M-273.3,330.3c-0.4,0-0.9,0-1.3-0.1c-0.1,0-0.2-0.1-0.2-0.3c0-0.1,0.1-0.2,0.3-0.2c1.9,0.3,3.9-0.1,5.5-1.2
		c0.3-0.2,0.5-0.4,0.5-0.6c0-0.1,0-0.3-0.1-0.4l0-0.1c-0.2-0.7-0.3-1.4-0.3-2.1c0-0.1,0.1-0.2,0.2-0.2c0.1,0,0.2,0.1,0.2,0.2
		c0,0.6,0,1.3,0.2,1.9l0,0.1c0.1,0.2,0.1,0.4,0.1,0.6c0,0.5-0.4,0.8-0.7,1C-270.1,329.8-271.7,330.3-273.3,330.3z"/>
</g>
</svg>
