<?xml version="1.0" encoding="utf-8"?>
<!-- Generator: Adobe Illustrator 16.0.0, SVG Export Plug-In . SVG Version: 6.00 Build 0)  -->
<!DOCTYPE svg PUBLIC "-//W3C//DTD SVG 1.1//EN" "http://www.w3.org/Graphics/SVG/1.1/DTD/svg11.dtd">
<svg version="1.1" id="Layer_1" xmlns="http://www.w3.org/2000/svg" xmlns:xlink="http://www.w3.org/1999/xlink" x="0px" y="0px"
	 width="100px" height="100px" viewBox="0 0 100 100" enable-background="new 0 0 100 100" xml:space="preserve">
<g>
	<path fill="#FFFFFF" d="M18.034,27c-0.643,1.782-0.636,3.927-0.003,5.719c1.195,3.394,4.393,5.52,7.795,5.52
		c0.912,0,1.834-0.152,2.739-0.474c1.211-0.429,2.308-1.137,3.194-2.056c1.522-0.397,3.397-1.312,5.936-3.34
		c0.204-0.162,0.295-0.432,0.223-0.68c-0.06-0.214-1.442-5.129-4.853-8.409c0.126-0.388,0.158-0.801,0.099-1.214
		c-0.166-1.023-0.893-1.818-1.84-2.095c-1.204-1.334-2.812-2.234-4.557-2.599c0-0.003,0-0.006,0-0.016
		c-0.286-1.78-1.967-3-3.746-2.717c-1.779,0.286-3,1.97-2.715,3.749c0.01,0.057,0.024,0.111,0.05,0.162
		c-1.415,0.903-2.551,2.206-3.219,3.763c-0.188,0.152-0.354,0.318-0.501,0.521c-0.408,0.562-0.574,1.255-0.464,1.945
		C16.335,25.798,17.085,26.719,18.034,27z M36.542,31.629c-4.03,3.117-6.129,3.13-7.944,3.038c1.21-3.705-0.693-6.677-2.692-8.803
		l5.091-0.813c0.514-0.079,0.975-0.308,1.351-0.647C34.835,26.901,36.15,30.438,36.542,31.629z M24.329,26.119
		c0.998,0.969,1.985,2.094,2.624,3.382c-0.943-0.43-2.021-0.626-3.08-0.814c-1.718-0.309-3.348-0.61-4.425-1.786L24.329,26.119z
		 M23.225,15.928c0.948-0.152,1.848,0.404,2.162,1.271c-0.578-0.021-1.163,0.007-1.748,0.099c-0.722,0.115-1.419,0.325-2.072,0.607
		C21.552,16.941,22.246,16.081,23.225,15.928z M23.842,18.582c2.018-0.321,4.062,0.219,5.615,1.433L18.95,21.693
		C20.053,20.055,21.83,18.903,23.842,18.582z M17.457,24.574c-0.117-0.715,0.373-1.392,1.088-1.507l11.832-1.883
		c0.07-0.014,0.144-0.019,0.209-0.019c0.648,0,1.188,0.464,1.291,1.106c0.118,0.711-0.369,1.385-1.083,1.5l-11.835,1.887
		c-0.068,0.013-0.14,0.022-0.208,0.022C18.099,25.68,17.557,25.213,17.457,24.574z M19.257,32.288
		c-0.453-1.284-0.516-2.663-0.193-3.973c1.321,1.061,3.035,1.374,4.579,1.65c1.608,0.293,3.124,0.562,3.973,1.598
		c0.146,1.067,0.013,2.215-0.54,3.451c-0.093,0.201-0.074,0.429,0.041,0.616c0.118,0.185,0.318,0.293,0.538,0.299
		c0.229,0.006,0.46,0.019,0.693,0.033c0.315,0.015,0.636,0.028,0.973,0.035c-0.379,0.216-0.775,0.397-1.188,0.543
		C24.514,37.816,20.533,35.906,19.257,32.288z"/>
	<path fill="#FFFFFF" d="M71.803,65.25c-0.516-0.911-1.364-1.63-2.439-1.961l-11.138-3.378l4.267-4.859
		c0.162-0.19,0.203-0.453,0.109-0.683c-0.083-0.193-2.071-4.908-5.453-9.431c-4.861-6.5-9.892-9.044-13.263-10.04
		c-3.582-1.052-6.067-0.639-6.311-0.591c-2.234,0.344-4.064,1.558-5.033,3.328c-1.567,2.863-0.607,6.71,2.262,9.126l2.993,2.635
		l-4.148,1.908c-0.787,0.363-1.389,0.974-1.757,1.693l-2.937-3.25c-0.242-0.265-0.651-0.287-0.915-0.048
		c-0.267,0.241-0.29,0.654-0.049,0.922l3.493,3.863c-0.035,0.599,0.072,1.211,0.339,1.792c0.585,1.269,1.84,2.102,3.234,2.159
		l17.566,18.682L39.708,85.06c-0.54,0.333-0.915,0.853-1.061,1.469c-0.146,0.612-0.044,1.248,0.286,1.782l0.337,0.543
		c0.328,0.54,0.849,0.912,1.461,1.062c0.181,0.047,0.369,0.065,0.553,0.065c0.429,0,0.852-0.12,1.23-0.353l13.863-8.522l1.221,1.303
		l-2.276,1.519c-0.298,0.201-0.382,0.607-0.181,0.906c0.11,0.164,0.287,0.264,0.469,0.286c0.15,0.014,0.302-0.021,0.433-0.109
		l2.457-1.643l1.617,1.717c0.124,0.137,0.299,0.202,0.469,0.202c0.164,0,0.322-0.053,0.449-0.175c0.258-0.24,0.273-0.658,0.025-0.92
		l-1.461-1.553l2.582-1.727c0.296-0.2,0.381-0.601,0.183-0.902c-0.202-0.298-0.604-0.378-0.902-0.174l-2.765,1.846l-1.192-1.271
		l25.612-15.743c1.105-0.682,1.453-2.138,0.772-3.247l-0.333-0.546c-0.683-1.113-2.139-1.456-3.249-0.775L71.803,65.25z
		 M68.979,64.532c1.557,0.483,2.431,2.138,1.947,3.692c-0.035,0.124-0.082,0.235-0.132,0.347l-10.771-3.459
		c-0.342-0.115-0.712,0.071-0.818,0.421c-0.108,0.337,0.079,0.706,0.42,0.814l10.318,3.318c-0.738,0.583-1.742,0.813-2.701,0.512
		l-14.075-4.506l4.12-4.688L68.979,64.532z M33.678,38.258c0.776-1.414,2.269-2.386,4.103-2.663
		c0.009-0.007,0.017-0.007,0.029-0.007c0.095-0.019,9.441-1.713,18.301,10.131c1.122,1.497,2.088,3.035,2.886,4.415l-6.986,7.474
		c-0.244,0.268-0.227,0.673,0.03,0.918c0.126,0.118,0.288,0.179,0.443,0.179c0.175,0,0.348-0.074,0.474-0.205l6.701-7.174
		c0.793,1.455,1.332,2.616,1.583,3.182L49.437,67.962l-2.863-12.666c-0.029-0.135-0.104-0.259-0.213-0.352l-1.061-0.902
		c1.264-1.053,1.722-2.869,0.997-4.439l-4.217-9.185c-0.607-1.312-1.945-2.164-3.4-2.164c-0.546,0-1.075,0.111-1.572,0.343
		c-1.866,0.864-2.679,3.083-1.818,4.958l1.468,3.197l-1.103-0.976C33.236,43.746,32.41,40.581,33.678,38.258z M32.811,54.392
		c0.104-0.863,0.664-1.569,1.382-1.903l4.881-2.247c0.33-0.152,0.473-0.532,0.321-0.857l-2.923-6.374
		c-0.565-1.218-0.032-2.67,1.186-3.23c0.324-0.152,0.667-0.229,1.021-0.229c0.957,0,1.828,0.559,2.221,1.417l4.22,9.181
		c0.559,1.214,0.035,2.656-1.165,3.224c-0.014,0-0.017,0.004-0.026,0.01c-0.01,0.005-0.019,0.005-0.025,0.014l-7.665,3.52
		c-0.324,0.152-0.67,0.228-1.023,0.228c-0.95,0-1.815-0.561-2.206-1.409C32.836,55.364,32.753,54.806,32.811,54.392z M36.596,58.177
		c0.06-0.027,0.121-0.051,0.184-0.079l7.321-3.362l1.252,1.062l3.096,13.689c0.054,0.24,0.235,0.43,0.473,0.488
		c0.053,0.014,0.107,0.022,0.162,0.022c0.184,0,0.363-0.08,0.489-0.226l2.66-3.031l11.363,3.635l-9.839,6.047L36.596,58.177z
		 M41.835,88.521c-0.242,0.149-0.525,0.197-0.801,0.134c-0.272-0.067-0.511-0.236-0.658-0.477l-0.333-0.546
		c-0.149-0.242-0.197-0.528-0.134-0.805c0.066-0.275,0.238-0.511,0.477-0.658l13.149-8.078l1.932,2.053L41.835,88.521z
		 M65.103,70.856l1.744,0.556c0.421,0.134,0.84,0.193,1.259,0.193c1.814,0,3.498-1.169,4.061-2.993
		c0.21-0.662,0.239-1.375,0.129-2.012l8.696-5.394c0.499-0.308,1.153-0.148,1.458,0.347l0.334,0.546
		c0.307,0.499,0.148,1.154-0.347,1.463L56.598,79.449l-1.931-2.054L65.103,70.856z"/>
</g>
</svg>
