<?xml version="1.0" encoding="utf-8"?>
<!-- Generator: Adobe Illustrator 19.0.0, SVG Export Plug-In . SVG Version: 6.00 Build 0)  -->
<svg version="1.1" id="Layer_1" xmlns="http://www.w3.org/2000/svg" xmlns:xlink="http://www.w3.org/1999/xlink" x="0px" y="0px"
	 viewBox="-345 257 100 100" style="enable-background:new -345 257 100 100;" xml:space="preserve">
<style type="text/css">
	.st0{opacity:0;}
	.st1{fill:#D1D1D1;}
	.st2{fill:#C6C6C6;}
	.st3{fill:#FFFFFF;}
	.st4{fill:#EAEAEA;}
	.st5{fill:#D3D4D5;}
	.st6{fill:#BFBFBF;}
	.st7{clip-path:url(#SVGID_2_);}
	.st8{clip-path:url(#SVGID_4_);}
</style>
<g>
	<g class="st0">
		<path class="st1" d="M-285.3,335.7c0,0-3.7,5.5-4.2,6.2c-0.6,0.6-5.5,1.1-6.2,0.5c-0.7-0.6-4.5-5.6-4.5-5.6l3.2-4.7l10.2,0.2
			L-285.3,335.7z"/>
	</g>
	<g>
		<path class="st1" d="M-300.3,336.6c0,0,2.6,0.8,7.2,0.8c4.6,0,7.5-1.4,7.5-1.4l-1.2-2l-4.8-0.4l-3.7,0.7l-3.9,0.1L-300.3,336.6z"
			/>
	</g>
	<g>
		<path class="st1" d="M-289,345.7c0,0-1.4,1.2-3.5,1.2c-3,0-3.5-0.9-3.5-0.9l2.3-0.3H-289z"/>
	</g>
	<g>
		
			<rect x="-302.2" y="338.8" transform="matrix(-0.5867 -0.8098 0.8098 -0.5867 -747.5893 296.5799)" class="st2" width="8.2" height="0.5"/>
	</g>
	<g>
		
			<rect x="-290.1" y="333.9" transform="matrix(-0.9512 -0.3086 0.3086 -0.9512 -669.8945 570.3448)" class="st2" width="0.5" height="8.4"/>
	</g>
	<g>
		<path class="st3" d="M-289,341.5C-289.1,341.5-289.1,341.5-289,341.5c-0.2-0.1-0.3-0.2-0.2-0.4l4-5.9c0.1-0.1,0.2-0.2,0.4-0.1
			c0.1,0.1,0.2,0.2,0.1,0.4l-4,5.9C-289,341.4-289,341.5-289,341.5z"/>
	</g>
	<g>
		<path class="st3" d="M-293.6,341.4c-0.1,0-0.2-0.1-0.2-0.1l-3.5-7c-0.1-0.1,0-0.3,0.1-0.4s0.3,0,0.4,0.1l3.5,7
			c0.1,0.1,0,0.3-0.1,0.4C-293.6,341.4-293.6,341.4-293.6,341.4z"/>
	</g>
	<g>
		<path class="st3" d="M-293.6,341v4.6c0,0,0.9,0.4,2.3,0.4c1.4,0,2.3-0.4,2.3-0.4V341c0,0-0.9,0.4-2.3,0.4
			C-292.8,341.4-293.6,341-293.6,341"/>
	</g>
	<g>
		<path class="st4" d="M-295.9,342.1l2.3-1.1v4.6c0,0-0.3,0.4-1.1,0.6c-0.8,0.2-1.1-0.4-1.1-0.4L-295.9,342.1L-295.9,342.1z"/>
	</g>
	<g>
		<path class="st5" d="M-292.8,342.6l0.1-0.3c-0.1,0-0.3,0-0.4,0l0.1,0.3c-0.2,0.2-0.5,0.8-0.5,1.1c0,0.4,0.3,0.7,0.6,0.7
			c0.3,0,0.6-0.3,0.6-0.7C-292.3,343.4-292.6,342.8-292.8,342.6"/>
	</g>
	<g>
		<path class="st5" d="M-291,342.8l0.1-0.3c-0.1,0-0.3,0-0.3,0L-291,342.8c-0.3,0.2-0.6,0.8-0.6,1.1c0,0.4,0.3,0.7,0.6,0.7
			c0.3,0,0.6-0.3,0.6-0.7C-290.5,343.5-290.9,342.9-291,342.8"/>
	</g>
	<g>
		<path class="st5" d="M-289.4,342.6l0.1-0.3c-0.1,0-0.3,0-0.3,0L-289.4,342.6c-0.3,0.2-0.6,0.8-0.6,1.1c0,0.4,0.3,0.7,0.6,0.7
			c0.3,0,0.6-0.3,0.6-0.7C-289,343.3-289.2,342.8-289.4,342.6"/>
	</g>
	<g>
		<path class="st6" d="M-294.8,343.2l0.1-0.3c0,0-0.2,0-0.3,0L-294.8,343.2c-0.2,0.2-0.5,0.7-0.5,0.9s0.2,0.6,0.5,0.6
			c0.3,0,0.5-0.2,0.5-0.6C-294.4,343.8-294.7,343.4-294.8,343.2"/>
	</g>
	<g>
		<path class="st6" d="M-295.4,343.3l0.1-0.2c0,0-0.2,0-0.3,0L-295.4,343.3c-0.2,0.2-0.5,0.7-0.5,0.9s0.2,0.5,0.5,0.5
			c0.3,0,0.5-0.2,0.5-0.5C-295.1,344-295.3,343.5-295.4,343.3"/>
	</g>
	<g>
		<path class="st6" d="M-294.1,342.8l0.1-0.3c-0.1,0-0.3,0-0.3,0L-294.1,342.8c-0.3,0.2-0.6,0.8-0.6,1c0,0.4,0.3,0.6,0.6,0.6
			c0.3,0,0.6-0.2,0.6-0.6C-293.7,343.5-294,343-294.1,342.8"/>
	</g>
	<g>
		<path class="st5" d="M-295.9,343.6c-0.1,0-0.3-0.1-0.3-0.3c0-0.1,0.1-0.3,0.3-0.3c0,0,0.5,0,0.9-0.2c0.6-0.2,1.2-0.8,1.2-0.8
			c0.1-0.1,0.3-0.1,0.4,0c0.1,0.1,0.1,0.3,0,0.4c0,0-0.7,0.7-1.3,0.8C-295.3,343.6-295.9,343.6-295.9,343.6L-295.9,343.6z"/>
	</g>
	<g>
		<path class="st4" d="M-291.3,343c-1.5,0-2.4-0.4-2.4-0.5c-0.1-0.1-0.2-0.2-0.1-0.4c0.1-0.1,0.2-0.2,0.4-0.1c0,0,0.8,0.4,2.3,0.4
			c1.4,0,2.3-0.4,2.3-0.4c0.1-0.1,0.3,0,0.4,0.1c0.1,0.1,0,0.3-0.1,0.4C-288.9,342.6-289.8,343-291.3,343z"/>
	</g>
	<g>
		<g>
			<defs>
				<path id="SVGID_1_" d="M-293.6,267.1c16.9,0,32.9,10.1,32.3,27c-0.3,7.9-9.4,23.7-24.2,42.4c0,0-0.5-2.4-6.8-2.3
					c-6.3,0.1-8,2.5-8,2.5c-7.5-6.9-28.5-25.9-28.1-41.2C-327.9,281.5-318.3,267.1-293.6,267.1z"/>
			</defs>
			<clipPath id="SVGID_2_">
				<use xlink:href="#SVGID_1_"  style="overflow:visible;"/>
			</clipPath>
			<g class="st7">
				<g>
					<path class="st3" d="M-296.1,266.6c15.6-0.2,24.7,7,24.7,7l-14.4-2.5l-16.1-0.4l-13.2,2.9l-4.5,2.3l-5.5,2.8l1.9-2.7
						C-323.3,276.1-310.1,266.7-296.1,266.6z"/>
				</g>
				<g>
					<path class="st3" d="M-288.9,269.6c4.6-1,11.6,1.2,13.5,2.6c0,0,8.1,0.2,12.2,4.9c0.8,1,0,5.3,0,5.3l-8.5-4.2l-16.7-3.1
						l-13.8-0.4l-15.5,2.5l-9.7,6.9l-0.4-3.6c2.9-2.3,6.5-4.6,10.7-6.1c2.7-2.3,7.6-4.6,13.1-4.4
						C-299.8,268.3-292.2,268.3-288.9,269.6z"/>
				</g>
				<g>
					<path class="st3" d="M-296.5,272.9c0.7-1,7.8-0.5,8.6,0.2c1.1-0.4,6.6-0.1,8.2,1.2c1.5-0.5,5.5,0.8,7,2
						c0.8-0.7,5.5,1.8,5.3,2.5c0.9-0.1,4.7,3.6,5.7,5c0.8,1,1.2,5.1,1.2,5.1l-9.7-5.9l-13-3.6l-13.2-0.5l-10.8,0.3l-14.7,3.9
						l-7.5,7.9l-2.6,1.1c0,0,0.2-2.7,0.7-3.9c1.4-3.6,9-9.5,12-10.2c1-1.4,5.4-2.8,6.2-2.4c0.8-1.1,6.2-2.3,7.7-1.7
						C-303.7,272.6-298.4,272.3-296.5,272.9z"/>
				</g>
				<g>
					<path class="st4" d="M-287.4,276.8c0.5-2,14.1-0.8,16,3.3c2.7-1.5,9.5,3.8,9.9,7.7c0.7-0.1,6.7,2.4,4.8,9
						c-0.5,3.4-2.9-1.1-2.9-1.1l-5.3-6.2l-17-5l-24.2-0.3l-12.1,3.5l-9.9,7.7l-3.6,3.4c0,0,1.8-4,1.3-5.7
						c-0.8-2.3,6.1-11.4,10.1-10.8c1.5-3.8,13.8-6.6,14.7-4.7C-305.1,275-287.7,274.5-287.4,276.8z"/>
				</g>
				<g>
					<path class="st4" d="M-296.4,281.3c1.6-0.8,6.9-0.7,9.2-0.1c1.8-0.6,7,0.3,8.8,1.2c3.1,0,6.2,1,7.5,2.2
						c2.3,0.4,4.6,1.3,5.9,2.7c4.8,2.7,6.1,6.2,7,10.7l-1.3,4.1l-5.1-6.3l-8-4.3l-11-2.2l-25.1-0.1l-6.7,2.3l-10,4.7l-4.8,7.3
						l-0.4-4.2c0.4-2.4,0.6-3.9,2.1-6.2c0.3-1.3,1.7-2.9,2.9-3.4c0.6-1.3,2.2-2.9,4.7-3.1c0.4-1.3,5-3,6.7-2.7
						c2.3-1.2,4.8-2.1,8.3-2.1C-303.5,281-298.6,280.4-296.4,281.3z"/>
				</g>
				<g>
					<path class="st3" d="M-286.9,286.4c2.3-1.6,13.8,0.5,15.9,3.3c3.3,0.2,8.9,5.1,9.3,7.4c2.2,1.4,2.2,4.9,1.8,8.4l-2.2,1.9
						l-1.6-4.8l-6.6-5.3l-9.2-1.7l-12.1-2.2l-11.8,1.5l-8.2,1.6l-9.4,3.1l-4.9,5.3l-1.5,4.5l-1-5.6c-0.4-1.5-1.5-3.8,0.9-5.6
						c-0.9-1.5,5-6.9,7.2-6.9c1.3-2.4,11.4-5.6,14.7-4.4C-302.7,284.9-290,284.5-286.9,286.4z"/>
				</g>
				<g>
					<path class="st3" d="M-294.5,291.8c36.8-0.5,34.3,15.1,34.3,15.1l-2.3,5.6l-3.9-5.3l-8.6-5.2l-11-1.9l-13.6,0.3l-11.6,1l-8.9,5
						l-3.7,6l-1.7,3.9l-1.7-7.4C-327.3,309.1-331.5,292.3-294.5,291.8z"/>
				</g>
				<g>
					<path class="st4" d="M-287.6,297.4c3.6-1.4,11.4-0.5,13.8,2.6c2.5-0.4,7.2,1.9,7.7,3.8c3,1.6,1.9,5.9,2,8.5l0.5,1.7l-2.6,3.2
						l-2-6.2l-6.9-4.6h-10.3l-12.3-1.8l-11.8,2.6l-7.7,4l-2.1,6l-2.8,1.6l-2.3-4.2c-1.4-2.5-1.6-4.1,0.1-6.9
						c0.3-1.5,3.4-5.7,7.6-6.7c1.9-2.3,10.9-4.4,13.5-3.2C-300.7,295.8-289.4,295.5-287.6,297.4z"/>
				</g>
				<g>
					<path class="st4" d="M-292.3,302.8c34.4-0.8,26.7,16.7,26.7,16.7l-4.4,0.8l-6.9-8.1l-15.8-2.3l-12.2,1.4l-10,4.8l-3.3,8.2
						l-4.6-1.5C-322.9,322.6-331.1,303.7-292.3,302.8z"/>
				</g>
				<g>
					<path class="st3" d="M-288.3,308.7c2.7-1.1,9.3-0.1,11.1,1.5c1.4-0.5,5.3,1.5,6.2,3.1c3.9,2.4,2.5,6.9,0.9,9.9l-2.5,0.8
						l-11.4-8l-16.7,0.8l-9.7,4.1l-5.3,5.5h-2.6c0.2-4.3-2.7-7.4,0-9.5c0.1-1.4,4.1-5.1,6.6-5.4c1.5-1.8,8.7-3.6,10.8-2.9
						C-296.7,307.2-291.4,307-288.3,308.7z"/>
				</g>
				<g>
					<path class="st3" d="M-292.4,313.7c28.1,0,22.4,13,22.4,13l-7.2,1.6l-4.8-4.1l-7.2-1.9l-13.7-0.4l-6.2,5.9l-6.2,1.9
						C-315.3,329.6-321.3,313.7-292.4,313.7z"/>
				</g>
				<g>
					<path class="st4" d="M-289,319.1c1.1-0.8,7-0.1,7.8,1.1c1.7-0.2,3.9,1.5,4.3,2.7c1.5,0.7,0.8,4.9-0.3,6.6l-2.4,2l-5.7-3.3
						l-10.1-1.1l-8.8,4.3l-4.8,2.6l-1.3-1.8c-0.8-2.6-1.8-4.7-0.5-6.7c-0.3-1.5,3.4-4.7,4.8-4.5c0.8-1.2,6.2-2.7,7.8-2.1
						C-297.1,317.9-289.8,317.9-289,319.1z"/>
				</g>
				<g>
					<path class="st4" d="M-292.9,324.1c17.5,0.2,14.5,7.6,14.5,7.6l-3.1,3.2c0,0-0.2-6-11.3-5.5c-11.1,0.5-12.2,5.3-12.2,5.3
						l-3.4-2.3C-308.4,332.3-308.8,323.9-292.9,324.1z"/>
				</g>
				<g>
					<path class="st3" d="M-296.3,328.3c2.2-0.7,4.2-0.7,6.4-0.2c1.8-0.1,3.2,0.3,4.6,0.9c1.2,0.2,2.4,1,3.2,2
						c1.8,0.8,2,2.3,1.8,3.4l-2.4,4.9l-23.3-0.8l-0.4-2c0.8-1.9-0.4-3.8,1.7-4.8c0.7-0.8,2.4-1.9,3.8-2.2
						C-299.7,328.8-298.1,328.3-296.3,328.3z"/>
				</g>
			</g>
		</g>
	</g>
</g>
<g>
	<g>
		<defs>
			<path id="SVGID_3_" d="M-293.6,267.1c16.9,0,32.9,10.1,32.3,27c-0.3,7.9-9.4,23.7-24.2,42.4c0,0-0.5-2.4-6.8-2.3
				c-6.3,0.1-8,2.5-8,2.5c-7.5-6.9-29-25.2-28.5-40.5C-328.5,282.1-318.3,267.1-293.6,267.1z"/>
		</defs>
		<clipPath id="SVGID_4_">
			<use xlink:href="#SVGID_3_"  style="overflow:visible;"/>
		</clipPath>
		<g class="st8">
			<g>
				<path class="st4" d="M-290.5,335.2L-290.5,335.2c-0.5,0-0.8-0.4-0.8-0.8c0-0.4,3.4-36.5,3.4-51.1c0-13.3-2.7-14.9-2.7-14.9h0.1
					l0.5-1.4c0.7,0.2,3.7,2,3.7,16.3c0,14.7-3.4,51-3.4,51.3S-290.1,335.2-290.5,335.2z"/>
			</g>
			<g>
				<path class="st4" d="M-288.1,335.6c-0.1,0-0.2,0-0.4-0.1c-0.4-0.2-0.5-0.7-0.3-1c0.2-0.4,19.3-37.8,17-52.1
					c-1.4-8.9-5.9-11-6-11c-0.4-0.2-0.6-0.6-0.4-0.9c0.2-0.4,0.6-0.6,0.9-0.4c0.2,0.1,5.3,2.3,6.9,12.2c2.3,14.8-16.3,51.5-17.2,53
					C-287.6,335.4-287.8,335.6-288.1,335.6z"/>
			</g>
			<g>
				<path class="st4" d="M-285.8,336.8c-0.2,0-0.4-0.1-0.5-0.2c-0.3-0.3-0.4-0.8-0.1-1c0.2-0.3,20.1-25.1,23.2-39.3
					c0.9-4.3-0.4-11.6-2.5-14.5c-0.3-0.3-0.2-0.8,0.1-1c0.3-0.3,0.8-0.2,1,0.1c2.5,3.2,3.9,11,2.8,15.8c-1.3,6.1-5.7,14.6-13,25.5
					c-5.3,8.1-10.4,14.4-10.5,14.5C-285.4,336.7-285.6,336.8-285.8,336.8z"/>
			</g>
			<g>
				<path class="st4" d="M-294.7,335.3c-0.4,0-0.7-0.2-0.8-0.6c-0.1-0.4-10-38.2-11-52.7c-0.5-7.3,0.8-12,3.8-14.5
					c0.3-0.3,0.8-0.2,1,0.1c0.3,0.3,0.2,0.8-0.1,1c-2.6,2.2-3.7,6.5-3.3,13.2c0.8,14.5,10.8,52.1,10.9,52.5
					S-294.2,335.2-294.7,335.3C-294.6,335.3-294.7,335.3-294.7,335.3z"/>
			</g>
			<g>
				<path class="st4" d="M-297.1,335.8c-0.2,0-0.5-0.1-0.6-0.3c-0.2-0.2-16.7-22.7-22.4-41.6c-3-10,0.1-16.9,3.2-20.9
					c0.3-0.3,0.8-0.4,1-0.1c0.3,0.3,0.4,0.8,0.1,1c-2.9,3.8-5.8,10.1-3,19.5c5.6,18.7,22.1,40.9,22.2,41.1c0.3,0.4,0.2,0.8-0.2,1
					C-296.8,335.8-297,335.8-297.1,335.8z"/>
			</g>
			<g>
				<path class="st4" d="M-300,337.3c-0.2,0-0.4-0.1-0.5-0.2c-0.1,0-5.1-4.3-10.7-10.1c-7.6-8-12.7-14.9-15.1-20.8
					c-5.3-13.1,1.5-23.9,1.8-24.4c0.2-0.4,0.7-0.5,1-0.2c0.4,0.2,0.5,0.7,0.2,1c-0.1,0.1-6.7,10.7-1.7,23.1
					c5.5,13.7,25.1,30.3,25.4,30.5c0.3,0.3,0.4,0.8,0.1,1C-299.6,337.2-299.8,337.3-300,337.3z"/>
			</g>
		</g>
	</g>
</g>
</svg>
