<?xml version="1.0" encoding="utf-8"?>
<!-- Generator: Adobe Illustrator 19.0.0, SVG Export Plug-In . SVG Version: 6.00 Build 0)  -->
<svg version="1.1" id="Layer_1" xmlns="http://www.w3.org/2000/svg" xmlns:xlink="http://www.w3.org/1999/xlink" x="0px" y="0px"
	 viewBox="-345 257 100 100" style="enable-background:new -345 257 100 100;" xml:space="preserve">
<style type="text/css">
	.st0{fill:#EAEAEA;}
	.st1{fill:#FFFFFF;}
	.st2{fill:#DBDBDB;}
	.st3{fill:none;}
	.st4{fill:#E2E2E2;}
	.st5{fill:#F4F4F4;}
</style>
<g>
	<path class="st0" d="M-339.2,290.8c-0.4,1-0.7,3.7,0.8,5.9c3.9,5.8,16.7,22.3,29.9,27.5c16.1,6.3,38.6,11.3,48.3,7.3
		c9.3-3.8,16-8,14.5-9.2C-247.5,321.2-339.2,290.8-339.2,290.8"/>
</g>
<g>
	<path class="st1" d="M-339.1,290.6c-1.2,1.1,15.3,19.1,21,23.1c12.2,8.6,25,12.5,42.7,11.9c13-0.4,28.7-2,29.6-3.2
		c0.8-1.2-17.9-7.4-31-13.4c-10.9-5-23.5-7.8-39.7-12.7C-326.8,293.1-337.4,289.1-339.1,290.6"/>
</g>
<g>
	<g>
		<path class="st0" d="M-258.1,322.2c-1.7,0-3.6,0-5.3-0.1c-5.1-0.3-17.8-1.8-17.9-1.8c-0.1,0-0.3-0.1-0.3-0.2
			c-0.1-0.1-0.1-0.3,0-0.4c0.1-0.1,1.2-3.6,2.2-5.1c1-1.5,3.2-3.4,3.3-3.5c0.1-0.1,0.3-0.1,0.5-0.1c0.1,0,6.4,2.5,10.9,4.5
			c4.5,1.9,13,5.7,13.2,5.7c0.2,0.1,0.3,0.3,0.3,0.5s-0.2,0.4-0.4,0.4C-251.8,322.1-254.7,322.2-258.1,322.2z M-280.6,319.4
			c2.5,0.3,12.9,1.5,17.3,1.7c3.3,0.2,7,0.1,9.4,0.1c-2.9-1.2-8.1-3.6-11.2-4.9c-4-1.7-9.4-3.9-10.6-4.4c-0.6,0.5-2.1,1.9-2.9,3.1
			C-279.4,316.1-280.2,318.4-280.6,319.4z"/>
	</g>
	<g>
		<path class="st0" d="M-271.1,321.4c-0.1,0-0.3-0.1-0.4-0.2c-0.1-0.1-2.2-3.2-3.3-5.2c-1-2-1.5-4.4-1.5-4.5
			c-0.1-0.3,0.1-0.5,0.4-0.6s0.5,0.1,0.6,0.4c0,0,0.5,2.3,1.4,4.3c0.9,1.9,3.2,5,3.2,5.1c0.2,0.2,0.1,0.5-0.1,0.7
			C-271,321.4-271.1,321.4-271.1,321.4z"/>
	</g>
	<g>
		<path class="st0" d="M-281.3,320.3c-0.1,0-0.3-0.1-0.4-0.2c-0.2-0.2-0.1-0.5,0.1-0.7c0.2-0.1,3.9-3.3,6.8-4.5
			c2.5-1,4.6-1.5,4.7-1.6c0.2-0.1,0.5,0.1,0.6,0.3c0.1,0.3-0.1,0.5-0.3,0.6c0,0-2,0.5-4.6,1.5c-2.8,1.1-6.5,4.3-6.5,4.4
			C-281,320.3-281.1,320.3-281.3,320.3z"/>
	</g>
	<g>
		<path class="st0" d="M-313.9,309.2c-0.1,0-0.2,0-0.3-0.1c-0.1-0.1-9.1-5.9-12.4-8.5c-3.4-2.7-8.1-7.5-8.3-7.7
			c-0.1-0.2-0.2-0.4-0.1-0.6c0.1-0.2,0.3-0.3,0.5-0.2c0.1,0,12.4,3.3,14.5,3.9c2.1,0.6,13.7,4,13.8,4c0.2,0.1,0.3,0.2,0.3,0.4
			c0,0.2-0.1,0.4-0.3,0.5c0,0-3,1.4-4.8,3.2c-1.7,1.7-2.7,4.8-2.7,4.8c0,0.1-0.1,0.3-0.3,0.3C-313.8,309.2-313.9,309.2-313.9,309.2z
			 M-333.1,293.5c1.6,1.6,4.6,4.6,6.9,6.4c2.9,2.2,9.9,6.8,11.9,8.1c0.4-1,1.2-3.2,2.8-4.6c1.2-1.2,2.9-2.1,4-2.8
			c-3-0.9-10.9-3.2-12.6-3.7C-321.9,296.4-329.6,294.4-333.1,293.5z"/>
	</g>
	<g>
		<path class="st0" d="M-313.9,309.2h-0.1c-0.3-0.1-0.4-0.3-0.3-0.6c0,0,1.1-4.7,1.2-6.1s0.3-3.8,0.3-3.8c0-0.3,0.2-0.5,0.5-0.4
			c0.3,0,0.5,0.2,0.4,0.5c0,0-0.2,2.3-0.3,3.8c-0.2,1.5-1.2,6.1-1.3,6.3C-313.5,309.1-313.7,309.2-313.9,309.2z"/>
	</g>
	<g>
		<path class="st0" d="M-320,305.2c-0.2,0-0.4-0.1-0.5-0.4c-0.1-0.3,0.1-0.5,0.3-0.6c0,0,4.6-1.1,7.1-2.1c2-0.8,6.2-2,6.4-2.1
			c0.3-0.1,0.5,0.1,0.6,0.3c0.1,0.2-0.1,0.5-0.3,0.6c0,0-4.3,1.3-6.3,2.1c-2.7,1-7,2-7.2,2.1C-319.9,305.2-320,305.2-320,305.2z"/>
	</g>
</g>
<g>
	<path class="st2" d="M-309,308.7c0,0,0.3,3.9,5.3,5.2c5,1.3,16.6,1.8,19.6,0.7c3-1.1,5.5-3.8,1.9-5.8c-3.6-2-4.5-4.4-10.8-5.5
		c-6.3-1.1-11.3-0.7-13.6,1.5C-308.7,306.9-309.2,308-309,308.7"/>
</g>
<g>
	<path class="st0" d="M-307,302.5c-3.3,2-4.3,4.3-3.3,6.3c2.2,4.3,6.5,5,6.5,5s-3.7-1.6-4.4-3.9c-0.5-1.6,1-3.7,3-4.8
		c1.9-1,6.1-1.8,11.4-0.8c8.3,1.6,12.7,6.3,12.7,7.3c0,0.5-0.2,0.8-0.2,0.8s2-1.8,0-4.6s-6.8-5.8-11.3-6.7
		C-298.5,299.9-303.6,300.4-307,302.5"/>
</g>
<g>
	<path class="st2" d="M-326,297.6c0,0-0.3,1.5,2.4,2.3c0.9,0.3,4.4,0.7,5.4,0.3c1.2-0.6,2-2.1,0.9-2.8c-1.1-0.7-1.5-1.1-3.6-1.5
		c-2-0.4-3.7-0.2-4.4,0.5C-326,297-326.2,297.4-326,297.6"/>
</g>
<g>
	<path class="st0" d="M-325.1,295.3c-1.5,0.8-1.8,2-1.2,3c0.8,1.4,2.8,1.6,2.8,1.6s-1.5-0.4-1.9-1.1c-0.3-0.7,0.4-1.6,1.2-2
		c0.9-0.5,2.3-0.8,4.8-0.2c1.4,0.4,2.3,1.2,2.4,1.9c0,0.4,0,0.6,0,0.6s0.1-0.1,0.3-0.7c0.4-1.6-0.9-3-2.9-3.5
		C-321.7,294.4-323.6,294.6-325.1,295.3"/>
</g>
<g>
	<line class="st3" x1="-327.2" y1="321" x2="-272.4" y2="299.3"/>
</g>
<g>
	
		<rect x="-300.6" y="280.7" transform="matrix(-0.3671 -0.9302 0.9302 -0.3671 -698.4272 145.0264)" class="st4" width="1.4" height="58.9"/>
</g>
<g>
	<path class="st5" d="M-272.8,298.4c0.4-0.2,1.1-0.5,2-1c0.9-0.5,0.6-2.3,2.9-3.7s8.5-3.9,8.5-3.9s2.9,1.7,3.3,3.1
		c0.5,1.3,0.8,4,0.8,4s-7,3.2-9,3.7c-1.9,0.5-4.7-1.2-5.4-0.9c-0.8,0.3-1.8,0.8-2.4,1c-0.4,0.1-1-0.1-1-0.9
		C-273.2,299.1-273.1,298.5-272.8,298.4"/>
</g>
<g>
	<path class="st5" d="M-326,320.7c0.1,0.5,0.1,1-0.1,1.1c-0.3,0.2-1.4,0.7-2.3,1.3c-0.9,0.6-0.8,3.1-3,4.5c-2.1,1.4-8.6,3.9-8.6,3.9
		s-2.8-1.8-3.4-2.9c-0.7-1.1-1.1-5-1.1-5s7.2-3.2,9.2-3.8c1.8-0.6,5.1,1.3,5.8,1c0.8-0.3,1.8-0.9,2.4-1.1
		C-326.6,319.5-326.2,320.2-326,320.7"/>
</g>
</svg>
