<?xml version="1.0" encoding="utf-8"?>
<!-- Generator: Adobe Illustrator 19.0.0, SVG Export Plug-In . SVG Version: 6.00 Build 0)  -->
<svg version="1.1" id="Layer_1" xmlns="http://www.w3.org/2000/svg" xmlns:xlink="http://www.w3.org/1999/xlink" x="0px" y="0px"
	 viewBox="-345 257 100 100" style="enable-background:new -345 257 100 100;" xml:space="preserve">
<style type="text/css">
	.st0{fill:#BFBFBF;}
	.st1{fill:#FFFFFF;}
	.st2{clip-path:url(#SVGID_2_);}
	.st3{fill:#BDBDBC;}
	.st4{clip-path:url(#SVGID_4_);}
	.st5{fill:#D1D1D1;}
	.st6{clip-path:url(#SVGID_6_);}
	.st7{clip-path:url(#SVGID_8_);}
	.st8{clip-path:url(#SVGID_10_);}
	.st9{clip-path:url(#SVGID_12_);}
	.st10{fill:#EAEAEA;}
	.st11{clip-path:url(#SVGID_14_);}
	.st12{clip-path:url(#SVGID_16_);}
	.st13{clip-path:url(#SVGID_18_);}
	.st14{clip-path:url(#SVGID_20_);}
	.st15{clip-path:url(#SVGID_22_);}
	.st16{clip-path:url(#SVGID_24_);}
</style>
<g>
	<path class="st0" d="M-274.6,338.3c-0.1,0-0.1,0-0.2,0c-0.4-0.1-0.7-0.4-0.6-0.9l9.1-49.3c0.1-0.4,0.4-0.7,0.9-0.6
		c0.4,0.1,0.7,0.4,0.6,0.9l-9.1,49.3C-273.8,338-274.2,338.3-274.6,338.3z"/>
</g>
<g>
	<path class="st1" d="M-274.6,338.3c-0.1,0-0.1,0-0.2,0l-56.7-14.3c-0.4-0.1-0.7-0.5-0.5-1c0.1-0.4,0.5-0.6,1-0.5l56.7,14.3
		c0.4,0.1,0.7,0.5,0.5,1C-273.8,338-274.2,338.3-274.6,338.3z"/>
</g>
<g>
	<g>
		<defs>
			<path id="SVGID_1_" d="M-297.5,285.8v3.8c0,0,8-2.9,14.4-2.7c6.4,0.3,16.1,2.5,17.4,2.7s7.4-2.7,9.8-4.8c2.3-2,5-5.6,4.3-6.2
				c-0.8-0.6-9-5.1-12.6-6.2c-3.5-1.1-11.2-1.2-11.2-1.2L-297.5,285.8z"/>
		</defs>
		<clipPath id="SVGID_2_">
			<use xlink:href="#SVGID_1_"  style="overflow:visible;"/>
		</clipPath>
		<g class="st2">
			<path class="st3" d="M-259.8,271.5c0,0,9,4.1,10.5,5.6c1.4,1.5-0.3,5.8-5.2,8.8c-5,2.9-9.3,5.8-11.9,5.8
				c-2.6,0-13.1-3.7-13.1-3.7L-259.8,271.5z"/>
		</g>
	</g>
	<g>
		<defs>
			<path id="SVGID_3_" d="M-297.5,285.8v3.8c0,0,8-2.9,14.4-2.7c6.4,0.3,16.1,2.5,17.4,2.7s7.4-2.7,9.8-4.8c2.3-2,5-5.6,4.3-6.2
				c-0.8-0.6-9-5.1-12.6-6.2c-3.5-1.1-11.2-1.2-11.2-1.2L-297.5,285.8z"/>
		</defs>
		<clipPath id="SVGID_4_">
			<use xlink:href="#SVGID_3_"  style="overflow:visible;"/>
		</clipPath>
		<g class="st4">
			<path class="st5" d="M-268.3,280.6c-6.3,6.1-8.3,9-8.3,9l-8.8-2.5l10.1-12.3l9.2-6.5l8.9,4.7
				C-257.2,273.1-262.2,274.8-268.3,280.6"/>
		</g>
	</g>
	<g>
		<defs>
			<path id="SVGID_5_" d="M-297.5,285.8v3.8c0,0,8-2.9,14.4-2.7c6.4,0.3,16.1,2.5,17.4,2.7s7.4-2.7,9.8-4.8c2.3-2,5-5.6,4.3-6.2
				c-0.8-0.6-9-5.1-12.6-6.2c-3.5-1.1-11.2-1.2-11.2-1.2L-297.5,285.8z"/>
		</defs>
		<clipPath id="SVGID_6_">
			<use xlink:href="#SVGID_5_"  style="overflow:visible;"/>
		</clipPath>
		<g class="st6">
			<path class="st3" d="M-274.3,278.8c-6.2,6-7.7,9.4-7.7,9.4l-13.6,1.5l9.9-15.4l13.5-10.2l10.8,3.3l-0.4,2.6
				C-261.8,269.9-270.3,274.9-274.3,278.8"/>
		</g>
	</g>
	<g>
		<defs>
			<path id="SVGID_7_" d="M-297.5,285.8v3.8c0,0,8-2.9,14.4-2.7c6.4,0.3,16.1,2.5,17.4,2.7s7.4-2.7,9.8-4.8c2.3-2,5-5.6,4.3-6.2
				c-0.8-0.6-9-5.1-12.6-6.2c-3.5-1.1-11.2-1.2-11.2-1.2L-297.5,285.8z"/>
		</defs>
		<clipPath id="SVGID_8_">
			<use xlink:href="#SVGID_7_"  style="overflow:visible;"/>
		</clipPath>
		<g class="st7">
			<path class="st5" d="M-282.8,279.2c-4.1,5-7.4,10.9-7.4,10.9l-11.6,2.7l1.2-12.5l29.1-12C-271.4,268.4-278.5,274-282.8,279.2"/>
		</g>
	</g>
</g>
<g>
	<g>
		<defs>
			<path id="SVGID_9_" d="M-313.3,278.9c-12.9,9.2-24.6,26.7-23.3,39.2c0.5,4.8,4.5,6.7,9,5.8c3-0.6,8.3-2.9,12.3-8.7
				c4-5.8,13-21.4,25.3-31.8c12.3-10.4,25.6-11,25.6-11s-7.7-2.8-18.4-2.8C-291.8,269.5-302.9,271.6-313.3,278.9"/>
		</defs>
		<clipPath id="SVGID_10_">
			<use xlink:href="#SVGID_9_"  style="overflow:visible;"/>
		</clipPath>
		<g class="st8">
			<polygon class="st1" points="-264.6,268.6 -260.1,272.5 -271.8,279.5 -285.5,274.8 -301,270.6 -303.4,266.6 -278.5,265.2 			"/>
		</g>
	</g>
	<g>
		<defs>
			<path id="SVGID_11_" d="M-313.3,278.9c-12.9,9.2-24.6,26.7-23.3,39.2c0.5,4.8,4.5,6.7,9,5.8c3-0.6,8.3-2.9,12.3-8.7
				c4-5.8,13-21.4,25.3-31.8c12.3-10.4,25.6-11,25.6-11s-7.7-2.8-18.4-2.8C-291.8,269.5-302.9,271.6-313.3,278.9"/>
		</defs>
		<clipPath id="SVGID_12_">
			<use xlink:href="#SVGID_11_"  style="overflow:visible;"/>
		</clipPath>
		<g class="st9">
			<path class="st10" d="M-283.9,272.3c-8.8-2.5-14.4-1.4-14.4-1.4l-15,6.6l17.9,3.9l10.5,3.6l11.4-8.5
				C-273.4,276.5-278.1,274-283.9,272.3"/>
		</g>
	</g>
	<g>
		<defs>
			<path id="SVGID_13_" d="M-313.3,278.9c-12.9,9.2-24.6,26.7-23.3,39.2c0.5,4.8,4.5,6.7,9,5.8c3-0.6,8.3-2.9,12.3-8.7
				c4-5.8,13-21.4,25.3-31.8c12.3-10.4,25.6-11,25.6-11s-7.7-2.8-18.4-2.8C-291.8,269.5-302.9,271.6-313.3,278.9"/>
		</defs>
		<clipPath id="SVGID_14_">
			<use xlink:href="#SVGID_13_"  style="overflow:visible;"/>
		</clipPath>
		<g class="st11">
			<path class="st1" d="M-294.6,275.3c5.4,0.9,13.2,6.2,13.5,7.9c0.3,1.8-9.4,7.9-9.4,7.9l-32.2-8l7.3-6.4
				C-315.2,276.7-304.9,273.6-294.6,275.3"/>
		</g>
	</g>
	<g>
		<defs>
			<path id="SVGID_15_" d="M-313.3,278.9c-12.9,9.2-24.6,26.7-23.3,39.2c0.5,4.8,4.5,6.7,9,5.8c3-0.6,8.3-2.9,12.3-8.7
				c4-5.8,13-21.4,25.3-31.8c12.3-10.4,25.6-11,25.6-11s-7.7-2.8-18.4-2.8C-291.8,269.5-302.9,271.6-313.3,278.9"/>
		</defs>
		<clipPath id="SVGID_16_">
			<use xlink:href="#SVGID_15_"  style="overflow:visible;"/>
		</clipPath>
		<g class="st12">
			<path class="st10" d="M-302.9,282.1c8.4,1.2,12.3,7.4,12.3,7.4l-9.5,6.9l-30.4-3.6l11-11.1C-319.5,281.8-311.9,280.8-302.9,282.1
				"/>
		</g>
	</g>
	<g>
		<defs>
			<path id="SVGID_17_" d="M-313.3,278.9c-12.9,9.2-24.6,26.7-23.3,39.2c0.5,4.8,4.5,6.7,9,5.8c3-0.6,8.3-2.9,12.3-8.7
				c4-5.8,13-21.4,25.3-31.8c12.3-10.4,25.6-11,25.6-11s-7.7-2.8-18.4-2.8C-291.8,269.5-302.9,271.6-313.3,278.9"/>
		</defs>
		<clipPath id="SVGID_18_">
			<use xlink:href="#SVGID_17_"  style="overflow:visible;"/>
		</clipPath>
		<g class="st13">
			<path class="st1" d="M-313.8,290.2c8.3,0.5,14.8,3.8,15.4,4.3c0.6,0.4-6.6,9-6.6,9l-31.6-1.2l4.3-11.1
				C-332.3,291.1-322.3,289.6-313.8,290.2"/>
		</g>
	</g>
	<g>
		<defs>
			<path id="SVGID_19_" d="M-313.3,278.9c-12.9,9.2-24.6,26.7-23.3,39.2c0.5,4.8,4.5,6.7,9,5.8c3-0.6,8.3-2.9,12.3-8.7
				c4-5.8,13-21.4,25.3-31.8c12.3-10.4,25.6-11,25.6-11s-7.7-2.8-18.4-2.8C-291.8,269.5-302.9,271.6-313.3,278.9"/>
		</defs>
		<clipPath id="SVGID_20_">
			<use xlink:href="#SVGID_19_"  style="overflow:visible;"/>
		</clipPath>
		<g class="st14">
			<path class="st10" d="M-319.6,298.2c8.7,0.3,14.6,4.1,14.6,4.1l-4.4,8l-28.9,0.9l4.7-11.9C-333.6,299.4-328.7,298-319.6,298.2"/>
		</g>
	</g>
	<g>
		<defs>
			<path id="SVGID_21_" d="M-313.3,278.9c-12.9,9.2-24.6,26.7-23.3,39.2c0.5,4.8,4.5,6.7,9,5.8c3-0.6,8.3-2.9,12.3-8.7
				c4-5.8,13-21.4,25.3-31.8c12.3-10.4,25.6-11,25.6-11s-7.7-2.8-18.4-2.8C-291.8,269.5-302.9,271.6-313.3,278.9"/>
		</defs>
		<clipPath id="SVGID_22_">
			<use xlink:href="#SVGID_21_"  style="overflow:visible;"/>
		</clipPath>
		<g class="st15">
			<path class="st1" d="M-325.3,306.6c8.1-0.7,18.4,1.4,20.1,2.5c1.8,1.1-8.1,8.3-8.1,8.3l-24.4,4.1l-4.8-11.2
				C-342.5,310.3-333.5,307.3-325.3,306.6"/>
		</g>
	</g>
	<g>
		<defs>
			<path id="SVGID_23_" d="M-313.3,278.9c-12.9,9.2-24.6,26.7-23.3,39.2c0.5,4.8,4.5,6.7,9,5.8c3-0.6,8.3-2.9,12.3-8.7
				c4-5.8,13-21.4,25.3-31.8c12.3-10.4,25.6-11,25.6-11s-7.7-2.8-18.4-2.8C-291.8,269.5-302.9,271.6-313.3,278.9"/>
		</defs>
		<clipPath id="SVGID_24_">
			<use xlink:href="#SVGID_23_"  style="overflow:visible;"/>
		</clipPath>
		<g class="st16">
			<path class="st10" d="M-324.8,315.2c-7.1,0.7-16.8,5.8-19,7.2c-2.1,1.4,9.5,8.5,9.5,8.5l23.7-7.9l1.2-7
				C-309.4,316.1-315.9,314.3-324.8,315.2"/>
		</g>
	</g>
</g>
<g>
	<path class="st0" d="M-275,338.5c-0.1,0-0.2,0-0.3-0.1c-0.4-0.2-0.6-0.6-0.4-1l22.8-58.5c0.2-0.4,0.6-0.6,1-0.4
		c0.4,0.2,0.6,0.6,0.4,1l-22.8,58.5C-274.4,338.3-274.7,338.5-275,338.5z"/>
</g>
<g>
	<path class="st1" d="M-274.6,338.3c-0.1,0-0.3,0-0.4-0.1l-40.7-22.3c-0.4-0.2-0.5-0.7-0.3-1.1c0.2-0.4,0.7-0.5,1.1-0.3l40.7,22.3
		c0.4,0.2,0.5,0.7,0.3,1.1C-274,338.1-274.3,338.3-274.6,338.3z"/>
</g>
</svg>
