<?xml version="1.0" encoding="utf-8"?>
<!-- Generator: Adobe Illustrator 19.0.0, SVG Export Plug-In . SVG Version: 6.00 Build 0)  -->
<svg version="1.1" id="Layer_1" xmlns="http://www.w3.org/2000/svg" xmlns:xlink="http://www.w3.org/1999/xlink" x="0px" y="0px"
	 viewBox="-345 257 100 100" style="enable-background:new -345 257 100 100;" xml:space="preserve">
<style type="text/css">
	.st0{fill:#D3D3D3;}
	.st1{fill:#FFFFFF;}
	.st2{fill:#E0E0E0;}
	.st3{fill:#E8E8E8;}
</style>
<g>
	<path class="st0" d="M-276.2,318.2c0,0,1.9-0.1,2.8,0.3c0.9,0.4,1.2,0.3,1.4,1.7c0.2,1.4,0.6,2.1,0.4,4.6s0.1,5.3,0.6,6.6
		c0.4,1.3,0.3,1.4,0,1.8c-0.3,0.3-1.1,1.3-2,1.1c-0.9-0.1-3.8-2.4-3.8-2.4L-276.2,318.2z"/>
	<path class="st0" d="M-278.3,301.9c0,0,1.6-0.5,2.3-0.2s1.9,4.2,2.1,5.1c0.2,0.8,0.1,1.9,0.1,1.9s0.3,0.1,0.4,0.3
		c0.1,0.3,0.4,2.6,0.3,3s-0.4,0.6-0.4,0.6s0.1,1.1,0.4,2.1s0.8,2.6,0.2,3.2c-0.6,0.6-1.4,0.9-2.5,0.6c-1.1-0.3-2.1-1.2-2.1-1.2
		L-278.3,301.9z"/>
	<path class="st1" d="M-305.6,341.4c0,0,3.1-0.5,6.9-0.8c3.7-0.3,7.6-1.1,9.4-1.3c1.8-0.2,3.7-0.1,6.3-0.7c2.6-0.6,8.3-1.8,8.7-5.1
		s-1.3-17.3-1.6-20s0.1-10.3-3.1-14.1l-3.6,0.2l-22-4.2l-4.9,0.7L-305.6,341.4z"/>
	<path class="st0" d="M-304.7,340.8c0,0,0.8,0.8-3.4,0.6s-4.3-2-4.3-2l0.3-12.8l-5.1-21c0,0-0.9-3,0.5-5.5s2.9-4,5.1-4.4
		s4.1,0,4.1,0s-0.6,1.5-0.7,2.9c-0.1,1.4,0.4,6,0.7,8c0.3,2,1.7,17.1,2,20.1C-305.3,329.8-304.5,338.7-304.7,340.8z"/>
	<path class="st2" d="M-305.9,326.3c0.3,4.8,1,11.9,0.6,12.6s-1.4,1.5-3,1.6c-1.7,0-7.1-0.3-7.4-0.5s-1.6-0.7-1.3-4.2
		c0.2-3.4-0.3-5.6-0.6-6.8c-0.2-1.2-1.1-4.6-0.3-5.4c0.8-0.8,1.2-1.4,2-1.4c0.9,0,7.7-0.4,8.8,0.2
		C-306.1,322.8-306.1,322.9-305.9,326.3z"/>
	<g>
		<g>
			<path class="st2" d="M-306.4,314.2c-0.7,0-1.1,0-1.1,0l0-1.7c0.1,0,10.4,0.1,19.8-0.9c6.7-0.8,10.2-1.6,11.6-1.9l0.1,1.8
				c-1.7,0.4-5.3,1.2-11.5,1.9C-295.2,314.1-303.5,314.2-306.4,314.2z"/>
		</g>
		<g>
			<path class="st2" d="M-289.5,339.4c1-1.2,2.5-3.4,2.7-6.9c0.2-4.6,0-10.8-0.5-15.1c-0.5-3.8-0.8-4.7-0.8-4.7l1.6-0.7
				c0.1,0.1,0.4,1.1,0.9,5.2c0.6,4.4,0.7,10,0.4,14.7c-0.2,3.4-1.5,5.9-2.7,7.4L-289.5,339.4z"/>
		</g>
	</g>
	<path class="st3" d="M-311.6,295.7c0,0,2.6-0.6,4.3,1.7c1.7,2.4,2.7,6.8,4.9,7c2.2,0.2,13.8-0.6,18-1.5c4.2-0.9,6.9-1.1,6.5-2.9
		c-0.3-1.8-2.4-6.6-9.6-6.9S-311.6,295.7-311.6,295.7z"/>
	<path class="st1" d="M-314.4,272.7c0,3.3,0.4,23.5,0.4,23.5s28-1.8,28.9-1.8c3.4,0,7.9-3.6,7.9-10.4c0-5.7-3.4-11.7-6.8-11.7
		C-286.7,272.4-314.4,272.7-314.4,272.7z"/>
	<path class="st0" d="M-318.7,284.7c0,5.4,2.4,11.5,4.8,11.5c3.4,0,6.4-3,6.4-11.5c0-5.7-3.4-12-6.8-12
		C-317.1,272.7-318.7,280.3-318.7,284.7z"/>
	<path class="st3" d="M-280.1,277.5c-1.1-3.1-3.2-4.3-5-5.2c-4.1,0.1-18.2,0.1-25.3,0.3c1,0.5,1.9,1.3,2.9,3.3
		c1.8,3.6,3.1,7.1,8.3,7.1c5.8,0,11.6-0.1,14.6-0.3C-279.3,282.3-279.2,280.2-280.1,277.5z"/>
	<g>
		<path class="st2" d="M-281.5,313.9c0-0.1-0.5-10.3-2.9-23.6c-1.5-8.2-1.4-13.5-5.5-16.6c-0.3-0.2,3.7-0.3,4,0
			c3.6,4.6,3.9,9.7,5,16.1c2.3,13.5,2.9,23.8,2.9,24L-281.5,313.9z"/>
	</g>
	<g>
		<path class="st2" d="M-298,315.4c0-0.1-1.3-13.8-2.9-27.5c-0.8-7.1-2.6-11-4.5-13.5c-0.2-0.3,3.4-0.6,3.8-0.2
			c2.4,2.4,3.5,7.3,4.2,13.3c1.6,13.7,2.9,27.4,2.9,27.6L-298,315.4z"/>
	</g>
	<g>
		<path class="st0" d="M-298.6,306.8c0,0-0.5,0.7-0.2,1.6c0.2,0.9,0.7,1.1,0.7,1.1l3.4-0.3c0,0,0.4-0.5,0.4-1.4
			c0-0.6-0.2-1.1-0.2-1.1L-298.6,306.8z"/>
		<path class="st0" d="M-295.1,302.9c0.4,0,0.5,0.1,0.6,0.5c0.1,0.4,0.2,3.6,0.2,3.6s-0.8,0-0.7,1.1c0.1,1.2,0.8,0.9,0.8,0.9v1.5
			l-0.7,0l0-0.8l-3.4,0.2l0.1,0.8l-0.7,0.1l0-1.4c0,0,0.8-0.4,0.9-1.3s-1.1-1-1.1-1s-0.2-2.6-0.2-3.4c0-0.5,0-0.6,0.6-0.7
			C-298.2,303.1-295.5,303-295.1,302.9z M-298.8,304.3c0,0.2,0.1,0.6,0.1,0.9c0,0.3,0.3,0.2,0.6,0.2c0.2,0,2.8-0.3,3-0.3
			c0.3,0,0.3-0.2,0.3-0.4c0-0.2,0-0.6-0.1-0.9c-0.1-0.3-0.3-0.2-0.4-0.2c-0.2,0-3,0.2-3.2,0.2C-298.7,303.9-298.8,304.1-298.8,304.3
			z"/>
	</g>
	<g>
		<path class="st0" d="M-281.8,306.1c0,0-0.5,0.7-0.2,1.6c0.2,0.9,0.7,1.1,0.7,1.1l2.6-0.3c0,0,0.4-0.5,0.4-1.4
			c0-0.6-0.2-1.1-0.2-1.1L-281.8,306.1z"/>
		<path class="st0" d="M-278.8,302.3c0.4,0,0.5,0.1,0.6,0.5c0.1,0.4,0,3.4,0,3.4s-0.9,0-0.8,1.1s0.8,0.9,0.8,0.9l0.1,1.3l-0.5,0.1
			l0-0.9l-2.8,0.3l0.1,0.8l-0.7,0.1l0-1.4c0,0,1,0,1-1s-1.1-1.4-1.1-1.4s-0.2-2.3-0.2-3c0-0.5,0-0.6,0.6-0.7
			C-281.3,302.5-279.2,302.3-278.8,302.3z M-281.7,303.5c0,0.2,0.1,0.5,0.1,0.8c0,0.3,0.3,0.2,0.6,0.2c0.2,0,2-0.2,2.3-0.3
			c0.3,0,0.3-0.2,0.3-0.4s0-0.5,0-0.8c0-0.3-0.3-0.2-0.4-0.2s-2.3,0.2-2.5,0.2C-281.7,303.1-281.7,303.3-281.7,303.5z"/>
	</g>
	<path class="st1" d="M-314.3,304.8c0,0-2-5.3-1.9-8.6c0.1-3.3,1-8.8,0.4-13.2c-0.4-3.2-0.7-6.3-0.4-8.5c0.3-2.2,2.3-2.8,3.1-3
		c0.8-0.2,13.8,0.3,16.2,0.2c2.4-0.1,11.6-0.2,12.8-0.3c1.5,0,3.5,2.4,3.6,2.9c0,0-0.5-0.6-1.1-1.1c-0.9-0.7-1.6-0.8-1.6-0.8
		c-0.2-0.3-0.4-0.4-0.7-0.5c-0.8-0.1-11.6,0-11.8,0.2c0,0-0.1,0.1,0,0.2l-2.5,0c0.1-0.2,0.1-0.3,0-0.3c-0.3,0-13.4-0.6-14.2-0.1
		s-2,1.6-2.4,3c-0.4,1.4-0.6,3-0.3,5.2c0.3,3.1,0.7,6.5,1.4,8.8c0.9,3.1,0.6,4,0.5,5.6c0,1.3,0.3,5.6,1,6.5c0.6,0.8-0.1,1.7,1.1,3.5
		l0.1,1.4l-2.5-0.4L-314.3,304.8z"/>
	<g>
		<g>
			<path class="st0" d="M-312.9,297.3c0,0,0.6,0.6,0.4,1.5c-0.1,0.9-0.5,1.2-0.5,1.2l-2.6,0c0,0-0.5-0.4-0.6-1.3
				c-0.1-0.5,0-1.2,0-1.2L-312.9,297.3z"/>
			<g>
				<g>
					<path class="st0" d="M-313.3,293.8c0.6,0,0.6,0.1,0.7,0.6c0.1,0.7,0.3,3,0.3,3s-1.2,0.5-1.1,1.5c0.1,0.9,1.4,0.8,1.4,0.8
						l0.1,1.4l-0.7,0l0-0.8l-3.1,0l0.1,0.9l-0.5-0.1l-0.1-1.3c0,0,0.8,0.2,0.7-1c-0.1-1.2-0.9-1-0.9-1s-0.4-3-0.4-3.4
						c0-0.4,0.1-0.6,0.5-0.6C-315.9,293.9-313.8,293.8-313.3,293.8z M-313.6,294.4c-0.2,0-2.4,0.1-2.5,0.1c-0.2,0-0.4-0.1-0.4,0.2
						c0,0.3,0.1,0.6,0.1,0.8c0,0.2,0,0.3,0.3,0.3c0.3,0,2,0,2.3,0c0.2,0,0.6,0,0.5-0.3c0-0.3,0-0.6,0-0.8S-313.4,294.4-313.6,294.4z
						"/>
				</g>
			</g>
		</g>
	</g>
	<path class="st3" d="M-308.2,305.4c0.9,1.1,1.1,4.6,1.5,7.9c0.3,3.3,0.6,6.8,0.2,7.5c-0.3,0.7-0.5,1.1-1.7,1.5
		c-1.2,0.4-2.7,0.2-4.9,0.2c-2.2,0-4.6,0.5-5-0.9s-0.2-4.5-0.2-4.7c0-0.2-0.9-0.1-1-0.3c0-0.2-0.4-3.6-0.3-3.8
		c0-0.2,0.8-0.2,0.8-0.3s-1-2-1-3s0.2-3.2,1.2-3.7c1-0.6,2.3-1,3.2-1.1S-310.1,303.2-308.2,305.4z"/>
</g>
</svg>
