<?xml version="1.0" encoding="utf-8"?>
<!-- Generator: Adobe Illustrator 19.0.0, SVG Export Plug-In . SVG Version: 6.00 Build 0)  -->
<svg version="1.1" id="Layer_1" xmlns="http://www.w3.org/2000/svg" xmlns:xlink="http://www.w3.org/1999/xlink" x="0px" y="0px"
	 viewBox="-345 257 100 100" style="enable-background:new -345 257 100 100;" xml:space="preserve">
<style type="text/css">
	.st0{fill:#D1D1D1;}
	.st1{clip-path:url(#SVGID_2_);fill:#EAEAEA;}
	.st2{clip-path:url(#SVGID_2_);fill:#FFFFFF;}
</style>
<path class="st0" d="M-341.3,325.7c0,0,2.2,6.9,0.2,8c-0.8,0.4,1,1.6,2,1.1c4.6-2.3,6.2-8.7,4.6-12.6"/>
<path class="st0" d="M-325.5,327.7c0,0,1.7,5.3,0.1,6.2c-0.6,0.3,0.8,1.2,1.5,0.8c3.5-1.8,4.8-6.7,3.5-9.7"/>
<g>
	<defs>
		<path id="SVGID_1_" d="M-274.1,281.9c-22.9,8.2-40.9,18.6-52.7,26.3c-5.4,3.5-18.1,14-16.3,17.8c2.1,4.5,14,6.2,28.5,2
			c11.8-3.5,43.5-18.9,53.3-27.5c10.2-8.9,16.7-19.4,14-22.4C-249.4,275.8-264.4,278.5-274.1,281.9"/>
	</defs>
	<clipPath id="SVGID_2_">
		<use xlink:href="#SVGID_1_"  style="overflow:visible;"/>
	</clipPath>
	<path class="st1" d="M-255.3,275.8c0,0-20.9-2.6-43.1,6c-22.2,8.6-45.3,34.9-45.3,34.9l-8,14.2l6,6.6c0,0,53.3-6.9,73.7-18.3
		c20.4-11.4,25.9-33.3,25.9-33.3l6.7-10.1H-255.3z"/>
	<path class="st2" d="M-247,275.8c0,0-7.4,5.7-44.2,24.2c-44.8,22.5-54.6,24.7-54.6,24.7v4.5c0,0,10.9-3.2,55.7-26.4
		c36.9-19.1,45.6-23.9,45.6-23.9L-247,275.8z"/>
	<path class="st2" d="M-291.7,310c33.6-17,44-25,44-25l-0.3,3.1c0,0-11.6,8.7-40.5,23.8c-30.8,16.1-31.8,19.2-31.8,19.2l-8.1-0.3
		C-328.4,330.8-322.3,325.5-291.7,310"/>
	<path class="st2" d="M-294.9,296.6c29-12.4,40.9-21.4,40.9-21.4l-3.2,0.5c0,0-9.6,6-37.8,18.2c-30.5,13.2-40.2,17-40.2,17l-4.8,7.1
		C-340,318.1-324.7,309.4-294.9,296.6"/>
</g>
</svg>
