<?xml version="1.0" encoding="utf-8"?>
<!-- Generator: Adobe Illustrator 19.0.0, SVG Export Plug-In . SVG Version: 6.00 Build 0)  -->
<svg version="1.1" id="Layer_1" xmlns="http://www.w3.org/2000/svg" xmlns:xlink="http://www.w3.org/1999/xlink" x="0px" y="0px"
	 viewBox="-345 257 100 100" style="enable-background:new -345 257 100 100;" xml:space="preserve">
<style type="text/css">
	.st0{fill:#EAEAEA;}
	.st1{fill:#D1D1D1;}
	.st2{fill:#FFFFFF;}
</style>
<g>
	<g>
		<path class="st0" d="M-247.6,309.8h-94.8c-0.8,0-1.4-0.6-1.4-1.4s0.6-1.4,1.4-1.4h94.8c0.8,0,1.4,0.6,1.4,1.4
			S-246.8,309.8-247.6,309.8z"/>
	</g>
	<g>
		<path class="st1" d="M-306.3,338.9c-0.7,0-1.3-0.6-1.4-1.3c0-0.8,0.6-1.4,1.3-1.4c0.7,0,1.1-0.3,1.3-0.6c0.9-1.3,0.8-4.5-0.2-8.5
			c-0.8-2.8-4.8-11.2-4.8-11.3c-0.3-0.7,0-1.5,0.6-1.8c0.7-0.3,1.5,0,1.8,0.6c0.2,0.4,4.2,8.7,5,11.8c0.9,3.5,1.7,8.3-0.2,10.8
			C-303.7,338.3-304.9,338.9-306.3,338.9L-306.3,338.9z"/>
	</g>
	<g>
		<path class="st1" d="M-278,338.9c-0.7,0-1.3-0.6-1.4-1.3c0-0.8,0.6-1.4,1.3-1.4c0.7,0,1.1-0.3,1.3-0.6c0.9-1.3,0.8-4.5-0.2-8.5
			c-0.8-2.8-4.8-11.2-4.8-11.3c-0.3-0.7,0-1.5,0.6-1.8c0.7-0.3,1.5,0,1.8,0.6c0.2,0.4,4.2,8.7,5,11.8c0.9,3.5,1.7,8.3-0.2,10.8
			C-275.3,338.3-276.5,338.9-278,338.9C-277.9,338.9-277.9,338.9-278,338.9z"/>
	</g>
	<g>
		<path class="st0" d="M-263,294.5c0-8.1-6.6-14.7-14.7-14.7s-14.7,6.6-14.7,14.7s6.6,14.7,14.7,14.7
			C-269.5,309.2-263,302.6-263,294.5"/>
	</g>
	<g>
		<path class="st0" d="M-297.8,294.5c0-8.1-6.6-14.7-14.7-14.7s-14.7,6.6-14.7,14.7s6.6,14.7,14.7,14.7
			C-304.3,309.2-297.8,302.6-297.8,294.5"/>
	</g>
	<g>
		<path class="st2" d="M-266.8,294.5c0-6-4.8-10.8-10.8-10.8s-10.8,4.8-10.8,10.8s4.8,10.8,10.8,10.8
			C-271.7,305.3-266.8,300.5-266.8,294.5"/>
	</g>
	<g>
		<path class="st2" d="M-301.7,294.5c0-6-4.8-10.8-10.8-10.8s-10.8,4.8-10.8,10.8s4.8,10.8,10.8,10.8
			C-306.5,305.3-301.7,300.5-301.7,294.5"/>
	</g>
	<g>
		<path class="st2" d="M-273,288.3c-1.6,0-41.7,0-43.8,0c-2.1,0-3.1,0.7-3.1,3.1v14.4v0.7V321c0,1.6,1.4,3,3,3h43.8
			c2.1,0,3.1-0.7,3.1-3.1v-14.4v-0.7v-14.5C-270,289.8-271.4,288.3-273,288.3 M-309.3,320.7c-3,0-5.5-2.5-5.5-5.5s2.5-5.5,5.5-5.5
			s5.5,2.5,5.5,5.5S-306.2,320.7-309.3,320.7 M-280.8,320.7c-3,0-5.5-2.5-5.5-5.5s2.5-5.5,5.5-5.5s5.5,2.5,5.5,5.5
			S-277.8,320.7-280.8,320.7"/>
	</g>
	<g>
		<path class="st0" d="M-277.6,297.5c-1.6,0-3-1.3-3-3c0-1.6,1.3-3,3-3c1.6,0,3,1.3,3,3S-276,297.5-277.6,297.5z M-277.6,292.9
			c-0.9,0-1.6,0.7-1.6,1.6s0.7,1.6,1.6,1.6s1.6-0.7,1.6-1.6C-276,293.6-276.7,292.9-277.6,292.9z"/>
	</g>
	<g>
		<path class="st0" d="M-312.4,297.5c-1.6,0-3-1.3-3-3s1.3-3,3-3c1.6,0,3,1.3,3,3S-310.8,297.5-312.4,297.5z M-312.4,292.9
			c-0.9,0-1.6,0.7-1.6,1.6s0.7,1.6,1.6,1.6s1.6-0.7,1.6-1.6S-311.6,292.9-312.4,292.9z"/>
	</g>
	<g>
		<path class="st0" d="M-284.3,338.9L-284.3,338.9c-1.8-0.1-2.8-0.9-3.3-1.6c-1.5-2.1-0.8-5.7,0.2-9.3c1.5-5.5,5.5-13.2,5.6-13.5
			c0.3-0.7,1.2-0.9,1.8-0.6c0.7,0.3,0.9,1.2,0.6,1.8c0,0.1-4,7.8-5.4,13c-1,3.7-1.3,6-0.6,6.9c0.1,0.1,0.3,0.4,1.1,0.4
			c0.8,0,1.4,0.7,1.3,1.4C-282.9,338.3-283.5,338.9-284.3,338.9z"/>
	</g>
	<g>
		<path class="st2" d="M-277.9,336.2h-6c-0.8,0-1.4,0.6-1.4,1.4s0.6,1.4,1.4,1.4h6c0.8,0,1.4-0.6,1.4-1.4
			C-276.5,336.8-277.1,336.2-277.9,336.2"/>
	</g>
	<g>
		<path class="st0" d="M-312.6,338.9C-312.7,338.9-312.7,338.9-312.6,338.9c-1.8-0.1-2.8-0.9-3.3-1.6c-1.5-2.1-0.8-5.7,0.2-9.3
			c1.5-5.5,5.5-13.2,5.6-13.5c0.3-0.7,1.2-0.9,1.8-0.6c0.7,0.3,0.9,1.2,0.6,1.8c0,0.1-4,7.8-5.4,13c-1,3.7-1.3,6-0.6,6.9
			c0.1,0.1,0.3,0.4,1.1,0.4c0.8,0,1.4,0.7,1.3,1.4C-311.3,338.3-311.9,338.9-312.6,338.9z"/>
	</g>
	<g>
		<path class="st2" d="M-306.3,336.2h-6c-0.8,0-1.4,0.6-1.4,1.4s0.6,1.4,1.4,1.4h6c0.8,0,1.4-0.6,1.4-1.4S-305.5,336.2-306.3,336.2"
			/>
	</g>
	<g>
		<path class="st2" d="M-279.2,293.9h-31.5c-1.5,0-2.2,0.5-2.2,2.2v8c0,1.1,1,2.2,2.2,2.2h31.5c1.5,0,2.2-0.5,2.2-2.2v-8
			C-277,294.9-278.1,293.9-279.2,293.9"/>
	</g>
</g>
</svg>
