<?xml version="1.0" encoding="utf-8"?>
<!-- Generator: Adobe Illustrator 19.0.0, SVG Export Plug-In . SVG Version: 6.00 Build 0)  -->
<svg version="1.1" id="Layer_1" xmlns="http://www.w3.org/2000/svg" xmlns:xlink="http://www.w3.org/1999/xlink" x="0px" y="0px"
	 viewBox="-345 563 100 100" style="enable-background:new -345 563 100 100;" xml:space="preserve">
<style type="text/css">
	.st0{fill:#4C4B4D;}
	.st1{fill-rule:evenodd;clip-rule:evenodd;fill:#FFCC2A;}
</style>
<g>
	<polygon class="st0" points="-330.5,566.9 -308.3,578.6 -306.4,575.6 -300.6,573.5 -295.3,572.8 -289.2,573.9 -290.2,576.9 
		-287.3,582.8 -268.6,572.4 -257.6,566.9 -263.9,580.1 -268.6,585.4 -271.4,592.6 -268.6,596.2 -268.6,640.3 -294.3,657.2 
		-320,639.9 -320,595.4 -316.2,592.6 -322.3,581.1 -326.1,578.6 	"/>
	<path class="st1" d="M-276.2,604.9c0-1.2,0.1-2.4,0.1-3.6c0-1.2,0.1-2.4,0.1-3.6c-0.8-0.2-1.7-0.4-2.5-0.5c0,1.2-0.1,2.4-0.1,3.6
		c0,1.2-0.1,2.4-0.1,3.6C-277.8,604.5-277,604.7-276.2,604.9L-276.2,604.9z M-272.4,606.9c-3.3-0.9-6.7-1.7-10-2.3
		c0-1.5,0.1-3.1,0.1-4.6c0-1.5,0.1-3.1,0.1-4.6c3.3,0.6,6.7,1.2,10,2.1c0,1.6-0.1,3.2-0.1,4.7C-272.3,603.8-272.4,605.4-272.4,606.9
		L-272.4,606.9z M-282.9,598.9c-1.3-0.2-2.5-0.3-3.8-0.4c0-0.8,0.1-1.7,0.1-2.5c-0.8-0.1-1.7-0.1-2.5-0.2c0,1.4-0.1,2.7-0.1,4.1
		c0,1.4-0.1,2.7-0.1,4.1c-1.3-0.1-2.5-0.1-3.8-0.1c0-1.5,0.1-3,0.1-4.6c0-1.5,0.1-3,0.1-4.6c3.3,0.1,6.7,0.4,10,0.8
		c0,0.6,0,1.2-0.1,1.8C-282.9,597.7-282.9,598.3-282.9,598.9L-282.9,598.9z M-294.6,603.7c-3.3,0.1-6.7,0.4-10,0.8
		c0-1.2,0.1-2.4,0.1-3.6c0-1.2,0.1-2.4,0.1-3.6c1.9-0.2,3.8-0.4,5.7-0.5c0,0.3,0,0.7,0,1c-0.6,0-1.3,0.1-1.9,0.1
		c0,0.9-0.1,1.7-0.1,2.6c0,0.9-0.1,1.7-0.1,2.6c0.8-0.1,1.7-0.1,2.5-0.2c0-1.2,0.1-2.4,0.1-3.6c0-1.2,0.1-2.4,0.1-3.6
		c-2.1,0.1-4.2,0.3-6.3,0.5c0-0.3,0-0.7,0-1c3.3-0.3,6.7-0.6,10-0.6c0,1.5-0.1,3.1-0.1,4.6C-294.5,600.6-294.5,602.2-294.6,603.7
		L-294.6,603.7z M-306.2,604.7c-3.3,0.6-6.7,1.4-10,2.3c0.1-2,0.1-3.9,0.2-5.9c0.1-2,0.1-3.9,0.2-5.9c1.3-0.3,2.5-0.6,3.8-0.9
		c-0.1,1.8-0.1,3.5-0.2,5.3c-0.1,1.8-0.1,3.5-0.2,5.3c0.8-0.2,1.7-0.4,2.5-0.6c0-1.2,0.1-2.4,0.1-3.7c0-1.2,0.1-2.4,0.1-3.7
		c-0.6,0.1-1.3,0.2-1.9,0.4c0-0.3,0-0.7,0-1.1c1.9-0.4,3.8-0.7,5.7-1c-0.1,1.6-0.1,3.1-0.1,4.7
		C-306.1,601.6-306.2,603.1-306.2,604.7L-306.2,604.7z M-313.4,592.6l-2.8-1.8l-3.8-8l0.1,0l13.5,8.2
		C-308.9,591.4-311.2,591.9-313.4,592.6L-313.4,592.6z M-275,592.6l2.7-1.7l3.8-8l-0.1,0l-13.5,8.1
		C-279.6,591.3-277.2,591.9-275,592.6L-275,592.6z M-318.7,596.2c10.9-7.3,38.2-7.3,49.1,0v13.2c-21-5.8-28.3-5.7-49.1,0V596.2
		L-318.7,596.2z M-269.6,610.4c-3.8-1.1-7.2-1.9-10.3-2.6v38.4l10.3-6.7V610.4L-269.6,610.4z M-283.8,607c-7.4-1.3-13.3-1.3-20.7,0
		v41.6l10.3,6.7l10.3-6.7V607L-283.8,607z M-308.3,607.8c-3.1,0.7-6.5,1.5-10.3,2.6v29.1l10.3,6.7V607.8L-308.3,607.8z
		 M-328.6,569.5l4.2,9.1l19.8,12.1c6.7-0.9,14.2-0.9,20.9,0c6.6-3.9,12.5-7.3,19.1-11.2c1.7-3.2,3.2-6.6,4.7-10l-28.3,15.2l-0.2-0.1
		l-3.4-7.8l0.7-1.6l-6.4-1.2l-2.3,1.2l-2.8,0l-1,0.4l-2.8,1.8l3.6,0.5l4.4,3.4l-0.9,1.7l-1,1.7h0L-328.6,569.5L-328.6,569.5z
		 M-266.7,613.1l-0.1,27.9l-27.3,17.8l-27.3-17.8l-0.1-27.9l0,0v-18.4l1.3-0.8c0.6-0.4,1.2-0.7,1.8-1.1l-4.7-10l-3.5-2.1l-8.1-17.6
		l24.8,13.3l5-3.3l1.7-0.7l2.6,0l2.6-1.3l10.9,2l-1.7,3.8l1.7,3.9l32.8-17.6l-3.2,7.5c-1.5,3.5-3,6.9-4.8,10.2l-0.4,0.7l-0.7,0.4
		c-0.9,0.5-1.7,1-2.6,1.5l-4.3,9.1c0.7,0.4,1.4,0.8,2.1,1.2l1.3,0.8V613.1L-266.7,613.1z"/>
</g>
</svg>
