<?xml version="1.0" encoding="utf-8"?>
<!-- Generator: Adobe Illustrator 16.0.0, SVG Export Plug-In . SVG Version: 6.00 Build 0)  -->
<!DOCTYPE svg PUBLIC "-//W3C//DTD SVG 1.1//EN" "http://www.w3.org/Graphics/SVG/1.1/DTD/svg11.dtd">
<svg version="1.1" id="Layer_1" xmlns="http://www.w3.org/2000/svg" xmlns:xlink="http://www.w3.org/1999/xlink" x="0px" y="0px"
	 width="100px" height="100px" viewBox="0 0 100 100" enable-background="new 0 0 100 100" xml:space="preserve">
<g>
	<g>
		<path d="M18.532,35.283c-0.723,0-1.301-0.577-1.301-1.3V12.238c0-0.723,0.578-1.301,1.301-1.301h3.576
			c4.226,0,6.104,2.311,6.104,6.972c0,3.359-1.553,5.201-1.553,5.201c0.938,1.156,1.553,2.999,1.553,5.202
			c0,4.66-1.878,6.972-6.104,6.972H18.532z M20.843,14.513v6.792h1.265c1.77,0,2.492-0.975,2.492-3.396
			c0-2.421-0.722-3.396-2.492-3.396H20.843z M20.843,24.88v6.827h1.265c1.77,0,2.492-0.975,2.492-3.395
			c0-2.456-0.722-3.432-2.492-3.432H20.843z"/>
		<path d="M40.024,10.937c0.723,0,1.299,0.579,1.299,1.301v0.975c0,0.722-0.576,1.3-1.299,1.3h-5.527v6.792h4.552
			c0.722,0,1.3,0.579,1.3,1.3v0.975c0,0.723-0.578,1.301-1.3,1.301h-4.552v6.827h5.527c0.723,0,1.299,0.578,1.299,1.3v0.977
			c0,0.723-0.576,1.3-1.299,1.3h-7.803c-0.723,0-1.301-0.577-1.301-1.3V12.238c0-0.723,0.578-1.301,1.301-1.301H40.024z"/>
		<path d="M50.859,28.637h-3.684l-1.264,5.635c-0.145,0.542-0.723,1.012-1.265,1.012h-1.048c-0.866,0-1.445-0.722-1.264-1.553
			l1.734-7.659l3.287-14.124c0.145-0.542,0.723-1.012,1.264-1.012h0.795c0.543,0,1.156,0.47,1.264,1.012l4.985,21.745
			c0.179,0.832-0.397,1.59-1.266,1.59h-1.047c-0.541,0-1.119-0.47-1.265-1.012L50.859,28.637z M48.006,25.061h2.023
			c-0.398-1.733-0.326-2.709-1.012-5.78L48.006,25.061z"/>
		<path d="M56.206,17.98c0-2.745,0.795-4.551,1.95-5.635c1.192-1.083,2.638-1.409,4.009-1.409c1.338,0,2.782,0.326,3.975,1.409
			c1.155,1.084,1.914,2.89,1.914,5.635v0.505c0,0.723-0.578,1.303-1.264,1.303h-1.049c-0.722,0-1.299-0.58-1.299-1.303V17.98
			c0-2.419-0.796-3.468-2.277-3.468c-1.516,0-2.311,1.048-2.311,3.468v10.222c0,2.421,0.759,3.504,2.311,3.504
			c0.687,0,1.338-0.29,1.662-0.65c0.433-0.577,0.615-1.553,0.615-2.854v-0.504c0-0.723,0.577-1.301,1.299-1.301h1.049
			c0.686,0,1.264,0.578,1.264,1.301v0.504c0,2.854-0.759,4.516-1.878,5.637c-1.192,1.156-2.708,1.444-4.011,1.444
			c-1.371,0-2.854-0.288-4.045-1.444c-1.119-1.121-1.914-2.782-1.914-5.637V17.98z"/>
		<path d="M78.131,21.34v-9.103c0-0.723,0.578-1.301,1.302-1.301h1.011c0.723,0,1.301,0.579,1.301,1.301v21.745
			c0,0.723-0.578,1.3-1.301,1.3h-1.011c-0.724,0-1.302-0.577-1.302-1.3v-9.067h-4.01v9.067c0,0.723-0.577,1.3-1.3,1.3h-1.011
			c-0.723,0-1.301-0.577-1.301-1.3V12.238c0-0.723,0.578-1.301,1.301-1.301h1.011c0.723,0,1.3,0.579,1.3,1.301v9.103H78.131z"/>
	</g>
	<g>
		<path d="M16.942,44.499c0-2.745,0.794-4.552,1.951-5.635c1.192-1.084,2.636-1.41,4.009-1.41c1.336,0,2.781,0.325,3.973,1.41
			c1.156,1.083,1.916,2.89,1.916,5.635v0.506c0,0.723-0.579,1.3-1.265,1.3h-1.047c-0.722,0-1.3-0.577-1.3-1.3v-0.506
			c0-2.421-0.795-3.468-2.276-3.468c-1.517,0-2.312,1.047-2.312,3.468v10.225c0,2.42,0.759,3.504,2.312,3.504
			c0.687,0,1.336-0.29,1.662-0.651c0.433-0.577,0.614-1.553,0.614-2.853v-0.506c0-0.725,0.578-1.302,1.3-1.302h1.047
			c0.687,0,1.265,0.577,1.265,1.302v0.506c0,2.853-0.759,4.515-1.879,5.634c-1.192,1.156-2.709,1.446-4.009,1.446
			c-1.373,0-2.854-0.29-4.046-1.446c-1.12-1.119-1.914-2.781-1.914-5.634V44.499z"/>
		<path d="M41.289,60.503c0,0.722-0.579,1.301-1.301,1.301h-7.694c-0.723,0-1.301-0.579-1.301-1.301V38.755
			c0-0.723,0.579-1.301,1.301-1.301h1.047c0.686,0,1.264,0.578,1.264,1.301v19.472h5.382c0.722,0,1.301,0.577,1.301,1.3V60.503z"/>
		<path d="M43.094,38.719c0-0.723,0.578-1.3,1.265-1.3h1.011c0.722,0,1.3,0.578,1.3,1.3v16.438c0,1.915,0.578,3.034,2.347,3.034
			c1.842,0,2.348-1.3,2.348-3.034V38.719c0-0.723,0.578-1.3,1.264-1.3h1.013c0.722,0,1.3,0.578,1.3,1.3v16.438
			c0,4.045-1.733,6.611-5.924,6.611c-4.333,0-5.923-2.782-5.923-6.611V38.719z"/>
		<path d="M59.637,61.804c-0.722,0-1.3-0.579-1.3-1.301V38.755c0-0.723,0.578-1.301,1.3-1.301h3.576
			c4.225,0,6.104,2.313,6.104,6.972c0,3.359-1.553,5.201-1.553,5.201c0.938,1.155,1.553,2.998,1.553,5.204
			c0,4.658-1.88,6.972-6.104,6.972H59.637z M61.949,41.031v6.79h1.264c1.771,0,2.494-0.974,2.494-3.395
			c0-2.42-0.724-3.396-2.494-3.396H61.949z M61.949,51.398v6.829h1.264c1.771,0,2.494-0.976,2.494-3.396
			c0-2.457-0.724-3.434-2.494-3.434H61.949z"/>
	</g>
	<g>
		<path fill="#34D9C3" d="M63.638,71.039h-0.771v2.347h0.549c0.685,0,1.04-0.343,1.04-1.174
			C64.456,71.38,64.273,71.039,63.638,71.039z"/>
		<path fill="#34D9C3" d="M37.094,72.652l-0.343,1.956h0.685C37.302,74.023,37.326,73.691,37.094,72.652z"/>
		<path fill="#34D9C3" d="M86.397,4.002H12.329c-0.758,0-1.372,0.614-1.372,1.371v74.072c0,0.758,0.614,1.37,1.372,1.37h74.069
			c0.756,0,1.371-0.612,1.371-1.37V5.373C87.769,4.616,87.153,4.002,86.397,4.002z M85.025,6.746v59.407H13.701V6.746H85.025z
			 M27.459,77.716c-0.049,0.194-0.244,0.354-0.428,0.354h-0.269c-0.183,0-0.379-0.159-0.417-0.342l-0.416-2.752v2.654
			c0,0.244-0.208,0.439-0.44,0.439h-0.343c-0.245,0-0.439-0.195-0.439-0.439v-7.361c0-0.245,0.195-0.44,0.439-0.44h0.367
			c0.183,0,0.378,0.159,0.416,0.342l0.966,4.928l0.954-4.928c0.037-0.183,0.245-0.342,0.429-0.342h0.366
			c0.246,0,0.441,0.195,0.441,0.44v7.361c0,0.244-0.195,0.439-0.441,0.439h-0.342c-0.244,0-0.439-0.195-0.439-0.439v-2.631
			L27.459,77.716z M34.832,77.544l0.586-2.593l1.113-4.781c0.05-0.183,0.245-0.342,0.429-0.342h0.269
			c0.184,0,0.391,0.159,0.428,0.342l1.688,7.362c0.061,0.28-0.134,0.537-0.429,0.537h-0.354c-0.184,0-0.38-0.159-0.429-0.342
			l-0.415-1.908h-1.247l-0.429,1.908c-0.049,0.183-0.245,0.342-0.428,0.342H35.26C34.966,78.069,34.77,77.824,34.832,77.544z
			 M44.515,69.816h0.344c0.181,0,0.377,0.159,0.427,0.341l1.087,4.66l1.089-4.66c0.037-0.182,0.245-0.341,0.428-0.341h0.354
			c0.293,0,0.489,0.257,0.429,0.537l-1.736,7.362c-0.05,0.194-0.246,0.342-0.429,0.342h-0.257c-0.195,0-0.391-0.147-0.428-0.342
			l-1.737-7.362C44.013,70.073,44.209,69.816,44.515,69.816z M54.455,77.63v-7.361c0-0.245,0.194-0.44,0.439-0.44h0.343
			c0.231,0,0.439,0.195,0.439,0.44v7.361c0,0.244-0.208,0.439-0.439,0.439h-0.343C54.649,78.069,54.455,77.874,54.455,77.63z
			 M65.581,75.574v2.042c0,0.245-0.196,0.441-0.441,0.441h-0.342c-0.245,0-0.439-0.196-0.439-0.441v-2.042
			c0-0.61-0.343-0.953-0.942-0.953h-0.549v2.995c0,0.245-0.197,0.441-0.429,0.441h-0.343c-0.245,0-0.439-0.196-0.439-0.441v-7.361
			c0-0.243,0.194-0.438,0.439-0.438h1.542c1.502,0,2.028,0.758,2.028,2.396c0,0.759-0.135,1.37-0.513,1.749
			c-0.038,0.037-0.062,0.062-0.1,0.099C65.408,74.438,65.581,74.939,65.581,75.574z M71.595,77.63v-7.361
			c0-0.245,0.195-0.44,0.441-0.44h0.342c0.232,0,0.44,0.195,0.44,0.44v7.361c0,0.244-0.208,0.439-0.44,0.439h-0.342
			C71.79,78.069,71.595,77.874,71.595,77.63z"/>
	</g>
</g>
</svg>
