<?xml version="1.0" encoding="utf-8"?>
<!-- Generator: Adobe Illustrator 16.0.0, SVG Export Plug-In . SVG Version: 6.00 Build 0)  -->
<!DOCTYPE svg PUBLIC "-//W3C//DTD SVG 1.1//EN" "http://www.w3.org/Graphics/SVG/1.1/DTD/svg11.dtd">
<svg version="1.1" id="Layer_1" xmlns="http://www.w3.org/2000/svg" xmlns:xlink="http://www.w3.org/1999/xlink" x="0px" y="0px"
	 width="100px" height="100px" viewBox="0 0 100 100" enable-background="new 0 0 100 100" xml:space="preserve">
<g>
	<path d="M74.734,2.229c0.251,0.721,0.379,1.474,0.414,2.234L75.42,4.26c0.085,0.387,0.175,0.768,0.275,1.154
		c0.046-0.499,0.089-0.995,0.136-1.489L75.37,4.211c0.019-0.32,0.058-0.961,0.082-1.284c0.359-0.292,0.72-0.592,1.074-0.898
		l0.346,0.361c0.07-0.116,0.216-0.345,0.29-0.459c0.481,0.79,1.062,0.185,1.588-0.1c0.793,1.13,0.646,2.594,0.887,3.888
		c-0.23-0.112-0.694-0.333-0.923-0.446c0.04-0.325,0.122-0.979,0.162-1.306L78.604,3.89c-0.03,0.829-0.081,1.688,0.376,2.422
		l0.192-0.034c0.913-0.297,0.415,1.146,0.549,1.62C79.57,7.885,79.27,7.854,79.118,7.84c-0.025,0.185-0.079,0.558-0.104,0.743
		l0.404-0.007c1.035,2.641,0.513,5.509,0.755,8.271l0.521-0.256c-0.035,1.308-0.708,2.655-0.028,3.906
		c-0.159-0.007-0.471-0.021-0.628-0.028l0.012,0.561l0.597-0.438c-0.54,3.355,0.436,6.706,0.232,10.073
		c-0.061,4.798-0.035,9.589,0.488,14.369c0.323,2.118-0.36,4.219-0.219,6.342c0.136,2.215,0.32,4.451-0.011,6.659
		c-0.256,3.546,0.494,7.221-0.767,10.648c-0.283,0.275-0.562,0.56-0.834,0.845c-2.51,1.205-5.342,0.705-7.898-0.048
		c-0.337-0.329-0.676-0.654-1.01-0.978c-0.865-0.283-1.617-0.775-2.292-1.377c-0.826-0.999-1.783-1.878-2.632-2.852
		c0.452,0.122,0.897,0.262,1.343,0.419c0.015-1.366,0.164-2.765-0.501-4.016c0.196-1.389,0.49-2.762,0.658-4.156
		c-0.231-0.831-0.301-1.693-0.45-2.539c0.32-0.227,0.642-0.451,0.97-0.669c-0.371-1.863-0.468-3.758-0.472-5.649
		c0.747-2.637,0.267-5.424,0.734-8.102c0.268-1.481,0.137-2.989,0.007-4.474c0.03-1.902,0.472-3.765,0.747-5.644
		c-0.642-0.177-0.924-0.753-1.165-1.313c-1.299,3.613-2.783,7.18-3.554,10.961c-0.899,2.23-1.492,4.58-2.456,6.783
		c-1.177,1.781-1.639,3.887-2.443,5.84c-0.705,3.083-1.572,6.129-2.105,9.251l-0.55-0.219c0.037,0.311,0.103,0.938,0.136,1.255
		c-0.16-0.212-0.471-0.633-0.63-0.838c-0.394,0.332-0.78,0.677-1.17,1.016c0.449-1.075,0.717-2.287,0.392-3.436
		c-0.177,0.476-0.344,0.955-0.491,1.44c-0.216-0.207-0.646-0.628-0.861-0.838l-0.09,1.06c-0.159-0.638-0.066-1.279,0.098-1.906
		c-0.112-0.771,0.026-1.551,0.185-2.309l-0.192,0.012c-0.108,0.723-0.257,1.44-0.391,2.158c-0.472-0.05-0.932,0.009-1.362,0.215
		c-0.036-0.243-0.115-0.729-0.152-0.976c0.783-0.173,0.806-0.359,0.067-0.552c0.085-0.318,0.256-0.96,0.341-1.281
		c-0.354,0.5-0.578,1.071-0.832,1.624c0.052,0.484,0.093,0.97,0.131,1.455c-0.264,0.046-0.793,0.13-1.054,0.175
		c-0.135,0.468-0.264,0.939-0.394,1.411c-0.052-0.188-0.152-0.551-0.204-0.734c-1.005-0.491-2.556-0.755-2.928,0.667
		c-0.188-0.265-0.379-0.523-0.563-0.788c-0.123,0.193-0.368,0.577-0.49,0.765c-0.121-0.186-0.367-0.563-0.49-0.749l-0.875,0.287
		l0.397-0.813c-0.405,0.26-0.81,0.519-1.21,0.783c0.167-1.214,0.642-2.384,0.664-3.614c-0.278-0.588-0.648-1.122-0.986-1.672
		c-0.783-1.994-1.777-3.901-2.724-5.82c-0.775-2.46-2.226-4.632-2.976-7.104c-1.228-3.617-2.609-7.176-3.722-10.833
		c-0.238,1.785,0.251,3.562,0.011,5.344c-0.442,2.99,0.237,5.974,0.127,8.973c0.611,3.672,0.058,7.37,0.155,11.067
		c0.026,4.938-0.06,9.877-0.215,14.818c-0.015,0.494-0.282,0.93-0.538,1.341c-0.141,0.303-0.282,0.612-0.42,0.92
		c-0.096-0.123-0.292-0.363-0.389-0.484c-1.287,0.093-2.605,0.088-3.819,0.612c-0.887-0.366-1.818-0.601-2.733-0.866l-0.057,0.29
		c-0.967-0.021-1.937,0.019-2.883,0.248c-0.764-2.07-0.819-4.248-0.67-6.428c-0.74-2.686-0.335-5.479-0.476-8.229
		c0.211-3.28-1.458-6.469-0.639-9.742c-0.021-2.784,0.387-5.562,0.779-8.318l0.612,0.316c-0.174-0.423-0.337-0.851-0.49-1.281
		c0.208,0.256,0.621,0.772,0.828,1.028c-0.077-1.917,0.174-3.846-0.07-5.759c-0.196-1.673-0.248-3.362-0.207-5.042
		c-0.167,0.052-0.505,0.157-0.673,0.208c0.086-2.021,0.252-4.037,0.386-6.058c0.156,1.029,0.271,2.073,0.227,3.119l0.282-0.019
		c0.148-3.472,0.174-6.969-0.401-10.403c-0.512-2.443,0.008-4.943-0.508-7.389c-0.33-1.303,0.136-2.564,0.676-3.737
		c0.485,0.163,0.967,0.329,1.45,0.492c0.118-0.175,0.356-0.523,0.476-0.695c0.49-0.026,0.98-0.051,1.47-0.083
		c0.909-0.678,2.137-0.521,3.201-0.686c2.951-0.581,6.312,0.426,8.02,3.014c2.386,3.835,4.235,8.062,5.06,12.519
		c0.261,0.969,0.87,1.797,1.276,2.706c1.422,3.575,3.121,7.028,4.636,10.563c0.793,1.922,1.839,3.722,2.806,5.564
		c1.658-4.865,3.351-9.722,5.313-14.48c0.858-2.509,1.772-4.994,2.881-7.406c1.395-2.912,2.045-6.145,3.735-8.924
		c0.473-0.675,0.746-1.454,1.013-2.225c0.499-0.294,0.907-0.697,1.17-1.218c0.926-0.91,2.185-0.862,3.384-0.957l0.04-0.309
		c0.889,0.451,1.809-0.093,2.688-0.273C72.672,2.873,73.781,2.772,74.734,2.229z M73.733,8.293c0.007,0.188,0.024,0.572,0.031,0.76
		c0.51,0.417,1.248-0.404,1.012-0.9C74.438,8.131,74.033,8.116,73.733,8.293z M72.862,13.867c-0.098,0.731-0.194,1.462-0.272,2.193
		c0.137,0.093,0.415,0.276,0.557,0.371l-0.114-0.987c0.274,0.241,0.823,0.715,1.099,0.957c0.019-0.648,0.046-1.295,0.042-1.944
		c-0.231,0.268-0.7,0.798-0.929,1.066C73.117,14.969,72.99,14.417,72.862,13.867z M77.554,20.367
		c0.008,0.182,0.027,0.552,0.034,0.74c0.338,0.02,0.677,0.043,1.014,0.065c-0.158-0.109-0.472-0.319-0.631-0.423
		c0.177-0.129,0.53-0.39,0.709-0.52C78.396,20.264,77.833,20.331,77.554,20.367z M72.338,23.295
		c-0.683-0.297-0.812-1.057-1.113-1.647c-0.02,0.308-0.033,0.616-0.046,0.924c0.32,0.331,0.632,0.672,0.94,1.017
		c1.027-0.625,1.062-1.802,0.828-2.875C72.53,21.513,72.5,22.427,72.338,23.295z M73.761,22.903c0.136-0.717,0.198-1.443,0.19-2.176
		C73.362,21.357,73.332,22.182,73.761,22.903z"/>
</g>
<g>
	<path d="M82.657,1.853c-0.826,0.124-1.518,0.732-1.64,1.596c-0.151,1.095,0.546,1.9,1.2,2.16c1.199,0.484,2.31-0.355,2.599-1.077
		c0.093-0.229,0.143-0.449,0.161-0.657c0-0.108,0-0.211,0-0.317C84.881,2.423,83.748,1.686,82.657,1.853z M84.539,4.09
		c-0.111,0.643-0.775,1.163-1.241,1.241c-1.183,0.199-2.061-0.801-1.877-1.882c0.099-0.598,0.612-1.08,1.236-1.199
		C83.743,2.047,84.742,2.88,84.539,4.09z"/>
	<path d="M83.339,3.771c0.371-0.019,0.445-0.569,0.279-0.883c-0.298-0.254-0.927-0.193-1.479-0.196
		c-0.093,0.6-0.016,1.373-0.042,2.04c0.114,0.061,0.448,0.061,0.561,0c0.026-0.242-0.052-0.584,0.043-0.76
		c0.537-0.037,0.493,0.518,0.718,0.8c0.173,0,0.346,0,0.519,0C83.807,4.369,83.649,3.994,83.339,3.771z M83.179,3.491
		c-0.1,0.114-0.286,0.137-0.521,0.12c0-0.171,0-0.348,0-0.517c0.229-0.018,0.44-0.014,0.521,0.119
		C83.179,3.303,83.179,3.397,83.179,3.491z"/>
</g>
<g>
	<g>
		<g>
			<g>
				<g>
					<path d="M29.1,75.06c0.042,0.104,0.065,0.214,0.076,0.327l0.039-0.031c0.015,0.058,0.031,0.112,0.048,0.168
						c0.003-0.074,0.006-0.147,0.01-0.22l-0.066,0.045c0-0.048,0.001-0.143,0.003-0.19c0.051-0.046,0.103-0.092,0.153-0.139
						l0.054,0.051c0.01-0.017,0.029-0.051,0.039-0.069c0.077,0.114,0.159,0.021,0.235-0.025c0.125,0.161,0.112,0.379,0.157,0.569
						c-0.035-0.015-0.105-0.044-0.14-0.058c0.004-0.05,0.012-0.147,0.016-0.196l-0.04-0.01c0.001,0.121-0.001,0.249,0.072,0.354
						l0.028-0.006c0.133-0.049,0.069,0.169,0.092,0.236c-0.023,0-0.067-0.004-0.091-0.005c-0.001,0.027-0.007,0.083-0.009,0.109
						l0.059-0.003c0.17,0.384,0.112,0.811,0.165,1.218l0.077-0.042c0.002,0.194-0.088,0.399,0.021,0.579c-0.023,0-0.07,0-0.093,0
						l0.005,0.081l0.086-0.067c-0.059,0.499,0.109,0.986,0.1,1.489c0.023,0.708,0.058,1.414,0.167,2.12
						c0.062,0.31-0.025,0.624,0.01,0.938c0.035,0.325,0.077,0.654,0.042,0.985c-0.015,0.523,0.121,1.062-0.043,1.577
						c-0.04,0.042-0.079,0.085-0.118,0.13c-0.364,0.196-0.785,0.143-1.167,0.046c-0.052-0.046-0.104-0.094-0.155-0.136
						c-0.13-0.036-0.245-0.105-0.348-0.188c-0.129-0.143-0.276-0.266-0.408-0.406c0.068,0.017,0.135,0.034,0.202,0.055
						c-0.008-0.201,0.005-0.409-0.102-0.59c0.021-0.206,0.055-0.409,0.071-0.617c-0.039-0.124-0.056-0.251-0.083-0.374
						c0.046-0.036,0.093-0.07,0.14-0.105c-0.068-0.271-0.096-0.551-0.108-0.832c0.094-0.395,0.004-0.803,0.055-1.201
						c0.03-0.222,0.001-0.444-0.028-0.664c-0.008-0.279,0.045-0.56,0.073-0.838c-0.096-0.021-0.141-0.104-0.182-0.187
						c-0.168,0.545-0.363,1.081-0.452,1.644c-0.119,0.336-0.19,0.688-0.318,1.02c-0.162,0.272-0.216,0.588-0.323,0.882
						c-0.083,0.457-0.192,0.914-0.249,1.38l-0.083-0.029c0.007,0.045,0.021,0.139,0.029,0.185c-0.026-0.03-0.074-0.093-0.099-0.12
						c-0.057,0.053-0.112,0.104-0.166,0.158c0.059-0.16,0.09-0.344,0.035-0.512c-0.023,0.071-0.044,0.144-0.063,0.218
						c-0.033-0.03-0.098-0.09-0.132-0.119l-0.007,0.159c-0.027-0.096-0.019-0.192,0.001-0.284c-0.021-0.114-0.005-0.229,0.012-0.342
						l-0.028,0.002c-0.012,0.107-0.028,0.214-0.043,0.321c-0.069-0.004-0.136,0.01-0.199,0.042
						c-0.006-0.036-0.022-0.107-0.029-0.145c0.114-0.03,0.117-0.057,0.007-0.081c0.01-0.049,0.03-0.145,0.041-0.191
						c-0.049,0.077-0.078,0.162-0.111,0.246c0.01,0.071,0.019,0.142,0.029,0.214c-0.039,0.009-0.116,0.023-0.155,0.031
						c-0.016,0.07-0.034,0.142-0.05,0.213c-0.008-0.026-0.026-0.081-0.035-0.108c-0.152-0.066-0.382-0.095-0.428,0.118
						c-0.031-0.036-0.06-0.076-0.088-0.112c-0.017,0.028-0.05,0.089-0.068,0.118c-0.02-0.027-0.058-0.082-0.077-0.109l-0.128,0.048
						l0.054-0.123c-0.058,0.042-0.116,0.084-0.174,0.125c0.017-0.182,0.079-0.356,0.074-0.54c-0.044-0.085-0.103-0.159-0.157-0.239
						c-0.129-0.289-0.289-0.565-0.442-0.843c-0.131-0.359-0.36-0.672-0.486-1.03c-0.205-0.526-0.433-1.045-0.622-1.576
						c-0.023,0.265,0.061,0.523,0.037,0.789c-0.046,0.445,0.074,0.881,0.077,1.327c0.115,0.538,0.058,1.088,0.096,1.635
						c0.037,0.73,0.057,1.461,0.066,2.19c0,0.073-0.035,0.141-0.071,0.204c-0.019,0.044-0.038,0.092-0.056,0.139
						c-0.015-0.021-0.045-0.053-0.061-0.069c-0.189,0.021-0.384,0.03-0.56,0.114c-0.134-0.048-0.272-0.076-0.41-0.108l-0.006,0.043
						c-0.143,0.004-0.285,0.016-0.424,0.056c-0.126-0.3-0.15-0.621-0.141-0.945c-0.127-0.392-0.086-0.809-0.125-1.214
						c0.009-0.487-0.258-0.946-0.159-1.437c-0.021-0.412,0.021-0.824,0.06-1.234l0.093,0.042c-0.029-0.061-0.056-0.121-0.081-0.186
						c0.031,0.036,0.097,0.112,0.129,0.146c-0.024-0.284,0-0.569-0.048-0.851c-0.04-0.245-0.06-0.496-0.065-0.744
						c-0.025,0.009-0.073,0.024-0.097,0.033c-0.001-0.299,0.011-0.598,0.017-0.896c0.03,0.15,0.054,0.305,0.055,0.46l0.041-0.005
						c0-0.516-0.02-1.031-0.128-1.537c-0.092-0.357-0.031-0.73-0.124-1.088c-0.057-0.19,0.003-0.38,0.076-0.558
						c0.073,0.021,0.146,0.043,0.217,0.063c0.017-0.027,0.049-0.08,0.066-0.104c0.072-0.008,0.145-0.017,0.216-0.023
						c0.131-0.105,0.313-0.094,0.469-0.123c0.433-0.105,0.936,0.021,1.205,0.394c0.379,0.552,0.68,1.163,0.832,1.818
						c0.044,0.14,0.14,0.256,0.206,0.392c0.234,0.518,0.507,1.019,0.754,1.527c0.13,0.281,0.297,0.541,0.451,0.806
						c0.212-0.73,0.431-1.461,0.69-2.178c0.11-0.375,0.23-0.748,0.378-1.112c0.186-0.441,0.261-0.922,0.493-1.343
						c0.063-0.104,0.1-0.221,0.135-0.337c0.073-0.045,0.13-0.11,0.165-0.188c0.13-0.139,0.317-0.14,0.495-0.163l0.003-0.047
						c0.135,0.062,0.267-0.025,0.395-0.058C28.799,75.169,28.962,75.145,29.1,75.06z M28.992,75.962
						c0.002,0.027,0.007,0.083,0.009,0.112c0.079,0.058,0.183-0.069,0.144-0.14C29.096,75.933,29.036,75.933,28.992,75.962z
						 M28.899,76.79c-0.009,0.109-0.019,0.22-0.025,0.327c0.021,0.014,0.063,0.039,0.085,0.053l-0.023-0.147
						c0.042,0.035,0.126,0.101,0.169,0.136c-0.001-0.097-0.002-0.191-0.007-0.287c-0.033,0.038-0.098,0.122-0.13,0.164
						C28.946,76.954,28.923,76.872,28.899,76.79z M29.636,77.721c0.003,0.027,0.008,0.083,0.01,0.109c0.05,0,0.1,0,0.151,0.003
						c-0.025-0.014-0.073-0.045-0.097-0.057c0.025-0.022,0.076-0.062,0.102-0.083C29.762,77.7,29.678,77.714,29.636,77.721z
						 M28.885,78.188c-0.103-0.038-0.128-0.15-0.176-0.236c0,0.044,0,0.091,0,0.137c0.05,0.047,0.097,0.096,0.146,0.145
						c0.147-0.101,0.146-0.275,0.104-0.43C28.903,77.924,28.904,78.059,28.885,78.188z M29.093,78.121
						c0.014-0.107,0.02-0.215,0.014-0.324C29.023,77.895,29.025,78.016,29.093,78.121z"/>
				</g>
				<g>
					<path d="M33.926,75.083c0.139-0.063,0.287-0.108,0.433-0.149c0.04,0.022,0.081,0.043,0.12,0.065l-0.048,0.036l0.079,0.053
						l-0.049,0.046c0.08,0.002,0.161-0.007,0.24,0.002c0.014,0.051,0.037,0.095,0.071,0.131c0.016-0.022,0.048-0.066,0.065-0.088
						c0.021,0.036,0.04,0.074,0.061,0.112c-0.065,0.011-0.129,0.016-0.194,0.015c-0.003-0.127-0.106-0.175-0.202-0.091
						c0.027,0.01,0.083,0.028,0.11,0.04c0.034,0.175,0.065,0.359,0.182,0.504c-0.005-0.143-0.087-0.283-0.047-0.426
						c0.049,0.099,0.076,0.206,0.082,0.317c0.021-0.044,0.061-0.131,0.082-0.176c-0.002,0.054-0.013,0.161-0.017,0.218l0.051-0.027
						c0.013,0.096,0.011,0.197,0.051,0.29c0.172,0.402,0.232,0.848,0.455,1.23c0.163,0.26,0.222,0.567,0.367,0.837
						c0.108,0.202,0.159,0.429,0.207,0.648c0.045,0.221,0.173,0.409,0.269,0.61c-0.008,0.207,0.11,0.377,0.205,0.546
						c0.082,0.207,0.134,0.421,0.184,0.636c0.139,0.397,0.314,0.777,0.434,1.181c0.145,0.436,0.263,0.877,0.404,1.314
						c0.019,0.225,0.09,0.438,0.112,0.661c-0.136,0.138-0.174,0.338-0.3,0.482c-0.022-0.003-0.066-0.008-0.088-0.008
						c-0.16,0.088-0.336,0.137-0.515,0.165c-0.021,0.021-0.062,0.062-0.083,0.082c-0.062-0.02-0.125-0.042-0.186-0.062l-0.016,0.089
						c-0.019-0.02-0.054-0.062-0.072-0.082l-0.074,0.053c-0.009-0.025-0.028-0.081-0.037-0.106
						c-0.069,0.064-0.151,0.106-0.246,0.127c0.026-0.027,0.08-0.077,0.106-0.103c-0.017-0.017-0.049-0.049-0.066-0.064
						c-0.07,0.185-0.197-0.05-0.267-0.118c-0.066-0.321-0.1-0.646-0.227-0.949c-0.191-0.745-0.466-1.462-0.667-2.2
						c-0.367,0.052-0.744,0.03-1.102,0.137c-0.268,0.091-0.54,0.17-0.813,0.245c0.007,0.041,0.017,0.082,0.027,0.123
						c-0.058,0.223-0.035,0.453-0.082,0.676c-0.059,0.484-0.141,0.965-0.178,1.45c-0.014,0.173-0.088,0.328-0.163,0.48
						c-0.094,0.192-0.334,0.211-0.507,0.294c0-0.132,0.01-0.266,0.014-0.396c-0.089,0.127-0.137,0.278-0.238,0.401
						c-0.016-0.12-0.018-0.24-0.014-0.359c-0.037,0.114-0.062,0.231-0.106,0.341c-0.096,0.013-0.178-0.042-0.261-0.077
						c-0.035,0.047-0.07,0.094-0.104,0.143c-0.07-0.02-0.135-0.052-0.197-0.088c-0.004,0.028-0.015,0.081-0.02,0.11L31.13,84.28
						c-0.047,0.032-0.096,0.064-0.142,0.099c-0.005-0.083-0.016-0.166-0.029-0.248c-0.03,0.027-0.089,0.077-0.12,0.102
						c0.006-0.125,0.018-0.252,0.034-0.375c-0.095,0.151-0.193,0.303-0.315,0.432c0.27-0.789,0.356-1.625,0.593-2.425
						c0.103-0.325,0.096-0.675,0.204-0.998c0.039-0.109-0.061-0.206-0.095-0.301l0.067,0.006c-0.019-0.022-0.055-0.067-0.074-0.09
						c0.062-0.18,0.243-0.256,0.339-0.408c0.008-0.541,0.171-1.069,0.283-1.599c0.024-0.197,0.087-0.39,0.162-0.571
						c0.095-0.388,0.199-0.772,0.332-1.149c0.12-0.552,0.367-1.062,0.621-1.563c0.111-0.057,0.218-0.171,0.355-0.142
						C33.537,75.064,33.731,75.136,33.926,75.083z M33.485,77.238c-0.13,0.314-0.217,0.646-0.284,0.979
						c0.009,0.021,0.029,0.061,0.041,0.079C33.34,77.947,33.448,77.6,33.485,77.238z M33.713,77.228
						c-0.1,0.381-0.084,0.787-0.231,1.156c-0.084,0.281,0,0.573-0.074,0.853c-0.032,0.131-0.019,0.296-0.14,0.382
						c-0.014-0.004-0.04-0.013-0.055-0.018c0-0.352,0.125-0.69,0.118-1.043c-0.145,0.366-0.105,0.77-0.221,1.143
						c0.159-0.047,0.325-0.025,0.486-0.049c0.286-0.052,0.574-0.091,0.856-0.165c-0.193-0.468-0.4-0.932-0.511-1.429
						C33.882,77.778,33.822,77.497,33.713,77.228z"/>
				</g>
				<g>
					<path d="M46.543,74.518c0.139-0.062,0.289-0.105,0.436-0.149c0.021,0.014,0.062,0.04,0.085,0.054
						c-0.003,0.143,0.146,0.145,0.253,0.167c0.016,0.104,0.085,0.13,0.125,0.021c0.005,0.011,0.018,0.038,0.023,0.05
						c0.009,0.021,0.032,0.069,0.042,0.093c-0.077-0.012-0.153-0.009-0.229-0.004c0.116-0.152-0.071-0.168-0.174-0.183
						c0.032,0.054,0.073,0.104,0.123,0.141c0.039,0.176,0.073,0.354,0.188,0.495c-0.021-0.119-0.049-0.24-0.082-0.359
						c0.014-0.012,0.044-0.03,0.057-0.039c0.02,0.078,0.038,0.156,0.055,0.235c0.021-0.03,0.064-0.094,0.087-0.125
						c-0.007,0.055-0.02,0.158-0.027,0.212l0.058-0.025c0.013,0.097,0.011,0.2,0.051,0.289c0.172,0.403,0.233,0.849,0.455,1.234
						c0.169,0.267,0.229,0.587,0.381,0.866c0.166,0.3,0.153,0.665,0.324,0.963c0.051,0.117,0.149,0.222,0.147,0.355
						c0.005,0.189,0.144,0.33,0.214,0.498c0.109,0.301,0.151,0.624,0.287,0.917c0.295,0.704,0.489,1.442,0.716,2.171
						c0.02,0.225,0.09,0.44,0.114,0.66c-0.137,0.137-0.174,0.337-0.301,0.483c-0.021-0.004-0.066-0.008-0.088-0.008
						c-0.178,0.1-0.378,0.145-0.579,0.181c0,0.02,0,0.06,0,0.079c-0.063-0.025-0.129-0.054-0.192-0.079
						c-0.008,0.021-0.022,0.066-0.03,0.09c-0.018-0.019-0.053-0.06-0.071-0.08l-0.073,0.053c-0.009-0.025-0.027-0.079-0.037-0.105
						c-0.069,0.064-0.152,0.105-0.244,0.126c0.025-0.025,0.08-0.078,0.105-0.104c-0.023-0.021-0.047-0.042-0.069-0.061
						c-0.084,0.188-0.181-0.056-0.264-0.12c-0.06-0.234-0.068-0.479-0.147-0.71c-0.159-0.452-0.258-0.924-0.421-1.377
						c-0.113-0.354-0.232-0.706-0.326-1.064c-0.206,0.025-0.415,0.04-0.623,0.055c-0.415,0.024-0.797,0.203-1.195,0.303
						c-0.104-0.006-0.115,0.072-0.069,0.143c-0.035,0.154-0.05,0.305-0.051,0.46c-0.082,0.59-0.167,1.183-0.226,1.776
						c-0.072,0.206-0.126,0.481-0.363,0.556c-0.096,0.042-0.195,0.08-0.292,0.112c-0.001-0.131,0.009-0.263,0.013-0.396
						c-0.088,0.129-0.137,0.281-0.24,0.403c-0.015-0.12-0.016-0.24-0.015-0.359c-0.035,0.113-0.059,0.229-0.104,0.341
						c-0.095,0.017-0.178-0.041-0.259-0.079c-0.037,0.048-0.072,0.098-0.107,0.144c-0.07-0.018-0.137-0.048-0.197-0.088l0.003,0.11
						c-0.013-0.03-0.036-0.092-0.048-0.121c-0.047,0.03-0.094,0.063-0.14,0.098c-0.007-0.083-0.018-0.167-0.029-0.248
						c-0.031,0.025-0.09,0.076-0.121,0.1c0.006-0.125,0.02-0.25,0.034-0.375c-0.094,0.149-0.189,0.301-0.312,0.428
						c0.039-0.19,0.121-0.368,0.167-0.56c0.102-0.488,0.206-0.975,0.313-1.461c0.112-0.383,0.206-0.772,0.249-1.169
						c0.068-0.18,0.1-0.37-0.032-0.534l0.068,0.013c-0.019-0.022-0.058-0.069-0.075-0.094c0.061-0.179,0.244-0.255,0.339-0.409
						c0-0.408,0.113-0.812,0.193-1.215c0.093-0.301,0.104-0.623,0.235-0.913c0.168-0.642,0.359-1.278,0.565-1.91
						c0.136-0.28,0.255-0.569,0.404-0.843c0.111-0.061,0.22-0.175,0.358-0.143C46.155,74.505,46.35,74.569,46.543,74.518z
						 M45.841,77.748c0.126-0.347,0.212-0.709,0.267-1.074C45.975,77.016,45.826,77.378,45.841,77.748z M46.331,76.662
						c-0.102,0.381-0.086,0.786-0.232,1.157c-0.083,0.28,0.002,0.575-0.073,0.855c-0.031,0.13-0.018,0.293-0.14,0.38
						c-0.013-0.005-0.039-0.015-0.054-0.018c0-0.354,0.125-0.691,0.116-1.044c-0.129,0.32-0.102,0.674-0.188,1.003
						c-0.009,0.052-0.042,0.118,0.004,0.16c0.018-0.012,0.051-0.032,0.067-0.044c0.418-0.014,0.832-0.096,1.238-0.188
						c-0.1-0.283-0.248-0.548-0.333-0.835C46.553,77.626,46.515,77.122,46.331,76.662z"/>
				</g>
				<g>
					<path d="M39.125,75.295c0.048,0.025,0.098,0.055,0.149,0.08c0.049,0.159,0.104,0.313,0.177,0.46
						c0.061-0.143,0.114-0.29,0.194-0.421c0.213,0.205,0.199,0.523,0.283,0.787c0.095,0.446,0.042,0.914-0.023,1.363
						c-0.024,0.305,0.018,0.612-0.042,0.915c-0.043,0.744-0.105,1.489-0.088,2.234c0.06,0.434,0.06,0.872,0.112,1.307
						c0.006,0.261,0.025,0.522,0.13,0.767c0.49,0.071,0.982-0.021,1.471-0.062c0.318-0.043,0.658-0.159,0.969-0.021
						c0.18,0.114,0.355,0.258,0.457,0.448c0.04,0.163,0.009,0.34,0.078,0.497c0.036,0.087-0.027,0.168-0.05,0.246
						c-0.047,0.12-0.047,0.251-0.089,0.372c-0.13,0.244-0.293,0.525-0.599,0.562c-0.332,0.008-0.663,0.019-0.988,0.088
						c-0.514-0.006-1.026,0.077-1.542,0.056c-0.185-0.007-0.366-0.056-0.55-0.064c-0.159,0.13-0.385,0.257-0.591,0.161
						c0.043-0.018,0.131-0.054,0.175-0.071c-0.1,0.004-0.198,0.004-0.297,0.004c0.175-0.311,0.023-0.664-0.018-0.987l-0.052,0.021
						c0.001-0.023,0.005-0.074,0.008-0.099c-0.074-0.052-0.152-0.097-0.232-0.137c-0.023,0.273-0.021,0.551-0.032,0.827
						c-0.166-0.265-0.078-0.579-0.108-0.871c-0.041-0.716-0.112-1.428-0.169-2.145c-0.016-0.792-0.151-1.584-0.053-2.378
						c0.048-0.301,0.025-0.605,0.067-0.907c0.098-0.547,0.076-1.105,0.054-1.658c-0.012-0.288,0.092-0.565,0.056-0.85
						c0.064-0.03,0.129-0.064,0.186-0.105c0.12,0.146,0.103,0.345,0.159,0.519c0.017-0.137,0.014-0.274,0.029-0.411l-0.064,0.047
						c0.002-0.114-0.021-0.236,0.04-0.34c0.06,0.08,0.115,0.166,0.167,0.252c0.027-0.092,0.042-0.183,0.048-0.276
						c0.056-0.027,0.111-0.057,0.166-0.084c0.03,0.112,0.057,0.23,0.091,0.343c0.141-0.083,0.126-0.289,0.194-0.425
						c0.048,0.179,0.064,0.365,0.08,0.548C39.106,75.688,39.1,75.489,39.125,75.295z M38.082,75.797
						c0.019,0.194,0.069,0.379,0.094,0.57c0.056-0.167,0.003-0.34-0.001-0.512C38.152,75.841,38.105,75.812,38.082,75.797z
						 M38.62,84.88c0.019-0.002,0.057-0.004,0.078-0.004c0.044-0.037,0.112-0.16,0.031-0.188
						C38.666,84.715,38.566,84.806,38.62,84.88z"/>
				</g>
			</g>
			<g>
				<path d="M64.715,73.571c0.727-0.065,1.467,0.299,1.875,0.901c0.433,0.486,0.574,1.142,0.729,1.756
					c-0.071,0.307-0.376,0.482-0.489,0.769c-0.129-0.002-0.259,0.004-0.388,0.002c-0.142,0.072-0.301,0.067-0.451,0.108
					c-0.06-0.06-0.121-0.12-0.183-0.177l0.014,0.141c-0.07-0.112-0.119-0.23-0.16-0.356c-0.03,0.028-0.086,0.083-0.114,0.112
					c-0.069-0.228-0.106-0.465-0.162-0.696c-0.051-0.267-0.233-0.491-0.459-0.639c-0.265-0.179-0.542-0.392-0.872-0.402
					c-0.254-0.03-0.46,0.167-0.643,0.319c-0.105,0.203-0.154,0.445-0.133,0.676c0.025,0.328-0.004,0.658,0.038,0.986
					c0.061,0.335,0.074,0.678,0.119,1.018c0.074,0.259,0.05,0.529,0.086,0.793c0.053,0.389,0.02,0.791,0.136,1.172
					c0.143,0.517,0.337,1.025,0.645,1.469c0.238,0.37,0.767,0.519,1.163,0.316c0.148-0.111,0.21-0.307,0.272-0.477
					c0.052-0.236,0.144-0.472,0.116-0.718c-0.03-0.255,0.021-0.513-0.032-0.766c-0.06-0.215,0.098-0.396,0.173-0.584
					c0.15-0.195,0.382-0.312,0.525-0.521c0.147-0.206,0.434-0.223,0.662-0.18c0.235-0.018,0.409,0.158,0.556,0.317
					c0.144,0.309,0.044,0.659,0.073,0.986c0.06,0.362-0.147,0.682-0.226,1.022c-0.124,0.131-0.193,0.298-0.251,0.465
					c0.051-0.032,0.101-0.063,0.151-0.099c-0.039,0.101-0.081,0.201-0.126,0.298c-0.029-0.049-0.062-0.097-0.093-0.148
					c-0.004,0.199-0.295,0.315-0.159,0.527c-0.127,0.125-0.134,0.315-0.246,0.449c-0.284,0.405-0.776,0.565-1.197,0.791
					c-0.319,0.139-0.663,0.232-1.01,0.248c-0.354,0.03-0.698-0.072-1.049-0.098c-0.156-0.002-0.249-0.144-0.349-0.239
					c-0.022,0.011-0.067,0.03-0.089,0.041c-0.479-0.339-0.792-0.859-1.028-1.386c-0.167-0.297-0.208-0.639-0.319-0.956
					c-0.153-0.716-0.195-1.458-0.087-2.181c0.031-0.416,0.097-0.829,0.196-1.23c0.053-0.543,0.097-1.09,0.288-1.604
					c0.108-0.208,0.188-0.428,0.275-0.645c0.133-0.139,0.176-0.345,0.335-0.46l-0.119-0.046c0.039-0.004,0.118-0.017,0.157-0.02
					c0.199-0.177,0.363-0.397,0.605-0.518c0.205-0.095,0.421-0.169,0.645-0.196c0.191-0.072,0.381-0.149,0.573-0.218
					c-0.007-0.036-0.022-0.104-0.03-0.141c0.068,0.058,0.137,0.114,0.209,0.168C64.829,73.685,64.753,73.608,64.715,73.571z"/>
				<g>
					<path d="M73.366,73.306c0.074,0.274,0.135,0.554,0.159,0.834c0.018,0.241,0.105,0.482,0.038,0.724
						c0.028-0.067,0.06-0.133,0.094-0.196c0.002,0.128,0,0.257,0.004,0.384c-0.054-0.011-0.106-0.019-0.157-0.028
						c-0.053-0.039-0.084-0.135-0.153-0.139c-0.095,0.103-0.03,0.277-0.146,0.379c-0.005-0.18-0.005-0.361-0.013-0.543
						c-0.033,0.162-0.092,0.334-0.024,0.495c-0.047,0.069-0.093,0.137-0.142,0.205c-0.022-0.186,0.009-0.373,0.009-0.561
						c-0.049,0.064-0.087,0.135-0.116,0.207c-0.013,0.006-0.038,0.011-0.051,0.014c0.01,0.045,0.025,0.135,0.036,0.179L72.9,75.253
						c-0.048-0.062-0.097-0.123-0.147-0.183c0.021-0.114,0.042-0.226,0.067-0.342l-0.072,0.033
						c-0.025-0.313-0.052-0.623-0.095-0.936c-0.036,0.19-0.064,0.383-0.087,0.575l-0.089-0.048c0.018,0.278,0.004,0.554-0.046,0.827
						c-0.243-0.125-0.061-0.399-0.062-0.6c-0.015-0.279-0.082-0.55-0.084-0.831c0.14-0.065,0.305-0.101,0.41-0.227
						C72.911,73.432,73.163,73.435,73.366,73.306z M73.085,74.394c-0.023-0.027-0.072-0.078-0.096-0.103
						c-0.008,0.014-0.018,0.043-0.021,0.058c-0.003,0.063-0.014,0.131-0.03,0.192l-0.022,0.032
						c-0.006,0.011-0.013,0.031-0.018,0.043c0.021,0.014,0.064,0.04,0.088,0.053c0.013,0.017,0.038,0.048,0.051,0.062
						c0.021-0.084-0.049-0.226,0.063-0.259c0.074,0.026,0.104,0.092,0.085,0.192c0.021-0.055,0.04-0.109,0.061-0.163
						c-0.015-0.018-0.044-0.05-0.059-0.067c0.055-0.028,0.106-0.057,0.158-0.088c-0.033,0.003-0.099,0.008-0.135,0.011
						c-0.009-0.058-0.029-0.174-0.04-0.232C73.128,74.201,73.168,74.372,73.085,74.394z M72.78,74.597
						c0.087-0.045,0.044-0.208,0.004-0.284C72.712,74.363,72.739,74.522,72.78,74.597z"/>
				</g>
				<g>
					<path d="M57.98,74.069c0.088-0.049,0.187-0.069,0.288-0.049c0.122,0.07,0.252,0.133,0.396,0.146
						c0.023,0.013,0.067,0.035,0.088,0.048c-0.021-0.084-0.049-0.165-0.072-0.249c0.187,0.091,0.305,0.287,0.506,0.35
						c0.158,0.247,0.345,0.476,0.455,0.747c0.216,0.363,0.487,0.696,0.64,1.09c0.182,0.614,0.33,1.241,0.543,1.846
						c0.087,0.428,0.198,0.849,0.309,1.268c0.095,0.291,0.206,0.583,0.253,0.89c0.054,0.354,0.165,0.697,0.261,1.042
						c0.14,0.434,0.22,0.879,0.285,1.327c0.022,0.203,0.146,0.404,0.076,0.609c-0.056,0.144-0.156,0.269-0.29,0.345
						c-0.083,0.02-0.165,0.037-0.249,0.045l-0.016,0.057c-0.067-0.015-0.134-0.03-0.197-0.058c-0.059,0.037-0.116,0.071-0.175,0.105
						c-0.011-0.04-0.034-0.126-0.047-0.17c-0.076,0.031-0.17,0.167-0.23,0.011c-0.006,0.033-0.014,0.102-0.017,0.137
						c-0.116-0.047-0.174-0.005-0.16,0.123c-0.092-0.087-0.181-0.173-0.257-0.271c-0.006,0.042-0.016,0.13-0.021,0.174
						c-0.055-0.089-0.169-0.366-0.232-0.104c-0.125-0.263-0.193-0.55-0.24-0.835c-0.133-0.651-0.325-1.292-0.474-1.938
						c-0.279,0.104-0.548,0.247-0.845,0.292c-0.347,0.087-0.706,0.034-1.055,0.107c-0.133,0.026-0.265,0.026-0.399,0.032
						c-0.075,0.389-0.069,0.799-0.219,1.172c-0.063,0.22-0.054,0.452-0.125,0.671c-0.061,0.209-0.05,0.428-0.095,0.638
						c-0.104,0.203-0.312,0.321-0.531,0.361c-0.107-0.076-0.233-0.042-0.354-0.068c-0.116-0.076-0.22-0.171-0.328-0.257
						c-0.009,0.039-0.025,0.12-0.035,0.161c-0.07-0.057-0.143-0.105-0.208-0.169c-0.104-0.11-0.267-0.116-0.395-0.186
						c-0.021,0.034-0.065,0.102-0.089,0.136c-0.01-0.176-0.007-0.354,0.019-0.53c0.03,0.047,0.058,0.094,0.087,0.143l-0.017-0.065
						c0.028,0.006,0.088,0.017,0.115,0.02c0.063-0.211-0.034-0.466,0.146-0.638c0,0.058,0.004,0.175,0.005,0.232
						c0.058-0.144,0.065-0.306,0.029-0.457l0.095,0.104l0.006-0.112l0.061,0.006l0.016,0.106c0.03-0.093,0.061-0.183,0.09-0.273
						c-0.044,0.03-0.131,0.097-0.174,0.128c-0.006-0.115,0.091-0.248,0-0.351c0.018-0.122,0.036-0.243,0.076-0.363
						c-0.011-0.06-0.021-0.121-0.035-0.18c-0.021,0.112-0.001,0.262-0.155,0.279c0.005-0.129,0.01-0.254,0.019-0.383
						c0.018,0.037,0.052,0.112,0.068,0.148c0.051-0.145,0.17-0.242,0.263-0.354c-0.026-0.059-0.056-0.114-0.091-0.173
						c0.062-0.229,0.112-0.469,0.249-0.673c0.091-0.282,0.243-0.542,0.316-0.831c-0.049,0.043-0.143,0.134-0.19,0.179
						c0.027-0.119,0.057-0.237,0.088-0.354c-0.021,0.005-0.061,0.015-0.08,0.02c0.038-0.112,0.069-0.236,0.176-0.305
						c0.096-0.074,0.095-0.247,0.247-0.24c-0.024-0.031-0.049-0.064-0.073-0.096c0.044-0.056,0.087-0.111,0.131-0.168
						c-0.034,0.004-0.104,0.011-0.139,0.014c0.059-0.144,0.13-0.287,0.24-0.398c-0.01-0.079-0.021-0.157-0.025-0.239
						c0.068-0.068,0.15-0.125,0.22-0.191c-0.098,0.109,0.031,0.172,0.115,0.237c-0.006-0.055-0.02-0.162-0.023-0.214
						c0.036,0.074,0.044,0.157,0.058,0.239c-0.078,0.203-0.124,0.415-0.199,0.617c-0.035-0.006-0.104-0.016-0.141-0.02
						c0.065-0.099,0.132-0.233-0.008-0.303c-0.03,0.02-0.092,0.057-0.122,0.076c0.034,0.013,0.103,0.038,0.139,0.053
						c-0.062,0.118-0.085,0.249-0.021,0.374c0.025-0.03,0.079-0.087,0.105-0.115c0.007,0.046,0.019,0.139,0.025,0.186
						c0.082-0.102,0.15-0.213,0.221-0.321c-0.191-0.183,0.173-0.284,0.09-0.482c0.039-0.073,0.081-0.146,0.129-0.214
						c-0.019,0.1-0.041,0.194-0.057,0.294c0.127-0.161,0.157-0.367,0.252-0.547c-0.08,0.102-0.158,0.202-0.236,0.303
						c0.047-0.132,0.122-0.258,0.129-0.401c0.029-0.303,0.154-0.58,0.238-0.866c-0.09,0.112-0.136,0.25-0.196,0.377
						c-0.065,0.154-0.188,0.277-0.252,0.436c-0.002-0.017-0.009-0.047-0.011-0.063c0.104-0.119,0.081-0.286,0.119-0.429l-0.14,0.135
						c0.017-0.042,0.045-0.121,0.061-0.166c-0.069,0.003-0.136,0.005-0.202,0.01c0.048-0.127,0.086-0.253,0.122-0.384
						c-0.04-0.049-0.078-0.1-0.112-0.152c0.014-0.146,0.08-0.285,0.112-0.428c0.02,0.034,0.058,0.104,0.078,0.137
						c-0.015-0.044-0.04-0.132-0.056-0.175c0.032-0.006,0.098-0.019,0.128-0.021c-0.03-0.003-0.093-0.006-0.123-0.006
						c0.087-0.213,0.172-0.433,0.205-0.663c0.052-0.312,0.201-0.593,0.365-0.858c0.069-0.038,0.142-0.075,0.213-0.114
						c0.105-0.037,0.263,0.034,0.32-0.095C57.868,74.082,57.942,74.072,57.98,74.069z M58.321,76.706
						c-0.104,0.284-0.212,0.563-0.356,0.829c-0.204,0.327-0.165,0.732-0.302,1.083c-0.114,0.299-0.173,0.616-0.245,0.932
						c0.538-0.104,0.997-0.409,1.515-0.566c-0.09-0.395-0.267-0.77-0.276-1.176C58.471,77.463,58.567,77.02,58.321,76.706z
						 M56.479,77.958c0.026,0.002,0.083,0.009,0.11,0.011C56.641,77.825,56.392,77.793,56.479,77.958z M58.701,79.093
						c-0.145,0.122-0.347,0.142-0.483,0.271c0.063-0.006,0.192-0.019,0.256-0.022l-0.004,0.015
						c-0.092,0.046-0.182,0.093-0.273,0.133c0.056,0.037,0.111,0.074,0.164,0.113l-0.103,0.066c0.191-0.063,0.371-0.156,0.558-0.232
						c0.029,0.03,0.059,0.065,0.086,0.095h-0.095l0.034,0.076c-0.047,0.052-0.092,0.101-0.139,0.151
						c0.128-0.056,0.252-0.119,0.377-0.178c-0.015-0.056-0.026-0.112-0.039-0.168l-0.108,0.027c0.029-0.046,0.061-0.091,0.091-0.134
						c-0.029-0.099-0.057-0.199-0.085-0.298C58.857,79.037,58.779,79.065,58.701,79.093z"/>
				</g>
				<g>
					<path d="M69.133,73.547c0.121-0.013,0.241-0.03,0.357-0.072c0.332,0.396,0.402,0.932,0.445,1.429
						c0.025,0.458,0.042,0.918,0.051,1.379c0.024,0.508,0.097,1.018,0.142,1.523c0.385-0.05,0.736-0.237,1.126-0.256
						c0.212-0.02,0.421,0.022,0.633,0.044c0.032-0.414,0.043-0.838,0.203-1.227c0.027,0.018,0.085,0.056,0.114,0.073
						c0.027-0.087,0.053-0.174,0.076-0.263c-0.043-0.12-0.041-0.251-0.038-0.377c-0.021-0.004-0.069-0.018-0.091-0.021
						c0.194,0.035,0.134-0.163,0.136-0.283c0.021,0.055,0.044,0.108,0.063,0.164c0.017-0.078,0.036-0.152,0.06-0.227
						c0.014,0.118,0.016,0.237,0.02,0.356c0.03,0.021,0.088,0.064,0.117,0.085c-0.067,0.087-0.131,0.176-0.115,0.293
						c-0.049,0.022-0.099,0.045-0.149,0.068c0.005,0.068,0.011,0.136,0.017,0.205c0.099,0.001,0.165,0.068,0.228,0.135
						c0.02-0.074,0.038-0.152,0.058-0.226l0.059,0.061c0.033-0.004,0.096-0.018,0.129-0.022c-0.005-0.046-0.015-0.136-0.019-0.18
						c0.023,0.027,0.071,0.087,0.096,0.114c0.037-0.086,0.073-0.173,0.107-0.258c-0.029-0.008-0.089-0.021-0.119-0.029
						c0.002,0.029,0.004,0.093,0.006,0.123l-0.079-0.021l0.04-0.128c-0.049,0.026-0.096,0.054-0.143,0.081
						c-0.021-0.069-0.036-0.138-0.048-0.209l0.077,0.17c0.06-0.13,0.066-0.271,0.077-0.409c0.121-0.005,0.218-0.077,0.307-0.152
						c0.027,0.022,0.086,0.06,0.115,0.08c-0.02,0.029-0.052,0.089-0.069,0.12c0.02,0,0.056,0.003,0.073,0.006
						c0-0.101,0-0.202,0.001-0.298c0.021,0.018,0.06,0.06,0.083,0.083c0.018-0.023,0.058-0.067,0.077-0.091
						c0.007,0.039,0.019,0.117,0.028,0.156c0.072-0.089,0.106-0.2,0.155-0.299c0.025-0.025,0.08-0.074,0.105-0.099
						c0.021,0.414-0.009,0.829,0.057,1.238c0.054,0.419,0.026,0.844,0.064,1.264c0.038,0.859,0.146,1.718,0.087,2.579
						c-0.034,0.514,0.043,1.023,0.071,1.536c0.002,0.323,0.05,0.651-0.072,0.961c-0.086,0.006-0.173,0.009-0.254-0.019
						c-0.19-0.054-0.328,0.086-0.457,0.2c-0.031-0.044-0.062-0.087-0.092-0.129c-0.089,0.006-0.177-0.001-0.26-0.023
						c-0.012,0.019-0.031,0.056-0.04,0.078c-0.128-0.049-0.208,0.068-0.305,0.123c-0.01-0.021-0.026-0.062-0.036-0.082
						c-0.174,0.033-0.161-0.199-0.239-0.303l-0.049,0.031c-0.013-0.122-0.039-0.242-0.069-0.357l-0.076,0.021
						c0.007-0.033,0.022-0.101,0.03-0.132l-0.074,0.034c0-0.086,0-0.173-0.002-0.259h0.084c0,0.038,0,0.117,0,0.159
						c0.019-0.007,0.053-0.021,0.07-0.027c-0.039-0.13-0.07-0.259-0.084-0.393c-0.006,0.005-0.021,0.011-0.026,0.018
						c-0.015-0.043-0.04-0.124-0.052-0.164c0.032,0,0.098-0.003,0.13-0.003c-0.036-0.008-0.108-0.023-0.146-0.03
						c0.038-0.033,0.072-0.067,0.11-0.1c-0.053-0.11-0.074-0.229-0.06-0.351c-0.12-0.773-0.137-1.564-0.177-2.347
						c-0.066,0.047-0.123,0.108-0.191,0.148c-0.274,0.032-0.556,0.018-0.821,0.1c-0.184,0.052-0.355,0.137-0.527,0.215
						c-0.084,0.546-0.031,1.098,0.027,1.642c0.016,0.619,0.016,1.243,0.027,1.863c-0.082,0.016-0.151,0.057-0.221,0.103
						c-0.056-0.061-0.112-0.122-0.165-0.183c-0.01,0.08-0.02,0.16-0.029,0.239c-0.042-0.099-0.085-0.201-0.126-0.301
						c-0.024,0.015-0.07,0.049-0.094,0.067c-0.002,0.126-0.014,0.251-0.029,0.377c-0.062-0.02-0.125-0.038-0.187-0.057
						c-0.055,0.062-0.109,0.118-0.163,0.178c-0.035-0.15-0.06-0.305-0.069-0.458c-0.018,0.1-0.031,0.201-0.049,0.303
						c-0.049,0.011-0.146,0.031-0.194,0.043c-0.014-0.106-0.023-0.212-0.041-0.317c0,0.133,0.007,0.264,0.015,0.396
						c-0.08,0-0.158-0.002-0.238,0c-0.085-0.161-0.159-0.327-0.241-0.489c-0.003,0.1-0.003,0.197,0,0.295l-0.036-0.005
						c0.019-0.37-0.078-0.728-0.117-1.095c-0.025-0.66-0.022-1.322-0.118-1.976c0.005-0.458-0.082-0.913-0.051-1.373
						c-0.012-0.425-0.025-0.853,0.047-1.272c-0.068-0.525,0.018-1.06-0.076-1.579c0.002-0.478-0.185-0.953-0.018-1.421
						c0.126-0.052,0.136-0.192,0.189-0.298c0.155-0.146,0.391-0.124,0.562-0.242C68.939,73.573,69.039,73.57,69.133,73.547z
						 M73.148,76.716c0.004-0.057,0.01-0.174,0.013-0.233c0.015,0.043,0.044,0.131,0.058,0.174c0.004-0.083,0.002-0.169,0.016-0.252
						l0.014-0.041c0.019-0.072,0.031-0.147,0.042-0.224c0.025,0.031,0.079,0.095,0.104,0.123l-0.034-0.128l0.118,0.007l-0.029,0.107
						l0.056-0.019c-0.009-0.038-0.026-0.114-0.036-0.151l-0.058,0.05c-0.007-0.021-0.021-0.07-0.028-0.093
						c-0.04,0.009-0.118,0.029-0.158,0.038c0,0.074-0.004,0.144-0.015,0.216c-0.032-0.115-0.043-0.232-0.059-0.35
						C72.987,76.17,73.06,76.475,73.148,76.716z M69.903,82.38c0.05,0.068,0.034,0.24,0.146,0.225
						c0.039-0.072,0.047-0.154,0.021-0.235C70.014,82.369,69.959,82.374,69.903,82.38z"/>
				</g>
				<g>
					<path d="M77.343,73.205c0.088-0.052,0.188-0.067,0.287-0.052c0.124,0.072,0.255,0.135,0.397,0.148
						c0.023,0.014,0.068,0.035,0.092,0.047c-0.025-0.081-0.051-0.165-0.074-0.248c0.187,0.089,0.304,0.285,0.508,0.349
						c0.116,0.184,0.244,0.358,0.355,0.544c0.129,0.317,0.362,0.573,0.522,0.874c0.233,0.317,0.289,0.717,0.403,1.084
						c0.112,0.398,0.215,0.797,0.356,1.185c0.084,0.426,0.197,0.844,0.306,1.261c0.096,0.294,0.206,0.585,0.253,0.891
						c0.092,0.58,0.321,1.128,0.433,1.703c0.076,0.331,0.091,0.673,0.195,0.998c0.096,0.328-0.188,0.646-0.508,0.681
						c-0.066,0.017-0.136,0.029-0.202,0.044v-0.076c-0.072,0.04-0.144,0.078-0.216,0.111c-0.017-0.039-0.048-0.121-0.062-0.161
						c-0.045,0.037-0.09,0.072-0.136,0.107l-0.06-0.11c-0.013,0.039-0.033,0.114-0.045,0.151c-0.116-0.038-0.169,0.006-0.156,0.125
						c-0.091-0.086-0.18-0.173-0.257-0.271c-0.004,0.043-0.016,0.131-0.019,0.174c-0.064-0.064-0.069-0.212-0.177-0.212
						c-0.016,0.028-0.045,0.083-0.06,0.112c-0.193-0.408-0.221-0.863-0.341-1.291c-0.114-0.498-0.257-0.989-0.368-1.486
						c-0.428,0.185-0.871,0.355-1.347,0.352c-0.32-0.013-0.633,0.086-0.953,0.082c-0.074,0.392-0.071,0.798-0.218,1.172
						c-0.065,0.219-0.055,0.452-0.124,0.672c-0.062,0.206-0.05,0.424-0.096,0.635c-0.102,0.203-0.312,0.315-0.525,0.36
						c-0.095-0.041-0.194-0.093-0.298-0.039c-0.145-0.074-0.264-0.185-0.391-0.285c-0.008,0.041-0.024,0.121-0.033,0.161
						c-0.138-0.089-0.241-0.229-0.397-0.286c-0.067-0.014-0.132-0.038-0.199-0.055c-0.024,0.025-0.077,0.079-0.102,0.106
						c0.002-0.175,0.002-0.346,0.024-0.519c0.03,0.048,0.06,0.097,0.09,0.145l-0.018-0.062c0.028,0.004,0.085,0.011,0.114,0.017
						c0.021-0.152,0.054-0.308,0.027-0.463c0.029-0.041,0.09-0.127,0.118-0.168c0.001,0.057,0.003,0.17,0.005,0.229
						c0.061-0.148,0.063-0.316,0.029-0.468l0.092,0.111l0.015-0.136c0.021,0.028,0.067,0.086,0.09,0.113
						c0.021-0.085,0.043-0.166,0.064-0.249c-0.044,0.034-0.129,0.104-0.171,0.137c-0.001-0.119,0.089-0.255,0.002-0.363
						c0.017-0.122,0.036-0.244,0.074-0.362c-0.01-0.059-0.02-0.119-0.03-0.181c-0.023,0.114-0.006,0.261-0.158,0.279
						c0.004-0.127,0.01-0.254,0.02-0.379c0.019,0.04,0.059,0.114,0.079,0.154c0.014-0.042,0.039-0.122,0.052-0.163
						c0.04-0.029,0.08-0.062,0.118-0.094c0.116-0.086,0.042-0.2-0.004-0.305c0.063-0.22,0.112-0.45,0.243-0.646
						c0.092-0.284,0.243-0.544,0.319-0.832c-0.049,0.043-0.146,0.132-0.193,0.176c0.028-0.116,0.058-0.234,0.089-0.351
						c-0.021,0.004-0.061,0.016-0.081,0.021c0.041-0.098,0.055-0.219,0.148-0.284c0.116-0.068,0.114-0.265,0.276-0.263
						c-0.023-0.033-0.049-0.065-0.072-0.099c0.043-0.054,0.087-0.11,0.13-0.163c-0.036,0.002-0.104,0.007-0.139,0.01
						c0.06-0.146,0.13-0.286,0.239-0.399c-0.011-0.076-0.022-0.152-0.026-0.234c0.069-0.071,0.154-0.133,0.227-0.202
						c-0.117,0.108,0.024,0.174,0.107,0.244c-0.006-0.056-0.016-0.161-0.02-0.213c0.128,0.286-0.082,0.576-0.143,0.855
						c-0.034-0.006-0.105-0.014-0.139-0.021c0.032-0.075,0.065-0.151,0.096-0.227c-0.074-0.05-0.155-0.094-0.232-0.003
						c0.037,0.014,0.107,0.04,0.144,0.054c-0.063,0.122-0.089,0.252-0.016,0.372c0.025-0.027,0.075-0.086,0.1-0.115
						c0.006,0.05,0.02,0.144,0.025,0.19c0.081-0.101,0.15-0.213,0.22-0.322c-0.188-0.179,0.168-0.28,0.09-0.479
						c0.042-0.051,0.038-0.148,0.112-0.169c-0.004,0.081-0.027,0.16-0.034,0.243c0.118-0.164,0.154-0.363,0.245-0.538
						c-0.064,0.071-0.111,0.165-0.188,0.224c-0.012-0.084,0.049-0.154,0.074-0.229c0.011-0.338,0.154-0.647,0.247-0.967
						c-0.081,0.099-0.124,0.221-0.177,0.334c-0.074,0.179-0.199,0.328-0.296,0.494c0.071-0.164,0.115-0.331,0.135-0.509
						l-0.137,0.136c0.014-0.042,0.041-0.124,0.055-0.167c-0.066,0.005-0.133,0.012-0.203,0.016c0.049-0.127,0.087-0.257,0.123-0.386
						c-0.037-0.06-0.093-0.108-0.113-0.176c0.033-0.138,0.081-0.27,0.115-0.405c0.021,0.034,0.061,0.103,0.08,0.138
						c-0.014-0.044-0.042-0.132-0.057-0.175c0.031-0.006,0.097-0.02,0.131-0.024c-0.032-0.002-0.094-0.002-0.126-0.002
						c0.183-0.36,0.186-0.774,0.353-1.136c0.051-0.139,0.159-0.25,0.214-0.389c0.073-0.036,0.146-0.074,0.215-0.112
						c0.107-0.037,0.266,0.035,0.324-0.095C77.234,73.214,77.308,73.206,77.343,73.205z M77.329,76.67
						c-0.203,0.325-0.165,0.729-0.303,1.078c-0.114,0.301-0.173,0.62-0.245,0.936c0.537-0.105,0.999-0.406,1.515-0.569
						c-0.09-0.392-0.266-0.764-0.276-1.173c-0.179-0.346-0.102-0.774-0.322-1.103C77.572,76.112,77.479,76.403,77.329,76.67z
						 M75.843,77.089c0.026,0.007,0.083,0.012,0.111,0.017c0.012-0.076-0.02-0.123-0.091-0.135
						C75.857,76.999,75.848,77.058,75.843,77.089z M78.063,78.229c-0.147,0.118-0.348,0.141-0.484,0.269
						c0.07-0.007,0.212-0.021,0.281-0.027c-0.097,0.054-0.19,0.107-0.293,0.144c0.059,0.044,0.117,0.089,0.139,0.163
						c0.192-0.091,0.388-0.18,0.592-0.244c-0.029,0.049-0.088,0.136-0.118,0.179l0.032,0.021c-0.049,0.051-0.098,0.105-0.145,0.159
						c0.126-0.056,0.25-0.118,0.373-0.177c-0.009-0.048-0.02-0.095-0.027-0.145c-0.04-0.025-0.08-0.056-0.119-0.083l0.099-0.011
						c-0.03-0.112-0.062-0.226-0.096-0.337C78.219,78.168,78.141,78.199,78.063,78.229z"/>
				</g>
				<path d="M51.147,74.658c0.308-0.12,0.637-0.152,0.954-0.237c0.142-0.027,0.159,0.167,0.225,0.252
					c0.006-0.083,0.006-0.169,0.013-0.252c0.081-0.009,0.162-0.011,0.245-0.009c0.035,0.086,0.074,0.168,0.102,0.255
					c0.029-0.022,0.06-0.043,0.09-0.062c0.127-0.01,0.257-0.021,0.363,0.066c-0.112,0.035-0.227,0.062-0.337,0.105
					c0.122,0.004,0.241-0.007,0.359-0.017c0.062,0.038,0.132,0.061,0.203,0.067c-0.001,0.017-0.007,0.049-0.01,0.065
					c0.32-0.021,0.643-0.039,0.958-0.095c0.11-0.011,0.165-0.123,0.245-0.184c0.184-0.078,0.383-0.109,0.58-0.142
					c-0.071,0.037-0.142,0.074-0.214,0.113c0.117,0.033,0.237,0.062,0.356,0.098c0.024,0.062,0.047,0.121,0.071,0.182
					c0.032-0.02,0.096-0.062,0.13-0.083c0.029,0.034,0.088,0.104,0.117,0.138c-0.062-0.015-0.126-0.038-0.19-0.053
					c0.146,0.305,0.188,0.642,0.187,0.977c-0.033,0.082-0.084,0.175-0.175,0.204c-0.288,0.098-0.594,0.132-0.875,0.244
					c-0.183,0.011-0.361-0.048-0.543-0.046c-0.353,0.006-0.709,0.036-1.063,0.041c0.052,0.134,0.045,0.276,0.036,0.417
					c0.012,0.421-0.022,0.843,0.028,1.261c0.457-0.104,0.934-0.055,1.398-0.091c0.285-0.001,0.565-0.058,0.852-0.044
					c-0.005,0.02-0.016,0.058-0.021,0.073c-0.041,0.029-0.128,0.093-0.171,0.124c0.081,0.06,0.173,0.09,0.273,0.094
					c0.026,0.082-0.003,0.166-0.019,0.247c0.024,0.195,0.065,0.389,0.117,0.579c-0.041,0.05-0.083,0.101-0.128,0.149
					c-0.019,0.104-0.05,0.208-0.083,0.31c-0.035,0.004-0.105,0.014-0.141,0.021c0.017,0.024,0.05,0.079,0.065,0.105
					c-0.119-0.005-0.237-0.016-0.355-0.032c-0.174,0.062-0.358,0.095-0.537,0.136c-0.443,0.086-0.942-0.107-1.347,0.146
					c-0.005,0.351,0.019,0.702,0.041,1.05c0.065,0.341,0.086,0.689,0.068,1.039c0.039,0.652-0.007,1.308-0.091,1.955
					c-0.025,0.183,0.001,0.369-0.041,0.548c-0.027-0.044-0.081-0.132-0.106-0.175c-0.017,0.077-0.032,0.152-0.055,0.227
					c-0.03-0.02-0.094-0.062-0.125-0.084l0.004,0.089c-0.091-0.079-0.205-0.076-0.317-0.073c0.031-0.039,0.063-0.08,0.098-0.12
					l0.1,0.072c-0.007-0.03-0.02-0.087-0.023-0.116c0.077-0.03,0.152-0.066,0.225-0.103c-0.015-0.028-0.045-0.081-0.061-0.107
					c-0.028,0.049-0.055,0.102-0.082,0.152c0.001-0.14-0.128-0.107-0.211-0.131c-0.133-0.058-0.27-0.007-0.395,0.045
					c0.03,0.105,0.06,0.211,0.09,0.314c-0.021-0.007-0.067-0.022-0.091-0.032c-0.001-0.082-0.001-0.167-0.001-0.251
					c-0.12-0.058-0.223-0.137-0.208-0.284c-0.025,0.059-0.053,0.114-0.08,0.173c-0.08-0.052-0.214-0.083-0.214-0.198
					c0.002-0.218-0.038-0.432-0.088-0.639c-0.155,0.157-0.059,0.4-0.114,0.601c-0.017-0.096-0.032-0.188-0.052-0.279
					c-0.008-0.059-0.026-0.168-0.035-0.224c-0.061,0.203-0.003,0.414-0.018,0.62c-0.069-0.402-0.061-0.819-0.071-1.228
					c0.047-0.62-0.01-1.239,0.035-1.862c0.021,0.011,0.062,0.033,0.084,0.045c-0.03,0.138-0.053,0.276,0.091,0.355
					c0.111-0.079,0.238-0.177,0.386-0.137c0.019-0.392-0.009-0.781-0.026-1.173c-0.057,0.091-0.102,0.184-0.148,0.281
					c-0.026-0.19-0.043-0.383-0.051-0.573c-0.075,0.017-0.135-0.004-0.18-0.062c-0.02,0.007-0.058,0.02-0.077,0.022
					c-0.008-0.053-0.021-0.151-0.029-0.201l-0.065,0.057c-0.016-0.362-0.036-0.742,0.075-1.094
					c-0.038-0.257,0.007-0.522-0.069-0.773c-0.115-0.448-0.17-0.916-0.096-1.375c0.083-0.445,0.007-0.904,0.111-1.347
					C51.107,74.755,51.134,74.691,51.147,74.658z"/>
				<path d="M58.44,79.44l0.028-0.027l0.046,0.021l-0.002,0.049l-0.046,0.025C58.461,79.491,58.446,79.459,58.44,79.44z"/>
				<path d="M77.802,78.576l0.031-0.029l0.045,0.021v0.052l-0.047,0.021C77.822,78.625,77.81,78.591,77.802,78.576z"/>
				<path d="M54.861,82.689c0.099,0.104,0.066,0.273-0.001,0.383c-0.044,0.087-0.185-0.062-0.066-0.116
					C54.813,82.866,54.838,82.778,54.861,82.689z"/>
				<path d="M74.226,81.822c0.098,0.105,0.064,0.272,0,0.384c-0.044,0.087-0.186-0.065-0.068-0.117
					C74.178,82.002,74.201,81.91,74.226,81.822z"/>
			</g>
		</g>
	</g>
</g>
<g>
	<path d="M23.818,86.762l0.54,0.032l0.272,0.067l0.215,0.141l0.166,0.181l0.079,0.155l0.057,0.275L25.13,87.86l-0.043,0.181
		l-0.072,0.16l-0.265,0.316l-0.042,0.07l-0.005,0.104l0.107,0.25l0.378,0.571l0.106,0.244l0.01,0.082l-0.058,0.093l-0.096,0.026
		l-0.152-0.076l-0.062-0.06l-0.102-0.131l-0.174-0.294l-0.063-0.06l-0.365-0.578l-0.062-0.051l-0.084-0.032l-0.186-0.04
		l-0.106-0.004l-0.2,0.038l-0.161,0.072l-0.033,0.198l-0.002,0.11l0.017,0.098l0.023,0.66l-0.035,0.083l-0.051,0.059l-0.089,0.042
		l-0.083-0.026l-0.068-0.052l-0.059-0.179l-0.051-0.4l0.011-0.126l0.027-0.093l0.003-0.107L23,88.812l0.014-0.21l-0.028-0.335
		l0.026-0.399l-0.021-0.112l-0.019-0.329l0.018-0.325l0.063-0.165l0.057-0.069l0.066-0.047l0.201-0.04l0.344-0.004
		C23.75,86.777,23.784,86.772,23.818,86.762z M23.688,87.111l-0.134,0.042l-0.093,0.069l-0.064,0.099l-0.03,0.457l0.026,0.294
		l0.058,0.116l0.094,0.072l0.313-0.011l0.151,0.018l0.291-0.011l0.133-0.042l0.206-0.129l0.07-0.098l0.087-0.297l-0.037-0.237
		l-0.065-0.103l-0.17-0.159l-0.113-0.05l-0.346-0.046l-0.076,0.017L23.688,87.111z"/>
	<path d="M26.393,86.671l0.381-0.008l0.173,0.023l0.269-0.04l0.51,0.021l0.101,0.026l0.09,0.05l0.048,0.08l-0.011,0.104
		l-0.074,0.063l-0.207,0.044l-0.63,0.015l-0.111,0.028l-0.032-0.007l-0.312,0.025l-0.08,0.048l-0.058,0.085l-0.025,0.098
		l-0.016,0.231l0.019,0.091l-0.014,0.021l0.024,0.217l0.04,0.096l0.068,0.06L26.84,88.1l0.292-0.012l0.12,0.012l0.112-0.02
		l0.12,0.014l0.093,0.04l0.062,0.063c0.019,0.029,0.031,0.067,0.035,0.105l-0.059,0.085l-0.088,0.04l-0.111-0.005l-0.119,0.021
		l-0.629,0.044l-0.096,0.034l-0.042,0.094l-0.046,0.336l0.004,0.361l0.044,0.208l0.068,0.057l0.207,0.046l0.147-0.026l0.077,0.011
		l0.254,0.008l0.209-0.023l0.375,0.023l0.099,0.058l0.033,0.105l-0.041,0.092l-0.094,0.038l-0.949,0.095l-0.264-0.021l-0.158,0.015
		l-0.187-0.029l-0.092-0.052l-0.064-0.066l-0.04-0.094l-0.033-0.721l-0.02-0.109l0.038-0.212l-0.025-0.096l0.025-0.339l-0.042-0.359
		l0.043-0.212l-0.01-0.126l0.023-0.145l-0.042-0.53l0.05-0.105l0.074-0.062l0.103-0.024L26.393,86.671z"/>
	<path d="M29.852,86.549l0.188,0.022l0.075,0.034l0.056,0.043l0.102,0.115l0.146,0.289l0.047,0.283l0.032,0.072l0.043,0.173
		l0.073,0.14l0.002,0.081l0.061,0.245l0.066,0.149l0.254,0.831l0.027,0.171l0.059,0.163l0.03,0.172l-0.005,0.074l0.017,0.065
		l-0.056,0.1l-0.067,0.047l-0.058,0.011l-0.092-0.051l-0.063-0.051l-0.08-0.128l-0.069-0.262l-0.212-0.542l-0.118-0.093
		l-0.472-0.024l-0.202,0.013l-0.072,0.033l-0.06,0.047l-0.043,0.061l-0.039,0.173l-0.042,0.062l-0.062,0.356l-0.034,0.065
		l-0.013,0.092l-0.084,0.122l-0.02,0.091l-0.049,0.056l-0.09,0.011l-0.07-0.034l-0.052-0.051l-0.034-0.073l-0.017-0.097l0.113-0.409
		l0.001-0.083l0.039-0.166l0.017-0.197l0.265-0.981l0.012-0.09l0.053-0.159l0.09-0.427l0.056-0.157l0.139-0.283l0.059-0.047
		L29.852,86.549z M29.9,87.093l-0.048,0.067l-0.234,1.028l0.022,0.052l0.091,0.021l0.435-0.017l0.081-0.03l0.013-0.101l-0.011-0.102
		l-0.033-0.089l-0.02-0.098l-0.127-0.444l-0.074-0.162l-0.018-0.097C29.954,87.107,29.929,87.101,29.9,87.093z"/>
	<path d="M32.052,86.51l0.129,0.039l0.077,0.102l0.05,0.125l0.013,0.158l-0.024,0.15l0.025,0.938l0.043,0.216l-0.04,0.583
		l0.067,0.388c0.012,0.04,0.035,0.073,0.065,0.104l0.129,0.04l0.861-0.001l0.227,0.021c0.034,0.005,0.075,0.022,0.121,0.057
		l0.042,0.126l-0.079,0.1l-0.126,0.043l-0.15,0.026l-0.604,0.057l-0.149-0.007l-0.074,0.007l-0.25-0.004l-0.27-0.064l-0.088-0.087
		l-0.062-0.111l-0.043-0.777l0.019-0.149l-0.05-0.72l0.014-0.096l-0.021-0.122l0.019-0.176l-0.048-0.449l-0.004-0.354l0.071-0.1
		L32.052,86.51z"/>
	<path d="M38.04,86.26l0.381-0.009l0.173,0.026l0.268-0.042l0.51,0.021l0.1,0.025l0.091,0.051l0.048,0.08L39.6,86.517l-0.073,0.062
		l-0.208,0.044l-0.63,0.017l-0.11,0.027l-0.032-0.007l-0.312,0.026l-0.081,0.05l-0.058,0.083l-0.025,0.096l-0.016,0.234l0.019,0.091
		l-0.015,0.02l0.024,0.218l0.04,0.096l0.069,0.06l0.295,0.055l0.291-0.011l0.12,0.012l0.113-0.019l0.119,0.011l0.092,0.042
		l0.061,0.062c0.019,0.028,0.031,0.067,0.035,0.105l-0.058,0.085l-0.088,0.04l-0.111-0.004l-0.119,0.02l-0.629,0.044l-0.096,0.036
		l-0.042,0.091l-0.047,0.339l0.005,0.361l0.044,0.207l0.066,0.057l0.207,0.046l0.148-0.026l0.076,0.011l0.254,0.008l0.208-0.024
		l0.375,0.025l0.099,0.057l0.033,0.104l-0.042,0.093l-0.094,0.04l-0.948,0.092l-0.264-0.02l-0.158,0.015l-0.188-0.031l-0.091-0.05
		l-0.063-0.066l-0.04-0.094l-0.033-0.72l-0.02-0.111l0.038-0.211l-0.024-0.097l0.026-0.337l-0.042-0.359l0.043-0.212l-0.01-0.127
		l0.024-0.144l-0.042-0.53l0.049-0.105l0.075-0.062l0.102-0.026L38.04,86.26z"/>
	<path d="M44.395,86.093l0.104,0.021l0.119,0.131l0.045,0.209l0.009,1.304l0.018,0.11l0.035,0.09l-0.02,0.097l0.02,0.112
		l-0.023,0.16l0.006,0.02l-0.009,0.151l0.028,0.184l0.002,0.427l-0.041,0.116l-0.059,0.06l-0.112-0.009l-0.078-0.042l-0.048-0.081
		l-0.025-0.097l-0.039-0.434l-0.011-0.533l0.024-0.209L44.255,87l0.004-0.263l-0.011-0.325l0.024-0.193l0.042-0.087L44.395,86.093z"
		/>
	<path d="M46.535,85.973l0.109,0.05l0.457,0.62l0.049,0.112l0.117,0.181l0.05,0.104l0.603,0.946l0.077,0.071l0.081-0.056
		l-0.01-0.274l0.021-0.117l0.002-0.289l-0.031-0.283l0.024-0.123l-0.03-0.254l0.016-0.157l-0.009-0.263l0.019-0.163l0.063-0.086
		l0.043-0.025l0.084,0.006c0.035,0.013,0.062,0.038,0.083,0.072l0.042,0.112l0.059,0.392l0.002,0.303l-0.025,0.129l0,0.402
		l0.028,0.127l-0.011,0.459l0.018,0.134l0.032,0.681l-0.056,0.271l-0.105,0.051l-0.105-0.051l-0.093-0.065l-0.079-0.069
		l-0.048-0.103l-0.309-0.464l-0.041-0.118l-0.133-0.174l-0.049-0.102l-0.33-0.44l-0.049-0.108l-0.11-0.192l-0.092-0.063
		c-0.024-0.022-0.058-0.035-0.1-0.033l-0.024,0.121l-0.006,0.263l0.01,0.019l-0.018,0.129l0.006,0.151l-0.02,0.135l0.007,0.418
		l-0.008,0.137l0.034,0.125l0.003,0.12l-0.019,0.165l-0.033,0.123L46.67,89.12l-0.043,0.03l-0.077-0.005l-0.077-0.072l-0.047-0.104
		l-0.033-0.289l0.017-0.13l0.002-0.427l-0.067-0.629l0.016-0.165l-0.042-0.567l0.016-0.167l-0.045-0.23l0.016-0.013l0.052-0.249
		l0.071-0.088L46.535,85.973z"/>
	<path d="M50.011,85.838l0.324,0.019l0.295,0.062l0.114,0.065l0.1,0.079l0.259,0.29l0.07,0.106l0.124,0.252l0.139,0.791
		l-0.006,0.299l-0.079,0.482l-0.113,0.245l-0.14,0.221l-0.087,0.101l-0.191,0.171l-0.226,0.136l-0.329,0.049l-0.157-0.017
		l-0.481-0.006l-0.181-0.023l-0.114-0.071l-0.058-0.124l-0.014-0.173l0.012-0.15l-0.032-0.446l0.015-0.841l-0.02-0.147l-0.024-0.081
		l0.02-0.062l-0.055-0.463l0.035-0.519c0.011-0.041,0.031-0.079,0.062-0.116l0.127-0.062l0.29-0.05c0.058,0,0.108,0,0.153-0.001
		C49.917,85.85,49.974,85.846,50.011,85.838z M50.14,86.281l-0.352,0.028l-0.081,0.048l-0.058,0.068l-0.031,0.167l0.01,0.021
		l-0.01,1.235l0.038,0.23l0.007,0.578l0.04,0.09l0.076,0.047l0.115,0.021l0.445-0.023l0.114-0.021l0.183-0.073l0.155-0.111
		l0.064-0.067l0.108-0.267l0.014-0.112l0.099-0.416l0.006-0.204l-0.027-0.14l0.007-0.12l-0.027-0.224l-0.148-0.355l-0.056-0.081
		l-0.195-0.192l-0.167-0.086L50.14,86.281z"/>
	<path d="M52.603,85.746l0.381-0.009l0.172,0.026l0.271-0.042l0.51,0.021l0.098,0.025l0.094,0.051l0.047,0.08l-0.013,0.104
		l-0.071,0.064l-0.207,0.044l-0.632,0.015l-0.11,0.028l-0.032-0.008l-0.312,0.026l-0.079,0.049l-0.059,0.084L52.632,86.4
		l-0.015,0.234l0.018,0.09l-0.015,0.022l0.024,0.215l0.039,0.097l0.069,0.058l0.296,0.057l0.29-0.011l0.119,0.013l0.113-0.021
		l0.121,0.013l0.092,0.042l0.061,0.063c0.019,0.028,0.031,0.066,0.034,0.105l-0.057,0.083l-0.09,0.041l-0.11-0.004l-0.118,0.02
		l-0.632,0.043l-0.096,0.036l-0.042,0.091l-0.047,0.339l0.006,0.361l0.044,0.208l0.069,0.057l0.204,0.045l0.149-0.025l0.076,0.009
		l0.254,0.01l0.21-0.024l0.373,0.024l0.101,0.058l0.033,0.104l-0.042,0.093l-0.096,0.041l-0.947,0.091l-0.263-0.02L52.7,89.071
		l-0.187-0.031l-0.092-0.051l-0.063-0.066l-0.04-0.093l-0.033-0.719l-0.02-0.112l0.037-0.212l-0.024-0.097l0.025-0.337l-0.043-0.358
		l0.044-0.212l-0.011-0.127l0.024-0.146l-0.041-0.531l0.049-0.104l0.076-0.062l0.102-0.026L52.603,85.746z"/>
	<path d="M55.56,85.536l0.075,0.015l0.241-0.01l0.09-0.02l0.052,0.023l0.158-0.029l0.329,0.011l0.136,0.041l0.12,0.054l0.11,0.07
		l0.185,0.175l0.185,0.354l-0.015,0.51l-0.046,0.129l-0.144,0.209l-0.099,0.085l-0.23,0.128l-0.131,0.048l-0.165,0.006l-0.158,0.026
		l-0.133-0.002l-0.187,0.028l-0.136-0.003L55.62,87.43c-0.044,0.002-0.087,0.015-0.135,0.04l-0.027,0.048l0.012,0.097l-0.058,0.12
		l0.021,0.151l-0.001,0.136l0.032,0.273l-0.023,0.242l-0.032,0.144l-0.077,0.1l-0.082,0.012l-0.056-0.035l-0.077-0.103l-0.026-0.304
		l0.006-0.032l-0.043-0.434l0.011-0.054l-0.041-0.771l0.012-0.058l-0.004-0.114l-0.034-0.139l0.015-0.062l-0.017-0.48l-0.021-0.14
		l0.021-0.212l0.04-0.136l0.082-0.098l0.131-0.05l0.165-0.021l0.075,0.006L55.56,85.536z M55.783,85.926l-0.29,0.04l-0.08,0.085
		l-0.02,0.144l0.041,0.277l-0.02,0.291l0.051,0.163l0.093,0.065l0.143,0.022l0.211-0.021l0.155,0.02l0.069-0.026l0.29-0.02
		l0.149-0.043l0.108-0.059l0.079-0.083l0.066-0.098l0.033-0.294l-0.013-0.141l-0.042-0.126l-0.072-0.103l-0.093-0.063l-0.194-0.054
		l-0.367,0.041L55.783,85.926z"/>
	<path d="M58.425,85.541l0.382-0.009l0.174,0.027l0.271-0.042l0.508,0.02l0.099,0.026l0.094,0.05l0.047,0.082l-0.013,0.104
		l-0.072,0.062l-0.208,0.045l-0.63,0.015l-0.109,0.027l-0.033-0.006l-0.311,0.025l-0.082,0.05L58.482,86.1l-0.026,0.096L58.44,86.43
		l0.02,0.089l-0.014,0.021l0.021,0.217l0.04,0.097l0.068,0.06l0.296,0.055l0.291-0.01l0.119,0.012l0.113-0.02l0.119,0.012
		l0.094,0.04l0.061,0.064c0.019,0.028,0.03,0.064,0.034,0.104l-0.057,0.086l-0.089,0.04l-0.112-0.006l-0.118,0.02l-0.629,0.045
		l-0.097,0.033l-0.043,0.094l-0.046,0.338l0.006,0.36l0.044,0.209l0.068,0.056l0.205,0.047l0.148-0.026l0.076,0.011l0.255,0.007
		l0.207-0.023l0.376,0.023l0.1,0.058l0.032,0.104l-0.041,0.094l-0.096,0.041l-0.947,0.092l-0.265-0.02l-0.157,0.013l-0.187-0.029
		l-0.093-0.051l-0.063-0.066l-0.04-0.094l-0.033-0.719l-0.02-0.112l0.036-0.21l-0.023-0.097l0.025-0.338l-0.038-0.361l0.044-0.211
		l-0.012-0.127l0.025-0.144l-0.043-0.53l0.049-0.105l0.074-0.064l0.102-0.024L58.425,85.541z"/>
	<path d="M61.097,85.46l0.108,0.051l0.455,0.618l0.051,0.112l0.118,0.181l0.049,0.105l0.603,0.946l0.076,0.071l0.081-0.057
		l-0.011-0.273l0.02-0.116l0.003-0.291l-0.03-0.283l0.023-0.122l-0.028-0.253l0.014-0.157l-0.009-0.263l0.021-0.165l0.063-0.085
		l0.043-0.024l0.082,0.005c0.035,0.013,0.062,0.037,0.085,0.07l0.041,0.113l0.059,0.393l0.004,0.302l-0.025,0.13l-0.001,0.403
		l0.026,0.125l-0.013,0.46l0.019,0.136l0.032,0.678l-0.058,0.272l-0.104,0.051l-0.104-0.051l-0.093-0.065l-0.08-0.071l-0.048-0.102
		l-0.309-0.464l-0.041-0.117l-0.134-0.175l-0.049-0.102l-0.33-0.438l-0.049-0.11l-0.11-0.192l-0.094-0.062
		c-0.024-0.022-0.057-0.034-0.099-0.033l-0.024,0.119l-0.007,0.263l0.009,0.021l-0.017,0.129l0.005,0.15l-0.018,0.136l0.005,0.419
		l-0.009,0.136l0.034,0.125l0.006,0.12l-0.02,0.164l-0.033,0.123l-0.057,0.093l-0.043,0.029l-0.076-0.004l-0.078-0.072l-0.049-0.104
		l-0.029-0.291l0.016-0.128v-0.426l-0.066-0.629l0.015-0.167l-0.04-0.567l0.017-0.165l-0.047-0.231l0.017-0.013l0.052-0.249
		l0.071-0.089L61.097,85.46z"/>
	<path d="M64.573,85.323l0.325,0.018l0.291,0.064l0.117,0.065l0.098,0.078l0.259,0.29l0.069,0.108l0.124,0.25l0.139,0.792
		l-0.004,0.3l-0.078,0.482l-0.114,0.242l-0.141,0.224l-0.086,0.1l-0.19,0.171l-0.225,0.135l-0.33,0.051l-0.157-0.016l-0.48-0.008
		l-0.18-0.023l-0.114-0.069l-0.058-0.126l-0.015-0.172l0.012-0.153l-0.033-0.444l0.016-0.841l-0.02-0.146l-0.023-0.083l0.019-0.061
		l-0.054-0.462l0.033-0.519c0.013-0.043,0.032-0.082,0.063-0.116l0.128-0.063l0.289-0.049c0.058,0,0.108-0.002,0.154-0.004
		C64.479,85.336,64.535,85.331,64.573,85.323z M64.702,85.768l-0.351,0.028l-0.081,0.047l-0.058,0.069l-0.031,0.168l0.009,0.021
		l-0.01,1.236l0.037,0.231l0.008,0.578l0.04,0.088l0.076,0.048l0.114,0.02l0.447-0.022l0.112-0.021l0.183-0.071l0.155-0.111
		l0.064-0.069l0.109-0.265l0.013-0.112l0.098-0.417l0.006-0.201l-0.024-0.142l0.01-0.12l-0.031-0.224l-0.146-0.356l-0.057-0.079
		L65.2,85.896l-0.167-0.085L64.702,85.768z"/>
	<path d="M67.693,85.272l0.104,0.02l0.118,0.132l0.045,0.209l0.01,1.303l0.017,0.112l0.034,0.087l-0.019,0.098l0.019,0.111
		l-0.022,0.16l0.007,0.021l-0.009,0.15l0.028,0.186l0.001,0.426l-0.041,0.116l-0.059,0.06l-0.11-0.009l-0.078-0.044l-0.049-0.08
		l-0.024-0.096L67.626,87.8l-0.013-0.533l0.024-0.212l-0.084-0.877l0.004-0.263l-0.011-0.323l0.023-0.195l0.043-0.086L67.693,85.272
		z"/>
	<path d="M70.074,85.131l0.38-0.009l0.175,0.024l0.27-0.041l0.51,0.021l0.098,0.025l0.093,0.049l0.048,0.083l-0.014,0.104
		l-0.07,0.062l-0.209,0.044l-0.63,0.016l-0.111,0.027l-0.031-0.008l-0.312,0.027l-0.081,0.048l-0.059,0.085l-0.025,0.096
		l-0.017,0.235l0.02,0.089l-0.014,0.021l0.021,0.217l0.04,0.098l0.07,0.057l0.296,0.057l0.29-0.009l0.12,0.011l0.112-0.021
		l0.119,0.013l0.093,0.042l0.062,0.063c0.02,0.029,0.03,0.065,0.034,0.105l-0.058,0.084l-0.089,0.04l-0.112-0.004l-0.118,0.021
		l-0.629,0.042l-0.096,0.034l-0.042,0.094l-0.047,0.339l0.005,0.359l0.045,0.209l0.066,0.056l0.206,0.046l0.148-0.025l0.076,0.011
		l0.255,0.007l0.21-0.023l0.373,0.024l0.1,0.058l0.032,0.105l-0.041,0.09l-0.094,0.04l-0.949,0.093l-0.263-0.019l-0.157,0.012
		l-0.188-0.029l-0.092-0.051l-0.062-0.065l-0.041-0.094l-0.033-0.72l-0.02-0.113l0.038-0.21l-0.023-0.098l0.025-0.336l-0.044-0.36
		l0.044-0.212l-0.011-0.127l0.025-0.144l-0.043-0.531l0.049-0.104l0.074-0.064l0.102-0.023L70.074,85.131z"/>
	<path d="M72.746,85.05l0.107,0.047l0.456,0.621l0.05,0.111l0.117,0.182l0.049,0.104l0.603,0.947l0.076,0.07l0.081-0.055
		l-0.01-0.277l0.021-0.114l0.002-0.291l-0.031-0.283l0.024-0.122l-0.029-0.253l0.016-0.158l-0.011-0.261l0.021-0.165l0.062-0.085
		l0.044-0.025l0.083,0.005c0.034,0.014,0.062,0.038,0.084,0.071l0.042,0.112l0.058,0.394l0.004,0.301l-0.023,0.129l-0.004,0.404
		l0.028,0.126l-0.014,0.459l0.019,0.135l0.033,0.68l-0.058,0.273l-0.104,0.047l-0.104-0.049l-0.095-0.065l-0.077-0.07l-0.05-0.102
		l-0.308-0.464l-0.043-0.118l-0.132-0.176l-0.05-0.1l-0.331-0.44l-0.05-0.109l-0.108-0.191l-0.093-0.062
		c-0.024-0.023-0.059-0.036-0.099-0.034l-0.024,0.122l-0.008,0.261l0.009,0.02l-0.017,0.128l0.004,0.152l-0.018,0.135l0.007,0.419
		l-0.007,0.134l0.032,0.126l0.004,0.119l-0.019,0.165l-0.032,0.123l-0.057,0.094l-0.043,0.031l-0.078-0.007l-0.076-0.07
		l-0.047-0.106l-0.031-0.291l0.016-0.127l0.002-0.427l-0.066-0.628l0.015-0.165l-0.04-0.568l0.015-0.164l-0.045-0.233l0.016-0.014
		l0.053-0.249l0.07-0.088L72.746,85.05z"/>
	<path d="M75.779,84.949l0.165,0.012l0.59-0.029l0.226,0.013l0.156-0.025l0.113,0.012l0.042-0.018l0.341,0.041
		c0.041,0.001,0.085,0.011,0.136,0.032c0.029,0.028,0.051,0.064,0.062,0.108c-0.015,0.041-0.039,0.077-0.078,0.109l-0.148,0.034
		l-0.516,0.042c-0.045,0.01-0.091,0.032-0.128,0.063l-0.054,0.123l-0.02,0.156l0.065,1.339l0.018,0.074l-0.014,0.081l0.013,0.788
		l0.008,0.029l-0.03,0.151l-0.108,0.077l-0.137-0.039c-0.03-0.03-0.054-0.068-0.071-0.116l-0.021-0.172l0.009-0.128l-0.025-0.368
		l0.019-0.14l-0.013-0.084l0.013-0.081l-0.069-0.493l0.029-0.22l-0.032-0.089l0.01-0.164l-0.032-0.495l-0.05-0.133l-0.102-0.089
		l-0.149-0.022l-0.337-0.004l-0.152-0.031l-0.112-0.07l-0.043-0.071l0.012-0.056c0.017-0.033,0.051-0.065,0.095-0.091L75.779,84.949
		z"/>
	<path d="M78.811,84.821l0.38-0.009l0.175,0.025l0.268-0.041l0.51,0.021l0.1,0.025l0.093,0.05l0.048,0.08l-0.014,0.104l-0.07,0.063
		l-0.209,0.044L79.459,85.2l-0.109,0.027l-0.032-0.007l-0.312,0.026l-0.081,0.048l-0.059,0.085l-0.024,0.096l-0.018,0.235
		l0.021,0.09l-0.017,0.02l0.023,0.217l0.042,0.097l0.067,0.059l0.295,0.056l0.291-0.009l0.119,0.011l0.114-0.019l0.119,0.01
		l0.093,0.043l0.06,0.062c0.021,0.029,0.032,0.065,0.036,0.104l-0.058,0.085l-0.089,0.041l-0.11-0.004l-0.12,0.02l-0.63,0.044
		l-0.097,0.034l-0.042,0.093l-0.044,0.339l0.004,0.36l0.044,0.208l0.07,0.059l0.205,0.044l0.146-0.026l0.08,0.012l0.253,0.008
		l0.209-0.024l0.374,0.024l0.102,0.057l0.03,0.105l-0.041,0.093l-0.096,0.04l-0.947,0.092l-0.264-0.02l-0.158,0.015l-0.187-0.031
		l-0.091-0.051l-0.064-0.065l-0.04-0.094l-0.034-0.72l-0.02-0.11l0.038-0.211l-0.024-0.098l0.024-0.337l-0.042-0.359l0.044-0.212
		l-0.01-0.127l0.022-0.144l-0.044-0.531l0.05-0.104l0.075-0.064l0.104-0.023L78.811,84.821z"/>
</g>
</svg>
