<?xml version="1.0" encoding="utf-8"?>
<!-- Generator: Adobe Illustrator 19.0.0, SVG Export Plug-In . SVG Version: 6.00 Build 0)  -->
<svg version="1.1" id="Layer_1" xmlns="http://www.w3.org/2000/svg" xmlns:xlink="http://www.w3.org/1999/xlink" x="0px" y="0px"
	 viewBox="-345 563 100 100" style="enable-background:new -345 563 100 100;" xml:space="preserve">
<g>
	<path d="M-274.3,565.2c0.3,0.7,0.4,1.5,0.4,2.2l0.3-0.2c0.1,0.4,0.2,0.8,0.3,1.2c0-0.5,0.1-1,0.1-1.5l-0.5,0.3c0-0.3,0.1-1,0.1-1.3
		c0.4-0.3,0.7-0.6,1.1-0.9l0.3,0.4c0.1-0.1,0.2-0.3,0.3-0.5c0.5,0.8,1.1,0.2,1.6-0.1c0.8,1.1,0.6,2.6,0.9,3.9
		c-0.2-0.1-0.7-0.3-0.9-0.4c0-0.3,0.1-1,0.2-1.3l-0.3-0.1c0,0.8-0.1,1.7,0.4,2.4l0.2,0c0.9-0.3,0.4,1.1,0.5,1.6
		c-0.2,0-0.5,0-0.6-0.1c0,0.2-0.1,0.6-0.1,0.7l0.4,0c1,2.6,0.5,5.5,0.8,8.3l0.5-0.3c0,1.3-0.7,2.7,0,3.9c-0.2,0-0.5,0-0.6,0l0,0.6
		l0.6-0.4c-0.5,3.4,0.4,6.7,0.2,10.1c-0.1,4.8,0,9.6,0.5,14.4c0.3,2.1-0.4,4.2-0.2,6.3c0.1,2.2,0.3,4.5,0,6.7
		c-0.3,3.5,0.5,7.2-0.8,10.6c-0.3,0.3-0.6,0.6-0.8,0.8c-2.5,1.2-5.3,0.7-7.9,0c-0.3-0.3-0.7-0.7-1-1c-0.9-0.3-1.6-0.8-2.3-1.4
		c-0.8-1-1.8-1.9-2.6-2.9c0.5,0.1,0.9,0.3,1.3,0.4c0-1.4,0.2-2.8-0.5-4c0.2-1.4,0.5-2.8,0.7-4.2c-0.2-0.8-0.3-1.7-0.5-2.5
		c0.3-0.2,0.6-0.5,1-0.7c-0.4-1.9-0.5-3.8-0.5-5.6c0.7-2.6,0.3-5.4,0.7-8.1c0.3-1.5,0.1-3,0-4.5c0-1.9,0.5-3.8,0.7-5.6
		c-0.6-0.2-0.9-0.8-1.2-1.3c-1.3,3.6-2.8,7.2-3.6,11c-0.9,2.2-1.5,4.6-2.5,6.8c-1.2,1.8-1.6,3.9-2.4,5.8c-0.7,3.1-1.6,6.1-2.1,9.3
		l-0.6-0.2c0,0.3,0.1,0.9,0.1,1.3c-0.2-0.2-0.5-0.6-0.6-0.8c-0.4,0.3-0.8,0.7-1.2,1c0.4-1.1,0.7-2.3,0.4-3.4c-0.2,0.5-0.3,1-0.5,1.4
		c-0.2-0.2-0.6-0.6-0.9-0.8l-0.1,1.1c-0.2-0.6-0.1-1.3,0.1-1.9c-0.1-0.8,0-1.6,0.2-2.3l-0.2,0c-0.1,0.7-0.3,1.4-0.4,2.2
		c-0.5,0-0.9,0-1.4,0.2c0-0.2-0.1-0.7-0.2-1c0.8-0.2,0.8-0.4,0.1-0.6c0.1-0.3,0.3-1,0.3-1.3c-0.4,0.5-0.6,1.1-0.8,1.6
		c0.1,0.5,0.1,1,0.1,1.5c-0.3,0-0.8,0.1-1.1,0.2c-0.1,0.5-0.3,0.9-0.4,1.4c-0.1-0.2-0.2-0.6-0.2-0.7c-1-0.5-2.6-0.8-2.9,0.7
		c-0.2-0.3-0.4-0.5-0.6-0.8c-0.1,0.2-0.4,0.6-0.5,0.8c-0.1-0.2-0.4-0.6-0.5-0.7l-0.9,0.3l0.4-0.8c-0.4,0.3-0.8,0.5-1.2,0.8
		c0.2-1.2,0.6-2.4,0.7-3.6c-0.3-0.6-0.6-1.1-1-1.7c-0.8-2-1.8-3.9-2.7-5.8c-0.8-2.5-2.2-4.6-3-7.1c-1.2-3.6-2.6-7.2-3.7-10.8
		c-0.2,1.8,0.3,3.6,0,5.3c-0.4,3,0.2,6,0.1,9c0.6,3.7,0.1,7.4,0.2,11.1c0,4.9-0.1,9.9-0.2,14.8c0,0.5-0.3,0.9-0.5,1.3
		c-0.1,0.3-0.3,0.6-0.4,0.9c-0.1-0.1-0.3-0.4-0.4-0.5c-1.3,0.1-2.6,0.1-3.8,0.6c-0.9-0.4-1.8-0.6-2.7-0.9l-0.1,0.3
		c-1,0-1.9,0-2.9,0.2c-0.8-2.1-0.8-4.2-0.7-6.4c-0.7-2.7-0.3-5.5-0.5-8.2c0.2-3.3-1.5-6.5-0.6-9.7c0-2.8,0.4-5.6,0.8-8.3l0.6,0.3
		c-0.2-0.4-0.3-0.9-0.5-1.3c0.2,0.3,0.6,0.8,0.8,1c-0.1-1.9,0.2-3.8-0.1-5.8c-0.2-1.7-0.2-3.4-0.2-5c-0.2,0.1-0.5,0.2-0.7,0.2
		c0.1-2,0.3-4,0.4-6.1c0.2,1,0.3,2.1,0.2,3.1l0.3,0c0.1-3.5,0.2-7-0.4-10.4c-0.5-2.4,0-4.9-0.5-7.4c-0.3-1.3,0.1-2.6,0.7-3.7
		c0.5,0.2,1,0.3,1.4,0.5c0.1-0.2,0.4-0.5,0.5-0.7c0.5,0,1-0.1,1.5-0.1c0.9-0.7,2.1-0.5,3.2-0.7c3-0.6,6.3,0.4,8,3
		c2.4,3.8,4.2,8.1,5.1,12.5c0.3,1,0.9,1.8,1.3,2.7c1.4,3.6,3.1,7,4.6,10.6c0.8,1.9,1.8,3.7,2.8,5.6c1.7-4.9,3.4-9.7,5.3-14.5
		c0.9-2.5,1.8-5,2.9-7.4c1.4-2.9,2-6.1,3.7-8.9c0.5-0.7,0.7-1.5,1-2.2c0.5-0.3,0.9-0.7,1.2-1.2c0.9-0.9,2.2-0.9,3.4-1l0-0.3
		c0.9,0.5,1.8-0.1,2.7-0.3C-276.3,565.9-275.2,565.8-274.3,565.2z M-275.3,571.3c0,0.2,0,0.6,0,0.8c0.5,0.4,1.2-0.4,1-0.9
		C-274.6,571.1-275,571.1-275.3,571.3z M-276.1,576.9c-0.1,0.7-0.2,1.5-0.3,2.2c0.1,0.1,0.4,0.3,0.6,0.4l-0.1-1
		c0.3,0.2,0.8,0.7,1.1,1c0-0.6,0-1.3,0-1.9c-0.2,0.3-0.7,0.8-0.9,1.1C-275.9,578-276,577.4-276.1,576.9z M-271.4,583.4
		c0,0.2,0,0.6,0,0.7c0.3,0,0.7,0,1,0.1c-0.2-0.1-0.5-0.3-0.6-0.4c0.2-0.1,0.5-0.4,0.7-0.5C-270.6,583.3-271.2,583.3-271.4,583.4z
		 M-276.7,586.3c-0.7-0.3-0.8-1.1-1.1-1.6c0,0.3,0,0.6,0,0.9c0.3,0.3,0.6,0.7,0.9,1c1-0.6,1.1-1.8,0.8-2.9
		C-276.5,584.5-276.5,585.4-276.7,586.3z M-275.2,585.9c0.1-0.7,0.2-1.4,0.2-2.2C-275.6,584.4-275.7,585.2-275.2,585.9z"/>
</g>
<g>
	<path d="M-266.3,564.9c-0.8,0.1-1.5,0.7-1.6,1.6c-0.2,1.1,0.5,1.9,1.2,2.2c1.2,0.5,2.3-0.4,2.6-1.1c0.1-0.2,0.1-0.4,0.2-0.7
		c0-0.1,0-0.2,0-0.3C-264.1,565.4-265.3,564.7-266.3,564.9z M-264.5,567.1c-0.1,0.6-0.8,1.2-1.2,1.2c-1.2,0.2-2.1-0.8-1.9-1.9
		c0.1-0.6,0.6-1.1,1.2-1.2C-265.3,565-264.3,565.9-264.5,567.1z"/>
	<path d="M-265.7,566.8c0.4,0,0.4-0.6,0.3-0.9c-0.3-0.3-0.9-0.2-1.5-0.2c-0.1,0.6,0,1.4,0,2c0.1,0.1,0.4,0.1,0.6,0
		c0-0.2-0.1-0.6,0-0.8c0.5,0,0.5,0.5,0.7,0.8c0.2,0,0.3,0,0.5,0C-265.2,567.4-265.4,567-265.7,566.8z M-265.8,566.5
		c-0.1,0.1-0.3,0.1-0.5,0.1c0-0.2,0-0.3,0-0.5c0.2,0,0.4,0,0.5,0.1C-265.8,566.3-265.8,566.4-265.8,566.5z"/>
</g>
<g>
	<g>
		<g>
			<g>
				<g>
					<path d="M-319.9,638.1c0,0.1,0.1,0.2,0.1,0.3l0,0c0,0.1,0,0.1,0,0.2c0-0.1,0-0.1,0-0.2l-0.1,0c0,0,0-0.1,0-0.2
						c0.1,0,0.1-0.1,0.2-0.1l0.1,0.1c0,0,0-0.1,0-0.1c0.1,0.1,0.2,0,0.2,0c0.1,0.2,0.1,0.4,0.2,0.6c0,0-0.1,0-0.1-0.1
						c0,0,0-0.1,0-0.2l0,0c0,0.1,0,0.2,0.1,0.4l0,0c0.1,0,0.1,0.2,0.1,0.2c0,0-0.1,0-0.1,0c0,0,0,0.1,0,0.1l0.1,0
						c0.2,0.4,0.1,0.8,0.2,1.2l0.1,0c0,0.2-0.1,0.4,0,0.6c0,0-0.1,0-0.1,0l0,0.1l0.1-0.1c-0.1,0.5,0.1,1,0.1,1.5
						c0,0.7,0.1,1.4,0.2,2.1c0.1,0.3,0,0.6,0,0.9c0,0.3,0.1,0.7,0,1c0,0.5,0.1,1.1,0,1.6c0,0-0.1,0.1-0.1,0.1
						c-0.4,0.2-0.8,0.1-1.2,0c-0.1,0-0.1-0.1-0.2-0.1c-0.1,0-0.2-0.1-0.3-0.2c-0.1-0.1-0.3-0.3-0.4-0.4c0.1,0,0.1,0,0.2,0.1
						c0-0.2,0-0.4-0.1-0.6c0-0.2,0.1-0.4,0.1-0.6c0-0.1-0.1-0.3-0.1-0.4c0,0,0.1-0.1,0.1-0.1c-0.1-0.3-0.1-0.6-0.1-0.8
						c0.1-0.4,0-0.8,0.1-1.2c0-0.2,0-0.4,0-0.7c0-0.3,0-0.6,0.1-0.8c-0.1,0-0.1-0.1-0.2-0.2c-0.2,0.5-0.4,1.1-0.5,1.6
						c-0.1,0.3-0.2,0.7-0.3,1c-0.2,0.3-0.2,0.6-0.3,0.9c-0.1,0.5-0.2,0.9-0.2,1.4l-0.1,0c0,0,0,0.1,0,0.2c0,0-0.1-0.1-0.1-0.1
						c-0.1,0.1-0.1,0.1-0.2,0.2c0.1-0.2,0.1-0.3,0-0.5c0,0.1,0,0.1-0.1,0.2c0,0-0.1-0.1-0.1-0.1l0,0.2c0-0.1,0-0.2,0-0.3
						c0-0.1,0-0.2,0-0.3l0,0c0,0.1,0,0.2,0,0.3c-0.1,0-0.1,0-0.2,0c0,0,0-0.1,0-0.1c0.1,0,0.1-0.1,0-0.1c0,0,0-0.1,0-0.2
						c0,0.1-0.1,0.2-0.1,0.2c0,0.1,0,0.1,0,0.2c0,0-0.1,0-0.2,0c0,0.1,0,0.1,0,0.2c0,0,0-0.1,0-0.1c-0.2-0.1-0.4-0.1-0.4,0.1
						c0,0-0.1-0.1-0.1-0.1c0,0-0.1,0.1-0.1,0.1c0,0-0.1-0.1-0.1-0.1l-0.1,0l0.1-0.1c-0.1,0-0.1,0.1-0.2,0.1c0-0.2,0.1-0.4,0.1-0.5
						c0-0.1-0.1-0.2-0.2-0.2c-0.1-0.3-0.3-0.6-0.4-0.8c-0.1-0.4-0.4-0.7-0.5-1c-0.2-0.5-0.4-1-0.6-1.6c0,0.3,0.1,0.5,0,0.8
						c0,0.4,0.1,0.9,0.1,1.3c0.1,0.5,0.1,1.1,0.1,1.6c0,0.7,0.1,1.5,0.1,2.2c0,0.1,0,0.1-0.1,0.2c0,0,0,0.1-0.1,0.1
						c0,0,0-0.1-0.1-0.1c-0.2,0-0.4,0-0.6,0.1c-0.1,0-0.3-0.1-0.4-0.1l0,0c-0.1,0-0.3,0-0.4,0.1c-0.1-0.3-0.1-0.6-0.1-0.9
						c-0.1-0.4-0.1-0.8-0.1-1.2c0-0.5-0.3-0.9-0.2-1.4c0-0.4,0-0.8,0.1-1.2l0.1,0c0-0.1-0.1-0.1-0.1-0.2c0,0,0.1,0.1,0.1,0.1
						c0-0.3,0-0.6,0-0.9c0-0.2-0.1-0.5-0.1-0.7c0,0-0.1,0-0.1,0c0-0.3,0-0.6,0-0.9c0,0.1,0.1,0.3,0.1,0.5l0,0c0-0.5,0-1-0.1-1.5
						c-0.1-0.4,0-0.7-0.1-1.1c-0.1-0.2,0-0.4,0.1-0.6c0.1,0,0.1,0,0.2,0.1c0,0,0-0.1,0.1-0.1c0.1,0,0.1,0,0.2,0
						c0.1-0.1,0.3-0.1,0.5-0.1c0.4-0.1,0.9,0,1.2,0.4c0.4,0.6,0.7,1.2,0.8,1.8c0,0.1,0.1,0.3,0.2,0.4c0.2,0.5,0.5,1,0.8,1.5
						c0.1,0.3,0.3,0.5,0.5,0.8c0.2-0.7,0.4-1.5,0.7-2.2c0.1-0.4,0.2-0.7,0.4-1.1c0.2-0.4,0.3-0.9,0.5-1.3c0.1-0.1,0.1-0.2,0.1-0.3
						c0.1,0,0.1-0.1,0.2-0.2c0.1-0.1,0.3-0.1,0.5-0.2l0,0c0.1,0.1,0.3,0,0.4-0.1C-320.2,638.2-320,638.1-319.9,638.1z M-320,639
						c0,0,0,0.1,0,0.1c0.1,0.1,0.2-0.1,0.1-0.1C-319.9,638.9-320,638.9-320,639z M-320.1,639.8c0,0.1,0,0.2,0,0.3c0,0,0.1,0,0.1,0.1
						l0-0.1c0,0,0.1,0.1,0.2,0.1c0-0.1,0-0.2,0-0.3c0,0-0.1,0.1-0.1,0.2C-320.1,640-320.1,639.9-320.1,639.8z M-319.4,640.7
						c0,0,0,0.1,0,0.1c0,0,0.1,0,0.2,0C-319.2,640.8-319.3,640.8-319.4,640.7c0.1,0,0.1,0,0.2,0
						C-319.2,640.7-319.3,640.7-319.4,640.7z M-320.1,641.2c-0.1,0-0.1-0.1-0.2-0.2c0,0,0,0.1,0,0.1
						C-320.2,641.1-320.2,641.2-320.1,641.2c0.1-0.1,0.1-0.2,0.1-0.4C-320.1,640.9-320.1,641.1-320.1,641.2z M-319.9,641.1
						c0-0.1,0-0.2,0-0.3C-320,640.9-320,641-319.9,641.1z"/>
				</g>
				<g>
					<path d="M-315.1,638.1c0.1-0.1,0.3-0.1,0.4-0.1c0,0,0.1,0,0.1,0.1l0,0l0.1,0.1l0,0c0.1,0,0.2,0,0.2,0c0,0.1,0,0.1,0.1,0.1
						c0,0,0-0.1,0.1-0.1c0,0,0,0.1,0.1,0.1c-0.1,0-0.1,0-0.2,0c0-0.1-0.1-0.2-0.2-0.1c0,0,0.1,0,0.1,0c0,0.2,0.1,0.4,0.2,0.5
						c0-0.1-0.1-0.3,0-0.4c0,0.1,0.1,0.2,0.1,0.3c0,0,0.1-0.1,0.1-0.2c0,0.1,0,0.2,0,0.2l0.1,0c0,0.1,0,0.2,0.1,0.3
						c0.2,0.4,0.2,0.8,0.5,1.2c0.2,0.3,0.2,0.6,0.4,0.8c0.1,0.2,0.2,0.4,0.2,0.6c0,0.2,0.2,0.4,0.3,0.6c0,0.2,0.1,0.4,0.2,0.5
						c0.1,0.2,0.1,0.4,0.2,0.6c0.1,0.4,0.3,0.8,0.4,1.2c0.1,0.4,0.3,0.9,0.4,1.3c0,0.2,0.1,0.4,0.1,0.7c-0.1,0.1-0.2,0.3-0.3,0.5
						c0,0-0.1,0-0.1,0c-0.2,0.1-0.3,0.1-0.5,0.2c0,0-0.1,0.1-0.1,0.1c-0.1,0-0.1,0-0.2-0.1l0,0.1c0,0-0.1-0.1-0.1-0.1l-0.1,0.1
						c0,0,0-0.1,0-0.1c-0.1,0.1-0.2,0.1-0.2,0.1c0,0,0.1-0.1,0.1-0.1c0,0,0,0-0.1-0.1c-0.1,0.2-0.2,0-0.3-0.1
						c-0.1-0.3-0.1-0.6-0.2-0.9c-0.2-0.7-0.5-1.5-0.7-2.2c-0.4,0.1-0.7,0-1.1,0.1c-0.3,0.1-0.5,0.2-0.8,0.2c0,0,0,0.1,0,0.1
						c-0.1,0.2,0,0.5-0.1,0.7c-0.1,0.5-0.1,1-0.2,1.4c0,0.2-0.1,0.3-0.2,0.5c-0.1,0.2-0.3,0.2-0.5,0.3c0-0.1,0-0.3,0-0.4
						c-0.1,0.1-0.1,0.3-0.2,0.4c0-0.1,0-0.2,0-0.4c0,0.1-0.1,0.2-0.1,0.3c-0.1,0-0.2,0-0.3-0.1c0,0-0.1,0.1-0.1,0.1
						c-0.1,0-0.1-0.1-0.2-0.1c0,0,0,0.1,0,0.1l0-0.1c0,0-0.1,0.1-0.1,0.1c0-0.1,0-0.2,0-0.2c0,0-0.1,0.1-0.1,0.1c0-0.1,0-0.3,0-0.4
						c-0.1,0.2-0.2,0.3-0.3,0.4c0.3-0.8,0.4-1.6,0.6-2.4c0.1-0.3,0.1-0.7,0.2-1c0-0.1-0.1-0.2-0.1-0.3l0.1,0c0,0-0.1-0.1-0.1-0.1
						c0.1-0.2,0.2-0.3,0.3-0.4c0-0.5,0.2-1.1,0.3-1.6c0-0.2,0.1-0.4,0.2-0.6c0.1-0.4,0.2-0.8,0.3-1.1c0.1-0.6,0.4-1.1,0.6-1.6
						c0.1-0.1,0.2-0.2,0.4-0.1C-315.5,638.1-315.3,638.1-315.1,638.1z M-315.5,640.2c-0.1,0.3-0.2,0.6-0.3,1c0,0,0,0.1,0,0.1
						C-315.7,640.9-315.6,640.6-315.5,640.2z M-315.3,640.2c-0.1,0.4-0.1,0.8-0.2,1.2c-0.1,0.3,0,0.6-0.1,0.9c0,0.1,0,0.3-0.1,0.4
						c0,0,0,0-0.1,0c0-0.4,0.1-0.7,0.1-1c-0.1,0.4-0.1,0.8-0.2,1.1c0.2,0,0.3,0,0.5,0c0.3-0.1,0.6-0.1,0.9-0.2
						c-0.2-0.5-0.4-0.9-0.5-1.4C-315.1,640.8-315.2,640.5-315.3,640.2z"/>
				</g>
				<g>
					<path d="M-302.5,637.5c0.1-0.1,0.3-0.1,0.4-0.1c0,0,0.1,0,0.1,0.1c0,0.1,0.1,0.1,0.3,0.2c0,0.1,0.1,0.1,0.1,0c0,0,0,0,0,0
						c0,0,0,0.1,0,0.1c-0.1,0-0.2,0-0.2,0c0.1-0.2-0.1-0.2-0.2-0.2c0,0.1,0.1,0.1,0.1,0.1c0,0.2,0.1,0.4,0.2,0.5
						c0-0.1,0-0.2-0.1-0.4c0,0,0,0,0.1,0c0,0.1,0,0.2,0.1,0.2c0,0,0.1-0.1,0.1-0.1c0,0.1,0,0.2,0,0.2l0.1,0c0,0.1,0,0.2,0.1,0.3
						c0.2,0.4,0.2,0.8,0.5,1.2c0.2,0.3,0.2,0.6,0.4,0.9c0.2,0.3,0.2,0.7,0.3,1c0.1,0.1,0.1,0.2,0.1,0.4c0,0.2,0.1,0.3,0.2,0.5
						c0.1,0.3,0.2,0.6,0.3,0.9c0.3,0.7,0.5,1.4,0.7,2.2c0,0.2,0.1,0.4,0.1,0.7c-0.1,0.1-0.2,0.3-0.3,0.5c0,0-0.1,0-0.1,0
						c-0.2,0.1-0.4,0.1-0.6,0.2c0,0,0,0.1,0,0.1c-0.1,0-0.1-0.1-0.2-0.1c0,0,0,0.1,0,0.1c0,0-0.1-0.1-0.1-0.1l-0.1,0.1
						c0,0,0-0.1,0-0.1c-0.1,0.1-0.2,0.1-0.2,0.1c0,0,0.1-0.1,0.1-0.1c0,0,0,0-0.1-0.1c-0.1,0.2-0.2-0.1-0.3-0.1
						c-0.1-0.2-0.1-0.5-0.1-0.7c-0.2-0.5-0.3-0.9-0.4-1.4c-0.1-0.4-0.2-0.7-0.3-1.1c-0.2,0-0.4,0-0.6,0.1c-0.4,0-0.8,0.2-1.2,0.3
						c-0.1,0-0.1,0.1-0.1,0.1c0,0.2-0.1,0.3-0.1,0.5c-0.1,0.6-0.2,1.2-0.2,1.8c-0.1,0.2-0.1,0.5-0.4,0.6c-0.1,0-0.2,0.1-0.3,0.1
						c0-0.1,0-0.3,0-0.4c-0.1,0.1-0.1,0.3-0.2,0.4c0-0.1,0-0.2,0-0.4c0,0.1-0.1,0.2-0.1,0.3c-0.1,0-0.2,0-0.3-0.1
						c0,0-0.1,0.1-0.1,0.1c-0.1,0-0.1,0-0.2-0.1l0,0.1c0,0,0-0.1,0-0.1c0,0-0.1,0.1-0.1,0.1c0-0.1,0-0.2,0-0.2c0,0-0.1,0.1-0.1,0.1
						c0-0.1,0-0.2,0-0.4c-0.1,0.1-0.2,0.3-0.3,0.4c0-0.2,0.1-0.4,0.2-0.6c0.1-0.5,0.2-1,0.3-1.5c0.1-0.4,0.2-0.8,0.2-1.2
						c0.1-0.2,0.1-0.4,0-0.5l0.1,0c0,0-0.1-0.1-0.1-0.1c0.1-0.2,0.2-0.3,0.3-0.4c0-0.4,0.1-0.8,0.2-1.2c0.1-0.3,0.1-0.6,0.2-0.9
						c0.2-0.6,0.4-1.3,0.6-1.9c0.1-0.3,0.3-0.6,0.4-0.8c0.1-0.1,0.2-0.2,0.4-0.1C-302.8,637.5-302.7,637.6-302.5,637.5z
						 M-303.2,640.7c0.1-0.3,0.2-0.7,0.3-1.1C-303,640-303.2,640.4-303.2,640.7z M-302.7,639.7c-0.1,0.4-0.1,0.8-0.2,1.2
						c-0.1,0.3,0,0.6-0.1,0.9c0,0.1,0,0.3-0.1,0.4c0,0,0,0-0.1,0c0-0.4,0.1-0.7,0.1-1c-0.1,0.3-0.1,0.7-0.2,1c0,0.1,0,0.1,0,0.2
						c0,0,0.1,0,0.1,0c0.4,0,0.8-0.1,1.2-0.2c-0.1-0.3-0.2-0.5-0.3-0.8C-302.4,640.6-302.5,640.1-302.7,639.7z"/>
				</g>
				<g>
					<path d="M-309.9,638.3c0,0,0.1,0.1,0.1,0.1c0,0.2,0.1,0.3,0.2,0.5c0.1-0.1,0.1-0.3,0.2-0.4c0.2,0.2,0.2,0.5,0.3,0.8
						c0.1,0.4,0,0.9,0,1.4c0,0.3,0,0.6,0,0.9c0,0.7-0.1,1.5-0.1,2.2c0.1,0.4,0.1,0.9,0.1,1.3c0,0.3,0,0.5,0.1,0.8
						c0.5,0.1,1,0,1.5-0.1c0.3,0,0.7-0.2,1,0c0.2,0.1,0.4,0.3,0.5,0.4c0,0.2,0,0.3,0.1,0.5c0,0.1,0,0.2,0,0.2c0,0.1,0,0.3-0.1,0.4
						c-0.1,0.2-0.3,0.5-0.6,0.6c-0.3,0-0.7,0-1,0.1c-0.5,0-1,0.1-1.5,0.1c-0.2,0-0.4-0.1-0.6-0.1c-0.2,0.1-0.4,0.3-0.6,0.2
						c0,0,0.1-0.1,0.2-0.1c-0.1,0-0.2,0-0.3,0c0.2-0.3,0-0.7,0-1l-0.1,0c0,0,0-0.1,0-0.1c-0.1-0.1-0.2-0.1-0.2-0.1
						c0,0.3,0,0.6,0,0.8c-0.2-0.3-0.1-0.6-0.1-0.9c0-0.7-0.1-1.4-0.2-2.1c0-0.8-0.2-1.6-0.1-2.4c0-0.3,0-0.6,0.1-0.9
						c0.1-0.5,0.1-1.1,0.1-1.7c0-0.3,0.1-0.6,0.1-0.8c0.1,0,0.1-0.1,0.2-0.1c0.1,0.1,0.1,0.3,0.2,0.5c0-0.1,0-0.3,0-0.4l-0.1,0
						c0-0.1,0-0.2,0-0.3c0.1,0.1,0.1,0.2,0.2,0.3c0-0.1,0-0.2,0-0.3c0.1,0,0.1-0.1,0.2-0.1c0,0.1,0.1,0.2,0.1,0.3
						c0.1-0.1,0.1-0.3,0.2-0.4c0,0.2,0.1,0.4,0.1,0.5C-309.9,638.7-309.9,638.5-309.9,638.3z M-310.9,638.8c0,0.2,0.1,0.4,0.1,0.6
						C-310.8,639.2-310.8,639-310.9,638.8C-310.9,638.8-310.9,638.8-310.9,638.8z M-310.4,647.9
						C-310.4,647.9-310.3,647.9-310.4,647.9c0.1,0,0.2-0.2,0.1-0.2C-310.3,647.7-310.4,647.8-310.4,647.9z"/>
				</g>
			</g>
			<g>
				<path d="M-284.3,636.6c0.7-0.1,1.5,0.3,1.9,0.9c0.4,0.5,0.6,1.1,0.7,1.8c-0.1,0.3-0.4,0.5-0.5,0.8c-0.1,0-0.3,0-0.4,0
					c-0.1,0.1-0.3,0.1-0.5,0.1c-0.1-0.1-0.1-0.1-0.2-0.2l0,0.1c-0.1-0.1-0.1-0.2-0.2-0.4c0,0-0.1,0.1-0.1,0.1
					c-0.1-0.2-0.1-0.5-0.2-0.7c-0.1-0.3-0.2-0.5-0.5-0.6c-0.3-0.2-0.5-0.4-0.9-0.4c-0.3,0-0.5,0.2-0.6,0.3c-0.1,0.2-0.2,0.4-0.1,0.7
					c0,0.3,0,0.7,0,1c0.1,0.3,0.1,0.7,0.1,1c0.1,0.3,0,0.5,0.1,0.8c0.1,0.4,0,0.8,0.1,1.2c0.1,0.5,0.3,1,0.6,1.5
					c0.2,0.4,0.8,0.5,1.2,0.3c0.1-0.1,0.2-0.3,0.3-0.5c0.1-0.2,0.1-0.5,0.1-0.7c0-0.3,0-0.5,0-0.8c-0.1-0.2,0.1-0.4,0.2-0.6
					c0.1-0.2,0.4-0.3,0.5-0.5c0.1-0.2,0.4-0.2,0.7-0.2c0.2,0,0.4,0.2,0.6,0.3c0.1,0.3,0,0.7,0.1,1c0.1,0.4-0.1,0.7-0.2,1
					c-0.1,0.1-0.2,0.3-0.3,0.5c0.1,0,0.1-0.1,0.2-0.1c0,0.1-0.1,0.2-0.1,0.3c0,0-0.1-0.1-0.1-0.1c0,0.2-0.3,0.3-0.2,0.5
					c-0.1,0.1-0.1,0.3-0.2,0.4c-0.3,0.4-0.8,0.6-1.2,0.8c-0.3,0.1-0.7,0.2-1,0.2c-0.4,0-0.7-0.1-1-0.1c-0.2,0-0.2-0.1-0.3-0.2
					c0,0-0.1,0-0.1,0c-0.5-0.3-0.8-0.9-1-1.4c-0.2-0.3-0.2-0.6-0.3-1c-0.2-0.7-0.2-1.5-0.1-2.2c0-0.4,0.1-0.8,0.2-1.2
					c0.1-0.5,0.1-1.1,0.3-1.6c0.1-0.2,0.2-0.4,0.3-0.6c0.1-0.1,0.2-0.3,0.3-0.5l-0.1,0c0,0,0.1,0,0.2,0c0.2-0.2,0.4-0.4,0.6-0.5
					c0.2-0.1,0.4-0.2,0.6-0.2c0.2-0.1,0.4-0.1,0.6-0.2C-284.3,636.7-284.3,636.6-284.3,636.6c0,0,0.1,0.1,0.2,0.1
					C-284.2,636.7-284.2,636.6-284.3,636.6z"/>
				<g>
					<path d="M-275.6,636.3c0.1,0.3,0.1,0.6,0.2,0.8c0,0.2,0.1,0.5,0,0.7c0-0.1,0.1-0.1,0.1-0.2c0,0.1,0,0.3,0,0.4
						c-0.1,0-0.1,0-0.2,0c-0.1,0-0.1-0.1-0.2-0.1c-0.1,0.1,0,0.3-0.1,0.4c0-0.2,0-0.4,0-0.5c0,0.2-0.1,0.3,0,0.5
						c0,0.1-0.1,0.1-0.1,0.2c0-0.2,0-0.4,0-0.6c0,0.1-0.1,0.1-0.1,0.2c0,0,0,0-0.1,0c0,0,0,0.1,0,0.2l0,0c0-0.1-0.1-0.1-0.1-0.2
						c0-0.1,0-0.2,0.1-0.3l-0.1,0c0-0.3-0.1-0.6-0.1-0.9c0,0.2-0.1,0.4-0.1,0.6l-0.1,0c0,0.3,0,0.6,0,0.8c-0.2-0.1-0.1-0.4-0.1-0.6
						c0-0.3-0.1-0.5-0.1-0.8c0.1-0.1,0.3-0.1,0.4-0.2C-276.1,636.4-275.8,636.4-275.6,636.3z M-275.9,637.4c0,0-0.1-0.1-0.1-0.1
						c0,0,0,0,0,0.1c0,0.1,0,0.1,0,0.2l0,0c0,0,0,0,0,0c0,0,0.1,0,0.1,0.1c0,0,0,0,0.1,0.1C-275.9,637.6-276,637.5-275.9,637.4
						c0.1,0.1,0.1,0.2,0.1,0.3c0-0.1,0-0.1,0.1-0.2c0,0,0,0-0.1-0.1c0.1,0,0.1-0.1,0.2-0.1c0,0-0.1,0-0.1,0c0-0.1,0-0.2,0-0.2
						C-275.9,637.2-275.8,637.4-275.9,637.4z M-276.2,637.6c0.1,0,0-0.2,0-0.3C-276.3,637.4-276.3,637.5-276.2,637.6z"/>
				</g>
				<g>
					<path d="M-291,637.1c0.1,0,0.2-0.1,0.3,0c0.1,0.1,0.3,0.1,0.4,0.1c0,0,0.1,0,0.1,0c0-0.1,0-0.2-0.1-0.2
						c0.2,0.1,0.3,0.3,0.5,0.4c0.2,0.2,0.3,0.5,0.5,0.7c0.2,0.4,0.5,0.7,0.6,1.1c0.2,0.6,0.3,1.2,0.5,1.8c0.1,0.4,0.2,0.8,0.3,1.3
						c0.1,0.3,0.2,0.6,0.3,0.9c0.1,0.4,0.2,0.7,0.3,1c0.1,0.4,0.2,0.9,0.3,1.3c0,0.2,0.1,0.4,0.1,0.6c-0.1,0.1-0.2,0.3-0.3,0.3
						c-0.1,0-0.2,0-0.2,0l0,0.1c-0.1,0-0.1,0-0.2-0.1c-0.1,0-0.1,0.1-0.2,0.1c0,0,0-0.1,0-0.2c-0.1,0-0.2,0.2-0.2,0c0,0,0,0.1,0,0.1
						c-0.1,0-0.2,0-0.2,0.1c-0.1-0.1-0.2-0.2-0.3-0.3c0,0,0,0.1,0,0.2c-0.1-0.1-0.2-0.4-0.2-0.1c-0.1-0.3-0.2-0.5-0.2-0.8
						c-0.1-0.7-0.3-1.3-0.5-1.9c-0.3,0.1-0.5,0.2-0.8,0.3c-0.3,0.1-0.7,0-1.1,0.1c-0.1,0-0.3,0-0.4,0c-0.1,0.4-0.1,0.8-0.2,1.2
						c-0.1,0.2-0.1,0.5-0.1,0.7c-0.1,0.2,0,0.4-0.1,0.6c-0.1,0.2-0.3,0.3-0.5,0.4c-0.1-0.1-0.2,0-0.4-0.1c-0.1-0.1-0.2-0.2-0.3-0.3
						c0,0,0,0.1,0,0.2c-0.1-0.1-0.1-0.1-0.2-0.2c-0.1-0.1-0.3-0.1-0.4-0.2c0,0-0.1,0.1-0.1,0.1c0-0.2,0-0.4,0-0.5
						c0,0,0.1,0.1,0.1,0.1l0-0.1c0,0,0.1,0,0.1,0c0.1-0.2,0-0.5,0.1-0.6c0,0.1,0,0.2,0,0.2c0.1-0.1,0.1-0.3,0-0.5l0.1,0.1l0-0.1
						l0.1,0l0,0.1c0-0.1,0.1-0.2,0.1-0.3c0,0-0.1,0.1-0.2,0.1c0-0.1,0.1-0.2,0-0.4c0-0.1,0-0.2,0.1-0.4c0-0.1,0-0.1,0-0.2
						c0,0.1,0,0.3-0.2,0.3c0-0.1,0-0.3,0-0.4c0,0,0.1,0.1,0.1,0.1c0.1-0.1,0.2-0.2,0.3-0.4c0-0.1-0.1-0.1-0.1-0.2
						c0.1-0.2,0.1-0.5,0.2-0.7c0.1-0.3,0.2-0.5,0.3-0.8c0,0-0.1,0.1-0.2,0.2c0-0.1,0.1-0.2,0.1-0.4c0,0-0.1,0-0.1,0
						c0-0.1,0.1-0.2,0.2-0.3c0.1-0.1,0.1-0.2,0.2-0.2c0,0,0-0.1-0.1-0.1c0-0.1,0.1-0.1,0.1-0.2c0,0-0.1,0-0.1,0
						c0.1-0.1,0.1-0.3,0.2-0.4c0-0.1,0-0.2,0-0.2c0.1-0.1,0.1-0.1,0.2-0.2c-0.1,0.1,0,0.2,0.1,0.2c0-0.1,0-0.2,0-0.2
						c0,0.1,0,0.2,0.1,0.2c-0.1,0.2-0.1,0.4-0.2,0.6c0,0-0.1,0-0.1,0c0.1-0.1,0.1-0.2,0-0.3c0,0-0.1,0.1-0.1,0.1c0,0,0.1,0,0.1,0.1
						c-0.1,0.1-0.1,0.2,0,0.4c0,0,0.1-0.1,0.1-0.1c0,0,0,0.1,0,0.2c0.1-0.1,0.1-0.2,0.2-0.3c-0.2-0.2,0.2-0.3,0.1-0.5
						c0-0.1,0.1-0.1,0.1-0.2c0,0.1,0,0.2-0.1,0.3c0.1-0.2,0.2-0.4,0.3-0.5c-0.1,0.1-0.2,0.2-0.2,0.3c0-0.1,0.1-0.3,0.1-0.4
						c0-0.3,0.2-0.6,0.2-0.9c-0.1,0.1-0.1,0.2-0.2,0.4c-0.1,0.2-0.2,0.3-0.3,0.4c0,0,0,0,0-0.1c0.1-0.1,0.1-0.3,0.1-0.4l-0.1,0.1
						c0,0,0-0.1,0.1-0.2c-0.1,0-0.1,0-0.2,0c0-0.1,0.1-0.3,0.1-0.4c0,0-0.1-0.1-0.1-0.2c0-0.1,0.1-0.3,0.1-0.4c0,0,0.1,0.1,0.1,0.1
						c0,0,0-0.1-0.1-0.2c0,0,0.1,0,0.1,0c0,0-0.1,0-0.1,0c0.1-0.2,0.2-0.4,0.2-0.7c0.1-0.3,0.2-0.6,0.4-0.9c0.1,0,0.1-0.1,0.2-0.1
						c0.1,0,0.3,0,0.3-0.1C-291.1,637.1-291.1,637.1-291,637.1z M-290.7,639.7c-0.1,0.3-0.2,0.6-0.4,0.8c-0.2,0.3-0.2,0.7-0.3,1.1
						c-0.1,0.3-0.2,0.6-0.2,0.9c0.5-0.1,1-0.4,1.5-0.6c-0.1-0.4-0.3-0.8-0.3-1.2C-290.5,640.5-290.4,640-290.7,639.7z M-292.5,641
						c0,0,0.1,0,0.1,0C-292.4,640.8-292.6,640.8-292.5,641z M-290.3,642.1c-0.1,0.1-0.3,0.1-0.5,0.3c0.1,0,0.2,0,0.3,0l0,0
						c-0.1,0-0.2,0.1-0.3,0.1c0.1,0,0.1,0.1,0.2,0.1l-0.1,0.1c0.2-0.1,0.4-0.2,0.6-0.2c0,0,0.1,0.1,0.1,0.1h-0.1l0,0.1
						c0,0.1-0.1,0.1-0.1,0.2c0.1-0.1,0.3-0.1,0.4-0.2c0-0.1,0-0.1,0-0.2l-0.1,0c0,0,0.1-0.1,0.1-0.1c0-0.1-0.1-0.2-0.1-0.3
						C-290.1,642-290.2,642.1-290.3,642.1z"/>
				</g>
				<g>
					<path d="M-279.9,636.5c0.1,0,0.2,0,0.4-0.1c0.3,0.4,0.4,0.9,0.4,1.4c0,0.5,0,0.9,0.1,1.4c0,0.5,0.1,1,0.1,1.5
						c0.4-0.1,0.7-0.2,1.1-0.3c0.2,0,0.4,0,0.6,0c0-0.4,0-0.8,0.2-1.2c0,0,0.1,0.1,0.1,0.1c0-0.1,0.1-0.2,0.1-0.3c0-0.1,0-0.3,0-0.4
						c0,0-0.1,0-0.1,0c0.2,0,0.1-0.2,0.1-0.3c0,0.1,0,0.1,0.1,0.2c0-0.1,0-0.2,0.1-0.2c0,0.1,0,0.2,0,0.4c0,0,0.1,0.1,0.1,0.1
						c-0.1,0.1-0.1,0.2-0.1,0.3c0,0-0.1,0-0.1,0.1c0,0.1,0,0.1,0,0.2c0.1,0,0.2,0.1,0.2,0.1c0-0.1,0-0.2,0.1-0.2l0.1,0.1
						c0,0,0.1,0,0.1,0c0,0,0-0.1,0-0.2c0,0,0.1,0.1,0.1,0.1c0-0.1,0.1-0.2,0.1-0.3c0,0-0.1,0-0.1,0c0,0,0,0.1,0,0.1l-0.1,0l0-0.1
						c0,0-0.1,0.1-0.1,0.1c0-0.1,0-0.1,0-0.2l0.1,0.2c0.1-0.1,0.1-0.3,0.1-0.4c0.1,0,0.2-0.1,0.3-0.2c0,0,0.1,0.1,0.1,0.1
						c0,0-0.1,0.1-0.1,0.1c0,0,0.1,0,0.1,0c0-0.1,0-0.2,0-0.3c0,0,0.1,0.1,0.1,0.1c0,0,0.1-0.1,0.1-0.1c0,0,0,0.1,0,0.2
						c0.1-0.1,0.1-0.2,0.2-0.3c0,0,0.1-0.1,0.1-0.1c0,0.4,0,0.8,0.1,1.2c0.1,0.4,0,0.8,0.1,1.3c0,0.9,0.1,1.7,0.1,2.6
						c0,0.5,0,1,0.1,1.5c0,0.3,0.1,0.7-0.1,1c-0.1,0-0.2,0-0.3,0c-0.2-0.1-0.3,0.1-0.5,0.2c0,0-0.1-0.1-0.1-0.1c-0.1,0-0.2,0-0.3,0
						c0,0,0,0.1,0,0.1c-0.1,0-0.2,0.1-0.3,0.1c0,0,0-0.1,0-0.1c-0.2,0-0.2-0.2-0.2-0.3l0,0c0-0.1,0-0.2-0.1-0.4l-0.1,0
						c0,0,0-0.1,0-0.1l-0.1,0c0-0.1,0-0.2,0-0.3h0.1c0,0,0,0.1,0,0.2c0,0,0.1,0,0.1,0c0-0.1-0.1-0.3-0.1-0.4c0,0,0,0,0,0
						c0,0,0-0.1-0.1-0.2c0,0,0.1,0,0.1,0c0,0-0.1,0-0.1,0c0,0,0.1-0.1,0.1-0.1c-0.1-0.1-0.1-0.2-0.1-0.4c-0.1-0.8-0.1-1.6-0.2-2.3
						c-0.1,0-0.1,0.1-0.2,0.1c-0.3,0-0.6,0-0.8,0.1c-0.2,0.1-0.4,0.1-0.5,0.2c-0.1,0.5,0,1.1,0,1.6c0,0.6,0,1.2,0,1.9
						c-0.1,0-0.2,0.1-0.2,0.1c-0.1-0.1-0.1-0.1-0.2-0.2c0,0.1,0,0.2,0,0.2c0-0.1-0.1-0.2-0.1-0.3c0,0-0.1,0-0.1,0.1
						c0,0.1,0,0.3,0,0.4c-0.1,0-0.1,0-0.2-0.1c-0.1,0.1-0.1,0.1-0.2,0.2c0-0.2-0.1-0.3-0.1-0.5c0,0.1,0,0.2,0,0.3c0,0-0.1,0-0.2,0
						c0-0.1,0-0.2,0-0.3c0,0.1,0,0.3,0,0.4c-0.1,0-0.2,0-0.2,0c-0.1-0.2-0.2-0.3-0.2-0.5c0,0.1,0,0.2,0,0.3l0,0
						c0-0.4-0.1-0.7-0.1-1.1c0-0.7,0-1.3-0.1-2c0-0.5-0.1-0.9-0.1-1.4c0-0.4,0-0.9,0-1.3c-0.1-0.5,0-1.1-0.1-1.6c0-0.5-0.2-1,0-1.4
						c0.1-0.1,0.1-0.2,0.2-0.3c0.2-0.1,0.4-0.1,0.6-0.2C-280.1,636.6-280,636.6-279.9,636.5z M-275.9,639.7c0-0.1,0-0.2,0-0.2
						C-275.8,639.5-275.8,639.6-275.9,639.7c0.1-0.1,0.1-0.2,0.1-0.3l0,0c0-0.1,0-0.1,0-0.2c0,0,0.1,0.1,0.1,0.1l0-0.1l0.1,0l0,0.1
						l0.1,0c0,0,0-0.1,0-0.2l-0.1,0c0,0,0-0.1,0-0.1c0,0-0.1,0-0.2,0c0,0.1,0,0.1,0,0.2c0-0.1,0-0.2-0.1-0.4
						C-276,639.2-275.9,639.5-275.9,639.7z M-279.1,645.4c0,0.1,0,0.2,0.1,0.2c0-0.1,0-0.2,0-0.2C-279,645.4-279,645.4-279.1,645.4z
						"/>
				</g>
				<g>
					<path d="M-271.7,636.2c0.1-0.1,0.2-0.1,0.3-0.1c0.1,0.1,0.3,0.1,0.4,0.1c0,0,0.1,0,0.1,0c0-0.1-0.1-0.2-0.1-0.2
						c0.2,0.1,0.3,0.3,0.5,0.3c0.1,0.2,0.2,0.4,0.4,0.5c0.1,0.3,0.4,0.6,0.5,0.9c0.2,0.3,0.3,0.7,0.4,1.1c0.1,0.4,0.2,0.8,0.4,1.2
						c0.1,0.4,0.2,0.8,0.3,1.3c0.1,0.3,0.2,0.6,0.3,0.9c0.1,0.6,0.3,1.1,0.4,1.7c0.1,0.3,0.1,0.7,0.2,1c0.1,0.3-0.2,0.6-0.5,0.7
						c-0.1,0-0.1,0-0.2,0v-0.1c-0.1,0-0.1,0.1-0.2,0.1c0,0,0-0.1-0.1-0.2c0,0-0.1,0.1-0.1,0.1l-0.1-0.1c0,0,0,0.1,0,0.2
						c-0.1,0-0.2,0-0.2,0.1c-0.1-0.1-0.2-0.2-0.3-0.3c0,0,0,0.1,0,0.2c-0.1-0.1-0.1-0.2-0.2-0.2c0,0,0,0.1-0.1,0.1
						c-0.2-0.4-0.2-0.9-0.3-1.3c-0.1-0.5-0.3-1-0.4-1.5c-0.4,0.2-0.9,0.4-1.3,0.4c-0.3,0-0.6,0.1-1,0.1c-0.1,0.4-0.1,0.8-0.2,1.2
						c-0.1,0.2-0.1,0.5-0.1,0.7c-0.1,0.2,0,0.4-0.1,0.6c-0.1,0.2-0.3,0.3-0.5,0.4c-0.1,0-0.2-0.1-0.3,0c-0.1-0.1-0.3-0.2-0.4-0.3
						c0,0,0,0.1,0,0.2c-0.1-0.1-0.2-0.2-0.4-0.3c-0.1,0-0.1,0-0.2-0.1c0,0-0.1,0.1-0.1,0.1c0-0.2,0-0.3,0-0.5c0,0,0.1,0.1,0.1,0.1
						l0-0.1c0,0,0.1,0,0.1,0c0-0.2,0.1-0.3,0-0.5c0,0,0.1-0.1,0.1-0.2c0,0.1,0,0.2,0,0.2c0.1-0.1,0.1-0.3,0-0.5l0.1,0.1l0-0.1
						c0,0,0.1,0.1,0.1,0.1c0-0.1,0-0.2,0.1-0.2c0,0-0.1,0.1-0.2,0.1c0-0.1,0.1-0.3,0-0.4c0-0.1,0-0.2,0.1-0.4c0-0.1,0-0.1,0-0.2
						c0,0.1,0,0.3-0.2,0.3c0-0.1,0-0.3,0-0.4c0,0,0.1,0.1,0.1,0.2c0,0,0-0.1,0.1-0.2c0,0,0.1-0.1,0.1-0.1c0.1-0.1,0-0.2,0-0.3
						c0.1-0.2,0.1-0.5,0.2-0.6c0.1-0.3,0.2-0.5,0.3-0.8c0,0-0.1,0.1-0.2,0.2c0-0.1,0.1-0.2,0.1-0.4c0,0-0.1,0-0.1,0
						c0-0.1,0.1-0.2,0.1-0.3c0.1-0.1,0.1-0.3,0.3-0.3c0,0,0-0.1-0.1-0.1c0-0.1,0.1-0.1,0.1-0.2c0,0-0.1,0-0.1,0
						c0.1-0.1,0.1-0.3,0.2-0.4c0-0.1,0-0.2,0-0.2c0.1-0.1,0.2-0.1,0.2-0.2c-0.1,0.1,0,0.2,0.1,0.2c0-0.1,0-0.2,0-0.2
						c0.1,0.3-0.1,0.6-0.1,0.9c0,0-0.1,0-0.1,0c0-0.1,0.1-0.2,0.1-0.2c-0.1,0-0.2-0.1-0.2,0c0,0,0.1,0,0.1,0.1
						c-0.1,0.1-0.1,0.3,0,0.4c0,0,0.1-0.1,0.1-0.1c0,0,0,0.1,0,0.2c0.1-0.1,0.1-0.2,0.2-0.3c-0.2-0.2,0.2-0.3,0.1-0.5
						c0-0.1,0-0.1,0.1-0.2c0,0.1,0,0.2,0,0.2c0.1-0.2,0.2-0.4,0.2-0.5c-0.1,0.1-0.1,0.2-0.2,0.2c0-0.1,0-0.2,0.1-0.2
						c0-0.3,0.2-0.6,0.2-1c-0.1,0.1-0.1,0.2-0.2,0.3c-0.1,0.2-0.2,0.3-0.3,0.5c0.1-0.2,0.1-0.3,0.1-0.5l-0.1,0.1c0,0,0-0.1,0.1-0.2
						c-0.1,0-0.1,0-0.2,0c0-0.1,0.1-0.3,0.1-0.4c0-0.1-0.1-0.1-0.1-0.2c0-0.1,0.1-0.3,0.1-0.4c0,0,0.1,0.1,0.1,0.1
						c0,0,0-0.1-0.1-0.2c0,0,0.1,0,0.1,0c0,0-0.1,0-0.1,0c0.2-0.4,0.2-0.8,0.4-1.1c0.1-0.1,0.2-0.2,0.2-0.4c0.1,0,0.1-0.1,0.2-0.1
						c0.1,0,0.3,0,0.3-0.1C-271.8,636.2-271.7,636.2-271.7,636.2z M-271.7,639.7c-0.2,0.3-0.2,0.7-0.3,1.1c-0.1,0.3-0.2,0.6-0.2,0.9
						c0.5-0.1,1-0.4,1.5-0.6c-0.1-0.4-0.3-0.8-0.3-1.2c-0.2-0.3-0.1-0.8-0.3-1.1C-271.4,639.1-271.5,639.4-271.7,639.7z
						 M-273.2,640.1c0,0,0.1,0,0.1,0c0-0.1,0-0.1-0.1-0.1C-273.1,640-273.2,640.1-273.2,640.1z M-270.9,641.2
						c-0.1,0.1-0.3,0.1-0.5,0.3c0.1,0,0.2,0,0.3,0c-0.1,0.1-0.2,0.1-0.3,0.1c0.1,0,0.1,0.1,0.1,0.2c0.2-0.1,0.4-0.2,0.6-0.2
						c0,0-0.1,0.1-0.1,0.2l0,0c0,0.1-0.1,0.1-0.1,0.2c0.1-0.1,0.2-0.1,0.4-0.2c0,0,0-0.1,0-0.1c0,0-0.1-0.1-0.1-0.1l0.1,0
						c0-0.1-0.1-0.2-0.1-0.3C-270.8,641.2-270.9,641.2-270.9,641.2z"/>
				</g>
				<path d="M-297.9,637.7c0.3-0.1,0.6-0.2,1-0.2c0.1,0,0.2,0.2,0.2,0.3c0-0.1,0-0.2,0-0.3c0.1,0,0.2,0,0.2,0c0,0.1,0.1,0.2,0.1,0.3
					c0,0,0.1,0,0.1-0.1c0.1,0,0.3,0,0.4,0.1c-0.1,0-0.2,0.1-0.3,0.1c0.1,0,0.2,0,0.4,0c0.1,0,0.1,0.1,0.2,0.1c0,0,0,0,0,0.1
					c0.3,0,0.6,0,1-0.1c0.1,0,0.2-0.1,0.2-0.2c0.2-0.1,0.4-0.1,0.6-0.1c-0.1,0-0.1,0.1-0.2,0.1c0.1,0,0.2,0.1,0.4,0.1
					c0,0.1,0,0.1,0.1,0.2c0,0,0.1-0.1,0.1-0.1c0,0,0.1,0.1,0.1,0.1c-0.1,0-0.1,0-0.2-0.1c0.1,0.3,0.2,0.6,0.2,1
					c0,0.1-0.1,0.2-0.2,0.2c-0.3,0.1-0.6,0.1-0.9,0.2c-0.2,0-0.4,0-0.5,0c-0.4,0-0.7,0-1.1,0c0.1,0.1,0,0.3,0,0.4c0,0.4,0,0.8,0,1.3
					c0.5-0.1,0.9-0.1,1.4-0.1c0.3,0,0.6-0.1,0.9,0c0,0,0,0.1,0,0.1c0,0-0.1,0.1-0.2,0.1c0.1,0.1,0.2,0.1,0.3,0.1c0,0.1,0,0.2,0,0.2
					c0,0.2,0.1,0.4,0.1,0.6c0,0-0.1,0.1-0.1,0.1c0,0.1,0,0.2-0.1,0.3c0,0-0.1,0-0.1,0c0,0,0,0.1,0.1,0.1c-0.1,0-0.2,0-0.4,0
					c-0.2,0.1-0.4,0.1-0.5,0.1c-0.4,0.1-0.9-0.1-1.3,0.1c0,0.4,0,0.7,0,1c0.1,0.3,0.1,0.7,0.1,1c0,0.7,0,1.3-0.1,2
					c0,0.2,0,0.4,0,0.5c0,0-0.1-0.1-0.1-0.2c0,0.1,0,0.2-0.1,0.2c0,0-0.1-0.1-0.1-0.1l0,0.1c-0.1-0.1-0.2-0.1-0.3-0.1
					c0,0,0.1-0.1,0.1-0.1l0.1,0.1c0,0,0-0.1,0-0.1c0.1,0,0.2-0.1,0.2-0.1c0,0,0-0.1-0.1-0.1c0,0-0.1,0.1-0.1,0.2
					c0-0.1-0.1-0.1-0.2-0.1c-0.1-0.1-0.3,0-0.4,0c0,0.1,0.1,0.2,0.1,0.3c0,0-0.1,0-0.1,0c0-0.1,0-0.2,0-0.3
					c-0.1-0.1-0.2-0.1-0.2-0.3c0,0.1-0.1,0.1-0.1,0.2c-0.1-0.1-0.2-0.1-0.2-0.2c0-0.2,0-0.4-0.1-0.6c-0.2,0.2-0.1,0.4-0.1,0.6
					c0-0.1,0-0.2-0.1-0.3c0-0.1,0-0.2,0-0.2c-0.1,0.2,0,0.4,0,0.6c-0.1-0.4-0.1-0.8-0.1-1.2c0-0.6,0-1.2,0-1.9c0,0,0.1,0,0.1,0
					c0,0.1-0.1,0.3,0.1,0.4c0.1-0.1,0.2-0.2,0.4-0.1c0-0.4,0-0.8,0-1.2c-0.1,0.1-0.1,0.2-0.1,0.3c0-0.2,0-0.4-0.1-0.6
					c-0.1,0-0.1,0-0.2-0.1c0,0-0.1,0-0.1,0c0-0.1,0-0.2,0-0.2l-0.1,0.1c0-0.4,0-0.7,0.1-1.1c0-0.3,0-0.5-0.1-0.8
					c-0.1-0.4-0.2-0.9-0.1-1.4c0.1-0.4,0-0.9,0.1-1.3C-297.9,637.8-297.9,637.7-297.9,637.7z"/>
				<path d="M-290.6,642.4L-290.6,642.4L-290.6,642.4L-290.6,642.4L-290.6,642.4C-290.5,642.5-290.6,642.5-290.6,642.4z"/>
				<path d="M-271.2,641.6L-271.2,641.6L-271.2,641.6L-271.2,641.6L-271.2,641.6C-271.2,641.6-271.2,641.6-271.2,641.6z"/>
				<path d="M-294.1,645.7c0.1,0.1,0.1,0.3,0,0.4c0,0.1-0.2-0.1-0.1-0.1C-294.2,645.9-294.2,645.8-294.1,645.7z"/>
				<path d="M-274.8,644.8c0.1,0.1,0.1,0.3,0,0.4c0,0.1-0.2-0.1-0.1-0.1C-274.8,645-274.8,644.9-274.8,644.8z"/>
			</g>
		</g>
	</g>
</g>
<g>
	<path d="M-325.2,649.8l0.5,0l0.3,0.1l0.2,0.1l0.2,0.2l0.1,0.2l0.1,0.3l0,0.2l0,0.2l-0.1,0.2l-0.3,0.3l0,0.1l0,0.1l0.1,0.2l0.4,0.6
		l0.1,0.2l0,0.1l-0.1,0.1l-0.1,0l-0.2-0.1l-0.1-0.1l-0.1-0.1l-0.2-0.3l-0.1-0.1l-0.4-0.6l-0.1-0.1l-0.1,0l-0.2,0l-0.1,0l-0.2,0
		l-0.2,0.1l0,0.2l0,0.1l0,0.1l0,0.7l0,0.1l-0.1,0.1l-0.1,0l-0.1,0l-0.1-0.1l-0.1-0.2l-0.1-0.4l0-0.1l0-0.1l0-0.1l0-0.2l0-0.2l0-0.3
		l0-0.4l0-0.1l0-0.3l0-0.3l0.1-0.2l0.1-0.1l0.1,0l0.2,0L-325.2,649.8C-325.3,649.8-325.2,649.8-325.2,649.8z M-325.3,650.1l-0.1,0
		l-0.1,0.1l-0.1,0.1l0,0.5l0,0.3l0.1,0.1l0.1,0.1l0.3,0l0.2,0l0.3,0l0.1,0l0.2-0.1l0.1-0.1l0.1-0.3l0-0.2l-0.1-0.1l-0.2-0.2l-0.1,0
		l-0.3,0l-0.1,0L-325.3,650.1z"/>
	<path d="M-322.6,649.7l0.4,0l0.2,0l0.3,0l0.5,0l0.1,0l0.1,0l0,0.1l0,0.1l-0.1,0.1l-0.2,0l-0.6,0l-0.1,0l0,0l-0.3,0l-0.1,0l-0.1,0.1
		l0,0.1l0,0.2l0,0.1l0,0l0,0.2l0,0.1l0.1,0.1l0.3,0.1l0.3,0l0.1,0l0.1,0l0.1,0l0.1,0l0.1,0.1c0,0,0,0.1,0,0.1l-0.1,0.1l-0.1,0
		l-0.1,0l-0.1,0l-0.6,0l-0.1,0l0,0.1l0,0.3l0,0.4l0,0.2l0.1,0.1l0.2,0l0.1,0l0.1,0l0.3,0l0.2,0l0.4,0l0.1,0.1l0,0.1l0,0.1l-0.1,0
		l-0.9,0.1l-0.3,0l-0.2,0l-0.2,0l-0.1-0.1l-0.1-0.1l0-0.1l0-0.7l0-0.1l0-0.2l0-0.1l0-0.3l0-0.4l0-0.2l0-0.1l0-0.1l0-0.5l0-0.1
		l0.1-0.1L-322.6,649.7L-322.6,649.7z"/>
	<path d="M-319.2,649.5l0.2,0l0.1,0l0.1,0l0.1,0.1l0.1,0.3l0,0.3l0,0.1l0,0.2l0.1,0.1l0,0.1l0.1,0.2l0.1,0.1l0.3,0.8l0,0.2l0.1,0.2
		l0,0.2l0,0.1l0,0.1l-0.1,0.1l-0.1,0l-0.1,0l-0.1-0.1l-0.1-0.1l-0.1-0.1l-0.1-0.3l-0.2-0.5l-0.1-0.1l-0.5,0l-0.2,0l-0.1,0l-0.1,0
		l0,0.1l0,0.2l0,0.1l-0.1,0.4l0,0.1l0,0.1l-0.1,0.1l0,0.1l0,0.1l-0.1,0l-0.1,0l-0.1-0.1l0-0.1l0-0.1l0.1-0.4l0-0.1l0-0.2l0-0.2
		l0.3-1l0-0.1l0.1-0.2l0.1-0.4l0.1-0.2l0.1-0.3l0.1,0L-319.2,649.5z M-319.1,650.1L-319.1,650.1l-0.3,1.1l0,0.1l0.1,0l0.4,0l0.1,0
		l0-0.1l0-0.1l0-0.1l0-0.1l-0.1-0.4l-0.1-0.2L-319.1,650.1C-319,650.1-319.1,650.1-319.1,650.1z"/>
	<path d="M-317,649.5l0.1,0l0.1,0.1l0,0.1l0,0.2l0,0.1l0,0.9l0,0.2l0,0.6l0.1,0.4c0,0,0,0.1,0.1,0.1l0.1,0l0.9,0l0.2,0
		c0,0,0.1,0,0.1,0.1l0,0.1l-0.1,0.1l-0.1,0l-0.1,0l-0.6,0.1l-0.1,0l-0.1,0l-0.2,0l-0.3-0.1l-0.1-0.1l-0.1-0.1l0-0.8l0-0.1l-0.1-0.7
		l0-0.1l0-0.1l0-0.2l0-0.4l0-0.4l0.1-0.1L-317,649.5z"/>
	<path d="M-311,649.3l0.4,0l0.2,0l0.3,0l0.5,0l0.1,0l0.1,0.1l0,0.1l0,0.1l-0.1,0.1l-0.2,0l-0.6,0l-0.1,0l0,0l-0.3,0l-0.1,0l-0.1,0.1
		l0,0.1l0,0.2l0,0.1l0,0l0,0.2l0,0.1l0.1,0.1l0.3,0.1l0.3,0l0.1,0l0.1,0l0.1,0l0.1,0l0.1,0.1c0,0,0,0.1,0,0.1l-0.1,0.1l-0.1,0
		l-0.1,0l-0.1,0l-0.6,0l-0.1,0l0,0.1l0,0.3l0,0.4l0,0.2l0.1,0.1l0.2,0l0.1,0l0.1,0l0.3,0l0.2,0l0.4,0l0.1,0.1l0,0.1l0,0.1l-0.1,0
		l-0.9,0.1l-0.3,0l-0.2,0l-0.2,0l-0.1,0l-0.1-0.1l0-0.1l0-0.7l0-0.1l0-0.2l0-0.1l0-0.3l0-0.4l0-0.2l0-0.1l0-0.1l0-0.5l0-0.1l0.1-0.1
		L-311,649.3L-311,649.3z"/>
	<path d="M-304.6,649.1l0.1,0l0.1,0.1l0,0.2l0,1.3l0,0.1l0,0.1l0,0.1l0,0.1l0,0.2l0,0l0,0.2l0,0.2l0,0.4l0,0.1l-0.1,0.1l-0.1,0
		l-0.1,0l0-0.1l0-0.1l0-0.4l0-0.5l0-0.2l-0.1-0.9l0-0.3l0-0.3l0-0.2L-304.6,649.1L-304.6,649.1z"/>
	<path d="M-302.5,649l0.1,0l0.5,0.6l0,0.1l0.1,0.2l0,0.1l0.6,0.9l0.1,0.1l0.1-0.1l0-0.3l0-0.1l0-0.3l0-0.3l0-0.1l0-0.3l0-0.2l0-0.3
		l0-0.2l0.1-0.1l0,0l0.1,0c0,0,0.1,0,0.1,0.1l0,0.1l0.1,0.4l0,0.3l0,0.1v0.4l0,0.1l0,0.5l0,0.1l0,0.7l-0.1,0.3l-0.1,0.1l-0.1-0.1
		l-0.1-0.1l-0.1-0.1l0-0.1l-0.3-0.5l0-0.1l-0.1-0.2l0-0.1l-0.3-0.4l0-0.1l-0.1-0.2l-0.1-0.1c0,0-0.1,0-0.1,0l0,0.1l0,0.3l0,0l0,0.1
		l0,0.2l0,0.1l0,0.4l0,0.1l0,0.1l0,0.1l0,0.2l0,0.1l-0.1,0.1l0,0l-0.1,0l-0.1-0.1l0-0.1l0-0.3l0-0.1l0-0.4l-0.1-0.6l0-0.2l0-0.6
		l0-0.2l0-0.2l0,0l0.1-0.2l0.1-0.1L-302.5,649z"/>
	<path d="M-299,648.8l0.3,0l0.3,0.1l0.1,0.1l0.1,0.1l0.3,0.3l0.1,0.1l0.1,0.3l0.1,0.8l0,0.3l-0.1,0.5l-0.1,0.2l-0.1,0.2l-0.1,0.1
		l-0.2,0.2l-0.2,0.1l-0.3,0l-0.2,0l-0.5,0l-0.2,0l-0.1-0.1l-0.1-0.1l0-0.2l0-0.1l0-0.4l0-0.8l0-0.1l0-0.1l0-0.1l-0.1-0.5l0-0.5
		c0,0,0-0.1,0.1-0.1l0.1-0.1l0.3,0c0.1,0,0.1,0,0.2,0C-299.1,648.8-299,648.8-299,648.8z M-298.9,649.3l-0.4,0l-0.1,0l-0.1,0.1
		l0,0.2l0,0l0,1.2l0,0.2l0,0.6l0,0.1l0.1,0l0.1,0l0.4,0l0.1,0l0.2-0.1l0.2-0.1l0.1-0.1l0.1-0.3l0-0.1l0.1-0.4l0-0.2l0-0.1l0-0.1
		l0-0.2l-0.1-0.4l-0.1-0.1l-0.2-0.2l-0.2-0.1L-298.9,649.3z"/>
	<path d="M-296.4,648.7l0.4,0l0.2,0l0.3,0l0.5,0l0.1,0l0.1,0.1l0,0.1l0,0.1l-0.1,0.1l-0.2,0l-0.6,0l-0.1,0l0,0l-0.3,0l-0.1,0
		l-0.1,0.1l0,0.1l0,0.2l0,0.1l0,0l0,0.2l0,0.1l0.1,0.1l0.3,0.1l0.3,0l0.1,0l0.1,0l0.1,0l0.1,0l0.1,0.1c0,0,0,0.1,0,0.1l-0.1,0.1
		l-0.1,0l-0.1,0l-0.1,0l-0.6,0l-0.1,0l0,0.1l0,0.3l0,0.4l0,0.2l0.1,0.1l0.2,0l0.1,0l0.1,0l0.3,0l0.2,0l0.4,0l0.1,0.1l0,0.1l0,0.1
		l-0.1,0l-0.9,0.1l-0.3,0l-0.2,0l-0.2,0l-0.1-0.1l-0.1-0.1l0-0.1l0-0.7l0-0.1l0-0.2l0-0.1l0-0.3l0-0.4l0-0.2l0-0.1l0-0.1l0-0.5
		l0-0.1l0.1-0.1l0.1,0L-296.4,648.7z"/>
	<path d="M-293.4,648.5L-293.4,648.5l0.3,0l0.1,0l0.1,0l0.2,0l0.3,0l0.1,0l0.1,0.1l0.1,0.1l0.2,0.2l0.2,0.4l0,0.5l0,0.1l-0.1,0.2
		l-0.1,0.1l-0.2,0.1l-0.1,0l-0.2,0l-0.2,0l-0.1,0l-0.2,0l-0.1,0l-0.2,0c0,0-0.1,0-0.1,0l0,0l0,0.1l-0.1,0.1l0,0.2l0,0.1l0,0.3l0,0.2
		l0,0.1l-0.1,0.1l-0.1,0l-0.1,0l-0.1-0.1l0-0.3l0,0l0-0.4l0-0.1l0-0.8l0-0.1l0-0.1l0-0.1l0-0.1l0-0.5l0-0.1l0-0.2l0-0.1l0.1-0.1
		l0.1,0l0.2,0L-293.4,648.5L-293.4,648.5z M-293.2,648.9l-0.3,0l-0.1,0.1l0,0.1l0,0.3l0,0.3l0.1,0.2l0.1,0.1l0.1,0l0.2,0l0.2,0
		l0.1,0l0.3,0l0.1,0l0.1-0.1l0.1-0.1l0.1-0.1l0-0.3l0-0.1l0-0.1l-0.1-0.1l-0.1-0.1l-0.2-0.1l-0.4,0L-293.2,648.9z"/>
	<path d="M-290.6,648.5l0.4,0l0.2,0l0.3,0l0.5,0l0.1,0l0.1,0l0,0.1l0,0.1l-0.1,0.1l-0.2,0l-0.6,0l-0.1,0l0,0l-0.3,0l-0.1,0l-0.1,0.1
		l0,0.1l0,0.2l0,0.1l0,0l0,0.2l0,0.1l0.1,0.1l0.3,0.1l0.3,0l0.1,0l0.1,0l0.1,0l0.1,0l0.1,0.1c0,0,0,0.1,0,0.1l-0.1,0.1l-0.1,0
		l-0.1,0l-0.1,0l-0.6,0l-0.1,0l0,0.1l0,0.3l0,0.4l0,0.2l0.1,0.1l0.2,0l0.1,0l0.1,0l0.3,0l0.2,0l0.4,0l0.1,0.1l0,0.1l0,0.1l-0.1,0
		l-0.9,0.1l-0.3,0l-0.2,0l-0.2,0l-0.1-0.1l-0.1-0.1l0-0.1l0-0.7l0-0.1l0-0.2l0-0.1l0-0.3l0-0.4l0-0.2l0-0.1l0-0.1l0-0.5l0-0.1
		l0.1-0.1l0.1,0L-290.6,648.5z"/>
	<path d="M-287.9,648.5l0.1,0.1l0.5,0.6l0.1,0.1l0.1,0.2l0,0.1l0.6,0.9l0.1,0.1l0.1-0.1l0-0.3l0-0.1l0-0.3l0-0.3l0-0.1l0-0.3l0-0.2
		l0-0.3l0-0.2l0.1-0.1l0,0l0.1,0c0,0,0.1,0,0.1,0.1l0,0.1l0.1,0.4l0,0.3l0,0.1l0,0.4l0,0.1l0,0.5l0,0.1l0,0.7l-0.1,0.3l-0.1,0.1
		l-0.1-0.1l-0.1-0.1l-0.1-0.1l0-0.1l-0.3-0.5l0-0.1l-0.1-0.2l0-0.1l-0.3-0.4l0-0.1l-0.1-0.2l-0.1-0.1c0,0-0.1,0-0.1,0l0,0.1l0,0.3
		l0,0l0,0.1l0,0.2l0,0.1l0,0.4l0,0.1l0,0.1l0,0.1l0,0.2l0,0.1l-0.1,0.1l0,0l-0.1,0l-0.1-0.1l0-0.1l0-0.3l0-0.1v-0.4l-0.1-0.6l0-0.2
		l0-0.6l0-0.2l0-0.2l0,0l0.1-0.2l0.1-0.1L-287.9,648.5z"/>
	<path d="M-284.4,648.3l0.3,0l0.3,0.1l0.1,0.1l0.1,0.1l0.3,0.3l0.1,0.1l0.1,0.2l0.1,0.8l0,0.3l-0.1,0.5l-0.1,0.2l-0.1,0.2l-0.1,0.1
		l-0.2,0.2l-0.2,0.1l-0.3,0.1l-0.2,0l-0.5,0l-0.2,0l-0.1-0.1l-0.1-0.1l0-0.2l0-0.2l0-0.4l0-0.8l0-0.1l0-0.1l0-0.1l-0.1-0.5l0-0.5
		c0,0,0-0.1,0.1-0.1l0.1-0.1l0.3,0c0.1,0,0.1,0,0.2,0C-284.5,648.3-284.5,648.3-284.4,648.3z M-284.3,648.8l-0.4,0l-0.1,0l-0.1,0.1
		l0,0.2l0,0l0,1.2l0,0.2l0,0.6l0,0.1l0.1,0l0.1,0l0.4,0l0.1,0l0.2-0.1l0.2-0.1l0.1-0.1l0.1-0.3l0-0.1l0.1-0.4l0-0.2l0-0.1l0-0.1
		l0-0.2l-0.1-0.4l-0.1-0.1l-0.2-0.2l-0.2-0.1L-284.3,648.8z"/>
	<path d="M-281.3,648.3l0.1,0l0.1,0.1l0,0.2l0,1.3l0,0.1l0,0.1l0,0.1l0,0.1l0,0.2l0,0l0,0.1l0,0.2l0,0.4l0,0.1l-0.1,0.1l-0.1,0
		l-0.1,0l0-0.1l0-0.1l0-0.4l0-0.5l0-0.2l-0.1-0.9l0-0.3l0-0.3l0-0.2L-281.3,648.3L-281.3,648.3z"/>
	<path d="M-278.9,648.1l0.4,0l0.2,0l0.3,0l0.5,0l0.1,0l0.1,0l0,0.1l0,0.1l-0.1,0.1l-0.2,0l-0.6,0l-0.1,0l0,0l-0.3,0l-0.1,0l-0.1,0.1
		l0,0.1l0,0.2l0,0.1l0,0l0,0.2l0,0.1l0.1,0.1l0.3,0.1l0.3,0l0.1,0l0.1,0l0.1,0l0.1,0l0.1,0.1c0,0,0,0.1,0,0.1l-0.1,0.1l-0.1,0
		l-0.1,0l-0.1,0l-0.6,0l-0.1,0l0,0.1l0,0.3l0,0.4l0,0.2l0.1,0.1l0.2,0l0.1,0l0.1,0l0.3,0l0.2,0l0.4,0l0.1,0.1l0,0.1l0,0.1l-0.1,0
		l-0.9,0.1l-0.3,0l-0.2,0l-0.2,0l-0.1-0.1l-0.1-0.1l0-0.1l0-0.7l0-0.1l0-0.2l0-0.1l0-0.3l0-0.4l0-0.2l0-0.1l0-0.1l0-0.5l0-0.1
		l0.1-0.1l0.1,0L-278.9,648.1z"/>
	<path d="M-276.3,648l0.1,0l0.5,0.6l0,0.1l0.1,0.2l0,0.1l0.6,0.9l0.1,0.1l0.1-0.1l0-0.3l0-0.1l0-0.3l0-0.3l0-0.1l0-0.3l0-0.2l0-0.3
		l0-0.2l0.1-0.1l0,0l0.1,0c0,0,0.1,0,0.1,0.1l0,0.1l0.1,0.4l0,0.3l0,0.1l0,0.4l0,0.1l0,0.5l0,0.1l0,0.7l-0.1,0.3l-0.1,0l-0.1,0
		l-0.1-0.1l-0.1-0.1l-0.1-0.1l-0.3-0.5l0-0.1l-0.1-0.2l0-0.1l-0.3-0.4l0-0.1l-0.1-0.2l-0.1-0.1c0,0-0.1,0-0.1,0l0,0.1l0,0.3l0,0
		l0,0.1l0,0.2l0,0.1l0,0.4l0,0.1l0,0.1l0,0.1l0,0.2l0,0.1l-0.1,0.1l0,0l-0.1,0l-0.1-0.1l0-0.1l0-0.3l0-0.1l0-0.4l-0.1-0.6l0-0.2
		l0-0.6l0-0.2l0-0.2l0,0l0.1-0.2l0.1-0.1L-276.3,648z"/>
	<path d="M-273.2,647.9l0.2,0l0.6,0l0.2,0l0.2,0l0.1,0l0,0l0.3,0c0,0,0.1,0,0.1,0c0,0,0.1,0.1,0.1,0.1c0,0,0,0.1-0.1,0.1l-0.1,0
		l-0.5,0c0,0-0.1,0-0.1,0.1l-0.1,0.1l0,0.2l0.1,1.3l0,0.1l0,0.1l0,0.8l0,0l0,0.2l-0.1,0.1l-0.1,0c0,0-0.1-0.1-0.1-0.1l0-0.2l0-0.1
		l0-0.4l0-0.1l0-0.1l0-0.1l-0.1-0.5l0-0.2l0-0.1l0-0.2l0-0.5l0-0.1l-0.1-0.1l-0.1,0l-0.3,0l-0.2,0l-0.1-0.1l0-0.1l0-0.1
		c0,0,0.1-0.1,0.1-0.1L-273.2,647.9z"/>
	<path d="M-270.2,647.8l0.4,0l0.2,0l0.3,0l0.5,0l0.1,0l0.1,0.1l0,0.1l0,0.1l-0.1,0.1l-0.2,0l-0.6,0l-0.1,0l0,0l-0.3,0l-0.1,0
		l-0.1,0.1l0,0.1l0,0.2l0,0.1l0,0l0,0.2l0,0.1l0.1,0.1l0.3,0.1l0.3,0l0.1,0l0.1,0l0.1,0l0.1,0l0.1,0.1c0,0,0,0.1,0,0.1l-0.1,0.1
		l-0.1,0l-0.1,0l-0.1,0l-0.6,0l-0.1,0l0,0.1l0,0.3l0,0.4l0,0.2l0.1,0.1l0.2,0l0.1,0l0.1,0l0.3,0l0.2,0l0.4,0l0.1,0.1l0,0.1l0,0.1
		l-0.1,0l-0.9,0.1l-0.3,0l-0.2,0l-0.2,0l-0.1-0.1l-0.1-0.1l0-0.1l0-0.7l0-0.1l0-0.2l0-0.1l0-0.3l0-0.4l0-0.2l0-0.1l0-0.1l0-0.5
		l0.1-0.1l0.1-0.1l0.1,0L-270.2,647.8z"/>
</g>
</svg>
