<?xml version="1.0" encoding="utf-8"?>
<!-- Generator: Adobe Illustrator 16.0.0, SVG Export Plug-In . SVG Version: 6.00 Build 0)  -->
<!DOCTYPE svg PUBLIC "-//W3C//DTD SVG 1.1//EN" "http://www.w3.org/Graphics/SVG/1.1/DTD/svg11.dtd">
<svg version="1.1" id="Layer_1" xmlns="http://www.w3.org/2000/svg" xmlns:xlink="http://www.w3.org/1999/xlink" x="0px" y="0px"
	 width="100px" height="100px" viewBox="0 0 100 100" enable-background="new 0 0 100 100" xml:space="preserve">
<g>
	<path fill="#E20713" d="M1.115,30.195c0.073-0.001,0.146-0.004,0.219-0.004c32.488,0,64.977,0,97.465,0
		c0.245,0,0.245,0,0.245,0.251c0,0.652-0.003,1.304,0.003,1.956c0.001,0.123-0.023,0.184-0.156,0.164
		c-0.055-0.008-0.109-0.001-0.166-0.001c-32.451,0-64.904,0-97.355,0c-0.084,0-0.169,0.007-0.254,0.01
		C1.115,31.779,1.115,30.987,1.115,30.195z M61.25,30.97c0.277,0.391,0.523,0.737,0.771,1.083c0.127,0.175,0.344,0.173,0.474-0.004
		c0.257-0.35,0.514-0.701,0.8-1.092c0,0.151,0.002,0.252,0,0.354c-0.003,0.145,0.04,0.322-0.027,0.425
		c-0.06,0.089-0.248,0.024-0.381,0.027c-0.078,0.002-0.109,0.027-0.104,0.106c0.005,0.067,0.005,0.134,0.001,0.201
		c-0.007,0.082,0.03,0.103,0.106,0.103c0.641-0.002,1.278-0.002,1.918,0c0.066,0,0.104-0.016,0.099-0.09
		c-0.005-0.073-0.005-0.146,0.001-0.219c0.007-0.085-0.034-0.098-0.107-0.101c-0.132-0.004-0.316,0.062-0.381-0.028
		c-0.066-0.094-0.023-0.268-0.023-0.407c-0.002-0.355,0-0.366,0.354-0.356c0.166,0.004,0.157-0.082,0.15-0.189
		c-0.008-0.103,0.052-0.232-0.152-0.227c-0.486,0.013-0.975,0.018-1.461-0.001c-0.294-0.011-0.555-0.005-0.682,0.318
		c-0.002,0.003-0.012,0.004-0.023,0.008c-0.057-0.076-0.111-0.154-0.17-0.232c-0.041-0.056-0.086-0.091-0.165-0.091
		c-0.664,0.003-1.327,0.003-1.991,0c-0.074,0-0.113,0.017-0.105,0.101c0.006,0.061,0.007,0.123,0,0.183
		c-0.016,0.109,0.037,0.127,0.135,0.128c0.378,0.004,0.378,0.007,0.378,0.39c0,0.012,0,0.024,0,0.037c0,0.365,0,0.376-0.363,0.366
		c-0.188-0.006-0.147,0.106-0.147,0.208c0.002,0.1-0.045,0.215,0.146,0.209c0.426-0.015,0.854-0.012,1.278,0
		c0.155,0.004,0.185-0.044,0.192-0.192c0.013-0.195-0.06-0.247-0.234-0.221c-0.061,0.009-0.122-0.003-0.184,0.002
		c-0.084,0.008-0.101-0.032-0.1-0.106C61.253,31.448,61.25,31.236,61.25,30.97z M16.921,31.355c0.07-0.036,0.12-0.057,0.166-0.085
		c0.108-0.067,0.223-0.127,0.226-0.283c0.003-0.165-0.112-0.233-0.229-0.299c-0.174-0.099-0.369-0.121-0.562-0.125
		c-0.456-0.009-0.913-0.005-1.369-0.006c-0.444,0-0.888,0-1.333,0c-0.301,0-0.298,0-0.277,0.295
		c0.005,0.078,0.028,0.104,0.106,0.107c0.131,0.005,0.314-0.063,0.379,0.032c0.066,0.096,0.021,0.269,0.024,0.407
		c0,0.006,0,0.012,0,0.019c0,0.342,0,0.355-0.35,0.342c-0.203-0.008-0.147,0.117-0.155,0.222c-0.009,0.119-0.008,0.199,0.163,0.196
		c0.59-0.013,1.181-0.012,1.771,0c0.173,0.003,0.225-0.036,0.222-0.216c-0.002-0.167-0.051-0.216-0.207-0.194
		c-0.071,0.01-0.146-0.003-0.219,0.003c-0.091,0.007-0.126-0.021-0.126-0.12c0-0.105,0.055-0.102,0.126-0.1
		c0.104,0.002,0.207,0,0.311,0c0.313,0,0.374,0.041,0.477,0.333c0.06,0.171,0.166,0.284,0.356,0.287
		c0.292,0.004,0.584,0.008,0.876,0c0.269-0.008,0.475-0.219,0.471-0.477c-0.001-0.064,0.057-0.182-0.078-0.18
		c-0.094,0.001-0.241-0.076-0.25,0.124c-0.003,0.061-0.061,0.109-0.123,0.121c-0.076,0.014-0.084-0.061-0.1-0.107
		C17.171,31.512,17.064,31.436,16.921,31.355z M52.159,31.354c0.067-0.033,0.108-0.047,0.146-0.07
		c0.116-0.074,0.252-0.132,0.246-0.307c-0.005-0.18-0.14-0.246-0.271-0.308c-0.225-0.106-0.469-0.111-0.713-0.111
		c-0.84-0.001-1.679,0-2.52,0c-0.285,0-0.281,0-0.267,0.288c0.004,0.088,0.033,0.113,0.118,0.114
		c0.126,0.002,0.292-0.058,0.367,0.026c0.081,0.089,0.017,0.255,0.026,0.388c0.001,0.012,0,0.024,0,0.037
		c0,0.351,0,0.364-0.342,0.349c-0.193-0.009-0.157,0.102-0.164,0.214c-0.009,0.131-0.001,0.208,0.174,0.204
		c0.59-0.013,1.181-0.012,1.771-0.001c0.166,0.003,0.213-0.041,0.209-0.208c-0.004-0.151-0.024-0.231-0.197-0.202
		c-0.077,0.013-0.158-0.003-0.236,0.003c-0.087,0.006-0.114-0.024-0.115-0.112c-0.001-0.094,0.037-0.112,0.118-0.107
		c0.091,0.005,0.183,0.001,0.273,0.001c0.372,0,0.391,0.015,0.528,0.361c0.067,0.168,0.188,0.263,0.377,0.261
		c0.273-0.003,0.547,0.003,0.821-0.001c0.289-0.005,0.503-0.214,0.497-0.489c-0.001-0.061,0.049-0.171-0.07-0.168
		c-0.092,0.003-0.244-0.092-0.256,0.115c-0.003,0.062-0.059,0.107-0.119,0.127c-0.052,0.017-0.076-0.023-0.09-0.066
		C52.427,31.535,52.316,31.435,52.159,31.354z M79.866,31.355c0.065-0.032,0.11-0.05,0.151-0.075
		c0.117-0.073,0.248-0.136,0.241-0.31c-0.008-0.171-0.136-0.238-0.26-0.297c-0.229-0.111-0.481-0.115-0.729-0.115
		c-0.84-0.001-1.681,0-2.521,0c-0.271,0-0.269,0-0.261,0.275c0.002,0.093,0.025,0.127,0.123,0.127c0.125,0,0.296-0.061,0.363,0.029
		c0.062,0.083,0.021,0.245,0.023,0.371c0.001,0.019,0,0.037,0,0.055c0,0.344,0,0.357-0.35,0.343c-0.2-0.008-0.148,0.113-0.155,0.22
		c-0.007,0.118-0.013,0.201,0.161,0.197c0.59-0.013,1.181-0.012,1.771,0c0.173,0.003,0.228-0.033,0.224-0.215
		c-0.002-0.164-0.047-0.218-0.205-0.195c-0.071,0.01-0.146-0.003-0.219,0.002c-0.09,0.007-0.129-0.017-0.127-0.118
		c0-0.104,0.051-0.104,0.125-0.101c0.104,0.003,0.207,0,0.311,0c0.314,0,0.375,0.041,0.479,0.333
		c0.059,0.171,0.164,0.285,0.354,0.288c0.292,0.004,0.584,0.007,0.876,0c0.269-0.007,0.477-0.219,0.473-0.476
		c-0.001-0.064,0.058-0.182-0.077-0.181c-0.093,0-0.24-0.078-0.251,0.122c-0.003,0.062-0.061,0.11-0.122,0.122
		c-0.076,0.015-0.086-0.06-0.101-0.106C80.118,31.514,80.014,31.436,79.866,31.355z M19.713,32.172c0.579,0,1.157-0.003,1.735,0.002
		c0.11,0.001,0.151-0.023,0.143-0.14c-0.011-0.151-0.007-0.304,0-0.456c0.004-0.096-0.032-0.13-0.125-0.128
		c-0.183,0.004-0.365,0.008-0.548-0.001c-0.13-0.006-0.2,0.03-0.174,0.172c0.022,0.124-0.035,0.151-0.15,0.148
		c-0.329-0.007-0.658-0.002-0.986-0.002c-0.062,0-0.119,0.007-0.12-0.089c0-0.093,0.04-0.111,0.121-0.109
		c0.165,0.004,0.329,0.001,0.493,0c0.181-0.001,0.106-0.141,0.117-0.229c0.01-0.084,0.02-0.173-0.12-0.165
		c-0.164,0.01-0.329,0.001-0.493,0.003c-0.065,0-0.119,0.001-0.118-0.091c0.001-0.081,0.031-0.104,0.108-0.104
		c0.341,0.003,0.682,0.001,1.022,0.001c0.053,0,0.107,0.005,0.094,0.074c-0.043,0.226,0.091,0.233,0.254,0.219
		c0.175-0.015,0.404,0.074,0.512-0.034c0.115-0.115,0.018-0.346,0.041-0.525c0.019-0.146-0.044-0.166-0.173-0.165
		c-0.749,0.006-1.498,0.003-2.246,0.003c-0.323,0-0.646,0-0.968,0c-0.284,0-0.279,0-0.279,0.275c0,0.1,0.023,0.137,0.13,0.135
		c0.125-0.002,0.295-0.062,0.363,0.029c0.062,0.083,0.019,0.245,0.021,0.372c0,0.006,0,0.012,0,0.019c0,0.371,0,0.382-0.373,0.375
		c-0.201-0.004-0.13,0.126-0.137,0.218c-0.007,0.097-0.038,0.199,0.14,0.195C18.568,32.164,19.141,32.172,19.713,32.172z
		 M43.062,30.558c-0.469,0-0.938,0.004-1.407-0.003c-0.123-0.002-0.164,0.036-0.147,0.153c0.006,0.048,0.005,0.098,0,0.146
		c-0.01,0.089,0.027,0.112,0.113,0.114c0.131,0.003,0.31-0.064,0.38,0.033c0.064,0.089,0.018,0.258,0.02,0.392
		c0,0.006,0,0.012,0,0.019c0,0.349,0,0.362-0.345,0.348c-0.195-0.008-0.16,0.106-0.164,0.218c-0.004,0.114-0.018,0.204,0.159,0.2
		c0.603-0.013,1.206-0.011,1.808-0.001c0.154,0.002,0.184-0.043,0.192-0.191c0.01-0.192-0.054-0.25-0.232-0.222
		c-0.06,0.01-0.122,0.005-0.183,0.001c-0.058-0.004-0.136,0.034-0.14-0.083c-0.004-0.114,0.058-0.11,0.137-0.11
		c0.335,0.002,0.67,0.006,1.004,0c0.262-0.005,0.521-0.038,0.76-0.158c0.133-0.067,0.249-0.15,0.26-0.322
		c0.012-0.184-0.106-0.276-0.239-0.355c-0.214-0.128-0.451-0.174-0.698-0.175C43.915,30.557,43.488,30.558,43.062,30.558z
		 M74.62,32.17c0.269-0.004,0.534,0.018,0.8-0.038c0.303-0.063,0.587-0.16,0.801-0.399c0.252-0.282,0.219-0.613-0.084-0.835
		c-0.143-0.105-0.303-0.18-0.473-0.229c-0.584-0.169-1.182-0.126-1.773-0.086c-0.305,0.021-0.6,0.105-0.854,0.288
		c-0.381,0.275-0.37,0.718,0.021,0.979c0.142,0.095,0.295,0.164,0.459,0.213C73.878,32.174,74.248,32.179,74.62,32.17z
		 M67.027,32.167c0.103,0,0.287,0.014,0.468-0.002c0.394-0.036,0.771-0.123,1.051-0.434c0.252-0.28,0.216-0.613-0.089-0.834
		c-0.143-0.104-0.303-0.178-0.475-0.227c-0.584-0.169-1.18-0.125-1.773-0.085c-0.298,0.02-0.586,0.104-0.837,0.278
		c-0.394,0.275-0.388,0.725,0.012,0.99c0.138,0.091,0.285,0.16,0.443,0.208C66.193,32.172,66.568,32.181,67.027,32.167z
		 M94.994,30.562c-0.176,0-0.354-0.009-0.529,0.002c-0.265,0.016-0.515,0.083-0.72,0.264c-0.188,0.166-0.194,0.342-0.021,0.516
		c0.139,0.139,0.315,0.2,0.502,0.239c0.396,0.083,0.797,0.081,1.198,0.076c0.062,0,0.123-0.005,0.183,0.009
		c0.054,0.014,0.139,0.021,0.134,0.098s-0.084,0.076-0.144,0.076c-0.226,0.002-0.451,0.003-0.677,0.001
		c-0.187-0.001-0.381,0.019-0.514-0.16c-0.024-0.033-0.067-0.021-0.103-0.021c-0.201-0.001-0.402-0.001-0.604,0
		c-0.039,0-0.1-0.019-0.102,0.045c-0.007,0.14-0.004,0.279-0.002,0.419c0,0.04,0.034,0.05,0.064,0.043
		c0.248-0.062,0.535,0.138,0.757-0.11c0.007-0.008,0.036,0,0.054,0.006c0.446,0.175,0.914,0.099,1.371,0.096
		c0.285-0.002,0.57-0.058,0.807-0.242c0.233-0.184,0.217-0.479-0.034-0.638c-0.114-0.072-0.24-0.115-0.372-0.139
		c-0.409-0.071-0.822-0.074-1.236-0.071c-0.084,0-0.169,0.007-0.251-0.028c-0.046-0.019-0.102-0.028-0.092-0.091
		c0.008-0.046,0.054-0.063,0.099-0.065c0.141-0.005,0.279-0.014,0.42-0.011c0.187,0.004,0.395-0.056,0.555,0.049
		c0.203,0.132,0.41,0.109,0.625,0.105c0.304-0.006,0.361-0.085,0.301-0.388c-0.014-0.058-0.039-0.097-0.096-0.083
		c-0.213,0.049-0.457-0.116-0.646,0.094c-0.008,0.008-0.043-0.007-0.064-0.016C95.578,30.534,95.285,30.56,94.994,30.562z
		 M84.497,30.562c-0.171,0-0.343-0.008-0.513,0.001c-0.282,0.017-0.551,0.087-0.762,0.295c-0.152,0.149-0.152,0.308-0.011,0.465
		c0.106,0.116,0.24,0.187,0.39,0.225c0.295,0.076,0.597,0.112,0.9,0.111c0.2,0,0.4-0.004,0.604,0.007
		c0.056,0.003,0.151,0.018,0.144,0.106c-0.008,0.073-0.089,0.07-0.147,0.07c-0.287,0-0.572-0.001-0.858-0.004
		c-0.101-0.001-0.206-0.019-0.267-0.094c-0.065-0.082-0.139-0.085-0.224-0.083c-0.092,0.002-0.183,0-0.274,0
		c-0.396,0-0.396,0-0.373,0.399c0,0.018,0,0.036,0.002,0.055c0,0.036,0.021,0.061,0.056,0.054c0.25-0.055,0.532,0.127,0.761-0.1
		c0.012-0.011,0.047-0.008,0.066,0c0.447,0.173,0.914,0.094,1.373,0.094c0.261,0,0.521-0.058,0.746-0.203
		c0.306-0.196,0.285-0.543-0.034-0.708c-0.103-0.053-0.212-0.09-0.326-0.109c-0.354-0.058-0.712-0.076-1.071-0.07
		c-0.109,0.001-0.221,0.008-0.328-0.008c-0.062-0.009-0.173-0.006-0.17-0.1c0.004-0.095,0.107-0.084,0.174-0.086
		c0.221-0.006,0.438-0.004,0.658-0.001c0.084,0.001,0.182-0.009,0.246,0.047c0.184,0.155,0.396,0.11,0.604,0.107
		c0.332-0.005,0.328-0.008,0.314-0.339c-0.004-0.104-0.041-0.155-0.141-0.132c-0.199,0.045-0.434-0.115-0.605,0.1
		c-0.005,0.005-0.033-0.01-0.051-0.017C85.093,30.534,84.794,30.558,84.497,30.562z M29.664,32.167c0.158,0,0.317,0.01,0.475-0.002
		c0.261-0.02,0.52-0.062,0.744-0.21c0.295-0.195,0.276-0.536-0.035-0.7c-0.102-0.054-0.211-0.092-0.325-0.111
		c-0.367-0.062-0.737-0.077-1.108-0.071c-0.104,0.001-0.209,0.008-0.309-0.01c-0.061-0.011-0.172-0.005-0.161-0.107
		c0.009-0.081,0.104-0.074,0.166-0.076c0.219-0.006,0.438-0.004,0.657-0.002c0.084,0.001,0.18-0.01,0.248,0.044
		c0.19,0.153,0.408,0.114,0.622,0.11c0.308-0.006,0.362-0.079,0.302-0.386c-0.011-0.057-0.037-0.098-0.094-0.085
		c-0.213,0.048-0.456-0.113-0.646,0.093c-0.008,0.008-0.042-0.007-0.063-0.013c-0.477-0.146-0.966-0.077-1.449-0.068
		c-0.256,0.004-0.5,0.094-0.692,0.282c-0.159,0.154-0.16,0.317-0.008,0.479c0.103,0.11,0.231,0.178,0.375,0.216
		c0.294,0.077,0.595,0.114,0.9,0.113c0.201,0,0.402-0.004,0.603,0.006c0.059,0.003,0.155,0.018,0.151,0.1
		c-0.003,0.084-0.094,0.078-0.158,0.078c-0.225,0.002-0.451,0.003-0.676,0c-0.181-0.001-0.369,0.014-0.496-0.159
		c-0.024-0.034-0.067-0.022-0.103-0.022c-0.201,0-0.402,0-0.603,0c-0.057,0-0.099-0.002-0.111,0.08
		c-0.056,0.39-0.025,0.43,0.362,0.43c0.012,0,0.025,0.003,0.036,0c0.141-0.046,0.333,0.109,0.431-0.11
		c0.002-0.005,0.046,0.002,0.067,0.011C29.055,32.194,29.36,32.173,29.664,32.167z M33.074,30.558c-0.59,0-1.181,0.002-1.771-0.002
		c-0.106,0-0.154,0.018-0.145,0.138c0.011,0.146,0.01,0.292,0,0.438c-0.007,0.109,0.037,0.132,0.136,0.128
		c0.176-0.007,0.353-0.005,0.529,0c0.089,0.003,0.147-0.018,0.13-0.118c-0.027-0.157,0.04-0.191,0.188-0.187
		c0.371,0.011,0.372,0.003,0.372,0.368c0,0.061,0,0.122,0,0.183c0,0.263,0,0.263-0.271,0.263c-0.287,0-0.282,0-0.277,0.283
		c0.002,0.096,0.03,0.124,0.125,0.124c0.658-0.004,1.315-0.002,1.972-0.003c0.04,0,0.105,0.017,0.111-0.033
		c0.012-0.107,0.024-0.223-0.001-0.325c-0.022-0.09-0.126-0.042-0.192-0.043c-0.365-0.005-0.365-0.003-0.365-0.372
		c0-0.446,0-0.44,0.442-0.443c0.134-0.001,0.174,0.043,0.154,0.165c-0.019,0.117,0.038,0.146,0.146,0.141
		c0.158-0.008,0.316-0.007,0.475,0c0.095,0.004,0.146-0.012,0.138-0.125c-0.01-0.139-0.012-0.281,0-0.419
		c0.011-0.131-0.035-0.161-0.161-0.16C34.231,30.562,33.652,30.558,33.074,30.558z M70.714,30.558c-0.45,0-0.899-0.003-1.351,0.001
		c-0.182,0.002-0.434-0.081-0.521,0.035c-0.092,0.121-0.027,0.36-0.031,0.548c0,0.006,0.002,0.012,0,0.018
		c-0.006,0.067,0.016,0.1,0.09,0.098c0.201-0.004,0.402-0.003,0.604,0c0.066,0.001,0.113-0.022,0.1-0.092
		c-0.045-0.215,0.084-0.222,0.237-0.209c0.066,0.006,0.134,0.006,0.2,0c0.094-0.009,0.131,0.022,0.125,0.121
		c-0.008,0.134-0.002,0.268-0.002,0.402c0,0.288,0,0.288-0.282,0.288c-0.272,0-0.267,0-0.266,0.276
		c0.001,0.107,0.036,0.131,0.137,0.13c0.651-0.004,1.304-0.002,1.954-0.003c0.04,0,0.105,0.02,0.113-0.027
		c0.016-0.107,0.025-0.221,0.005-0.325c-0.021-0.1-0.123-0.048-0.187-0.049c-0.373-0.006-0.373-0.003-0.373-0.365
		c0-0.466,0-0.466,0.471-0.447c0.014,0,0.025,0.001,0.037,0c0.06-0.004,0.1,0.018,0.086,0.082c-0.041,0.22,0.084,0.235,0.252,0.22
		c0.119-0.01,0.242-0.008,0.363,0c0.106,0.007,0.156-0.016,0.146-0.137c-0.012-0.139-0.012-0.281,0-0.419
		c0.011-0.126-0.04-0.149-0.153-0.148C71.883,30.561,71.299,30.558,70.714,30.558z M88.316,30.558c-0.457,0-0.912-0.003-1.369,0.002
		c-0.18,0.002-0.434-0.082-0.521,0.033c-0.092,0.121-0.027,0.36-0.031,0.548c0,0.012,0.002,0.024,0,0.037
		c-0.008,0.066,0.028,0.082,0.088,0.081c0.201-0.002,0.4-0.002,0.603,0c0.065,0,0.115-0.019,0.101-0.09
		c-0.045-0.232,0.102-0.222,0.254-0.211c0.062,0.004,0.123,0.005,0.184,0c0.091-0.008,0.132,0.018,0.127,0.119
		c-0.007,0.188-0.008,0.378,0.001,0.566c0.005,0.111-0.039,0.138-0.138,0.127c-0.049-0.005-0.098-0.001-0.146-0.001
		c-0.283,0-0.279,0-0.267,0.292c0.003,0.087,0.028,0.114,0.114,0.114c0.664-0.003,1.328-0.001,1.992-0.002
		c0.039,0,0.1,0.016,0.104-0.041c0.009-0.108,0.021-0.225-0.01-0.325c-0.022-0.077-0.129-0.034-0.196-0.035
		c-0.354-0.004-0.354-0.002-0.354-0.363c0-0.482-0.002-0.48,0.486-0.45c0.072,0.004,0.122,0.016,0.107,0.1
		c-0.031,0.176,0.051,0.218,0.211,0.204c0.175-0.015,0.41,0.057,0.51-0.032c0.113-0.103,0.02-0.343,0.038-0.523
		c0.013-0.123-0.034-0.151-0.151-0.149C89.475,30.561,88.896,30.558,88.316,30.558z M55.052,31.762
		c-0.372,0.032-0.368,0.032-0.353,0.308c0.005,0.081,0.029,0.104,0.107,0.103c0.65-0.002,1.303-0.002,1.952,0
		c0.078,0,0.103-0.021,0.106-0.102c0.017-0.291,0.02-0.304-0.272-0.285c-0.182,0.011-0.286-0.055-0.384-0.2
		c-0.208-0.307-0.438-0.599-0.646-0.903c-0.066-0.097-0.141-0.131-0.256-0.127c-0.256,0.008-0.512,0.008-0.767,0
		c-0.116-0.004-0.188,0.031-0.254,0.129c-0.207,0.307-0.433,0.602-0.636,0.911c-0.086,0.132-0.183,0.18-0.34,0.176
		c-0.289-0.008-0.244-0.066-0.259,0.257c-0.006,0.132,0.052,0.146,0.159,0.144c0.4-0.005,0.803-0.012,1.204,0.002
		c0.176,0.006,0.228-0.04,0.222-0.217c-0.007-0.154-0.05-0.208-0.199-0.188c-0.062,0.008-0.129,0.001-0.224,0.001
		c0.163-0.278,0.406-0.125,0.599-0.163C54.934,31.584,55.031,31.62,55.052,31.762z M35.567,31.771
		c0.162-0.266,0.41-0.125,0.617-0.164c0.114-0.021,0.164,0.051,0.195,0.168c-0.108,0-0.224-0.031-0.308,0.008
		c-0.111,0.052-0.029,0.185-0.048,0.28c-0.019,0.092,0.036,0.109,0.117,0.108c0.645-0.002,1.29-0.001,1.935-0.002
		c0.043,0,0.092,0.017,0.111-0.058c0.06-0.238-0.008-0.348-0.247-0.328c-0.203,0.018-0.319-0.058-0.427-0.223
		c-0.2-0.305-0.426-0.591-0.636-0.889c-0.058-0.083-0.119-0.121-0.224-0.118c-0.273,0.008-0.547,0.007-0.821,0
		c-0.097-0.002-0.155,0.032-0.209,0.11c-0.217,0.315-0.446,0.622-0.657,0.941c-0.084,0.127-0.176,0.172-0.327,0.165
		c-0.265-0.013-0.258-0.003-0.264,0.253c-0.003,0.122,0.036,0.152,0.153,0.15c0.414-0.007,0.828-0.01,1.241,0.001
		c0.156,0.004,0.188-0.045,0.189-0.193c0-0.161-0.033-0.242-0.209-0.212C35.689,31.78,35.627,31.771,35.567,31.771z M46.883,31.754
		c-0.389,0.047-0.384,0.047-0.373,0.31c0.004,0.094,0.042,0.108,0.121,0.108c0.645-0.002,1.29-0.001,1.935-0.002
		c0.044,0,0.092,0.016,0.11-0.059c0.059-0.24-0.007-0.348-0.248-0.327c-0.203,0.018-0.319-0.06-0.427-0.224
		c-0.2-0.304-0.426-0.591-0.636-0.889c-0.058-0.083-0.12-0.12-0.224-0.116c-0.273,0.008-0.547,0.007-0.821,0
		c-0.097-0.002-0.155,0.033-0.208,0.111c-0.217,0.315-0.447,0.621-0.657,0.94c-0.084,0.128-0.178,0.168-0.327,0.165
		c-0.296-0.006-0.249-0.063-0.263,0.253c-0.005,0.124,0.038,0.151,0.154,0.149c0.414-0.006,0.828-0.011,1.241,0.001
		c0.159,0.005,0.186-0.048,0.188-0.194c0.002-0.163-0.037-0.24-0.21-0.211c-0.059,0.009-0.121,0.001-0.186,0.001
		c0.067-0.161,0.07-0.182,0.203-0.16C46.46,31.646,46.716,31.485,46.883,31.754z M8.477,31.764
		c-0.061,0.004-0.085,0.007-0.109,0.008c-0.288,0.006-0.285,0.005-0.275,0.285c0.003,0.083,0.021,0.118,0.112,0.117
		c0.651-0.003,1.302-0.001,1.953-0.002c0.039,0,0.08,0.012,0.099-0.049c0.07-0.217-0.016-0.357-0.238-0.336
		c-0.209,0.017-0.331-0.064-0.442-0.233c-0.2-0.304-0.425-0.592-0.635-0.89c-0.054-0.077-0.113-0.111-0.21-0.108
		c-0.273,0.007-0.547,0.007-0.821,0c-0.105-0.003-0.166,0.034-0.223,0.119c-0.188,0.276-0.399,0.537-0.572,0.822
		c-0.128,0.21-0.276,0.317-0.526,0.272c-0.195-0.036-0.135,0.116-0.139,0.211c-0.005,0.098-0.038,0.202,0.14,0.196
		c0.419-0.014,0.84-0.012,1.259,0c0.152,0.004,0.172-0.05,0.178-0.185c0.008-0.173-0.04-0.247-0.219-0.222
		c-0.056,0.008-0.119,0.019-0.175-0.016c0.025-0.119,0.1-0.168,0.211-0.145C8.046,31.65,8.293,31.498,8.477,31.764z M91.66,31.759
		c-0.389,0.039-0.385,0.039-0.369,0.309c0.005,0.078,0.023,0.106,0.104,0.105c0.651-0.002,1.304-0.001,1.953-0.002
		c0.039,0,0.082,0.017,0.105-0.042c0.076-0.198-0.021-0.362-0.229-0.344c-0.207,0.019-0.334-0.05-0.445-0.225
		c-0.197-0.306-0.426-0.591-0.635-0.89c-0.06-0.083-0.123-0.117-0.226-0.114c-0.269,0.007-0.536,0.008-0.804,0
		c-0.111-0.003-0.176,0.038-0.236,0.127c-0.208,0.306-0.432,0.602-0.636,0.911c-0.086,0.131-0.179,0.183-0.339,0.178
		c-0.293-0.009-0.246-0.064-0.26,0.255c-0.006,0.128,0.043,0.148,0.155,0.146c0.401-0.005,0.804-0.011,1.204,0.002
		c0.172,0.005,0.23-0.033,0.223-0.215c-0.006-0.149-0.041-0.212-0.194-0.19c-0.064,0.009-0.132,0.001-0.201,0.001
		c0.022-0.144,0.108-0.188,0.224-0.163C91.253,31.653,91.506,31.484,91.66,31.759z M4.47,32.172c0.578,0,1.157-0.003,1.735,0.002
		c0.112,0.001,0.15-0.029,0.143-0.143c-0.01-0.151-0.008-0.305-0.001-0.457c0.005-0.107-0.04-0.137-0.14-0.134
		c-0.188,0.005-0.378,0.011-0.566-0.001c-0.149-0.01-0.202,0.044-0.178,0.186c0.019,0.112-0.024,0.144-0.138,0.141
		c-0.329-0.008-0.658-0.005-0.986-0.001c-0.084,0.001-0.118-0.02-0.115-0.11c0.006-0.195,0.007-0.39,0-0.584
		c-0.003-0.095,0.038-0.114,0.119-0.107c0.054,0.005,0.109,0.001,0.165,0.001c0.28,0,0.291-0.015,0.262-0.3
		c-0.008-0.075-0.034-0.108-0.111-0.108c-0.646,0.001-1.291,0.001-1.936,0c-0.077,0-0.112,0.023-0.106,0.104
		c0.004,0.067,0.005,0.134,0,0.201c-0.006,0.08,0.027,0.103,0.105,0.105c0.131,0.003,0.316-0.062,0.381,0.028
		c0.067,0.093,0.025,0.268,0.026,0.406c0.002,0.358,0,0.37-0.354,0.357c-0.175-0.006-0.167,0.083-0.161,0.2
		c0.005,0.109-0.037,0.223,0.161,0.218C3.337,32.162,3.903,32.172,4.47,32.172z M23.564,30.977c0.263-0.028,0.259-0.028,0.253-0.294
		c-0.002-0.092-0.023-0.127-0.123-0.127c-0.64,0.004-1.279,0.002-1.919,0.002c-0.04,0-0.103-0.017-0.108,0.037
		c-0.011,0.108-0.027,0.226,0.005,0.325c0.027,0.087,0.139,0.03,0.213,0.041c0.125,0.02,0.261-0.044,0.372,0.085
		c0.227,0.262,0.492,0.494,0.694,0.773c0.215,0.296,0.471,0.406,0.822,0.356c0.084-0.012,0.147-0.032,0.204-0.095
		c0.244-0.272,0.5-0.533,0.733-0.814c0.171-0.207,0.346-0.369,0.641-0.306c0.084,0.018,0.123-0.021,0.114-0.11
		c-0.006-0.061-0.006-0.122,0-0.183c0.009-0.089-0.026-0.113-0.113-0.112c-0.451,0.003-0.901,0.001-1.352,0.002
		c-0.039,0-0.102-0.02-0.107,0.036c-0.01,0.109-0.026,0.226,0.004,0.326c0.027,0.089,0.14,0.021,0.21,0.044
		c0.009,0.003,0.017,0.013,0.025,0.019c-0.252,0.377-0.252,0.377-0.535,0.037C23.588,31.012,23.582,31.001,23.564,30.977z
		 M81.873,32.172c0.322,0,0.646-0.003,0.969,0.002c0.094,0.001,0.137-0.021,0.123-0.121c-0.007-0.054-0.006-0.11,0-0.165
		c0.01-0.091-0.016-0.13-0.117-0.127c-0.125,0.003-0.293,0.059-0.369-0.022c-0.08-0.087-0.018-0.255-0.025-0.387
		c0-0.006,0-0.012,0-0.019c0-0.363,0-0.375,0.365-0.364c0.19,0.006,0.145-0.109,0.146-0.209c0.001-0.102,0.041-0.211-0.146-0.208
		c-0.586,0.012-1.17,0.004-1.756,0.004c-0.267,0-0.258,0-0.263,0.273c-0.002,0.122,0.044,0.136,0.147,0.136
		c0.367,0,0.369,0.004,0.365,0.364c0,0.139,0.059,0.314-0.024,0.405c-0.077,0.085-0.253,0.024-0.386,0.025
		c-0.082,0-0.107,0.029-0.102,0.106c0.006,0.055,0.008,0.11,0,0.164c-0.017,0.114,0.027,0.145,0.141,0.142
		C81.251,32.166,81.562,32.172,81.873,32.172z M26.619,30.558c-0.311,0-0.622,0.013-0.932-0.005c-0.182-0.011-0.161,0.088-0.157,0.2
		c0.004,0.107-0.044,0.227,0.158,0.218c0.354-0.016,0.355-0.001,0.354,0.356c0,0.139,0.042,0.313-0.024,0.407
		c-0.065,0.09-0.25,0.028-0.381,0.028c-0.095,0-0.114,0.039-0.107,0.12c0.004,0.048,0.007,0.098,0,0.146
		c-0.02,0.126,0.04,0.147,0.153,0.147c0.621-0.005,1.243-0.01,1.864,0.002c0.191,0.004,0.145-0.109,0.146-0.209
		c0.001-0.102,0.042-0.213-0.147-0.208c-0.364,0.011-0.367-0.001-0.363-0.365c0.001-0.138-0.057-0.31,0.027-0.405
		c0.071-0.081,0.242-0.025,0.368-0.021c0.103,0.003,0.125-0.04,0.116-0.128c-0.005-0.048-0.007-0.098,0-0.146
		c0.019-0.119-0.036-0.141-0.143-0.138C27.241,30.562,26.93,30.558,26.619,30.558z"/>
	<path fill="#20201E" d="M75.205,48.362c0.215-0.581,0.734-0.702,1.25-0.798c0.846-0.157,1.693-0.084,2.542,0.009
		c0.065,0.008,0.132,0.021,0.198,0.022c0.146,0.004,0.268,0.027,0.228,0.224c-0.013,0.065,0.022,0.106,0.093,0.101
		c0.166-0.015,0.188,0.079,0.178,0.215c-0.008,0.077,0.005,0.156,0.009,0.234c-0.002,0.115-0.011,0.23-0.004,0.346
		c0.006,0.117-0.035,0.161-0.156,0.156c-0.226-0.008-0.452-0.002-0.679-0.002c0.371,0.175,0.691,0.386,0.941,0.719
		c0.143,0.188,0.262,0.359,0.238,0.602c-0.061,0.27-0.234,0.446-0.468,0.575c-0.247,0.135-0.517,0.207-0.789,0.271
		c-0.203,0.047-0.417,0.03-0.613,0.106c-0.5,0-0.999,0-1.499,0c-0.021-0.043-0.062-0.025-0.095-0.028
		c-0.32-0.027-0.64-0.06-0.96-0.076c-0.118-0.007-0.16-0.045-0.148-0.162c0.006-0.051,0.035-0.147-0.058-0.144
		c-0.255,0.014-0.207-0.159-0.208-0.31c-0.001-0.077-0.004-0.157-0.007-0.235c0.003-0.108,0.013-0.219,0.007-0.326
		c-0.005-0.105,0.021-0.154,0.141-0.15c0.229,0.01,0.461,0.008,0.691,0.001c0.102-0.003,0.145,0.029,0.138,0.134
		c-0.003,0.07-0.003,0.189,0.063,0.188c0.135-0.005,0.211,0.099,0.326,0.121c0.35,0.067,0.699,0.042,1.047,0.021
		c0.082-0.005,0.191-0.007,0.266-0.1c-0.166-0.069-0.333-0.096-0.494-0.141c-0.707-0.195-1.453-0.299-1.935-0.967
		C75.312,48.775,75.195,48.599,75.205,48.362z M77.064,50.6c0.438,0.006,0.875-0.002,1.31-0.082c0.349-0.065,0.692-0.144,0.979-0.37
		c0.271-0.213,0.271-0.502,0.01-0.723c-0.108-0.093-0.23-0.158-0.358-0.218c-0.366-0.167-0.754-0.269-1.144-0.368
		c-0.34-0.09-0.69-0.146-0.995-0.339c-0.202-0.126-0.202-0.315-0.005-0.452c0.054-0.037,0.115-0.068,0.18-0.086
		c0.434-0.107,0.868-0.111,1.299,0.006c0.131,0.034,0.266,0.1,0.301,0.24c0.027,0.117,0.09,0.117,0.18,0.117
		c0.387,0.001,0.383,0.003,0.379-0.375c-0.001-0.098-0.023-0.133-0.126-0.146c-0.781-0.096-1.563-0.149-2.349-0.062
		c-0.377,0.043-0.748,0.118-1.063,0.347c-0.3,0.215-0.302,0.516-0.015,0.741c0.146,0.114,0.31,0.192,0.479,0.261
		c0.407,0.164,0.836,0.256,1.261,0.361c0.24,0.061,0.483,0.121,0.695,0.259c0.227,0.146,0.225,0.378-0.001,0.528
		c-0.056,0.036-0.116,0.072-0.181,0.087c-0.535,0.132-1.071,0.125-1.604-0.028c-0.154-0.043-0.294-0.125-0.326-0.308
		c-0.012-0.062-0.053-0.054-0.095-0.06c-0.446-0.049-0.446-0.049-0.444,0.397c0,0.019,0.002,0.037,0,0.056
		c-0.014,0.094,0.025,0.124,0.12,0.131C76.057,50.557,76.559,50.6,77.064,50.6z M77.438,48.497c0.373,0.103,0.739,0.205,1.108,0.299
		c0.05,0.013,0.146,0.112,0.166-0.026c0.015-0.094,0.039-0.221-0.131-0.219c-0.035,0-0.076,0-0.104-0.018
		C78.25,48.41,77.693,48.386,77.438,48.497z"/>
	<path fill="#20201E" d="M84.301,48.375c0.44-0.488,1.031-0.667,1.647-0.777c0.958-0.174,1.923-0.133,2.888-0.059
		c0.212,0.018,0.423,0.043,0.635,0.061c0.113,0.011,0.204,0.031,0.176,0.181c-0.02,0.097,0.019,0.153,0.125,0.144
		c0.115-0.013,0.146,0.041,0.139,0.148c-0.008,0.097,0.002,0.193,0.004,0.291c-0.002,0.141-0.01,0.279-0.005,0.42
		c0.002,0.088-0.017,0.134-0.119,0.131c-0.261-0.006-0.522-0.004-0.785-0.001c-0.079,0.001-0.129-0.017-0.122-0.108
		c0.01-0.121-0.023-0.205-0.172-0.187c-0.021,0.003-0.062-0.004-0.066-0.017c-0.064-0.191-0.228-0.11-0.354-0.129
		c-0.246-0.033-0.491-0.021-0.738-0.004c-0.259,0.021-0.508,0.064-0.738,0.183c-0.418,0.211-0.526,0.593-0.479,0.991
		c0.014,0.102,0.043,0.219,0.172,0.276c0.303,0.136,0.625,0.208,0.948,0.228c0.681,0.041,1.356-0.014,2.019-0.186
		c0.146-0.037,0.192-0.009,0.174,0.137c-0.004,0.029,0.004,0.062,0.006,0.092c0,0.041-0.027,0.123,0.054,0.092
		c0.237-0.092,0.205,0.064,0.202,0.203c-0.003,0.116-0.004,0.231,0.001,0.346c0.003,0.083-0.013,0.129-0.111,0.141
		c-0.223,0.024-0.442,0.062-0.663,0.101c-0.169,0.03-0.345,0.002-0.507,0.071c-0.562,0-1.121,0-1.682,0
		c-0.013-0.037-0.044-0.033-0.073-0.037c-0.261-0.021-0.52-0.055-0.773-0.111c-0.595-0.133-1.162-0.318-1.572-0.809
		c-0.038-0.056-0.072-0.112-0.117-0.162C83.932,49.504,83.895,48.954,84.301,48.375z M87.576,50.6
		c0.549,0.009,1.13-0.041,1.71-0.124c0.133-0.019,0.159-0.086,0.14-0.196c-0.023-0.134-0.121-0.052-0.172-0.041
		c-0.322,0.063-0.648,0.103-0.979,0.12c-0.598,0.031-1.194,0.031-1.76-0.208c-0.449-0.19-0.681-0.531-0.668-1.028
		c0.012-0.486,0.23-0.831,0.682-1.025c0.38-0.162,0.779-0.188,1.182-0.185c0.279,0.003,0.561,0.006,0.832,0.089
		c0.105,0.033,0.248,0.071,0.254,0.182c0.014,0.221,0.146,0.192,0.284,0.188c0.079-0.002,0.157-0.003,0.237,0.001
		c0.072,0.003,0.113-0.016,0.108-0.102c-0.006-0.114-0.005-0.23,0-0.346c0.003-0.076-0.021-0.108-0.102-0.113
		c-0.171-0.012-0.339-0.039-0.509-0.051c-0.947-0.072-1.896-0.111-2.84,0.056c-0.444,0.079-0.877,0.202-1.252,0.471
		c-0.641,0.459-0.638,1.258,0,1.717c0.24,0.173,0.51,0.284,0.791,0.366C86.178,50.562,86.855,50.605,87.576,50.6z"/>
	<path fill="#20201E" d="M59.273,51.141c-0.203-0.084-0.424-0.065-0.633-0.105c-0.349-0.066-0.687-0.158-1.015-0.292
		c-0.491-0.199-0.829-0.574-1.101-1.001c-0.33-0.518-0.174-1.182,0.347-1.591c0.412-0.325,0.903-0.466,1.409-0.556
		c0.961-0.17,1.927-0.133,2.893-0.057c0.213,0.018,0.424,0.044,0.637,0.061c0.119,0.009,0.199,0.037,0.168,0.183
		c-0.021,0.103,0.028,0.149,0.129,0.142c0.121-0.014,0.142,0.051,0.136,0.152c-0.007,0.098,0.003,0.193,0.005,0.292
		c-0.003,0.14-0.012,0.278-0.007,0.419c0.003,0.096-0.029,0.128-0.125,0.126c-0.263-0.005-0.523-0.004-0.785,0
		c-0.082,0.001-0.129-0.021-0.118-0.11c0.016-0.134-0.025-0.211-0.179-0.186c-0.021,0.004-0.062-0.007-0.065-0.02
		c-0.044-0.178-0.188-0.115-0.298-0.125c-0.276-0.022-0.553-0.017-0.83-0.004c-0.625,0.024-1.012,0.28-1.171,0.811
		c-0.077,0.253,0.021,0.568,0.212,0.652c0.285,0.127,0.593,0.198,0.897,0.215c0.66,0.035,1.316-0.01,1.964-0.17
		c0.229-0.059,0.229-0.053,0.237,0.178c0,0.013,0.002,0.023,0.004,0.035c0.002,0.041-0.032,0.123,0.055,0.091
		c0.21-0.079,0.206,0.034,0.204,0.188c-0.007,0.504-0.003,0.497-0.511,0.567c-0.26,0.037-0.523,0.029-0.777,0.104
		C60.395,51.141,59.834,51.141,59.273,51.141z M59.975,50.6c0.5,0.006,1.068-0.041,1.637-0.122c0.129-0.019,0.16-0.078,0.145-0.192
		c-0.021-0.14-0.119-0.058-0.168-0.047c-0.4,0.08-0.807,0.121-1.214,0.132c-0.506,0.012-1.013-0.009-1.489-0.205
		c-0.467-0.191-0.709-0.533-0.705-1.007c0.004-0.495,0.217-0.86,0.687-1.062c0.366-0.156,0.754-0.186,1.144-0.186
		c0.291,0.001,0.586,0.003,0.868,0.09c0.115,0.035,0.233,0.074,0.272,0.215c0.016,0.057-0.021,0.153,0.084,0.151
		c0.168-0.003,0.339,0.026,0.506-0.019c0.007-0.002,0.014-0.021,0.014-0.03c0-0.151,0.003-0.304-0.003-0.456
		c-0.002-0.061-0.062-0.047-0.101-0.051c-0.164-0.02-0.326-0.039-0.489-0.053c-0.954-0.07-1.909-0.111-2.856,0.059
		c-0.481,0.087-0.949,0.221-1.336,0.544c-0.52,0.435-0.511,1.151,0.016,1.58c0.224,0.184,0.482,0.302,0.756,0.392
		C58.441,50.562,59.168,50.605,59.975,50.6z"/>
	<path fill="#20201E" d="M90.379,48.369c0.359-0.452,0.852-0.673,1.398-0.781c0.852-0.168,1.701-0.164,2.539,0.08
		c0.435,0.127,0.812,0.346,1.099,0.708c0.015,0.025,0.024,0.058,0.046,0.077c0.521,0.514,0.57,1.096,0.257,1.73
		c-0.395,0.556-0.979,0.763-1.612,0.885c-0.133,0.025-0.271,0.007-0.396,0.072c-0.4,0-0.805,0-1.206,0
		c-0.021-0.058-0.071-0.033-0.108-0.039c-0.699-0.109-1.351-0.311-1.793-0.918c-0.033-0.037-0.064-0.071-0.099-0.106
		c-0.233-0.257-0.358-0.565-0.371-0.905C90.121,48.884,90.227,48.615,90.379,48.369z M92.904,50.6
		c0.236,0.004,0.51-0.008,0.779-0.049c0.475-0.073,0.928-0.198,1.31-0.507c0.567-0.462,0.575-1.292,0.021-1.767
		c-0.244-0.21-0.531-0.342-0.839-0.424c-0.711-0.189-1.431-0.191-2.151-0.09c-0.39,0.057-0.758,0.172-1.09,0.391
		c-0.756,0.498-0.766,1.464-0.021,1.977c0.12,0.084,0.247,0.153,0.383,0.209C91.799,50.551,92.328,50.604,92.904,50.6z"/>
	<path fill="#20201E" d="M32.229,39.325c0.167-0.267,0.316-0.536,0.507-0.779c0.747-0.947,1.74-1.301,2.917-1.205
		c0.616,0.05,1.143,0.315,1.667,0.634c0.619,0.377,1.094,0.864,1.425,1.5c0.152,0.291,0.26,0.6,0.364,0.914
		c0.057-0.517,0.13-1.028,0.26-1.529c0.528-2.031,1.75-3.511,3.583-4.5c1.205-0.65,2.506-0.985,3.859-1.131
		c2.582-0.278,5.126,0.009,7.653,0.528c0.083,0.017,0.165,0.042,0.249,0.053c0.105,0.015,0.193,0.034,0.169,0.174
		c-0.013,0.078,0.052,0.078,0.106,0.091c0.393,0.095,0.393,0.097,0.393,0.503c0,0.841-0.006,1.682,0.004,2.522
		c0.002,0.168-0.048,0.198-0.203,0.196c-0.707-0.008-1.412-0.006-2.119-0.001c-0.109,0.001-0.193-0.013-0.217-0.134
		c-0.027-0.151-0.119-0.2-0.262-0.172c-0.139,0.027-0.205-0.036-0.251-0.164c-0.06-0.166-0.115-0.325-0.124-0.507
		c-0.018-0.36-0.182-0.562-0.523-0.648c-1.229-0.306-2.462-0.335-3.676,0.053c-1.191,0.381-1.934,1.24-2.369,2.385
		c-0.392,1.033-0.506,2.112-0.52,3.206c-0.013,1.07,0.076,2.129,0.441,3.146c0.271,0.754,0.679,1.415,1.32,1.909
		c0.388,0.3,0.858,0.421,1.326,0.528c0.997,0.231,2.006,0.199,3.017,0.132c0.797-0.054,1.582-0.179,2.348-0.42
		c0.072-0.022,0.152-0.032,0.234-0.105c-0.091,0-0.158,0-0.229,0c-1.273,0-2.546-0.002-3.82,0.003c-0.143,0-0.241-0.011-0.204-0.188
		c0.021-0.104-0.029-0.132-0.13-0.134c-0.369-0.004-0.369-0.008-0.369-0.387c0-0.312,0.004-0.621-0.002-0.933
		c-0.003-0.113,0.033-0.147,0.145-0.144c0.146,0.006,0.293-0.021,0.437-0.006c0.19,0.021,0.226-0.072,0.224-0.229
		c-0.002-0.158,0.013-0.316,0.013-0.475c0.001-1.48,0-2.961,0.001-4.441c0-0.163,0.016-0.326-0.235-0.277
		c-0.098,0.019-0.089-0.063-0.081-0.121c0.022-0.149-0.029-0.198-0.185-0.191c-0.316,0.012-0.316,0.003-0.316-0.31
		c0-0.335,0.003-0.67-0.002-1.005c-0.001-0.109,0.015-0.16,0.146-0.159c1.346,0.005,2.692,0.004,4.04,0.001
		c0.109,0,0.162,0.027,0.143,0.142c-0.025,0.143,0.03,0.186,0.176,0.181c0.324-0.01,0.324-0.002,0.324,0.319
		c0,0.314,0,0.629,0,0.998c0.174-0.243,0.316-0.443,0.487-0.621c0.69-0.718,1.554-1.067,2.526-1.167
		c1.151-0.119,2.269,0.078,3.369,0.389c0.043,0.012,0.111,0.004,0.107,0.074c-0.014,0.231,0.189,0.15,0.296,0.208
		c0.031,0.017,0.058-0.001,0.06-0.042c0-0.024-0.002-0.049,0-0.073c0.015-0.131-0.061-0.309,0.035-0.38
		c0.088-0.065,0.258-0.023,0.391-0.023c1.242-0.001,2.486,0.002,3.729-0.004c0.139-0.001,0.193,0.033,0.167,0.17
		c-0.026,0.142,0.05,0.154,0.165,0.152c0.342-0.004,0.342,0,0.342,0.34c0,0.329-0.007,0.658,0.002,0.987
		c0.002,0.114-0.029,0.147-0.143,0.142c-0.17-0.008-0.341,0-0.512,0c-0.098,0.001-0.147,0.03-0.15,0.148
		c-0.035,1.675-0.004,3.351-0.016,5.026c0,0.07-0.004,0.127,0.101,0.125c0.304-0.01,0.608-0.015,0.913-0.012
		c0.125,0,0.146-0.056,0.146-0.166c-0.002-0.207,0.021-0.414,0.019-0.619c-0.002-0.109,0.04-0.129,0.138-0.127
		c0.457,0.004,0.914,0.006,1.37-0.002c0.121-0.002,0.168,0.033,0.146,0.15c-0.021,0.128,0.029,0.163,0.158,0.16
		c0.349-0.008,0.349,0,0.349,0.35c0,0.055,0,0.11,0,0.165c0.001,0.228,0.001,0.214,0.235,0.218c0.174,0.004,0.211-0.067,0.211-0.224
		c-0.002-0.944,0.002-1.89,0.004-2.833c0-0.725-0.004-1.45,0.004-2.175c0.001-0.146-0.029-0.219-0.188-0.189
		c-0.115,0.022-0.137-0.044-0.121-0.136c0.027-0.152-0.046-0.18-0.182-0.177c-0.324,0.007-0.324,0.001-0.324-0.318
		c0-0.341,0.004-0.683-0.002-1.023c-0.002-0.103,0.027-0.133,0.133-0.133c1.353,0.003,2.705,0.003,4.057,0
		c0.107,0,0.164,0.022,0.146,0.14c-0.023,0.141,0.028,0.188,0.178,0.183c0.314-0.011,0.314-0.002,0.314,0.322
		c0,0.244,0,0.487,0,0.779c0.145-0.276,0.275-0.508,0.46-0.705c0.567-0.604,1.287-0.857,2.093-0.897
		c0.913-0.045,1.786,0.169,2.65,0.436c0.027,0.009,0.076,0.025,0.077,0.041c0.021,0.295,0.301,0.169,0.465,0.323
		c0-0.185,0.008-0.321-0.002-0.457c-0.011-0.125,0.026-0.166,0.157-0.166c1.171,0.005,2.341,0.005,3.511,0
		c0.116,0,0.185,0.029,0.208,0.144c0.029,0.141,0.109,0.207,0.258,0.176c0.146-0.031,0.207,0.041,0.262,0.175
		c0.361,0.896,0.733,1.785,1.104,2.677c0.018,0.045,0.04,0.088,0.068,0.152c0.293-0.667,0.576-1.315,0.859-1.963
		c0.178-0.406,0.355-0.812,0.527-1.221c0.044-0.105,0.099-0.141,0.215-0.141c1.012,0.005,2.021,0.006,3.034,0
		c0.138-0.001,0.192,0.036,0.168,0.172c-0.022,0.123,0.032,0.151,0.149,0.15c0.351-0.003,0.351,0.002,0.351,0.35
		c0,0.244,0,0.487,0.001,0.731c0,0.012,0.006,0.023,0.01,0.041c0.061-0.001,0.068-0.056,0.09-0.091
		c1.129-1.871,3.482-1.84,4.713-0.945c0.457,0.332,0.92,0.633,1.244,1.105c0.469,0.679,0.696,1.441,0.783,2.25
		c0.104,0.957,0.066,1.91-0.214,2.839c-0.281,0.927-0.763,1.729-1.652,2.179c-1.19,0.604-2.372,0.569-3.511-0.181
		c-0.325-0.214-0.665-0.405-0.932-0.698c-0.582-0.643-0.91-1.405-1.049-2.249c-0.186-1.117-0.162-2.229,0.17-3.324
		c0.053-0.173,0.125-0.34,0.196-0.534c-0.19,0-0.368,0-0.546,0c-0.068,0-0.096,0.034-0.1,0.101
		c-0.006,0.109-0.021,0.218-0.021,0.327c-0.001,1.603,0,3.205-0.003,4.807c0,0.127,0.007,0.22,0.17,0.188
		c0.12-0.021,0.173,0.033,0.147,0.151c-0.028,0.148,0.048,0.164,0.173,0.162c0.329-0.007,0.329-0.002,0.329,0.331
		c0,0.329-0.006,0.658,0.003,0.986c0.003,0.123-0.038,0.15-0.155,0.15c-1.298-0.004-2.595-0.005-3.893,0
		c-0.127,0-0.184-0.031-0.16-0.16c0.021-0.129-0.035-0.164-0.162-0.162c-0.331,0.006-0.331,0-0.331-0.327c0-0.349,0-0.694,0-1.042
		c-0.009-0.004-0.019-0.008-0.026-0.012c-0.063,0.146-0.135,0.287-0.19,0.437c-0.037,0.099-0.091,0.137-0.2,0.135
		c-0.365-0.008-0.73-0.008-1.098-0.001c-0.106,0.003-0.178-0.023-0.196-0.133c-0.026-0.15-0.117-0.202-0.261-0.174
		c-0.139,0.027-0.202-0.035-0.254-0.162c-0.226-0.562-0.461-1.123-0.692-1.684c-0.019-0.043-0.036-0.084-0.054-0.123
		c-0.049,0.014-0.041,0.043-0.041,0.062c-0.002,0.469-0.002,0.938-0.002,1.407c0,0.081-0.008,0.155,0.115,0.159
		c0.107,0.002,0.067,0.103,0.064,0.158c-0.01,0.114,0.023,0.153,0.148,0.152c0.354-0.005,0.354,0.002,0.354,0.357
		c0,0.328-0.004,0.658,0.002,0.986c0.002,0.098-0.027,0.122-0.123,0.122c-1.029-0.003-2.061-0.005-3.089,0.001
		c-0.128,0.002-0.146-0.054-0.129-0.15c0.022-0.139-0.035-0.174-0.171-0.172c-0.329,0.008-0.329,0-0.329-0.334
		c0-0.114,0-0.229,0-0.348c-0.07-0.005-0.079,0.057-0.106,0.088c-0.537,0.633-1.236,0.95-2.041,1.053
		c-1.021,0.131-2.015-0.041-3.002-0.272c-0.063-0.015-0.13-0.03-0.193-0.049c-0.033-0.009-0.088-0.005-0.086-0.052
		c0.021-0.248-0.174-0.185-0.315-0.227c0,0.116-0.008,0.221,0.003,0.322c0.012,0.113-0.029,0.143-0.143,0.141
		c-0.754-0.005-1.51-0.003-2.266-0.003c-0.578,0-1.158-0.004-1.736,0.003c-0.137,0.002-0.205-0.023-0.18-0.175
		c0.006-0.039-0.003-0.086-0.02-0.122c-0.008-0.016-0.057-0.021-0.082-0.016c-0.07,0.016-0.047,0.08-0.041,0.119
		c0.021,0.149-0.03,0.193-0.186,0.193c-2.162-0.006-4.326-0.005-6.488-0.001c-0.145,0.001-0.202-0.036-0.178-0.18
		c0.02-0.115-0.035-0.142-0.145-0.144c-0.256-0.004-0.492,0.035-0.74,0.121c-1.373,0.474-2.771,0.592-4.141,0.035
		c-1.016-0.412-1.909-1.025-2.436-2.046c-0.358-0.694-0.513-1.438-0.533-2.215c-0.026-0.962,0.097-1.893,0.563-2.775
		c-0.213,0-0.409-0.001-0.604,0c-0.072,0.001-0.104,0.04-0.105,0.117c-0.004,0.188-0.021,0.376-0.021,0.564
		c-0.002,1.451-0.002,2.9,0,4.351c0,0.055,0.002,0.109,0,0.164c-0.002,0.148,0.022,0.262,0.218,0.227
		c0.118-0.021,0.104,0.074,0.097,0.145c-0.012,0.116,0.008,0.172,0.15,0.168c0.352-0.008,0.352,0.001,0.352,0.361
		c0,0.324,0.004,0.646-0.002,0.97c-0.003,0.116,0.03,0.135,0.133,0.091c0.235-0.1,0.475-0.188,0.709-0.29
		c0.115-0.051,0.178-0.053,0.161,0.104c-0.012,0.106-0.003,0.217-0.003,0.35c0.148-0.061,0.277-0.109,0.404-0.163
		c0.066-0.026,0.098-0.021,0.098,0.062c-0.002,0.707-0.003,1.414,0,2.121c0.001,0.086-0.055,0.098-0.111,0.117
		c-0.857,0.293-1.734,0.514-2.631,0.658c-1.139,0.186-2.286,0.268-3.438,0.249c-1.997-0.028-3.918-0.394-5.678-1.387
		c-0.8-0.451-1.577-0.943-2.245-1.586c-0.969-0.933-1.6-2.056-1.928-3.354c-0.031-0.123-0.03-0.125-0.103-0.223
		c-0.079,0.621-0.227,1.223-0.524,1.775c-0.675,1.258-1.735,1.842-3.155,1.787c-0.619-0.022-1.179-0.215-1.683-0.574
		C33.737,46,33.57,45.92,33.422,45.814c-0.8-0.579-1.23-1.396-1.454-2.332c-0.247-1.032-0.233-2.073-0.041-3.135
		c-0.351,0-0.696-0.007-1.042,0.003c-0.14,0.004-0.207-0.03-0.181-0.179c0.02-0.112-0.028-0.144-0.141-0.145
		c-0.357-0.001-0.357-0.006-0.357-0.374c0-0.069,0-0.138,0-0.207c-0.064,0.049-0.048,0.11-0.048,0.166
		c-0.001,1.583-0.001,3.167,0,4.751c0,0.067,0.015,0.135,0.008,0.2c-0.013,0.13,0.039,0.179,0.165,0.156
		c0.115-0.021,0.156,0.03,0.138,0.142c-0.021,0.126,0.012,0.18,0.16,0.175c0.345-0.014,0.346-0.003,0.346,0.35
		c0,0.322-0.004,0.646,0.002,0.969c0.002,0.104-0.014,0.148-0.136,0.148c-1.353-0.005-2.705-0.004-4.058-0.001
		c-0.099,0-0.153-0.022-0.134-0.13c0.025-0.15-0.033-0.197-0.188-0.191c-0.312,0.012-0.312,0.002-0.312-0.312
		c0-0.335,0.004-0.67-0.002-1.005c-0.002-0.111,0.027-0.149,0.142-0.146c0.17,0.006,0.341-0.011,0.511-0.01
		c0.102,0,0.14-0.044,0.142-0.141c0.002-0.141,0.018-0.28,0.018-0.42c0.001-1.529,0-3.06,0-4.587c0-0.035-0.006-0.07-0.042-0.105
		c0,0.254-0.005,0.507,0.002,0.761c0.003,0.105-0.031,0.135-0.134,0.133c-0.42-0.005-0.841-0.007-1.261,0.001
		c-0.119,0.002-0.154-0.039-0.136-0.146c0.028-0.164-0.05-0.203-0.209-0.161c0.089,0.322,0.187,0.646,0.226,0.979
		c0.155,1.317,0.117,2.611-0.483,3.836c-1.052,2.145-3.601,2.186-4.877,1.246c-0.479-0.354-0.964-0.674-1.291-1.186
		c-0.208-0.324-0.371-0.668-0.493-1.033c-0.019-0.054-0.039-0.106-0.076-0.209c-0.009,0.088-0.016,0.123-0.016,0.155
		c0.006,0.883-0.016,1.767,0.018,2.649c0.003,0.078,0.012,0.156,0.021,0.236c0.03,0.242,0.031,0.242,0.287,0.243
		c0.122,0,0.245,0.011,0.365-0.003c0.175-0.02,0.283,0.014,0.241,0.223c-0.016,0.08,0.037,0.084,0.099,0.086
		c0.125,0.006,0.294-0.059,0.366,0.027c0.083,0.1,0.026,0.27,0.027,0.408c0.003,0.438-0.003,0.877,0.004,1.314
		c0.002,0.121-0.034,0.152-0.154,0.151c-2.114-0.003-4.228-0.004-6.342,0.001c-0.128,0-0.161-0.045-0.142-0.154
		c0.023-0.135-0.039-0.158-0.161-0.156c-0.345,0.007-0.345,0-0.345-0.354c0-0.457,0.007-0.914-0.004-1.371
		c-0.004-0.15,0.047-0.182,0.184-0.176c0.225,0.01,0.451,0.016,0.674-0.027c0.265-0.052,0.319-0.113,0.328-0.371
		c0.067-1.918,0.024-3.836,0.035-5.756c0-0.05,0.019-0.104-0.036-0.17c-0.118,0.283-0.231,0.555-0.343,0.825
		c-0.743,1.81-1.487,3.617-2.224,5.429c-0.056,0.137-0.122,0.178-0.265,0.176c-0.53-0.01-1.06-0.01-1.59,0
		c-0.128,0.002-0.195-0.036-0.217-0.154c-0.026-0.145-0.115-0.186-0.248-0.16c-0.152,0.029-0.215-0.043-0.269-0.184
		c-0.772-2.006-1.552-4.01-2.33-6.014c-0.023-0.059-0.05-0.116-0.099-0.167c0,0.041,0,0.081,0,0.122
		c0.002,1.857,0.003,3.717,0.007,5.574c0,0.249,0.025,0.498,0.024,0.747c0,0.121,0.048,0.144,0.152,0.135
		c0.09-0.007,0.184,0.007,0.273-0.003c0.169-0.02,0.289,0.004,0.244,0.219c-0.012,0.062,0.02,0.092,0.083,0.088
		c0.018-0.002,0.037,0,0.055,0c0.367,0.011,0.367,0.011,0.367,0.388c0,0.45-0.004,0.901,0.003,1.353
		c0.002,0.119-0.017,0.166-0.154,0.165c-1.608-0.005-3.217-0.005-4.825-0.001C2.161,49.17,2.11,49.14,2.131,49.021
		c0.023-0.131-0.034-0.162-0.16-0.161c-0.344,0.006-0.344-0.001-0.344-0.339c0-0.469,0.004-0.938-0.002-1.407
		c-0.001-0.117,0.029-0.157,0.151-0.154c0.334,0.007,0.668,0.011,1-0.057c0.129-0.026,0.184-0.089,0.203-0.214
		c0.045-0.295,0.071-0.592,0.071-0.891c0-3.089,0.001-6.177-0.001-9.266c0-0.237-0.028-0.474-0.039-0.71
		c-0.005-0.103-0.044-0.152-0.156-0.148c-0.195,0.006-0.39-0.007-0.584,0.001c-0.112,0.005-0.161-0.025-0.139-0.14
		c0.03-0.154-0.05-0.179-0.184-0.176c-0.32,0.007-0.32,0.001-0.32-0.328c0-0.475,0.003-0.951-0.002-1.426
		c0-0.102,0.026-0.142,0.142-0.142c1.944,0.003,3.887,0.003,5.831,0c0.111,0,0.155,0.047,0.174,0.139
		c0.029,0.144,0.11,0.204,0.257,0.176c0.139-0.026,0.207,0.026,0.261,0.169c0.832,2.165,1.672,4.327,2.511,6.489
		c0.021,0.055,0.027,0.12,0.094,0.173c0.204-0.497,0.404-0.986,0.605-1.477c0.752-1.837,1.506-3.674,2.254-5.513
		c0.051-0.125,0.114-0.156,0.24-0.156c1.639,0.004,3.278,0.004,4.917,0c0.144,0,0.223,0.022,0.19,0.184
		c-0.025,0.125,0.044,0.133,0.144,0.133c0.35,0,0.35,0.003,0.35,0.348c0,0.445-0.012,0.89,0.006,1.334
		c0.008,0.196-0.058,0.229-0.232,0.222c-0.31-0.013-0.62-0.013-0.927,0.057c-0.119,0.027-0.168,0.084-0.192,0.204
		c-0.067,0.337-0.074,0.678-0.077,1.018c-0.009,0.962-0.003,1.925-0.003,2.888c0,0.034,0.007,0.068,0.013,0.121
		c0.075-0.084,0.082-0.177,0.111-0.258c0.359-0.984,0.937-1.787,1.952-2.16c1.106-0.407,2.173-0.302,3.163,0.377
		c0.225,0.154,0.472,0.276,0.68,0.457c0.309,0.27,0.553,0.591,0.793,0.937c0-0.264,0-0.527,0-0.791c0-0.286,0.006-0.573-0.003-0.859
		c-0.004-0.127,0.032-0.164,0.162-0.163c0.829,0.006,1.657,0.003,2.485,0.003c1.334,0,2.668,0.002,4.003-0.003
		c0.151,0,0.234,0.022,0.203,0.194c-0.021,0.111,0.042,0.127,0.138,0.128c0.36,0.004,0.36,0.008,0.36,0.372
		C32.229,38.577,32.229,38.951,32.229,39.325z M13.843,38.022c0.012,0.002,0.023,0.005,0.035,0.007c0,0.045,0,0.09,0,0.135
		c0,2.497,0.001,4.995-0.001,7.492c0,0.329-0.015,0.657-0.03,0.985c-0.013,0.283-0.112,0.4-0.386,0.479
		c-0.207,0.059-0.42,0.075-0.633,0.061c-0.133-0.01-0.161,0.041-0.159,0.164c0.008,0.385,0.007,0.769,0,1.151
		c-0.002,0.116,0.025,0.155,0.149,0.155c1.974-0.004,3.948-0.004,5.921-0.001c0.11,0.001,0.146-0.024,0.144-0.14
		c-0.007-0.396-0.007-0.793,0-1.188c0.002-0.11-0.023-0.147-0.139-0.144c-0.274,0.012-0.547,0-0.817-0.059
		c-0.296-0.062-0.35-0.117-0.399-0.413c-0.071-0.416-0.077-0.836-0.077-1.256c-0.001-2.856-0.001-5.714,0-8.571
		c0-0.42,0.006-0.84,0.077-1.256c0.051-0.298,0.118-0.365,0.412-0.426c0.264-0.055,0.532-0.056,0.8-0.048
		c0.112,0.003,0.146-0.027,0.144-0.142c-0.007-0.377-0.01-0.755,0.001-1.133c0.005-0.155-0.027-0.204-0.195-0.203
		c-1.493,0.008-2.985,0.008-4.478,0c-0.187-0.001-0.271,0.053-0.341,0.227c-1.031,2.537-2.07,5.07-3.108,7.604
		c-0.023,0.055-0.027,0.127-0.093,0.164c-0.018-0.041-0.033-0.074-0.046-0.107c-0.998-2.575-1.996-5.15-2.992-7.728
		c-0.038-0.099-0.071-0.159-0.198-0.158c-1.815,0.005-3.63,0.004-5.446,0.001c-0.112,0-0.145,0.028-0.143,0.142
		c0.007,0.378,0.01,0.756-0.001,1.133c-0.005,0.155,0.026,0.212,0.195,0.203c0.292-0.017,0.584-0.005,0.869,0.077
		c0.148,0.043,0.235,0.125,0.268,0.284c0.069,0.336,0.095,0.675,0.096,1.016c0.003,3.088,0.002,6.176,0,9.265
		c0,0.306-0.023,0.608-0.073,0.909C3.151,47,3.093,47.058,2.803,47.121c-0.276,0.059-0.555,0.066-0.835,0.059
		c-0.096-0.002-0.124,0.025-0.123,0.123c0.005,0.407,0.005,0.815,0,1.225C1.844,48.622,1.87,48.65,1.967,48.65
		c1.48-0.004,2.96-0.004,4.441,0c0.092,0,0.129-0.021,0.127-0.12c-0.005-0.408-0.006-0.815,0.001-1.226
		c0.002-0.115-0.046-0.127-0.141-0.123c-0.219,0.008-0.438-0.002-0.65-0.064c-0.266-0.08-0.371-0.209-0.38-0.488
		c-0.016-0.474-0.035-0.947-0.036-1.423c-0.003-2.362-0.001-4.727-0.001-7.09c0-0.058,0-0.115,0-0.185
		c0.079,0.051,0.082,0.123,0.104,0.182c1.072,2.756,2.143,5.512,3.21,8.27c0.043,0.109,0.086,0.158,0.216,0.155
		c0.45-0.011,0.901-0.008,1.352-0.001c0.11,0.002,0.154-0.038,0.194-0.136c0.958-2.343,1.92-4.685,2.882-7.026
		C13.471,38.925,13.657,38.474,13.843,38.022z M60.877,44.316c0.003,0.058,0.005,0.088,0.005,0.117
		c0.005,0.302,0.005,0.302,0.298,0.291c0.346-0.014,0.353-0.013,0.354-0.385c0.005-1.484,0.006-2.972,0.008-4.458
		c0-0.158-0.009-0.317-0.004-0.475c0.003-0.089-0.028-0.125-0.115-0.111c-0.14,0.022-0.222-0.013-0.193-0.178
		c0.028-0.166-0.095-0.127-0.187-0.133c-0.099-0.006-0.167-0.005-0.163,0.137c0.012,0.408,0.002,0.816,0.008,1.224
		c0,0.096-0.027,0.123-0.123,0.122c-0.469-0.004-0.938-0.004-1.406,0c-0.088,0.001-0.148-0.02-0.135-0.114
		c0.027-0.182-0.062-0.219-0.217-0.199c-0.048,0.006-0.098-0.004-0.146,0.002c-0.1,0.011-0.137-0.021-0.137-0.128
		c-0.002-0.237-0.019-0.474-0.027-0.71c-0.002-0.063-0.002-0.112-0.086-0.131c-0.657-0.143-1.289,0.147-1.603,0.741
		c-0.075,0.146-0.14,0.297-0.185,0.455c-0.254,0.898-0.268,1.813-0.159,2.732c0.054,0.462,0.174,0.905,0.431,1.304
		c0.125,0.193,0.286,0.297,0.516,0.327c0.746,0.103,1.438-0.058,2.096-0.399c0.218-0.112,0.438-0.226,0.68-0.351
		c0,0.205,0,0.377,0,0.567C60.552,44.478,60.702,44.404,60.877,44.316z M54.663,35.398c0-0.408-0.005-0.816,0.003-1.224
		c0.002-0.122-0.034-0.166-0.156-0.187c-0.455-0.078-0.906-0.178-1.361-0.255c-2.121-0.359-4.25-0.529-6.396-0.279
		c-1.234,0.144-2.427,0.446-3.539,1.016c-1.711,0.877-2.931,2.19-3.516,4.043c-0.425,1.347-0.482,2.726-0.266,4.116
		c0.256,1.646,0.983,3.047,2.253,4.139c1.734,1.494,3.798,2.146,6.038,2.324c1.009,0.082,2.019,0.053,3.027-0.033
		c1.289-0.111,2.553-0.349,3.782-0.76c0.107-0.037,0.136-0.084,0.135-0.191c-0.005-0.5-0.005-0.999,0-1.499
		c0.001-0.128-0.01-0.175-0.154-0.113c-1.898,0.79-3.879,0.955-5.893,0.694c-1.976-0.254-3.285-1.354-3.863-3.281
		c-0.322-1.073-0.384-2.173-0.341-3.285c0.037-0.929,0.152-1.842,0.458-2.724c0.438-1.267,1.212-2.236,2.516-2.676
		c1.281-0.432,2.588-0.406,3.884-0.064c0.668,0.176,1.166,0.542,1.175,1.334c0.002,0.227,0.097,0.278,0.327,0.278
		c0.565,0,1.133-0.005,1.699,0.003c0.146,0.002,0.198-0.029,0.193-0.186C54.654,36.19,54.663,35.794,54.663,35.398z M83.656,41.834
		c-0.084-0.2-0.152-0.36-0.219-0.521c-0.471-1.14-0.938-2.279-1.41-3.418c-0.032-0.078-0.041-0.17-0.176-0.169
		c-1.078,0.006-2.156,0.004-3.233,0.002c-0.089,0-0.114,0.031-0.113,0.116c0.005,0.268,0.006,0.536,0,0.804
		c-0.003,0.098,0.032,0.126,0.126,0.124c0.133-0.004,0.268,0.01,0.398,0.005c0.186-0.006,0.265,0.083,0.269,0.26
		c0.004,0.195,0.021,0.389,0.021,0.584c0.002,1.486,0.004,2.974,0,4.459c-0.002,0.226,0,0.449-0.035,0.674
		c-0.018,0.104-0.065,0.152-0.161,0.159c-0.157,0.012-0.315,0.025-0.474,0.023c-0.108-0.002-0.148,0.027-0.146,0.144
		c0.009,0.243,0.011,0.487,0,0.729c-0.005,0.127,0.031,0.166,0.161,0.164c0.725-0.006,1.449,0,2.175-0.004
		c0.187-0.002,0.429,0.082,0.542-0.039c0.105-0.112,0.027-0.351,0.028-0.531c0-0.146,0.06-0.324-0.025-0.426
		c-0.081-0.097-0.264-0.029-0.401-0.045c-0.16-0.017-0.248-0.072-0.246-0.261c0.002-1.278-0.006-2.558-0.01-3.837
		c0-0.02-0.014-0.049,0.033-0.062c0.016,0.035,0.032,0.072,0.047,0.108c0.525,1.269,1.053,2.535,1.571,3.806
		c0.052,0.123,0.11,0.176,0.252,0.168c0.236-0.015,0.476-0.017,0.712,0c0.155,0.011,0.219-0.053,0.276-0.187
		c0.543-1.253,1.092-2.504,1.642-3.755c0.023-0.055,0.024-0.131,0.092-0.154c0,1.204,0.002,2.403-0.002,3.604
		c-0.002,0.549-0.009,0.552-0.561,0.577c-0.102,0.005-0.122,0.039-0.12,0.13c0.004,0.256,0.008,0.512-0.001,0.768
		c-0.005,0.119,0.041,0.146,0.148,0.14c0.14-0.008,0.279-0.002,0.42-0.002c1.011,0,2.021-0.004,3.033,0.002
		c0.137,0.002,0.18-0.032,0.172-0.172c-0.012-0.242-0.008-0.486-0.002-0.729c0.004-0.106-0.031-0.138-0.135-0.136
		c-0.146,0.005-0.291-0.008-0.438-0.014c-0.135-0.006-0.213-0.068-0.219-0.209c-0.006-0.158-0.023-0.316-0.023-0.475
		c-0.002-1.59-0.002-3.18,0-4.77c0-0.176,0.007-0.352,0.033-0.528c0.017-0.106,0.07-0.15,0.164-0.155
		c0.164-0.009,0.328-0.017,0.492-0.015c0.098,0.001,0.127-0.032,0.125-0.126c-0.006-0.25-0.012-0.5,0-0.749
		c0.008-0.139-0.035-0.172-0.172-0.171c-0.883,0.006-1.767,0.007-2.648,0c-0.143-0.001-0.198,0.052-0.25,0.172
		C84.811,39.197,84.242,40.493,83.656,41.834z M72.57,44.789c0,0.298,0.002,0.598,0,0.895c0,0.074-0.008,0.137,0.099,0.16
		c0.94,0.219,1.886,0.389,2.854,0.284c0.722-0.077,1.375-0.325,1.879-0.868c0.88-0.945,0.854-2.358-0.043-3.363
		c-0.457-0.512-1.023-0.873-1.61-1.211c-0.302-0.174-0.597-0.353-0.841-0.606c-0.305-0.316-0.332-0.676-0.19-1.064
		c0.128-0.349,0.435-0.426,0.755-0.433c0.555-0.012,0.898,0.143,0.967,0.767c0.014,0.115,0.019,0.231,0.015,0.347
		c-0.004,0.091,0.019,0.127,0.118,0.125c0.312-0.006,0.621-0.004,0.933-0.001c0.084,0.001,0.118-0.02,0.117-0.112
		c-0.004-0.548-0.003-1.096-0.001-1.645c0.001-0.069-0.014-0.109-0.088-0.131c-0.908-0.272-1.826-0.479-2.783-0.345
		c-0.715,0.1-1.327,0.403-1.755,1.003c-0.647,0.91-0.536,2.153,0.259,3.042c0.438,0.488,0.98,0.83,1.548,1.146
		c0.245,0.135,0.49,0.271,0.704,0.454c0.438,0.379,0.559,0.822,0.366,1.363c-0.091,0.254-0.265,0.418-0.526,0.48
		c-0.314,0.076-0.63,0.064-0.938-0.021c-0.41-0.113-0.626-0.39-0.658-0.816c-0.009-0.109-0.017-0.221-0.011-0.329
		c0.006-0.104-0.018-0.151-0.139-0.147c-0.299,0.008-0.598,0.008-0.896,0c-0.104-0.002-0.136,0.03-0.134,0.135
		C72.575,44.191,72.57,44.49,72.57,44.789z M28.318,37.729c-1.017,0-2.035,0-3.052,0c-0.095,0-0.172-0.013-0.17,0.134
		c0.009,0.609,0.005,1.218,0.002,1.827c0,0.092,0.021,0.13,0.121,0.128c0.286-0.006,0.572-0.006,0.858,0
		c0.094,0.001,0.126-0.023,0.125-0.122c-0.003-0.207,0.016-0.414,0.011-0.62c-0.003-0.15,0.072-0.186,0.201-0.184
		c0.201,0.002,0.403,0.008,0.603-0.007c0.146-0.012,0.167,0.045,0.165,0.173c-0.007,0.518,0.002,1.036-0.003,1.553
		c-0.015,1.356,0.034,2.716-0.027,4.073c-0.006,0.141-0.063,0.194-0.185,0.221c-0.157,0.033-0.315,0.031-0.473,0.031
		c-0.091,0-0.131,0.021-0.129,0.121c0.006,0.263,0.007,0.523,0,0.785c-0.003,0.112,0.044,0.129,0.14,0.129
		c1.207-0.002,2.413-0.004,3.619,0c0.109,0.002,0.132-0.037,0.128-0.137c-0.007-0.177-0.002-0.354-0.002-0.529
		c0-0.359,0-0.359-0.351-0.377c-0.421-0.019-0.44-0.029-0.444-0.449c-0.009-1.018-0.011-2.033-0.014-3.051
		c-0.002-0.799-0.001-1.597,0-2.395c0-0.064-0.035-0.152,0.093-0.148c0.237,0.008,0.475,0.006,0.712,0.008
		c0.111,0.001,0.152,0.048,0.16,0.166c0.013,0.194,0.025,0.389,0.015,0.583c-0.007,0.128,0.018,0.184,0.165,0.175
		c0.255-0.014,0.512-0.01,0.767-0.001c0.126,0.004,0.166-0.03,0.165-0.161c-0.007-0.584-0.009-1.169,0-1.754
		c0.002-0.149-0.046-0.178-0.185-0.177C30.328,37.733,29.323,37.729,28.318,37.729z M60.159,44.36
		c-0.089,0.046-0.147,0.073-0.206,0.104c-0.512,0.284-1.051,0.475-1.637,0.521c-1.135,0.092-1.894-0.336-2.23-1.481
		c-0.109-0.376-0.165-0.76-0.186-1.149c-0.045-0.85-0.018-1.692,0.268-2.505c0.389-1.111,1.249-1.378,2.277-1.121
		c0.332,0.083,0.455,0.267,0.468,0.607c0.007,0.164,0.021,0.328,0.021,0.492c0,0.088,0.029,0.115,0.116,0.114
		c0.329-0.004,0.658-0.003,0.987,0c0.078,0.001,0.123-0.011,0.123-0.107c-0.004-0.597-0.003-1.194,0-1.792
		c0-0.075-0.028-0.109-0.098-0.127c-1.138-0.3-2.287-0.496-3.465-0.293c-1.404,0.242-2.396,1.021-2.861,2.379
		c-0.407,1.184-0.409,2.396-0.026,3.588c0.376,1.172,1.168,1.961,2.341,2.346c0.766,0.252,1.555,0.267,2.348,0.181
		c0.565-0.062,1.113-0.2,1.636-0.427c0.067-0.027,0.129-0.047,0.128-0.146C60.154,45.158,60.159,44.775,60.159,44.36z
		 M64.148,45.972c1.013,0,2.022,0,3.035,0c0.073,0,0.172,0.041,0.17-0.109c-0.006-0.622-0.004-1.243,0-1.864
		c0-0.078-0.021-0.104-0.104-0.104c-0.341,0.004-0.682,0.004-1.023,0c-0.078,0-0.104,0.029-0.104,0.106
		c0,0.201-0.015,0.402-0.011,0.603c0.004,0.125-0.045,0.18-0.166,0.188c-0.51,0.035-1.021,0.048-1.531,0.011
		c-0.377-0.026-0.387-0.037-0.387-0.423c-0.006-1.62-0.006-3.239-0.004-4.861c0-0.176,0.022-0.353,0.021-0.528
		c-0.001-0.118,0.061-0.162,0.158-0.187c0.154-0.04,0.314-0.036,0.472-0.029c0.109,0.005,0.164-0.013,0.158-0.146
		c-0.013-0.255-0.008-0.512-0.001-0.767c0.003-0.104-0.027-0.133-0.132-0.132c-1.206,0.003-2.412,0.004-3.619-0.001
		c-0.122,0-0.14,0.046-0.136,0.149c0.006,0.25,0.01,0.5-0.002,0.749c-0.006,0.132,0.049,0.151,0.158,0.147
		c0.158-0.006,0.317-0.012,0.474,0.029c0.096,0.025,0.157,0.063,0.157,0.184c-0.002,0.237,0.024,0.474,0.024,0.711
		c0.003,1.449,0.003,2.898,0,4.35c0,0.225-0.024,0.449-0.026,0.674c-0.002,0.106-0.049,0.15-0.145,0.176
		c-0.167,0.048-0.338,0.043-0.507,0.043c-0.104-0.002-0.138,0.029-0.136,0.135c0.008,0.243,0.011,0.486,0,0.73
		c-0.008,0.138,0.033,0.172,0.172,0.172C62.127,45.97,63.139,45.972,64.148,45.972z M72.436,39.297
		c-0.166,0-0.316,0.006-0.469-0.001c-0.158-0.008-0.223,0.049-0.225,0.218c-0.02,1.686-0.01,3.373-0.006,5.058
		c0,0.117,0.029,0.173,0.152,0.152c0.125-0.021,0.185,0.026,0.16,0.158c-0.023,0.133,0.038,0.155,0.16,0.157
		c0.127,0.002,0.146-0.045,0.146-0.157c-0.006-0.402,0-0.804-0.006-1.205c0-0.1,0.021-0.139,0.131-0.138
		c0.449,0.006,0.9,0.004,1.352,0.001c0.084-0.001,0.134,0.021,0.117,0.111c-0.034,0.188,0.059,0.232,0.223,0.208
		c0.055-0.009,0.11,0.003,0.164-0.002c0.086-0.009,0.119,0.021,0.115,0.11c-0.008,0.151-0.008,0.305-0.001,0.457
		c0.019,0.414,0.112,0.498,0.526,0.479c0.535-0.022,0.726-0.218,0.752-0.751c0.021-0.424-0.217-0.684-0.545-0.879
		c-0.541-0.326-1.099-0.629-1.592-1.026C72.659,41.496,72.172,40.556,72.436,39.297z M79.104,42.026c0-0.03,0-0.062,0-0.091
		c0-0.806,0-1.609,0-2.414c0-0.138-0.004-0.271-0.207-0.226c-0.086,0.019-0.127-0.021-0.108-0.11
		c0.034-0.177-0.054-0.224-0.21-0.201c-0.03,0.004-0.062,0.004-0.092,0c-0.125-0.018-0.168,0.027-0.164,0.159
		c0.009,0.359,0,0.719,0.004,1.078c0.001,0.086-0.012,0.132-0.116,0.131c-0.457-0.005-0.914-0.003-1.371-0.001
		c-0.073,0-0.125-0.019-0.108-0.101c0.043-0.22-0.084-0.239-0.25-0.218c-0.035,0.004-0.073-0.004-0.108,0.001
		c-0.117,0.02-0.142-0.032-0.14-0.142c0.006-0.218,0.02-0.438-0.029-0.655c-0.012-0.046-0.01-0.097-0.064-0.121
		c-0.229-0.099-0.662,0.089-0.734,0.328c-0.094,0.307-0.062,0.588,0.188,0.822c0.124,0.117,0.257,0.221,0.403,0.31
		c0.479,0.29,0.967,0.564,1.408,0.912c1.023,0.804,1.597,1.792,1.265,3.143c-0.007,0.027-0.028,0.077,0.002,0.078
		c0.12,0.006,0.243,0.008,0.361-0.01c0.083-0.012,0.052-0.1,0.055-0.153C79.127,43.708,79.092,42.867,79.104,42.026z M52.373,41.855
		c0-0.938,0.004-1.875-0.004-2.813c-0.001-0.179,0.088-0.242,0.236-0.255c0.146-0.013,0.293-0.015,0.438-0.015
		c0.079,0,0.124-0.013,0.122-0.109c-0.005-0.274-0.005-0.548,0-0.822c0.001-0.09-0.033-0.112-0.117-0.112
		c-1.219,0.002-2.438,0.002-3.656,0c-0.099,0-0.125,0.034-0.123,0.127c0.005,0.262,0.006,0.524,0,0.786
		c-0.003,0.108,0.039,0.134,0.139,0.132c0.146-0.003,0.292,0.003,0.438,0.015c0.155,0.013,0.219,0.089,0.226,0.26
		c0.034,0.84,0.018,1.681,0.017,2.521c-0.002,1.029,0.021,2.059-0.017,3.087c-0.006,0.164-0.066,0.237-0.214,0.255
		c-0.145,0.016-0.291,0.031-0.436,0.025c-0.124-0.004-0.156,0.039-0.152,0.158c0.008,0.242,0.007,0.486,0,0.729
		c-0.002,0.106,0.022,0.149,0.14,0.149c1.206-0.004,2.412-0.004,3.618,0c0.099,0,0.142-0.021,0.139-0.131
		c-0.008-0.257-0.007-0.513-0.001-0.769c0.003-0.101-0.024-0.14-0.131-0.138c-0.157,0-0.315,0-0.472-0.031
		c-0.139-0.028-0.193-0.096-0.192-0.237C52.375,43.732,52.373,42.793,52.373,41.855z M68.732,41.855
		c0,0.938-0.002,1.875,0.002,2.812c0,0.141-0.053,0.211-0.19,0.238c-0.157,0.029-0.313,0.031-0.472,0.031
		c-0.098,0-0.141,0.02-0.139,0.129c0.008,0.262,0.008,0.523,0.002,0.785c-0.004,0.101,0.032,0.121,0.125,0.121
		c1.213-0.002,2.424-0.002,3.637,0c0.1,0,0.142-0.022,0.14-0.131c-0.007-0.257-0.007-0.513-0.001-0.769
		c0.003-0.103-0.029-0.138-0.134-0.138c-0.177,0-0.354,0.008-0.525-0.045c-0.095-0.026-0.14-0.078-0.14-0.183
		c0-0.157-0.021-0.315-0.02-0.473c0.01-1.748-0.029-3.496,0.02-5.243c0.003-0.114,0.051-0.164,0.15-0.19
		c0.168-0.044,0.338-0.039,0.508-0.032c0.098,0.003,0.145-0.02,0.142-0.13c-0.008-0.262-0.008-0.524,0-0.786
		c0.003-0.11-0.042-0.129-0.14-0.129c-1.213,0.003-2.426,0.003-3.637,0c-0.094,0-0.129,0.021-0.125,0.12
		c0.006,0.268,0.006,0.536,0,0.804c-0.004,0.1,0.035,0.122,0.127,0.121c0.15-0.002,0.305,0.002,0.455,0.017
		c0.145,0.014,0.221,0.085,0.219,0.252C68.729,39.979,68.732,40.917,68.732,41.855z M38.583,42.101c0-1.088-0.1-1.734-0.329-2.374
		c-0.589-1.642-2.01-2.464-3.679-2.109c-1.082,0.23-1.765,0.941-2.164,1.932c-0.506,1.259-0.515,2.562-0.232,3.871
		c0.166,0.771,0.518,1.448,1.095,2.002c1.174,1.125,3.735,1.096,4.761-0.947C38.45,43.651,38.576,42.769,38.583,42.101z
		 M24.767,41.904c-0.001-0.785-0.084-1.495-0.332-2.178c-0.595-1.639-2.001-2.456-3.662-2.11c-1.091,0.227-1.79,0.937-2.179,1.938
		c-0.56,1.44-0.555,2.913-0.082,4.375c0.254,0.787,0.714,1.436,1.445,1.857c1.171,0.678,3.385,0.605,4.333-1.46
		C24.653,43.537,24.76,42.699,24.767,41.904z M95.325,41.834c0.004-0.729-0.08-1.444-0.339-2.131
		c-0.758-2.028-2.494-2.447-3.938-2.01c-0.955,0.29-1.548,0.983-1.903,1.882c-0.486,1.232-0.496,2.504-0.236,3.785
		c0.156,0.779,0.503,1.467,1.074,2.031c1.189,1.172,3.771,1.123,4.791-0.906C95.193,43.648,95.323,42.755,95.325,41.834z
		 M85.115,43.244c-0.203,0.459-0.405,0.918-0.608,1.377c-0.034,0.077-0.019,0.109,0.072,0.105c0.146-0.008,0.292-0.016,0.438-0.012
		c0.09,0.002,0.104-0.035,0.108-0.117C85.148,44.148,85.15,43.701,85.115,43.244z"/>
	<path fill="#20201E" d="M68.158,50.187c-0.004,0.236-0.016,0.476-0.004,0.711c0.008,0.15-0.043,0.18-0.184,0.179
		c-1.57-0.005-3.142-0.003-4.712-0.003c-0.086,0-0.171-0.006-0.256,0.002c-0.146,0.012-0.254-0.006-0.216-0.195
		c0.023-0.115-0.059-0.113-0.133-0.104c-0.104,0.014-0.137-0.026-0.131-0.131c0.006-0.151-0.002-0.303-0.004-0.456
		c0.013-0.077,0.071-0.066,0.125-0.067c0.123-0.002,0.244-0.009,0.364-0.004c0.148,0.005,0.204-0.062,0.202-0.209
		c-0.006-0.383-0.002-0.767-0.002-1.147c0-0.252,0-0.256-0.248-0.25c-0.109,0.002-0.195-0.004-0.182-0.146
		c0.029-0.129,0.011-0.216-0.154-0.186c-0.079,0.016-0.104-0.021-0.102-0.102c0.006-0.146,0.006-0.292,0-0.438
		c-0.004-0.082,0.029-0.104,0.105-0.103c1.018,0.001,2.033,0.002,3.051-0.001c0.123-0.001,0.104,0.077,0.098,0.146
		c-0.012,0.119,0.004,0.205,0.158,0.174c0.097-0.02,0.107,0.042,0.105,0.119c-0.003,0.127,0.001,0.256,0.003,0.384
		c-0.005,0.112-0.06,0.161-0.175,0.149c-0.104-0.01-0.207,0-0.311-0.008c-0.135-0.008-0.195,0.033-0.192,0.184
		c0.01,0.414,0.008,0.828,0.001,1.242c-0.002,0.121,0.033,0.157,0.154,0.154c0.371-0.007,0.742-0.009,1.113,0
		c0.157,0.004,0.236-0.043,0.206-0.206c-0.021-0.118,0.043-0.128,0.136-0.126c0.248,0.003,0.498,0.006,0.748-0.001
		c0.1-0.002,0.151,0.021,0.137,0.13c-0.021,0.143,0.022,0.227,0.187,0.201C68.135,50.067,68.154,50.119,68.158,50.187z
		 M65.186,50.542c0.772,0,1.547-0.003,2.319,0.003c0.126,0.001,0.166-0.031,0.165-0.163c-0.002-0.406,0.003-0.406-0.408-0.406
		c-0.043,0-0.086,0-0.129,0c-0.043,0.002-0.072,0.021-0.066,0.065c0.029,0.233-0.146,0.245-0.293,0.251
		c-0.522,0.02-1.047,0.027-1.569-0.003c-0.286-0.017-0.327-0.071-0.328-0.362c-0.002-0.451-0.006-0.9,0.001-1.353
		c0.01-0.617-0.033-0.576,0.562-0.618c0.064-0.005,0.117,0,0.119-0.093c0.002-0.091-0.045-0.095-0.113-0.095
		c-0.864,0.004-1.729,0.006-2.594,0.009c-0.056,0-0.106-0.011-0.106,0.077c0,0.084,0.032,0.101,0.106,0.103
		c0.125,0.004,0.252,0.015,0.375,0.036c0.102,0.02,0.178,0.052,0.188,0.193c0.038,0.541,0.01,1.082,0.017,1.623
		c0.006,0.479-0.033,0.514-0.521,0.531c-0.078,0.002-0.164-0.014-0.165,0.111c0,0.132,0.096,0.086,0.154,0.086
		C63.662,50.543,64.423,50.542,65.186,50.542z"/>
	<path fill="#E20713" d="M68.158,50.187c-0.004-0.068-0.023-0.12-0.107-0.106c-0.162,0.024-0.205-0.06-0.188-0.201
		c0.017-0.108-0.036-0.132-0.135-0.13c-0.25,0.006-0.5,0.004-0.75,0.001c-0.092-0.002-0.155,0.007-0.135,0.126
		c0.03,0.163-0.049,0.21-0.205,0.206c-0.371-0.009-0.744-0.007-1.115,0c-0.119,0.003-0.155-0.034-0.153-0.153
		c0.007-0.414,0.009-0.828-0.001-1.242c-0.003-0.15,0.059-0.191,0.191-0.185c0.104,0.007,0.209-0.002,0.312,0.009
		c0.116,0.01,0.17-0.039,0.175-0.15c1.361,0.001,2.723,0.002,4.084,0.003c0.073,0,0.146,0.003,0.219,0.005
		c-0.019,0.031-0.031,0.066-0.055,0.094c-0.416,0.504-0.831,1.008-1.248,1.51c-0.07,0.084-0.163,0.125-0.275,0.154
		c-0.121,0.032-0.256-0.016-0.364,0.064C68.323,50.189,68.24,50.189,68.158,50.187z"/>
	<path fill="#E20713" d="M62.781,48.365c-0.016,0.143,0.072,0.148,0.182,0.146c0.248-0.006,0.248-0.002,0.248,0.25
		c0,0.383-0.004,0.766,0.002,1.147c0.002,0.147-0.054,0.214-0.201,0.209c-0.121-0.005-0.242,0.002-0.365,0.004
		c-0.054,0.001-0.112-0.01-0.125,0.067c-0.179,0-0.356,0-0.535,0c-0.002-0.012-0.006-0.023-0.006-0.036
		c-0.008-0.229-0.008-0.235-0.236-0.179c-0.646,0.162-1.305,0.207-1.965,0.172c-0.305-0.018-0.611-0.09-0.896-0.215
		c-0.191-0.084-0.289-0.4-0.212-0.653c0.159-0.529,0.546-0.785,1.171-0.812c0.277-0.012,0.555-0.019,0.83,0.006
		c0.11,0.01,0.254-0.054,0.299,0.125c0.002,0.012,0.045,0.021,0.064,0.019c0.152-0.026,0.193,0.052,0.179,0.187
		c-0.011,0.09,0.036,0.11,0.118,0.109c0.262-0.004,0.523-0.005,0.785,0c0.096,0.002,0.128-0.031,0.125-0.126
		c-0.004-0.14,0.004-0.278,0.007-0.419C62.426,48.367,62.604,48.366,62.781,48.365z"/>
	<path fill="#20201E" d="M68.406,50.189c0.109-0.079,0.242-0.031,0.363-0.063c0.113-0.028,0.205-0.069,0.276-0.155
		c0.417-0.502,0.832-1.004,1.248-1.509c0.022-0.026,0.036-0.062,0.056-0.094c0.236-0.231,0.428-0.506,0.639-0.761
		c0.074-0.09,0.144-0.139,0.256-0.122c0.023,0.003,0.05,0.004,0.072-0.001c0.348-0.074,0.582,0.076,0.771,0.357
		c0.126,0.187,0.286,0.35,0.432,0.522c0.183,0.212,0.367,0.423,0.547,0.637c0.174,0.205,0.334,0.423,0.519,0.617
		c0.185,0.192,0.334,0.431,0.608,0.522c0.121,0.039,0.254-0.039,0.365,0.049c-0.014,0.141-0.045,0.291,0.188,0.25
		c0.074-0.012,0.068,0.048,0.068,0.097c0,0.146-0.004,0.293,0.002,0.438c0.004,0.084-0.031,0.101-0.106,0.1
		c-0.925-0.002-1.851-0.002-2.774,0.001c-0.104,0.001-0.129-0.039-0.117-0.129c0.015-0.12,0.007-0.222-0.162-0.19
		c-0.104,0.021-0.1-0.052-0.102-0.123c-0.01-0.333-0.011-0.333-0.343-0.333c-0.25,0-0.5,0.002-0.749-0.002
		c-0.094-0.003-0.146,0.029-0.172,0.118c0.261,0.048,0.261,0.048,0.261,0.333c0,0.324,0,0.324-0.321,0.324
		c-0.47,0-0.938-0.004-1.406,0.003c-0.121,0.002-0.168-0.033-0.149-0.152c0.019-0.113-0.006-0.193-0.147-0.166
		c-0.108,0.021-0.116-0.046-0.114-0.13C68.414,50.482,68.408,50.336,68.406,50.189z M73.039,50.542c0.385,0,0.77,0,1.152,0
		c0.066,0,0.135,0.007,0.14-0.097c0.004-0.102-0.06-0.105-0.13-0.104c-0.141,0.004-0.258-0.048-0.36-0.142
		c-0.221-0.202-0.407-0.435-0.603-0.658c-0.484-0.558-0.939-1.141-1.454-1.672c-0.252-0.261-0.582-0.226-0.796,0.062
		c-0.231,0.31-0.481,0.604-0.725,0.903c-0.314,0.39-0.625,0.783-0.947,1.165c-0.149,0.178-0.313,0.354-0.58,0.34
		c-0.086-0.004-0.1,0.038-0.103,0.11c-0.004,0.096,0.052,0.091,0.116,0.091c0.396-0.001,0.792,0,1.188,0
		c0.062,0,0.119,0.01,0.121-0.088c0.002-0.098-0.049-0.105-0.123-0.113c-0.097-0.012-0.238,0.051-0.275-0.063
		c-0.034-0.104,0.083-0.188,0.152-0.269c0.023-0.027,0.039-0.062,0.062-0.091c0.081-0.104,0.169-0.167,0.32-0.163
		c0.455,0.014,0.912,0.012,1.369,0.002c0.209-0.004,0.386,0,0.502,0.221c0.055,0.104,0.234,0.211,0.203,0.287
		c-0.053,0.125-0.233,0.066-0.361,0.078c-0.065,0.006-0.133-0.004-0.133,0.103c0,0.107,0.061,0.098,0.129,0.098
		C72.284,50.541,72.662,50.542,73.039,50.542z"/>
	<path fill="#E20713" d="M90.6,50.183c-0.314,0-0.632,0.002-0.947,0.004c-0.002-0.029-0.01-0.062-0.006-0.09
		c0.02-0.146-0.028-0.174-0.174-0.138c-0.662,0.171-1.339,0.226-2.019,0.187c-0.323-0.021-0.646-0.092-0.948-0.229
		c-0.129-0.059-0.158-0.176-0.172-0.277c-0.049-0.397,0.061-0.779,0.479-0.99c0.23-0.117,0.479-0.161,0.737-0.182
		c0.248-0.02,0.493-0.029,0.739,0.004c0.127,0.018,0.289-0.063,0.354,0.129c0.004,0.012,0.045,0.019,0.066,0.016
		c0.146-0.02,0.182,0.064,0.172,0.186c-0.007,0.094,0.043,0.11,0.122,0.109c0.263-0.003,0.524-0.005,0.785,0.001
		c0.104,0.003,0.121-0.043,0.119-0.131c-0.005-0.14,0.003-0.279,0.005-0.42c0.154,0.003,0.311,0.005,0.466,0.007
		c-0.151,0.246-0.258,0.516-0.248,0.803c0.013,0.34,0.138,0.648,0.371,0.905C90.535,50.112,90.566,50.146,90.6,50.183z"/>
	<path fill="#20201E" d="M83.625,50.189c-0.014,0.143-0.044,0.291,0.188,0.252c0.074-0.014,0.068,0.048,0.069,0.097
		c0,0.146-0.005,0.293,0.001,0.438c0.004,0.084-0.033,0.099-0.107,0.099c-1.012-0.002-2.022-0.003-3.033,0.002
		c-0.129,0-0.121-0.071-0.112-0.151c0.011-0.113-0.006-0.195-0.149-0.168c-0.107,0.021-0.117-0.043-0.114-0.129
		c0.003-0.147-0.003-0.292-0.005-0.438c0.16-0.081,0.339-0.033,0.508-0.064c0.15-0.027,0.191-0.084,0.189-0.221
		c-0.004-0.381,0-0.764-0.002-1.145c0-0.302,0.028-0.265-0.259-0.264c-0.097,0-0.188,0.006-0.177-0.133
		c0.029-0.128,0.012-0.217-0.153-0.186c-0.079,0.015-0.112-0.021-0.102-0.101c0.001-0.006,0-0.013,0-0.019
		c0.009-0.168-0.068-0.385,0.03-0.492c0.093-0.1,0.312-0.028,0.474-0.028c0.856-0.003,1.714,0.001,2.569-0.004
		c0.137-0.001,0.209,0.022,0.182,0.175c-0.018,0.098,0.002,0.17,0.129,0.146c0.123-0.024,0.139,0.045,0.134,0.146
		c-0.005,0.121,0.003,0.243,0.007,0.364c0,0.1-0.045,0.135-0.146,0.131c-0.133-0.006-0.268,0.008-0.4,0.007
		c-0.093-0.001-0.131,0.038-0.13,0.132c0.002,0.467,0.002,0.936-0.001,1.403c-0.001,0.088,0.034,0.111,0.118,0.115
		C83.428,50.162,83.534,50.116,83.625,50.189z M82.004,50.541c0.42,0,0.84,0.001,1.26,0c0.062-0.001,0.137,0.027,0.139-0.087
		c0.004-0.114-0.067-0.108-0.141-0.112c-0.099-0.005-0.195-0.007-0.291-0.017c-0.15-0.017-0.234-0.078-0.244-0.253
		c-0.025-0.505-0.017-1.01-0.01-1.514c0.01-0.594-0.041-0.56,0.562-0.604c0.006,0,0.013-0.001,0.019,0
		c0.078,0.012,0.104-0.021,0.104-0.102c0-0.082-0.041-0.086-0.103-0.086c-0.116,0.002-0.231,0-0.348,0c-0.742,0-1.484,0-2.228,0.002
		c-0.062,0-0.137-0.024-0.138,0.089c-0.001,0.106,0.063,0.094,0.132,0.098c0.104,0.007,0.205,0.022,0.309,0.028
		c0.162,0.009,0.234,0.087,0.234,0.255c-0.003,0.511,0.008,1.022,0.01,1.532c0.002,0.537,0,0.537-0.535,0.57
		c-0.068,0.004-0.149-0.014-0.147,0.104c0.002,0.126,0.091,0.092,0.155,0.092C81.164,50.543,81.584,50.541,82.004,50.541z"/>
	<path fill="#E20713" d="M95.718,50.183c0.313-0.637,0.265-1.219-0.257-1.73c-0.021-0.021-0.031-0.052-0.046-0.077
		c0.327-0.005,0.655-0.012,0.983-0.013c0.67-0.002,1.34,0.004,2.009-0.004c0.142-0.002,0.17,0.037,0.167,0.172
		c-0.008,0.505-0.004,1.01-0.002,1.516c0,0.082,0.011,0.147-0.115,0.146C97.544,50.185,96.631,50.185,95.718,50.183z"/>
	<path fill="#E20713" d="M74.561,50.189c-0.112-0.086-0.246-0.008-0.367-0.049c-0.273-0.092-0.424-0.328-0.607-0.521
		c-0.186-0.193-0.345-0.412-0.518-0.617c-0.182-0.214-0.365-0.425-0.547-0.637c0.895-0.001,1.789-0.002,2.685-0.003
		c-0.011,0.237,0.106,0.413,0.243,0.604c0.48,0.668,1.228,0.771,1.935,0.967c0.161,0.045,0.328,0.069,0.494,0.14
		c-0.073,0.093-0.185,0.095-0.265,0.101c-0.348,0.021-0.698,0.047-1.047-0.021c-0.116-0.022-0.192-0.126-0.328-0.121
		c-0.065,0.002-0.065-0.117-0.062-0.188c0.006-0.104-0.035-0.138-0.138-0.135c-0.229,0.006-0.462,0.008-0.692-0.001
		c-0.117-0.004-0.145,0.045-0.14,0.15c0.006,0.108-0.004,0.218-0.007,0.327C74.984,50.187,74.771,50.189,74.561,50.189z"/>
	<path fill="#E20713" d="M80.62,48.365c-0.011,0.139,0.08,0.133,0.177,0.133c0.287-0.001,0.258-0.038,0.26,0.264
		c0,0.381-0.004,0.764,0,1.145c0.002,0.137-0.037,0.193-0.188,0.221c-0.169,0.031-0.349-0.017-0.509,0.064
		c-0.104,0-0.211-0.002-0.315-0.002c0.022-0.241-0.097-0.412-0.237-0.602c-0.25-0.333-0.57-0.544-0.943-0.719
		c0.228,0,0.453-0.006,0.68,0.002c0.121,0.005,0.162-0.039,0.156-0.156c-0.008-0.115,0.002-0.229,0.004-0.346
		C80.008,48.368,80.314,48.367,80.62,48.365z"/>
	<path fill="#E20713" d="M83.625,50.189c-0.091-0.073-0.197-0.027-0.296-0.033c-0.084-0.004-0.119-0.027-0.118-0.115
		c0.003-0.469,0.003-0.938,0.001-1.404c-0.001-0.093,0.037-0.132,0.13-0.131c0.133,0.002,0.268-0.013,0.4-0.007
		c0.102,0.004,0.146-0.032,0.146-0.131c0.137,0.002,0.273,0.004,0.411,0.007c-0.405,0.579-0.37,1.13,0.107,1.646
		c0.045,0.05,0.079,0.106,0.116,0.162C84.227,50.185,83.926,50.187,83.625,50.189z"/>
	<path fill="#E20713" d="M77.438,48.497c0.256-0.11,0.812-0.087,1.039,0.036c0.028,0.018,0.069,0.018,0.104,0.018
		c0.17-0.002,0.146,0.125,0.131,0.219c-0.021,0.14-0.116,0.039-0.166,0.026C78.177,48.702,77.811,48.599,77.438,48.497z"/>
	<path fill="#E20713" d="M15.576,31.187c-0.097,0-0.195-0.003-0.292,0.001c-0.083,0.003-0.134-0.005-0.134-0.113
		c0-0.107,0.048-0.116,0.132-0.114c0.201,0.004,0.401-0.002,0.602,0.005c0.082,0.003,0.201,0.02,0.202,0.112
		c0.001,0.1-0.116,0.104-0.201,0.106c-0.103,0.004-0.207,0.001-0.31,0.001C15.576,31.186,15.576,31.186,15.576,31.187z"/>
	<path fill="#E20713" d="M50.809,31.187c-0.099,0-0.195-0.005-0.293,0.001c-0.093,0.006-0.125-0.023-0.125-0.121
		c0-0.097,0.042-0.108,0.123-0.106c0.193,0.004,0.389-0.001,0.582,0.003c0.053,0.001,0.105,0.021,0.157,0.037
		c0.042,0.012,0.088,0.034,0.081,0.083c-0.008,0.053-0.062,0.082-0.107,0.086c-0.139,0.013-0.277,0.015-0.418,0.021
		C50.809,31.19,50.809,31.188,50.809,31.187z"/>
	<path fill="#E20713" d="M78.516,31.187c-0.098,0-0.195-0.006-0.291,0.001c-0.097,0.007-0.125-0.026-0.125-0.123
		c0-0.098,0.045-0.106,0.121-0.105c0.188,0.003,0.377,0.003,0.565,0c0.063,0,0.118,0.016,0.176,0.04
		c0.04,0.017,0.087,0.036,0.079,0.085c-0.009,0.052-0.062,0.083-0.107,0.086c-0.14,0.007-0.279,0.002-0.418,0.002
		C78.516,31.179,78.516,31.182,78.516,31.187z"/>
	<path fill="#E20713" d="M43.531,31.18c-0.097,0-0.193-0.002-0.29,0c-0.072,0.002-0.125,0.004-0.125-0.099
		c0-0.102,0.039-0.119,0.127-0.117c0.206,0.005,0.412-0.002,0.617,0.003c0.076,0.002,0.18,0.01,0.179,0.109
		c-0.001,0.101-0.107,0.097-0.181,0.102C43.749,31.184,43.64,31.179,43.531,31.18z"/>
	<path fill="#E20713" d="M74.596,31.78c-0.306-0.001-0.556-0.198-0.554-0.436c0.002-0.227,0.276-0.413,0.581-0.395
		c0.27,0.016,0.511,0.218,0.512,0.429C75.137,31.598,74.891,31.782,74.596,31.78z"/>
	<path fill="#E20713" d="M66.917,31.78c-0.304-0.001-0.554-0.199-0.552-0.437c0.003-0.221,0.266-0.406,0.564-0.394
		c0.278,0.011,0.527,0.212,0.528,0.43C67.46,31.599,67.214,31.782,66.917,31.78z"/>
	<path fill="#E20713" d="M54.479,31.389c0.061-0.087,0.11-0.161,0.164-0.24c0.062,0.075,0.115,0.144,0.15,0.24
		C54.693,31.389,54.602,31.389,54.479,31.389z"/>
	<path fill="#E20713" d="M35.798,31.39c0.062-0.09,0.113-0.164,0.171-0.248c0.053,0.083,0.101,0.158,0.158,0.248
		C36.014,31.39,35.92,31.39,35.798,31.39z"/>
	<path fill="#E20713" d="M46.458,31.146c0.054,0.08,0.117,0.145,0.146,0.243c-0.1,0-0.195,0-0.299,0
		C46.332,31.294,46.406,31.23,46.458,31.146z"/>
	<path fill="#E20713" d="M7.873,31.388c0.058-0.085,0.108-0.158,0.167-0.245c0.053,0.082,0.101,0.155,0.159,0.245
		C8.084,31.388,7.988,31.388,7.873,31.388z"/>
	<path fill="#E20713" d="M91.238,31.141c0.058,0.088,0.103,0.159,0.158,0.246c-0.113,0-0.209,0-0.324,0
		C91.129,31.303,91.18,31.229,91.238,31.141z"/>
	<path fill="#20201E" d="M93.859,49.097c-0.019,0.314-0.037,0.58-0.152,0.83c-0.157,0.338-0.439,0.479-0.793,0.479
		c-0.354,0.001-0.67-0.113-0.821-0.464c-0.226-0.521-0.225-1.056-0.006-1.574c0.157-0.372,0.519-0.519,0.997-0.451
		c0.393,0.056,0.648,0.322,0.729,0.774C93.84,48.841,93.848,48.992,93.859,49.097z M93.531,49.449
		c0.007-0.186-0.008-0.365-0.065-0.541c-0.146-0.447-0.728-0.63-1.104-0.346c-0.084,0.063-0.156,0.146-0.176,0.248
		c-0.066,0.353-0.051,0.703,0.104,1.029c0.205,0.432,0.887,0.477,1.163,0.086C93.557,49.778,93.521,49.61,93.531,49.449z"/>
	<path fill="#E20713" d="M14.118,36.646c-0.251,0.611-0.503,1.223-0.754,1.834c-1.04,2.535-2.081,5.07-3.117,7.606
		c-0.055,0.136-0.117,0.197-0.273,0.189c-0.304-0.017-0.609-0.013-0.914-0.003c-0.13,0.006-0.189-0.037-0.237-0.159
		c-0.909-2.351-1.823-4.7-2.736-7.05c-0.332-0.855-0.663-1.71-1.011-2.607c-0.006,0.087-0.013,0.136-0.013,0.184
		c0,2.924-0.002,5.848,0.001,8.772c0,0.427,0.02,0.853,0.036,1.276C5.112,47,5.268,47.216,5.556,47.334
		c0.188,0.077,0.386,0.111,0.588,0.111c0.089,0,0.131,0.014,0.127,0.116c-0.008,0.231-0.007,0.464,0,0.695
		c0.002,0.096-0.03,0.121-0.124,0.121c-1.304-0.003-2.607-0.002-3.911,0c-0.091,0-0.132-0.021-0.129-0.123
		c0.006-0.23,0.007-0.463,0-0.693c-0.003-0.106,0.045-0.118,0.131-0.116c0.22,0.006,0.436-0.025,0.652-0.067
		c0.325-0.062,0.514-0.244,0.565-0.578c0.051-0.332,0.079-0.666,0.079-1c0-3.09,0-6.178,0-9.267c0-0.329-0.02-0.657-0.079-0.981
		c-0.071-0.391-0.203-0.525-0.598-0.608c-0.203-0.042-0.409-0.067-0.616-0.063c-0.103,0.001-0.138-0.029-0.134-0.134
		c0.007-0.219,0.006-0.438,0-0.658c-0.002-0.099,0.021-0.139,0.13-0.138c1.681,0.003,3.363,0.003,5.044-0.001
		c0.119,0,0.135,0.071,0.166,0.15c0.826,2.136,1.654,4.271,2.481,6.407c0.244,0.629,0.488,1.258,0.746,1.92
		c0.137-0.334,0.262-0.64,0.387-0.943c1-2.446,2.002-4.891,2.999-7.339c0.059-0.144,0.125-0.196,0.288-0.195
		c1.365,0.008,2.729,0.007,4.094,0.001c0.145,0,0.189,0.038,0.18,0.182c-0.013,0.194-0.01,0.39,0,0.584
		c0.006,0.125-0.026,0.167-0.159,0.167c-0.243-0.002-0.485,0.027-0.721,0.094c-0.245,0.07-0.396,0.218-0.449,0.473
		c-0.07,0.336-0.098,0.674-0.099,1.016c-0.005,2.114-0.01,4.228-0.014,6.341c-0.001,0.847-0.008,1.693,0.003,2.541
		c0.007,0.479-0.005,0.961,0.088,1.438c0.076,0.387,0.194,0.509,0.586,0.598c0.203,0.045,0.409,0.073,0.616,0.062
		c0.126-0.008,0.153,0.041,0.148,0.154c-0.008,0.201-0.013,0.403,0.001,0.604c0.011,0.154-0.051,0.18-0.187,0.178
		c-1.298-0.004-2.595-0.003-3.893-0.003c-0.476,0-0.951-0.004-1.426,0.003c-0.13,0.002-0.186-0.022-0.177-0.168
		c0.013-0.205,0.008-0.414,0.001-0.621c-0.004-0.105,0.019-0.149,0.138-0.146c0.189,0.004,0.375-0.032,0.554-0.1
		c0.291-0.109,0.461-0.314,0.479-0.627c0.021-0.357,0.037-0.717,0.037-1.076c0.002-2.996,0.001-5.992,0.001-8.988
		C14.139,36.652,14.128,36.65,14.118,36.646z"/>
	<path fill="#E20713" d="M48.676,33.601c1.979,0.017,3.768,0.237,5.543,0.598c0.135,0.027,0.178,0.073,0.176,0.211
		c-0.008,0.639-0.008,1.279,0,1.918c0.002,0.135-0.033,0.176-0.172,0.174c-0.451-0.009-0.902-0.007-1.353-0.001
		c-0.124,0.001-0.169-0.032-0.175-0.163c-0.022-0.556-0.314-0.944-0.787-1.209c-0.46-0.258-0.967-0.363-1.482-0.418
		c-0.931-0.1-1.86-0.103-2.773,0.144c-1.472,0.396-2.424,1.356-2.962,2.755c-0.376,0.977-0.512,1.999-0.547,3.038
		c-0.038,1.093,0.02,2.178,0.324,3.236c0.322,1.119,0.889,2.075,1.87,2.746c0.697,0.479,1.479,0.749,2.309,0.842
		c1.784,0.197,3.546,0.088,5.268-0.463c0.122-0.039,0.241-0.086,0.358-0.133c0.068-0.025,0.119-0.035,0.117,0.064
		c0,0.348-0.002,0.693,0.002,1.042c0,0.097-0.074,0.101-0.135,0.118c-0.701,0.228-1.417,0.396-2.145,0.517
		c-1.203,0.198-2.417,0.28-3.636,0.246c-2.001-0.06-3.907-0.478-5.626-1.56c-2.061-1.297-3.123-3.176-3.251-5.597
		c-0.064-1.21,0.051-2.396,0.496-3.531c0.658-1.681,1.871-2.832,3.48-3.59c1.164-0.548,2.404-0.806,3.678-0.92
		C47.782,33.621,48.311,33.604,48.676,33.601z"/>
	<path fill="#E20713" d="M80.455,39.418c0,0.058,0,0.115,0,0.172c0,1.334-0.001,2.668,0.001,4.002
		c0.001,0.357,0.015,0.717,0.021,1.076c0.004,0.346,0.11,0.488,0.451,0.512c0.19,0.014,0.237,0.086,0.213,0.254
		c-0.008,0.054-0.006,0.109,0,0.164c0.008,0.084-0.031,0.102-0.106,0.102c-0.714-0.002-1.425-0.002-2.138,0
		c-0.082,0-0.115-0.018-0.121-0.109c-0.021-0.363-0.023-0.363,0.336-0.406c0.314-0.037,0.414-0.131,0.445-0.447
		c0.021-0.229,0.034-0.461,0.034-0.692c0.003-1.462,0.003-2.924,0-4.385c0-0.261-0.002-0.524-0.051-0.782
		c-0.045-0.236-0.12-0.306-0.356-0.348c-0.078-0.014-0.16-0.038-0.236-0.028c-0.157,0.021-0.174-0.058-0.172-0.188
		c0.007-0.313,0.002-0.313,0.32-0.313c0.829,0,1.657,0.004,2.485-0.003c0.149-0.001,0.224,0.042,0.28,0.183
		c0.568,1.395,1.146,2.787,1.721,4.179c0.018,0.043,0.036,0.086,0.064,0.156c0.166-0.373,0.319-0.722,0.473-1.07
		c0.479-1.096,0.96-2.192,1.432-3.291C85.604,38.032,85.669,38,85.795,38c0.73,0.005,1.461,0.006,2.191,0
		c0.141-0.001,0.19,0.03,0.186,0.179c-0.01,0.292-0.001,0.293-0.291,0.333c-0.396,0.055-0.463,0.131-0.502,0.534
		c-0.033,0.328-0.025,0.657-0.025,0.985c0,1.389-0.002,2.778,0.002,4.167c0,0.193,0.015,0.391,0.037,0.582
		c0.035,0.277,0.133,0.365,0.409,0.402c0.054,0.008,0.11,0.023,0.163,0.017c0.17-0.022,0.215,0.049,0.207,0.214
		c-0.013,0.287-0.003,0.288-0.288,0.288c-0.913,0-1.827-0.007-2.741,0.005c-0.184,0.002-0.222-0.052-0.211-0.222
		c0.016-0.259,0.004-0.259,0.258-0.298c0.283-0.045,0.394-0.156,0.414-0.438c0.016-0.188,0.022-0.377,0.022-0.565
		c0.002-1.57,0.001-3.143-0.021-4.723c-0.127,0.287-0.254,0.574-0.379,0.862c-0.6,1.369-1.199,2.737-1.795,4.108
		c-0.047,0.107-0.103,0.162-0.229,0.15c-0.188-0.016-0.41,0.049-0.555-0.033c-0.146-0.084-0.164-0.324-0.236-0.498
		c-0.624-1.504-1.246-3.008-1.869-4.512c-0.018-0.042-0.04-0.083-0.061-0.124C80.473,39.415,80.464,39.417,80.455,39.418z"/>
	<path fill="#E20713" d="M72.836,44.825c0-0.22,0.004-0.438-0.002-0.657c-0.003-0.098,0.018-0.145,0.128-0.137
		c0.151,0.01,0.328-0.043,0.45,0.02c0.127,0.063,0.059,0.262,0.093,0.398c0.106,0.434,0.361,0.723,0.79,0.852
		c0.346,0.104,0.695,0.127,1.047,0.055c0.49-0.103,0.783-0.463,0.858-0.985c0.088-0.61-0.152-1.063-0.622-1.424
		c-0.297-0.228-0.633-0.39-0.951-0.576c-0.484-0.286-0.939-0.608-1.292-1.058c-0.653-0.833-0.655-1.997-0.001-2.723
		c0.468-0.521,1.075-0.732,1.756-0.769c0.738-0.04,1.451,0.104,2.156,0.304c0.083,0.023,0.104,0.066,0.104,0.143
		c-0.002,0.39-0.002,0.78,0,1.169c0,0.081-0.016,0.131-0.108,0.117c-0.013-0.001-0.024,0-0.036,0
		c-0.146-0.001-0.314,0.043-0.434-0.015c-0.138-0.067-0.058-0.261-0.088-0.397c-0.113-0.488-0.427-0.769-0.963-0.824
		c-0.201-0.021-0.402-0.008-0.599,0.041c-0.618,0.154-0.946,0.918-0.66,1.534c0.151,0.326,0.413,0.557,0.706,0.747
		c0.361,0.235,0.739,0.445,1.102,0.681c0.381,0.245,0.726,0.534,1.006,0.894c0.957,1.221,0.509,2.873-0.935,3.444
		c-0.604,0.239-1.233,0.256-1.868,0.215c-0.511-0.034-1.014-0.123-1.513-0.235c-0.094-0.021-0.131-0.054-0.127-0.152
		C72.841,45.263,72.836,45.044,72.836,44.825z"/>
	<path fill="#E20713" d="M29.169,41.913c0.011,0.808-0.02,1.774,0.024,2.742c0.016,0.344,0.128,0.475,0.474,0.526
		c0.342,0.052,0.338,0.052,0.321,0.404c-0.004,0.088-0.03,0.114-0.116,0.114c-1.047-0.002-2.095-0.002-3.143,0
		c-0.083,0.001-0.11-0.03-0.1-0.106c0-0.006,0-0.012,0-0.019c-0.012-0.345-0.012-0.345,0.323-0.396
		c0.329-0.047,0.448-0.174,0.465-0.496c0.047-0.931,0.017-1.862,0.022-2.793c0.005-1.029-0.002-2.06,0.005-3.088
		c0.001-0.155-0.044-0.195-0.194-0.188c-0.316,0.016-0.633-0.01-0.949,0.023c-0.249,0.026-0.301,0.076-0.343,0.316
		c-0.028,0.158-0.026,0.316-0.022,0.474c0.003,0.09-0.017,0.124-0.118,0.127c-0.449,0.013-0.449,0.017-0.449-0.437
		c0-0.323,0.003-0.646-0.001-0.968c-0.001-0.101,0.014-0.152,0.136-0.152c1.87,0.004,3.74,0.003,5.609,0
		c0.109,0,0.13,0.04,0.129,0.137c-0.004,0.433-0.005,0.865,0,1.297c0.001,0.098-0.031,0.12-0.125,0.122
		c-0.42,0.01-0.42,0.013-0.437-0.396c-0.02-0.454-0.056-0.5-0.506-0.527c-0.285-0.018-0.572-0.002-0.858-0.017
		c-0.145-0.007-0.151,0.063-0.151,0.175C29.17,39.778,29.169,40.765,29.169,41.913z"/>
	<path fill="#E20713" d="M59.896,44.798c0,0.117,0,0.202,0,0.287c0,0.387,0.002,0.393-0.361,0.508
		c-1.049,0.334-2.114,0.416-3.184,0.145c-1.285-0.326-2.101-1.163-2.447-2.432c-0.289-1.057-0.28-2.125,0.068-3.167
		c0.441-1.322,1.395-2.059,2.758-2.266c1.033-0.157,2.049-0.008,3.053,0.246c0.091,0.023,0.115,0.06,0.113,0.147
		c-0.002,0.426-0.004,0.853,0.002,1.279c0,0.094-0.021,0.13-0.121,0.125c-0.151-0.008-0.305-0.006-0.457,0
		c-0.092,0.004-0.141-0.018-0.125-0.119c0.003-0.012,0-0.024,0-0.037c-0.02-0.726-0.246-0.987-0.965-1.107
		c-1.035-0.173-1.808,0.219-2.229,1.137c-0.12,0.261-0.202,0.535-0.252,0.817c-0.184,1.042-0.21,2.083,0.053,3.116
		c0.34,1.334,1.297,1.955,2.666,1.765C58.96,45.173,59.426,45.033,59.896,44.798z"/>
	<path fill="#E20713" d="M64.139,45.7c-0.921,0-1.84-0.003-2.76,0.003c-0.133,0.001-0.195-0.027-0.168-0.168
		c0.001-0.006,0-0.012,0-0.018c-0.001-0.295-0.001-0.295,0.291-0.332c0.382-0.049,0.501-0.182,0.507-0.594
		c0.009-0.742,0.013-1.484,0.013-2.228c0-1.084-0.004-2.168-0.013-3.251c-0.003-0.417-0.1-0.526-0.483-0.592
		c-0.332-0.057-0.33-0.056-0.315-0.407c0.003-0.084,0.022-0.116,0.112-0.115c1.041,0.002,2.082,0.002,3.123,0
		c0.097,0,0.121,0.034,0.125,0.127c0.012,0.339,0.015,0.339-0.312,0.393c-0.376,0.062-0.475,0.172-0.484,0.553
		c-0.047,1.704-0.012,3.408-0.02,5.113c-0.001,0.199,0.004,0.4,0.053,0.599c0.028,0.119,0.092,0.188,0.211,0.224
		c0.231,0.067,0.469,0.068,0.707,0.069c0.377,0.002,0.754-0.004,1.131-0.013c0.379-0.008,0.5-0.127,0.52-0.496
		c0.02-0.41,0.02-0.41,0.428-0.41c0.289,0,0.289,0,0.289,0.284c0,0.358-0.007,0.718,0.004,1.077c0.004,0.141-0.031,0.185-0.18,0.183
		C65.988,45.696,65.062,45.7,64.139,45.7z"/>
	<path fill="#E20713" d="M52.086,41.876c0.018,0.918-0.02,1.855,0.021,2.792c0.014,0.314,0.107,0.438,0.412,0.505
		c0.071,0.016,0.146,0.032,0.217,0.025c0.14-0.014,0.177,0.04,0.174,0.176C52.902,45.7,52.909,45.7,52.585,45.7
		c-0.95,0-1.899-0.003-2.85,0.003c-0.143,0.001-0.203-0.021-0.195-0.184c0.015-0.297,0.003-0.297,0.295-0.334
		c0.372-0.047,0.495-0.17,0.501-0.539c0.03-1.861,0.03-3.725,0-5.586c-0.006-0.392-0.149-0.529-0.605-0.552
		c-0.171-0.008-0.195-0.064-0.19-0.211c0.01-0.294,0.003-0.295,0.299-0.295c0.962,0,1.924,0.003,2.887-0.003
		c0.143-0.001,0.188,0.035,0.184,0.181c-0.012,0.29-0.002,0.289-0.276,0.333c-0.077,0.013-0.155,0.027-0.229,0.053
		c-0.213,0.072-0.286,0.184-0.295,0.407C52.068,39.934,52.1,40.894,52.086,41.876z"/>
	<path fill="#E20713" d="M69.891,45.7c-0.5,0-1-0.006-1.498,0.003c-0.146,0.003-0.203-0.023-0.195-0.186
		c0.013-0.295,0.003-0.295,0.299-0.332c0.376-0.047,0.492-0.178,0.502-0.556c0.045-1.716,0.01-3.433,0.02-5.149
		c0.002-0.176-0.017-0.353-0.019-0.529c-0.002-0.197-0.101-0.322-0.28-0.382c-0.097-0.033-0.201-0.042-0.301-0.069
		c-0.07-0.02-0.189,0.047-0.208-0.052c-0.024-0.134-0.008-0.278,0.006-0.416c0.005-0.047,0.072-0.031,0.113-0.031
		c1.034-0.001,2.069,0,3.104-0.003c0.105,0,0.129,0.037,0.131,0.136c0.004,0.331,0.009,0.331-0.317,0.387
		c-0.375,0.065-0.47,0.165-0.478,0.558c-0.029,1.844-0.029,3.689,0,5.534c0.008,0.424,0.119,0.54,0.56,0.571
		c0.19,0.016,0.256,0.066,0.239,0.266c-0.022,0.248-0.006,0.25-0.254,0.25C70.84,45.7,70.363,45.7,69.891,45.7z"/>
	<path fill="#E20713" d="M38.323,41.821c-0.019,0.897-0.118,1.763-0.541,2.562c-0.765,1.441-2.583,1.967-3.947,1.129
		c-0.635-0.391-1.039-0.978-1.253-1.675c-0.465-1.515-0.483-3.028,0.218-4.48c0.917-1.899,3.138-1.834,4.178-1.006
		c0.675,0.538,1.021,1.268,1.204,2.091C38.283,40.9,38.312,41.368,38.323,41.821z M36.449,41.822
		c-0.01-0.65-0.022-1.301-0.132-1.945c-0.067-0.397-0.153-0.79-0.375-1.134c-0.351-0.544-0.959-0.536-1.299,0.015
		c-0.152,0.246-0.247,0.516-0.3,0.798c-0.272,1.442-0.26,2.89-0.046,4.336c0.06,0.41,0.166,0.812,0.426,1.149
		c0.34,0.442,0.874,0.425,1.19-0.038c0.146-0.213,0.232-0.453,0.296-0.701C36.418,43.488,36.431,42.655,36.449,41.822z"/>
	<path fill="#E20713" d="M24.503,41.821c-0.017,0.889-0.115,1.729-0.512,2.509c-0.771,1.516-2.702,2.05-4.063,1.125
		c-0.504-0.343-0.864-0.812-1.073-1.376c-0.569-1.539-0.597-3.095,0.071-4.604c0.557-1.258,1.514-1.674,2.578-1.665
		c1.277,0.012,2.114,0.685,2.608,1.828C24.417,40.345,24.489,41.093,24.503,41.821z M22.604,41.837c0-0.341,0.009-0.681-0.003-1.021
		c-0.008-0.236-0.035-0.473-0.068-0.708c-0.063-0.458-0.144-0.915-0.383-1.322c-0.348-0.593-0.981-0.597-1.337-0.011
		c-0.212,0.35-0.298,0.742-0.36,1.14c-0.133,0.863-0.144,1.73-0.113,2.602c0.02,0.555,0.064,1.104,0.191,1.646
		c0.075,0.32,0.173,0.635,0.385,0.896c0.337,0.414,0.841,0.4,1.157-0.028c0.135-0.185,0.218-0.394,0.282-0.608
		C22.6,43.577,22.607,42.707,22.604,41.837z"/>
	<path fill="#E20713" d="M95.062,41.888c-0.013,0.845-0.117,1.722-0.556,2.524c-0.782,1.438-2.635,1.938-3.975,1.069
		c-0.647-0.42-1.039-1.04-1.25-1.766c-0.396-1.363-0.401-2.73,0.12-4.063c0.359-0.922,0.998-1.585,2.013-1.78
		c1.562-0.3,2.815,0.458,3.353,2.004C94.986,40.513,95.059,41.168,95.062,41.888z M93.191,41.964
		c0.002-0.652-0.018-1.164-0.074-1.671c-0.059-0.514-0.135-1.027-0.396-1.487c-0.15-0.267-0.357-0.462-0.689-0.459
		c-0.336,0.002-0.533,0.207-0.684,0.472c-0.166,0.294-0.248,0.619-0.309,0.948c-0.162,0.897-0.167,1.803-0.141,2.708
		c0.019,0.64,0.067,1.275,0.248,1.895c0.084,0.287,0.19,0.564,0.412,0.78c0.301,0.288,0.7,0.28,0.988-0.021
		c0.213-0.223,0.312-0.504,0.393-0.793C93.161,43.513,93.173,42.667,93.191,41.964z"/>
	<path fill="#20201E" d="M70.188,49.556c0.232-0.279,0.453-0.539,0.664-0.806c0.069-0.088,0.107-0.075,0.174,0.002
		c0.223,0.265,0.451,0.523,0.695,0.804C71.205,49.556,70.71,49.556,70.188,49.556z"/>
	<path fill="#E20713" d="M93.531,49.449c-0.01,0.161,0.025,0.329-0.079,0.477c-0.276,0.392-0.958,0.348-1.163-0.086
		c-0.154-0.326-0.171-0.677-0.104-1.027c0.019-0.104,0.09-0.186,0.176-0.25c0.377-0.283,0.957-0.102,1.104,0.347
		C93.523,49.083,93.538,49.265,93.531,49.449z"/>
	<path fill="#20201E" d="M36.177,41.812c-0.004,0.811-0.027,1.617-0.224,2.408c-0.055,0.219-0.127,0.433-0.255,0.621
		c-0.225,0.33-0.552,0.336-0.787,0.008c-0.196-0.272-0.287-0.592-0.337-0.914c-0.226-1.435-0.237-2.869,0.025-4.3
		c0.049-0.27,0.135-0.53,0.288-0.762c0.233-0.354,0.589-0.354,0.821,0.002c0.218,0.333,0.294,0.716,0.354,1.102
		C36.157,40.585,36.183,41.199,36.177,41.812z M35.458,44.792c0.083-0.088,0.125-0.181,0.166-0.274
		c0.114-0.265,0.176-0.543,0.216-0.826c0.152-1.065,0.151-2.135,0.066-3.205c-0.034-0.426-0.092-0.852-0.263-1.261
		c-0.11,0.097-0.155,0.217-0.202,0.334c-0.121,0.301-0.18,0.618-0.219,0.938c-0.122,1.013-0.121,2.026-0.032,3.041
		C35.228,43.958,35.287,44.378,35.458,44.792z"/>
	<path fill="#20201E" d="M22.359,41.814c-0.007,0.804-0.028,1.604-0.222,2.392c-0.054,0.22-0.125,0.433-0.248,0.622
		c-0.224,0.348-0.559,0.357-0.798,0.021c-0.184-0.258-0.274-0.557-0.325-0.862c-0.247-1.507-0.262-3.013,0.052-4.513
		c0.045-0.214,0.125-0.418,0.25-0.603c0.238-0.352,0.589-0.352,0.822,0.005c0.217,0.334,0.292,0.717,0.353,1.102
		C22.339,40.586,22.363,41.2,22.359,41.814z M21.819,39.205c-0.241,0.333-0.323,0.688-0.377,1.047
		c-0.181,1.205-0.171,2.413-0.031,3.62c0.036,0.308,0.093,0.615,0.235,0.925c0.203-0.285,0.284-0.591,0.338-0.9
		c0.199-1.141,0.19-2.289,0.101-3.438C22.053,40.042,21.989,39.625,21.819,39.205z"/>
	<path fill="#20201E" d="M92.919,41.82c-0.008,0.82-0.024,1.641-0.233,2.441c-0.055,0.207-0.127,0.406-0.248,0.584
		c-0.223,0.323-0.549,0.332-0.775,0.014c-0.254-0.357-0.338-0.779-0.393-1.2c-0.166-1.272-0.17-2.546,0.028-3.816
		c0.05-0.312,0.13-0.618,0.287-0.897c0.099-0.176,0.222-0.329,0.442-0.333c0.231-0.004,0.365,0.149,0.467,0.33
		c0.208,0.373,0.279,0.787,0.336,1.203C92.904,40.701,92.922,41.259,92.919,41.82z M92.382,39.212
		c-0.187,0.234-0.269,0.482-0.317,0.738c-0.266,1.381-0.248,2.768-0.053,4.154c0.033,0.229,0.08,0.457,0.2,0.689
		c0.226-0.339,0.308-0.697,0.362-1.062c0.167-1.112,0.162-2.229,0.064-3.346C92.605,39.994,92.544,39.603,92.382,39.212z"/>
</g>
</svg>
