<?xml version="1.0" encoding="utf-8"?>
<!-- Generator: Adobe Illustrator 16.0.0, SVG Export Plug-In . SVG Version: 6.00 Build 0)  -->
<!DOCTYPE svg PUBLIC "-//W3C//DTD SVG 1.1//EN" "http://www.w3.org/Graphics/SVG/1.1/DTD/svg11.dtd">
<svg version="1.1" id="Layer_1" xmlns="http://www.w3.org/2000/svg" xmlns:xlink="http://www.w3.org/1999/xlink" x="0px" y="0px"
	 width="100px" height="100px" viewBox="0 0 100 100" enable-background="new 0 0 100 100" xml:space="preserve">
<g>
	<path d="M11.601,30.356c1.119,0.943,1.855,1.679,2.209,2.209c0.471,0.737,0.708,1.709,0.708,2.917c0,0.383,0.014,0.649,0.044,0.795
		l7.732-6.451l4.595,4.551l2.917-2.828l0.928,0.972c-1.385,1.297-2.269,2.446-2.651,3.447c-0.383,0.943-0.575,2.504-0.575,4.684
		v10.648c0,0.795,0,1.442,0,1.943c0,0.473,0.014,0.779,0.044,0.93c0.177,1.354,0.663,2.03,1.458,2.03
		c0.293,0,0.78-0.233,1.458-0.707c0.059-0.06,0.125-0.117,0.199-0.176c0.073-0.062,0.169-0.134,0.287-0.224l0.751,1.237
		l-6.583,5.259c-0.148-0.117-0.28-0.229-0.398-0.332c-0.118-0.104-0.207-0.185-0.266-0.242c-1.443-1.267-2.327-2.355-2.651-3.271
		c-0.325-0.911-0.486-2.694-0.486-5.347V36.674l-2.43-2.518l-4.33,3.579v17.234l2.121,2.297l-5.391,4.33l-5.346-4.463l2.43-2.299
		V38.793c0-0.824-0.015-1.502-0.044-2.033c-0.03-0.53-0.096-0.935-0.199-1.215c-0.104-0.279-0.243-0.47-0.42-0.574
		c-0.177-0.103-0.413-0.155-0.707-0.155c-0.236,0-0.751,0.221-1.546,0.663l-0.708-0.972l6.187-4.684
		C11.115,29.974,11.335,30.151,11.601,30.356z"/>
	<path d="M40.064,31.395c0.471,0.457,0.81,0.876,1.017,1.259c0.441,0.707,0.663,1.767,0.663,3.181v1.149l8.439-7.158
		c0.735,0.589,1.375,1.156,1.922,1.701c0.545,0.545,0.984,1.098,1.326,1.657c0.338,0.56,0.596,1.149,0.771,1.768
		s0.293,1.297,0.354,2.033l8.352-7.158l4.419,4.86l2.475-2.386l0.796,0.839c-1.121,1.09-1.886,2.062-2.298,2.916
		c-0.384,0.796-0.575,1.988-0.575,3.579v12.683c0,0.678,0.008,1.229,0.022,1.655c0.015,0.429,0.037,0.715,0.065,0.861
		c0.178,1.119,0.633,1.68,1.369,1.68c0.323,0,0.868-0.293,1.637-0.885l0.705,1.018l-5.965,4.949
		c-1.738-1.207-2.856-2.356-3.356-3.447c-0.472-1.062-0.708-2.916-0.708-5.566V36.985l-2.253-2.519l-4.507,3.888v16.836l2.209,2.253
		l-5.08,4.153l-5.348-4.153l2.033-2.253V39.812c0-1.119-0.118-1.958-0.354-2.519c-0.207-0.559-0.766-1.266-1.679-2.121l-0.441-0.486
		l-4.331,3.667v16.835l2.165,2.254l-4.993,4.152l-5.479-4.373l2.165-2.254V38.795c0-0.559-0.007-1.023-0.022-1.392
		c-0.015-0.368-0.037-0.641-0.066-0.817c-0.177-0.913-0.619-1.37-1.326-1.37c-0.235,0-0.692,0.207-1.369,0.619
		c-0.03,0.03-0.067,0.06-0.111,0.089c-0.044,0.029-0.11,0.074-0.198,0.132l-0.751-1.06l6.495-5.169
		C38.988,30.416,39.592,30.938,40.064,31.395z"/>
	<path d="M73.363,29.915c1.68-1.266,2.519-2.474,2.519-3.623c0-1.237-0.707-2.475-2.12-3.712l-0.398-0.353l3.935-4.065l4.063,3.977
		c-1.146,4.536-3.666,7.527-7.555,8.97L73.363,29.915z"/>
	<path d="M73.125,46.484V35.35c2.004-0.619,3.607-1.326,4.816-2.121c0.588-0.412,1.172-0.898,1.744-1.458
		c0.576-0.559,1.111-1.208,1.613-1.944c2.944,1.532,5.641,2.297,8.085,2.297c2.093,0,3.14-0.677,3.14-2.033
		c0-0.324-0.082-0.619-0.244-0.883c-0.162-0.266-0.33-0.523-0.508-0.773c-0.176-0.25-0.332-0.501-0.463-0.751
		c-0.135-0.25-0.187-0.522-0.156-0.817c0-1.178,0.619-1.768,1.855-1.768c1.442,0,2.164,0.825,2.164,2.474
		c0,1.591-0.854,3.55-2.562,5.877l-5.346,7.335l6.449,3.756v12.239c-3.24,0.943-6.127,2.549-8.66,4.816
		c-2.533-1.592-4.904-2.388-7.113-2.388c-2.121,0-4.168,0.796-6.142,2.388l-0.841-0.707l7.998-11.225L73.125,46.484z M77.014,55.277
		c1.532-0.53,2.932-0.795,4.198-0.795c1.825,0,3.888,0.617,6.187,1.854v-8.438l-3.668-2.033L77.014,55.277z M88.236,36.631
		c-0.412,0.03-0.812,0.052-1.192,0.066c-0.384,0.015-0.751,0.022-1.104,0.022c-2.474,0-4.697-0.663-6.672-1.988v8.396l3.094,1.812
		L88.236,36.631z"/>
</g>
</svg>
