<?xml version="1.0" encoding="utf-8"?>
<!-- Generator: Adobe Illustrator 16.0.0, SVG Export Plug-In . SVG Version: 6.00 Build 0)  -->
<!DOCTYPE svg PUBLIC "-//W3C//DTD SVG 1.1//EN" "http://www.w3.org/Graphics/SVG/1.1/DTD/svg11.dtd">
<svg version="1.1" id="Layer_1" xmlns="http://www.w3.org/2000/svg" xmlns:xlink="http://www.w3.org/1999/xlink" x="0px" y="0px"
	 width="100px" height="100px" viewBox="0 0 100 100" enable-background="new 0 0 100 100" xml:space="preserve">
<polygon fill="#9D4423" points="0,37.892 5.243,35.149 6.151,39.612 "/>
<polygon fill="#A4532F" points="12.752,40.354 5.243,35.149 7.909,48.249 "/>
<polygon fill="#B06947" points="16.206,34.721 7.909,48.249 21.074,57.354 "/>
<polygon fill="#A65632" points="25.915,32.134 16.205,34.721 18.28,44.368 "/>
<polygon fill="#A95C38" points="19.905,51.924 27.547,53.004 21.074,57.354 "/>
<polygon fill="#9D4423" points="28.089,58.118 27.547,53.003 24.553,55.016 "/>
<polygon fill="#F17C97" points="24.539,25.094 41.122,18.582 38.296,33.316 "/>
<polygon fill="#EF5380" points="17.755,18.311 24.539,25.094 41.122,18.582 "/>
<polygon fill="#F06A8C" points="57.742,32.162 41.122,18.582 38.296,33.316 "/>
<polygon fill="#EC2472" points="56.588,36.822 41.716,34.095 41.979,33.097 57.742,32.162 "/>
<polygon fill="#EF5F86" points="39.091,42.344 41.716,34.095 56.588,36.822 "/>
<polygon fill="#ED3F79" points="26.783,46.358 41.716,34.095 38.169,45.953 "/>
<polygon fill="#EF5681" points="57.742,32.162 60.04,26.695 61.922,22.218 50.357,26.127 "/>
<polygon fill="#EC2472" points="65.612,25.671 61.922,22.218 60.04,26.695 "/>
<polygon fill="#EC2472" points="51.805,13.341 55.333,24.446 50.357,26.127 45.002,21.752 "/>
<polygon fill="#EF5D85" points="35.29,12.964 51.805,13.341 45.002,21.752 41.122,18.582 38.262,18.549 "/>
<polygon fill="#EE487D" points="33.381,3.943 51.805,13.341 35.29,12.964 "/>
<polygon fill="#7BC4BE" points="74.35,39.174 55.482,40.379 81.342,60.614 "/>
<polygon fill="#51B8AF" points="89.625,50.789 74.352,39.174 81.342,60.614 87.823,56.857 "/>
<polygon fill="#65BDB5" points="93.682,39.424 82.341,45.25 89.625,50.789 "/>
<polygon fill="#09AFA4" points="99.965,43.953 93.682,39.424 91.815,44.657 "/>
<polygon fill="#09AFA4" points="53.767,44.972 59.769,43.732 81.342,60.614 "/>
<polygon fill="#65BDB5" points="68.379,69.981 73.622,56.235 81.342,60.614 "/>
<polygon fill="#45B5AC" points="74.621,74.825 72.713,66.851 68.379,69.981 "/>
<polygon fill="#09AFA4" points="69.484,74.519 71.92,72.727 74.621,74.825 "/>
<path fill="#9D4423" d="M32.263,54.495c0.298,0.128,0.565,0.302,0.801,0.522c0.236,0.217,0.43,0.473,0.58,0.767
	c0.151,0.289,0.227,0.6,0.227,0.929c0,0.665-0.243,1.234-0.731,1.706c-0.483,0.469-1.07,0.702-1.759,0.702
	c-0.688,0-1.272-0.233-1.752-0.702c-0.484-0.472-0.726-1.041-0.726-1.706c0-0.325,0.073-0.634,0.221-0.929
	c0.147-0.291,0.338-0.546,0.575-0.767c0.24-0.221,0.506-0.395,0.801-0.522c0.298-0.128,0.594-0.19,0.888-0.19
	C31.677,54.305,31.97,54.367,32.263,54.495 M31.398,54.663c-0.441,0-0.818,0.205-1.131,0.61c-0.313,0.406-0.47,0.895-0.47,1.463
	c0,0.569,0.157,1.056,0.47,1.462c0.313,0.407,0.69,0.609,1.131,0.609c0.441,0,0.813-0.182,1.115-0.545
	c0.305-0.368,0.466-0.874,0.481-1.521c0-0.348-0.037-0.646-0.11-0.892c-0.074-0.245-0.188-0.457-0.343-0.635
	c-0.325-0.369-0.708-0.553-1.149-0.553H31.398z"/>
<path fill="#9D4423" d="M34.37,55.831c0.085,0.007,0.155,0.011,0.209,0.011h0.215h0.192c0.042,0,0.106-0.004,0.191-0.011
	c0.046,0,0.069,0.017,0.069,0.052c0,0.054-0.002,0.092-0.005,0.116c-0.012,0.022-0.018,0.054-0.018,0.093
	c-0.004,0.062-0.01,0.198-0.018,0.411c-0.004,0.21-0.009,0.571-0.018,1.086l0.006,0.07c0.015,0.448,0.027,0.728,0.035,0.835
	c0.012,0.144,0.021,0.243,0.029,0.297c0,0.015,0.003,0.027,0.011,0.034c0.003,0,0.006-0.003,0.006-0.011
	c0.012,0.015,0.018,0.043,0.018,0.086c0,0.031,0.001,0.059,0.006,0.082c0,0.042-0.004,0.067-0.012,0.075
	c-0.027,0.034-0.046,0.052-0.058,0.052c-0.178,0.097-0.319,0.242-0.424,0.436c-0.104,0.19-0.259,0.335-0.465,0.436
	c-0.023,0.007-0.042,0.015-0.058,0.018c-0.003,0.004-0.014,0.006-0.028,0.006c-0.102,0-0.151-0.049-0.151-0.146
	c0-0.023,0.01-0.048,0.029-0.075l0.028-0.035c0.263-0.301,0.395-0.633,0.395-0.992c0-0.418,0.016-0.797,0.047-1.138
	c0-0.058,0.002-0.122,0.006-0.191v-0.162c0-0.313-0.012-0.552-0.035-0.715c-0.034-0.221-0.071-0.363-0.11-0.429
	c-0.039-0.069-0.08-0.104-0.123-0.104c-0.038,0-0.061-0.035-0.069-0.104c0-0.05,0.037-0.076,0.11-0.076L34.37,55.831z
	 M35.177,54.555c0.077,0.075,0.116,0.169,0.116,0.277s-0.039,0.202-0.116,0.278c-0.077,0.078-0.169,0.116-0.273,0.116
	c-0.108,0-0.201-0.038-0.278-0.116c-0.074-0.072-0.111-0.165-0.111-0.278c0-0.112,0.037-0.205,0.111-0.277
	c0.077-0.078,0.17-0.117,0.278-0.117C35.008,54.438,35.1,54.477,35.177,54.555"/>
<path fill="#9D4423" d="M38.415,56.296c0.33,0.327,0.494,0.724,0.494,1.188c0,0.46-0.164,0.854-0.494,1.178
	c-0.328,0.325-0.729,0.488-1.201,0.488c-0.46,0-0.856-0.163-1.189-0.488c-0.329-0.324-0.494-0.718-0.494-1.178
	c0-0.465,0.165-0.861,0.494-1.188c0.329-0.33,0.726-0.494,1.189-0.494C37.686,55.802,38.087,55.966,38.415,56.296 M37.203,56.098
	c-0.364,0-0.613,0.137-0.749,0.412c-0.136,0.274-0.204,0.6-0.204,0.975c0,0.368,0.093,0.685,0.279,0.946
	c0.186,0.26,0.416,0.398,0.691,0.418c0.147,0,0.275-0.03,0.386-0.093c0.11-0.062,0.212-0.157,0.304-0.284
	c0.09-0.124,0.155-0.265,0.198-0.422c0.042-0.156,0.063-0.342,0.063-0.559c-0.019-0.396-0.091-0.725-0.215-0.988
	c-0.127-0.267-0.377-0.399-0.749-0.399L37.203,56.098z"/>
<path fill="#9D4423" d="M41.358,56.666c-0.108-0.154-0.284-0.283-0.528-0.389c-0.225-0.1-0.416-0.151-0.575-0.151
	c-0.12,0.012-0.23,0.032-0.331,0.063c-0.093,0.028-0.14,0.087-0.14,0.175c0,0.066,0.045,0.129,0.134,0.186
	c0.093,0.062,0.18,0.106,0.261,0.134c0.17,0.038,0.356,0.079,0.557,0.121c0.201,0.04,0.389,0.104,0.563,0.192
	c0.178,0.089,0.327,0.205,0.447,0.349c0.124,0.147,0.191,0.349,0.203,0.604c0,0.348-0.145,0.627-0.435,0.836
	c-0.306,0.217-0.609,0.324-0.912,0.324c-0.282,0-0.549-0.04-0.8-0.122c-0.248-0.08-0.445-0.185-0.592-0.313
	c-0.046-0.019-0.07-0.088-0.07-0.208v-0.244v-0.256v-0.203c0-0.089,0.037-0.133,0.11-0.133c0.093,0,0.151,0.043,0.174,0.128
	c0.019,0.073,0.041,0.137,0.064,0.191c0.065,0.182,0.187,0.365,0.366,0.552c0.17,0.173,0.423,0.261,0.76,0.261h0.029
	c0.151,0,0.294-0.055,0.43-0.162c0.143-0.116,0.215-0.271,0.215-0.465c-0.004-0.15-0.041-0.265-0.11-0.343
	c-0.07-0.081-0.172-0.161-0.308-0.238c-0.174-0.058-0.359-0.107-0.557-0.15c-0.22-0.046-0.4-0.106-0.54-0.18
	c-0.159-0.039-0.293-0.12-0.407-0.244c-0.092-0.104-0.139-0.243-0.139-0.417c0-0.302,0.112-0.506,0.336-0.609
	c0.186-0.082,0.391-0.122,0.615-0.122h0.087c0.05,0.003,0.079,0.006,0.087,0.006v-0.006c0.197,0.022,0.348,0.042,0.453,0.057
	c0.146,0.024,0.274,0.06,0.383,0.105c0.054,0.023,0.11,0.045,0.168,0.063c0.069,0.024,0.11,0.06,0.122,0.111
	c0.023,0.108,0.053,0.196,0.087,0.267c0.031,0.062,0.057,0.135,0.076,0.22l0.006,0.017v0.024c0,0.065-0.034,0.099-0.104,0.099
	c-0.035,0-0.068-0.015-0.099-0.046c-0.023-0.023-0.046-0.051-0.07-0.082H41.358z"/>
<path fill="#9D4423" d="M46.455,56.027c0.062,0.031,0.114,0.046,0.157,0.046c0.023,0,0.039-0.003,0.046-0.011
	c0.026-0.026,0.041-0.073,0.041-0.14c0-0.061,0.001-0.158,0.006-0.29c0.004-0.093,0.006-0.163,0.006-0.215
	c0-0.243-0.008-0.4-0.023-0.47c-0.031-0.189-0.068-0.309-0.11-0.36c-0.046-0.05-0.096-0.075-0.151-0.075
	c-0.057,0-0.104-0.043-0.139-0.133c0-0.031,0.012-0.055,0.035-0.07c0.031-0.023,0.058-0.035,0.081-0.035
	c0.105,0.012,0.19,0.023,0.256,0.035c0.077,0.012,0.163,0.018,0.255,0.018c0.089,0,0.147-0.006,0.174-0.018
	c0.031-0.012,0.089-0.023,0.174-0.035c0.003,0,0.009-0.001,0.018-0.005h0.017c0.055,0,0.082,0.033,0.082,0.098
	c-0.008,0.074-0.015,0.128-0.023,0.163v0.122c0,0.186-0.002,0.376-0.006,0.574c-0.003,0.295-0.009,0.799-0.018,1.516v0.272
	c-0.003,0.131-0.005,0.209-0.005,0.231c0,0.411,0.011,0.72,0.034,0.93c0.027,0.285,0.066,0.481,0.116,0.585
	c0.046,0.094,0.099,0.14,0.157,0.14c0.054,0,0.093,0.027,0.116,0.082L47.755,59c0,0.02-0.012,0.047-0.035,0.082
	c-0.035,0.042-0.063,0.063-0.087,0.063c-0.02,0-0.046-0.003-0.082-0.007c-0.07-0.003-0.133-0.005-0.191-0.005
	c-0.062,0.003-0.155,0.005-0.278,0.005c-0.089,0-0.134-0.002-0.134-0.005c-0.046,0-0.092,0.003-0.139,0.012
	c-0.03,0-0.063-0.019-0.098-0.054c-0.035-0.034-0.052-0.064-0.052-0.086c-0.011-0.105-0.037-0.157-0.075-0.157
	c-0.008,0-0.016,0.004-0.023,0.011c-0.039,0.02-0.106,0.06-0.203,0.116c-0.217,0.125-0.411,0.186-0.58,0.186
	c-0.337,0-0.633-0.147-0.888-0.445c-0.256-0.299-0.384-0.675-0.384-1.133c0-0.452,0.128-0.858,0.384-1.219
	c0.244-0.348,0.588-0.522,1.033-0.522c0.124,0.008,0.227,0.033,0.308,0.076c0.058,0.031,0.137,0.071,0.237,0.122L46.455,56.027z
	 M46.675,57.909c0-0.078,0.006-0.264,0.018-0.559c0.004-0.239,0.007-0.414,0.012-0.521c0-0.097-0.012-0.17-0.035-0.221
	c-0.023-0.054-0.072-0.118-0.145-0.192c-0.144-0.143-0.319-0.215-0.528-0.215c-0.24,0-0.453,0.111-0.639,0.332
	c-0.151,0.178-0.226,0.414-0.226,0.708c0,0.089,0.004,0.158,0.011,0.208c0.043,0.392,0.138,0.682,0.285,0.871
	c0.151,0.189,0.334,0.301,0.551,0.331h0.058c0.031,0.004,0.048,0.006,0.052,0.006c0.189,0,0.348-0.078,0.476-0.231
	c0.069-0.095,0.104-0.178,0.104-0.25v-0.279L46.675,57.909z"/>
<path fill="#9D4423" d="M48.985,58.105c-0.039,0.035-0.058,0.07-0.058,0.105c0,0.037,0.023,0.078,0.07,0.12
	c0.212,0.206,0.462,0.309,0.749,0.309c0.148-0.012,0.275-0.056,0.384-0.134c0.1-0.072,0.184-0.17,0.25-0.29
	c0.019-0.046,0.057-0.09,0.116-0.134c0.047-0.026,0.085-0.04,0.116-0.04c0.028,0,0.047,0.004,0.057,0.012
	c0.063,0.027,0.094,0.075,0.094,0.145c0,0.039-0.004,0.068-0.012,0.088c-0.003,0.016-0.011,0.034-0.022,0.058l-0.034,0.052
	c-0.14,0.229-0.325,0.414-0.552,0.558c-0.225,0.139-0.446,0.211-0.662,0.216c-0.414,0-0.768-0.153-1.062-0.46
	c-0.147-0.15-0.255-0.323-0.325-0.519s-0.105-0.428-0.105-0.694c0.012-0.502,0.19-0.911,0.535-1.225
	c0.325-0.298,0.644-0.447,0.958-0.447c0.216,0.005,0.415,0.062,0.591,0.175c0.179,0.107,0.331,0.254,0.459,0.436
	c0.035,0.05,0.052,0.097,0.052,0.139v0.017c-0.004,0.01-0.006,0.015-0.006,0.019c-0.015,0.039-0.033,0.067-0.052,0.088l-0.378,0.354
	v0.006l-0.592,0.505c-0.197,0.165-0.389,0.339-0.575,0.521L48.985,58.105z M49.757,56.91c0.024-0.031,0.046-0.059,0.07-0.081
	c0.014-0.016,0.023-0.038,0.023-0.069c0-0.035-0.006-0.063-0.018-0.089c-0.055-0.127-0.108-0.225-0.162-0.295
	c-0.058-0.073-0.163-0.11-0.313-0.11c-0.325,0-0.54,0.134-0.645,0.4c-0.104,0.267-0.157,0.543-0.157,0.824
	c0,0.12,0.029,0.216,0.087,0.285c0.036,0.034,0.069,0.052,0.099,0.052c0.031,0,0.06-0.015,0.087-0.04
	c0.12-0.121,0.274-0.262,0.464-0.425c0.155-0.131,0.306-0.279,0.453-0.446L49.757,56.91z"/>
<path fill="#9D4423" d="M54.546,56.081c0.062-0.017,0.144-0.068,0.249-0.158c0.104-0.089,0.238-0.141,0.4-0.156
	c0.403,0,0.723,0.112,0.963,0.337c0.248,0.225,0.371,0.572,0.371,1.044c0,0.473-0.205,0.902-0.613,1.29
	c-0.415,0.39-0.898,0.62-1.452,0.689c-0.076,0.012-0.116,0.053-0.116,0.122l0.019,0.156c0.002,0.043,0.014,0.085,0.033,0.128
	c0.021,0.044,0.032,0.096,0.034,0.157v0.15c-0.006,0.062-0.029,0.095-0.067,0.099c-0.104,0.021-0.2,0.067-0.286,0.146
	c-0.084,0.081-0.184,0.121-0.296,0.121c-0.062,0-0.098-0.013-0.109-0.04c-0.008-0.022-0.017-0.069-0.024-0.139v-0.088
	c-0.002-0.039-0.004-0.076-0.004-0.115c0-0.202,0.006-0.366,0.022-0.493c0.02-0.268,0.031-0.627,0.042-1.079
	c0-0.442-0.004-0.776-0.011-1.006c-0.006-0.229-0.014-0.403-0.025-0.528c-0.036-0.289-0.076-0.475-0.122-0.556
	c-0.038-0.07-0.086-0.105-0.14-0.105c-0.05,0-0.082-0.06-0.099-0.181c0-0.053,0.021-0.08,0.064-0.08
	c0.008,0.004,0.016,0.006,0.021,0.006c0.021,0,0.053,0.001,0.095,0.005c0.058,0.004,0.109,0.006,0.155,0.006
	c0.05-0.004,0.134-0.006,0.25-0.006c0.09,0,0.146-0.005,0.168-0.017c0.023-0.011,0.082-0.023,0.176-0.035
	c0.078,0,0.115,0.031,0.115,0.093c-0.004,0.047-0.01,0.082-0.018,0.105c-0.004,0.015-0.006,0.028-0.006,0.04
	c0,0.059,0.021,0.093,0.063,0.104c0.082,0,0.132-0.005,0.15-0.012L54.546,56.081z M54.51,56.348
	c-0.03,0.019-0.066,0.052-0.104,0.099c-0.034,0.038-0.053,0.102-0.053,0.19v0.622v0.957v0.215v0.191c0,0.062,0.024,0.111,0.07,0.146
	c0.03,0.016,0.058,0.023,0.082,0.023c0.029,0,0.076-0.014,0.138-0.041c0.112-0.055,0.229-0.118,0.35-0.191
	c0.128-0.081,0.235-0.164,0.33-0.25c0.163-0.158,0.281-0.336,0.354-0.533c0.069-0.194,0.105-0.36,0.105-0.5
	c0-0.278-0.067-0.524-0.204-0.737c-0.123-0.205-0.339-0.307-0.643-0.307c-0.168,0.003-0.312,0.045-0.438,0.121L54.51,56.348z"/>
<path fill="#9D4423" d="M57.029,56.283c0.413-0.32,0.833-0.481,1.253-0.481c0.213,0,0.445,0.032,0.697,0.099
	c0.239,0.062,0.473,0.166,0.703,0.313c0,0.004,0.002,0.006,0.006,0.006c0.012,0.012,0.016,0.036,0.016,0.076v0.052v0.035
	c-0.002,0.033-0.008,0.074-0.016,0.12c-0.004,0.062-0.006,0.21-0.006,0.441c0,0.098-0.002,0.298-0.006,0.604l-0.007,0.239
	c0.009,0.359,0.021,0.605,0.042,0.736c0.022,0.14,0.051,0.234,0.08,0.284c0.028,0.047,0.061,0.076,0.099,0.087
	c0.035,0.013,0.06,0.059,0.075,0.14c0.013,0.023,0.019,0.04,0.019,0.053c0,0.03-0.034,0.047-0.099,0.047l-0.042-0.007
	c-0.092-0.011-0.157-0.02-0.195-0.023c-0.048-0.003-0.13-0.005-0.246-0.005h-0.191c-0.08,0-0.146,0.004-0.196,0.011
	c-0.031,0-0.054-0.011-0.063-0.035c-0.012-0.022-0.018-0.048-0.018-0.074l0.012-0.11c0-0.004,0.002-0.011,0.006-0.018v-0.018
	c0-0.022-0.008-0.034-0.024-0.034c-0.016,0.004-0.038,0.015-0.069,0.034c-0.05,0.027-0.094,0.056-0.134,0.087
	c-0.034,0.031-0.078,0.057-0.132,0.075c-0.222,0.086-0.443,0.129-0.668,0.129c-0.193,0-0.388-0.036-0.581-0.105
	c-0.388-0.15-0.579-0.449-0.579-0.894c0-0.577,0.172-0.947,0.516-1.108c0.355-0.162,0.78-0.244,1.276-0.244
	c0.054,0,0.096,0.002,0.122,0.006l0.121,0.018c0.148,0,0.223-0.067,0.223-0.203c-0.005-0.07-0.026-0.146-0.064-0.227
	c-0.036-0.073-0.132-0.125-0.29-0.156c-0.163-0.031-0.304-0.049-0.419-0.053c-0.41,0-0.733,0.12-0.969,0.359
	c0,0.012-0.015,0.019-0.04,0.019c-0.021,0-0.038-0.005-0.055-0.013c-0.044-0.02-0.086-0.043-0.119-0.069
	c-0.044-0.042-0.064-0.082-0.064-0.122c0-0.026,0.004-0.048,0.017-0.064L57.029,56.283z M58.863,57.061
	c-0.491,0.004-0.833,0.104-1.027,0.297c-0.189,0.188-0.285,0.418-0.285,0.685c0,0.275,0.107,0.483,0.321,0.627
	c0.1,0.061,0.204,0.092,0.313,0.092c0.15,0,0.326-0.056,0.525-0.168c0.022-0.007,0.047-0.024,0.076-0.052l0.019-0.012
	c0.027-0.023,0.046-0.038,0.052-0.046c0.06-0.043,0.094-0.095,0.104-0.157c0.01-0.042,0.016-0.103,0.024-0.18
	c0.004-0.051,0.006-0.136,0.006-0.256c0-0.131,0.002-0.233,0.006-0.308l0.018-0.174c0.005-0.038,0.007-0.093,0.007-0.163
	c0-0.108-0.021-0.167-0.061-0.18c-0.034-0.016-0.065-0.022-0.098-0.022V57.061z"/>
<path fill="#9D4423" d="M61.446,56.081c0.062-0.017,0.145-0.068,0.25-0.158c0.104-0.089,0.237-0.141,0.399-0.156
	c0.403,0,0.724,0.112,0.963,0.337c0.248,0.225,0.372,0.572,0.372,1.044c0,0.473-0.206,0.902-0.613,1.29
	c-0.416,0.39-0.899,0.62-1.453,0.689c-0.075,0.012-0.115,0.053-0.115,0.122l0.018,0.156c0.002,0.043,0.014,0.085,0.034,0.128
	c0.02,0.044,0.032,0.096,0.034,0.157v0.15c-0.006,0.062-0.03,0.095-0.068,0.099c-0.104,0.021-0.2,0.067-0.285,0.146
	c-0.084,0.081-0.185,0.121-0.296,0.121c-0.062,0-0.098-0.013-0.11-0.04c-0.008-0.022-0.016-0.069-0.023-0.139v-0.088
	c-0.002-0.039-0.004-0.076-0.004-0.115c0-0.202,0.006-0.366,0.021-0.493c0.021-0.268,0.032-0.627,0.042-1.079
	c0-0.442-0.004-0.776-0.01-1.006c-0.006-0.229-0.014-0.403-0.026-0.528c-0.034-0.289-0.075-0.475-0.122-0.556
	c-0.037-0.07-0.086-0.105-0.14-0.105c-0.05,0-0.082-0.06-0.098-0.181c0-0.053,0.02-0.08,0.063-0.08
	c0.009,0.004,0.017,0.006,0.022,0.006c0.02,0,0.052,0.001,0.094,0.005c0.058,0.004,0.11,0.006,0.156,0.006
	c0.05-0.004,0.134-0.006,0.249-0.006c0.09,0,0.146-0.005,0.168-0.017c0.024-0.011,0.082-0.023,0.176-0.035
	c0.078,0,0.116,0.031,0.116,0.093c-0.004,0.047-0.01,0.082-0.018,0.105c-0.005,0.015-0.007,0.028-0.007,0.04
	c0,0.059,0.022,0.093,0.064,0.104c0.082,0,0.132-0.005,0.149-0.012L61.446,56.081z M61.41,56.348
	c-0.029,0.019-0.065,0.052-0.104,0.099c-0.034,0.038-0.052,0.102-0.052,0.19v0.622v0.957v0.215v0.191
	c0,0.062,0.023,0.111,0.069,0.146c0.03,0.016,0.059,0.023,0.082,0.023c0.03,0,0.076-0.014,0.139-0.041
	c0.111-0.055,0.229-0.118,0.35-0.191c0.127-0.081,0.235-0.164,0.329-0.25c0.164-0.158,0.282-0.336,0.354-0.533
	c0.07-0.194,0.106-0.36,0.106-0.5c0-0.278-0.068-0.524-0.204-0.737c-0.124-0.205-0.34-0.307-0.644-0.307
	c-0.168,0.003-0.312,0.045-0.438,0.121L61.41,56.348z"/>
<path fill="#9D4423" d="M64.661,58.105c-0.038,0.035-0.056,0.07-0.056,0.105c0,0.037,0.021,0.078,0.067,0.12
	c0.214,0.206,0.464,0.309,0.75,0.309c0.147-0.012,0.273-0.056,0.383-0.134c0.101-0.072,0.185-0.17,0.25-0.29
	c0.019-0.046,0.056-0.09,0.116-0.134c0.046-0.026,0.084-0.04,0.115-0.04c0.028,0,0.047,0.004,0.059,0.012
	c0.062,0.027,0.092,0.075,0.092,0.145c0,0.039-0.004,0.068-0.012,0.088c-0.004,0.016-0.011,0.034-0.022,0.058l-0.036,0.052
	c-0.14,0.229-0.323,0.414-0.549,0.558c-0.227,0.139-0.446,0.211-0.664,0.216c-0.413,0-0.767-0.153-1.061-0.46
	c-0.147-0.15-0.256-0.323-0.325-0.519c-0.07-0.195-0.104-0.428-0.104-0.694c0.012-0.502,0.188-0.911,0.533-1.225
	c0.326-0.298,0.644-0.447,0.957-0.447c0.218,0.005,0.416,0.062,0.592,0.175c0.18,0.107,0.332,0.254,0.46,0.436
	c0.033,0.05,0.052,0.097,0.052,0.139v0.017c-0.004,0.01-0.006,0.015-0.006,0.019c-0.015,0.039-0.032,0.067-0.053,0.088l-0.377,0.354
	v0.006l-0.592,0.505c-0.197,0.165-0.39,0.339-0.573,0.521L64.661,58.105z M65.435,56.91c0.021-0.031,0.046-0.059,0.069-0.081
	c0.015-0.016,0.022-0.038,0.022-0.069c0-0.035-0.006-0.063-0.019-0.089c-0.054-0.127-0.107-0.225-0.161-0.295
	c-0.058-0.073-0.162-0.11-0.313-0.11c-0.324,0-0.54,0.134-0.644,0.4c-0.106,0.267-0.158,0.543-0.158,0.824
	c0,0.12,0.03,0.216,0.088,0.285c0.034,0.034,0.068,0.052,0.099,0.052c0.031,0,0.06-0.015,0.088-0.04
	c0.119-0.121,0.273-0.262,0.463-0.425c0.156-0.131,0.306-0.279,0.454-0.446L65.435,56.91z"/>
<path fill="#9D4423" d="M66.745,54.274c0.094,0.013,0.193,0.019,0.302,0.019h0.298c0.056,0,0.102-0.002,0.132-0.006
	c0.031-0.009,0.076-0.016,0.134-0.023c0.004,0,0.01-0.002,0.018-0.006h0.019c0.052,0,0.079,0.033,0.079,0.099
	c-0.008,0.077-0.014,0.132-0.016,0.163v0.122v0.574c0,0.294-0.008,0.799-0.018,1.515c0,0.101-0.002,0.256-0.006,0.469
	c-0.005,0.151-0.007,0.268-0.007,0.349c0,0.314,0.004,0.525,0.013,0.633c0.018,0.299,0.042,0.504,0.069,0.615
	c0.03,0.113,0.064,0.169,0.104,0.169s0.073,0.033,0.104,0.099c0,0.004,0.002,0.009,0.006,0.019c0.004,0.007,0.006,0.012,0.006,0.017
	c0,0.027-0.036,0.04-0.104,0.04c-0.021,0-0.048-0.002-0.082-0.005c-0.07-0.004-0.134-0.007-0.191-0.007
	c-0.062,0.005-0.152,0.007-0.272,0.007c-0.119,0-0.211-0.002-0.273-0.007c-0.08,0-0.14,0.001-0.174,0.004
	c-0.034,0.002-0.069,0.005-0.104,0.008c-0.061,0-0.088-0.024-0.088-0.075c0.014-0.093,0.038-0.141,0.069-0.145
	c0.032-0.009,0.064-0.061,0.099-0.157c0.029-0.093,0.062-0.284,0.094-0.574c0.029-0.307,0.052-0.776,0.063-1.41
	c0-0.098,0.002-0.201,0.004-0.314v-0.262c0-0.429-0.01-0.754-0.033-0.975c-0.026-0.306-0.062-0.505-0.104-0.598
	c-0.032-0.082-0.072-0.121-0.122-0.121c-0.042,0-0.073-0.046-0.094-0.134c0-0.055,0.03-0.081,0.088-0.081L66.745,54.274z"/>
<path fill="#EC2472" d="M32.404,68.826c-0.085,0.207-0.195,0.309-0.328,0.309c-0.198,0-0.328-0.102-0.387-0.309
	c-0.14-0.369-0.298-0.761-0.477-1.171c-0.166-0.39-0.334-0.788-0.507-1.19c-0.364-0.868-0.642-1.483-0.834-1.848
	c-0.185-0.371-0.324-0.608-0.417-0.715c-0.086-0.105-0.146-0.158-0.179-0.158c-0.027,0-0.073-0.054-0.139-0.159
	c0-0.04,0.036-0.089,0.109-0.148c0.093-0.073,0.156-0.109,0.188-0.109c0.159,0.026,0.278,0.049,0.358,0.069
	c0.099,0.025,0.219,0.04,0.357,0.04c0.192,0,0.348-0.003,0.466-0.011c0.18-0.013,0.328-0.022,0.447-0.029
	c0.139,0,0.222,0.05,0.248,0.148c0.013,0.034,0.02,0.08,0.02,0.139c0,0.067-0.02,0.11-0.059,0.13
	c-0.073,0.033-0.129,0.096-0.168,0.188c-0.014,0.026-0.021,0.076-0.021,0.148c0,0.106,0.021,0.238,0.06,0.397
	c0.059,0.259,0.245,0.705,0.556,1.341c0.099,0.185,0.178,0.384,0.238,0.596c0.06,0.204,0.119,0.373,0.179,0.507
	c0.053,0.105,0.093,0.164,0.119,0.178c0.033,0,0.076-0.056,0.129-0.169c0.059-0.118,0.122-0.278,0.188-0.478
	c0.06-0.178,0.139-0.366,0.238-0.565c0.272-0.549,0.447-0.945,0.526-1.191c0.093-0.276,0.139-0.467,0.139-0.565
	c0-0.185-0.066-0.277-0.199-0.277c-0.105,0-0.159-0.084-0.159-0.248c0-0.007,0.004-0.03,0.01-0.07v-0.089
	c0.021-0.072,0.076-0.109,0.169-0.109c0.191,0.02,0.423,0.03,0.694,0.03c0.179,0,0.318-0.003,0.417-0.011
	c0.152-0.013,0.291-0.022,0.417-0.029c0.033,0,0.07,0.02,0.109,0.059c0.02,0.021,0.03,0.041,0.03,0.061l-0.01,0.039
	c-0.106,0.227-0.182,0.338-0.229,0.338c-0.033,0-0.086,0.04-0.159,0.119c-0.066,0.08-0.176,0.269-0.327,0.566
	c-0.173,0.351-0.417,0.91-0.735,1.677c-0.179,0.418-0.357,0.845-0.536,1.281c-0.146,0.358-0.332,0.785-0.556,1.281L32.404,68.826z"
	/>
<path fill="#EC2472" d="M40.277,64.23c0.563,0.562,0.845,1.24,0.845,2.036c0,0.787-0.282,1.459-0.845,2.015
	c-0.562,0.557-1.248,0.834-2.055,0.834c-0.788,0-1.467-0.277-2.036-0.834c-0.563-0.556-0.844-1.228-0.844-2.015
	c0-0.796,0.281-1.474,0.844-2.036c0.562-0.562,1.241-0.845,2.036-0.845C39.03,63.386,39.715,63.668,40.277,64.23 M38.203,63.893
	c-0.622,0-1.049,0.234-1.281,0.705s-0.347,1.026-0.347,1.669c0,0.628,0.158,1.167,0.477,1.617c0.317,0.443,0.712,0.681,1.181,0.715
	c0.252,0,0.472-0.053,0.661-0.159c0.189-0.105,0.362-0.268,0.521-0.485c0.152-0.213,0.265-0.453,0.337-0.721
	c0.073-0.268,0.11-0.587,0.11-0.958c-0.034-0.675-0.156-1.237-0.368-1.688c-0.219-0.456-0.646-0.686-1.281-0.686L38.203,63.893z"/>
<path fill="#EC2472" d="M41.647,60.774c0.159,0.021,0.331,0.03,0.517,0.03h0.506c0.1,0,0.176-0.003,0.229-0.01
	c0.053-0.013,0.129-0.027,0.229-0.039c0.006,0,0.017-0.004,0.03-0.011h0.03c0.092,0,0.139,0.057,0.139,0.169
	c-0.013,0.133-0.023,0.226-0.03,0.278V61.4v0.983c0,0.503-0.01,1.367-0.03,2.591c0,0.173-0.003,0.441-0.01,0.804
	c-0.007,0.259-0.01,0.458-0.01,0.596c0,0.537,0.007,0.897,0.02,1.083c0.033,0.51,0.073,0.861,0.119,1.053
	c0.053,0.191,0.113,0.287,0.179,0.287c0.066,0,0.125,0.057,0.179,0.17c0,0.006,0.003,0.017,0.01,0.028
	c0.006,0.015,0.009,0.024,0.009,0.03c0,0.047-0.059,0.07-0.179,0.07c-0.033,0-0.079-0.005-0.138-0.011
	c-0.12-0.007-0.229-0.01-0.328-0.01c-0.106,0.007-0.262,0.01-0.467,0.01s-0.361-0.003-0.466-0.01c-0.139,0-0.238,0.001-0.298,0.006
	c-0.06,0.003-0.12,0.007-0.179,0.015c-0.1,0-0.149-0.043-0.149-0.129c0.026-0.159,0.066-0.242,0.119-0.248
	c0.053-0.014,0.109-0.104,0.169-0.27c0.053-0.158,0.106-0.485,0.159-0.982c0.054-0.522,0.09-1.327,0.109-2.412
	c0-0.165,0.003-0.345,0.01-0.537V64.07c0-0.734-0.02-1.289-0.06-1.667c-0.046-0.523-0.106-0.863-0.178-1.023
	c-0.053-0.139-0.123-0.207-0.209-0.207c-0.073,0-0.125-0.077-0.159-0.229c0-0.093,0.05-0.139,0.149-0.139L41.647,60.774z"/>
<path fill="#EC2472" d="M44.616,64.21c0.708-0.548,1.423-0.824,2.145-0.824c0.364,0,0.761,0.058,1.191,0.169
	c0.411,0.107,0.811,0.286,1.202,0.537c0,0.007,0.003,0.009,0.01,0.009c0.02,0.02,0.03,0.063,0.03,0.13v0.089v0.06
	c-0.007,0.061-0.017,0.129-0.03,0.209c-0.007,0.105-0.01,0.356-0.01,0.754c0,0.166-0.003,0.51-0.01,1.032l-0.009,0.407
	c0.012,0.616,0.036,1.036,0.069,1.262c0.04,0.238,0.086,0.401,0.14,0.486c0.046,0.079,0.102,0.13,0.168,0.148
	c0.06,0.02,0.103,0.1,0.129,0.239c0.02,0.039,0.03,0.069,0.03,0.089c0,0.053-0.057,0.079-0.168,0.079l-0.069-0.01
	c-0.16-0.02-0.272-0.033-0.338-0.039c-0.08-0.008-0.218-0.011-0.417-0.011H48.35c-0.14,0-0.252,0.008-0.338,0.02
	c-0.053,0-0.089-0.02-0.109-0.059c-0.02-0.041-0.029-0.083-0.029-0.13l0.02-0.188c0-0.007,0.003-0.018,0.01-0.03v-0.03
	c0-0.04-0.013-0.06-0.04-0.06c-0.026,0.007-0.065,0.027-0.119,0.06c-0.086,0.047-0.162,0.097-0.228,0.149
	c-0.061,0.053-0.137,0.096-0.229,0.13c-0.377,0.146-0.758,0.218-1.142,0.218c-0.332,0-0.662-0.061-0.993-0.179
	c-0.662-0.258-0.993-0.768-0.993-1.529c0-0.985,0.294-1.619,0.883-1.896c0.609-0.277,1.338-0.417,2.185-0.417
	c0.093,0,0.162,0.004,0.208,0.01l0.208,0.03c0.251,0,0.377-0.115,0.377-0.348c-0.006-0.119-0.043-0.248-0.109-0.388
	c-0.06-0.125-0.225-0.214-0.496-0.269c-0.278-0.053-0.517-0.083-0.715-0.089c-0.701,0-1.254,0.205-1.658,0.615
	c0,0.021-0.023,0.03-0.069,0.03c-0.034,0-0.063-0.006-0.09-0.02c-0.079-0.032-0.149-0.073-0.208-0.119
	c-0.073-0.073-0.109-0.142-0.109-0.209c0-0.046,0.01-0.083,0.03-0.108L44.616,64.21z M47.754,65.541
	c-0.841,0.006-1.427,0.176-1.757,0.507c-0.325,0.323-0.487,0.715-0.487,1.17c0,0.472,0.182,0.828,0.546,1.073
	c0.172,0.105,0.351,0.158,0.536,0.158c0.258,0,0.56-0.094,0.904-0.287c0.033-0.014,0.076-0.044,0.129-0.089l0.029-0.02
	c0.046-0.041,0.076-0.066,0.089-0.08c0.1-0.073,0.159-0.162,0.179-0.268c0.013-0.074,0.026-0.176,0.039-0.309
	c0.006-0.085,0.011-0.232,0.011-0.437c0-0.226,0.003-0.4,0.009-0.527l0.03-0.297c0.007-0.066,0.01-0.159,0.01-0.278
	c0-0.186-0.033-0.287-0.099-0.308c-0.061-0.026-0.116-0.04-0.169-0.04V65.541z"/>
<path fill="#EC2472" d="M54.048,66.424v0.01V66.424v-0.009v-0.011v-0.03v-0.078v-0.09c0-0.092,0.004-0.191,0.011-0.299V65.67
	c0-0.747-0.097-1.188-0.288-1.32c-0.112-0.093-0.286-0.14-0.518-0.14c-0.204,0-0.451,0.04-0.743,0.119
	c-0.094,0.027-0.16,0.047-0.2,0.06c-0.077,0.026-0.142,0.051-0.188,0.07c-0.246,0.099-0.374,0.281-0.388,0.546
	c0,0.205,0.002,0.355,0.006,0.451c0.002,0.097,0.008,0.201,0.015,0.313c0.014,0.119,0.02,0.243,0.02,0.372v0.699
	c0.014,0.59,0.034,1.004,0.06,1.241c0.026,0.232,0.062,0.391,0.108,0.477c0.042,0.08,0.08,0.13,0.12,0.149
	c0.046,0.02,0.082,0.1,0.109,0.237c0.021,0.028,0.03,0.058,0.03,0.091c0,0.052-0.058,0.079-0.168,0.079
	c-0.1-0.013-0.243-0.027-0.428-0.04c-0.093-0.006-0.242-0.009-0.448-0.009h-0.465c-0.153,0-0.309,0.009-0.468,0.029
	c-0.053,0-0.093-0.023-0.12-0.07c-0.019-0.039-0.029-0.083-0.029-0.129c0.033-0.139,0.076-0.219,0.13-0.237
	c0.059-0.021,0.119-0.083,0.178-0.189c0.06-0.111,0.11-0.313,0.149-0.606c0.04-0.298,0.061-0.79,0.061-1.479
	c0.038-0.529,0.059-0.954,0.059-1.271c0-0.218-0.006-0.366-0.021-0.446c-0.025-0.331-0.074-0.55-0.148-0.654
	c-0.066-0.106-0.142-0.166-0.227-0.18c-0.074-0.006-0.137-0.097-0.19-0.268c0-0.094,0.053-0.14,0.159-0.14
	c0.026,0,0.073,0.004,0.139,0.011c0.067,0.007,0.116,0.01,0.15,0.01c0.013,0,0.049-0.003,0.108-0.01h0.099h0.03
	c0.225-0.015,0.385-0.021,0.477-0.021h0.209c0.047,0,0.119-0.006,0.218-0.02c0.133,0,0.199,0.05,0.199,0.148v0.12v0.068
	c0,0.119,0.014,0.192,0.04,0.218c0.018,0.021,0.042,0.03,0.067,0.03c0.061,0,0.139-0.021,0.23-0.069
	c0.071-0.026,0.182-0.073,0.327-0.139c0.112-0.053,0.222-0.093,0.328-0.119c0.317-0.086,0.629-0.149,0.933-0.188
	c0.152-0.02,0.288-0.029,0.405-0.029c0.146,0,0.25,0.007,0.311,0.019c0.132,0.027,0.273,0.083,0.427,0.17
	c0.139,0.079,0.234,0.225,0.286,0.437c0.028,0.086,0.042,0.212,0.042,0.378c0,0.111-0.008,0.201-0.022,0.268
	c-0.02,0.265-0.027,0.576-0.027,0.933v0.179v0.169v0.179c0,0.101,0.002,0.163,0.008,0.189v0.029v0.03v0.009
	c0,0.477,0.002,0.807,0.006,0.988c0.004,0.183,0.012,0.329,0.026,0.442c0.031,0.305,0.071,0.522,0.117,0.655
	c0.046,0.126,0.097,0.209,0.15,0.248c0.046,0.039,0.09,0.103,0.128,0.188c0,0.087-0.052,0.13-0.158,0.13
	c-0.16-0.02-0.3-0.03-0.417-0.03h-0.418c-0.158,0-0.298,0.011-0.416,0.03c-0.119,0.021-0.259,0.04-0.417,0.06
	c-0.054,0-0.11-0.02-0.168-0.06c-0.074-0.039-0.109-0.083-0.109-0.13c0.031-0.11,0.081-0.171,0.147-0.178
	c0.071-0.013,0.144-0.073,0.21-0.179c0.071-0.113,0.132-0.321,0.178-0.625c0.02-0.146,0.034-0.338,0.044-0.577
	c0.012-0.237,0.016-0.555,0.016-0.953L54.048,66.424z"/>
<path fill="#EC2472" d="M59.371,63.773c0.104,0.054,0.193,0.079,0.268,0.079c0.038,0,0.065-0.006,0.08-0.02
	c0.046-0.046,0.067-0.125,0.067-0.238c0-0.105,0.004-0.271,0.012-0.496c0.007-0.159,0.009-0.281,0.009-0.368
	c0-0.416-0.015-0.685-0.038-0.804c-0.055-0.324-0.116-0.529-0.19-0.615c-0.08-0.086-0.166-0.13-0.258-0.13
	c-0.1,0-0.18-0.075-0.237-0.227c0-0.055,0.02-0.094,0.058-0.121c0.055-0.039,0.101-0.06,0.141-0.06
	c0.178,0.021,0.323,0.04,0.438,0.06c0.132,0.021,0.277,0.029,0.436,0.029c0.151,0,0.251-0.009,0.297-0.029
	c0.055-0.02,0.152-0.039,0.298-0.06c0.008,0,0.019-0.003,0.03-0.01h0.03c0.092,0,0.14,0.058,0.14,0.169
	c-0.014,0.126-0.026,0.22-0.04,0.277v0.21c0,0.317-0.004,0.646-0.01,0.982c-0.007,0.503-0.017,1.366-0.03,2.591v0.467
	c-0.006,0.226-0.01,0.357-0.01,0.397c0,0.702,0.02,1.23,0.06,1.589c0.046,0.49,0.112,0.824,0.198,1.002
	c0.08,0.159,0.168,0.239,0.268,0.239c0.094,0,0.16,0.046,0.199,0.139l0.011,0.029c0,0.034-0.021,0.08-0.061,0.139
	c-0.06,0.074-0.109,0.11-0.149,0.11c-0.032,0-0.078-0.003-0.138-0.01c-0.12-0.008-0.23-0.011-0.328-0.011
	c-0.105,0.006-0.266,0.011-0.476,0.011c-0.153,0-0.229-0.005-0.229-0.011c-0.08,0-0.16,0.006-0.237,0.021
	c-0.055,0-0.11-0.03-0.17-0.089c-0.059-0.061-0.088-0.11-0.088-0.149c-0.021-0.179-0.064-0.269-0.13-0.269
	c-0.015,0-0.026,0.007-0.04,0.021c-0.066,0.032-0.182,0.1-0.348,0.198c-0.372,0.212-0.701,0.317-0.993,0.317
	c-0.575,0-1.081-0.255-1.519-0.764c-0.438-0.511-0.655-1.156-0.655-1.938c0-0.773,0.218-1.469,0.655-2.084
	c0.416-0.596,1.005-0.895,1.769-0.895c0.211,0.014,0.385,0.057,0.525,0.13c0.1,0.053,0.235,0.123,0.407,0.209L59.371,63.773z
	 M59.748,66.991c0-0.134,0.008-0.451,0.03-0.954c0.006-0.41,0.012-0.708,0.02-0.894c0-0.165-0.02-0.291-0.06-0.378
	c-0.04-0.092-0.124-0.202-0.25-0.326c-0.243-0.245-0.545-0.369-0.902-0.369c-0.41,0-0.773,0.189-1.092,0.567
	c-0.26,0.304-0.389,0.707-0.389,1.211c0,0.153,0.008,0.271,0.021,0.357c0.072,0.67,0.233,1.165,0.485,1.489
	c0.26,0.325,0.573,0.513,0.943,0.565h0.1c0.052,0.007,0.082,0.011,0.088,0.011c0.326,0,0.598-0.132,0.815-0.396
	c0.118-0.16,0.18-0.301,0.18-0.428v-0.477L59.748,66.991z"/>
<path fill="#EC2472" d="M66.925,64.23c0.563,0.562,0.845,1.24,0.845,2.036c0,0.787-0.281,1.459-0.845,2.015
	c-0.562,0.557-1.247,0.834-2.054,0.834c-0.789,0-1.467-0.277-2.036-0.834c-0.563-0.556-0.843-1.228-0.843-2.015
	c0-0.796,0.279-1.474,0.843-2.036s1.241-0.845,2.036-0.845C65.678,63.386,66.363,63.668,66.925,64.23 M64.851,63.893
	c-0.623,0-1.049,0.234-1.28,0.705s-0.348,1.026-0.348,1.669c0,0.628,0.158,1.167,0.476,1.617c0.317,0.443,0.711,0.681,1.183,0.715
	c0.25,0,0.472-0.053,0.659-0.159c0.188-0.105,0.364-0.268,0.521-0.485c0.152-0.213,0.264-0.453,0.338-0.721
	c0.072-0.268,0.108-0.587,0.108-0.958c-0.032-0.675-0.154-1.237-0.366-1.688c-0.22-0.456-0.646-0.686-1.28-0.686L64.851,63.893z"/>
<polygon fill="#09AFA4" points="32.848,73.969 32.848,74.484 30.745,74.484 30.745,71.577 32.777,71.577 32.777,72.092 
	31.366,72.092 31.366,72.717 32.522,72.717 32.522,73.236 31.366,73.236 31.366,73.969 "/>
<path fill="#09AFA4" d="M34.126,72.542c0.125,0,0.369,0.065,0.435,0.158v-1.03h0.578v2.814h-0.578v-0.128
	c-0.07,0.089-0.268,0.159-0.396,0.159c-0.562,0-0.973-0.419-0.973-0.985C33.192,72.965,33.564,72.542,34.126,72.542 M34.204,74.081
	c0.264,0,0.435-0.295,0.435-0.551s-0.167-0.554-0.435-0.554c-0.24,0-0.434,0.247-0.434,0.554
	C33.77,73.833,33.963,74.081,34.204,74.081"/>
<path fill="#09AFA4" d="M35.824,72.309c-0.166,0-0.302-0.128-0.302-0.29c0-0.159,0.136-0.283,0.302-0.283
	c0.175,0,0.307,0.124,0.307,0.283C36.131,72.181,36,72.309,35.824,72.309 M36.115,74.484h-0.573v-1.915h0.573V74.484z"/>
<path fill="#09AFA4" d="M38.306,74.163c-0.216,0.239-0.5,0.353-0.802,0.353c-0.558,0-1.008-0.419-1.008-0.985
	c0-0.565,0.45-0.988,1.008-0.988c0.303,0,0.586,0.112,0.802,0.353l-0.402,0.364c-0.086-0.197-0.271-0.243-0.4-0.243
	c-0.236,0-0.434,0.208-0.434,0.515c0,0.303,0.198,0.513,0.434,0.513c0.128,0,0.318-0.035,0.4-0.244L38.306,74.163z"/>
<path fill="#09AFA4" d="M38.95,72.309c-0.167,0-0.303-0.128-0.303-0.29c0-0.159,0.136-0.283,0.303-0.283
	c0.174,0,0.306,0.124,0.306,0.283C39.256,72.181,39.124,72.309,38.95,72.309 M39.24,74.484h-0.573v-1.915h0.573V74.484z"/>
<path fill="#09AFA4" d="M41.605,73.53c0,0.566-0.449,0.985-1.012,0.985c-0.559,0-1.009-0.419-1.009-0.985
	c0-0.565,0.45-0.988,1.009-0.988C41.156,72.542,41.605,72.965,41.605,73.53 M40.16,73.53c0,0.303,0.197,0.513,0.434,0.513
	c0.24,0,0.438-0.21,0.438-0.513c0-0.307-0.198-0.515-0.438-0.515C40.357,73.016,40.16,73.224,40.16,73.53"/>
<path fill="#09AFA4" d="M43.746,74.484h-0.574v-1.094c0-0.29-0.078-0.418-0.303-0.418c-0.232,0-0.368,0.128-0.368,0.418v1.094
	h-0.574v-1.915h0.574v0.183c0.147-0.145,0.349-0.21,0.516-0.21c0.539,0,0.729,0.26,0.729,0.849V74.484z"/>
<path fill="#09AFA4" d="M46.076,73.659h-1.365c0,0.224,0.229,0.384,0.419,0.384c0.186,0,0.356-0.074,0.446-0.237l0.383,0.354
	c-0.155,0.209-0.392,0.356-0.83,0.356c-0.628,0-1.012-0.419-1.012-0.985c0-0.565,0.372-0.988,0.977-0.988
	c0.605,0,0.981,0.414,0.981,0.988V73.659z M45.475,73.295c-0.031-0.183-0.163-0.279-0.38-0.279c-0.209,0-0.337,0.111-0.372,0.279
	H45.475z"/>
<path fill="#09AFA4" d="M47.882,73.899c0,0.396-0.349,0.616-0.784,0.616c-0.274,0-0.55-0.136-0.767-0.353l0.375-0.377
	c0.109,0.132,0.265,0.233,0.392,0.245c0.128,0.012,0.237-0.043,0.256-0.101c0.047-0.148-0.221-0.156-0.302-0.18
	c-0.306-0.092-0.663-0.221-0.663-0.6c0-0.454,0.473-0.609,0.709-0.609c0.272,0,0.547,0.125,0.769,0.349l-0.372,0.373
	c-0.101-0.133-0.275-0.237-0.396-0.237c-0.061,0-0.186,0.023-0.186,0.147C46.913,73.402,47.882,73.295,47.882,73.899"/>
<polygon fill="#09AFA4" points="51.581,73.969 51.581,74.484 49.479,74.484 49.479,71.577 51.512,71.577 51.512,72.092 50.1,72.092 
	50.1,72.717 51.256,72.717 51.256,73.236 50.1,73.236 50.1,73.969 "/>
<path fill="#09AFA4" d="M53.031,73.527l0.68,0.957h-0.66l-0.325-0.526l-0.326,0.526h-0.663l0.682-0.957l-0.682-0.958h0.657
	l0.328,0.522c0.116-0.17,0.216-0.356,0.329-0.522h0.66L53.031,73.527z"/>
<path fill="#09AFA4" d="M53.826,73.53c0-0.565,0.41-0.988,0.974-0.988c0.132,0,0.337,0.065,0.396,0.159v-0.132h0.577v2.815h-0.577
	v-1.028c-0.062,0.089-0.306,0.159-0.436,0.159C54.198,74.516,53.826,74.097,53.826,73.53 M54.399,73.53
	c0,0.303,0.198,0.551,0.438,0.551c0.26,0,0.436-0.295,0.436-0.551c0-0.251-0.176-0.554-0.436-0.554
	C54.598,72.977,54.399,73.224,54.399,73.53"/>
<path fill="#09AFA4" d="M56.308,72.569h0.573v1.093c0,0.296,0.082,0.419,0.302,0.419c0.234,0,0.37-0.123,0.37-0.419v-1.093h0.573
	v1.915h-0.573v-0.174c-0.108,0.135-0.346,0.205-0.514,0.205c-0.537,0-0.731-0.256-0.731-0.854V72.569z"/>
<path fill="#09AFA4" d="M58.867,72.309c-0.168,0-0.304-0.128-0.304-0.29c0-0.159,0.136-0.283,0.304-0.283
	c0.174,0,0.306,0.124,0.306,0.283C59.173,72.181,59.041,72.309,58.867,72.309 M59.157,74.484h-0.573v-1.915h0.573V74.484z"/>
<path fill="#09AFA4" d="M61.057,73.899c0,0.396-0.348,0.616-0.783,0.616c-0.275,0-0.551-0.136-0.767-0.353l0.375-0.377
	c0.108,0.132,0.264,0.233,0.392,0.245s0.236-0.043,0.256-0.101c0.046-0.148-0.22-0.156-0.302-0.18
	c-0.308-0.092-0.663-0.221-0.663-0.6c0-0.454,0.472-0.609,0.709-0.609c0.272,0,0.546,0.125,0.768,0.349l-0.372,0.373
	c-0.102-0.133-0.275-0.237-0.396-0.237c-0.062,0-0.186,0.023-0.186,0.147C60.088,73.402,61.057,73.295,61.057,73.899"/>
<path fill="#09AFA4" d="M61.696,72.309c-0.168,0-0.302-0.128-0.302-0.29c0-0.159,0.134-0.283,0.302-0.283
	c0.176,0,0.308,0.124,0.308,0.283C62.004,72.181,61.872,72.309,61.696,72.309 M61.988,74.484h-0.576v-1.915h0.576V74.484z"/>
<path fill="#09AFA4" d="M63.32,74.043c0.104,0,0.17-0.043,0.246-0.097v0.473c-0.09,0.05-0.2,0.097-0.315,0.097
	c-0.492,0-0.714-0.209-0.714-0.845v-0.629h-0.214v-0.473h0.214v-0.55h0.576v0.55h0.453v0.473h-0.453v0.629
	C63.113,73.811,63.106,74.043,63.32,74.043"/>
<path fill="#09AFA4" d="M64.062,72.891c0.214-0.24,0.5-0.353,0.8-0.353c0.573,0,0.807,0.314,0.807,0.609v1.337h-0.575v-0.136
	c-0.088,0.094-0.248,0.163-0.428,0.163c-0.521,0-0.723-0.232-0.723-0.59c0-0.403,0.325-0.674,0.853-0.674h0.298
	c0-0.144-0.108-0.238-0.271-0.238c-0.166,0-0.248,0.032-0.332,0.125L64.062,72.891z M65.093,73.683h-0.338
	c-0.149,0-0.264,0.104-0.239,0.252c0.016,0.104,0.107,0.147,0.239,0.147c0.252,0,0.338-0.145,0.338-0.229V73.683z"/>
<path fill="#09AFA4" d="M67.586,73.899c0,0.396-0.35,0.616-0.783,0.616c-0.275,0-0.551-0.136-0.767-0.353l0.375-0.377
	c0.108,0.132,0.264,0.233,0.392,0.245s0.236-0.043,0.256-0.101c0.046-0.148-0.222-0.156-0.304-0.18
	c-0.306-0.092-0.661-0.221-0.661-0.6c0-0.454,0.474-0.609,0.709-0.609c0.27,0,0.548,0.125,0.768,0.349l-0.372,0.373
	c-0.102-0.133-0.275-0.237-0.396-0.237c-0.062,0-0.186,0.023-0.186,0.147C66.617,73.402,67.586,73.295,67.586,73.899"/>
</svg>
