<?xml version="1.0" encoding="utf-8"?>
<!-- Generator: Adobe Illustrator 16.0.0, SVG Export Plug-In . SVG Version: 6.00 Build 0)  -->
<!DOCTYPE svg PUBLIC "-//W3C//DTD SVG 1.1//EN" "http://www.w3.org/Graphics/SVG/1.1/DTD/svg11.dtd">
<svg version="1.1" id="Layer_1" xmlns="http://www.w3.org/2000/svg" xmlns:xlink="http://www.w3.org/1999/xlink" x="0px" y="0px"
	 width="100px" height="100px" viewBox="0 0 100 100" enable-background="new 0 0 100 100" xml:space="preserve">
<g>
	<defs>
		<rect id="SVGID_1_" x="3.274" y="3.087" width="73.603" height="93.398"/>
	</defs>
	<clipPath id="SVGID_2_">
		<use xlink:href="#SVGID_1_"  overflow="visible"/>
	</clipPath>
</g>
<rect x="3.274" y="3.087" fill="#FCDE4C" width="73.603" height="93.398"/>
<path fill="#B21F24" d="M40.193,43.89c-0.149,0.075-0.262,0.112-0.412,0.112c-0.262,0-0.486-0.149-0.637-0.337l-7.153-11.91H23.49
	v7.715c0,0.188-0.075,0.374-0.188,0.487l-0.075,0.074l-4.27,3.82c-0.15,0.112-0.3,0.187-0.524,0.187
	c-0.112,0-0.225-0.038-0.337-0.075c-0.225-0.112-0.412-0.337-0.412-0.637V14.791c0-0.375,0.375-0.712,0.749-0.712h12.509
	c3.82,0,6.104,1.499,7.341,2.847c1.348,1.46,2.209,3.446,2.209,5.281c0,3.82-1.499,6.067-2.809,7.34
	c-1.124,1.086-2.546,1.798-4.007,2.097l6.741,11.236C40.642,43.216,40.53,43.703,40.193,43.89 M19.183,30.257h2.771V15.577h-2.771
	V30.257z M19.183,31.756v9.85l2.771-2.472v-7.378H19.183z M23.49,17.562v12.695h7.603L23.49,17.562z M36.672,28.423
	c1.049-1.049,2.36-2.921,2.36-6.217c0-1.123-0.525-2.846-1.835-4.232c-1.048-1.124-2.996-2.396-6.254-2.396h-6.854l8.764,14.643
	C33.939,30.108,35.399,29.622,36.672,28.423"/>
<path fill="#B21F24" d="M63.373,43.965c-0.149,0.037-0.3,0.075-0.449,0.075c-0.225,0-0.45-0.075-0.601-0.299l-8.5-13.146
	l-8.277,13.108c-0.15,0.262-0.412,0.337-0.675,0.337c-0.075,0-0.15,0-0.225-0.038l-0.149-0.037c-0.188-0.112-0.3-0.3-0.338-0.487
	l-0.037-0.188V14.715c0-0.412,0.375-0.749,0.749-0.749c0.45,0,0.786,0.337,0.786,0.749V28.46h2.847V14.715
	c0-0.412,0.337-0.749,0.749-0.749c0.449,0,0.786,0.337,0.786,0.749V28.46h3.372l8.912-14.119c0.226-0.375,0.676-0.487,1.05-0.263
	c0.3,0.225,0.412,0.674,0.188,1.049l-8.839,14.044l8.839,13.745C63.785,43.254,63.673,43.703,63.373,43.965 M52.475,29.958h-6.817
	v10.748L52.475,29.958z"/>
<polygon fill="#EC2224" points="16.045,52.661 3.274,57.152 3.274,96.485 76.877,96.485 76.877,57.152 64.39,52.661 "/>
<path fill="#F0C318" d="M22.555,70.593l-2.348-4.53h-2.706v4.53h-0.746V60.76h3.742c1.602,0,2.817,0.926,2.817,2.638
	c0,1.464-0.884,2.417-2.265,2.651l2.375,4.544H22.555z M20.401,61.423h-2.899v3.977h2.899c1.257,0,2.168-0.635,2.168-1.988
	C22.569,62.059,21.658,61.423,20.401,61.423"/>
<path fill="#F0C318" d="M25.968,67.417c0,1.685,0.76,2.623,2.168,2.623c0.787,0,1.27-0.234,1.836-0.801l0.525,0.414
	c-0.677,0.677-1.298,1.022-2.403,1.022c-1.836,0-2.831-1.188-2.831-3.411c0-2.141,0.994-3.411,2.665-3.411
	c1.657,0,2.666,1.216,2.666,3.245v0.318H25.968z M29.655,65.594c-0.291-0.69-0.966-1.118-1.726-1.118s-1.437,0.428-1.727,1.118
	c-0.166,0.414-0.207,0.621-0.234,1.257h3.922C29.862,66.215,29.821,66.008,29.655,65.594"/>
<path fill="#F0C318" d="M33.786,64.462v6.131h-0.704v-6.131H32.17v-0.525h0.911V62.5c0-1.008,0.552-1.74,1.602-1.74h0.607v0.622
	h-0.483c-0.704,0-1.022,0.414-1.022,1.104v1.45h1.505v0.525H33.786z"/>
<path fill="#F0C318" d="M38.647,70.593c-1.078,0-1.602-0.691-1.602-1.727V60.76h0.704v8.093c0,0.745,0.235,1.118,1.022,1.118h0.483
	v0.622H38.647z"/>
<path fill="#F0C318" d="M41.009,67.417c0,1.685,0.76,2.623,2.168,2.623c0.787,0,1.271-0.234,1.837-0.801l0.524,0.414
	c-0.677,0.677-1.298,1.022-2.402,1.022c-1.837,0-2.831-1.188-2.831-3.411c0-2.141,0.994-3.411,2.665-3.411
	c1.657,0,2.666,1.216,2.666,3.245v0.318H41.009z M44.696,65.594c-0.29-0.69-0.966-1.118-1.726-1.118s-1.436,0.428-1.727,1.118
	c-0.165,0.414-0.207,0.621-0.234,1.257h3.922C44.904,66.215,44.862,66.008,44.696,65.594"/>
<polygon fill="#F0C318" points="52.432,70.593 50.138,66.933 48.62,68.687 48.62,70.593 47.916,70.593 47.916,60.76 48.62,60.76 
	48.62,67.692 51.921,63.937 52.818,63.937 50.623,66.422 53.302,70.593 "/>
<path fill="#F0C318" d="M56.963,70.593c-1.05,0-1.603-0.732-1.603-1.74v-4.391h-0.911v-0.525h0.911V61.81h0.705v2.127h1.505v0.525
	h-1.505v4.404c0,0.69,0.317,1.104,1.021,1.104h0.483v0.622H56.963z"/>
<path fill="#F0C318" d="M63.688,69.943c-0.47,0.47-1.104,0.732-1.851,0.732c-0.745,0-1.381-0.263-1.851-0.732
	c-0.703-0.704-0.828-1.726-0.828-2.679s0.125-1.975,0.828-2.68c0.47-0.469,1.105-0.731,1.851-0.731c0.746,0,1.381,0.263,1.851,0.731
	c0.704,0.705,0.829,1.727,0.829,2.68S64.393,69.239,63.688,69.943 M63.219,65.041c-0.358-0.358-0.842-0.565-1.381-0.565
	c-0.538,0-1.021,0.207-1.381,0.565c-0.552,0.553-0.594,1.45-0.594,2.224s0.042,1.671,0.594,2.224
	c0.359,0.358,0.843,0.565,1.381,0.565c0.539,0,1.022-0.207,1.381-0.565c0.553-0.553,0.594-1.45,0.594-2.224
	S63.771,65.594,63.219,65.041"/>
<polygon fill="#F0C318" points="23.011,87.167 19.849,81.657 17.501,84.502 17.501,87.167 16.756,87.167 16.756,77.335 
	17.501,77.335 17.501,83.48 22.486,77.335 23.384,77.335 20.346,81.091 23.895,87.167 "/>
<path fill="#F0C318" d="M29.227,81.574c-0.4-0.4-0.704-0.524-1.257-0.524c-1.146,0-1.781,0.938-1.781,2.016v4.102h-0.704v-6.656
	h0.704v0.884c0.386-0.621,1.16-0.967,1.947-0.967c0.636,0,1.133,0.166,1.602,0.636L29.227,81.574z"/>
<path fill="#F0C318" d="M30.968,83.991c0,1.685,0.76,2.623,2.168,2.623c0.787,0,1.27-0.234,1.836-0.801l0.525,0.414
	c-0.677,0.677-1.298,1.023-2.403,1.023c-1.836,0-2.831-1.188-2.831-3.412c0-2.14,0.994-3.411,2.665-3.411
	c1.657,0,2.666,1.216,2.666,3.245v0.318H30.968z M34.655,82.168c-0.291-0.69-0.966-1.118-1.726-1.118s-1.437,0.428-1.727,1.118
	c-0.166,0.415-0.207,0.621-0.234,1.257h3.922C34.862,82.789,34.821,82.583,34.655,82.168"/>
<path fill="#F0C318" d="M41.782,87.167v-0.663c-0.565,0.566-1.09,0.746-2.03,0.746c-0.98,0-1.533-0.166-1.96-0.607
	c-0.304-0.318-0.483-0.801-0.483-1.298c0-1.216,0.87-1.92,2.32-1.92h2.154V82.68c0-1.064-0.524-1.63-1.877-1.63
	c-0.939,0-1.422,0.234-1.837,0.842l-0.511-0.441c0.566-0.787,1.27-1.022,2.348-1.022c1.753,0,2.583,0.788,2.583,2.183v4.557H41.782z
	 M41.782,83.991h-2.071c-1.146,0-1.699,0.455-1.699,1.339s0.539,1.298,1.74,1.298c0.608,0,1.188-0.055,1.658-0.51
	c0.248-0.235,0.372-0.649,0.372-1.271V83.991z"/>
<path fill="#F0C318" d="M46.879,87.167c-1.05,0-1.603-0.731-1.603-1.74v-4.391h-0.911v-0.525h0.911v-2.126h0.705v2.126h1.505v0.525
	h-1.505v4.404c0,0.691,0.317,1.105,1.021,1.105h0.483v0.621H46.879z"/>
<path fill="#F0C318" d="M49.518,77.335h0.87v0.87h-0.87V77.335z M49.601,80.511h0.704v6.656h-0.704V80.511z"/>
<polygon fill="#F0C318" points="54.96,87.167 54.27,87.167 51.839,80.511 52.612,80.511 54.614,86.339 56.617,80.511 57.391,80.511 
	"/>
<path fill="#F0C318" d="M62.929,86.519c-0.47,0.469-1.104,0.731-1.851,0.731c-0.745,0-1.381-0.263-1.851-0.731
	c-0.704-0.705-0.828-1.727-0.828-2.68c0-0.952,0.124-1.974,0.828-2.679c0.47-0.47,1.105-0.732,1.851-0.732
	c0.746,0,1.381,0.263,1.851,0.732c0.704,0.705,0.829,1.727,0.829,2.679C63.758,84.792,63.633,85.813,62.929,86.519 M62.459,81.615
	c-0.358-0.358-0.842-0.565-1.381-0.565c-0.538,0-1.021,0.207-1.381,0.565c-0.552,0.553-0.594,1.45-0.594,2.224
	s0.042,1.671,0.594,2.224c0.359,0.359,0.843,0.565,1.381,0.565c0.539,0,1.022-0.206,1.381-0.565c0.553-0.553,0.594-1.45,0.594-2.224
	S63.012,82.168,62.459,81.615"/>
</svg>
