<?xml version="1.0" encoding="utf-8"?>
<!-- Generator: Adobe Illustrator 19.0.0, SVG Export Plug-In . SVG Version: 6.00 Build 0)  -->
<svg version="1.1" id="Layer_1" xmlns="http://www.w3.org/2000/svg" xmlns:xlink="http://www.w3.org/1999/xlink" x="0px" y="0px"
	 viewBox="-345 563 100 100" style="enable-background:new -345 563 100 100;" xml:space="preserve">
<style type="text/css">
	.st0{fill:#4983C3;}
	.st1{fill:#EB2227;}
	.st2{fill:#F48220;}
</style>
<path class="st0" d="M-324.3,637.3c-0.2-0.2-0.5-0.4-0.9-0.6c-0.4-0.2-0.8-0.2-1.2-0.3c-0.5,0-0.9,0.1-1.3,0.3
	c-0.4,0.2-0.5,0.6-0.5,1.1c0,0.1,0,0.3,0.1,0.4c0,0.1,0.1,0.2,0.1,0.3c0.1,0.1,0.1,0.2,0.2,0.2c0.1,0.1,0.2,0.1,0.3,0.2
	c0.1,0,0.2,0.1,0.4,0.1c0.2,0,0.3,0.1,0.4,0.1c0.1,0,0.2,0,0.4,0.1c0.1,0,0.1,0,0.2,0c0.3,0.1,0.5,0.1,0.7,0.2
	c0.2,0.1,0.4,0.1,0.6,0.2c0.2,0.1,0.4,0.2,0.6,0.3c0.2,0.1,0.3,0.3,0.4,0.5c0.1,0.3,0.2,0.5,0.2,0.8c0,0.3-0.1,0.5-0.2,0.8
	c-0.1,0.2-0.3,0.4-0.5,0.6c-0.2,0.2-0.4,0.3-0.7,0.4c-0.3,0.1-0.6,0.2-0.9,0.2c-0.3,0-0.6,0-0.9-0.1c-0.3,0-0.5-0.1-0.7-0.2
	c-0.2-0.1-0.4-0.2-0.5-0.3c-0.1-0.1-0.3-0.2-0.5-0.3c-0.2-0.1-0.3-0.2-0.3-0.3l0.4-0.4c0.7,0.7,1.5,1.1,2.4,1c0.3,0,0.6,0,0.8-0.1
	c0.3-0.1,0.5-0.2,0.6-0.4c0.5-0.6,0.6-1.1,0.3-1.5c-0.3-0.5-0.8-0.8-1.7-0.9c-0.9-0.2-1.5-0.4-2-0.8c-0.4-0.3-0.6-0.8-0.6-1.3
	c0-0.5,0.2-1,0.6-1.3c0.4-0.3,1-0.5,1.7-0.6c0.2,0,0.4,0,0.6,0c0.2,0,0.4,0.1,0.5,0.1c0.2,0,0.3,0.1,0.4,0.1c0.1,0,0.2,0.1,0.3,0.2
	c0.1,0.1,0.2,0.1,0.3,0.2c0.1,0,0.1,0.1,0.2,0.2c0.1,0.1,0.1,0.1,0.1,0.1L-324.3,637.3z"/>
<polygon class="st0" points="-321.8,642.8 -318.2,642.8 -317.3,642.8 -317.3,643.3 -322.3,643.3 -322.3,636.1 -317.3,636.1 
	-317.3,636.6 -321.8,636.6 -321.8,638.7 -321.8,639.1 -321.8,639.5 -318.2,639.5 -317.7,639.5 -317.7,640 -321.5,640 -321.8,640 "/>
<polygon class="st0" points="-309,643.3 -309.5,643.3 -309.5,637 -312.3,641.2 -312.4,641.2 -315.3,637 -315.3,643.3 -315.8,643.3 
	-315.8,636.1 -315.3,636.1 -312.3,640.4 -309.5,636.1 -309,636.1 "/>
<rect x="-307.5" y="636.1" class="st0" width="0.5" height="7.2"/>
<path class="st0" d="M-293,637.3c-0.2-0.2-0.5-0.4-0.9-0.6c-0.4-0.2-0.8-0.2-1.2-0.3c-0.5,0-0.9,0.1-1.3,0.3
	c-0.4,0.2-0.5,0.6-0.5,1.1c0,0.1,0,0.3,0.1,0.4c0,0.1,0.1,0.2,0.1,0.3c0.1,0.1,0.1,0.2,0.2,0.2c0.1,0.1,0.2,0.1,0.3,0.2
	s0.2,0.1,0.4,0.1c0.2,0,0.3,0.1,0.4,0.1c0.1,0,0.2,0,0.4,0.1c0.1,0,0.1,0,0.2,0c0.3,0.1,0.5,0.1,0.7,0.2c0.2,0.1,0.4,0.1,0.6,0.2
	c0.2,0.1,0.4,0.2,0.6,0.3c0.2,0.1,0.3,0.3,0.4,0.5c0.1,0.3,0.2,0.5,0.2,0.8c0,0.3-0.1,0.5-0.2,0.8c-0.1,0.2-0.3,0.4-0.5,0.6
	c-0.2,0.2-0.4,0.3-0.7,0.4c-0.3,0.1-0.6,0.2-0.9,0.2c-0.3,0-0.6,0-0.9-0.1c-0.3,0-0.5-0.1-0.7-0.2c-0.2-0.1-0.4-0.2-0.5-0.3
	c-0.1-0.1-0.3-0.2-0.5-0.3c-0.2-0.1-0.3-0.2-0.3-0.3l0.4-0.4c0.7,0.7,1.5,1.1,2.4,1c0.3,0,0.6,0,0.8-0.1c0.3-0.1,0.5-0.2,0.6-0.4
	c0.5-0.6,0.6-1.1,0.4-1.5c-0.3-0.5-0.8-0.8-1.7-0.9c-0.9-0.2-1.5-0.4-2-0.8c-0.4-0.3-0.6-0.8-0.6-1.3c0-0.5,0.2-1,0.6-1.3
	c0.4-0.3,1-0.5,1.7-0.6c0.2,0,0.4,0,0.6,0c0.2,0,0.4,0.1,0.5,0.1c0.2,0,0.3,0.1,0.4,0.1c0.1,0,0.2,0.1,0.3,0.2
	c0.1,0.1,0.2,0.1,0.3,0.2c0.1,0,0.1,0.1,0.2,0.2c0.1,0.1,0.1,0.1,0.1,0.1L-293,637.3z"/>
<polygon class="st0" points="-291.1,643.3 -291.1,636.1 -286,636.1 -286,636.6 -290.6,636.6 -290.6,638.7 -290.6,639.1 
	-290.6,639.5 -287,639.5 -286.7,639.5 -286.7,640 -290.3,640 -290.6,640 -290.6,643.3 "/>
<polygon class="st0" points="-284.1,642.8 -280.5,642.8 -279.5,642.8 -279.5,643.3 -284.6,643.3 -284.6,636.1 -279.5,636.1 
	-279.5,636.6 -284.1,636.6 -284.1,638.7 -284.1,639.1 -284.1,639.5 -280.5,639.5 -280,639.5 -280,640 -283.8,640 -284.1,640 "/>
<path class="st0" d="M-273.7,640.2c0.2,0.1,0.4,0.2,0.5,0.3c0.2,0.1,0.3,0.3,0.4,0.5c0.1,0.2,0.1,0.4,0.1,0.7c0,0.5,0.1,1,0.2,1.6
	h-0.6l0-0.2c0-0.2-0.1-0.4-0.1-0.6c0-0.3,0-0.5,0-0.7c0-0.1,0-0.3-0.1-0.4c0-0.1-0.1-0.2-0.1-0.3c-0.1-0.1-0.1-0.2-0.2-0.2
	c-0.1-0.1-0.2-0.1-0.3-0.2c-0.1,0-0.2-0.1-0.3-0.1c-0.1,0-0.2-0.1-0.3-0.1c-0.1,0-0.2,0-0.4,0c-0.2,0-0.3,0-0.3,0
	c-0.1,0-0.2,0-0.3,0c-0.1,0-0.2,0-0.3,0h-0.2h-1.5v3h-0.5v-7.2h0.4h0.1h2.4c0.2,0,0.4,0,0.6,0.1c0.2,0,0.4,0.1,0.7,0.2
	c0.2,0.1,0.5,0.2,0.7,0.3c0.2,0.1,0.4,0.3,0.5,0.6c0.1,0.2,0.2,0.5,0.2,0.8c0,0.6-0.2,1.1-0.6,1.5c-0.1,0.1-0.3,0.2-0.5,0.3
	c-0.3,0.1-0.5,0.2-0.7,0.2C-274.1,640.1-273.9,640.2-273.7,640.2 M-277.5,639.9h2.2c0.8,0,1.4-0.2,1.8-0.5c0.4-0.3,0.6-0.7,0.6-1.3
	c0-0.4-0.2-0.8-0.6-1.1c-0.4-0.3-0.8-0.4-1.4-0.4h-2.6v1.5L-277.5,639.9L-277.5,639.9z"/>
<path class="st0" d="M-271.5,643.3l3.3-7.2h0.5l3.4,7.2h-0.6l-0.9-2h-4.2l-0.9,2H-271.5z M-266,640.8l-1.9-4.1l-1.8,4.1H-266z"/>
<rect x="-302.3" y="635.8" class="st0" width="0.5" height="3.7"/>
<path class="st1" d="M-288,568.6v9.2c8.7,3.6,14.8,12.1,14.8,22.1c0,13.2-10.7,23.9-23.9,23.9c-13.2,0-23.9-10.7-23.9-23.9
	c0-10,5.9-18.5,14.8-22.1v-9.2c-13.5,4-23.5,16.5-23.5,31.3c0,18,14.6,32.7,32.6,32.7c18,0,32.6-14.6,32.6-32.7
	C-264.4,585.1-274,572.6-288,568.6"/>
<rect x="-301.8" y="564" class="st0" width="9.4" height="30.4"/>
<path class="st2" d="M-288,583.5v6c3,2.6,4.8,6.3,4.8,10.5c0,7.7-6.2,13.9-13.9,13.9c-7.7,0-13.9-6.2-13.9-13.9
	c0-4.2,1.6-8,4.9-10.5v-6c-6,3.2-9.8,9.4-9.8,16.5c0,10.4,8.4,18.9,18.8,18.9c10.4,0,18.8-8.4,18.8-18.9
	C-278.2,592.9-282.2,586.7-288,583.5"/>
<path class="st0" d="M-301,636.2v0.5c1.1,0.5,1.9,1.6,1.9,3c0,1.8-1.4,3.2-3.1,3.2c-1.7,0-3.1-1.4-3.1-3.2c0-1.4,0.8-2.5,1.9-3v-0.5
	c-1.5,0.5-2.6,1.8-2.6,3.5c0,2,1.6,3.7,3.7,3.7c2,0,3.7-1.7,3.7-3.7C-298.5,638.1-299.6,636.7-301,636.2z"/>
</svg>
