<?xml version="1.0" encoding="utf-8"?>
<!-- Generator: Adobe Illustrator 16.0.0, SVG Export Plug-In . SVG Version: 6.00 Build 0)  -->
<!DOCTYPE svg PUBLIC "-//W3C//DTD SVG 1.1//EN" "http://www.w3.org/Graphics/SVG/1.1/DTD/svg11.dtd">
<svg version="1.1" id="Layer_1" xmlns="http://www.w3.org/2000/svg" xmlns:xlink="http://www.w3.org/1999/xlink" x="0px" y="0px"
	 width="100px" height="100px" viewBox="0 0 100 100" enable-background="new 0 0 100 100" xml:space="preserve">
<g>
	<g>
		<path fill="#FFFFFF" d="M69.372,61.146c-0.004-0.086-0.013-0.167-0.025-0.236c-0.028-0.14-0.077-0.244-0.128-0.314
			c-0.024-0.037-0.053-0.063-0.08-0.085c-0.029-0.019-0.059-0.026-0.09-0.032c-0.062-0.01-0.125-0.002-0.188,0.024
			c-0.065,0.035-0.133,0.087-0.199,0.154c-0.067,0.066-0.13,0.147-0.205,0.237c-0.084,0.113-0.179,0.24-0.283,0.379
			c0.074-0.242,0.115-0.501,0.115-0.771c0-0.06-0.003-0.12-0.007-0.181c0.043-0.059,0.082-0.136,0.107-0.233
			c-0.006-0.037-0.013-0.085-0.021-0.133c-0.012-0.05-0.024-0.1-0.036-0.146c-0.013-0.047-0.023-0.087-0.031-0.117
			c-0.008-0.029-0.016-0.047-0.016-0.047c0.083-0.092,0.206-0.1,0.328-0.096c-0.04-0.131-0.077-0.267-0.136-0.392l-0.04-0.096
			c-0.014-0.033-0.027-0.065-0.045-0.095l-0.1-0.184c-0.146-0.238-0.314-0.469-0.521-0.661l-0.076-0.074
			c-0.026-0.023-0.055-0.047-0.081-0.067c-0.056-0.046-0.11-0.091-0.167-0.135l-0.176-0.119c-0.031-0.02-0.06-0.042-0.092-0.06
			l-0.094-0.05c-0.249-0.144-0.524-0.24-0.805-0.311c-0.355-0.079-0.719-0.091-1.08-0.055c-0.182,0.016-0.359,0.057-0.536,0.099
			l-0.261,0.082c-0.086,0.029-0.169,0.067-0.254,0.103c-0.332,0.151-0.643,0.351-0.92,0.593c-0.278,0.242-0.516,0.534-0.714,0.853
			c0.192-0.332,0.431-0.632,0.71-0.881c0.28-0.248,0.595-0.449,0.932-0.598l0.127-0.054c0.042-0.018,0.085-0.034,0.129-0.048
			c0.088-0.027,0.175-0.056,0.263-0.081l0.267-0.056c0.045-0.01,0.091-0.015,0.135-0.019l0.136-0.014
			c0.359-0.031,0.72-0.012,1.067,0.075c0.282,0.064,0.562,0.153,0.818,0.291l0.097,0.051c0.032,0.017,0.062,0.038,0.094,0.056
			l0.184,0.116l0.174,0.133c0.027,0.021,0.058,0.042,0.084,0.067l0.08,0.073c0.218,0.193,0.4,0.422,0.557,0.666l0.11,0.188
			c0.035,0.063,0.063,0.13,0.095,0.195l0.046,0.101c0.014,0.032,0.024,0.066,0.036,0.102l0.071,0.205
			c0.068,0,0.13-0.012,0.175-0.058c0.043-0.046,0.067-0.127,0.056-0.272c0.01-0.109-0.045-0.262-0.125-0.443
			c-0.047-0.089-0.102-0.181-0.163-0.278c-0.065-0.095-0.143-0.188-0.219-0.284c-0.085-0.093-0.172-0.185-0.264-0.271
			c-0.048-0.04-0.096-0.082-0.144-0.123c-0.048-0.04-0.094-0.082-0.145-0.116c-0.051-0.037-0.1-0.073-0.147-0.108
			c-0.048-0.034-0.095-0.068-0.144-0.1c-0.098-0.06-0.186-0.121-0.271-0.171c-0.454-0.301-1.013-0.493-1.591-0.533
			c-0.576-0.048-1.182,0.065-1.726,0.311c-0.275,0.117-0.529,0.28-0.771,0.459c-0.059,0.046-0.115,0.096-0.172,0.145
			c-0.057,0.05-0.115,0.098-0.166,0.151c-0.104,0.107-0.211,0.213-0.302,0.332c-0.378,0.465-0.657,1.012-0.802,1.59
			c-0.024,0.105-0.047,0.211-0.067,0.318c-0.013,0.108-0.024,0.216-0.033,0.323l-0.005,0.08v0.083l0.002,0.163l0.005,0.163
			l0.019,0.163c0.052,0.435,0.184,0.862,0.391,1.25c0.41,0.776,1.087,1.398,1.887,1.734c0.135,0.062,0.278,0.102,0.421,0.149
			c0.07,0.025,0.144,0.04,0.217,0.058s0.146,0.034,0.219,0.052c0.074,0.014,0.148,0.023,0.223,0.033
			c0.075,0.009,0.148,0.022,0.224,0.026l0.224,0.012c0.075,0.004,0.15,0.008,0.225,0.002c0.6-0.012,1.203-0.159,1.73-0.429
			c0.529-0.267,0.974-0.66,1.295-1.105c0.322-0.445,0.518-0.948,0.577-1.421c0.007-0.052,0.012-0.102,0.016-0.149
			C69.375,61.238,69.374,61.19,69.372,61.146z"/>
		<path fill="#FFFFFF" d="M61.546,60.709l-0.006-0.02c-0.003-0.006-0.005-0.008-0.007-0.01l-0.017-0.017
			c-0.012-0.012-0.023-0.021-0.035-0.031c-0.023-0.02-0.049-0.034-0.074-0.048c-0.105-0.056-0.232-0.071-0.361-0.05
			c-0.065,0.01-0.131,0.026-0.194,0.054c-0.033,0.012-0.064,0.026-0.097,0.044l-0.022,0.014l-0.025,0.018l-0.049,0.036
			c-0.031,0.023-0.063,0.046-0.095,0.071c-0.032,0.021-0.063,0.044-0.096,0.067c-0.016,0.011-0.032,0.022-0.049,0.034
			c0.036-0.115,0.055-0.24,0.055-0.369c0-0.028-0.002-0.058-0.004-0.086c0.046-0.031,0.089-0.069,0.122-0.121
			c-0.003-0.02-0.007-0.042-0.011-0.067c-0.006-0.024-0.011-0.05-0.017-0.073c-0.007-0.022-0.012-0.044-0.016-0.06
			c-0.005-0.013-0.009-0.022-0.009-0.022c0.094-0.063,0.211-0.087,0.326-0.1c-0.034-0.15-0.088-0.298-0.163-0.438
			c-0.076-0.136-0.168-0.271-0.281-0.384c-0.054-0.06-0.118-0.109-0.18-0.163c-0.066-0.048-0.13-0.1-0.202-0.139
			c-0.036-0.021-0.072-0.042-0.108-0.059l-0.113-0.053c-0.039-0.019-0.078-0.03-0.117-0.044l-0.06-0.021
			c-0.021-0.006-0.038-0.014-0.064-0.018c-0.06-0.014-0.121-0.023-0.182-0.033l-0.108-0.013l-0.025-0.002h-0.003h-0.001
			l-0.034-0.002h-0.003h-0.01h-0.02h-0.079h-0.078c-0.026,0.002-0.052,0.004-0.079,0.006c-0.21,0.017-0.422,0.066-0.62,0.149
			c-0.398,0.161-0.757,0.439-1.022,0.818c0.127-0.198,0.279-0.371,0.452-0.513c0.175-0.145,0.366-0.256,0.569-0.336
			c0.101-0.043,0.206-0.071,0.31-0.097c0.054-0.012,0.106-0.019,0.159-0.028c0.053-0.008,0.106-0.01,0.159-0.014
			c0.053-0.006,0.104-0.004,0.157-0.002l0.079,0.002h0.019h0.005l0.036,0.002h0.002l0.006,0.002l0.025,0.004l0.108,0.018
			c0.06,0.011,0.119,0.022,0.178,0.038c0.026,0.004,0.044,0.01,0.064,0.016l0.061,0.017c0.04,0.012,0.081,0.023,0.12,0.041
			l0.117,0.046c0.038,0.017,0.074,0.036,0.112,0.056c0.075,0.036,0.144,0.086,0.214,0.13c0.066,0.053,0.135,0.101,0.193,0.16
			c0.245,0.225,0.424,0.52,0.515,0.839c0.132-0.018,0.25-0.05,0.265-0.24c0.02-0.071-0.005-0.171-0.053-0.284
			c-0.027-0.056-0.061-0.113-0.1-0.173c-0.041-0.06-0.088-0.117-0.138-0.175c-0.053-0.056-0.108-0.111-0.166-0.163
			c-0.06-0.05-0.119-0.102-0.181-0.146c-0.122-0.091-0.243-0.167-0.345-0.236c-0.137-0.102-0.289-0.19-0.456-0.252
			c-0.043-0.017-0.08-0.032-0.13-0.046c-0.053-0.016-0.106-0.026-0.161-0.038l-0.082-0.016l-0.021-0.004l-0.01-0.002l-0.019-0.004
			l-0.072-0.016l-0.019-0.003l-0.009-0.002l-0.072-0.002l-0.068-0.002c-0.045-0.002-0.093-0.002-0.139-0.002
			c-0.092,0.004-0.186,0.011-0.278,0.026c-0.186,0.031-0.37,0.081-0.545,0.157c-0.176,0.075-0.34,0.175-0.496,0.286
			c-0.15,0.117-0.293,0.246-0.416,0.395c-0.031,0.038-0.062,0.074-0.092,0.113l-0.084,0.116c-0.057,0.079-0.102,0.164-0.15,0.248
			c-0.046,0.085-0.085,0.175-0.124,0.263l-0.051,0.137c-0.017,0.048-0.033,0.085-0.049,0.149c-0.021,0.085-0.039,0.173-0.053,0.262
			l-0.02,0.104l-0.005,0.025l-0.003,0.12l-0.001,0.106c0,0.036,0.001,0.072,0.003,0.107l0.011,0.107
			c0.03,0.284,0.116,0.566,0.253,0.819c0.271,0.509,0.722,0.906,1.244,1.118c0.181,0.068,0.37,0.121,0.561,0.157
			c0.054,0.012,0.118,0.02,0.178,0.026l0.092,0.01l0.045,0.004l0.012,0.002h0.004h0.01l0.072,0.004l0.036,0.002h0.005l0.066,0.002
			l0.005-0.002h0.019h0.036c0.386-0.008,0.778-0.1,1.122-0.272c0.344-0.171,0.635-0.427,0.84-0.719
			c0.206-0.289,0.323-0.622,0.343-0.929c0.001-0.035,0.002-0.067,0.001-0.098c-0.001-0.033-0.004-0.075-0.007-0.108
			C61.575,60.826,61.562,60.763,61.546,60.709z"/>
		<path fill="#FFFFFF" d="M43.132,60.709l-0.006-0.02c-0.002-0.006-0.005-0.008-0.008-0.012l-0.016-0.015
			c-0.011-0.012-0.022-0.021-0.034-0.031c-0.023-0.02-0.049-0.034-0.075-0.048c-0.105-0.056-0.232-0.071-0.361-0.05
			c-0.064,0.01-0.13,0.026-0.195,0.054c-0.032,0.012-0.063,0.026-0.095,0.044l-0.023,0.014l-0.025,0.018l-0.049,0.036
			c-0.032,0.023-0.063,0.046-0.095,0.071c-0.031,0.021-0.063,0.044-0.095,0.067c-0.016,0.011-0.033,0.022-0.049,0.036
			c0.036-0.117,0.055-0.242,0.055-0.371c0-0.028-0.002-0.058-0.004-0.086c0.046-0.031,0.089-0.069,0.123-0.121
			c-0.003-0.02-0.006-0.042-0.01-0.067c-0.006-0.024-0.013-0.05-0.018-0.073c-0.006-0.022-0.012-0.044-0.016-0.06
			c-0.004-0.013-0.008-0.022-0.008-0.022c0.094-0.063,0.211-0.087,0.327-0.1c-0.035-0.15-0.088-0.298-0.163-0.438
			c-0.077-0.136-0.168-0.271-0.282-0.384c-0.054-0.06-0.117-0.109-0.179-0.163c-0.066-0.048-0.131-0.1-0.203-0.139
			c-0.036-0.021-0.071-0.042-0.108-0.059l-0.113-0.053c-0.038-0.019-0.077-0.03-0.117-0.044l-0.06-0.021
			c-0.02-0.006-0.039-0.014-0.064-0.018c-0.06-0.014-0.121-0.023-0.181-0.033l-0.109-0.013l-0.026-0.002h-0.002h-0.001l-0.034-0.002
			h-0.002h-0.01h-0.02h-0.079h-0.079c-0.026,0.002-0.052,0.004-0.079,0.006c-0.21,0.017-0.422,0.066-0.621,0.149
			c-0.398,0.161-0.756,0.439-1.022,0.818c0.126-0.198,0.279-0.371,0.453-0.513c0.174-0.145,0.366-0.256,0.569-0.336
			c0.101-0.043,0.206-0.071,0.31-0.097c0.053-0.012,0.106-0.019,0.158-0.028c0.053-0.008,0.106-0.01,0.159-0.014
			c0.053-0.006,0.105-0.004,0.158-0.002l0.079,0.002h0.019h0.005l0.036,0.002h0.001l0.006,0.002l0.025,0.004l0.108,0.018
			c0.06,0.011,0.12,0.022,0.178,0.038c0.025,0.004,0.044,0.01,0.065,0.016l0.061,0.017c0.04,0.012,0.081,0.023,0.12,0.041
			l0.117,0.046c0.038,0.017,0.075,0.036,0.112,0.056c0.076,0.036,0.144,0.086,0.214,0.13c0.066,0.053,0.134,0.101,0.193,0.16
			c0.246,0.225,0.424,0.52,0.516,0.839c0.13-0.018,0.249-0.05,0.263-0.24c0.02-0.071-0.005-0.171-0.052-0.284
			c-0.027-0.056-0.061-0.113-0.1-0.173c-0.041-0.06-0.088-0.117-0.138-0.175c-0.053-0.056-0.108-0.111-0.166-0.165
			c-0.06-0.05-0.119-0.1-0.18-0.144c-0.122-0.091-0.244-0.167-0.345-0.236c-0.136-0.102-0.289-0.19-0.457-0.254
			c-0.042-0.015-0.081-0.03-0.129-0.044c-0.053-0.016-0.107-0.026-0.162-0.038l-0.083-0.016l-0.021-0.004l-0.01-0.002l-0.018-0.004
			l-0.072-0.016l-0.019-0.003l-0.009-0.002l-0.072-0.002l-0.068-0.002c-0.046-0.002-0.092-0.002-0.138-0.002
			c-0.092,0.004-0.186,0.011-0.279,0.026c-0.185,0.031-0.371,0.081-0.545,0.157c-0.176,0.075-0.34,0.175-0.495,0.286
			c-0.151,0.117-0.294,0.246-0.417,0.395c-0.031,0.038-0.062,0.074-0.091,0.113l-0.083,0.116c-0.057,0.079-0.103,0.164-0.151,0.248
			c-0.046,0.085-0.085,0.175-0.125,0.263l-0.051,0.137c-0.017,0.048-0.033,0.085-0.048,0.149c-0.021,0.085-0.039,0.173-0.053,0.262
			l-0.021,0.104l-0.002,0.014l-0.001,0.006l0,0.004h0v0.002l0,0c0-0.01,0-0.02-0.002,0.066l-0.001,0.054v0.021
			c-0.021-0.027-0.044-0.05-0.067-0.067c-0.028-0.019-0.059-0.026-0.089-0.032c-0.061-0.01-0.125-0.002-0.189,0.024
			c-0.065,0.035-0.132,0.087-0.199,0.154c-0.067,0.066-0.129,0.147-0.205,0.237c-0.084,0.113-0.179,0.24-0.283,0.379
			c0.075-0.242,0.115-0.501,0.115-0.771c0-0.06-0.003-0.12-0.007-0.181c0.044-0.059,0.083-0.136,0.108-0.233
			c-0.006-0.037-0.013-0.085-0.021-0.133c-0.01-0.05-0.024-0.1-0.036-0.146c-0.012-0.047-0.023-0.087-0.03-0.117
			c-0.009-0.029-0.017-0.047-0.017-0.047c0.083-0.092,0.207-0.1,0.328-0.096c-0.041-0.131-0.077-0.267-0.135-0.392l-0.041-0.096
			c-0.014-0.033-0.028-0.065-0.045-0.095l-0.1-0.184c-0.146-0.238-0.314-0.469-0.521-0.661l-0.076-0.074
			c-0.026-0.023-0.054-0.047-0.082-0.067c-0.055-0.046-0.109-0.091-0.166-0.135l-0.178-0.119c-0.03-0.02-0.059-0.042-0.09-0.06
			l-0.095-0.05c-0.249-0.144-0.524-0.24-0.804-0.311c-0.356-0.079-0.72-0.091-1.081-0.055c-0.182,0.016-0.359,0.057-0.536,0.099
			l-0.261,0.082c-0.086,0.029-0.169,0.067-0.253,0.103c-0.333,0.151-0.644,0.351-0.921,0.593c-0.278,0.242-0.516,0.534-0.713,0.853
			c0.192-0.332,0.43-0.632,0.709-0.881c0.28-0.248,0.595-0.449,0.933-0.598L33.3,57.45c0.042-0.018,0.084-0.034,0.129-0.048
			c0.087-0.027,0.174-0.056,0.262-0.081l0.268-0.056c0.044-0.01,0.089-0.015,0.134-0.019l0.135-0.014
			c0.36-0.031,0.72-0.012,1.068,0.075c0.282,0.064,0.562,0.153,0.818,0.291l0.097,0.051c0.032,0.017,0.062,0.038,0.093,0.056
			l0.185,0.116l0.173,0.133c0.028,0.021,0.058,0.042,0.085,0.067l0.08,0.073c0.217,0.193,0.4,0.422,0.556,0.666l0.11,0.188
			c0.035,0.063,0.063,0.13,0.095,0.195l0.045,0.101c0.014,0.032,0.025,0.066,0.037,0.102l0.071,0.205
			c0.068,0,0.13-0.012,0.175-0.058c0.043-0.046,0.066-0.127,0.056-0.272c0.009-0.109-0.045-0.262-0.125-0.443
			c-0.046-0.089-0.102-0.181-0.163-0.278c-0.066-0.095-0.142-0.188-0.219-0.284c-0.084-0.093-0.172-0.185-0.263-0.271
			c-0.048-0.04-0.096-0.082-0.144-0.123c-0.048-0.04-0.094-0.082-0.145-0.116c-0.049-0.037-0.099-0.073-0.147-0.108
			c-0.048-0.034-0.095-0.068-0.144-0.1c-0.097-0.06-0.185-0.121-0.27-0.171c-0.455-0.301-1.014-0.493-1.591-0.533
			c-0.577-0.048-1.182,0.065-1.728,0.311c-0.275,0.117-0.528,0.28-0.769,0.459c-0.059,0.046-0.115,0.096-0.172,0.145
			c-0.057,0.05-0.115,0.098-0.166,0.151c-0.105,0.107-0.211,0.213-0.302,0.332c-0.378,0.465-0.657,1.012-0.802,1.59
			c-0.024,0.105-0.046,0.211-0.066,0.318c-0.014,0.108-0.024,0.216-0.033,0.323l-0.006,0.08v0.083l0.002,0.163l0.005,0.163
			l0.019,0.163c0.052,0.435,0.183,0.862,0.39,1.25c0.41,0.776,1.087,1.398,1.886,1.734c0.135,0.062,0.279,0.102,0.421,0.149
			c0.071,0.025,0.144,0.04,0.216,0.058c0.073,0.018,0.146,0.034,0.22,0.052c0.073,0.014,0.148,0.023,0.222,0.033
			c0.075,0.009,0.149,0.022,0.224,0.026l0.224,0.012c0.075,0.004,0.15,0.008,0.225,0.002c0.599-0.012,1.202-0.159,1.729-0.429
			c0.529-0.267,0.974-0.66,1.295-1.105c0.321-0.443,0.514-0.941,0.576-1.409c0.033,0.084,0.071,0.169,0.114,0.249
			c0.271,0.509,0.722,0.906,1.246,1.118c0.18,0.068,0.369,0.121,0.56,0.157c0.054,0.012,0.119,0.02,0.178,0.026l0.091,0.01
			l0.045,0.004l0.011,0.002h0.005h0.009l0.072,0.004l0.036,0.002h0.005l0.067,0.002l0.004-0.002h0.019h0.036
			c0.386-0.008,0.779-0.1,1.123-0.272c0.344-0.171,0.635-0.427,0.839-0.719c0.206-0.289,0.323-0.622,0.343-0.929
			c0.001-0.035,0.001-0.067,0-0.098c0-0.033-0.002-0.075-0.006-0.108C43.16,60.824,43.147,60.763,43.132,60.709z"/>
	</g>
	<g>
		<rect x="28.417" y="26.008" fill="#FFFFFF" width="0.001" height="0"/>
		<rect x="70.221" y="25.977" fill="#FFFFFF" width="0.007" height="0.002"/>
		<polygon fill="#FFFFFF" points="28.417,25.989 28.415,25.974 28.416,25.987 		"/>
		<polygon fill="#FFFFFF" points="28.417,25.992 28.417,26.004 28.418,26.007 28.417,25.989 		"/>
		<polygon fill="#FFFFFF" points="28.419,25.975 28.417,25.975 28.416,25.974 		"/>
		<path fill="#FFFFFF" d="M70.135,24.525l0.092,0.009c-0.017-0.003-0.033-0.006-0.05-0.009c-0.018-0.001-0.036-0.001-0.054-0.002
			C70.127,24.523,70.131,24.524,70.135,24.525z"/>
		<rect x="28.412" y="25.937" fill="#FFFFFF" width="0" height="0.006"/>
		<polygon fill="#FFFFFF" points="28.451,25.991 28.449,25.989 28.451,25.991 		"/>
		<path fill="#FFFFFF" d="M78.075,29.083c-0.018-0.101-0.036-0.202-0.055-0.304c-0.014-0.084-0.029-0.169-0.044-0.254
			c-0.016-0.091-0.034-0.183-0.053-0.274c-0.05-0.218-0.133-0.414-0.26-0.597c-0.124-0.182-0.282-0.336-0.457-0.474
			c-0.177-0.138-0.368-0.255-0.571-0.365c-0.133-0.071-0.26-0.134-0.384-0.192c-0.495-0.229-0.959-0.406-1.414-0.564
			c-0.906-0.313-1.765-0.539-2.534-0.635c-0.128-0.014-0.241-0.019-0.343-0.018c-0.003-0.009-0.005-0.017-0.008-0.025
			c-0.094-0.273-0.251-0.516-0.442-0.708c-0.352-0.355-0.818-0.548-1.282-0.577l-0.247-0.046l-0.318-0.056
			c-0.211-0.038-0.422-0.072-0.633-0.107s-0.422-0.068-0.633-0.101c-0.212-0.032-0.422-0.066-0.634-0.097
			c-0.422-0.061-0.845-0.124-1.269-0.178c-0.423-0.057-0.848-0.114-1.271-0.165c-0.425-0.052-0.85-0.105-1.275-0.15
			c-0.425-0.045-0.852-0.098-1.277-0.137c-0.427-0.042-0.854-0.083-1.281-0.125c-0.427-0.037-0.854-0.073-1.282-0.11
			c-1.712-0.135-3.428-0.25-5.146-0.319c-1.719-0.08-3.438-0.11-5.154-0.126c-3.434-0.017-6.853,0.105-10.229,0.321
			c-1.688,0.114-3.366,0.249-5.03,0.412c-1.664,0.166-3.314,0.353-4.953,0.578c-0.21,0.028-0.421,0.059-0.632,0.09l-0.317,0.048
			l-0.232,0.036c-0.173,0.01-0.346,0.039-0.516,0.088c-0.213,0.062-0.419,0.16-0.609,0.287c-0.19,0.129-0.366,0.288-0.512,0.481
			c-0.147,0.192-0.265,0.418-0.338,0.662l-0.026,0.092l-0.012,0.046l-0.012,0.062c-0.003,0.018-0.005,0.036-0.008,0.054
			c-0.517,0.109-1.042,0.193-1.589,0.239c-0.183,0.056-0.55,0.174-0.734,0.237c-0.463,0.158-0.923,0.326-1.408,0.552
			c-0.061,0.028-0.123,0.059-0.185,0.089l-0.094,0.049c-0.032,0.016-0.057,0.03-0.114,0.062c-0.195,0.107-0.375,0.223-0.542,0.358
			c-0.166,0.135-0.313,0.288-0.429,0.464c-0.118,0.178-0.191,0.368-0.236,0.578c-0.018,0.097-0.034,0.195-0.05,0.292l-0.022,0.147
			l-0.015,0.107c-0.015,0.111-0.029,0.221-0.042,0.33c-0.025,0.219-0.047,0.437-0.066,0.655c-0.038,0.436-0.062,0.874-0.067,1.319
			c-0.006,0.446,0.004,0.898,0.054,1.376c0.026,0.239,0.062,0.486,0.121,0.747c0.063,0.264,0.139,0.54,0.301,0.861
			c0.082,0.16,0.187,0.332,0.344,0.509c0.037,0.043,0.084,0.089,0.128,0.132c0.046,0.043,0.099,0.087,0.15,0.127
			c0.057,0.042,0.112,0.081,0.174,0.118c0.064,0.036,0.125,0.072,0.194,0.101c0.271,0.124,0.577,0.172,0.833,0.162l0.025,0
			l0.012-0.001l0.065-0.005l0.019-0.002l0.038-0.004l0.035-0.004l0.065-0.01c0.043-0.007,0.087-0.016,0.13-0.026
			c0.023-0.005,0.04-0.01,0.055-0.015l0.049-0.015c0.033-0.01,0.065-0.021,0.098-0.031c0.063-0.024,0.125-0.05,0.186-0.079
			c0.241-0.117,0.436-0.272,0.585-0.427c0.15-0.155,0.26-0.311,0.351-0.458c0.09-0.149,0.158-0.289,0.217-0.425
			c0.058-0.136,0.106-0.269,0.147-0.396c0.162-0.511,0.239-0.976,0.299-1.435c0.057-0.457,0.089-0.903,0.108-1.348
			c-0.021,0.364-0.051,0.727-0.096,1.094c-0.045,0.367-0.105,0.738-0.196,1.123c-0.045,0.193-0.101,0.39-0.172,0.594
			c-0.071,0.204-0.159,0.418-0.285,0.644c-0.065,0.114-0.137,0.23-0.231,0.35c-0.093,0.12-0.205,0.243-0.345,0.36
			c-0.14,0.117-0.313,0.226-0.507,0.306c-0.049,0.02-0.098,0.039-0.148,0.053l-0.077,0.022c-0.014,0.004-0.023,0.007-0.041,0.011
			l-0.05,0.011c-0.034,0.007-0.067,0.013-0.102,0.019l-0.05,0.008l-0.023,0.003l-0.008,0.001l-0.062,0.005l-0.06,0.005h-0.009
			l-0.02,0l-0.038,0h-0.077c-0.05,0-0.106-0.006-0.159-0.012c-0.053-0.004-0.109-0.015-0.164-0.026
			c-0.055-0.01-0.11-0.025-0.165-0.043c-0.22-0.067-0.425-0.183-0.586-0.313c-0.164-0.131-0.286-0.273-0.38-0.407
			c-0.095-0.134-0.167-0.265-0.224-0.388c-0.113-0.245-0.181-0.47-0.232-0.681c-0.051-0.212-0.085-0.412-0.111-0.608
			c-0.051-0.39-0.071-0.762-0.079-1.129c-0.007-0.367-0.001-0.729,0.014-1.09c0.035,0.024,0.076,0.087,0.112-0.014
			c0.013,0.366,0.024,0.73,0.043,1.099c0.019,0.368,0.043,0.738,0.094,1.126c0.026,0.194,0.06,0.392,0.108,0.599
			c0.026,0.105,0.053,0.21,0.09,0.322c0.036,0.11,0.079,0.224,0.136,0.344c0.056,0.12,0.125,0.244,0.221,0.375
			c0.095,0.128,0.217,0.262,0.376,0.38c0.159,0.119,0.358,0.217,0.563,0.268c0.051,0.012,0.102,0.023,0.153,0.032
			c0.05,0.007,0.1,0.012,0.15,0.016c0.049,0.003,0.096,0.003,0.144,0.003l0.13-0.007l0.016,0c0.006,0,0.006,0,0.026-0.002
			c0.031-0.004,0.062-0.009,0.093-0.015s0.062-0.011,0.093-0.018c0.029-0.007,0.049-0.013,0.075-0.02
			c0.096-0.026,0.188-0.062,0.277-0.103c0.177-0.083,0.327-0.192,0.451-0.303c0.249-0.227,0.399-0.46,0.518-0.676
			c0.229-0.435,0.339-0.828,0.426-1.212c0.084-0.383,0.131-0.755,0.158-1.125c0.026-0.37,0.03-0.735,0.014-1.102
			c0.055,0.001,0.165,0.002,0.22,0.003c0.003-0.114,0.007-0.229,0.01-0.343c0.003-0.011,0.006-0.017,0.009-0.024
			c0.007-0.013,0.014-0.024,0.021-0.029c0.022,0.001,0.043,0.008,0.056,0.016c0.003,0.002,0.006,0.004,0.009,0.007l0.001,0.001l0,0
			l0.011-0.002l0.049-0.013l0.1-0.025c0.071-0.018,0.142-0.037,0.213-0.054l-0.237,3.381c-0.202,2.932-0.397,5.864-0.587,8.796
			c-0.381,5.866-0.744,11.733-1.105,17.6c-0.077,1.256-0.154,2.521-0.232,3.793c-0.02,0.316-0.04,0.635-0.06,0.952l-0.03,0.478
			l-0.007,0.119l-0.002,0.031l-0.001,0.016v0.026l0.002,0.111l0.006,0.449l0.006,0.447l0.001,0.111
			c0.002,0.037-0.003,0.077,0.011,0.11l0.028,0.102l0.037,0.098c0.029,0.079,0.064,0.153,0.103,0.227
			c0.002,0.006,0.005,0.014,0.007,0.018c0.011,0.024,0.022,0.042,0.034,0.058c0.087,0.149,0.195,0.29,0.317,0.412
			c0.202,0.204,0.445,0.365,0.71,0.473c0.132,0.054,0.268,0.096,0.413,0.119l0.076,0.008c0.14,0.269,0.311,0.58,0.518,0.942
			l1.267,1.863c0.005,0.009,0.01,0.017,0.013,0.019c0.006,0.01,0.013,0.016,0.02,0.023l0.012,0.01
			c0.02,0.013,0.025,0.015,0.037,0.021c0.017,0.006,0.03,0.012,0.042,0.014c0.023,0.008,0.042,0.01,0.061,0.014
			c0.037,0.008,0.072,0.012,0.107,0.015c0.07,0.008,0.137,0.014,0.205,0.018c0.175,0.065,0.213,0.121,0.177,0.179
			c-0.037,0.056-0.146,0.109-0.265,0.157c0.098,0.008,0.193,0.014,0.289,0.018c0.093,0.004,0.192,0.006,0.279,0.008l0.537,0.012
			l1.076,0.024l2.152,0.05l2.086,0.048v0.002c0,0.021,0,0.041,0.001,0.062c-0.008,0-0.016,0-0.022,0
			c-0.727-0.011-1.454-0.022-2.182-0.036c-0.728-0.012-1.456-0.023-2.184-0.034l-1.093-0.02c-0.365-0.01-0.72,0.006-1.166-0.048
			c-0.034,0.012-0.069,0.022-0.098,0.032c-0.029,0.012-0.054,0.021-0.061,0.037c-0.015,0.028,0.056,0.074,0.153,0.114
			c0.1,0.043,0.239,0.081,0.439,0.112c0.099,0.017,0.219,0.03,0.346,0.042c0.118,0.014,0.262,0.024,0.42,0.036
			c0.886,0.097,2.882,0.123,5.101,0.141c0.117,0,0.234,0,0.352,0c0.011,0.638,0.033,1.274,0.056,1.912
			c0.027,0.538,0.034,1.089,0.032,1.64c0,0.137-0.001,0.274-0.002,0.413l-0.001,0.102l-0.001,0.052c0,0.006,0,0.008,0,0.016
			l0.001,0.025l0.003,0.048c0.006,0.13,0.013,0.259,0.02,0.39c0.007,0.131,0.013,0.261,0.02,0.39
			c-0.002,0.067,0.019,0.125,0.034,0.185c0.014,0.062,0.04,0.119,0.059,0.177c0.092,0.231,0.228,0.447,0.396,0.63
			c0.336,0.366,0.788,0.618,1.274,0.729c0.243,0.058,0.494,0.08,0.744,0.076h0.089h0.048l0.096-0.002
			c0.063-0.002,0.126-0.002,0.189-0.004c0.125-0.003,0.25-0.007,0.372-0.011c0.061-0.004,0.122-0.008,0.182-0.01
			c0.03-0.002,0.06-0.004,0.09-0.006c0.049-0.002,0.096-0.006,0.144-0.008c0.208-0.018,0.412-0.056,0.61-0.123
			c0.198-0.063,0.39-0.151,0.572-0.269c0.32-0.207,0.56-0.495,0.689-0.779c0.034-0.067,0.059-0.143,0.08-0.21
			c0.021-0.066,0.034-0.134,0.042-0.197c0.02-0.123,0.012-0.236,0-0.322c-0.017-0.091-0.042-0.158-0.069-0.206l-0.01-0.018
			c-0.004-0.004-0.008-0.005-0.011-0.007c-0.008-0.006-0.015-0.01-0.022-0.012c-0.015-0.008-0.03-0.014-0.045-0.018
			c-0.062-0.014-0.125-0.002-0.189,0.034c-0.033,0.035-0.068,0.079-0.104,0.127c-0.036,0.05-0.082,0.102-0.127,0.157
			c-0.098,0.108-0.22,0.216-0.363,0.296c-0.182,0.104-0.393,0.169-0.618,0.194c0.381-0.148,0.64-0.438,0.64-0.774v-0.243
			c0.047-0.077,0.093-0.175,0.136-0.294c0-0.196,0-0.588,0-0.588c0.109-0.076,0.228-0.032,0.341,0.014
			c0.055-1.163,0.098-2.329,0.144-3.493c0.002,0,0.004,0,0.007,0c-0.02,1.17-0.027,2.349-0.045,3.533
			c0.131,0.043,0.25,0.031,0.33-0.249c0.166-0.392,0-1.763,0.055-2.546c0.025-0.242,0.046-0.486,0.064-0.732
			c0.046,0.002,0.092,0.002,0.137,0.004c2.441,0.069,4.938,0.119,7.463,0.161c0.315,0.006,0.631,0.012,0.948,0.016
			c0.317,0.002,0.634,0.004,0.951,0.006c0.634,0.002,1.27,0.006,1.907,0.008c1.272,0.002,2.549,0.006,3.825,0.008
			c0.178,0,0.355,0,0.533,0.002c0.012,0.636,0.033,1.271,0.054,1.906c0.028,0.566,0.036,1.148,0.034,1.729l-0.001,0.217
			l-0.001,0.056l0.006,0.102l0.011,0.206c0.008,0.138,0.016,0.274,0.023,0.412l0.012,0.206c0.018,0.062,0.031,0.127,0.055,0.188
			c0.024,0.062,0.046,0.123,0.076,0.183l0.045,0.091l0.05,0.086c0.068,0.113,0.151,0.219,0.24,0.316
			c0.179,0.196,0.393,0.359,0.627,0.488c0.235,0.127,0.491,0.223,0.755,0.286c0.066,0.016,0.133,0.026,0.2,0.04l0.1,0.016
			l0.108,0.014l0.104,0.012c0.027,0.001,0.055,0.005,0.081,0.005c0.054,0.002,0.107,0.004,0.161,0.006h0.04h0.026h0.051h0.103
			c0.068,0,0.137-0.002,0.204-0.002c0.135-0.002,0.27-0.004,0.4-0.006c0.133-0.003,0.264-0.007,0.392-0.011
			c0.064-0.004,0.129-0.006,0.192-0.01c0.047-0.002,0.094-0.006,0.142-0.008c0.048-0.004,0.096-0.008,0.144-0.014
			c0.384-0.048,0.758-0.155,1.115-0.357c0.314-0.176,0.576-0.432,0.742-0.712c0.021-0.034,0.04-0.069,0.058-0.104
			c0.018-0.037,0.034-0.073,0.048-0.109c0.015-0.035,0.028-0.069,0.04-0.104c0.011-0.037,0.02-0.073,0.027-0.106
			c0.035-0.134,0.038-0.265,0.031-0.364c-0.011-0.104-0.036-0.185-0.062-0.24l-0.011-0.02c-0.004-0.004-0.008-0.005-0.011-0.007
			c-0.008-0.006-0.016-0.01-0.021-0.014c-0.016-0.008-0.031-0.014-0.047-0.018c-0.061-0.016-0.124-0.002-0.188,0.036
			c-0.034,0.041-0.069,0.091-0.107,0.145c-0.018,0.028-0.043,0.056-0.065,0.084c-0.024,0.027-0.046,0.06-0.074,0.087
			c-0.107,0.117-0.247,0.217-0.401,0.288c-0.196,0.088-0.415,0.14-0.652,0.161c0.435-0.149,0.729-0.436,0.729-0.765V76.15
			c0.047-0.081,0.093-0.183,0.135-0.31c0-0.207,0-0.62,0-0.62c0.11-0.08,0.228-0.034,0.341,0.016
			c0.049-1.071,0.088-2.143,0.127-3.212c0.006,0,0.012,0,0.018,0c-0.015,1.077-0.022,2.163-0.037,3.254
			c0.131,0.044,0.249,0.033,0.329-0.263c0.166-0.413,0-1.856,0.056-2.683c0.01-0.102,0.019-0.205,0.027-0.309
			c0.173,0,0.348,0,0.521,0.002c0.632,0.003,1.261,0.001,1.888-0.002c0.627,0,1.251-0.002,1.873-0.004
			c0.622,0,1.241,0.002,1.857,0.002c0.309,0,0.615,0,0.922,0.002c0.153,0,0.307,0,0.459,0.002c0.175,0,0.347-0.002,0.539-0.012
			c0.073-0.006,0.148-0.01,0.243-0.021c0.048-0.006,0.099-0.012,0.178-0.026c0.039-0.008,0.087-0.018,0.172-0.043l0.034-0.011
			l0.046-0.016l0.054-0.021l0.028-0.012l0.046-0.021c0.031-0.016,0.062-0.031,0.091-0.048c0.056-0.033,0.115-0.073,0.168-0.115
			l0.039-0.035l0.038-0.032c0.014-0.014,0.027-0.027,0.041-0.041c0.054-0.055,0.103-0.114,0.146-0.178
			c0.007-0.01,0.013-0.02,0.02-0.031l0.732-1.046l0.374-0.536l0.205-0.296c0.091-0.134,0.182-0.272,0.27-0.416
			c0.177-0.288,0.344-0.596,0.489-0.912c0.146-0.317,0.271-0.644,0.374-0.955c0.104-0.314,0.189-0.614,0.268-0.895l0.029-0.104
			l0.014-0.052c0.005-0.004-0.026,0.008-0.014,0l-0.002-0.008l-0.004-0.014l-0.006-0.022c-0.007-0.029-0.024-0.048-0.037-0.071
			c-0.013-0.021-0.026-0.042-0.041-0.063s-0.029-0.042-0.046-0.063c-0.019-0.119-0.038-0.201-0.061-0.249
			c-0.038-0.081-0.083-0.062-0.135,0.054c-0.077-0.067-0.172-0.129-0.284-0.185c-0.023-0.021-0.083-0.02-0.132-0.023l-0.152-0.01
			l-0.27-0.015c0.071-0.572,0.097-1.759,0.056-3.785c-0.101-1.517-0.303-4.553-0.303-4.553c0.07-0.606,0.211-0.269,0.348,0.083
			c-0.08-1.315-0.16-2.629-0.24-3.944c0.03,0,0.062,0.001,0.093,0.001c0.091,1.417,0.183,2.832,0.274,4.249
			c0.153,0.324,0.266,0.23,0.201-1.955c-0.007-0.545-0.041-1.332-0.093-2.291c0.12,0,0.238,0,0.357,0.002
			c-0.04-0.662-0.082-1.324-0.123-1.99c-0.029-0.482-0.06-0.966-0.088-1.451c-0.04-0.677-0.079-1.358-0.117-2.04
			c-0.159-2.402-0.401-4.458-0.646-6.175c0.074,1.683,0.152,3.381,0.236,5.093c0.037,0.767,0.076,1.538,0.114,2.31
			c-0.16-2.373-0.354-5.042-0.529-7.569c-0.021-0.476-0.042-0.955-0.063-1.434c-0.02-0.125-0.04-0.249-0.061-0.37
			c-0.093-1.385-0.176-2.689-0.242-3.833c-0.101-1.841-0.203-3.701-0.306-5.576c-0.018-0.293-0.033-0.588-0.051-0.883
			c0.192,0.101,0.508,0.196,0.854,0.292c0.055,0.015,0.11,0.03,0.166,0.045l0.085,0.023c0.009,0.003,0.007,0.002,0.01,0.002
			l0.007,0.001l0.013,0.002c0.033,0.006,0.068,0.012,0.102,0.02c0.035,0.008,0.067,0.016,0.098,0.026
			c0.015,0.005,0.028,0.011,0.041,0.016c0.007,0.003,0.013,0.006,0.018,0.009c0.004,0.004,0.016,0.003,0.01,0.014
			c-0.001,0.002-0.001,0.004-0.002,0.006c-0.032,0.093-0.059,0.169-0.079,0.233c-0.005,0.017-0.01,0.031-0.015,0.047l-0.007,0.098
			l-0.007,0.103c-0.008,0.138-0.014,0.277-0.016,0.417c-0.012,0.56,0.007,1.132,0.091,1.738c0.043,0.303,0.103,0.614,0.203,0.948
			c0.051,0.167,0.113,0.341,0.198,0.524c0.086,0.183,0.194,0.378,0.357,0.582c0.16,0.2,0.395,0.417,0.704,0.571
			c0.079,0.037,0.158,0.073,0.243,0.1l0.062,0.02c0.021,0.007,0.039,0.013,0.07,0.02c0.055,0.014,0.111,0.025,0.168,0.035
			l0.084,0.014l0.024,0.004l0.013,0.002l0,0c0.028,0.002-0.059-0.004,0.062,0.005l0.008,0l0.016,0.001
			c0.086,0.004,0.169,0.007,0.261-0.001c0.179-0.01,0.373-0.052,0.553-0.121c0.181-0.068,0.345-0.166,0.483-0.271
			c0.143-0.106,0.25-0.217,0.348-0.33c0.09-0.109,0.169-0.219,0.231-0.32c0.184-0.302,0.278-0.566,0.354-0.815
			c0.073-0.249,0.119-0.479,0.154-0.704c0.066-0.447,0.086-0.865,0.082-1.275C78.29,30.634,78.2,29.859,78.075,29.083z
			 M73.353,52.806c0.003,0.032,0.004,0.064,0.006,0.096c-0.03,0-0.062,0-0.091,0c-0.002-0.032-0.004-0.064-0.006-0.096
			C73.292,52.806,73.322,52.806,73.353,52.806z M28.783,27.395l0.069-1.055l0.202-0.034l0.312-0.049
			c0.208-0.033,0.417-0.064,0.627-0.094c0.419-0.063,0.841-0.12,1.261-0.179c0.843-0.111,1.688-0.218,2.535-0.313
			c0.423-0.045,0.846-0.097,1.271-0.139l1.272-0.128l1.274-0.114c0.425-0.04,0.851-0.068,1.275-0.103l0.638-0.05
			c0.213-0.017,0.425-0.028,0.639-0.043l1.277-0.084l1.278-0.067l0.639-0.034l0.64-0.024l1.28-0.05
			c0.426-0.014,0.853-0.021,1.279-0.032l0.641-0.015l0.32-0.007l0.321-0.002l1.28-0.009c3.416-0.019,6.839,0.116,10.261,0.366
			c1.709,0.131,3.42,0.29,5.127,0.489c0.853,0.1,1.706,0.207,2.556,0.327c0.85,0.118,1.702,0.249,2.537,0.396
			c-0.846-0.15-1.708-0.284-2.566-0.405c-0.859-0.124-1.721-0.232-2.581-0.335c-1.719-0.203-3.438-0.365-5.154-0.5
			c-0.429-0.031-0.858-0.062-1.286-0.092c-0.429-0.031-0.857-0.051-1.286-0.078c-0.856-0.056-1.712-0.084-2.566-0.124
			c-0.428-0.019-0.855-0.025-1.281-0.04l-0.641-0.018c-0.214-0.006-0.427-0.013-0.64-0.014c-0.427-0.005-0.854-0.01-1.279-0.015
			l-0.639-0.007l-0.64,0.003c-0.425,0.002-0.852,0.005-1.277,0.007c-0.212,0-0.425,0.005-0.637,0.009l-0.639,0.014
			c-0.425,0.011-0.851,0.015-1.275,0.03c-0.425,0.015-0.85,0.031-1.274,0.046c-0.213,0.008-0.425,0.014-0.637,0.024l-0.636,0.032
			l-1.273,0.065c-0.847,0.056-1.695,0.103-2.542,0.172c-0.847,0.061-1.693,0.138-2.539,0.212l-1.268,0.125
			c-0.423,0.042-0.845,0.091-1.267,0.136c-0.845,0.094-1.688,0.198-2.529,0.309c-0.42,0.058-0.841,0.113-1.26,0.176
			c-0.209,0.03-0.418,0.061-0.627,0.094l-0.312,0.048l-0.183,0.03l0.012-0.176l0.146-0.023l0.315-0.048
			c0.21-0.032,0.421-0.063,0.632-0.093c0.422-0.062,0.847-0.116,1.271-0.174c0.849-0.109,1.699-0.211,2.55-0.303
			c1.702-0.186,3.407-0.34,5.115-0.46l0.64-0.046l0.641-0.04l1.282-0.078l1.283-0.062l0.642-0.031l0.642-0.022
			c0.428-0.015,0.856-0.029,1.285-0.044c0.428-0.009,0.857-0.018,1.286-0.026c0.857-0.023,1.715-0.021,2.574-0.024
			c3.436-0.007,6.883,0.137,10.346,0.385c1.732,0.132,3.467,0.29,5.204,0.485c0.435,0.049,0.869,0.097,1.304,0.153
			c0.217,0.027,0.435,0.054,0.651,0.082c0.217,0.029,0.434,0.058,0.652,0.087c0.217,0.028,0.434,0.059,0.65,0.09
			s0.434,0.061,0.65,0.095c0.216,0.033,0.434,0.064,0.648,0.101l0.323,0.052l0.137,0.023l0.044,0.7
			c0.032,0.501,0.063,1.004,0.095,1.506c0.063,1.005,0.127,2.01,0.188,3.017c0.104,1.663,0.208,3.33,0.312,5h-4.568
			c-0.685-0.032-1.416-0.062-2.192-0.086c0-0.056,0-0.167,0-0.222c8.592,0.111,4.296-0.444,5.368-0.721
			c-4.292,0-8.589-0.056-12.884-0.222c-1.074,0-3.223,0-4.294,0c-7.967,0.007-15.79,0.014-23.533,0.021
			c0.112-1.7,0.223-3.399,0.334-5.097C28.667,29.167,28.725,28.281,28.783,27.395z M28.772,26.27l-0.036,0.006l-0.142,0.023
			c0.001-0.021,0.003-0.042,0.004-0.062l0.009-0.122l0.099-0.009l0.078-0.012l-0.01,0.143C28.774,26.248,28.773,26.259,28.772,26.27
			z M70.221,25.98c-0.002,0.001-0.004,0.002-0.007,0.003C70.216,25.982,70.218,25.981,70.221,25.98c0,0,0.001-0.001,0.002-0.001
			c0,0,0,0,0,0l0.005-0.002l0.001,0l0,0c0.002-0.001,0.005-0.002,0.007-0.002l0.003-0.001c0.001,0,0.002,0,0.002,0
			c-0.003,0-0.005,0.001-0.006,0.002c-0.002,0-0.004,0.002-0.006,0.003c-0.016,0.021-0.04,0.054-0.035,0.05l0.001,0.009l0.001,0.017
			l0.002,0.034l0.018,0.274c0.012,0.183,0.022,0.366,0.034,0.548c0.046,0.73,0.092,1.458,0.138,2.182
			c0.091,1.449,0.182,2.887,0.273,4.316c0.062,0.995,0.125,1.986,0.188,2.973h-0.063c-0.061-1.029-0.121-2.06-0.182-3.093
			c-0.087-1.423-0.173-2.85-0.259-4.279c-0.044-0.715-0.088-1.43-0.131-2.146l-0.033-0.537l-0.016-0.269l-0.002-0.017v-0.009
			C70.115,26.066,70.19,26.004,70.221,25.98z M70.182,26.003c0.006-0.004,0.011-0.008,0.017-0.012c0,0,0,0,0.001,0
			c0.002-0.001,0.004-0.002,0.006-0.003C70.197,25.992,70.189,25.998,70.182,26.003z M70.231,25.972
			C70.23,25.972,70.23,25.972,70.231,25.972L70.231,25.972L70.231,25.972z M70.231,25.972L70.231,25.972L70.231,25.972
			L70.231,25.972L70.231,25.972z M70.241,25.972L70.241,25.972L70.241,25.972L70.241,25.972z M52.95,52.695
			c3.469,0.035,6.825,0.055,10.105,0.068c2.835,0.011,5.618,0.022,8.369,0.034c0.002,0.028,0.005,0.058,0.007,0.086
			c-3.133-0.03-6.294-0.06-9.473-0.09c-3.613-0.026-7.251-0.047-10.893-0.063c-7.284-0.03-14.584-0.062-21.738-0.091
			C36.843,52.64,45.434,52.585,52.95,52.695z M71.637,26.235c0.001,0.001,0.003,0.002,0.004,0.004l0.015,0.247
			c-0.001,0-0.002,0-0.004-0.001C71.647,26.402,71.642,26.318,71.637,26.235z M72.089,26.596c0-0.01-0.001-0.02-0.002-0.031
			c0.029,0.019,0.06,0.036,0.09,0.054C72.147,26.612,72.117,26.604,72.089,26.596z M53.638,22.871
			c2.776,0.101,5.549,0.281,8.312,0.554l1.037,0.103l1.035,0.115c0.346,0.037,0.69,0.08,1.035,0.123s0.688,0.083,1.033,0.13
			c0.689,0.09,1.378,0.188,2.065,0.292l0.517,0.08l0.516,0.083c0.329,0.055,0.653,0.11,0.988,0.173
			c0.414,0.021,0.833,0.204,1.117,0.546c0.098,0.118,0.181,0.255,0.237,0.404c-0.002,0.001-0.003,0.001-0.005,0.002
			c-0.059-0.15-0.143-0.288-0.241-0.407c-0.284-0.339-0.701-0.519-1.111-0.538c-0.013-0.002-0.025-0.005-0.039-0.007l-0.028-0.003
			c0.006,0,0.011,0,0.017,0c-0.323-0.059-0.636-0.112-0.954-0.163l-0.525-0.084l-0.523-0.079c-0.699-0.105-1.398-0.201-2.097-0.291
			c-0.349-0.047-0.698-0.087-1.048-0.13l-0.524-0.063l-0.523-0.058c-0.349-0.038-0.698-0.076-1.047-0.114
			c-0.35-0.034-0.699-0.069-1.048-0.103c-0.349-0.036-0.697-0.065-1.046-0.095c-0.35-0.03-0.698-0.06-1.047-0.09
			c-0.349-0.026-0.697-0.051-1.045-0.077c-0.349-0.024-0.697-0.055-1.046-0.073c-1.394-0.088-2.784-0.159-4.174-0.207
			c-5.557-0.198-11.068-0.048-16.493,0.366C42.52,22.817,48.083,22.667,53.638,22.871z M28.544,25.851l0.073-0.003l0.043-0.007
			c0.312-0.053,0.64-0.103,0.963-0.153c0.325-0.047,0.651-0.097,0.979-0.142c0.328-0.046,0.658-0.092,0.99-0.134
			c0.332-0.043,0.664-0.087,0.998-0.126c0.334-0.041,0.668-0.084,1.005-0.121c0.336-0.038,0.674-0.076,1.012-0.114
			c0.338-0.035,0.678-0.07,1.018-0.105c0.34-0.035,0.681-0.07,1.023-0.1c2.737-0.255,5.525-0.44,8.314-0.537
			c2.789-0.098,5.579-0.104,8.32-0.02c2.741,0.086,5.433,0.261,8.024,0.513c1.481,0.145,2.947,0.305,4.393,0.492
			c0.362,0.049,0.723,0.097,1.081,0.146c0.358,0.052,0.718,0.101,1.072,0.156c0.356,0.054,0.711,0.108,1.063,0.167
			c0.176,0.029,0.351,0.059,0.526,0.088l0.262,0.046l0.255,0.046l0.023,0.004l0.122,0.009c0.035,0.003,0.063,0.012,0.078,0.024v0
			c-0.017,0.003-0.035,0.006-0.055,0.009c-0.007-0.002-0.015-0.002-0.023-0.004l-0.151-0.014c-0.199-0.038-0.414-0.076-0.625-0.111
			c-0.21-0.037-0.422-0.071-0.635-0.105c-0.212-0.035-0.425-0.067-0.638-0.1c-0.214-0.032-0.427-0.066-0.64-0.095
			c-0.428-0.062-0.855-0.123-1.283-0.177l-0.644-0.084l-0.645-0.078c-1.72-0.207-3.445-0.375-5.176-0.514l-1.299-0.093
			c-0.216-0.015-0.432-0.033-0.648-0.045l-0.65-0.037c-0.434-0.024-0.867-0.052-1.301-0.072l-1.301-0.056
			c-0.217-0.008-0.435-0.021-0.651-0.026l-0.65-0.018l-1.302-0.035l-1.301-0.015c-0.435-0.003-0.868-0.013-1.302-0.007
			c-0.867,0.007-1.735,0.003-2.602,0.028c-0.433,0.009-0.866,0.019-1.299,0.029c-0.433,0.016-0.866,0.032-1.299,0.047l-0.649,0.023
			l-0.648,0.032c-0.432,0.021-0.864,0.043-1.296,0.065c-0.432,0.027-0.862,0.054-1.294,0.081l-0.646,0.042L38.885,24.7
			c-1.722,0.125-3.438,0.284-5.145,0.472c-0.854,0.093-1.705,0.196-2.554,0.306c-0.423,0.058-0.848,0.112-1.269,0.174
			c-0.211,0.03-0.422,0.061-0.632,0.093c-0.209,0.031-0.422,0.064-0.625,0.098l-0.053,0.009l-0.063,0.001
			c-0.055,0.001-0.104,0.014-0.138,0.038C28.439,25.867,28.487,25.853,28.544,25.851z M28.543,26.124
			c-0.001-0.003-0.001-0.006-0.002-0.009c0.001,0,0.001,0.001,0.001,0.001C28.542,26.119,28.542,26.121,28.543,26.124z
			 M28.54,26.105c0-0.002-0.001-0.005-0.002-0.006c0,0.001,0,0.001,0.001,0.001c0,0.001,0,0.001,0,0.001
			C28.54,26.103,28.54,26.104,28.54,26.105z M28.536,26.093c0-0.002-0.001-0.004-0.002-0.006c0,0,0,0.001,0.001,0.002
			S28.536,26.092,28.536,26.093z M28.523,26.065c0,0-0.001-0.001-0.001-0.002C28.522,26.063,28.523,26.064,28.523,26.065
			L28.523,26.065z M28.514,26.05c-0.001-0.001-0.001-0.002-0.002-0.003C28.512,26.048,28.513,26.049,28.514,26.05
			C28.514,26.049,28.514,26.049,28.514,26.05z M28.5,26.033c-0.001-0.001-0.003-0.003-0.004-0.004
			C28.497,26.03,28.499,26.031,28.5,26.033C28.5,26.033,28.5,26.033,28.5,26.033z M28.486,26.019
			c0.001,0.001,0.001,0.002,0.002,0.003c-0.042-0.005-0.065-0.008-0.077-0.01C28.433,26.014,28.459,26.017,28.486,26.019z
			 M28.485,26.018c-0.001-0.001-0.002-0.001-0.002-0.002C28.484,26.017,28.484,26.017,28.485,26.018L28.485,26.018z M28.486,26.019
			L28.486,26.019c0.001,0.001,0.001,0.002,0.002,0.003c0,0,0,0,0,0C28.488,26.021,28.487,26.02,28.486,26.019z M28.431,25.98
			c-0.001,0-0.002-0.001-0.003-0.002c0,0,0.001,0,0.001,0C28.43,25.979,28.431,25.98,28.431,25.98z M28.412,25.951
			c0,0.001,0,0.002,0,0.003c0-0.003,0-0.006,0-0.008C28.412,25.948,28.412,25.95,28.412,25.951z M28.408,25.971
			C28.408,25.972,28.409,25.972,28.408,25.971C28.409,25.972,28.409,25.972,28.408,25.971L28.408,25.971
			c0-0.001,0.001-0.004,0.001-0.006v0.001c0,0.001,0,0.001,0,0.002L28.408,25.971L28.408,25.971z M28.418,26.007l0-0.005
			l-0.002-0.024l0-0.005l0,0l-0.001-0.018l-0.001-0.012l0,0c0-0.002,0-0.004,0-0.006l0,0v-0.001c0-0.001,0-0.002,0-0.003l0,0.004
			c0-0.001,0-0.001,0-0.001c0,0.002,0,0.004,0,0.007v0.001l0.002,0.024l0,0.005h0c0,0,0.001,0,0.002,0.001
			c0.002,0,0.003,0,0.005,0.001c-0.001,0-0.002,0-0.004-0.001c0.002,0,0.004,0.001,0.006,0.002c0.002,0.001,0.005,0.002,0.006,0.004
			c0.004,0.001,0.009,0.004,0.013,0.006c0.001,0.001,0.003,0.002,0.004,0.002c-0.001,0-0.002-0.001-0.004-0.002
			c0.002,0.001,0.004,0.003,0.006,0.004c0.004,0.002,0.007,0.005,0.012,0.007c-0.003-0.002-0.007-0.004-0.011-0.007
			c0.005,0.003,0.009,0.007,0.014,0.01c0.002,0.001,0.003,0.003,0.005,0.004c0.002,0.001,0.004,0.003,0.006,0.005l0,0c0,0,0,0,0,0
			c0.002,0.002,0.004,0.003,0.006,0.005c0,0,0,0,0,0c-0.002-0.001-0.004-0.003-0.006-0.004c0.002,0.001,0.004,0.003,0.006,0.005
			c0.001,0,0.002,0.001,0.003,0.002c-0.031-0.002-0.06-0.005-0.085-0.008C28.405,26.009,28.464,26.015,28.418,26.007v0.003
			c-0.034-0.003-0.056-0.005-0.068-0.006C28.298,25.999,28.301,25.998,28.418,26.007z M28.288,30.794
			c0.069-1.014,0.138-2.028,0.207-3.04c0.031-0.457,0.063-0.914,0.094-1.37l0.161-0.026l0.017-0.003
			c-0.031,0.463-0.062,0.925-0.093,1.389c-0.067,1.005-0.134,2.011-0.201,3.019c-0.096,1.458-0.193,2.923-0.29,4.389
			c-0.06,0-0.121,0-0.181,0C28.098,33.695,28.193,32.243,28.288,30.794z M25.869,29.651l-0.166,0.035l-0.083,0.019l-0.042,0.009
			c-0.009,0.002-0.01,0.002-0.012,0.002H25.56c-0.035,0.001-0.073,0.004-0.112,0.007c-0.04,0.003-0.082,0.008-0.124,0.014
			l-0.066,0.008l-0.034,0.005l-0.017,0.002l-0.008,0.001c-0.002,0.001-0.001,0.004-0.001,0.006c-0.01,0.093-0.021,0.187-0.032,0.28
			l-0.004,0.039l-0.002,0.02l-0.001,0.011l-0.001,0.025l-0.009,0.212c-0.007,0.141-0.015,0.283-0.024,0.425
			c-0.038,0.569-0.095,1.144-0.216,1.735c-0.061,0.296-0.138,0.597-0.26,0.91c-0.062,0.156-0.136,0.316-0.234,0.479
			c-0.048,0.081-0.106,0.164-0.169,0.246c-0.068,0.083-0.14,0.164-0.231,0.242c-0.089,0.078-0.191,0.152-0.309,0.212
			c-0.057,0.031-0.12,0.056-0.183,0.08c-0.032,0.011-0.064,0.021-0.096,0.03l-0.05,0.013l-0.061,0.013l-0.061,0.011l-0.031,0.004
			l-0.016,0.002l-0.007,0l-0.051,0.004l-0.012,0.001h-0.003l-0.037,0.003h-0.003h-0.012l-0.049,0c-0.033,0-0.064,0-0.099-0.003
			c-0.134-0.008-0.276-0.04-0.409-0.092c-0.134-0.052-0.253-0.127-0.355-0.21c-0.104-0.083-0.183-0.173-0.252-0.264
			c-0.134-0.18-0.218-0.356-0.28-0.522c0.082,0.198,0.19,0.415,0.392,0.629c0.101,0.106,0.231,0.211,0.386,0.288
			c0.155,0.077,0.331,0.124,0.497,0.133c0.042,0.004,0.082,0.004,0.122,0.003l0.06-0.002l0.037-0.002l0.004-0.001l0.008-0.001
			l0.016-0.001c0.024-0.003,0.03-0.002,0.093-0.014c0.025-0.004,0.05-0.009,0.074-0.015l0.038-0.008
			c0.011-0.003,0.02-0.006,0.031-0.009c0.159-0.044,0.31-0.119,0.435-0.208c0.251-0.181,0.412-0.398,0.529-0.599
			c0.119-0.204,0.198-0.402,0.266-0.595c0.066-0.192,0.119-0.379,0.165-0.564c0.089-0.367,0.152-0.72,0.212-1.06
			c0.067-0.448,0.1-0.882,0.116-1.307c0.002-0.053,0.003-0.106,0.005-0.159l0.001-0.039c0-0.013,0-0.029,0.001-0.031l0.001-0.032
			c0.002-0.042,0.004-0.082,0.006-0.123c0.002-0.081,0.003-0.158,0.003-0.233c0-0.002,0-0.006,0.001-0.008l0.009-0.002l0.018-0.004
			l0.034-0.008l0.069-0.017c0.044-0.011,0.089-0.021,0.133-0.031c0.043-0.01,0.086-0.019,0.129-0.028
			c0.103-0.027,0.205-0.054,0.307-0.08c0.086-0.023,0.171-0.044,0.257-0.065l-0.01,0.134C26.011,29.622,25.94,29.636,25.869,29.651z
			 M39.717,71.458L39.717,71.458c0-0.01,0-0.02,0-0.029c0,0,0.001,0,0.001,0L39.717,71.458z M55.576,71.59l-5.293-0.026
			l-1.323-0.006c-0.442-0.002-0.882-0.012-1.324-0.018l-2.646-0.036c-1.612-0.016-3.229-0.029-4.85-0.043
			c0-0.009,0.001-0.017,0.002-0.026c1.616,0.023,3.232,0.046,4.848,0.069c0.898,0.008,1.795,0.017,2.69,0.026
			c0.448,0.004,0.895,0.012,1.341,0.012c0.447,0,0.893,0.002,1.339,0.002c1.783,0.006,3.559,0.012,5.324,0.018
			c0.062,0,0.126,0.002,0.188,0.002c0,0.009,0.001,0.019,0.001,0.028C55.774,71.592,55.676,71.59,55.576,71.59z M62.088,71.636
			h-0.009c0-0.007,0.001-0.013,0.001-0.019c0.003,0,0.006,0,0.009,0C62.089,71.623,62.089,71.629,62.088,71.636z M63.518,71.647
			l-1.029-0.01c0-0.005,0.001-0.011,0.001-0.017c0.359,0.004,0.719,0.01,1.077,0.013c0.867,0.006,1.732,0.014,2.595,0.021
			L63.518,71.647z M72.646,63.283c0.146,0.93,0.295,1.713,0.426,2.176l-0.894-0.056l-1.219-0.075l-0.076-0.006h-0.04h-0.082h-0.164
			h-0.327l-2.618,0.002c-3.492,0.008-6.983,0.035-10.476,0.062c-8.75,0.101-18.213-0.068-25.832,0.056
			c-1.652,0-3.3,0.002-4.942,0.002c-0.02,0-0.041,0.002-0.059-0.008c-0.019-0.007-0.034-0.022-0.04-0.042
			c-0.006-0.019-0.001-0.04-0.001-0.06l0.032-0.495c0.059-0.9,0.118-1.801,0.177-2.699c0.117-1.8,0.235-3.595,0.352-5.387
			c0.078-1.196,0.156-2.393,0.234-3.587c5.099,0,10.192,0,15.299,0c5.491,0.005,11,0.018,16.552,0.041
			c-5.632-0.039-11.136-0.069-16.605-0.092c-2.735-0.008-5.461-0.017-8.19-0.025c-2.346-0.003-4.695-0.006-7.05-0.008
			c0.004-0.061,0.008-0.121,0.012-0.181c0.309,0,0.619,0.001,0.927,0.002c0.698,0.002,1.395,0.006,2.091,0.008
			c1.394,0.01,2.784,0.018,4.175,0.025c2.781,0.02,5.559,0.04,8.347,0.06c5.576,0.034,11.19,0.054,16.942-0.006
			c0,0.056,0,0.164,0,0.221c3.931,0.021,7.882,0.042,11.87,0.063c0.168,1.9,0.354,3.611,0.535,5.136
			c-0.085-1.701-0.174-3.414-0.265-5.134c0.05,0,0.099,0,0.148,0c0.101,1.728,0.197,3.452,0.29,5.175
			c0.038,0.738,0.076,1.485,0.114,2.23C72.417,61.647,72.538,62.512,72.646,63.283z M71.711,52.799c0.05,0,0.099,0.001,0.147,0.001
			c0.002,0.028,0.004,0.059,0.006,0.088c-0.05-0.001-0.1-0.002-0.148-0.002C71.715,52.857,71.713,52.828,71.711,52.799z
			 M72.332,37.029c-0.014-0.05-0.028-0.099-0.042-0.144c-0.174-2.84-0.347-5.679-0.521-8.518c0.001,0,0.002,0,0.003,0
			C71.959,31.246,72.146,34.135,72.332,37.029z M75.688,34.9c-0.06-0.011-0.126-0.025-0.182-0.042
			c-0.048-0.015-0.097-0.031-0.143-0.05c-0.045-0.02-0.091-0.041-0.134-0.062c-0.176-0.091-0.32-0.208-0.435-0.328
			c-0.228-0.242-0.354-0.486-0.448-0.71c-0.095-0.227-0.153-0.441-0.202-0.65c-0.047-0.209-0.081-0.413-0.106-0.613
			c-0.051-0.4-0.072-0.79-0.08-1.174c-0.008-0.385-0.001-0.765,0.017-1.144l0.001-0.041l0.002-0.033l0.003-0.067
			c0.002-0.045,0.005-0.091,0.008-0.136c0.005-0.091,0.012-0.184,0.021-0.278c0-0.004,0.001-0.008,0.001-0.011L74,29.555
			l-0.021-0.007l-0.041-0.014l-0.083-0.028l-0.169-0.056l-0.171-0.057l-0.274-0.088c-0.337-0.109-0.676-0.218-1.015-0.328
			c-0.002-0.036-0.004-0.072-0.007-0.108l1.055,0.378l0.151,0.054l0.069,0.025l0.044,0.018l0.176,0.068l0.169,0.066l0.083,0.032
			l0.041,0.016l0.021,0.008l0.01,0.004l-0.002,0.012c-0.013,0.1-0.024,0.196-0.034,0.291l-0.014,0.14l-0.007,0.068l-0.002,0.034
			l-0.002,0.017l-0.001,0.024c-0.009,0.385-0.009,0.771,0.003,1.159c0.014,0.388,0.04,0.779,0.092,1.179
			c0.026,0.2,0.061,0.402,0.107,0.61c0.048,0.208,0.107,0.421,0.199,0.646c0.095,0.223,0.218,0.464,0.442,0.703
			c0.112,0.118,0.253,0.233,0.424,0.323c0.044,0.022,0.088,0.043,0.132,0.062c0.046,0.018,0.092,0.035,0.139,0.05
			c0.057,0.017,0.119,0.031,0.18,0.042l0.078,0.016L75.688,34.9z"/>
	</g>
</g>
</svg>
