<?xml version="1.0" encoding="utf-8"?>
<!-- Generator: Adobe Illustrator 19.0.0, SVG Export Plug-In . SVG Version: 6.00 Build 0)  -->
<svg version="1.1" id="Layer_1" xmlns="http://www.w3.org/2000/svg" xmlns:xlink="http://www.w3.org/1999/xlink" x="0px" y="0px"
	 viewBox="-345 257 100 100" style="enable-background:new -345 257 100 100;" xml:space="preserve">
<style type="text/css">
	.st0{fill:#D8D8D8;}
	.st1{fill:#E8E8E8;}
	.st2{fill:#FFFFFF;}
	.st3{fill:#D3D3D3;}
	.st4{fill:none;stroke:#E8E8E8;stroke-width:2;stroke-miterlimit:10;}
	.st5{fill:none;stroke:#E8E8E8;stroke-width:1.5;stroke-miterlimit:10;}
	.st6{fill:none;stroke:#E8E8E8;stroke-width:1.8;stroke-miterlimit:10;}
</style>
<polygon class="st0" points="-301.1,325.9 -286.3,327.5 -286.3,313.8 -297.6,311.5 -302.5,310.9 -305.2,318.2 "/>
<g>
	<g>
		<path class="st1" d="M-288.8,326.1c0,3.4-1.5,6.5-4.9,6.5c-2.8,0-4.2-3.2-4.3-7.6c-0.1-4.3,1.8-7.7,4.7-7.7
			C-290.4,317.3-288.8,322.2-288.8,326.1z"/>
		<path class="st1" d="M-284.5,326.1c0,3.4-1.5,6.5-4.9,6.5c-2.8,0-4.2-3.2-4.3-7.6c-0.1-4.3,1.8-7.7,4.7-7.7
			C-286.1,317.3-284.5,322.2-284.5,326.1z"/>
		<polygon class="st1" points="-293.3,317.3 -289.1,317.3 -289.5,332.6 -293.7,332.6 		"/>
	</g>
	<path class="st2" d="M-296.5,324.9c0,2.3,1.3,4.8,2.7,4.8s2.9-1.4,2.9-4.3c0-2.9-1.7-5.1-3.1-5.1
		C-295.5,320.4-296.5,322.3-296.5,324.9z"/>
</g>
<path class="st2" d="M-256.3,291.4c0,0,2-0.6,3.4-0.8c1.9-0.2,3.4,0.1,5,2.1c1.4,1.8,1.1,2,0.9,2c-0.2,0-1.2,0.4-1.4,0.3
	c-0.2-0.1-0.7-0.2-1.2-0.8c-0.3-0.4-0.9-1.1-1.6-1c-0.4,0-5.2,0.7-5.2,0.7V291.4z"/>
<path class="st1" d="M-256.9,291.5c0,0,2-0.5,2.2-0.6c0.2,0,0.4,2.8,0.1,2.8c-0.2,0-1.5,0.3-1.5,0.3L-256.9,291.5z"/>
<path class="st1" d="M-247.9,294.5c0.9-0.1,1.1-0.1,1.2,0.4c0.1,0.5,0.7,3.7,0.7,4.2s0,1-0.5,1.3c-0.5,0.3-1.1,0.4-1.4-0.3
	c-0.4-0.9-0.8-4.1-0.9-4.9C-248.8,294.7-248.3,294.6-247.9,294.5z"/>
<polygon class="st0" points="-327.8,322.9 -322.3,323.4 -321.8,316.5 -324.6,314.4 -328.2,314 -330.2,319.4 "/>
<path class="st1" d="M-325.4,317.3c1.2,0,2.3,1.5,2.3,5.2c0,2.8-1.1,4.5-2.3,4.5c-1.4,0-2.2-1.7-2.2-5
	C-327.6,318.9-326.7,317.3-325.4,317.3z"/>
<path class="st1" d="M-322,317.3c1.2,0,2.1,1.5,2.1,5.2c0,2.8-1.1,4.5-2.3,4.5c-1.4,0-1.9-1.7-1.9-5
	C-324.2,318.9-323.3,317.3-322,317.3z"/>
<path class="st1" d="M-325.4,317.3c0,0,1.9-0.1,2.3,0c0.6,0.1,3.4,1.5,3.4,3.9c0,2.4-2.7,5.8-2.7,5.8c-2.3,0-3,0-3,0l-1-1.8l-1-2.9
	l0.6-2.7L-325.4,317.3z"/>
<path class="st2" d="M-335.1,302.1c-0.3,2.9-0.7,13.9-0.5,15.9c0.2,2.1,0,3.7,1.6,4c1.6,0.3,6.2,0.9,6.2,0.9s-0.4-3.1-0.3-4.4
	c0-1.3,0.9-3.3,2.1-3.3c1.1,0,2.4,2.2,2.6,3.8c0.2,1.6,0.5,3.1,0.5,3.5s0,0.8,0.4,0.9c0.5,0.1,21.1,2.3,21.7,2.5
	c0.7,0.1,1,0.1,1-0.8c0-0.9-0.2-3.6-0.1-5.5c0.1-1.9,1.9-5.4,5.3-5.4s5.9,5.2,6.2,7.1c0.3,1.9,0.4,4.4,0.4,4.9s0,1,0.7,1.1
	c0.7,0.1,9.8,1.1,11.1,1.3c1.4,0.2,2.7,0.1,4.5,0c1.8-0.1,18.1-1.7,19.3-2c1.3-0.4,1.2-0.6,1.2-1.3s0.1-2.2-0.2-2.4
	c-0.3-0.3-0.3-1.7-0.2-2c0.1-0.3,0.5-0.3,0.5-1.3s0.2-2.6-0.3-3.5c-0.5-0.9-1.3-2.1-1.3-2.1l-15.2-29.4l-16.9-3.5c0,0-0.7-0.4-2.1,0
	s-9.1,3.5-9.8,3.8s-0.8-0.7-4,0.7c-3.2,1.4-22.4,8.3-23.1,8.9c-0.8,0.6-0.6,0.9-0.6,0.9s-7.1,2.9-8.1,3.3
	C-334,299.3-335,300.3-335.1,302.1z"/>
<path class="st1" d="M-333.9,305.6c0.1,1.7,0.8,3.1,1.6,2.9c1.5-0.3,25.4-4.3,28.5-4.8c3.1-0.5,9.4-1.1,16.6,1.9
	c7.9,3.2,9.9,6.9,14.5,8.6c5,1.9,12.6,2.5,16.4,2.5c3.8,0,4.7-0.8,4.7-0.8s-0.4-0.8-0.2-1c0.1-0.3,0.3-1.7,0.2-3.6
	c-0.1-2-0.7-3.1-0.7-3.1s-4.3-16.6-5.4-18.2c-1.1-1.6-4.1-3.6-4.1-3.6s-0.4-0.9-2.2-1.7c-1.9-0.8-8.3-3.1-10.5-3.8
	c-2.2-0.7-4.3-0.4-4.3-0.4s-2.1-0.7-4.9-0.2s-3.5,0.5-3.8,1.6c-0.3,1.1-0.4,1.2-0.4,1.2s-44.3,15.8-45,16.1s-1.1,0.6-1.3,1.5
	C-334.1,301.8-333.9,304.6-333.9,305.6z"/>
<path class="st3" d="M-333.6,300.8c0,0.5,0.1,5.3,0.3,5.9c0.2,0.6,0.2,0.7,0.6,0.6c0.3,0,42.7-8.3,43.4-8.5s1.1-0.1,1.1-1.1
	s0.6-11.7,0.6-12.3c0-0.7,0.1-1.3-0.8-0.9c-0.9,0.3-44.1,15.4-44.5,15.5C-333.3,300.1-333.6,300.5-333.6,300.8z"/>
<path class="st4" d="M-302.3,288.8c0,0-0.4,2.5-0.5,6.3c-0.1,3.7-0.1,6.9-0.1,6.9"/>
<path class="st5" d="M-328.4,298.2c0,0-0.3,2.1-0.4,4c-0.1,2.8,0,4.9,0,4.9"/>
<path class="st6" d="M-322,295.9c0,0-0.2,2.3-0.3,3.9c-0.1,2.8-0.1,5.9-0.1,5.9"/>
<path class="st4" d="M-313.6,292.9c0,0-0.4,2.5-0.5,6.3c-0.1,3.7,0.1,5.3,0.1,5.3"/>
<path class="st3" d="M-285.7,295.4c0,0.9-0.1,5.5-0.1,6.1c0,0.6-0.3,1.3,0.7,1.4c1,0.1,4.7,0.5,5.5,0.8c0.8,0.4,2.1,0.7,2-1.5
	c-0.1-2.2-0.5-7.7-0.6-8.4c-0.1-0.7-0.3-1.3-1.5-1c-1.2,0.3-4.2,0.9-4.8,1.1C-284.9,294-285.6,294.4-285.7,295.4z"/>
<path class="st3" d="M-271.5,306.8c1.1,0.1,19.4,1.6,19.4,1.6s-0.5-5.3-2.2-10.8c-1.8-5.6-2.7-6.9-2.8-7.2c-0.1-0.3-0.8-0.9-2.1-1.6
	s-3.5-2.2-7.2-3.3c-3.7-1.2-7.2-1.7-7.8-1.8c-0.6-0.1-2.1-0.2-1.8,0.6c0.3,0.8,2.1,5.3,2.5,11.2s0.6,8.8,0.6,9.6
	C-273,305.8-272.9,306.7-271.5,306.8z"/>
<path class="st2" d="M-324.2,322c0,1.1-0.3,3.1-1.4,3.1c-1,0-1.3-2-1.3-3.2c0-1.3,0.5-2.7,1.5-2.7C-324.6,319.2-324.2,321-324.2,322
	z"/>
<path class="st2" d="M-274.4,282c1.5-0.3,2.8,0.1,4,1.4c1.1,1.4,1.3,2.7,1.5,3.4s-0.1,0.9-0.7,0.7c-0.6-0.2-1.1-0.4-1.5-0.4
	s-0.7-0.2-1-0.7c-0.3-0.5-1-1.6-2.2-1.2c-1.2,0.4-5.6,1.5-6,1.7c-0.4,0.2-1.4,0.3-1.3-1.4c0.2-1.7,0.5-2,1.3-2.2
	C-279.5,283-275.6,282.1-274.4,282z"/>
<path class="st1" d="M-272.2,287.8c0,0.4,0.3,5.1,0.5,5.8c0.1,0.8,0.3,1,0.8,1.1c0.5,0,1.7,0,2.1,0c0.4,0,1.1,0,1.1-1.5
	c0-1.6-0.2-4.7-0.3-5.3c-0.1-0.6-0.2-0.9-1-0.9c-0.7,0-1.6-0.1-2.1-0.2C-271.5,286.8-272.3,287-272.2,287.8z"/>
<path class="st1" d="M-280.3,283.1c0,0-0.4,3.2,0,4.3s2.6-0.3,2.6-0.3s-0.6-4.5,0.2-5.1C-276.6,281.5-280.3,283.1-280.3,283.1z"/>
<ellipse class="st3" cx="-264.5" cy="322.7" rx="0.8" ry="0.9"/>
<ellipse class="st3" cx="-262.3" cy="322.7" rx="0.8" ry="0.9"/>
<ellipse class="st3" cx="-251.9" cy="321.8" rx="0.4" ry="0.7"/>
<ellipse class="st3" cx="-251.5" cy="321.6" rx="0.3" ry="0.5"/>
<circle class="st3" cx="-266.7" cy="322.7" r="0.9"/>
<path class="st1" d="M-285.4,318.5c0,0.8,0.2,3.4,0.4,4.2c0.2,0.7,0.6,2.2,1.9,2.6c1.2,0.4,3.7,1.2,4.4,1.3c0.7,0.1,1.6,0.7,1.3-1.1
	c-0.3-1.8-0.2-3.7-2.2-5.7c-2.1-2-3.7-2.3-4.4-2.4C-284.8,317.3-285.5,316.9-285.4,318.5z"/>
</svg>
