<?xml version="1.0" encoding="utf-8"?>
<!-- Generator: Adobe Illustrator 16.0.0, SVG Export Plug-In . SVG Version: 6.00 Build 0)  -->
<!DOCTYPE svg PUBLIC "-//W3C//DTD SVG 1.1//EN" "http://www.w3.org/Graphics/SVG/1.1/DTD/svg11.dtd">
<svg version="1.1" id="Layer_1" xmlns="http://www.w3.org/2000/svg" xmlns:xlink="http://www.w3.org/1999/xlink" x="0px" y="0px"
	 width="100px" height="100px" viewBox="0 0 100 100" enable-background="new 0 0 100 100" xml:space="preserve">
<g>
	<path fill="#FFFFFF" d="M55.275,53.606c0.083,0.226,0.144,0.41,0.188,0.561c0.013,0.037,0.025,0.073,0.036,0.105
		c0.01,0.034,0.02,0.065,0.029,0.094c0.02,0.06,0.04,0.109,0.057,0.153c0.071,0.174,0.138,0.235,0.213,0.241
		c0.074,0.007,0.153-0.043,0.231-0.083c0.076-0.04,0.152-0.07,0.225-0.012c-0.039-0.272-0.096-0.543-0.17-0.811
		c-0.076-0.267-0.171-0.528-0.282-0.783c-0.222-0.514-0.517-0.998-0.872-1.454c-0.102-0.1-0.261-0.246-0.431-0.378
		c-0.17-0.134-0.35-0.252-0.471-0.328c-0.716-0.443-1.538-0.706-2.365-0.76c-0.825-0.06-1.662,0.085-2.417,0.408
		c-0.376,0.164-0.732,0.371-1.059,0.613c-0.326,0.245-0.621,0.528-0.882,0.839c-0.518,0.623-0.89,1.365-1.069,2.153
		c-0.091,0.394-0.136,0.796-0.134,1.196c0.002,0.4,0.051,0.803,0.144,1.194c0.045,0.195,0.106,0.388,0.173,0.577
		c0.072,0.188,0.149,0.374,0.241,0.553c0.182,0.358,0.402,0.698,0.662,1.005c0.259,0.308,0.552,0.587,0.875,0.828
		c0.323,0.241,0.675,0.446,1.046,0.609c0.744,0.324,1.569,0.477,2.385,0.432c-0.264,0.01-0.525,0.004-0.785-0.026
		c-0.26-0.027-0.517-0.071-0.768-0.139c-0.502-0.13-0.979-0.336-1.414-0.604c-0.869-0.533-1.564-1.314-1.99-2.224
		c-0.106-0.229-0.196-0.463-0.27-0.703c-0.071-0.24-0.125-0.486-0.165-0.734c-0.035-0.249-0.055-0.499-0.055-0.75
		c0.001-0.251,0.015-0.503,0.052-0.752c0.14-1,0.584-1.969,1.28-2.739c0.001,0.022-0.005,0.057,0.003,0.075
		c0.009,0.017,0.03,0.017,0.091-0.028c-0.659,0.799-1.075,1.752-1.211,2.735c-0.068,0.492-0.067,0.986,0.002,1.477
		c0.071,0.49,0.211,0.97,0.422,1.421c0.419,0.901,1.114,1.682,1.995,2.188c0.439,0.255,0.923,0.438,1.427,0.541
		c0.252,0.05,0.508,0.079,0.766,0.089c0.257,0.007,0.516-0.005,0.771-0.039c0.006,0.049,0.016,0.149,0.021,0.2
		c0.755-0.062,1.504-0.294,2.176-0.673c0.672-0.381,1.264-0.912,1.725-1.553c0.184-0.272,0.308-0.556,0.386-0.825
		c0.078-0.272,0.111-0.529,0.113-0.765c-0.384,1.058-1.107,1.981-2.04,2.597c-0.93,0.62-2.074,0.917-3.181,0.82
		c-0.555-0.045-1.102-0.188-1.607-0.418c-0.506-0.229-0.968-0.549-1.361-0.932c-0.792-0.767-1.292-1.814-1.392-2.883
		c0.053,0.449,0.178,0.906,0.375,1.34c0.096,0.217,0.213,0.428,0.345,0.63c0.131,0.201,0.276,0.395,0.438,0.574
		c0.161,0.18,0.333,0.349,0.517,0.504c0.185,0.154,0.379,0.296,0.581,0.423c0.405,0.252,0.838,0.444,1.276,0.577
		c0.63,0.181,1.281,0.217,1.907,0.127s1.221-0.306,1.75-0.619c1.059-0.628,1.845-1.63,2.244-2.791l0.035-0.094l0.029-0.097
		c0.02-0.063,0.042-0.127,0.058-0.192c-0.023-0.184-0.062-0.344-0.099-0.482c-0.054-0.139-0.115-0.255-0.188-0.336
		c-0.071-0.081-0.146-0.126-0.223-0.126s-0.154,0.045-0.229,0.144c-0.028,0.036-0.059,0.081-0.089,0.136
		c0.006-0.094,0.01-0.186,0.01-0.279c0-0.422-0.064-0.83-0.184-1.213c-0.014-0.143-0.04-0.295-0.086-0.453
		C55.136,53.668,55.229,53.627,55.275,53.606z"/>
	<path fill="#FFFFFF" d="M67.808,51.489c-0.156-0.001-0.314-0.003-0.472-0.005l0.028,0.324c7.436,0.012,14.92,0.023,22.422,0.034
		c0.338-0.121,0.25-0.229-1.962-0.303C84.744,51.389,73.969,51.54,67.808,51.489z"/>
	<path fill="#FFFFFF" d="M94.135,54.151c-0.013-0.169-0.031-0.346-0.088-0.523c-0.006-0.022-0.013-0.045-0.019-0.068
		c-0.008-0.021-0.017-0.044-0.025-0.066c-0.017-0.044-0.033-0.09-0.053-0.135c-0.043-0.088-0.084-0.179-0.141-0.263
		c-0.115-0.17-0.27-0.346-0.469-0.491c-0.199-0.148-0.444-0.265-0.711-0.317c-0.066-0.01-0.135-0.026-0.203-0.027
		c-0.067-0.003-0.14-0.01-0.201-0.008c-0.128,0-0.257,0-0.385,0c-0.256,0-0.508,0-0.748,0c-0.963,0-1.731,0-1.731,0
		c-0.606-0.1-0.258-0.208,0.106-0.312c-7.366-0.036-14.734-0.071-22.101-0.106l0.112,1.293c0.037,0,0.073,0,0.109,0
		c-0.004,0.018-0.007,0.036-0.012,0.055c-0.03-0.001-0.061-0.001-0.092-0.001l0.028,0.321c-0.002,0.01-0.005,0.02-0.007,0.03
		c-0.049,0.312-0.138,0.682-0.225,1.119c-0.036,0.219-0.087,0.492-0.138,0.779c-0.028,0.144-0.065,0.288-0.098,0.433
		c-0.033,0.144-0.064,0.286-0.099,0.421c-0.076,0.268-0.145,0.508-0.193,0.682c-0.024,0.088-0.052,0.156-0.066,0.204
		c-0.016,0.048-0.025,0.073-0.025,0.073c-0.207,0.301-0.243,0.072-0.276-0.155l-0.175,0.5c-0.027,0.085-0.062,0.165-0.096,0.247
		l-0.1,0.244l-0.099,0.246c-0.031,0.082-0.073,0.16-0.109,0.241l-0.222,0.479c-0.078,0.157-0.162,0.312-0.243,0.469l-0.123,0.234
		l-0.133,0.228l-0.268,0.455l-0.289,0.442c-0.049,0.073-0.095,0.148-0.146,0.22l-0.154,0.214l-0.155,0.214
		c-0.052,0.07-0.101,0.145-0.157,0.212c-0.221,0.273-0.435,0.554-0.673,0.812l-0.174,0.198l-0.088,0.098l-0.092,0.095l-0.367,0.38
		c-0.06,0.063-0.125,0.123-0.189,0.183l-0.191,0.18l-0.192,0.181c-0.062,0.062-0.133,0.115-0.198,0.174l-0.401,0.342
		c-0.137,0.109-0.278,0.215-0.415,0.322l-0.209,0.162l-0.216,0.15c-0.145,0.1-0.286,0.202-0.432,0.301l-0.446,0.28
		c-0.074,0.045-0.146,0.096-0.225,0.137l-0.229,0.129l-0.229,0.129c-0.077,0.043-0.152,0.089-0.231,0.126l-0.469,0.236l-0.118,0.06
		c-0.039,0.02-0.08,0.036-0.12,0.054l-0.24,0.105l-0.24,0.106l-0.119,0.053l-0.122,0.048l-0.491,0.188
		c-0.081,0.033-0.164,0.061-0.247,0.088l-0.25,0.081c-0.33,0.117-0.67,0.201-1.006,0.296c-0.084,0.025-0.17,0.04-0.256,0.061
		l-0.255,0.057c-0.171,0.038-0.341,0.079-0.515,0.104c-0.858,0.169-1.732,0.249-2.603,0.266c-0.872,0.015-1.745-0.029-2.601-0.163
		c-0.858-0.13-1.702-0.326-2.522-0.591c-0.204-0.069-0.407-0.141-0.61-0.212c-0.201-0.076-0.399-0.16-0.599-0.239l-0.149-0.061
		l-0.146-0.067l-0.292-0.135c-0.097-0.047-0.195-0.089-0.291-0.138l-0.285-0.149l-0.284-0.148l-0.071-0.038l-0.069-0.041
		l-0.138-0.082l-0.276-0.162c-0.092-0.054-0.185-0.106-0.272-0.167c-0.178-0.118-0.356-0.235-0.534-0.353
		c-0.172-0.125-0.344-0.25-0.516-0.376c-0.677-0.517-1.309-1.084-1.891-1.694l-0.215-0.232l-0.107-0.116l-0.054-0.059l-0.051-0.061
		c-0.135-0.161-0.27-0.321-0.405-0.483c-0.13-0.165-0.255-0.334-0.382-0.5l-0.095-0.125l-0.089-0.13l-0.177-0.259
		c-0.467-0.694-0.879-1.42-1.226-2.173c0.359,0.768,0.784,1.504,1.264,2.205c0.122,0.174,0.238,0.352,0.371,0.518l0.193,0.253
		c0.065,0.085,0.128,0.171,0.198,0.25l0.412,0.488l0.435,0.467c0.592,0.613,1.233,1.178,1.916,1.689l0.258,0.188
		c0.087,0.062,0.171,0.129,0.261,0.185l0.535,0.352c0.183,0.111,0.368,0.218,0.551,0.326c0.046,0.027,0.092,0.056,0.139,0.08
		l0.142,0.074l0.284,0.149c3.031,1.586,6.613,2.082,9.994,1.465c2.753-0.52,5.384-1.794,7.495-3.688
		c0.525-0.476,1.034-0.972,1.489-1.516l0.176-0.202c0.056-0.067,0.11-0.139,0.165-0.208c0.11-0.139,0.222-0.278,0.33-0.418
		c0.203-0.292,0.42-0.574,0.606-0.877c0.779-1.189,1.38-2.494,1.816-3.851c-0.031-0.11-0.077-0.159-0.165-0.037
		c-0.048,0.06-0.107,0.162-0.186,0.32c-0.038,0.078-0.081,0.172-0.128,0.28c-0.011,0.026-0.023,0.055-0.037,0.084
		c-0.013,0.028-0.027,0.058-0.041,0.089c-0.029,0.061-0.061,0.126-0.094,0.194c-0.048,0.096-0.101,0.208-0.157,0.333
		c-0.027,0.062-0.062,0.127-0.096,0.195c-0.034,0.068-0.069,0.14-0.105,0.213c-0.141,0.302-0.326,0.638-0.523,1.013
		c-0.413,0.74-0.959,1.588-1.627,2.412c-0.666,0.824-1.459,1.613-2.286,2.278c-0.825,0.668-1.685,1.205-2.439,1.59
		c-1.044,0.52-2.153,0.929-3.303,1.214c-1.15,0.28-2.341,0.426-3.537,0.438L51.4,67.512l-0.112,0.002l-0.112-0.005
		c-0.149-0.005-0.3-0.011-0.45-0.016l-0.225-0.007l-0.225-0.02l-0.449-0.039l-0.112-0.01l-0.112-0.015l-0.223-0.032
		c-0.149-0.02-0.298-0.039-0.447-0.061l-0.443-0.083c-0.148-0.028-0.296-0.053-0.442-0.091c-1.173-0.267-2.319-0.667-3.401-1.196
		c-1.079-0.537-2.095-1.197-3.021-1.962c-0.92-0.771-1.746-1.648-2.459-2.6c-0.023-0.028-0.047-0.058-0.068-0.088L39.035,61.2
		l-0.128-0.183c-0.083-0.122-0.172-0.241-0.252-0.366c-0.079-0.125-0.157-0.251-0.236-0.376l-0.118-0.188l-0.109-0.192
		c-0.072-0.129-0.145-0.258-0.217-0.385c-0.038-0.064-0.068-0.131-0.102-0.197l-0.098-0.196l-0.098-0.197
		c-0.032-0.065-0.067-0.13-0.095-0.197c-0.059-0.135-0.118-0.27-0.176-0.403l-0.088-0.2l-0.078-0.205
		c-0.052-0.135-0.104-0.271-0.155-0.407c-0.027-0.067-0.049-0.137-0.071-0.206l-0.067-0.206c-0.044-0.139-0.091-0.276-0.132-0.414
		c-0.038-0.14-0.075-0.279-0.112-0.419c-0.037-0.139-0.078-0.277-0.104-0.418c-0.03-0.141-0.061-0.281-0.09-0.421
		c-0.014-0.07-0.033-0.141-0.043-0.211L36.431,55l-0.05-0.308l-0.025-0.153c-0.008-0.051-0.012-0.104-0.019-0.154l-0.07-0.619
		l-0.041-0.621l-0.01-0.155l-0.002-0.156l-0.004-0.311l-0.005-0.312l0.011-0.312l0.011-0.312l0.004-0.156l0.013-0.154l0.052-0.619
		l0.082-0.616c0.125-0.818,0.313-1.626,0.563-2.415l0.199-0.588l0.228-0.577c0.035-0.097,0.079-0.191,0.122-0.285l0.128-0.283
		l0.063-0.142l0.032-0.07l0.036-0.069l0.141-0.277c0.377-0.736,0.812-1.445,1.303-2.112c0.495-0.666,1.042-1.292,1.635-1.872
		c1.183-1.165,2.569-2.121,4.067-2.839c1.03-0.493,2.131-0.872,3.268-1.118c1.137-0.246,2.313-0.346,3.485-0.319
		c1.172,0.03,2.34,0.19,3.465,0.487c1.124,0.3,2.206,0.728,3.217,1.263c1.013,0.531,1.946,1.181,2.79,1.905
		c0.843,0.724,1.594,1.524,2.241,2.371c0.651,0.846,1.191,1.741,1.635,2.647c0.443,0.907,0.786,1.826,1.042,2.732
		c0.444,1.614,0.569,2.724,0.684,3.33c0.029,0.152,0.059,0.274,0.088,0.364c0.028,0.093,0.054,0.16,0.082,0.191
		c0.057,0.066,0.115,0.012,0.174-0.157c0.055-0.163,0.106-0.436,0.154-0.812c0.017-0.188,0.027-0.401,0.038-0.64
		c0.002-0.06,0.004-0.121,0.008-0.183c-0.002-0.063-0.003-0.127-0.005-0.193c-0.004-0.131-0.007-0.268-0.012-0.411
		c-0.002-0.071-0.004-0.144-0.008-0.218c-0.006-0.074-0.014-0.149-0.021-0.226c-0.015-0.153-0.03-0.312-0.047-0.477
		c-0.004-0.041-0.008-0.083-0.013-0.124c-0.008-0.042-0.014-0.083-0.021-0.125c-0.014-0.085-0.027-0.17-0.041-0.257
		c-0.015-0.087-0.028-0.176-0.043-0.265c-0.008-0.044-0.015-0.089-0.022-0.135c-0.01-0.045-0.02-0.09-0.03-0.136
		c-0.041-0.182-0.083-0.369-0.125-0.561c-0.021-0.097-0.051-0.191-0.077-0.288c-0.027-0.098-0.056-0.195-0.084-0.295
		c-0.029-0.099-0.058-0.2-0.089-0.301c-0.035-0.1-0.07-0.201-0.104-0.303c-0.073-0.204-0.14-0.415-0.229-0.622
		c0.047-0.021,0.14-0.061,0.187-0.082c0.095,0.208,0.166,0.414,0.241,0.606c0.037,0.097,0.073,0.191,0.109,0.283
		c0.037,0.091,0.062,0.184,0.094,0.272c0.06,0.178,0.116,0.345,0.169,0.505c0.052,0.16,0.092,0.313,0.135,0.457
		c0.043,0.145,0.083,0.28,0.12,0.408c0.032,0.129,0.062,0.25,0.092,0.363c0.058,0.227,0.115,0.421,0.151,0.593
		c0.039,0.17,0.077,0.313,0.11,0.434c0.034,0.12,0.064,0.216,0.088,0.293c0.05,0.154,0.092,0.228,0.132,0.253
		c0.081,0.048,0.146-0.107,0.213-0.221c0.068-0.113,0.14-0.185,0.232,0.042c-0.131-0.939-0.332-1.869-0.604-2.779
		c-0.279-0.908-0.629-1.794-1.043-2.65c-0.764-1.59-1.772-3.062-2.963-4.381c1.77,0.018,3.521,0.039,5.241,0.069l2.402,0.032
		l0.301,0.003c0.089-0.002,0.178-0.006,0.267-0.012c0.088-0.008,0.177-0.022,0.266-0.037c0.351-0.066,0.69-0.201,0.991-0.394
		c0.302-0.193,0.563-0.444,0.771-0.735c0.207-0.292,0.358-0.625,0.442-0.975c0.082-0.352,0.098-0.711,0.045-1.066
		c-0.053-0.355-0.175-0.702-0.358-1.012c-0.362-0.62-0.97-1.089-1.667-1.283c-0.173-0.049-0.353-0.079-0.53-0.094l-0.134-0.007
		c-0.042-0.001-0.1-0.004-0.115-0.003l-0.151,0h-0.601l-1.201,0.002c-3.206,0.006-6.411,0.031-9.617,0.057
		c-1.928,0.022-3.896,0.03-5.866,0.03c-0.015-0.302-0.03-0.626-0.041-0.83c-0.104-2.031-0.229-4.031-0.384-6.015
		c-0.077-0.992-0.161-1.979-0.258-2.966c-0.097-0.987-0.203-1.972-0.339-2.964c-0.069-0.497-0.146-0.995-0.243-1.505
		c-0.05-0.256-0.105-0.515-0.177-0.787c-0.035-0.137-0.076-0.277-0.128-0.43c-0.015-0.039-0.027-0.076-0.044-0.118l-0.023-0.061
		l-0.026-0.065c-0.039-0.088-0.08-0.18-0.151-0.3c-0.016-0.027-0.04-0.063-0.062-0.095c-0.011-0.018-0.02-0.03-0.036-0.051
		l-0.045-0.058c-0.025-0.034-0.073-0.085-0.117-0.127c-0.012-0.012-0.021-0.021-0.036-0.034l-0.046-0.04
		c-0.031-0.025-0.062-0.05-0.098-0.074c-0.045-0.029-0.09-0.057-0.136-0.081c-0.025-0.013-0.044-0.023-0.076-0.037
		c-0.031-0.013-0.062-0.025-0.093-0.035c-0.063-0.022-0.123-0.039-0.2-0.051c-0.037-0.006-0.075-0.01-0.112-0.013
		c-0.019-0.001-0.037-0.002-0.056-0.003c0.091-0.007-0.192,0.008-0.16,0.006l-0.022,0.002l-0.038,0.006
		c-0.024,0.004-0.049,0.009-0.073,0.014c-0.049,0.01-0.098,0.024-0.145,0.041c-0.023,0.008-0.047,0.017-0.07,0.027
		c-0.021,0.009-0.05,0.021-0.057,0.025c-0.024,0.012-0.048,0.024-0.072,0.037c-0.023,0.014-0.046,0.027-0.069,0.042
		s-0.046,0.03-0.061,0.042c-0.066,0.048-0.137,0.11-0.174,0.151c-0.022,0.023-0.044,0.046-0.064,0.071
		c-0.018,0.021-0.032,0.039-0.048,0.059c-0.015,0.02-0.031,0.041-0.044,0.06l-0.034,0.051l-0.032,0.05l-0.026,0.044
		c-0.036,0.062-0.06,0.112-0.084,0.164c-0.021,0.047-0.043,0.097-0.06,0.139c-0.07,0.176-0.114,0.324-0.153,0.468
		c-0.039,0.143-0.071,0.279-0.1,0.413c-0.113,0.532-0.185,1.033-0.252,1.535c-0.13,1.001-0.222,1.988-0.307,2.977
		c-0.083,0.989-0.154,1.978-0.222,2.97c0.097-1.278,0.2-2.536,0.327-3.79c0.063-0.627,0.133-1.253,0.216-1.883
		c0.042-0.315,0.087-0.63,0.14-0.951c0.053-0.32,0.111-0.642,0.191-0.982c0.041-0.171,0.085-0.344,0.151-0.539
		c0.034-0.099,0.07-0.2,0.126-0.321c0.014-0.03,0.031-0.064,0.047-0.095c0.016-0.033,0.039-0.071,0.059-0.106
		c0.051-0.081,0.101-0.161,0.212-0.278l0.041-0.041c0.006-0.006,0.015-0.014,0.024-0.022l0.029-0.024
		c0.02-0.016,0.039-0.032,0.059-0.047c0.02-0.015,0.038-0.029,0.067-0.048c0.027-0.017,0.055-0.034,0.083-0.049l0.043-0.023
		c0.017-0.008,0.023-0.012,0.056-0.026c0.054-0.023,0.111-0.043,0.169-0.059c0.028-0.007,0.058-0.014,0.087-0.019l0.043-0.007
		l0.022-0.003l0.015-0.002l0.007,0l0.004,0c-0.029,0.001,0.238-0.012,0.142-0.006c0.088,0.002,0.183,0.015,0.262,0.036
		c0.038,0.01,0.076,0.022,0.113,0.035c0.019,0.007,0.036,0.014,0.055,0.021c0.018,0.008,0.037,0.016,0.05,0.023
		c0.057,0.027,0.111,0.059,0.164,0.094c0.04,0.029,0.079,0.059,0.115,0.091l0.027,0.023l0.021,0.02l0.04,0.04l0.038,0.042
		c0.013,0.015,0.021,0.023,0.03,0.036c0.019,0.022,0.037,0.046,0.055,0.07c0.017,0.022,0.028,0.04,0.042,0.061
		c0.013,0.019,0.028,0.042,0.038,0.059c0.021,0.034,0.043,0.072,0.06,0.104c0.068,0.13,0.112,0.236,0.148,0.336
		c0.037,0.1,0.068,0.194,0.094,0.283c0.055,0.18,0.097,0.349,0.135,0.516c0.038,0.167,0.071,0.329,0.103,0.491
		c0.062,0.323,0.114,0.642,0.162,0.959c0.188,1.268,0.323,2.527,0.453,3.807c-0.035-0.035-0.087-0.141-0.097,0.046
		c-0.183-1.295-0.335-2.57-0.526-3.853c-0.049-0.321-0.1-0.642-0.162-0.969c-0.062-0.327-0.129-0.654-0.235-1.014
		c-0.027-0.091-0.058-0.185-0.098-0.286c-0.04-0.102-0.085-0.21-0.168-0.348c-0.047-0.073-0.093-0.146-0.192-0.25l-0.036-0.035
		c-0.013-0.013-0.032-0.029-0.048-0.042c-0.016-0.014-0.034-0.027-0.052-0.041l-0.025-0.02l-0.034-0.022
		c-0.024-0.016-0.048-0.029-0.073-0.043l-0.038-0.02l-0.019-0.01l-0.023-0.011c-0.032-0.013-0.065-0.025-0.099-0.036
		c-0.035-0.01-0.064-0.02-0.105-0.027c-0.038-0.007-0.078-0.013-0.117-0.016c-0.02-0.001-0.04-0.003-0.06-0.003
		c0.081-0.006-0.146,0.006-0.121,0.005l-0.004,0.001l-0.015,0.001h-0.007L51.132,18.1l-0.039,0.007
		c-0.051,0.01-0.103,0.024-0.152,0.041c-0.023,0.009-0.048,0.019-0.072,0.028c-0.014,0.007-0.019,0.009-0.025,0.012l-0.02,0.01
		c-0.025,0.013-0.051,0.028-0.075,0.042l-0.037,0.022l-0.018,0.012l-0.014,0.01c-0.036,0.027-0.071,0.055-0.104,0.085
		c-0.028,0.026-0.051,0.049-0.076,0.075c-0.011,0.012-0.025,0.027-0.033,0.037l-0.026,0.033c-0.017,0.021-0.035,0.045-0.049,0.065
		c-0.109,0.158-0.159,0.272-0.206,0.38c-0.046,0.106-0.079,0.202-0.109,0.295c-0.06,0.184-0.104,0.355-0.146,0.523
		c-0.08,0.336-0.14,0.659-0.196,0.982c-0.055,0.322-0.103,0.641-0.146,0.96c-0.087,0.636-0.159,1.271-0.22,1.908
		c-0.121,1.272-0.199,2.554-0.232,3.856c-0.051-0.002-0.151-0.008-0.202-0.011c-0.123,1.832-0.232,3.676-0.341,5.545
		c-0.02,0.588,0.019,1.116,0.084,1.58c-5.124-0.017-10.062-0.034-14.206,0.083c-6.412,0.203-4.007,0.915,2.404,1.169
		c0,0.051,0,0.152,0,0.203c-6.412-0.102-3.206,0.407-4.006,0.661c3.203,0,6.409,0.05,9.614,0.203c0.125,0,0.27,0,0.428,0
		c-0.456,0.251-0.9,0.522-1.331,0.812c-2.331-0.018-4.674-0.04-7.035-0.065c-0.898,0-1.733,0.023-2.505,0.062
		c-0.385,0.02-0.755,0.043-1.11,0.068l-0.066,0.005c-0.007,0-0.013,0.001-0.02,0.002c-0.013,0.001-0.027,0.009-0.041,0.007
		c-0.013,0-0.026,0.003-0.04,0.005c-0.013-0.001-0.026-0.001-0.04,0c-0.054-0.003-0.108-0.013-0.164-0.031
		c0.053,0.043,0.114,0.076,0.181,0.097c0.034,0.01,0.068,0.018,0.105,0.021c0.004,0.004,0.073,0.005,0.119,0.006l0.151,0.003
		c0.401,0.01,0.804,0.021,1.207,0.03c0.808,0.018,1.619,0.035,2.434,0.053c1.631,0.033,3.276,0.061,4.933,0.084
		c0.453,0.007,0.908,0.013,1.363,0.019c-0.028,0.02-0.055,0.04-0.082,0.06c-0.055,0-0.11,0-0.166,0
		c-1.853-0.01-3.681-0.021-5.497-0.04c-0.907-0.011-1.812-0.022-2.715-0.033c-0.452-0.007-0.902-0.015-1.354-0.022l-0.338-0.006
		c-0.012,0-0.031,0-0.039-0.001l-0.02-0.002c-0.013-0.001-0.025-0.003-0.039-0.003c-0.025-0.001-0.049-0.011-0.075-0.013
		c-0.099-0.021-0.189-0.069-0.267-0.131c-0.136-0.108-0.225-0.268-0.247-0.43c-0.047-0.099-0.073-0.217-0.072-0.328
		c0-0.112,0.027-0.224,0.075-0.325c0.085-0.207,0.244-0.374,0.385-0.481c0.141-0.112,0.261-0.182,0.261-0.261
		c0-0.038-0.03-0.075-0.104-0.109c-0.074-0.033-0.192-0.056-0.362-0.042c-0.168,0.017-0.39,0.081-0.624,0.251
		c-0.115,0.086-0.235,0.196-0.336,0.344c-0.102,0.146-0.191,0.326-0.243,0.537c-0.037,0.212-0.035,0.488,0.045,0.761
		c0.078,0.273,0.24,0.532,0.432,0.723c0.193,0.19,0.41,0.31,0.573,0.373c0.042,0.015,0.079,0.029,0.112,0.04
		c0.033,0.01,0.062,0.018,0.086,0.023c0.047,0.012,0.073,0.019,0.073,0.019c0.158,0.078,0.197,0.132,0.157,0.181
		c-0.02,0.024-0.059,0.045-0.11,0.064c-0.026,0.009-0.054,0.018-0.085,0.026c-0.03,0.008-0.062,0.012-0.094,0.018l0.075,0.02
		l0.076,0.013c0.052,0.007,0.103,0.019,0.154,0.021l0.154,0.009c0.029,0.002,0.044,0.001,0.066,0.002l0.061,0l0.486,0.005
		l0.972,0.01l1.944,0.019l3.888,0.036c0.393,0.003,0.785,0.006,1.178,0.01c-0.014,0.013-0.027,0.025-0.041,0.038
		c-0.397-0.001-0.795-0.002-1.192-0.003c-1.311-0.003-2.623-0.007-3.937-0.01c-0.658-0.002-1.315-0.004-1.973-0.005l-0.987-0.003
		l-0.247-0.001l-0.123,0h-0.062c-0.021,0-0.053-0.002-0.08-0.003c-0.219-0.005-0.439-0.05-0.646-0.126
		c-0.131,0.016-0.204,0.049-0.04,0.165c0.021,0.014,0.045,0.03,0.073,0.046c0.029,0.015,0.063,0.029,0.102,0.046
		c0.038,0.016,0.081,0.034,0.13,0.049c0.048,0.014,0.103,0.029,0.162,0.043c0.06,0.016,0.125,0.021,0.197,0.031
		c0.034,0.004,0.069,0.008,0.106,0.012c0.026,0.002,0.053,0.005,0.081,0.008c0.111,0.01,0.237,0.02,0.381,0.028
		c1.211,0.115,4.706,0.057,7.725,0.042c-0.39,0.386-0.764,0.79-1.118,1.208c-0.114,0.126-0.215,0.263-0.321,0.396l-0.314,0.402
		l-0.294,0.416l-0.147,0.208c-0.05,0.068-0.092,0.143-0.139,0.213l-0.275,0.429l-0.068,0.107l-0.063,0.11l-0.127,0.221
		c-0.084,0.148-0.171,0.294-0.251,0.442l-0.232,0.454l-0.115,0.227c-0.038,0.075-0.07,0.154-0.106,0.231l-0.209,0.464l-0.051,0.116
		l-0.047,0.119l-0.093,0.237c-0.062,0.158-0.126,0.314-0.184,0.474c-0.222,0.64-0.426,1.288-0.574,1.949
		c-0.235,1.011-0.381,2.042-0.436,3.075c-6.245-0.022-12.433-0.051-18.428-0.104l-4.617-0.032l-0.578-0.002
		c-0.338,0.001-0.679,0.062-0.995,0.178c-0.318,0.115-0.604,0.291-0.852,0.496C8.18,52.03,7.968,52.27,7.801,52.53
		c-0.34,0.521-0.518,1.124-0.537,1.72L7.26,54.361l0.003,0.111c0.003,0.075,0.006,0.149,0.012,0.224
		c0.019,0.149,0.036,0.298,0.073,0.446c0.029,0.146,0.08,0.292,0.129,0.436c0.058,0.143,0.116,0.284,0.193,0.418
		c0.147,0.272,0.333,0.528,0.564,0.752c0.229,0.225,0.495,0.42,0.798,0.566c0.303,0.145,0.637,0.239,0.977,0.273
		c0.085,0.006,0.17,0.011,0.255,0.014h0.15l0.289,0.001l2.309,0.004l4.318-0.001c-0.002,0.029-0.005,0.059-0.006,0.088
		c-0.013,0.264-0.006,0.53,0.029,0.796c0.069,0.53,0.23,1.051,0.48,1.524c0.493,0.951,1.322,1.709,2.292,2.133
		c0.334,0.142,0.687,0.25,1.048,0.323c0.361,0.071,0.731,0.102,1.098,0.094s0.736-0.055,1.094-0.146
		c0.357-0.09,0.702-0.22,1.024-0.387c0.646-0.331,1.193-0.81,1.591-1.354c0.399-0.544,0.644-1.155,0.736-1.733
		c0.073-0.518,0.001-0.858-0.093-1.037c-0.023-0.044-0.049-0.078-0.075-0.104c-0.026-0.024-0.054-0.036-0.082-0.045
		c-0.056-0.015-0.115-0.001-0.173,0.035c-0.06,0.043-0.121,0.112-0.181,0.202c-0.065,0.09-0.127,0.199-0.199,0.324
		c-0.089,0.16-0.189,0.343-0.305,0.539c0.104-0.336,0.16-0.693,0.16-1.065c0-0.069-0.002-0.138-0.006-0.205
		c2.983-0.01,5.968-0.021,8.952-0.034c0.018,0.054,0.037,0.106,0.054,0.16l0.163,0.48l0.186,0.472
		c0.063,0.155,0.121,0.315,0.193,0.468c0.141,0.307,0.272,0.619,0.432,0.917l0.23,0.451l0.252,0.439
		c0.163,0.296,0.352,0.577,0.533,0.862c0.088,0.144,0.19,0.279,0.287,0.418l0.294,0.413l0.312,0.398
		c0.105,0.134,0.208,0.268,0.32,0.394c0.875,1.031,1.862,1.971,2.95,2.779c1.09,0.805,2.273,1.488,3.521,2.031
		c1.25,0.537,2.567,0.923,3.912,1.156l0.252,0.046c0.084,0.014,0.169,0.023,0.254,0.035l0.508,0.066l0.127,0.016l0.127,0.012
		l0.256,0.021l0.512,0.04l0.512,0.016l0.257,0.007l0.128,0.003l0.129-0.003l0.514-0.01l0.257-0.006l0.257-0.02
		c-0.883,0.048-1.763,0.047-2.636-0.041c-0.872-0.081-1.738-0.215-2.581-0.43c-0.844-0.211-1.675-0.47-2.472-0.806
		c-0.1-0.042-0.202-0.079-0.299-0.124l-0.294-0.135l-0.294-0.136c-0.048-0.022-0.098-0.044-0.146-0.068l-0.144-0.074
		c-0.191-0.099-0.382-0.199-0.574-0.297c-0.186-0.108-0.372-0.216-0.558-0.325c-2.953-1.762-5.339-4.389-6.803-7.465
		c-0.33-0.702-0.615-1.425-0.857-2.162c0.052-0.001,0.103-0.001,0.154-0.001l0.176,0.532c0.073,0.201,0.153,0.4,0.229,0.6
		c0.074,0.203,0.163,0.396,0.25,0.594c0.088,0.195,0.169,0.395,0.27,0.584c0.097,0.191,0.191,0.384,0.29,0.574l0.316,0.561
		l0.08,0.141l0.085,0.135l0.172,0.273l0.172,0.272c0.059,0.089,0.122,0.177,0.183,0.265l0.185,0.265
		c0.062,0.088,0.122,0.177,0.189,0.262l0.395,0.509c0.134,0.168,0.277,0.328,0.416,0.493c0.071,0.081,0.138,0.165,0.212,0.243
		l0.221,0.235c0.289,0.319,0.605,0.614,0.916,0.913l0.487,0.426l0.122,0.106l0.127,0.102l0.253,0.201
		c0.681,0.532,1.396,1.026,2.156,1.448c0.186,0.113,0.381,0.209,0.574,0.31c0.193,0.099,0.386,0.202,0.585,0.288
		c0.199,0.09,0.396,0.183,0.596,0.269c0.203,0.08,0.406,0.161,0.609,0.241c0.051,0.02,0.101,0.041,0.152,0.059l0.155,0.054
		l0.311,0.105l0.311,0.104l0.316,0.089l0.315,0.09c0.105,0.031,0.211,0.062,0.318,0.084c0.213,0.049,0.428,0.099,0.642,0.146
		c0.861,0.172,1.736,0.286,2.619,0.332c0.883,0.033,1.77,0.011,2.654-0.083c0.005,0.051,0.015,0.15,0.02,0.201
		c2.523-0.235,5.006-1.04,7.218-2.336c1.108-0.646,2.141-1.426,3.085-2.304c0.943-0.881,1.799-1.865,2.536-2.938
		c0.605-0.897,1.06-1.802,1.4-2.663c0.245-0.622,0.436-1.222,0.576-1.793c2.844,0.001,5.618-0.002,8.295-0.014
		c-0.005,0.056-0.009,0.111-0.012,0.167c-0.013,0.264-0.006,0.53,0.029,0.796c0.068,0.529,0.229,1.051,0.479,1.524
		c0.493,0.951,1.323,1.709,2.293,2.133c0.335,0.142,0.688,0.25,1.048,0.323c0.36,0.071,0.73,0.102,1.098,0.094
		s0.736-0.055,1.094-0.146c0.357-0.09,0.702-0.22,1.024-0.387c0.646-0.331,1.193-0.81,1.591-1.354
		c0.399-0.544,0.644-1.155,0.737-1.733c0.073-0.518,0-0.859-0.094-1.036c-0.022-0.044-0.048-0.079-0.074-0.105
		c-0.026-0.024-0.055-0.036-0.082-0.044c-0.057-0.016-0.115-0.002-0.174,0.034c-0.06,0.043-0.12,0.113-0.182,0.202
		c-0.063,0.089-0.126,0.199-0.197,0.324c-0.089,0.16-0.189,0.343-0.305,0.539c0.104-0.336,0.16-0.693,0.16-1.065
		c0-0.083-0.004-0.165-0.01-0.247c0.007-0.015,0.014-0.031,0.021-0.048c0.005-0.014,0.01-0.026,0.015-0.041
		c0.26-0.003,0.516-0.007,0.771-0.011c10.728-0.176,8.607-0.74-0.254-1.05c0.006-0.054,0.004-0.125-0.01-0.216
		c-0.003-0.03-0.008-0.063-0.015-0.099c6.322-0.052,2.046-0.453,3.355-0.669c-1.217,0-2.435-0.003-3.651-0.008
		c-0.098-0.155-0.215-0.317-0.35-0.475c-0.2-0.237-0.44-0.458-0.685-0.646c-0.244-0.189-0.492-0.345-0.705-0.472
		c-0.108-0.067-0.222-0.131-0.338-0.189c3.007-0.017,5.623-0.104,7.849-0.213c-2.877-0.041-5.787-0.077-8.721-0.108
		c-0.256-0.062-0.52-0.102-0.784-0.117c-0.402-0.026-0.814,0.008-1.218,0.096c-3.842-0.038-7.725-0.068-11.638-0.095
		c-0.002-0.02-0.004-0.037-0.007-0.056c7.629,0.02,15.025,0.043,22.421,0.124c0.374,0.006,0.75,0.011,1.127,0.017
		c0.186,0.002,0.372,0.005,0.557,0.009c0.085,0.003,0.163,0.023,0.242,0.054c0.216,0.048,0.435,0.217,0.577,0.444
		c0.139,0.228,0.209,0.506,0.201,0.77c0.005,0.129-0.019,0.253-0.044,0.371c-0.009,0.028-0.016,0.058-0.023,0.087
		c-0.007,0.029-0.02,0.055-0.029,0.083c-0.017,0.057-0.045,0.104-0.067,0.156c-0.102,0.197-0.235,0.348-0.365,0.455
		c-0.129,0.107-0.254,0.174-0.346,0.225c-0.091,0.046-0.149,0.086-0.149,0.125c0,0.019,0.014,0.037,0.047,0.054
		c0.016,0.009,0.036,0.017,0.062,0.024c0.013,0.005,0.027,0.009,0.042,0.013c0.016,0.004,0.031,0.005,0.05,0.007
		c0.035,0.003,0.075,0.007,0.121,0.008c0.045-0.004,0.096-0.009,0.152-0.015c0.056-0.012,0.115-0.025,0.182-0.045
		c0.062-0.025,0.135-0.046,0.204-0.087c0.146-0.072,0.3-0.183,0.447-0.341c0.146-0.156,0.286-0.361,0.387-0.617
		C94.086,54.795,94.147,54.489,94.135,54.151z M51.272,19.103l0.011-0.004c0,0.001,0,0.002,0,0.002
		c-0.001,0.002-0.001,0-0.001,0.004c-0.001,0.004-0.002,0.008-0.003,0.011c-0.001,0-0.002-0.001-0.003-0.003
		c-0.001-0.002-0.003-0.003-0.004-0.005S51.27,19.103,51.272,19.103z M50.309,34.604c-0.025,0-0.049,0-0.074,0
		c0.03-0.557,0.06-1.113,0.09-1.669C50.309,33.487,50.301,34.043,50.309,34.604z M63.436,39.689
		c-0.004-0.004-0.008-0.007-0.012-0.011c0.574,0.011,1.147,0.023,1.718,0.036C64.573,39.705,64.005,39.697,63.436,39.689z
		 M61.825,38.304c-0.024-0.019-0.051-0.038-0.075-0.057c2.751,0.015,5.49,0.029,8.2,0.043C67.361,38.291,64.6,38.301,61.825,38.304z
		 M70.192,36.649c0.371-0.003,0.739-0.006,1.108-0.009l0.277-0.001l0.069,0l0.034,0c0.011,0,0.025,0,0.028,0.001
		c0.021,0.001,0.041,0.002,0.062,0.002c0.083,0.008,0.163,0.029,0.237,0.064c0.149,0.069,0.279,0.195,0.344,0.348
		c0.033,0.075,0.054,0.155,0.061,0.239c0,0.021,0.005,0.042,0.002,0.063c-0.002,0.021-0.002,0.042-0.002,0.063
		c-0.005,0.021-0.008,0.041-0.01,0.062c-0.004,0.021-0.011,0.04-0.016,0.061c-0.045,0.157-0.148,0.3-0.287,0.394
		c-0.07,0.046-0.146,0.078-0.226,0.097l-0.029,0.008l-0.03,0.003c-0.021,0.002-0.04,0.008-0.062,0.007l-0.031,0.001l-0.015,0.001
		c-0.005,0-0.021,0-0.031,0l-0.137,0c-0.73-0.003-1.459-0.007-2.186-0.01c-1.456-0.011-2.908-0.022-4.36-0.034
		c-1.206-0.011-2.411-0.021-3.616-0.031c-0.057-0.04-0.112-0.079-0.166-0.118c1.326,0.006,2.65,0.012,3.976,0.016
		c1.429,0.003,2.859,0.006,4.292,0.01c0.716,0,1.433,0.001,2.15,0.002h0.068c0.006,0,0.009,0,0.011,0l0.005-0.001l0.012-0.001
		c0.016-0.002,0.033,0.002,0.047-0.003c0.016-0.003,0.032-0.003,0.047-0.006c0.015-0.005,0.028-0.009,0.045-0.011
		c0.059-0.019,0.113-0.047,0.165-0.085c0.05-0.037,0.094-0.083,0.13-0.135c0.035-0.052,0.058-0.11,0.072-0.17
		c0.016-0.06,0.02-0.124,0.016-0.188c-0.008-0.062-0.025-0.122-0.052-0.177c-0.027-0.056-0.063-0.108-0.109-0.153
		c-0.044-0.045-0.098-0.081-0.154-0.105c-0.057-0.026-0.115-0.042-0.179-0.048c-0.016,0-0.032,0-0.048-0.003h-0.135l-0.272,0
		c-0.363,0.001-0.727,0.002-1.091,0.002c-1.458,0.004-2.923,0.009-4.401,0.014c0.089-0.033,0.343-0.075-0.086-0.102
		C67.222,36.684,68.712,36.663,70.192,36.649z M66.454,36.893c1.138-0.002,2.273-0.003,3.408-0.006
		c0.567-0.001,1.135-0.001,1.701-0.002l0.106,0c0.047-0.001,0.04,0.002,0.056,0.002c0.011,0.002,0.021,0,0.032,0.001
		c0.01,0.002,0.02,0.004,0.029,0.004c0.04,0.009,0.08,0.018,0.116,0.038c0.02,0.006,0.035,0.021,0.055,0.029
		c0.009,0.006,0.016,0.014,0.024,0.019c0.005,0.003,0.009,0.006,0.015,0.009l0.011,0.011c0.033,0.025,0.058,0.061,0.082,0.094
		c0.023,0.035,0.039,0.073,0.054,0.111c0.003,0.01,0.004,0.02,0.008,0.029c0.002,0.005,0.002,0.01,0.005,0.015
		c0.001,0.005,0,0.01,0.001,0.016c0.002,0.01,0.003,0.021,0.006,0.031c0,0.01-0.001,0.021,0.001,0.032
		c0,0.005,0.001,0.011,0.002,0.016c0,0.005-0.001,0.01-0.002,0.016c-0.001,0.01-0.001,0.021,0,0.032
		c-0.002,0.01-0.004,0.021-0.005,0.03c-0.001,0.005-0.001,0.011-0.002,0.016c-0.001,0.005-0.004,0.01-0.004,0.015
		c-0.003,0.009-0.006,0.02-0.007,0.03c-0.004,0.009-0.009,0.019-0.012,0.029c-0.001,0.004-0.001,0.01-0.004,0.015
		c-0.003,0.004-0.006,0.009-0.008,0.013c-0.005,0.009-0.008,0.02-0.013,0.028c-0.022,0.036-0.045,0.07-0.074,0.101
		c-0.007,0.008-0.018,0.013-0.024,0.021c-0.008,0.007-0.015,0.016-0.023,0.02c-0.009,0.006-0.018,0.013-0.025,0.02
		c-0.009,0.005-0.019,0.01-0.027,0.016c-0.005,0.002-0.008,0.006-0.014,0.008c-0.004,0.002-0.009,0.003-0.014,0.006
		c-0.009,0.003-0.018,0.01-0.027,0.013c-0.021,0.005-0.038,0.017-0.059,0.019c-0.01,0.001-0.019,0.008-0.03,0.008
		c-0.011,0.001-0.021,0.002-0.031,0.005c-0.01,0.004-0.021,0-0.031,0.002c-0.006,0-0.011,0.001-0.017,0.001l-0.008,0.001
		c0,0-0.005,0-0.009,0h-0.014c-1.132,0-2.262,0.001-3.393,0.002c-2.262,0-4.522-0.001-6.787-0.001c-0.121,0-0.241,0-0.362,0
		c-0.117-0.085-0.237-0.159-0.347-0.229c-0.123-0.079-0.236-0.151-0.337-0.216l-0.111-0.071c-0.037-0.022-0.076-0.044-0.113-0.066
		l-0.229-0.131c-0.112-0.063-0.222-0.128-0.332-0.19C61.941,36.901,64.201,36.896,66.454,36.893z M49.407,26.469
		c0.114-1.458,0.233-2.924,0.408-4.392c0.045-0.367,0.094-0.734,0.15-1.103c0.057-0.37,0.121-0.738,0.208-1.116
		c0.043-0.19,0.092-0.381,0.16-0.585c0.034-0.102,0.072-0.208,0.13-0.327c0.031-0.062,0.062-0.123,0.113-0.2l0.02-0.027l0.023-0.031
		c0.017-0.022,0.029-0.04,0.052-0.063c0.021-0.023,0.043-0.047,0.067-0.069c0.029-0.027,0.062-0.053,0.094-0.076
		c0.02-0.014,0.042-0.028,0.064-0.041l0.034-0.019l0.017-0.008c0.007-0.003,0.009-0.005,0.021-0.01
		c0.041-0.018,0.084-0.032,0.128-0.043c0.04-0.011,0.104-0.02,0.094-0.018l0.017-0.001h0.004c-0.018,0,0.147-0.008,0.091-0.004
		c0.017,0,0.034,0.001,0.052,0.003c0.033,0.003,0.068,0.008,0.102,0.016c0.029,0.007,0.059,0.017,0.087,0.026
		c0.016,0.005,0.029,0.011,0.044,0.017l0.021,0.009l0.017,0.008c0.022,0.012,0.044,0.024,0.065,0.037
		c0.047,0.028,0.073,0.049,0.104,0.075c0.033,0.027,0.054,0.048,0.074,0.071l0.032,0.034l0.025,0.03
		c0.067,0.085,0.103,0.149,0.139,0.214c0.032,0.062,0.06,0.12,0.082,0.175c0.006,0.014,0.011,0.028,0.017,0.043
		c-0.008-0.013-0.016-0.025-0.024-0.037c-0.026-0.062-0.057-0.126-0.097-0.198c-0.017-0.029-0.029-0.054-0.052-0.086l-0.032-0.046
		c-0.012-0.016-0.025-0.035-0.039-0.051c-0.023-0.032-0.064-0.075-0.104-0.11c-0.024-0.022-0.051-0.043-0.077-0.063
		c-0.013-0.009-0.031-0.021-0.049-0.032c-0.018-0.011-0.037-0.022-0.056-0.031l-0.028-0.015c-0.01-0.005-0.023-0.011-0.035-0.015
		c-0.022-0.01-0.048-0.019-0.072-0.026c-0.046-0.015-0.109-0.025-0.167-0.029c-0.014-0.001-0.028-0.002-0.043-0.002l-0.074,0.005
		H51.21h-0.004l-0.015,0.002l-0.011,0.002c-0.019,0.002-0.038,0.006-0.057,0.011c-0.037,0.008-0.074,0.019-0.109,0.032
		c-0.017,0.006-0.037,0.015-0.051,0.021l-0.028,0.015c-0.02,0.01-0.038,0.021-0.057,0.033c-0.041,0.024-0.062,0.043-0.09,0.065
		c-0.014,0.011-0.026,0.022-0.039,0.034l-0.029,0.029c-0.018,0.02-0.039,0.042-0.053,0.06c-0.028,0.034-0.058,0.072-0.075,0.102
		l-0.031,0.048l-0.024,0.043c-0.017,0.03-0.029,0.056-0.043,0.083c-0.014,0.028-0.024,0.052-0.035,0.078
		c-0.085,0.199-0.133,0.371-0.178,0.543c-0.086,0.341-0.145,0.67-0.198,1c-0.053,0.329-0.097,0.657-0.138,0.984
		c-0.161,1.308-0.274,2.605-0.41,3.815c-0.168,1.729-0.263,3.375-0.35,4.976c-0.079,1.448-0.15,2.861-0.251,4.27
		c-0.05,0-0.101,0-0.15,0C49.019,31.972,49.197,29.236,49.407,26.469z M25.88,55.235c-0.072-0.102-0.15-0.206-0.237-0.307
		c-0.202-0.236-0.441-0.458-0.685-0.646c-0.244-0.189-0.493-0.345-0.706-0.472c-0.205-0.129-0.425-0.239-0.654-0.332
		c2.091,0,4.183,0.001,6.276,0.001c1.348,0,2.698,0.001,4.048,0.002c0.044,0.585,0.117,1.17,0.218,1.748
		C31.381,55.231,28.627,55.233,25.88,55.235z M18.444,55.47c-0.003,0-0.007,0-0.01,0c0.035-0.05,0.07-0.1,0.107-0.148
		c0.005,0,0.01,0,0.015,0C18.518,55.37,18.481,55.42,18.444,55.47z M24.89,54.706c-0.531-0.506-1.209-0.866-1.937-1.029
		c-0.229-0.049-0.461-0.076-0.693-0.086s-0.466-0.004-0.697,0.024c-0.463,0.056-0.918,0.184-1.34,0.382
		c-0.619,0.285-1.165,0.715-1.6,1.243c-0.006,0-0.012,0-0.018,0c0.141-0.177,0.294-0.344,0.46-0.497
		c0.349-0.321,0.744-0.589,1.171-0.782c0.214-0.097,0.435-0.176,0.659-0.238c0.226-0.061,0.455-0.103,0.685-0.127
		c0.231-0.024,0.462-0.029,0.692-0.015c0.229,0.015,0.458,0.044,0.682,0.096c0.731,0.152,1.425,0.5,1.979,1.007
		c0.185,0.168,0.355,0.354,0.507,0.553c-0.025,0-0.051,0-0.077,0C25.22,55.048,25.062,54.869,24.89,54.706z M33.966,51.656
		c0.055,0.001,0.11,0.001,0.166,0.002c0,0.008,0,0.017,0,0.024c-0.056-0.001-0.11-0.001-0.166-0.001l0.001-0.023V51.656z
		 M34.134,52.988l0.002,0.06c0,0.003,0,0.006,0,0.008c-0.055,0-0.109,0-0.163,0l-0.002-0.067
		C34.025,52.988,34.08,52.988,34.134,52.988z M34.154,53.33c0.002,0.037,0.004,0.074,0.007,0.11c-0.054,0-0.107,0-0.161,0
		l-0.008-0.111C34.045,53.33,34.1,53.33,34.154,53.33z M33.92,53.44c-3.505-0.01-6.998-0.018-10.489-0.024
		c-0.041-0.014-0.082-0.027-0.123-0.041c-0.115-0.036-0.232-0.067-0.351-0.095c0.071,0.001,0.142,0.001,0.212,0.001
		c3.576,0.017,7.153,0.034,10.742,0.048C33.916,53.366,33.917,53.404,33.92,53.44z M18.173,55.24
		c-2.449,0.003-4.894,0.005-7.337,0.006h-0.408h-0.103h-0.05l-0.016-0.001c-0.021-0.004-0.043,0.001-0.063-0.006
		c-0.082-0.014-0.165-0.047-0.248-0.108c-0.082-0.062-0.16-0.153-0.219-0.263c-0.06-0.109-0.101-0.236-0.117-0.372
		c-0.032-0.274,0.041-0.557,0.187-0.745c0.072-0.095,0.157-0.164,0.239-0.208c0.02-0.015,0.042-0.017,0.062-0.028
		c0.01-0.006,0.021-0.006,0.031-0.009c0.01-0.003,0.021-0.006,0.031-0.011c0.021-0.001,0.042-0.007,0.062-0.01
		c0.011,0,0.021,0,0.032-0.001l0.016-0.002c0-0.001,0.009-0.001,0.018-0.001h0.025c2.173-0.001,4.346-0.001,6.518-0.002
		c1.181,0,2.363,0,3.544,0c-0.086,0.032-0.172,0.068-0.256,0.107c-0.335,0.155-0.653,0.35-0.944,0.577
		c-0.291,0.229-0.554,0.491-0.785,0.779C18.316,55.039,18.243,55.14,18.173,55.24z M34.149,54.848
		c-0.051-0.423-0.117-0.845-0.14-1.271l-0.007-0.094c0.054,0,0.108,0,0.162,0.001c0.005,0.069,0.01,0.139,0.015,0.208
		c0.009,0.106,0.013,0.214,0.026,0.32l0.039,0.319l0.04,0.32l0.02,0.159c0.008,0.053,0.018,0.105,0.026,0.159l0.045,0.261
		c-0.053,0-0.106,0-0.16,0C34.192,55.103,34.169,54.976,34.149,54.848z M34.621,55.23c-0.04-0.229-0.074-0.456-0.104-0.685
		c0.03,0.228,0.067,0.455,0.109,0.685C34.625,55.23,34.623,55.23,34.621,55.23z M33.998,51.018c0.018-0.212,0.03-0.426,0.052-0.639
		c0.027-0.213,0.054-0.426,0.082-0.638l0.02-0.159l0.028-0.158l0.056-0.317l0.057-0.317c0.018-0.106,0.046-0.21,0.069-0.315
		c0.049-0.209,0.094-0.419,0.146-0.628c0.059-0.207,0.118-0.415,0.177-0.622l0.044-0.155c0.016-0.052,0.034-0.103,0.051-0.154
		l0.103-0.306l0.104-0.307c0.035-0.102,0.078-0.202,0.116-0.303c0.081-0.201,0.155-0.403,0.241-0.603
		c0.089-0.197,0.178-0.395,0.267-0.593c0.374-0.782,0.8-1.542,1.283-2.27c0.49-0.722,1.032-1.413,1.623-2.065
		c-0.013,0.024-0.033,0.058-0.05,0.09s-0.031,0.062-0.032,0.078c-0.002,0.032,0.04,0,0.226-0.172
		c-0.592,0.664-1.136,1.363-1.623,2.096c-0.481,0.737-0.909,1.504-1.281,2.294c-0.088,0.2-0.177,0.399-0.266,0.598
		c-0.022,0.05-0.043,0.1-0.062,0.151l-0.059,0.152l-0.118,0.305c-0.038,0.102-0.081,0.202-0.115,0.305l-0.103,0.309
		c-0.067,0.207-0.143,0.411-0.197,0.621c-0.058,0.209-0.117,0.417-0.175,0.626c-0.048,0.211-0.097,0.422-0.145,0.632
		c-0.053,0.21-0.084,0.424-0.123,0.637c-0.038,0.213-0.079,0.425-0.102,0.639c-0.027,0.214-0.054,0.427-0.081,0.642
		c-0.017,0.216-0.033,0.43-0.05,0.645c-0.006,0.058-0.01,0.117-0.013,0.176c-0.056-0.001-0.111-0.001-0.167-0.001
		C33.983,51.2,33.991,51.109,33.998,51.018z M33.882,51.656c0,0.008,0,0.016-0.001,0.025c-3.693-0.029-7.361-0.063-10.999-0.105
		C26.549,51.605,30.215,51.633,33.882,51.656z M33.893,52.988c0.001,0.022,0.003,0.045,0.004,0.067
		C27.1,53.039,20.328,53.023,13.645,53C20.064,53,27.03,52.98,33.893,52.988z M12.481,55.493c-0.707,0.001-1.413,0.003-2.118,0.004
		c-0.11,0.002-0.123-0.006-0.17-0.005c-0.04-0.011-0.081-0.01-0.12-0.025c-0.041-0.008-0.079-0.028-0.119-0.042l-0.057-0.03
		c-0.02-0.009-0.038-0.022-0.056-0.036c-0.039-0.021-0.072-0.055-0.109-0.083C9.715,55.26,9.7,55.24,9.683,55.225
		c-0.008-0.009-0.018-0.017-0.026-0.025l-0.023-0.028c-0.064-0.074-0.115-0.164-0.16-0.256c-0.01-0.023-0.02-0.048-0.031-0.071
		c-0.009-0.024-0.016-0.05-0.024-0.074l-0.013-0.038C9.402,54.72,9.4,54.706,9.397,54.692c-0.005-0.026-0.012-0.051-0.019-0.077
		l-0.011-0.079l-0.005-0.04c-0.002-0.015-0.001-0.027-0.002-0.042c-0.001-0.026-0.002-0.054-0.004-0.08
		c0-0.028,0.003-0.056,0.004-0.082c0.007-0.218,0.077-0.423,0.179-0.598c0.055-0.084,0.116-0.161,0.184-0.227
		c0.071-0.062,0.144-0.115,0.221-0.152c0.078-0.034,0.155-0.062,0.236-0.07c0.02-0.005,0.041-0.002,0.061-0.005l0.031-0.001
		c0.002-0.001,0.015-0.001,0.026-0.001h0.032l0.263,0.001c1.402,0.002,2.801,0.007,4.199,0.01c2.097,0.008,4.189,0.017,6.28,0.024
		c-0.171,0.036-0.34,0.082-0.506,0.139c-2.002-0.002-4.006-0.005-6.013-0.008c-1.376,0-2.754,0-4.134-0.001H10.29
		c-0.004,0-0.013,0-0.014,0l-0.006,0.001h-0.012c-0.008,0.001-0.016,0.001-0.024,0.002c-0.007,0-0.015,0-0.023,0l-0.022,0.005
		c-0.015,0.004-0.031,0.004-0.046,0.007c-0.06,0.016-0.12,0.043-0.181,0.075c-0.059,0.04-0.118,0.086-0.172,0.144
		c-0.014,0.015-0.025,0.033-0.039,0.047l-0.02,0.024c-0.006,0.009-0.012,0.018-0.017,0.026c-0.012,0.017-0.024,0.035-0.036,0.052
		c-0.009,0.021-0.02,0.039-0.03,0.058c-0.011,0.018-0.02,0.038-0.028,0.059c-0.007,0.021-0.019,0.04-0.026,0.061
		c-0.011,0.044-0.031,0.085-0.038,0.131c-0.025,0.087-0.028,0.182-0.033,0.274c0.002,0.024,0.003,0.047,0.004,0.071l0,0.035
		c0.002,0.012,0.004,0.022,0.006,0.034c0.003,0.022,0.006,0.046,0.008,0.068c0.004,0.022,0.011,0.045,0.016,0.067
		c0.006,0.046,0.027,0.086,0.038,0.13l0.027,0.061l0.012,0.03l0.017,0.028l0.03,0.058c0.013,0.017,0.024,0.034,0.036,0.051
		c0.01,0.019,0.025,0.034,0.038,0.05c0.014,0.016,0.023,0.035,0.039,0.046c0.053,0.061,0.114,0.104,0.172,0.143
		c0.061,0.036,0.122,0.058,0.182,0.075c0.032,0.001,0.061,0.013,0.093,0.012c0.008,0,0.016,0.001,0.024,0.001l0.012,0.001h0.032
		h0.13c0.694,0,1.389-0.001,2.085-0.001c1.392,0,2.787-0.001,4.187-0.003c0.469-0.001,0.939-0.002,1.409-0.003
		c-0.032,0.05-0.063,0.1-0.094,0.149c-0.43,0.002-0.861,0.006-1.29,0.007C15.313,55.484,13.895,55.489,12.481,55.493z M65.44,62.017
		l-0.213,0.292c-0.073,0.096-0.142,0.195-0.22,0.287c-0.152,0.187-0.305,0.374-0.456,0.562c-0.162,0.182-0.323,0.36-0.484,0.542
		l-0.062,0.067l-0.062,0.063l-0.128,0.131l-0.253,0.259c-0.689,0.682-1.436,1.309-2.231,1.872c-1.586,1.131-3.384,1.982-5.274,2.516
		c-0.471,0.139-0.952,0.243-1.434,0.34c-0.243,0.042-0.485,0.083-0.729,0.125c-0.244,0.029-0.489,0.059-0.732,0.088
		c-0.98,0.098-1.969,0.114-2.953,0.049l-0.369-0.03l-0.184-0.015c-0.062-0.005-0.124-0.01-0.185-0.019l-0.734-0.098
		c-0.244-0.04-0.486-0.088-0.729-0.132c-0.061-0.012-0.122-0.021-0.182-0.035l-0.18-0.042l-0.361-0.085
		c-0.959-0.237-1.897-0.557-2.802-0.954c-1.812-0.792-3.469-1.919-4.891-3.277c-2.026-1.921-3.536-4.352-4.394-6.972
		c0.008,0,0.016,0,0.023,0c0.039,0.111,0.076,0.223,0.114,0.336l0.052,0.15l0.059,0.147c0.04,0.099,0.078,0.199,0.118,0.298
		c0.04,0.1,0.079,0.198,0.119,0.298c0.043,0.098,0.087,0.195,0.132,0.294c0.044,0.097,0.089,0.195,0.133,0.293
		c0.044,0.097,0.088,0.195,0.14,0.29c0.098,0.191,0.196,0.384,0.295,0.576c0.213,0.375,0.424,0.755,0.666,1.115
		c0.472,0.729,0.993,1.432,1.577,2.079c0.58,0.65,1.206,1.261,1.872,1.817c0.671,0.553,1.377,1.055,2.11,1.502
		c1.47,0.888,3.045,1.542,4.627,1.953c1.131,0.288,2.28,0.455,3.42,0.505c1.141,0.05,2.273-0.014,3.38-0.188
		c2.213-0.346,4.312-1.133,6.164-2.261c1.854-1.128,3.47-2.59,4.762-4.284c1.141-1.491,2.032-3.161,2.642-4.933
		c0.056,0,0.109,0,0.164,0C67.22,59.126,66.429,60.637,65.44,62.017z M68.206,55.209c0.004-0.059,0.01-0.118,0.014-0.176
		c0.006-0.071,0.011-0.142,0.017-0.212c0.001-0.07,0.002-0.139,0.004-0.207c0.003-0.135,0.006-0.268,0.009-0.396
		c0.001-0.128,0.008-0.251,0.001-0.372c-0.006-0.098-0.013-0.193-0.019-0.287c3.529,0.015,7.074,0.031,10.64,0.05
		c-0.318,0.151-0.62,0.339-0.897,0.555c-0.291,0.229-0.553,0.491-0.785,0.779c-0.102,0.127-0.197,0.26-0.285,0.396
		c-2.312-0.031-4.624-0.074-6.935-0.131C69.497,55.209,68.879,55.209,68.206,55.209z M80.346,53.618
		c-0.46,0.055-0.91,0.182-1.328,0.378c-0.659,0.305-1.236,0.772-1.684,1.35c-0.006,0-0.01,0-0.015,0
		c0.162-0.218,0.343-0.42,0.539-0.603c0.349-0.321,0.744-0.589,1.172-0.782c0.214-0.097,0.435-0.176,0.66-0.238
		c0.169-0.046,0.342-0.081,0.514-0.105C80.253,53.617,80.3,53.617,80.346,53.618z M84.855,56.387
		c-0.033-0.002-0.066-0.002-0.101-0.003c-0.032-0.102-0.07-0.201-0.112-0.3c0.032,0,0.063,0,0.094,0
		C84.78,56.184,84.819,56.284,84.855,56.387z M83.726,54.684c0.238,0.214,0.449,0.457,0.63,0.721
		c-0.026-0.001-0.054-0.001-0.08-0.001c-0.169-0.253-0.368-0.487-0.591-0.697c-0.53-0.505-1.208-0.866-1.937-1.029
		c-0.104-0.022-0.208-0.039-0.313-0.053c0.012,0,0.022,0,0.034,0c0.093,0.015,0.187,0.031,0.279,0.053
		C82.48,53.829,83.175,54.177,83.726,54.684z"/>
	<path fill="#FFFFFF" d="M51.792,46.011c0.008,0.359,0.015,0.714,0.019,1.067c0.002,0.177,0.003,0.353,0.005,0.529
		c0.001,0.262,0.002,0.523,0.003,0.784c0.394,0,0.785,0.001,1.176,0.001c0.306,0.001,0.612,0.003,0.916,0.005
		c0.61,0.006,1.218,0.012,1.827,0.017c0.61,0.006,1.221,0.011,1.838,0.012c0.309,0,0.618-0.001,0.929-0.002
		c0.423-0.002,0.849-0.006,1.278-0.008c0.018,0.015,0.053,0.045,0.071,0.06c0.024,0,0.047,0,0.072,0
		c-0.107-0.416-0.215-0.833-0.321-1.251c-0.069-0.274-0.139-0.549-0.208-0.825c-0.139-0.552-0.276-1.106-0.416-1.665
		c-0.121-0.468-0.255-0.862-0.378-1.189c0.169,0.734,0.346,1.482,0.528,2.238c0.093,0.378,0.187,0.759,0.279,1.141
		c0.048,0.191,0.095,0.382,0.143,0.574c0.073,0.286,0.146,0.572,0.218,0.858c-2.134-0.013-4.301-0.026-6.407-0.039
		c1.51,0,3.234-0.016,4.745,0.016c0.232,0.002,0.464,0.006,0.692,0.008c0.323,0.002,0.644,0.004,0.959,0.006
		c-0.225-0.881-0.441-1.733-0.655-2.571c-0.189-0.75-0.373-1.487-0.549-2.228c-0.023-0.102-0.047-0.206-0.07-0.309
		c-0.053-0.127-0.1-0.243-0.144-0.346c-0.153-0.336-0.29-0.519-0.241-0.05l-0.068-0.26h-1.178c-0.137-0.009-0.284-0.017-0.439-0.024
		c0-0.015,0-0.045,0-0.061c1.725,0.03,0.863-0.122,1.078-0.199c-0.863,0-1.726-0.015-2.588-0.061c-0.216,0-0.647,0-0.862,0
		c-0.776,0-1.546,0-2.312,0.001c0.004,2.103,0.008,4.167,0.011,6.222c1.315,0,2.626-0.001,3.941-0.001
		c1.3,0.004,2.604,0.007,3.92,0.012c-1.334-0.009-2.635-0.019-3.928-0.027c-0.6-0.002-1.197-0.005-1.796-0.007
		c-0.702,0-1.405-0.001-2.112-0.001c-0.003-0.792-0.004-1.594-0.007-2.407C51.771,46.058,51.784,46.126,51.792,46.011z"/>
	<path fill="#FFFFFF" d="M63.992,48.467c-0.103-0.398-0.206-0.797-0.309-1.197c-0.066-0.26-0.132-0.521-0.198-0.783
		c0.065,0.265,0.13,0.527,0.193,0.787c0.103,0.397,0.201,0.791,0.3,1.183c-0.63-0.004-1.256-0.008-1.883-0.011
		c-0.566-0.001-1.132-0.003-1.701-0.005c-0.098-0.395-0.196-0.792-0.294-1.191c-0.081-0.321-0.163-0.645-0.244-0.971
		c0.014,0.014,0.036,0.057,0.025-0.022c0.092,0.327,0.18,0.651,0.262,0.974c0.042,0.162,0.082,0.322,0.123,0.483
		c0.056,0.227,0.111,0.452,0.167,0.678c0.188,0.001,0.379,0.002,0.568,0.002c0.121,0.001,0.243,0.002,0.365,0.003
		c0.243,0.003,0.486,0.007,0.729,0.01c0.244,0.002,0.486,0.006,0.729,0.01c0.152,0.001,0.305,0.003,0.457,0.004
		c0.219,0.001,0.436,0.003,0.654,0.003c-0.103-0.393-0.204-0.787-0.308-1.184c-0.073-0.274-0.147-0.549-0.226-0.826
		c0.015-0.004,0.044-0.011,0.059-0.016c-0.194-0.771-0.387-1.549-0.578-2.339c-0.086-0.327-0.188-0.6-0.283-0.826
		c0.168,0.781,0.354,1.583,0.55,2.395c0.1,0.405,0.2,0.813,0.301,1.223c0.052,0.205,0.103,0.409,0.153,0.614l0.224,0.876
		c-0.517-0.003-1.033-0.006-1.547-0.009c-0.425-0.004-0.848-0.008-1.268-0.012c0.403-0.001,0.828-0.002,1.258-0.003
		c0.214,0,0.431,0,0.646,0c0.296,0.001,0.592,0.002,0.884,0.004c-0.048-0.191-0.095-0.379-0.143-0.566
		c-0.019-0.078-0.037-0.157-0.057-0.234c-0.014-0.062-0.028-0.123-0.042-0.184c-0.352-1.466-0.709-2.773-1.007-4.097
		c-0.015-0.072-0.03-0.145-0.046-0.217c-0.042-0.088-0.08-0.167-0.114-0.238c-0.127-0.23-0.247-0.35-0.234-0.018l-0.047-0.182
		h-0.822c-0.097-0.009-0.199-0.017-0.308-0.024c0-0.015,0-0.045,0-0.061c1.205,0.03,0.602-0.122,0.752-0.199
		c-0.602,0-1.204-0.015-1.808-0.061c-0.247,0-0.741,0-0.989,0c-0.036,0-0.072,0-0.108,0c0.527,2.123,1.038,4.177,1.546,6.222
		C61.58,48.465,62.782,48.466,63.992,48.467z"/>
	<path fill="#FFFFFF" d="M49.002,48.49c0.257,0.004,0.515,0.007,0.771,0.011l0.387,0.004l0.76,0.002l0.001-1.281l-0.004-0.908
		c-0.005-0.606-0.009-1.211-0.014-1.817c-0.003-0.314-0.005-0.631-0.008-0.952c0-0.436-0.001-0.873-0.001-1.311
		c-1.011-0.002-2.019-0.005-2.977-0.007c-0.845,0-1.646,0.006-2.36,0.028c-1.57,0.056-1.176,0.238,0.207,0.327h-1.178l-0.068,0.26
		c-0.034,0.079-0.072,0.18-0.117,0.306c-0.055,0.208-0.164,0.625-0.164,0.625c-0.051,0.075-0.07,0.02-0.087-0.038
		c-0.373,1.371-0.745,2.742-1.117,4.112c-0.041,0.153-0.081,0.306-0.121,0.457c0.485,0.003,0.969,0.006,1.45,0.009
		c0.406,0.004,0.81,0.008,1.212,0.013c0.804,0.01,1.601,0.024,2.387,0.043c-0.803-0.012-1.607-0.024-2.411-0.036l-1.206-0.014
		l-1.435-0.013l0.123-0.458c0.364-1.376,0.731-2.767,1.1-4.163c-0.023-0.055-0.058-0.051-0.157,0.243
		c-0.153,0.406-0.49,1.879-0.723,2.71c-0.066,0.232-0.133,0.466-0.2,0.702c-0.017,0.059-0.034,0.118-0.05,0.177
		c-0.024,0.087-0.048,0.175-0.072,0.263c-0.058,0.214-0.116,0.428-0.174,0.644c1.099,0.01,2.219,0.02,3.333,0.029
		C47.078,48.464,48.058,48.472,49.002,48.49z"/>
	<path fill="#FFFFFF" d="M40.008,43.507c-0.12,0.28-0.342,1.312-0.509,1.892c-0.128,0.427-0.254,0.865-0.378,1.31
		c-0.062,0.223-0.124,0.445-0.185,0.67c-0.097,0.357-0.192,0.715-0.289,1.073c0.338,0.002,0.677,0.005,1.014,0.007
		c0.199,0.003,0.398,0.005,0.596,0.008c0.396,0.006,0.787,0.013,1.17,0.023l0.293,0.006l0.554,0.005
		c0.086-0.341,0.172-0.681,0.258-1.021l0.181-0.742c0.117-0.496,0.233-0.993,0.35-1.489c0.097-0.425,0.202-0.859,0.31-1.292
		c0.145-0.581,0.29-1.161,0.431-1.725c-0.348,0-0.692-0.001-1.03-0.001c-0.189,0-0.375,0.002-0.558,0.002
		c-0.363,0.004-0.709,0.011-1.03,0.025c-1.096,0.056-0.821,0.238,0.145,0.327h-0.823l-0.047,0.182
		c-0.027,0.054-0.058,0.124-0.093,0.211c-0.038,0.145-0.114,0.437-0.114,0.437c-0.044,0.05-0.067,0.009-0.088-0.034
		c-0.26,0.939-0.52,1.879-0.78,2.818c-0.195,0.716-0.388,1.427-0.58,2.13c0.21,0.002,0.42,0.005,0.629,0.008
		c0.082,0.002,0.164,0.004,0.245,0.005l0.206,0.005c0.273,0.008,0.545,0.017,0.815,0.025c-0.274-0.006-0.547-0.013-0.82-0.019
		l-0.453-0.009l-0.633-0.008l0.198-0.727l0.131-0.47l0.261-0.941c0.251-0.944,0.504-1.898,0.759-2.855
		C40.119,43.303,40.084,43.303,40.008,43.507z"/>
</g>
</svg>
