<?xml version="1.0" encoding="utf-8"?>
<!-- Generator: Adobe Illustrator 19.0.0, SVG Export Plug-In . SVG Version: 6.00 Build 0)  -->
<svg version="1.1" id="Layer_1" xmlns="http://www.w3.org/2000/svg" xmlns:xlink="http://www.w3.org/1999/xlink" x="0px" y="0px"
	 viewBox="-345 257 100 100" style="enable-background:new -345 257 100 100;" xml:space="preserve">
<style type="text/css">
	.st0{fill:#E8E8E8;}
	.st1{fill:#FFFFFF;}
	.st2{clip-path:url(#SVGID_2_);fill:#969696;}
	.st3{clip-path:url(#SVGID_4_);fill:#AFAFAF;}
	.st4{fill:#C6C6C6;}
	.st5{fill:#D3D3D3;}
	.st6{fill:none;stroke:#FFFFFF;stroke-miterlimit:10;}
	.st7{clip-path:url(#SVGID_6_);fill:#E8E8E8;}
	.st8{fill:#C1BFBF;}
	.st9{fill:#FFFFFF;stroke:#C1BFBF;stroke-width:0.7;stroke-linecap:round;stroke-linejoin:round;stroke-miterlimit:10;}
	.st10{fill:#FFFFFF;stroke:#C1BFBF;stroke-width:0.7088;stroke-linecap:round;stroke-linejoin:round;stroke-miterlimit:10;}
	.st11{fill:#FFFFFF;stroke:#C1BFBF;stroke-width:0.7176;stroke-linecap:round;stroke-linejoin:round;stroke-miterlimit:10;}
	.st12{fill:#FFFFFF;stroke:#C1BFBF;stroke-width:0.7265;stroke-linecap:round;stroke-linejoin:round;stroke-miterlimit:10;}
	.st13{fill:#FFFFFF;stroke:#C1BFBF;stroke-width:0.7353;stroke-linecap:round;stroke-linejoin:round;stroke-miterlimit:10;}
	.st14{fill:#FFFFFF;stroke:#C1BFBF;stroke-width:0.7441;stroke-linecap:round;stroke-linejoin:round;stroke-miterlimit:10;}
	.st15{fill:#FFFFFF;stroke:#C1BFBF;stroke-width:0.7529;stroke-linecap:round;stroke-linejoin:round;stroke-miterlimit:10;}
	.st16{fill:#FFFFFF;stroke:#C1BFBF;stroke-width:0.7618;stroke-linecap:round;stroke-linejoin:round;stroke-miterlimit:10;}
	.st17{fill:#FFFFFF;stroke:#C1BFBF;stroke-width:0.7706;stroke-linecap:round;stroke-linejoin:round;stroke-miterlimit:10;}
	.st18{fill:#FFFFFF;stroke:#C1BFBF;stroke-width:0.7794;stroke-linecap:round;stroke-linejoin:round;stroke-miterlimit:10;}
	.st19{fill:#FFFFFF;stroke:#C1BFBF;stroke-width:0.7882;stroke-linecap:round;stroke-linejoin:round;stroke-miterlimit:10;}
	.st20{fill:#FFFFFF;stroke:#C1BFBF;stroke-width:0.7971;stroke-linecap:round;stroke-linejoin:round;stroke-miterlimit:10;}
	.st21{fill:#FFFFFF;stroke:#C1BFBF;stroke-width:0.8059;stroke-linecap:round;stroke-linejoin:round;stroke-miterlimit:10;}
	.st22{fill:#FFFFFF;stroke:#C1BFBF;stroke-width:0.8147;stroke-linecap:round;stroke-linejoin:round;stroke-miterlimit:10;}
	.st23{fill:#FFFFFF;stroke:#C1BFBF;stroke-width:0.8235;stroke-linecap:round;stroke-linejoin:round;stroke-miterlimit:10;}
	.st24{fill:#FFFFFF;stroke:#C1BFBF;stroke-width:0.8324;stroke-linecap:round;stroke-linejoin:round;stroke-miterlimit:10;}
	.st25{fill:#FFFFFF;stroke:#C1BFBF;stroke-width:0.8412;stroke-linecap:round;stroke-linejoin:round;stroke-miterlimit:10;}
	.st26{fill:#FFFFFF;stroke:#C1BFBF;stroke-width:0.85;stroke-linecap:round;stroke-linejoin:round;stroke-miterlimit:10;}
	.st27{fill:#FFFFFF;stroke:#C1BFBF;stroke-width:0.8588;stroke-linecap:round;stroke-linejoin:round;stroke-miterlimit:10;}
	.st28{fill:#FFFFFF;stroke:#C1BFBF;stroke-width:0.8676;stroke-linecap:round;stroke-linejoin:round;stroke-miterlimit:10;}
	.st29{fill:#FFFFFF;stroke:#C1BFBF;stroke-width:0.8765;stroke-linecap:round;stroke-linejoin:round;stroke-miterlimit:10;}
	.st30{fill:#FFFFFF;stroke:#C1BFBF;stroke-width:0.8853;stroke-linecap:round;stroke-linejoin:round;stroke-miterlimit:10;}
	.st31{fill:#FFFFFF;stroke:#C1BFBF;stroke-width:0.8941;stroke-linecap:round;stroke-linejoin:round;stroke-miterlimit:10;}
	.st32{fill:#FFFFFF;stroke:#C1BFBF;stroke-width:0.9029;stroke-linecap:round;stroke-linejoin:round;stroke-miterlimit:10;}
	.st33{fill:#FFFFFF;stroke:#C1BFBF;stroke-width:0.9118;stroke-linecap:round;stroke-linejoin:round;stroke-miterlimit:10;}
	.st34{fill:#FFFFFF;stroke:#C1BFBF;stroke-width:0.9206;stroke-linecap:round;stroke-linejoin:round;stroke-miterlimit:10;}
	.st35{fill:#FFFFFF;stroke:#C1BFBF;stroke-width:0.9294;stroke-linecap:round;stroke-linejoin:round;stroke-miterlimit:10;}
	.st36{fill:#FFFFFF;stroke:#C1BFBF;stroke-width:0.9382;stroke-linecap:round;stroke-linejoin:round;stroke-miterlimit:10;}
	.st37{fill:#FFFFFF;stroke:#C1BFBF;stroke-width:0.9471;stroke-linecap:round;stroke-linejoin:round;stroke-miterlimit:10;}
	.st38{fill:#FFFFFF;stroke:#C1BFBF;stroke-width:0.9559;stroke-linecap:round;stroke-linejoin:round;stroke-miterlimit:10;}
	.st39{fill:#FFFFFF;stroke:#C1BFBF;stroke-width:0.9647;stroke-linecap:round;stroke-linejoin:round;stroke-miterlimit:10;}
	.st40{fill:#FFFFFF;stroke:#C1BFBF;stroke-width:0.9735;stroke-linecap:round;stroke-linejoin:round;stroke-miterlimit:10;}
	.st41{fill:#FFFFFF;stroke:#C1BFBF;stroke-width:0.9824;stroke-linecap:round;stroke-linejoin:round;stroke-miterlimit:10;}
	.st42{fill:#FFFFFF;stroke:#C1BFBF;stroke-width:0.9912;stroke-linecap:round;stroke-linejoin:round;stroke-miterlimit:10;}
	.st43{fill:#FFFFFF;stroke:#C1BFBF;stroke-linecap:round;stroke-linejoin:round;stroke-miterlimit:10;}
	.st44{clip-path:url(#SVGID_8_);fill:#AFAFAF;}
	.st45{clip-path:url(#SVGID_10_);fill:#D3D3D3;}
</style>
<g>
	<path class="st0" d="M-264,311.2c0.4,0.2,1.8,1.2,2.3,1.4c0.5,0.2,1.7,0.4,2.2-0.7c0.5-0.9,0.5-2-0.4-2.3c-0.7-0.3-1-0.6-1.5-0.9
		c-0.5-0.3-1.7-0.9-1.7-0.9l-2.7-0.2c0,0,0,0.4,0.3,0.8c0.3,0.4,0.4,0.5,0.4,0.5c-0.2,0.1-0.3,0.5-0.2,0.7c0.1,0.3,0.7,0.8,0.7,0.8
		S-264.4,310.9-264,311.2z"/>
	<path class="st1" d="M-262,309.1c0.3,0.1,0.5,0.2,0.7,0.2c0.2-0.1,0.3-0.2,0.4-0.3c0.1-0.1-0.3-0.4-0.6-0.6
		c-0.4-0.2-1.2-0.6-1.2-0.6l-3.2-0.2c0,0,0.5,1.2,0.8,1.2s1,0,1.1,0c0.1-0.1,0.2-0.1,0.4-0.1C-263.3,308.7-262.3,308.9-262,309.1z"
		/>
	<g>
		<g>
			<defs>
				<path id="SVGID_1_" d="M-261.5,311.2c0,0.7,0.2,1.1,0.9,1.1c0.5,0,1.2-0.9,1.2-1.5c0-0.7-0.4-1-0.9-1
					C-260.7,309.8-261.5,310.4-261.5,311.2z"/>
			</defs>
			<clipPath id="SVGID_2_">
				<use xlink:href="#SVGID_1_"  style="overflow:visible;"/>
			</clipPath>
			<polygon class="st2" points="-260.1,309.1 -261.5,312.4 -261.4,313.3 -258.9,312.9 -258.7,310.6 			"/>
		</g>
		<g>
			<defs>
				<path id="SVGID_3_" d="M-261.5,311.2c0,0.7,0.2,1.1,0.9,1.1c0.5,0,1.2-0.9,1.2-1.5c0-0.7-0.4-1-0.9-1
					C-260.7,309.8-261.5,310.4-261.5,311.2z"/>
			</defs>
			<clipPath id="SVGID_4_">
				<use xlink:href="#SVGID_3_"  style="overflow:visible;"/>
			</clipPath>
			<path class="st3" d="M-260,311.3c-0.3,0.6-1,1.1-2.3,1c-1.4-0.1-0.2-3.2-0.2-3.2l1.8-0.2C-260.6,308.9-259.4,310.1-260,311.3z"/>
		</g>
	</g>
</g>
<path class="st4" d="M-248.6,296.9c0.6,0.6,2.6,2.6,2.6,3c0,0.4-0.8,0.5-0.8,0.5l-1.9-1.1c0,0,0.4-0.5,0-1.4S-249.4,296-248.6,296.9
	z"/>
<path class="st5" d="M-261.9,311.1c0,0,13.9-8.7,15-9.8c1.2-1.1,1.4-1.6,0.2-2c-1.2-0.5-1.6-0.5-1.6-0.5s-8.1,3.7-8.3,3.9
	c-0.2,0.1-1,0.3-1.6,0.3s-1.3,0-1.3,0.4c0,0.3,0.5,0.3,0.5,0.3s-4.6,2.2-5,2.5c-0.4,0.2-1.4,0.3-1.7,0.3c-0.4,0-0.8,0.1-0.8,0.4
	c0,0.3,0.3,0.3,0.3,0.3l-2.1,1.1L-261.9,311.1z"/>
<path class="st5" d="M-302.1,296.2c0,0,3.9-3.2,4.4-3.5c0.5-0.3,1.2-0.9,0-1.3c-1.2-0.4-1.6-0.4-2.5,0c-1,0.4-8.6,3.8-8.6,3.8
	L-302.1,296.2z"/>
<path class="st1" d="M-317,294.9c0.6,0.8,7.6,7.9,8.8,8.8c1.3,1,4.5,4.1,8.7,6c4.2,1.9,5.2,2.2,5.5,2.6c0.4,0.3,0.7,1.7,2.7,2.8
	c2,1.1,10.1,4.2,11.3,4.6s3.5,0.6,4.5,0.5c1.1-0.1,1.6-0.2,2.1,0c0.5,0.2,15.1,6.1,16.9,6.4c3.6,0.5,7.3-0.1,8.5-1.4
	c1.2-1.3,0.7-3,0-4.3c-0.7-1.3-2.3-4.8-3-5.6c-1.3-1.8-3.9-3-9.1-5c-5.2-1.9-36.3-13.6-41.2-14.8c-5-1.2-13.3-3.3-14.6-3.4
	s-1.7,0.4-1.7,0.9C-317.6,293.7-317.4,294.3-317,294.9z"/>
<path class="st0" d="M-312.5,296.7c1.2,0.9,1.7,1.5,1.7,1.7c0,0.3-0.4,0.3-0.6,0.3s-16.4-1.7-17.1-1.7s-1.1-0.2-1.7-0.5
	c-0.6-0.3-1.6-0.7-0.3-0.7c1.3,0,14.8,0.3,15.5,0.3C-313.8,296.1-313.2,296.1-312.5,296.7z"/>
<path class="st0" d="M-309.2,294.3c3.5,1,6.9,1.7,7,1.5c0.1-0.2-1.7-1.8-2.5-3.8c-0.9-1.9-6.5-15.9-6.8-16.8
	c-0.3-0.9-0.4-1.5-1.7-1.7s-2.3-1-2.1,0.4c0.2,1.5,2,19.1,2.3,19.4C-312.7,293.5-311.7,293.7-309.2,294.3z"/>
<path class="st5" d="M-250.5,316.2c0,0-0.7,1.2-1.6,1.3c-0.9,0.1-4.9-0.1-5.8-0.3c-1-0.2-1.3-0.4-1.6,0c-0.3,0.4-0.5,0.9-0.5,1.2
	c0,0.3,0,0.5,0.5,0.6c0.5,0.1,3,0.6,5.4,0.5c2.4-0.1,3.4-0.2,4-0.7c0.6-0.5,0.4-1,0.4-1L-250.5,316.2z"/>
<line class="st6" x1="-252.3" y1="317.1" x2="-251.2" y2="319.7"/>
<line class="st6" x1="-255.6" y1="317.1" x2="-255.4" y2="319.8"/>
<path class="st6" d="M-257.7,316.7c0,0-0.3,2.1-0.8,3"/>
<g>
	<g>
		<defs>
			<path id="SVGID_5_" d="M-317,294.9c0.6,0.8,7.6,7.9,8.8,8.8c1.3,1,4.5,4.1,8.7,6c4.2,1.9,5.2,2.2,5.5,2.6
				c0.4,0.3,0.7,1.7,2.7,2.8c2,1.1,10.1,4.2,11.3,4.6s3.5,0.6,4.5,0.5c1.1-0.1,1.6-0.2,2.1,0c0.5,0.2,15.1,6.1,16.9,6.4
				c3.6,0.5,7.3-0.1,8.5-1.4c1.2-1.3,0.7-3,0-4.3c-0.7-1.3-2.3-4.8-3-5.6c-1.3-1.8-3.9-3-9.1-5c-5.2-1.9-36.3-13.6-41.2-14.8
				c-5-1.2-13.3-3.3-14.6-3.4s-1.7,0.4-1.7,0.9C-317.6,293.7-317.4,294.3-317,294.9z"/>
		</defs>
		<clipPath id="SVGID_6_">
			<use xlink:href="#SVGID_5_"  style="overflow:visible;"/>
		</clipPath>
		<path class="st7" d="M-254.5,327.5c0,0-3.3-2.2-4.1-2.6c-0.7-0.5-1.6-0.8-3.5-1.5c-2-0.7-10.8-4-11.5-4.3
			c-0.7-0.3-0.9-0.5-1.6-0.5s-1.3-0.1-2.2-0.4c-1-0.4-13.4-5.2-14.2-5.4c-0.8-0.4-2.8-1.4-3.3-1.6s-0.6-0.5-0.6-0.5s-7.5-2.4-11-5
			c-3.5-2.4-5.5,3.5-5.5,3.5l12.2,10.6l12.6,11.6L-254.5,327.5z"/>
	</g>
</g>
<path class="st8" d="M-337.5,310.9c0.6,1,0.8,2.5,0.7,3.5c-0.1,0.6,0.2,0.6,0.4,0.3c0.2-0.3,0.5-0.7,0.9-0.7c0.4,0,0.8,0,0.4-0.8
	c-0.4-0.8-1.2-1.7-1.7-2.2C-337.5,310.5-337.7,310.6-337.5,310.9z"/>
<g>
	<path class="st9" d="M-305.5,300.7c0,0-0.4,0.9-0.4,1.2"/>
	<path class="st10" d="M-304.3,301c0,0-0.4,0.9-0.4,1.2"/>
	<path class="st11" d="M-303.2,301.5c0,0-0.4,0.9-0.4,1.2"/>
	<path class="st12" d="M-302,302c0,0-0.4,0.9-0.4,1.2"/>
	<path class="st13" d="M-300.8,302.4c0,0-0.4,0.9-0.4,1.2"/>
	<path class="st14" d="M-299.7,302.9c0,0-0.4,0.9-0.4,1.2"/>
	<path class="st15" d="M-298.5,303.3c0,0-0.4,0.9-0.4,1.3"/>
	<path class="st16" d="M-297.3,303.8c0,0-0.4,0.9-0.4,1.3"/>
	<path class="st17" d="M-296.2,304.2c0,0-0.4,0.9-0.4,1.3"/>
	<path class="st18" d="M-295,304.6c0,0-0.4,0.9-0.4,1.3"/>
	<path class="st19" d="M-293.8,305.1c0,0-0.4,0.9-0.4,1.3"/>
	<path class="st20" d="M-292.7,305.5c0,0-0.4,0.9-0.4,1.3"/>
	<path class="st21" d="M-291.5,306c0,0-0.4,0.9-0.4,1.3"/>
	<path class="st22" d="M-290.3,306.4c0,0-0.4,0.9-0.4,1.3"/>
	<path class="st23" d="M-289.2,306.9c0,0-0.4,0.9-0.4,1.3"/>
	<path class="st24" d="M-288,307.3c0,0-0.4,0.9-0.4,1.3"/>
	<path class="st25" d="M-286.8,307.8c0,0-0.4,0.9-0.4,1.3"/>
	<path class="st26" d="M-285.7,308.2c0,0-0.4,0.9-0.4,1.3"/>
	<path class="st27" d="M-284.5,308.6c0,0-0.4,0.9-0.4,1.3"/>
	<path class="st28" d="M-283.3,309.1c0,0-0.4,0.9-0.4,1.3"/>
	<path class="st29" d="M-282.2,309.5c0,0-0.4,0.9-0.4,1.3"/>
	<path class="st30" d="M-281,310c0,0-0.4,0.9-0.5,1.3"/>
	<path class="st31" d="M-279.8,310.5c0,0-0.4,0.9-0.5,1.4"/>
	<path class="st32" d="M-278.7,310.9c0,0-0.4,0.9-0.5,1.4"/>
	<path class="st33" d="M-277.5,311.3c0,0-0.4,0.9-0.5,1.4"/>
	<path class="st34" d="M-276.3,311.7c0,0-0.4,1-0.5,1.4"/>
	<path class="st35" d="M-275.2,312.2c0,0-0.4,1-0.5,1.4"/>
	<path class="st36" d="M-274,312.6c0,0-0.4,1-0.5,1.4"/>
	<path class="st37" d="M-272.8,313.1c0,0-0.4,1-0.5,1.4"/>
	<path class="st38" d="M-271.7,313.6c0,0-0.4,1-0.5,1.4"/>
	<path class="st39" d="M-270.5,314c0,0-0.4,1-0.5,1.4"/>
	<path class="st40" d="M-269.3,314.5c0,0-0.4,1-0.5,1.4"/>
	<path class="st41" d="M-268.2,314.8c0,0-0.4,1-0.5,1.4"/>
	<path class="st42" d="M-267,315.3c0,0-0.4,1-0.5,1.4"/>
	<path class="st43" d="M-265.8,315.8c0,0-0.4,1-0.5,1.4"/>
</g>
<g>
	<path class="st0" d="M-294.5,323.6c0.8,0.5,3.8,2.3,4.9,2.7c1.1,0.4,3.4,0.8,4.6-1.4c1-1.7,1-4.1-0.8-4.9c-1.6-0.6-2-1.2-3-1.7
		c-1-0.6-3.7-1.8-3.7-1.8l-5.5-0.4c0,0-0.1,0.8,0.6,1.7c0.7,0.9,0.9,1.1,0.9,1.1c-0.4,0.2-0.6,1.1-0.4,1.4c0.3,0.7,1.5,1.6,1.5,1.6
		S-295.4,323-294.5,323.6z"/>
	<path class="st1" d="M-290.4,319.3c0.7,0.2,1.1,0.5,1.3,0.4c0.4-0.2,0.7-0.4,0.9-0.6c0.2-0.2-0.6-0.9-1.3-1.3
		c-0.7-0.4-2.3-1.2-2.3-1.2l-6.7-0.4c0,0,1,2.4,1.7,2.4s1.9,0.1,2.1-0.1c0.2-0.2,0.5-0.2,0.8-0.2
		C-293.1,318.5-291.1,319.1-290.4,319.3z"/>
	<g>
		<g>
			<defs>
				<path id="SVGID_7_" d="M-289.3,323.7c0,1.5,0.5,2.2,1.8,2.3c1,0.1,2.4-1.7,2.4-3c0-1.5-0.8-2.1-1.7-2.1
					C-287.8,320.9-289.3,322-289.3,323.7z"/>
			</defs>
			<clipPath id="SVGID_8_">
				<use xlink:href="#SVGID_7_"  style="overflow:visible;"/>
			</clipPath>
			<polygon class="st44" points="-286.5,319.5 -289.3,326.1 -289.1,328.2 -284,327.3 -283.6,322.3 			"/>
		</g>
		<g>
			<defs>
				<path id="SVGID_9_" d="M-289.3,323.7c0,1.5,0.5,2.2,1.8,2.3c1,0.1,2.4-1.7,2.4-3c0-1.5-0.8-2.1-1.7-2.1
					C-287.8,320.9-289.3,322-289.3,323.7z"/>
			</defs>
			<clipPath id="SVGID_10_">
				<use xlink:href="#SVGID_9_"  style="overflow:visible;"/>
			</clipPath>
			<path class="st45" d="M-286.3,324.1c-0.6,1.3-1.9,2.2-4.8,1.9c-2.8-0.3-0.4-6.6-0.4-6.6l3.9-0.4
				C-287.6,319-285.1,321.4-286.3,324.1z"/>
		</g>
	</g>
</g>
<path class="st5" d="M-285.7,314c2.4,0.9,3.8,1.5,4.4,1.8c0.5,0.4,0.9,0.8,0.9,1.3c0,0.5-0.5,0.7-0.5,0.7
	c-10.2-0.5-46.8-2.6-49.5-2.9c-2.6-0.3-5.8-1.3-5.8-1.3l-0.4-1.6c0,0,1.1,1,3.3,1s35.2,0.5,40.7,0.2
	C-287,312.9-287.7,313.2-285.7,314z"/>
</svg>
