<?xml version="1.0" encoding="utf-8"?>
<!-- Generator: Adobe Illustrator 19.0.0, SVG Export Plug-In . SVG Version: 6.00 Build 0)  -->
<svg version="1.1" id="Layer_1" xmlns="http://www.w3.org/2000/svg" xmlns:xlink="http://www.w3.org/1999/xlink" x="0px" y="0px"
	 viewBox="-899 900.2 100 100" style="enable-background:new -899 900.2 100 100;" xml:space="preserve">
<style type="text/css">
	.st0{fill:#AFAFAF;}
	.st1{fill:#E8E8E8;}
	.st2{fill:#FFFFFF;}
	.st3{fill:#D3D3D3;}
</style>
<path class="st0" d="M-824.3,973.5c0,0,0.6,0.3,1.3,1.4c0.7,1.1,1.6,3.7,0,5c-1.6,1.3-4.5,1-7.6-2c-7.7-7.5-13.3-17.4-17.1-22.8
	c-4.4-6.1-8.8-12-10.9-13.4c-1.7-1.2-2-0.9-4.7-1.3c-2.7-0.4-3.9-0.9-5.8-3.1c-2.8-3.4-7.4-15.8-7.3-16.6l8,14.9l12,4.8
	L-824.3,973.5z"/>
<path class="st1" d="M-870.7,918.2c0.3-0.1,8,10.5,11.9,15.7c1.4,1.9-0.1,3.7,0.9,4.9c1.1,1.4,1.2,1.4,1.6,1.6
	c0.7,0.5-2.8,0.5-2.8,0.5c-1.2-0.8-2.4-0.7-3.7-0.8c-3.6-0.3-5-1.6-7.1-4.8c-2-3-7.1-14.3-6.4-14.7c0.6-0.4,4.5,9.1,7.8,12.7
	c0,0,0.7-0.2,0.7-0.3c-0.3-0.6-7.3-13-6.5-13.4c0.6-0.3,6.1,10.4,8,12.7c0,0.1,0.6-0.3,0.6-0.3c-0.2-0.4-7.5-12.9-6.8-13.2
	c0.4-0.2,7,11.4,8.2,12.4c0.1,0.1,0.8-0.4,0.8-0.4C-864.7,929.5-871.5,918.5-870.7,918.2z"/>
<path class="st2" d="M-858.7,937.9c0,0.3-2.2,1.6-2.8,1.7c-0.6,0.1-2.4,0.3-3.7-0.1c-2-0.6-3.3-2.4-3.7-2.8
	c-0.3-0.3,1.3,0.9,3.5,0.3c1.4-0.4,3.4-1.6,4-2c2.2-1.3-0.1-4.6,1-3C-858.1,935.2-858.5,935.3-858.7,937.9z"/>
<path class="st0" d="M-859.1,941c0,0,1.6-0.9,2.1-1.1l0.4,0.3c0,0,0.2,0.2,0.3,0.2c0.1,0.1,0.4,1.1,0.4,1.1l0.3,0.2l-0.3,0.5
	l-2.3-0.6L-859.1,941z"/>
<path class="st3" d="M-823,978.9c-1.7,1.5-5.8-0.4-8-2.5c-3.9-3.9-8.2-9.8-12.1-15.3c-3.9-5.5-6.6-10.4-12.4-17
	c-1.7-2-3-2.8-3.7-3.1c0,0,1.9,0.1,2.3,0.4c0.4,0.3,0.7,0.5,0.7,0.5s-0.3-0.4-0.2-0.8c0.1-0.4,0-0.6,0-0.6
	c0.2,0.1,9.7,11.3,13.6,14.6c3.9,3.3,11.3,10.9,14.8,14.5C-824.4,973.1-820.4,976.6-823,978.9z"/>
<path class="st2" d="M-856.7,941c-0.2,0.2-0.2,0.4,0.1,0.7c0.6,0.6,4,5,7.4,9s13.9,21,18.2,24.7c4.3,3.7,6.2,3.2,6.8,2.4
	c1.2-1.4,0.2-3.4-3.1-7.1c-3.3-3.8-12.2-12.7-14.7-15.2c-3-3-12.9-13.4-13.8-14.4C-856.3,940.7-856.4,940.7-856.7,941z"/>
<path class="st0" d="M-813.1,967.3c0,0,1,0.3,1.6,1.5c0.7,1.1,1.3,3.6-0.3,4.9s-5.6,0.1-7.6-2c-7.1-7.2-14.3-17.8-18.5-22.8
	s-9.3-10.6-11.3-12c-0.8-0.6-2.4-0.5-2.8-0.5c-0.3,0-0.7-0.1-1-0.3c-0.3-0.2-6.5-6.2-8.3-8.7l6,2.6l12.3,9.3L-813.1,967.3z"/>
<path class="st1" d="M-865.9,911.7c0.5,0.2,19.9,22.5,21.5,23.7c0.7,0.5-2.6,2.3-3.7,1.5c-1.3-1-2.1-1.3-3.5-1.3
	c-1.1,0-6.5-4.7-7.4-5.6s-6.8-8-8.9-13.2C-869.9,911.4-867.3,911.1-865.9,911.7z"/>
<path class="st2" d="M-847.1,933.4c-0.3,0.2-2.6,2-3.2,2c-0.6,0.1-2.2,0.3-2.7,0s-5.4-4.9-5.8-5.3c-0.3-0.3,1.3,1.1,2.3,1.1
	s4.2-1.8,4.9-1.7c0.7,0.1,1.6,0.3,2.9,1.6C-847.3,932.6-846.7,933.1-847.1,933.4z"/>
<path class="st0" d="M-848.1,936.9c0,0,1.9-1,2.4-1.2c0.5-0.2,1-0.5,1-0.5s0.2,0.2,0.3,0.2s0.4,1.1,0.4,1.1l-0.5,1l-0.3,0.5
	l-2.3-0.6L-848.1,936.9z"/>
<path class="st3" d="M-811.8,972.7c-1.1,1.8-5.6,0.2-7.8-2c-2.1-2.2-8.9-10.2-12.8-15.6c-3.9-5.5-8.8-11.3-10.6-13.2s-5.1-5-5.1-5
	s2.1-0.2,2.5,0.1c0.4,0.3,0.7,0.7,0.7,0.7s0.5-1.2,0.6-1.6c0.1-0.4,0-0.6,0-0.6c0.2,0.1,10.5,11,14.4,14.3
	c3.9,3.3,9.9,8.4,13.4,12.1C-813.1,965.4-809.7,969.3-811.8,972.7z"/>
<path class="st2" d="M-845,936.2c-0.6,0.5-0.6,0.7-0.3,1c0.6,0.6,4.7,5.1,8.1,9.1s13.3,18.7,17.6,22.4c4.3,3.7,5.9,3.1,6.6,2.5
	s0.9-3.6-2.4-7.3s-10.5-10.1-13.2-12.4c-2.7-2.3-14.4-14.3-15.3-15.3C-844.3,935.6-844.4,935.7-845,936.2z"/>
</svg>
