<?xml version="1.0" encoding="utf-8"?>
<!-- Generator: Adobe Illustrator 19.0.0, SVG Export Plug-In . SVG Version: 6.00 Build 0)  -->
<svg version="1.1" id="Layer_3" xmlns="http://www.w3.org/2000/svg" xmlns:xlink="http://www.w3.org/1999/xlink" x="0px" y="0px"
	 viewBox="-345 257 100 100" style="enable-background:new -345 257 100 100;" xml:space="preserve">
<style type="text/css">
	.st0{fill:#CECECE;}
	.st1{fill:#FFFFFF;}
	.st2{fill:#EAEAEA;}
</style>
<polygon class="st0" points="-278.6,336.2 -312.8,336.2 -304.3,325.2 -287.2,325.2 "/>
<path class="st1" d="M-295.7,275.2c-11.3,0-16.7,9.7-16.7,17.4s16.7,35.7,16.7,35.7s17.1-27.2,17.1-35.7
	C-278.6,285.6-283.7,275.2-295.7,275.2z M-295.7,300.6c-4.7,0-8.5-3.8-8.5-8.5s3.8-8.5,8.5-8.5s8.5,3.8,8.5,8.5
	S-291.1,300.6-295.7,300.6z"/>
<path class="st2" d="M-295.7,281.9c-5.7,0-10.3,4.6-10.3,10.3c0,5.7,4.6,10.3,10.3,10.3c5.7,0,10.3-4.6,10.3-10.3
	C-285.4,286.5-290,281.9-295.7,281.9z M-295.7,300.6c-4.7,0-8.5-3.8-8.5-8.5s3.8-8.5,8.5-8.5s8.5,3.8,8.5,8.5
	S-291.1,300.6-295.7,300.6z"/>
<path class="st2" d="M-295.7,275.2v8.5c4.7,0,8.5,3.8,8.5,8.5s-3.8,8.5-8.5,8.5v27.7c0,0,17.1-27.2,17.1-35.7
	C-278.6,285.6-283.7,275.2-295.7,275.2z"/>
<path class="st1" d="M-295.7,281.9v1.8c4.7,0,8.5,3.8,8.5,8.5s-3.8,8.5-8.5,8.5v1.8c5.7,0,10.3-4.6,10.3-10.3
	C-285.4,286.5-290,281.9-295.7,281.9z"/>
</svg>
