<?xml version="1.0" encoding="utf-8"?>
<!-- Generator: Adobe Illustrator 16.0.0, SVG Export Plug-In . SVG Version: 6.00 Build 0)  -->
<!DOCTYPE svg PUBLIC "-//W3C//DTD SVG 1.1//EN" "http://www.w3.org/Graphics/SVG/1.1/DTD/svg11.dtd">
<svg version="1.1" id="Layer_1" xmlns="http://www.w3.org/2000/svg" xmlns:xlink="http://www.w3.org/1999/xlink" x="0px" y="0px"
	 width="100px" height="100px" viewBox="0 0 100 100" enable-background="new 0 0 100 100" xml:space="preserve">
<g>
	<g>
		<path fill="#FFFFFF" d="M71.501,48.015c0.327-0.052,0.614-0.154,0.863-0.304c0.248-0.15,0.448-0.364,0.6-0.639
			c0.149-0.275,0.225-0.634,0.225-1.078c0-0.445-0.076-0.805-0.225-1.08c-0.151-0.275-0.352-0.487-0.6-0.638
			c-0.249-0.15-0.536-0.252-0.863-0.305c-0.327-0.052-0.668-0.078-1.021-0.078h-2.394v4.199h2.394
			C70.834,48.093,71.174,48.067,71.501,48.015z"/>
		<path fill="#FFFFFF" d="M58.962,45.238c-0.301-0.451-0.693-0.811-1.177-1.079s-1.073-0.402-1.767-0.402s-1.281,0.134-1.766,0.402
			c-0.483,0.268-0.876,0.628-1.178,1.079c-0.301,0.451-0.521,0.965-0.657,1.541c-0.139,0.575-0.206,1.171-0.206,1.785
			c0,0.589,0.067,1.161,0.206,1.717c0.137,0.558,0.356,1.058,0.657,1.502c0.302,0.446,0.694,0.803,1.178,1.07
			c0.484,0.268,1.072,0.401,1.766,0.401s1.283-0.134,1.767-0.401s0.876-0.624,1.177-1.07c0.302-0.444,0.52-0.944,0.658-1.502
			c0.137-0.556,0.206-1.127,0.206-1.717c0-0.614-0.069-1.21-0.206-1.785C59.481,46.203,59.263,45.689,58.962,45.238z"/>
		<path fill="#FFFFFF" d="M33.847,20.424L17.495,49.205L33.847,77.99h32.706l16.354-28.785L66.554,20.424H33.847z M35.552,53.137
			c-0.249,0.551-0.619,1.025-1.109,1.425c-0.49,0.398-1.099,0.709-1.825,0.932s-1.566,0.335-2.521,0.335
			c-0.772,0-1.521-0.095-2.247-0.284c-0.727-0.19-1.367-0.488-1.923-0.894c-0.556-0.406-0.998-0.923-1.325-1.552
			c-0.327-0.627-0.484-1.375-0.471-2.238h2.983c0,0.472,0.085,0.872,0.255,1.197c0.17,0.327,0.396,0.593,0.677,0.796
			s0.611,0.354,0.991,0.451c0.379,0.099,0.771,0.148,1.177,0.148c0.275,0,0.569-0.023,0.883-0.069s0.608-0.135,0.883-0.265
			s0.504-0.311,0.687-0.54c0.183-0.23,0.275-0.521,0.275-0.873c0-0.38-0.121-0.688-0.363-0.923c-0.242-0.234-0.56-0.431-0.952-0.589
			c-0.393-0.157-0.837-0.294-1.334-0.411c-0.497-0.12-1-0.25-1.511-0.394c-0.523-0.131-1.033-0.291-1.53-0.48
			c-0.498-0.19-0.942-0.435-1.334-0.736c-0.393-0.301-0.709-0.677-0.952-1.129c-0.243-0.451-0.363-0.997-0.363-1.638
			c0-0.72,0.154-1.344,0.461-1.874c0.308-0.53,0.709-0.971,1.207-1.324s1.06-0.614,1.688-0.785c0.628-0.17,1.256-0.255,1.883-0.255
			c0.733,0,1.436,0.082,2.11,0.245c0.674,0.164,1.272,0.428,1.796,0.794c0.523,0.366,0.938,0.833,1.246,1.403
			c0.307,0.569,0.461,1.26,0.461,2.07H32.47c-0.027-0.419-0.115-0.765-0.265-1.04s-0.35-0.491-0.598-0.647s-0.533-0.268-0.854-0.334
			c-0.321-0.065-0.671-0.097-1.05-0.097c-0.248,0-0.498,0.026-0.745,0.078c-0.249,0.052-0.475,0.144-0.677,0.274
			c-0.203,0.131-0.37,0.294-0.5,0.491c-0.13,0.197-0.196,0.445-0.196,0.746c0,0.274,0.053,0.497,0.157,0.667
			c0.104,0.171,0.311,0.327,0.618,0.472c0.308,0.144,0.733,0.287,1.275,0.431c0.543,0.145,1.253,0.328,2.13,0.55
			c0.261,0.053,0.625,0.147,1.088,0.285s0.926,0.357,1.384,0.658c0.458,0.302,0.854,0.703,1.187,1.206
			c0.334,0.505,0.5,1.149,0.5,1.934C35.924,51.992,35.8,52.588,35.552,53.137z M48.13,44.09h-4.2v11.424h-3.081V44.09H36.65V41.5
			H48.13V44.09L48.13,44.09z M62.436,51.42c-0.314,0.883-0.765,1.652-1.354,2.307c-0.588,0.654-1.308,1.168-2.157,1.541
			c-0.852,0.373-1.819,0.56-2.905,0.56c-1.072,0-2.037-0.187-2.895-0.56c-0.856-0.373-1.579-0.887-2.168-1.541
			c-0.587-0.654-1.04-1.424-1.354-2.307c-0.314-0.884-0.472-1.835-0.472-2.856c0-1.046,0.157-2.018,0.472-2.914
			c0.313-0.896,0.766-1.677,1.354-2.345c0.589-0.667,1.312-1.19,2.168-1.57c0.857-0.379,1.822-0.569,2.895-0.569
			c1.086,0,2.055,0.189,2.905,0.569c0.85,0.379,1.568,0.903,2.157,1.57c0.59,0.667,1.04,1.449,1.354,2.345
			c0.313,0.896,0.472,1.867,0.472,2.914C62.907,49.584,62.75,50.536,62.436,51.42z M73.562,41.882
			c0.614,0.256,1.116,0.592,1.502,1.011c0.385,0.419,0.667,0.896,0.844,1.432c0.177,0.537,0.265,1.093,0.265,1.668
			c0,0.562-0.089,1.115-0.265,1.658c-0.177,0.543-0.458,1.023-0.844,1.442c-0.386,0.419-0.887,0.755-1.502,1.01
			s-1.36,0.383-2.237,0.383h-3.237v5.026h-3.081V41.5h6.318C72.201,41.5,72.946,41.627,73.562,41.882z"/>
		<path fill="#FFFFFF" d="M91.866,47.541L71.905,12.828l-0.903-1.562h-1.857H30.576h-1.856l-0.902,1.557L8.534,47.566l-0.851,1.519
			l0.851,1.563L27.82,85.452l0.902,1.695h1.857h38.57h1.857l0.902-1.695l19.958-34.815l0.851-1.552L91.866,47.541z M69.146,83.986
			h-38.57L11.292,49.205l19.284-34.777h38.106h0.232l20.073,34.777L69.146,83.986z"/>
	</g>
</g>
</svg>
