<?xml version="1.0" encoding="utf-8"?>
<!-- Generator: Adobe Illustrator 19.0.0, SVG Export Plug-In . SVG Version: 6.00 Build 0)  -->
<svg version="1.1" id="Layer_1" xmlns="http://www.w3.org/2000/svg" xmlns:xlink="http://www.w3.org/1999/xlink" x="0px" y="0px"
	 viewBox="-345 257 100 100" style="enable-background:new -345 257 100 100;" xml:space="preserve">
<style type="text/css">
	.st0{fill:#E8E8E8;}
	.st1{fill:#FFFFFF;}
	.st2{clip-path:url(#SVGID_2_);fill:#969696;}
	.st3{clip-path:url(#SVGID_2_);fill:#AFAFAF;}
	.st4{fill:#C6C6C6;}
	.st5{fill:#D3D3D3;}
	.st6{fill:none;stroke:#FFFFFF;stroke-miterlimit:10;}
	.st7{clip-path:url(#SVGID_4_);fill:#E8E8E8;}
	.st8{fill:#C1BFBF;}
	.st9{fill:#FFFFFF;stroke:#C1BFBF;stroke-width:0.7;stroke-linecap:round;stroke-linejoin:round;stroke-miterlimit:10;}
	.st10{fill:#FFFFFF;stroke:#C1BFBF;stroke-width:0.7088;stroke-linecap:round;stroke-linejoin:round;stroke-miterlimit:10;}
	.st11{fill:#FFFFFF;stroke:#C1BFBF;stroke-width:0.7176;stroke-linecap:round;stroke-linejoin:round;stroke-miterlimit:10;}
	.st12{fill:#FFFFFF;stroke:#C1BFBF;stroke-width:0.7265;stroke-linecap:round;stroke-linejoin:round;stroke-miterlimit:10;}
	.st13{fill:#FFFFFF;stroke:#C1BFBF;stroke-width:0.7353;stroke-linecap:round;stroke-linejoin:round;stroke-miterlimit:10;}
	.st14{fill:#FFFFFF;stroke:#C1BFBF;stroke-width:0.7441;stroke-linecap:round;stroke-linejoin:round;stroke-miterlimit:10;}
	.st15{fill:#FFFFFF;stroke:#C1BFBF;stroke-width:0.7529;stroke-linecap:round;stroke-linejoin:round;stroke-miterlimit:10;}
	.st16{fill:#FFFFFF;stroke:#C1BFBF;stroke-width:0.7618;stroke-linecap:round;stroke-linejoin:round;stroke-miterlimit:10;}
	.st17{fill:#FFFFFF;stroke:#C1BFBF;stroke-width:0.7706;stroke-linecap:round;stroke-linejoin:round;stroke-miterlimit:10;}
	.st18{fill:#FFFFFF;stroke:#C1BFBF;stroke-width:0.7794;stroke-linecap:round;stroke-linejoin:round;stroke-miterlimit:10;}
	.st19{fill:#FFFFFF;stroke:#C1BFBF;stroke-width:0.7882;stroke-linecap:round;stroke-linejoin:round;stroke-miterlimit:10;}
	.st20{fill:#FFFFFF;stroke:#C1BFBF;stroke-width:0.7971;stroke-linecap:round;stroke-linejoin:round;stroke-miterlimit:10;}
	.st21{fill:#FFFFFF;stroke:#C1BFBF;stroke-width:0.8059;stroke-linecap:round;stroke-linejoin:round;stroke-miterlimit:10;}
	.st22{fill:#FFFFFF;stroke:#C1BFBF;stroke-width:0.8147;stroke-linecap:round;stroke-linejoin:round;stroke-miterlimit:10;}
	.st23{fill:#FFFFFF;stroke:#C1BFBF;stroke-width:0.8235;stroke-linecap:round;stroke-linejoin:round;stroke-miterlimit:10;}
	.st24{fill:#FFFFFF;stroke:#C1BFBF;stroke-width:0.8324;stroke-linecap:round;stroke-linejoin:round;stroke-miterlimit:10;}
	.st25{fill:#FFFFFF;stroke:#C1BFBF;stroke-width:0.8412;stroke-linecap:round;stroke-linejoin:round;stroke-miterlimit:10;}
	.st26{fill:#FFFFFF;stroke:#C1BFBF;stroke-width:0.85;stroke-linecap:round;stroke-linejoin:round;stroke-miterlimit:10;}
	.st27{fill:#FFFFFF;stroke:#C1BFBF;stroke-width:0.8588;stroke-linecap:round;stroke-linejoin:round;stroke-miterlimit:10;}
	.st28{fill:#FFFFFF;stroke:#C1BFBF;stroke-width:0.8676;stroke-linecap:round;stroke-linejoin:round;stroke-miterlimit:10;}
	.st29{fill:#FFFFFF;stroke:#C1BFBF;stroke-width:0.8765;stroke-linecap:round;stroke-linejoin:round;stroke-miterlimit:10;}
	.st30{fill:#FFFFFF;stroke:#C1BFBF;stroke-width:0.8853;stroke-linecap:round;stroke-linejoin:round;stroke-miterlimit:10;}
	.st31{fill:#FFFFFF;stroke:#C1BFBF;stroke-width:0.8941;stroke-linecap:round;stroke-linejoin:round;stroke-miterlimit:10;}
	.st32{fill:#FFFFFF;stroke:#C1BFBF;stroke-width:0.9029;stroke-linecap:round;stroke-linejoin:round;stroke-miterlimit:10;}
	.st33{fill:#FFFFFF;stroke:#C1BFBF;stroke-width:0.9118;stroke-linecap:round;stroke-linejoin:round;stroke-miterlimit:10;}
	.st34{fill:#FFFFFF;stroke:#C1BFBF;stroke-width:0.9206;stroke-linecap:round;stroke-linejoin:round;stroke-miterlimit:10;}
	.st35{fill:#FFFFFF;stroke:#C1BFBF;stroke-width:0.9294;stroke-linecap:round;stroke-linejoin:round;stroke-miterlimit:10;}
	.st36{fill:#FFFFFF;stroke:#C1BFBF;stroke-width:0.9382;stroke-linecap:round;stroke-linejoin:round;stroke-miterlimit:10;}
	.st37{fill:#FFFFFF;stroke:#C1BFBF;stroke-width:0.9471;stroke-linecap:round;stroke-linejoin:round;stroke-miterlimit:10;}
	.st38{fill:#FFFFFF;stroke:#C1BFBF;stroke-width:0.9559;stroke-linecap:round;stroke-linejoin:round;stroke-miterlimit:10;}
	.st39{fill:#FFFFFF;stroke:#C1BFBF;stroke-width:0.9647;stroke-linecap:round;stroke-linejoin:round;stroke-miterlimit:10;}
	.st40{fill:#FFFFFF;stroke:#C1BFBF;stroke-width:0.9735;stroke-linecap:round;stroke-linejoin:round;stroke-miterlimit:10;}
	.st41{fill:#FFFFFF;stroke:#C1BFBF;stroke-width:0.9824;stroke-linecap:round;stroke-linejoin:round;stroke-miterlimit:10;}
	.st42{fill:#FFFFFF;stroke:#C1BFBF;stroke-width:0.9912;stroke-linecap:round;stroke-linejoin:round;stroke-miterlimit:10;}
	.st43{fill:#FFFFFF;stroke:#C1BFBF;stroke-linecap:round;stroke-linejoin:round;stroke-miterlimit:10;}
	.st44{clip-path:url(#SVGID_6_);fill:#AFAFAF;}
	.st45{clip-path:url(#SVGID_6_);fill:#D3D3D3;}
</style>
<g>
	<path class="st0" d="M-268,312c0.4,0.2,1.8,1.1,2.3,1.3c0.5,0.2,1.6,0.4,2.2-0.7c0.5-0.8,0.5-2-0.4-2.4c-0.7-0.3-1-0.6-1.5-0.8
		s-1.8-0.9-1.8-0.9l-2.7-0.2c0,0,0,0.4,0.3,0.8c0.3,0.4,0.4,0.5,0.4,0.5c-0.2,0.1-0.3,0.5-0.2,0.6c0.1,0.3,0.7,0.7,0.7,0.7
		S-268.5,311.8-268,312z"/>
	<path class="st1" d="M-266,310c0.3,0.1,0.5,0.2,0.6,0.2c0.2-0.1,0.3-0.2,0.4-0.3s-0.3-0.4-0.6-0.6c-0.3-0.2-1.1-0.6-1.1-0.6
		l-3.2-0.2c0,0,0.5,1.2,0.8,1.2c0.3,0,0.9,0,1,0c0.1-0.1,0.2-0.1,0.4-0.1C-267.4,309.6-266.4,309.9-266,310z"/>
	<g>
		<defs>
			<path id="SVGID_1_" d="M-265.5,312.1c0,0.7,0.2,1.1,0.9,1.1c0.5,0,1.2-0.8,1.2-1.5c0-0.7-0.4-1-0.8-1S-265.5,311.3-265.5,312.1z"
				/>
		</defs>
		<clipPath id="SVGID_2_">
			<use xlink:href="#SVGID_1_"  style="overflow:visible;"/>
		</clipPath>
		<polygon class="st2" points="-264.2,310 -265.5,313.3 -265.4,314.2 -263,313.8 -262.8,311.4 		"/>
		<path class="st3" d="M-264.1,312.3c-0.3,0.6-1,1.1-2.3,0.9s-0.2-3.2-0.2-3.2l1.9-0.2C-264.7,309.8-263.5,311-264.1,312.3z"/>
	</g>
</g>
<path class="st4" d="M-252.6,297.8c0.5,0.6,2.6,2.7,2.6,3c0,0.3-0.8,0.5-0.8,0.5l-2-1.1c0,0,0.4-0.5,0-1.4S-253.5,296.9-252.6,297.8
	z"/>
<path class="st5" d="M-266,312c0,0,13.8-8.7,15-9.8c1.1-1.1,1.4-1.6,0.2-2c-1.2-0.4-1.6-0.5-1.6-0.5s-8,3.7-8.3,3.8
	c-0.2,0.1-1,0.3-1.5,0.3s-1.2,0-1.2,0.3s0.5,0.3,0.5,0.3s-4.6,2.3-4.9,2.5c-0.3,0.2-1.3,0.3-1.7,0.3s-0.7,0.1-0.7,0.3
	c0,0.2,0.3,0.3,0.3,0.3l-2.1,1.1L-266,312z"/>
<path class="st5" d="M-306.1,297.1c0,0,3.9-3.2,4.4-3.5c0.4-0.4,1.1-0.9,0-1.2c-1.1-0.4-1.5-0.4-2.5,0c-1,0.4-8.6,3.8-8.6,3.8
	L-306.1,297.1z"/>
<path class="st1" d="M-320.9,295.8c0.6,0.7,7.6,7.9,8.8,8.9c1.2,1,4.5,4.1,8.6,6s5.1,2.3,5.5,2.6c0.4,0.3,0.7,1.7,2.7,2.8
	s10.1,4.2,11.3,4.6s3.5,0.6,4.5,0.5s1.6-0.2,2.1,0c0.5,0.2,15,6.1,16.9,6.4c3.6,0.5,7.3-0.1,8.4-1.4c1.1-1.3,0.7-3,0-4.2
	c-0.7-1.2-2.4-4.7-3-5.7c-1.3-1.8-3.9-3-9.2-4.9c-5.3-1.9-36.2-13.6-41.2-14.8s-13.3-3.3-14.5-3.4c-1.2-0.1-1.8,0.4-1.8,0.9
	S-321.4,295.3-320.9,295.8z"/>
<path class="st0" d="M-316.5,297.6c1.2,0.9,1.8,1.5,1.8,1.7s-0.4,0.3-0.6,0.3c-0.2,0-16.4-1.7-17.1-1.7s-1.1-0.2-1.7-0.5
	c-0.6-0.3-1.6-0.7-0.3-0.7s14.7,0.3,15.5,0.3C-317.8,297-317.2,297.1-316.5,297.6z"/>
<path class="st0" d="M-313.2,295.3c3.5,0.9,6.9,1.7,7,1.5s-1.7-1.9-2.6-3.8c-0.9-1.9-6.5-15.9-6.8-16.8c-0.3-0.9-0.4-1.5-1.6-1.8
	c-1.2-0.3-2.3-1-2.2,0.4c0.2,1.4,2.1,19,2.4,19.4C-316.7,294.4-315.7,294.6-313.2,295.3z"/>
<path class="st5" d="M-254.6,317.1c0,0-0.7,1.2-1.5,1.2c-0.9,0.1-4.9-0.1-5.8-0.3c-0.9-0.2-1.2-0.4-1.5,0c-0.3,0.4-0.5,0.9-0.5,1.1
	c-0.1,0.3,0,0.5,0.5,0.6c0.4,0.1,3,0.6,5.4,0.5c2.4-0.1,3.4-0.2,4-0.7s0.4-0.9,0.4-0.9L-254.6,317.1z"/>
<line class="st6" x1="-256.4" y1="318" x2="-255.2" y2="320.6"/>
<line class="st6" x1="-259.7" y1="318" x2="-259.5" y2="320.7"/>
<path class="st6" d="M-261.7,317.6c0,0-0.3,2.1-0.8,3"/>
<g>
	<defs>
		<path id="SVGID_3_" d="M-320.9,295.8c0.6,0.7,7.6,7.9,8.8,8.9c1.2,1,4.5,4.1,8.6,6s5.1,2.3,5.5,2.6c0.4,0.3,0.7,1.7,2.7,2.8
			s10.1,4.2,11.3,4.6s3.5,0.6,4.5,0.5s1.6-0.2,2.1,0c0.5,0.2,15,6.1,16.9,6.4c3.6,0.5,7.3-0.1,8.4-1.4c1.1-1.3,0.7-3,0-4.2
			c-0.7-1.2-2.4-4.7-3-5.7c-1.3-1.8-3.9-3-9.2-4.9c-5.3-1.9-36.2-13.6-41.2-14.8s-13.3-3.3-14.5-3.4c-1.2-0.1-1.8,0.4-1.8,0.9
			S-321.4,295.3-320.9,295.8z"/>
	</defs>
	<clipPath id="SVGID_4_">
		<use xlink:href="#SVGID_3_"  style="overflow:visible;"/>
	</clipPath>
	<path class="st7" d="M-258.5,328.4c0,0-3.3-2.2-4-2.6c-0.7-0.4-1.5-0.8-3.5-1.5s-10.8-4-11.4-4.2s-0.9-0.5-1.5-0.5
		c-0.7,0-1.2-0.1-2.2-0.4c-1-0.4-13.4-5.1-14.2-5.5c-0.8-0.4-2.9-1.3-3.3-1.6s-0.6-0.5-0.6-0.5s-7.4-2.4-11-4.9s-5.5,3.5-5.5,3.5
		l12.2,10.6l12.6,11.6L-258.5,328.4z"/>
</g>
<path class="st8" d="M-341.5,311.7c0.6,1,0.8,2.6,0.6,3.5c-0.1,0.6,0.2,0.6,0.4,0.3c0.2-0.3,0.5-0.6,0.8-0.7c0.3-0.1,0.8,0,0.4-0.8
	c-0.4-0.8-1.2-1.7-1.8-2.2C-341.5,311.4-341.6,311.5-341.5,311.7z"/>
<g>
	<path class="st9" d="M-309.5,301.6c0,0-0.3,0.8-0.4,1.2"/>
	<path class="st10" d="M-308.3,302c0,0-0.3,0.8-0.4,1.2"/>
	<path class="st11" d="M-307.2,302.4c0,0-0.3,0.8-0.4,1.2"/>
	<path class="st12" d="M-306,302.9c0,0-0.4,0.8-0.4,1.2"/>
	<path class="st13" d="M-304.9,303.3c0,0-0.4,0.8-0.4,1.2"/>
	<path class="st14" d="M-303.7,303.8c0,0-0.4,0.9-0.4,1.2"/>
	<path class="st15" d="M-302.5,304.2c0,0-0.4,0.9-0.4,1.2"/>
	<path class="st16" d="M-301.4,304.7c0,0-0.4,0.9-0.4,1.2"/>
	<path class="st17" d="M-300.2,305.1c0,0-0.4,0.9-0.4,1.2"/>
	<path class="st18" d="M-299,305.6c0,0-0.4,0.9-0.4,1.2"/>
	<path class="st19" d="M-297.9,306c0,0-0.4,0.9-0.4,1.2"/>
	<path class="st20" d="M-296.7,306.4c0,0-0.4,0.9-0.4,1.2"/>
	<path class="st21" d="M-295.5,306.9c0,0-0.4,0.9-0.4,1.3"/>
	<path class="st22" d="M-294.4,307.3c0,0-0.4,0.9-0.4,1.3"/>
	<path class="st23" d="M-293.2,307.8c0,0-0.4,0.9-0.4,1.3"/>
	<path class="st24" d="M-292,308.2c0,0-0.4,0.9-0.4,1.3"/>
	<path class="st25" d="M-290.9,308.7c0,0-0.4,0.9-0.4,1.3"/>
	<path class="st26" d="M-289.7,309.1c0,0-0.4,0.9-0.4,1.3"/>
	<path class="st27" d="M-288.5,309.6c0,0-0.4,0.9-0.4,1.3"/>
	<path class="st28" d="M-287.4,310c0,0-0.4,0.9-0.4,1.3"/>
	<path class="st29" d="M-286.2,310.5c0,0-0.4,0.9-0.4,1.3"/>
	<path class="st30" d="M-285.1,310.9c0,0-0.4,0.9-0.4,1.3"/>
	<path class="st31" d="M-283.9,311.3c0,0-0.4,0.9-0.4,1.3"/>
	<path class="st32" d="M-282.7,311.8c0,0-0.4,0.9-0.4,1.3"/>
	<path class="st33" d="M-281.6,312.2c0,0-0.4,0.9-0.4,1.3"/>
	<path class="st34" d="M-280.4,312.7c0,0-0.4,0.9-0.4,1.3"/>
	<path class="st35" d="M-279.2,313.1c0,0-0.4,0.9-0.4,1.3"/>
	<path class="st36" d="M-278.1,313.6c0,0-0.4,0.9-0.5,1.3"/>
	<path class="st37" d="M-276.9,314c0,0-0.4,0.9-0.5,1.3"/>
	<path class="st38" d="M-275.7,314.5c0,0-0.4,0.9-0.5,1.4"/>
	<path class="st39" d="M-274.6,314.9c0,0-0.4,0.9-0.5,1.4"/>
	<path class="st40" d="M-273.4,315.3c0,0-0.4,0.9-0.5,1.4"/>
	<path class="st41" d="M-272.2,315.8c0,0-0.4,0.9-0.5,1.4"/>
	<path class="st42" d="M-271.1,316.2c0,0-0.4,1-0.5,1.4"/>
	<path class="st43" d="M-269.9,316.7c0,0-0.4,1-0.5,1.4"/>
</g>
<g>
	<path class="st0" d="M-298.6,324.5c0.7,0.5,3.7,2.4,4.8,2.7c1.1,0.4,3.4,0.7,4.6-1.4c1-1.7,1-4.1-0.8-4.9c-1.5-0.6-2.1-1.1-3.1-1.8
		c-1-0.6-3.7-1.9-3.7-1.9l-5.6-0.4c0,0-0.1,0.7,0.6,1.6c0.7,0.9,0.9,1.1,0.9,1.1c-0.4,0.2-0.6,1-0.4,1.3c0.3,0.6,1.4,1.5,1.4,1.5
		S-299.4,323.9-298.6,324.5z"/>
	<path class="st1" d="M-294.4,320.3c0.7,0.2,1.1,0.5,1.3,0.4c0.4-0.2,0.7-0.4,0.9-0.6c0.2-0.2-0.5-0.8-1.2-1.3s-2.3-1.1-2.3-1.1
		l-6.7-0.3c0,0,1,2.4,1.6,2.4c0.6,0,2,0.1,2.1-0.1c0.2-0.1,0.5-0.1,0.8-0.2C-297.2,319.5-295.1,320-294.4,320.3z"/>
	<g>
		<defs>
			<path id="SVGID_5_" d="M-293.3,324.6c0,1.5,0.5,2.2,1.8,2.3c1,0.1,2.4-1.7,2.4-3c0-1.5-0.7-2.1-1.7-2.1S-293.3,323-293.3,324.6z"
				/>
		</defs>
		<clipPath id="SVGID_6_">
			<use xlink:href="#SVGID_5_"  style="overflow:visible;"/>
		</clipPath>
		<polygon class="st44" points="-290.5,320.4 -293.3,327.1 -293.1,329.1 -288.1,328.2 -287.6,323.3 		"/>
		<path class="st45" d="M-290.3,325c-0.6,1.2-2,2.3-4.8,2c-2.8-0.3-0.4-6.6-0.4-6.6l3.9-0.4C-291.6,319.9-289.1,322.3-290.3,325z"/>
	</g>
</g>
<path class="st5" d="M-289.7,314.9c2.4,0.9,3.8,1.4,4.3,1.8s0.9,0.7,0.9,1.3s-0.5,0.7-0.5,0.7c-10.2-0.4-46.8-2.6-49.4-2.9
	s-5.8-1.3-5.8-1.3l-0.4-1.5c0,0,1.1,1,3.3,1c2.3,0,35.2,0.5,40.7,0.2C-291.1,313.9-291.7,314.1-289.7,314.9z"/>
</svg>
