<?xml version="1.0" encoding="utf-8"?>
<!-- Generator: Adobe Illustrator 16.0.0, SVG Export Plug-In . SVG Version: 6.00 Build 0)  -->
<!DOCTYPE svg PUBLIC "-//W3C//DTD SVG 1.1//EN" "http://www.w3.org/Graphics/SVG/1.1/DTD/svg11.dtd">
<svg version="1.1" id="Layer_1" xmlns="http://www.w3.org/2000/svg" xmlns:xlink="http://www.w3.org/1999/xlink" x="0px" y="0px"
	 width="100px" height="100px" viewBox="0 0 100 100" enable-background="new 0 0 100 100" xml:space="preserve">
<g>
	<path fill="#FFFFFF" d="M92.864,38.215c-0.43-0.789-1.142-1.365-2.003-1.621L20.99,15.88c-0.312-0.092-0.634-0.14-0.958-0.14
		c-1.48,0-2.807,0.992-3.228,2.411L8.866,44.935c-0.502,1.693,0.397,3.473,2.019,4.097v27.784c0,1.856,1.511,3.367,3.368,3.367
		h72.876c1.856,0,3.367-1.511,3.367-3.367V49.674l2.637-8.895C93.389,39.917,93.293,39.006,92.864,38.215z M88.039,76.816
		c0,0.502-0.408,0.91-0.91,0.91H68.373v-1.465c0-0.679-0.551-1.229-1.229-1.229s-1.229,0.55-1.229,1.229v1.465H14.252
		c-0.502,0-0.911-0.408-0.911-0.91V49.774l11.359,3.367l-0.795,0.795l-5.555-0.608l-1.15,0.932l4.42,1.961l-1.544,1.545
		l-1.647-0.161c-0.028-0.003-0.055,0.008-0.075,0.028l-0.577,0.576c-0.037,0.035-0.04,0.094-0.005,0.132
		c0.009,0.01,0.019,0.017,0.031,0.021l1.433,0.652c0.005,0.234,0.096,0.467,0.275,0.646c0.179,0.178,0.412,0.27,0.646,0.274
		l0.654,1.432c0.021,0.047,0.076,0.067,0.122,0.047c0.01-0.005,0.02-0.01,0.027-0.019l0.577-0.58c0.02-0.02,0.03-0.048,0.028-0.075
		l-0.161-1.644l1.545-1.545l1.962,4.42l0.932-1.15l-0.608-5.556l1.516-1.516l2.553,0.756v0.673c0,0.226,0.183,0.409,0.409,0.409
		h3.237l9.311,2.76H29.713c-0.226,0-0.409,0.183-0.409,0.409v2.607c0,0.227,0.183,0.409,0.409,0.409H53.82l12.134,3.597
		c-0.024,0.097-0.039,0.196-0.039,0.301v5.296c0,0.679,0.55,1.229,1.229,1.229s1.229-0.55,1.229-1.229v-4.879l12.637,3.746
		c0.311,0.092,0.634,0.139,0.956,0.139c1.48,0,2.808-0.991,3.229-2.411l2.846-9.598V76.816z M90.776,40.082l-7.938,26.781
		c-0.114,0.385-0.473,0.652-0.873,0.652c-0.086,0-0.174-0.013-0.26-0.038l-17.981-5.331l0.416-1.405
		c0.192-0.65-0.178-1.334-0.828-1.526c-0.651-0.192-1.335,0.178-1.527,0.828l-0.417,1.405L11.835,46.764
		c-0.481-0.142-0.757-0.65-0.614-1.131l7.939-26.782c0.114-0.385,0.473-0.654,0.873-0.654c0.087,0,0.174,0.013,0.259,0.038
		L69.825,32.92l-0.516,1.735c-0.192,0.65,0.179,1.334,0.829,1.527c0.117,0.034,0.234,0.051,0.35,0.051c0.53,0,1.02-0.346,1.178-0.88
		l0.515-1.734l17.981,5.331c0.234,0.069,0.427,0.226,0.542,0.438C90.82,39.602,90.846,39.849,90.776,40.082z"/>
	<path fill="#FFFFFF" d="M66.322,49.061c-0.648-0.193-1.334,0.178-1.527,0.828l-1.505,5.077c-0.192,0.65,0.178,1.335,0.829,1.527
		c0.116,0.034,0.233,0.051,0.349,0.051c0.53,0,1.02-0.345,1.178-0.88l1.506-5.077C67.343,49.936,66.973,49.253,66.322,49.061z"/>
	<path fill="#FFFFFF" d="M69.332,38.904c-0.648-0.192-1.333,0.179-1.526,0.829L66.3,44.811c-0.192,0.65,0.179,1.334,0.828,1.526
		c0.117,0.035,0.235,0.051,0.351,0.051c0.53,0,1.019-0.346,1.178-0.88l1.505-5.076C70.354,39.781,69.982,39.097,69.332,38.904z"/>
	<path fill="#FFFFFF" d="M20.744,29.206l1.188,1.033c-0.062,0.227-0.041,0.475,0.08,0.697c0.121,0.222,0.318,0.376,0.541,0.447
		l0.22,1.558c0.007,0.051,0.054,0.087,0.104,0.08c0.011-0.001,0.021-0.005,0.031-0.01l0.718-0.393
		c0.024-0.014,0.042-0.036,0.048-0.063l0.312-1.623l1.921-1.042l0.625,4.796l1.22-0.838l0.995-5.5l2.11-1.146
		c0.456-0.247,0.625-0.818,0.378-1.274c-0.248-0.456-0.819-0.625-1.275-0.378l-2.11,1.146L22.7,24.536l-1.368,0.565l3.68,3.137
		l-1.919,1.042l-1.533-0.623c-0.026-0.01-0.055-0.008-0.08,0.007l-0.716,0.388c-0.045,0.023-0.065,0.078-0.043,0.124
		C20.726,29.188,20.734,29.198,20.744,29.206z"/>
	<path fill="#FFFFFF" d="M58.945,53.421L16.591,40.866c-0.216-0.064-0.444,0.06-0.509,0.276l-0.741,2.5
		c-0.031,0.104-0.019,0.216,0.033,0.312s0.14,0.167,0.244,0.197l42.354,12.555c0.038,0.012,0.078,0.017,0.116,0.017
		c0.067,0,0.135-0.017,0.195-0.049c0.095-0.052,0.166-0.14,0.197-0.244l0.741-2.5C59.285,53.713,59.162,53.484,58.945,53.421z"/>
	<path fill="#FFFFFF" d="M60.703,47.49L18.349,34.934c-0.104-0.031-0.216-0.02-0.311,0.032c-0.096,0.053-0.167,0.14-0.198,0.244
		l-0.741,2.5c-0.064,0.217,0.06,0.445,0.276,0.509l42.354,12.556c0.039,0.012,0.078,0.018,0.116,0.018
		c0.068,0,0.135-0.018,0.195-0.05c0.096-0.052,0.167-0.141,0.198-0.244l0.74-2.5C61.044,47.782,60.92,47.554,60.703,47.49z"/>
	<path fill="#FFFFFF" d="M62.462,41.558l-30.295-8.98c-0.216-0.064-0.445,0.059-0.509,0.275l-0.741,2.5
		c-0.031,0.104-0.019,0.216,0.032,0.312c0.052,0.095,0.14,0.165,0.244,0.196l30.295,8.982c0.039,0.011,0.077,0.017,0.116,0.017
		c0.068,0,0.135-0.017,0.195-0.05c0.096-0.052,0.167-0.141,0.198-0.243l0.739-2.501C62.802,41.85,62.678,41.623,62.462,41.558z"/>
	<path fill="#FFFFFF" d="M63.362,38.929c0.177,0,0.34-0.116,0.393-0.294l0.741-2.5c0.031-0.104,0.02-0.217-0.032-0.312
		c-0.052-0.095-0.14-0.166-0.243-0.196l-30.295-8.981c-0.216-0.064-0.444,0.06-0.509,0.276l-0.741,2.5
		c-0.031,0.104-0.019,0.217,0.032,0.312c0.052,0.095,0.14,0.166,0.244,0.197l30.295,8.98C63.285,38.923,63.323,38.929,63.362,38.929
		z"/>
	<path fill="#FFFFFF" d="M61.311,70.72H17.135c-0.226,0-0.409,0.183-0.409,0.409v2.607c0,0.227,0.183,0.409,0.409,0.409h44.175
		c0.227,0,0.41-0.183,0.41-0.409v-2.607C61.721,70.902,61.537,70.72,61.311,70.72z"/>
	<path fill="#FFFFFF" d="M61.311,64.534l-44.175-0.001c-0.108,0-0.213,0.043-0.29,0.119c-0.077,0.078-0.12,0.182-0.12,0.29v2.608
		c0,0.226,0.183,0.409,0.409,0.409h44.175c0.227,0,0.41-0.184,0.41-0.409v-2.607C61.721,64.717,61.537,64.534,61.311,64.534z"/>
</g>
</svg>
