<?xml version="1.0" encoding="utf-8"?>
<!-- Generator: Adobe Illustrator 16.0.0, SVG Export Plug-In . SVG Version: 6.00 Build 0)  -->
<!DOCTYPE svg PUBLIC "-//W3C//DTD SVG 1.1//EN" "http://www.w3.org/Graphics/SVG/1.1/DTD/svg11.dtd">
<svg version="1.1" id="Layer_1" xmlns="http://www.w3.org/2000/svg" xmlns:xlink="http://www.w3.org/1999/xlink" x="0px" y="0px"
	 width="100px" height="100px" viewBox="0 0 100 100" enable-background="new 0 0 100 100" xml:space="preserve">
<path fill="#FFFFFF" d="M68.294,90.45h-34.73c-4.366,0-8.021-3.107-8.869-7.226h-1.656c-2.722,0-4.936-2.215-4.936-4.936V62.62
	c0-2.721,2.214-4.936,4.936-4.936h1.471V41.788c-1.854-0.702-3.176-2.497-3.176-4.594V23.472c0-2.708,2.203-4.91,4.91-4.91h3.95
	v-1.577c0-2.195,1.786-3.981,3.981-3.981h7.055c2.195,0,3.981,1.786,3.981,3.981v1.577h10.825v-4.897
	c0-2.195,1.786-3.981,3.98-3.981h7.054c2.196,0,3.981,1.786,3.981,3.981v4.897h4.564c2.708,0,4.91,2.203,4.91,4.91v13.723
	c0,2.097-1.321,3.892-3.177,4.594v15.896h1.613c2.722,0,4.936,2.215,4.936,4.936v15.669c0,2.721-2.214,4.936-4.936,4.936h-1.798
	C76.315,87.343,72.661,90.45,68.294,90.45z M26.615,82.464c0.516,3.372,3.436,5.963,6.949,5.963h34.73
	c3.877,0,7.031-3.155,7.031-7.031V42.104h-19.92v2.092c0,2.35-1.911,4.26-4.261,4.26h-0.432c-2.349,0-4.261-1.91-4.261-4.26v-2.092
	H26.534v16.128c0.072,0.14,0.113,0.298,0.113,0.466v23.514C26.646,82.299,26.635,82.384,26.615,82.464z M77.378,81.2h1.584
	c1.605,0,2.911-1.306,2.911-2.911V62.62c0-1.604-1.307-2.91-2.911-2.91h-1.584V81.2z M23.038,59.71c-1.605,0-2.911,1.306-2.911,2.91
	v15.669c0,1.605,1.306,2.911,2.911,2.911h1.471V59.709L23.038,59.71L23.038,59.71z M48.477,41.59v2.605
	c0,1.232,1.003,2.236,2.236,2.236h0.432c1.233,0,2.236-1.003,2.236-2.236V41.59h-1.44v1.371c0,0.559-0.453,1.011-1.011,1.011
	c-0.561,0-1.013-0.453-1.013-1.011V41.59H48.477z M55.405,40.08h20.21c1.592,0,2.886-1.294,2.886-2.886V23.472
	c0-1.592-1.294-2.886-2.886-2.886H26.243c-1.591,0-2.885,1.294-2.885,2.886v13.723c0,1.591,1.294,2.886,2.885,2.886h20.209v-2.092
	c0-2.349,1.912-4.26,4.261-4.26h0.432c2.35,0,4.261,1.911,4.261,4.26V40.08L55.405,40.08z M50.93,39.566h2.453v-1.578
	c0-1.233-1.004-2.236-2.237-2.236h-0.433c-1.233,0-2.235,1.003-2.235,2.236v1.578H50.93z M58.058,18.562h10.97v-4.897
	c0-1.079-0.879-1.957-1.958-1.957h-7.054c-1.079,0-1.958,0.878-1.958,1.957V18.562z M32.217,18.562h10.968v-1.577
	c0-1.079-0.878-1.957-1.957-1.957h-7.055c-1.079,0-1.957,0.878-1.957,1.957V18.562z M61.729,86.833h-21.6
	c-2.902,0-5.262-2.36-5.262-5.263V61.307c0-3.262,2.654-5.915,5.915-5.915h20.293c3.262,0,5.915,2.653,5.915,5.915V81.57
	C66.991,84.473,64.631,86.833,61.729,86.833z M36.891,68.507V81.57c0,1.786,1.453,3.238,3.238,3.238h21.6
	c1.785,0,3.238-1.452,3.238-3.238V68.507H36.891z M36.891,66.482h28.077v-5.176c0-2.145-1.747-3.892-3.892-3.892H40.782
	c-2.146,0-3.891,1.747-3.891,3.892V66.482z"/>
</svg>
