<?xml version="1.0" encoding="utf-8"?>
<!-- Generator: Adobe Illustrator 16.0.0, SVG Export Plug-In . SVG Version: 6.00 Build 0)  -->
<!DOCTYPE svg PUBLIC "-//W3C//DTD SVG 1.1//EN" "http://www.w3.org/Graphics/SVG/1.1/DTD/svg11.dtd">
<svg version="1.1" id="Layer_1" xmlns="http://www.w3.org/2000/svg" xmlns:xlink="http://www.w3.org/1999/xlink" x="0px" y="0px"
	 width="100px" height="100px" viewBox="0 0 100 100" enable-background="new 0 0 100 100" xml:space="preserve">
<g>
	<g>
		<path fill="#EF3A3A" d="M23.369,70.527c-1.774,0-3.441,0.688-4.696,1.942c-1.253,1.255-1.944,2.923-1.944,4.695
			s0.691,3.44,1.944,4.692c1.254,1.256,2.921,1.945,4.694,1.945c1.774,0,3.441-0.689,4.694-1.945c2.589-2.588,2.589-6.799,0-9.389
			C26.809,71.217,25.141,70.527,23.369,70.527z M27.142,80.939c-1.008,1.009-2.349,1.563-3.775,1.563
			c-1.424,0-2.766-0.556-3.774-1.563c-1.008-1.008-1.563-2.35-1.563-3.773c0-1.426,0.555-2.768,1.564-3.775
			c1.007-1.008,2.349-1.562,3.775-1.562c1.425,0,2.766,0.556,3.773,1.562C29.224,75.473,29.224,78.859,27.142,80.939z"/>
		<g>
			<path fill="none" d="M23.369,70.527c-1.774,0-3.441,0.688-4.696,1.942c-1.253,1.255-1.944,2.923-1.944,4.695
				s0.691,3.44,1.944,4.692c1.254,1.256,2.921,1.945,4.694,1.945c1.774,0,3.441-0.689,4.694-1.945c2.589-2.588,2.589-6.799,0-9.389
				C26.809,71.217,25.141,70.527,23.369,70.527z M27.142,80.939c-1.008,1.009-2.349,1.563-3.775,1.563
				c-1.424,0-2.766-0.556-3.774-1.563c-1.008-1.008-1.563-2.35-1.563-3.773c0-1.426,0.555-2.768,1.564-3.775
				c1.007-1.008,2.349-1.562,3.775-1.562c1.425,0,2.766,0.556,3.773,1.562C29.224,75.473,29.224,78.859,27.142,80.939z"/>
			<g>
				<g>
					<g>
						<path fill="#F15353" d="M18.367,80.018C18.372,80.032,18.379,80.037,18.367,80.018L18.367,80.018z"/>
						<path fill="#F15353" d="M23.206,71.314c0.006,0,0.007-0.001,0.012-0.001c0.009-0.013,0.018-0.024,0.023-0.032L23.206,71.314z"
							/>
						<path fill="#F15353" d="M25.093,71.662l0.01,0.006C25.104,71.661,25.109,71.654,25.093,71.662z"/>
						<path fill="#F15353" d="M19.276,73.125c-0.011,0.012-0.015,0.021-0.016,0.029C19.267,73.142,19.272,73.131,19.276,73.125z"/>
						<polygon fill="#F15353" points="20.916,82.307 20.908,82.304 20.923,82.32 						"/>
						<path fill="#F15353" d="M20.873,82.308c-0.033-0.027,0.018-0.01,0.035-0.004c-0.034-0.036-0.074-0.059-0.118-0.074
							C20.782,82.246,20.861,82.285,20.873,82.308z"/>
						<path fill="#F15353" d="M26.812,81.631l-0.01,0.018L26.812,81.631z"/>
						<path fill="#F15353" d="M20.041,73.66l-0.016,0.019C20.036,73.671,20.04,73.665,20.041,73.66z"/>
						<path fill="#F15353" d="M25.979,82.144l0.004,0.03C25.986,82.159,25.984,82.149,25.979,82.144z"/>
						<path fill="#F15353" d="M23.241,71.281l0.014-0.013L23.241,71.281z"/>
						<path fill="#F15353" d="M26.67,72.442c-0.005,0.008-0.006,0.017-0.006,0.024l0.004,0.003L26.67,72.442z"/>
						<path fill="#F15353" d="M27.793,80.09l0.013,0.003l-0.002-0.04C27.797,80.068,27.796,80.082,27.793,80.09z"/>
						<path fill="#F15353" d="M28.193,74.27c0.004,0,0.009,0.004,0.013,0.002c-0.013-0.039-0.053-0.141-0.13-0.254l-0.035,0.014
							C28.054,74.022,28.193,74.27,28.193,74.27z"/>
						<path fill="#F15353" d="M28.13,76.78l0.052-0.223c0.133,0.697-0.022,1.02-0.033,1.62l-0.006-0.035
							c-0.055,0.064,0.133,0.195-0.398,1.018l-0.006-0.003c-0.015,0.029-0.001,0.036-0.05,0.086l0.118-0.128
							c-0.03,0.096-0.04,0.188-0.098,0.309c-0.021,0.021-0.038,0.023-0.049,0.021l-0.141,0.296l-0.085,0.063
							c-0.029,0.098,0.071,0.113-0.142,0.291c0.12-0.038-0.053,0.129-0.004,0.124c-0.018,0.009-0.045,0.022-0.07,0.034
							c-0.096,0.13-0.273,0.38-0.296,0.464c0,0,0.512-0.4,0.69-0.502c-0.167,0.175-0.034,0.055,0.015,0.031l-0.003-0.022
							c0.104-0.102,0.141-0.077,0.197-0.128l-0.012-0.003l-0.001,0.011c-0.011,0.001-0.012-0.006-0.011-0.014
							c-0.008-0.004-0.009-0.013,0.01-0.047l0,0.01c0.023-0.058,0.077-0.146,0.101-0.186l0.031,0.018
							c-0.017-0.129,0.447-0.593,0.495-0.74c0.085-0.128,0.085-0.325,0.159-0.497c0.096-0.282,0.094-0.13,0.167-0.268
							c0.076-0.177-0.052,0.027-0.033-0.046c0.008,0.002,0.104-0.208,0.094-0.211c-0.009,0.132,0.02,0.065,0.036,0.043
							c0.025-0.194,0.122-0.501,0.055-0.568c0.06-0.264,0.088-0.265,0.103-0.38c-0.017,0.039-0.036,0.115-0.05,0.115
							c0.042-0.106-0.003-0.052-0.014-0.008c0.013-0.157,0.069-0.857-0.001-0.886l0.015-0.002c-0.062-0.03-0.113,0.037-0.157-0.07
							l0.019-0.079l-0.036-0.108c0.011-0.079,0.03-0.045,0.038-0.046c-0.068-0.175-0.117-0.428-0.171-0.647l-0.088,0.271
							c-0.016-0.186-0.042-0.536-0.101-0.554c0,0,0.02-0.128,0.016-0.127c-0.081-0.378-0.164-0.216-0.205-0.362l-0.037-0.195
							l0.088,0.169c-0.062-0.183-0.081-0.26-0.12-0.415l-0.002-0.001c0.003,0.011,0.003,0.019,0.001,0.021l-0.014-0.023
							c-0.038-0.005-0.097-0.086-0.165-0.201c-0.114-0.154-0.242-0.243-0.388-0.52l-0.094-0.021l-0.119-0.201l0.035-0.032
							c0.142,0.167,0.433,0.511,0.613,0.723l0.021-0.008c-0.094-0.108-0.243-0.279-0.32-0.368c-0.028-0.049-0.081-0.193,0.01-0.133
							l-0.104-0.054c-0.364-0.461-0.408-0.415-0.837-0.857l0.026,0.053c-0.103-0.066-0.204-0.131-0.208-0.184
							c-0.29-0.225-0.632-0.401-0.815-0.58l-0.071,0.026c-0.068-0.038-0.138-0.176-0.205-0.115l-0.169-0.026
							c-0.101-0.035-0.174-0.023-0.28-0.09l0,0h0l-0.02-0.014v0.005c-0.225-0.094-0.012,0.049-0.268-0.062
							c-0.076-0.064-0.112,0.041-0.236-0.01c0,0-0.112-0.121-0.114-0.113c-0.236-0.071-0.291,0.004-0.641-0.03
							c-0.165-0.045-0.247-0.121-0.129-0.172c-0.161,0.06-0.074,0.041-0.282,0.059c-0.032-0.034-0.01-0.038,0.037-0.062
							c-0.185-0.055-0.114,0.026-0.253,0.03c-0.039,0.062-0.081,0.157-0.125,0.165l0.053,0.013
							c-0.142,0.044-0.294,0.073-0.463,0.062l0.002-0.029l-0.175,0.031l-0.017-0.035l-0.251,0.038l0.037,0.006
							c-0.059,0.01-0.242,0.086-0.354,0.098l-0.001-0.021c-0.318,0.043-0.563,0.159-0.888,0.331l0.026-0.061
							c-0.129,0.021-0.004,0.075-0.146,0.127l-0.029-0.044c-0.088,0.124-0.158,0.068-0.252,0.09l0.07,0.039l-0.159,0.069
							c-0.179,0.071-0.147-0.018-0.14-0.062l-0.088,0.107l-0.054-0.038c-0.043,0.111-0.101,0.022-0.209,0.164
							c-0.023-0.01,0.002-0.048-0.048-0.02l-0.166,0.244l0.107-0.136l0.036,0.083c-0.093,0.161-0.186,0.14-0.266,0.237l0.049-0.074
							c-0.142,0.145-0.174,0.123-0.275,0.182c0.039-0.011,0.096-0.027,0.041,0.033c-0.042,0.041-0.045-0.002-0.096,0.027
							c0.034,0.056-0.07,0.153-0.168,0.238c-0.005-0.007-0.009-0.015-0.007-0.024c-0.015,0.031-0.015,0.055-0.062,0.09l-0.025-0.07
							l-0.026,0.128c-0.061,0.045-0.095,0.159-0.121,0.124l0.017-0.042l-0.371,0.428l-0.047-0.023
							c0.014,0.078-0.208,0.233-0.116,0.271c-0.092,0.069-0.17,0.388-0.228,0.283c-0.174,0.336-0.227,0.531-0.384,0.956
							c-0.117,0.13-0.256,0.563-0.298,0.853c-0.009,0.578-0.074,0.946,0.044,1.521c-0.042,0.179-0.01,0.397,0.03,0.614
							c0.073,0.212,0.164,0.418,0.185,0.608l0.075,0.084c0.004,0.129,0.043,0.284,0.114,0.438c0.083,0.149,0.172,0.308,0.223,0.48
							c0.059,0.066,0.086,0.103,0.097,0.119c-0.006-0.016-0.009-0.041,0.013-0.062c0.029,0.099,0.147,0.262,0.089,0.281l-0.017-0.02
							c-0.065,0.025,0.172,0.25,0.214,0.356l0.013-0.085l0.111,0.152l-0.042-0.031c0.597,0.563,0.765,0.922,1.444,1.305
							c-0.123,0.003,0.148,0.048,0.119,0.111c0.121,0.175,0.329,0.154,0.478,0.204c0.001-0.003,0.005-0.006,0.016-0.007l0.239,0.138
							c-0.185,0.011,0.208,0.02,0.041,0.023c0.313,0.178,0.726,0.273,1.136,0.398c0.428,0.035,0.87,0.1,1.286,0.104l-0.037-0.021
							c0.211-0.015,0.469-0.07,0.633-0.047c0.166,0.021,0.339-0.094,0.397-0.111c0.157-0.092,0.329-0.055,0.256-0.037
							c0.178-0.066,0.318-0.2,0.575-0.239c0.131,0.083,0.599-0.37,0.646-0.287l-0.001-0.009c0.327-0.097,0.547-0.33,0.841-0.526
							c0,0-0.003,0.012-0.007,0.022l0.362-0.659l-0.361-0.101l-0.585,0.157c0,0-0.068,0.062-0.169,0.153
							c-0.118,0.068-0.275,0.16-0.432,0.252c-0.159,0.088-0.312,0.194-0.438,0.247c-0.13,0.044-0.217,0.073-0.217,0.073
							s-0.285,0.062-0.57,0.123c-0.288,0.038-0.579,0.023-0.58,0.023c0,0-0.174,0.02-0.435,0.05c-0.262-0.021-0.611-0.05-0.96-0.078
							c-0.336-0.1-0.672-0.199-0.924-0.273c-0.233-0.123-0.389-0.205-0.389-0.205l-0.212-0.034c-0.414-0.37-1.052-0.739-1.343-1.283
							l-0.056,0.026c-0.111-0.129-0.074-0.142-0.092-0.179c-0.939-1.26-1.147-3.074-0.594-4.385
							c0.049-0.127,0.228-0.498,0.318-0.571c0.114-0.458,0.456-0.824,0.751-1.177L19.88,73.81c-0.008-0.009,0.142-0.165,0.147-0.159
							c0.01-0.002,0.016,0.002,0.014,0.01c0.161-0.186,0.479-0.419,0.74-0.557l-0.012,0.014c1.451-0.879,3.33-1.138,4.834-0.212
							c0.677,0.408,1.444,1,1.867,1.821c0.006,0.044,0.066,0.179,0.155,0.354c0.048,0.091,0.099,0.188,0.154,0.292
							c0.033,0.113,0.069,0.231,0.105,0.354C28.072,76.195,28.107,76.699,28.13,76.78z"/>
						<path fill="#F15353" d="M27.659,79.444l0.003-0.007C27.639,79.426,27.643,79.439,27.659,79.444z"/>
						<polygon fill="#F15353" points="28.65,75.473 28.654,75.486 28.672,75.424 						"/>
						<path fill="#F15353" d="M28.842,78.281c0.039-0.122,0.02-0.132,0.013-0.115C28.851,78.194,28.85,78.206,28.842,78.281z"/>
						<path fill="#F15353" d="M27.194,80.233c-0.039,0.044-0.013,0.036,0.022,0.02c0.039-0.051,0.062-0.083,0.062-0.083
							C27.258,80.186,27.215,80.218,27.194,80.233z"/>
						<path fill="#F15353" d="M27.625,80.246l0.004,0.027C27.648,80.241,27.642,80.238,27.625,80.246z"/>
					</g>
				</g>
			</g>
			<g>
				<g>
					<g>
						<path fill="#F15353" d="M17.414,78.793C17.412,78.776,17.405,78.77,17.414,78.793L17.414,78.793z"/>
						<path fill="#F15353" d="M27.554,81.593l0.009-0.009c0-0.015-0.001-0.027-0.001-0.037L27.554,81.593z"/>
						<path fill="#F15353" d="M28.82,80.016l0.009-0.01C28.822,80.004,28.816,79.998,28.82,80.016z"/>
						<path fill="#F15353" d="M23.327,83.383c-0.018-0.003-0.028-0.001-0.035,0.002C23.307,83.384,23.319,83.383,23.327,83.383z"/>
						<path fill="#F15353" d="M17.486,75.079c0,0-0.001,0.005-0.001,0.009c0.004-0.006,0.007-0.011,0.013-0.019L17.486,75.079z"/>
						<path fill="#F15353" d="M17.493,75.126c-0.021,0.04-0.012-0.018-0.009-0.038c-0.03,0.043-0.046,0.092-0.054,0.143
							C17.449,75.236,17.474,75.143,17.493,75.126z"/>
						<path fill="#F15353" d="M22.563,70.932l-0.02,0.01L22.563,70.932z"/>
						<path fill="#F15353" d="M23.551,84.279c-0.013,0.003-0.021,0.004-0.035,0.008C23.535,84.285,23.544,84.282,23.551,84.279z"/>
						<path fill="#F15353" d="M21.492,71.147l-0.003,0.031C21.496,71.164,21.495,71.154,21.492,71.147z"/>
						<path fill="#F15353" d="M27.562,81.547l0.003-0.018C27.565,81.533,27.563,81.539,27.562,81.547z"/>
						<path fill="#F15353" d="M29.464,78.245c0.009,0.001,0.017-0.002,0.023-0.006l0-0.005L29.464,78.245z"/>
						<path fill="#F15353" d="M24.704,70.629l0.003,0.013l0.043-0.008C24.729,70.629,24.714,70.628,24.704,70.629z"/>
						<path fill="#F15353" d="M29.484,75.635c-0.004-0.002-0.009-0.007-0.012-0.007c0.003,0.046,0.035,0.161,0.081,0.307
							l0.038,0.002L29.484,75.635z"/>
						<path fill="#F15353" d="M28.807,72.538l0.146,0.293c-0.632-0.798-1.012-1.104-1.724-1.598l0.051,0.01
							c-0.119-0.059-0.216-0.01-1.413-0.761l0.002-0.007c-0.047-0.014-0.052,0-0.139-0.047l0.218,0.113
							c-0.146-0.025-0.279-0.03-0.464-0.081c-0.037-0.02-0.046-0.038-0.046-0.05l-0.458-0.125l-0.13-0.087
							c-0.145-0.02-0.1,0.104-0.473,0.005c0.134,0.082-0.195,0.021-0.152,0.062c-0.024-0.011-0.061-0.027-0.094-0.043
							c-0.228-0.014-0.656-0.035-0.761-0.01c0,0,0.872,0.229,1.083,0.323c-0.305-0.048-0.082,0.001-0.025,0.029l0.023-0.015
							c0.18,0.037,0.174,0.07,0.26,0.104l-0.003-0.014l-0.012,0.003c-0.007-0.01-0.001-0.014,0.009-0.016
							c0-0.01,0.009-0.015,0.057,0.003l-0.01,0.002c0.075,0.016,0.2,0.061,0.254,0.08l-0.008,0.035
							c0.147-0.015,0.847,0.339,0.99,0.438c0.139,0.126,0.359,0.18,0.546,0.306c0.308,0.177,0.13,0.129,0.27,0.238
							c0.183,0.123-0.017-0.057,0.063-0.017c0.008-0.012,0.194,0.185,0.188,0.191c-0.121-0.094-0.069-0.022-0.055,0.007
							c0.172,0.15,0.404,0.427,0.504,0.416c0.214,0.22,0.194,0.24,0.292,0.325c-0.024-0.037-0.083-0.101-0.074-0.111
							c0.072,0.1,0.05,0.031,0.017-0.006c0.196,0.074,0.523,0.82,0.62,0.787l-0.012,0.009c0.075-0.003,0.076-0.092,0.185-0.01
							l0.034,0.084l0.104,0.087c0.041,0.08,0,0.055-0.006,0.059c0.156,0.153,0.243,0.453,0.364,0.681l0.012-0.323
							c0.073,0.219,0.19,0.603,0.258,0.62l0.012,0.139c0.055,0.449,0.136,0.277,0.163,0.455l0.007,0.23l-0.062-0.211
							c0.034,0.22,0.04,0.309,0.052,0.483l0.002,0.001c-0.001-0.012,0-0.02,0.002-0.022l0.01,0.029
							c0.036,0.018,0.088,0.122,0.13,0.27c0.028,0.215,0.075,0.384,0.05,0.735l0.068,0.082l-0.011,0.264l-0.048,0.001
							c-0.028-0.246-0.086-0.737-0.122-1.052l-0.023-0.001c0.029,0.189,0.062,0.407,0.072,0.534
							c-0.004,0.063-0.039,0.225-0.082,0.114l0.058,0.113c0.089,0.637,0.017,0.646-0.082,1.301l0.029-0.055
							c0.001,0.134,0.003,0.268-0.039,0.298c-0.078,0.39-0.258,0.772-0.376,0.998l0.038,0.073c-0.028,0.079-0.135,0.169-0.09,0.231
							l-0.061,0.168c-0.058,0.1-0.062,0.176-0.151,0.276h0l0,0.001l-0.017,0.019l0.005,0.001c-0.143,0.218,0.045,0.021-0.121,0.27
							c-0.078,0.064,0.013,0.131-0.066,0.254c0.003,0.003-0.138,0.085-0.144,0.079c-0.205,0.176-0.167,0.257-0.409,0.554
							c-0.138,0.124-0.243,0.144-0.214,0.011c-0.048,0.177-0.011,0.09-0.122,0.284c-0.043,0.005-0.033-0.018-0.022-0.074
							c-0.144,0.126-0.063,0.104-0.171,0.2c0.007,0.068,0.031,0.168-0.004,0.201l0.057-0.023c-0.102,0.123-0.228,0.245-0.388,0.34
							l-0.013-0.026l-0.142,0.136l-0.032-0.021l-0.208,0.188l0.035-0.016c-0.047,0.046-0.237,0.149-0.354,0.193l-0.006-0.02
							c-0.342,0.09-0.53,0.35-0.917,0.48l0.036-0.055c-0.146,0-0.013,0.071-0.179,0.099l-0.025-0.046
							c-0.117,0.105-0.184,0.04-0.285,0.044l0.064,0.052l-0.184,0.04c-0.204,0.039-0.142-0.046-0.123-0.089l-0.12,0.093l-0.039-0.05
							c-0.083,0.088-0.094,0.04-0.265,0.086c-0.019-0.021,0.023-0.037-0.038-0.041l-0.279,0.11l0.171-0.054l-0.008,0.088
							c-0.177,0.083-0.253,0.015-0.383,0.052l0.089-0.034c-0.214,0.042-0.229,0.006-0.351-0.001c0.038,0.013,0.098,0.03,0.01,0.051
							c-0.064,0.012-0.036-0.027-0.097-0.03c-0.012,0.051-0.168,0.124-0.31,0.074c0.002-0.008,0.005-0.016,0.015-0.02
							c-0.036,0.006-0.055,0.019-0.118-0.002l0.039-0.061l-0.122,0.049c-0.079-0.025-0.199,0.01-0.186-0.033l0.046-0.008
							l-0.604-0.074l0-0.052c-0.075,0.078-0.319-0.071-0.315,0.009c-0.098-0.081-0.44-0.1-0.349-0.176
							c-0.367-0.136-0.634-0.05-1.029-0.352c-0.105-0.169-0.552-0.325-0.787-0.527c-0.47-0.368-0.851-0.537-1.235-1.032
							c-0.073-0.183-0.227-0.354-0.393-0.525c-0.13-0.195-0.259-0.4-0.326-0.592l-0.094-0.076c-0.026-0.137-0.124-0.276-0.195-0.443
							c-0.056-0.173-0.117-0.36-0.136-0.55c-0.046-0.082-0.067-0.127-0.075-0.146c0.003,0.017,0.002,0.044-0.024,0.06
							c-0.011-0.108-0.101-0.311-0.038-0.309l0.014,0.024c0.051,0.005-0.117-0.306-0.057-0.438l-0.057,0.075l-0.009-0.204
							l0.018,0.053c-0.095-0.432-0.168-0.759-0.109-1.071c0.049-0.315,0.097-0.614,0.071-1.043c0.045,0.122,0.004-0.167,0.089-0.159
							c0.155-0.178,0.093-0.375,0.119-0.551c-0.003-0.001-0.007-0.005-0.01-0.016l0.096-0.288c0.039,0.208-0.012-0.237,0.017-0.049
							c0.176-0.353,0.422-0.735,0.626-1.157c0.299-0.357,0.571-0.771,0.914-1.068l-0.048,0.007c0.183-0.142,0.387-0.349,0.547-0.43
							c0.16-0.077,0.256-0.3,0.314-0.339c0.149-0.128,0.35-0.138,0.273-0.103c0.175-0.106,0.308-0.277,0.58-0.381
							c0.1-0.012,0.714-0.34,0.751-0.26l0-0.009c0.369-0.048,0.676-0.271,1.091-0.222c0,0-0.01,0.008-0.02,0.015l0.806-0.359
							l-0.25-0.284l-0.799-0.173c0,0-0.133,0.018-0.333,0.043c-0.192,0.062-0.448,0.144-0.704,0.226
							c-0.253,0.089-0.513,0.157-0.693,0.244c-0.175,0.099-0.292,0.164-0.292,0.164s-0.389,0.181-0.778,0.361
							c-0.2,0.085-0.355,0.239-0.492,0.325c-0.131,0.096-0.218,0.159-0.218,0.159s-0.201,0.169-0.502,0.423
							c-0.258,0.296-0.583,0.71-0.911,1.117c-0.247,0.463-0.498,0.926-0.665,1.279c-0.112,0.377-0.187,0.628-0.187,0.628
							l-0.019,0.304c-0.213,0.369-0.207,0.85-0.255,1.32c-0.076,0.475,0.038,0.951,0.026,1.397l0.061,0.01
							c0.028,0.246-0.01,0.235-0.014,0.298c0.396,2.329,2.151,4.233,3.98,5.172c0.147,0.164,0.742,0.321,0.883,0.401
							c0.664,0.181,1.373,0.218,2.047,0.287l-0.025,0.004c0,0.015,0.317-0.005,0.316-0.016c0.014,0.004,0.016,0.011,0.005,0.017
							c0.353-0.098,0.924-0.062,1.359-0.141l-0.023,0.014c2.515-0.608,4.485-2.447,5.268-4.872c0.508-1.106,0.389-2.556,0.15-3.879
							c-0.033-0.117-0.144-0.89-0.56-1.535C29.436,73.165,28.885,72.63,28.807,72.538z"/>
						<path fill="#F15353" d="M25.437,70.411l0.01,0.003C25.454,70.39,25.437,70.394,25.437,70.411z"/>
						<polygon fill="#F15353" points="29.034,74.247 29.027,74.233 29.024,74.303 						"/>
						<path fill="#F15353" d="M26.889,71.839c0.113,0.093,0.118,0.097,0.109,0.074C26.957,71.88,26.923,71.846,26.889,71.839z"/>
						<path fill="#F15353" d="M24.136,70.193c-0.084-0.01-0.054,0.008-0.006,0.029c0.089,0.007,0.146,0.011,0.146,0.011
							C24.241,70.224,24.171,70.203,24.136,70.193z"/>
						<path fill="#F15353" d="M24.427,70.565l-0.028,0.018C24.446,70.583,24.446,70.575,24.427,70.565z"/>
					</g>
				</g>
			</g>
		</g>
	</g>
	<g>
		<path fill="#EF3A3A" d="M63.954,34.158c-0.524-0.214-1.091-0.327-1.671-0.327c-1.182,0-2.292,0.459-3.127,1.295L45.804,48.479
			c-1.83-0.078-3.601,0.607-4.902,1.908L28.905,62.381c-2.549,2.551-2.549,6.699,0,9.248c0.533,0.534,1.145,0.963,1.821,1.283
			l0.845,11.564c0.128,1.752,1.602,3.123,3.357,3.123c0.082,0,0.166-0.002,0.249-0.009c1.852-0.136,3.25-1.753,3.115-3.604
			l-0.858-11.737c0.254-0.188,0.497-0.396,0.72-0.62l11.997-11.996c1.3-1.301,1.986-3.072,1.908-4.902L65.411,41.38
			c0.836-0.834,1.296-1.946,1.296-3.126c0-1.181-0.46-2.292-1.296-3.126c-0.099-0.098-0.201-0.192-0.308-0.279
			c10.244-8.333,19.248-21.59,19.338-21.724c0.201-0.298,0.123-0.703-0.176-0.903c-0.297-0.202-0.701-0.124-0.902,0.175
			C83.271,12.528,74.123,25.956,63.954,34.158z M35.081,86.295c-1.144,0.082-2.131-0.786-2.213-1.912l-1.143-15.634
			c-0.083-1.14,0.774-2.13,1.912-2.215c0.052-0.003,0.104-0.007,0.154-0.007c1.076,0,1.981,0.845,2.059,1.918l1.144,15.636
			C37.075,85.219,36.218,86.211,35.081,86.295z M49.229,58.713L37.313,70.627l-0.167-2.273c-0.134-1.834-1.743-3.252-3.605-3.115
			c-1.853,0.136-3.25,1.753-3.115,3.604l0.185,2.513c-0.28-0.188-0.543-0.402-0.787-0.646c-2.042-2.042-2.042-5.364,0-7.407
			l11.997-11.996c0.712-0.713,1.601-1.192,2.562-1.406l-0.604,0.602c-0.835,0.835-1.296,1.945-1.296,3.126
			c0,1.182,0.46,2.292,1.295,3.127c0.836,0.835,1.946,1.295,3.127,1.295c1.181,0,2.291-0.46,3.126-1.295l0.603-0.604
			C50.422,57.111,49.942,58,49.229,58.713z M64.488,40.459L49.112,55.835c-0.59,0.589-1.374,0.914-2.206,0.914
			c-0.834,0-1.618-0.325-2.207-0.914c-0.59-0.59-0.914-1.373-0.914-2.207s0.324-1.617,0.914-2.207l15.377-15.375
			c0.59-0.59,1.371-0.914,2.207-0.914c0.832,0,1.615,0.324,2.205,0.914c0.113,0.114,0.216,0.238,0.31,0.365l-6.112,5.661
			c-0.265,0.243-0.279,0.655-0.035,0.919c0.129,0.139,0.303,0.209,0.479,0.209c0.157,0,0.314-0.058,0.441-0.174l5.777-5.351
			c0.036,0.188,0.055,0.381,0.055,0.577C65.402,39.086,65.078,39.87,64.488,40.459z"/>
		<g>
			<path fill="none" d="M63.954,34.158c-0.524-0.214-1.091-0.327-1.671-0.327c-1.182,0-2.292,0.459-3.127,1.295L45.804,48.479
				c-1.83-0.078-3.601,0.607-4.902,1.908L28.905,62.381c-2.549,2.551-2.549,6.699,0,9.248c0.533,0.534,1.145,0.963,1.821,1.283
				l0.845,11.564c0.128,1.752,1.602,3.123,3.357,3.123c0.082,0,0.166-0.002,0.249-0.009c1.852-0.136,3.25-1.753,3.115-3.604
				l-0.858-11.737c0.254-0.188,0.497-0.396,0.72-0.62l11.997-11.996c1.3-1.301,1.986-3.072,1.908-4.902L65.411,41.38
				c0.836-0.834,1.296-1.946,1.296-3.126c0-1.181-0.46-2.292-1.296-3.126c-0.099-0.098-0.201-0.192-0.308-0.279
				c10.244-8.333,19.248-21.59,19.338-21.724c0.201-0.298,0.123-0.703-0.176-0.903c-0.297-0.202-0.701-0.124-0.902,0.175
				C83.271,12.528,74.123,25.956,63.954,34.158z M35.081,86.295c-1.144,0.082-2.131-0.786-2.213-1.912l-1.143-15.634
				c-0.083-1.14,0.774-2.13,1.912-2.215c0.052-0.003,0.104-0.007,0.154-0.007c1.076,0,1.981,0.845,2.059,1.918l1.144,15.636
				C37.075,85.219,36.218,86.211,35.081,86.295z M49.229,58.713L37.313,70.627l-0.167-2.273c-0.134-1.834-1.743-3.252-3.605-3.115
				c-1.853,0.136-3.25,1.753-3.115,3.604l0.185,2.513c-0.28-0.188-0.543-0.402-0.787-0.646c-2.042-2.042-2.042-5.364,0-7.407
				l11.997-11.996c0.712-0.713,1.601-1.192,2.562-1.406l-0.604,0.602c-0.835,0.835-1.296,1.945-1.296,3.126
				c0,1.182,0.46,2.292,1.295,3.127c0.836,0.835,1.946,1.295,3.127,1.295c1.181,0,2.291-0.46,3.126-1.295l0.603-0.604
				C50.422,57.111,49.942,58,49.229,58.713z M64.488,40.459L49.112,55.835c-0.59,0.589-1.374,0.914-2.206,0.914
				c-0.834,0-1.618-0.325-2.207-0.914c-0.59-0.59-0.914-1.373-0.914-2.207s0.324-1.617,0.914-2.207l15.377-15.375
				c0.59-0.59,1.371-0.914,2.207-0.914c0.832,0,1.615,0.324,2.205,0.914c0.113,0.114,0.216,0.238,0.31,0.365l-6.112,5.661
				c-0.265,0.243-0.279,0.655-0.035,0.919c0.129,0.139,0.303,0.209,0.479,0.209c0.157,0,0.314-0.058,0.441-0.174l5.777-5.351
				c0.036,0.188,0.055,0.381,0.055,0.577C65.402,39.086,65.078,39.87,64.488,40.459z"/>
			<g>
				<g>
					<g>
						<path fill="#F15353" d="M47.804,57.071C47.842,57.063,47.86,57.056,47.804,57.071L47.804,57.071z"/>
						<path fill="#F15353" d="M57.118,38.256l0.019-0.018c0.006-0.023,0.012-0.043,0.016-0.059L57.118,38.256z"/>
						<path fill="#F15353" d="M60.253,35.312l0.025-0.015C60.272,35.293,60.272,35.284,60.253,35.312z"/>
						<path fill="#F15353" d="M50.32,45.212c-0.026,0.025-0.039,0.042-0.046,0.055C50.292,45.245,50.307,45.228,50.32,45.212z"/>
						<path fill="#F15353" d="M53.678,51.801c0,0-0.007,0.008-0.012,0.014c0.012-0.009,0.021-0.016,0.037-0.026L53.678,51.801z"/>
						<path fill="#F15353" d="M53.633,51.876c-0.072,0.06,0.006-0.03,0.033-0.062c-0.085,0.062-0.158,0.134-0.227,0.212
							C53.453,52.039,53.59,51.898,53.633,51.876z"/>
						<path fill="#F15353" d="M63.563,41.844l-0.025,0.035C63.545,41.869,63.554,41.856,63.563,41.844z"/>
						<path fill="#F15353" d="M51.256,45.562c-0.015,0.017-0.025,0.03-0.041,0.048C51.238,45.587,51.249,45.573,51.256,45.562z"/>
						<path fill="#F15353" d="M61.984,43.396l0.003,0.038C61.994,43.411,61.991,43.401,61.984,43.396z"/>
						<path fill="#F15353" d="M57.152,38.18l0.014-0.03C57.162,38.157,57.158,38.167,57.152,38.18z"/>
						<path fill="#F15353" d="M64.386,35.473c-0.004,0.008,0,0.02,0.006,0.031l0.01,0.007L64.386,35.473z"/>
						<path fill="#F15353" d="M65.325,38.159l0.018-0.032l-0.022-0.031C65.319,38.129,65.321,38.149,65.325,38.159z"/>
						<path fill="#F15353" d="M61.825,39.552c-0.001,0.005-0.008,0.015-0.005,0.017c0.077-0.061,0.26-0.232,0.489-0.452l-0.02-0.026
							L61.825,39.552z"/>
						<path fill="#F15353" d="M59.831,43.493c0.002,0.012-0.256,0.124-0.466,0.141c-0.242,0.033-0.505,0.03-0.496,0.023
							c0.415-0.03,0.746-0.083,0.999-0.294c0.15-0.139,0.289-0.268,0.423-0.392c0.268-0.243,0.513-0.466,0.751-0.683
							c0.477-0.431,0.927-0.843,1.487-1.401l-0.055,0.072c0.09-0.072,0.133-0.161,0.401-0.428c0.134-0.133,0.325-0.312,0.607-0.555
							c0.128-0.108,0.288-0.242,0.495-0.417c0.092-0.075,0.194-0.158,0.308-0.25c0.055-0.043,0.111-0.088,0.171-0.136
							c0.055-0.044,0.034-0.016,0.053-0.025l0.004,0.007c0.004-0.006,0.003-0.024,0.019-0.013c0.007-0.007-0.052-0.013-0.059-0.006
							c0.019-0.042,0.054-0.122,0.129-0.198c0.011,0,0.007,0.024,0.002,0.045c-0.013,0.021,0.166-0.194,0.133-0.116
							c0,0.006-0.073,0.166-0.072,0.16c0.032-0.024,0.179-0.185,0.064,0.077c0.106-0.134,0.023,0.086,0.068,0.05
							c-0.014,0.017-0.035,0.043-0.055,0.067c-0.005,0.018-0.011,0.038-0.017,0.06c-0.018,0.053-0.037,0.11-0.058,0.169
							c-0.042,0.116-0.091,0.237-0.144,0.344c-0.103,0.22-0.22,0.376-0.259,0.443c0,0,0.258-0.205,0.471-0.599
							c0.054-0.095,0.107-0.195,0.154-0.297L65,39.12c0.069-0.153,0.128-0.315,0.17-0.424c-0.128,0.484-0.016,0.127,0.035,0
							l-0.016-0.016c0.076-0.313,0.135-0.395,0.172-0.587l-0.019,0.034l0.007,0.01c-0.013,0.03-0.02,0.031-0.024,0.022
							c-0.014,0.021-0.022,0.021-0.01-0.071l0.005,0.007c0.004-0.079,0.008-0.158,0.013-0.243c-0.004-0.031,0.02-0.124-0.008-0.1
							c-0.026,0.023-0.05,0.043-0.067,0.059l0.047-0.093c-0.144,0.181-0.392,0.37-0.742,0.653c-0.352,0.278-0.741,0.573-0.859,0.683
							c-0.286,0.203-0.566,0.54-0.901,0.819c-0.517,0.463-0.289,0.196-0.565,0.409c-0.334,0.278,0.093-0.027-0.034,0.093
							l-0.415,0.316c0.22-0.209,0.085-0.114,0.035-0.087c-0.334,0.301-0.896,0.731-0.952,0.882c-0.468,0.386-0.486,0.364-0.68,0.538
							c0.072-0.049,0.207-0.157,0.217-0.146c-0.198,0.14-0.08,0.085-0.003,0.023c-0.127,0.138-0.5,0.439-0.842,0.72
							c-0.198,0.183-0.259,0.185-0.372,0.202c-0.072,0.011-0.115,0.019-0.134,0.041l0.006-0.016
							c-0.03,0.033-0.038,0.064-0.054,0.092c-0.013,0.021-0.057,0.081-0.116,0.012c-0.004,0-0.043-0.123-0.04-0.122
							c-0.003,0.006-0.087-0.147-0.086-0.156c-0.015-0.148,0.019-0.08,0.024-0.082c-0.038-0.153-0.048-0.296,0.074-0.399
							c0.215-0.19,0.47-0.415,0.68-0.601l-0.522,0.265c0.347-0.27,0.989-0.765,1.014-0.857l0.237-0.148
							c0.735-0.549,0.416-0.449,0.701-0.673l0.377-0.277l-0.326,0.305c0.301-0.24,0.463-0.371,0.794-0.635l0.001-0.003
							c-0.02,0.016-0.034,0.026-0.04,0.027l0.045-0.044c0.013-0.05,0.164-0.219,0.395-0.435c0.332-0.307,0.543-0.557,1.119-1.035
							l0.07-0.135l0.421-0.362l0.048,0.006c-0.374,0.364-1.089,1.06-1.568,1.525l0.012,0.016c0.274-0.269,0.609-0.6,0.799-0.786
							c0.103-0.087,0.391-0.308,0.248-0.132l0.134-0.184c0.48-0.467,0.717-0.695,0.973-0.943c0.121-0.114,0.248-0.233,0.418-0.393
							c0.101-0.153,0.604-0.292,0.093-0.741c0.009,0,0.103,0.144,0.103,0.144c-0.137-0.153-0.331-0.291-0.473-0.401
							c-0.157-0.122-0.188-0.141-0.224-0.193c-0.709-0.495-1.6-0.884-2.292-0.875l-0.13,0.063c-0.194,0.013-0.509-0.016-0.583,0.092
							c-0.004-0.01-0.395,0.152-0.395,0.152c-0.253,0.097-0.384,0.2-0.66,0.334l0,0l-0.002,0.001
							c-0.016,0.008-0.032,0.017-0.052,0.027l0.005,0.001c-0.498,0.351,0.019,0.018-0.517,0.453
							c-0.167,0.11-0.103,0.204-0.322,0.405l-0.27,0.154c-0.414,0.349-0.422,0.471-0.975,1.024
							c-0.286,0.245-0.463,0.324-0.331,0.105c-0.188,0.294-0.075,0.144-0.371,0.49c-0.07,0.028-0.041-0.011,0.011-0.101
							c-0.311,0.259-0.156,0.195-0.372,0.409c-0.022,0.103-0.029,0.24-0.097,0.312l0.096-0.07c-0.205,0.249-0.443,0.508-0.729,0.751
							l-0.01-0.03l-0.271,0.292l-0.044-0.008l-0.394,0.41l0.062-0.048c-0.091,0.098-0.392,0.417-0.583,0.58l-0.008-0.021
							c-0.545,0.454-0.897,0.925-1.478,1.515l0.047-0.106c-0.229,0.17-0.009,0.101-0.262,0.323l-0.048-0.025
							c-0.161,0.257-0.28,0.26-0.443,0.386l0.115-0.02l-0.281,0.261c-0.314,0.283-0.244,0.123-0.225,0.054l-0.166,0.241
							l-0.082-0.002c-0.1,0.198-0.156,0.141-0.391,0.428c-0.038,0.006,0.019-0.069-0.076,0.012l-0.37,0.489l0.232-0.285l0.03,0.093
							c-0.224,0.317-0.373,0.359-0.548,0.569l0.114-0.151c-0.3,0.33-0.343,0.32-0.534,0.484c0.066-0.043,0.168-0.11,0.049,0.025
							c-0.091,0.097-0.073,0.029-0.168,0.11c0.02,0.062-0.184,0.31-0.408,0.495c-0.003-0.008-0.004-0.019,0.005-0.036
							c-0.046,0.059-0.062,0.097-0.163,0.178l0.008-0.099l-0.132,0.218c-0.129,0.104-0.266,0.308-0.282,0.261l0.057-0.076
							l-0.895,0.873l-0.049-0.024c-0.037,0.138-0.5,0.462-0.409,0.496c-0.201,0.132-0.632,0.68-0.604,0.511
							c-0.586,0.575-0.832,0.957-1.572,1.628c-0.312,0.191-0.981,0.899-1.44,1.346c-0.402,0.426-0.864,0.876-1.103,1.433
							c-0.25,0.543-0.391,1.149-0.328,1.874c-0.03,0.44,0.11,1.003,0.406,1.481c0.29,0.484,0.698,0.878,1.064,1.178
							c-0.002,0.006,0.242,0.103,0.242,0.104c0.493,0.418,1.485,0.604,2.361,0.526c0.213-0.047,0.318-0.093,0.367-0.104
							c-0.04,0.008-0.101,0.014-0.125-0.011c0.253-0.021,0.712-0.241,0.701-0.179l-0.056,0.033c0,0.084,0.676-0.367,0.905-0.533
							c0.001,0.003-0.161,0.046-0.161,0.046c0.007,0.011,0.362-0.302,0.362-0.302l-0.083,0.094c1.208-1.396,1.913-1.823,3.032-3.123
							c-0.11,0.21,0.211-0.263,0.281-0.225c0.371-0.236,0.548-0.578,0.779-0.846c-0.003-0.002-0.003-0.009,0.007-0.026l0.442-0.43
							c-0.191,0.329,0.257-0.37,0.076-0.073c1.187-1.084,2.617-2.619,3.955-3.91l-0.075,0.04c0.337-0.33,0.73-0.766,1.012-0.991
							s0.509-0.598,0.604-0.699c0.247-0.308,0.559-0.5,0.437-0.384c0.288-0.305,0.505-0.646,0.943-1.031
							c0.198-0.083,1.065-1.179,1.144-1.126l-0.002-0.01c0.573-0.481,0.992-1.056,1.602-1.582c0,0-0.011,0.02-0.021,0.039
							l0.957-1.353l-0.547,0.111l-1.178,0.824l-2.675,2.751l-2.234,2.096l-5.246,5.293l-0.328,0.426
							c-1.121,0.949-2.35,2.376-3.527,3.431l0.019,0.064c-0.282,0.269-0.291,0.206-0.37,0.257c-0.692,0.522-1.669,0.649-2.488,0.335
							c-0.822-0.307-1.466-1.058-1.643-1.91c-0.184-0.859,0.082-1.778,0.679-2.382c0.69-0.677,1.365-1.338,2.05-2.011
							c0.282-0.226,1.038-1.014,1.266-1.184c0.803-0.907,1.709-1.812,2.571-2.663l-0.028,0.037l0.396-0.412
							c0.021-0.014,0.027-0.011,0.018,0.006c0.418-0.492,1.171-1.172,1.743-1.714l-0.027,0.038c1.608-1.626,3.171-3.205,4.729-4.779
							c0.782-0.788,1.559-1.57,2.341-2.357c0.411-0.427,0.723-0.724,1.177-0.912c0.416-0.182,0.966-0.262,1.361-0.168
							c0.412,0.111,0.87,0.342,1.289,0.629l0.124,0.088c0.001,0.009,0.025,0.001,0.01,0.027c-0.193,0.182-0.39,0.368-0.588,0.555
							c-0.789,0.746-1.614,1.528-2.483,2.278c-0.239,0.171-1.519,1.36-2.63,2.409c-0.377,0.338-0.334,0.939-0.253,1.185
							c0.104,0.367,0.327,0.776,0.6,0.872c0.278,0.088,0.629-0.019,0.797-0.051C59.606,43.618,59.771,43.545,59.831,43.493z"/>
						<path fill="#F15353" d="M64.604,38.983l-0.003,0.003C64.588,39.032,64.597,39.011,64.604,38.983z"/>
						<polygon fill="#F15353" points="59.569,41.571 59.545,41.593 59.662,41.532 						"/>
						<path fill="#F15353" d="M62.011,40.419c-0.219,0.192-0.225,0.206-0.188,0.186C61.9,40.534,61.967,40.47,62.011,40.419z"/>
						<path fill="#F15353" d="M64.713,39.217c-0.016,0.042,0.004,0.032,0.03,0.003c0.012-0.052,0.021-0.086,0.021-0.086
							C64.749,39.165,64.727,39.193,64.713,39.217z"/>
						<path fill="#F15353" d="M65.205,38.696l0.018,0.022C65.232,38.641,65.222,38.654,65.205,38.696z"/>
					</g>
				</g>
			</g>
			<g>
				<g>
					<g>
						<path fill="#F15353" d="M34.891,65.892C34.917,65.904,34.932,65.905,34.891,65.892L34.891,65.892z"/>
						<path fill="#F15353" d="M34.479,57.901l0.018-0.018c0.006-0.023,0.011-0.043,0.015-0.059L34.479,57.901z"/>
						<path fill="#F15353" d="M37.449,55.038l0.02-0.016C37.462,55.019,37.46,55.01,37.449,55.038z"/>
						<path fill="#F15353" d="M28.338,65.317c-0.01,0.038-0.009,0.06-0.009,0.075C28.331,65.371,28.332,65.348,28.338,65.317z"/>
						<path fill="#F15353" d="M38.67,69.802c0,0-0.007,0.008-0.012,0.014c0.012-0.009,0.021-0.016,0.037-0.026L38.67,69.802z"/>
						<path fill="#F15353" d="M38.626,69.875c-0.07,0.059,0.006-0.029,0.032-0.06c-0.089,0.066-0.139,0.114-0.237,0.223
							C38.463,70.023,38.58,69.902,38.626,69.875z"/>
						<path fill="#F15353" d="M48.33,60.071l-0.024,0.034C48.313,60.096,48.321,60.084,48.33,60.071z"/>
						<path fill="#F15353" d="M29.317,65.146c-0.004,0.019-0.007,0.033-0.011,0.054C29.314,65.173,29.317,65.157,29.317,65.146z"/>
						<path fill="#F15353" d="M46.787,61.589l0.004,0.037C46.797,61.603,46.793,61.593,46.787,61.589z"/>
						<path fill="#F15353" d="M34.512,57.825l0.013-0.029C34.521,57.803,34.517,57.813,34.512,57.825z"/>
						<path fill="#F15353" d="M40.157,52.356c0.007,0.006,0.019,0.005,0.03,0.002l0.008-0.008L40.157,52.356z"/>
						<path fill="#F15353" d="M50.289,56.498c0.003-0.001,0.008-0.003,0.013-0.008c0-0.014-0.001-0.028,0.002-0.042l0.051,0.028
							l-0.018,0.031l0.023-0.025c-0.024-0.013-0.047-0.025-0.068-0.037C50.292,56.461,50.29,56.478,50.289,56.498z"/>
						<path fill="#F15353" d="M43.838,50.953c0,0.006-0.004,0.018-0.002,0.02c0.105-0.121,0.216-0.248,0.387-0.444l-0.014-0.038
							C44.2,50.481,43.838,50.953,43.838,50.953z"/>
						<path fill="#F15353" d="M42.78,56.379c0,0-0.261-0.568-0.248-0.573c0.467,0.874,0.996,1.396,1.545,1.805
							c0.558,0.396,1.17,0.696,2.007,0.813l-0.095-0.001c0.12,0.027,0.22,0.021,0.621,0.035c0.387,0.007,1.179,0.043,2.413-0.459
							l0.003,0.007c0.082-0.045,0.076-0.055,0.247-0.126l-0.431,0.168c0.242-0.133,0.438-0.273,0.741-0.471
							c0.07-0.033,0.1-0.037,0.112-0.031c0,0,0.181-0.131,0.362-0.263c0.177-0.138,0.344-0.29,0.344-0.29l0.237-0.155l0.035-0.043
							c-0.273-0.149-0.546-0.299-0.812-0.445c-0.013,0.186,0.09,0.172-0.119,0.729c0.137-0.206-0.054,0.312-0.002,0.245
							c-0.022,0.034-0.057,0.087-0.089,0.135c-0.105,0.347-0.528,0.887-0.645,1.032c0,0.001,0.3-0.229,0.559-0.557
							c0.266-0.321,0.459-0.778,0.546-0.974c-0.174,0.533-0.031,0.146,0.021,0.044l-0.006-0.041
							c0.101-0.323,0.139-0.315,0.189-0.479c-0.003-0.001-0.009,0.004-0.014,0.007l0.001,0.023
							c-0.011,0.014-0.014,0.003-0.014-0.016c-0.008,0.002-0.012-0.008-0.002-0.054c0.018,0.009,0.048,0.026,0.08,0.043
							c-0.01,0.011-0.021,0.021-0.038,0.036l0.01-0.016c-0.098,0.106-0.289,0.268-0.376,0.331l-0.024-0.027
							c-0.075,0.108-0.432,0.353-0.829,0.535c-0.395,0.189-0.82,0.314-0.979,0.364c-0.327,0.067-0.717,0.231-1.132,0.22
							c-0.659-0.021-0.329-0.059-0.65-0.117c-0.399-0.085,0.075,0.056-0.087,0.033c0,0-0.473-0.141-0.468-0.151
							c0.275,0.066,0.131,0.006,0.084-0.018c-0.413-0.097-0.967-0.446-1.106-0.459c-0.454-0.334-0.421-0.374-0.603-0.527
							c0.051,0.062,0.165,0.174,0.158,0.185c-0.152-0.167-0.089-0.062-0.021,0.002c-0.146-0.093-0.46-0.417-0.681-0.761
							c-0.228-0.339-0.367-0.683-0.419-0.696l0.013-0.007c-0.088-0.046-0.086,0.098-0.215-0.111l-0.036-0.161L42.86,54.92
							c-0.031-0.162,0.01-0.09,0.016-0.092c-0.143-0.369-0.193-0.939-0.152-1.403c-0.006-0.011-0.171,0.504-0.157,0.511
							c-0.026-0.431,0.2-1.132,0.187-1.223l0.125-0.22c0.388-0.726,0.182-0.548,0.35-0.834l0.26-0.329l-0.208,0.354
							c0.224-0.345,0.334-0.47,0.554-0.708l0.001-0.004c-0.015,0.017-0.026,0.026-0.03,0.027l0.032-0.047
							c0.005-0.057,0.118-0.239,0.312-0.448c0.041-0.042,0.077-0.08,0.114-0.119l0.639-0.663l-0.879,0.226
							c-0.347,0.088-0.667,0.157-1.272,0.352l-0.14,0.134c-0.004-0.011-0.494,0.248-0.486,0.26l-0.028-0.038
							c0.398-0.344,1.302-0.661,1.911-0.774l0.996-0.185l-0.694,0.736c-0.034,0.036-0.062,0.066-0.089,0.095l0.009,0.022
							l0.096-0.102l0.793-0.845l-1.116,0.258c-0.335,0.078-0.692,0.184-0.917,0.259c-0.127,0.028-0.47,0.121-0.247-0.008
							l-0.223,0.15c-0.638,0.328-0.882,0.613-1.127,0.838c-0.215,0.2-0.462,0.432-0.971,0.905l0.099-0.064
							c-0.177,0.197-0.353,0.393-0.433,0.417c-0.57,0.559-1.176,1.122-1.586,1.445l-0.04,0.12c-0.121,0.117-0.36,0.235-0.363,0.35
							l-0.237,0.272c-0.166,0.16-0.243,0.282-0.452,0.445l0,0l-0.001,0.001l-0.04,0.03l0.005,0.001
							c-0.387,0.352,0.039,0.032-0.406,0.432c-0.164,0.107-0.099,0.2-0.314,0.397l-0.264,0.149c-0.406,0.34-0.412,0.461-0.952,1.001
							c-0.28,0.239-0.454,0.315-0.326,0.101c-0.184,0.289-0.073,0.142-0.361,0.48c-0.07,0.026-0.041-0.012,0.009-0.101
							c-0.304,0.253-0.152,0.191-0.363,0.4c-0.021,0.102-0.026,0.236-0.091,0.308l0.094-0.069c-0.2,0.244-0.433,0.497-0.711,0.735
							l-0.011-0.03l-0.265,0.285l-0.043-0.009l-0.385,0.4l0.061-0.047c-0.089,0.096-0.382,0.407-0.569,0.567l-0.008-0.021
							c-0.534,0.443-0.877,0.905-1.444,1.481l0.045-0.104c-0.225,0.165-0.008,0.099-0.255,0.316l-0.048-0.024
							c-0.157,0.252-0.274,0.254-0.434,0.376l0.114-0.018l-0.275,0.255c-0.308,0.276-0.24,0.119-0.222,0.051l-0.161,0.237
							l-0.082-0.004c-0.098,0.198-0.149,0.13-0.386,0.426c-0.039,0.01,0.023-0.076-0.08,0.021c-0.016-0.008-0.368,0.575-0.354,0.581
							c0,0,0.05-0.089,0.099-0.177c0.056-0.086,0.112-0.171,0.112-0.171l0.037,0.093c-0.2,0.366-0.333,0.453-0.45,0.726l0.073-0.191
							c-0.178,0.346-0.229,0.442-0.357,0.691c0.043-0.073,0.11-0.184,0.055,0.001c-0.042,0.135-0.055,0.062-0.108,0.186
							c0.045,0.05-0.024,0.379-0.104,0.673c-0.007-0.006-0.014-0.014-0.016-0.034c-0.003,0.079,0.004,0.12-0.032,0.252l-0.051-0.089
							l0.026,0.267c-0.041,0.17-0.003,0.424-0.048,0.399l-0.006-0.099c-0.036,0.001-0.006,1.304,0.026,1.301l-0.049,0.024
							c0.082,0.118,0.089,0.705,0.172,0.645c-0.006,0.254,0.284,0.915,0.149,0.807c0.277,0.811,0.535,1.2,1.072,2.089
							c0.08,0.204,0.334,0.559,0.661,0.891l0.995,1.013l-0.1-1.423c-0.022-0.311-0.044-0.627-0.063-0.898
							c-0.063-0.601-0.117-1.109-0.17-1.614c-0.051-0.472-0.05-0.897,0.141-1.42c0.304-0.562,0.882-1.411,1.595-1.612
							c-0.002-0.005,0.163-0.112,0.163-0.112c0.449-0.094,1.19-0.267,1.805,0.013c0.161,0.019,0.237,0.061,0.274,0.067
							c-0.027-0.013-0.065-0.038-0.068-0.071c0.173,0.077,0.521,0.242,0.463,0.284l-0.042-0.021
							c-0.054,0.03,0.496,0.282,0.591,0.491l-0.039-0.125c0.007-0.005,0.244,0.262,0.238,0.267l-0.071-0.063
							c0.571,0.538,0.737,1.143,0.775,1.686c0.02,0.327,0.038,0.637,0.057,0.956c0.021,0.246,0.044,0.503,0.072,0.822
							c0.027,0.251,0.061,0.551,0.104,0.939c-0.065-0.182,0.006,0.176,0.021,0.437c0.062-0.06,0.104-0.091,0.097-0.057
							c0.476-0.34,0.982-1.011,1.333-1.398c-0.002-0.003,0-0.011,0.018-0.038l0.437-0.424c-0.186,0.323,0.25-0.362,0.075-0.071
							c1.161-1.059,2.557-2.559,3.866-3.82l-0.074,0.039c0.329-0.322,0.713-0.749,0.988-0.968c0.275-0.22,0.497-0.586,0.589-0.685
							c0.241-0.301,0.547-0.487,0.428-0.374c0.281-0.298,0.492-0.633,0.92-1.009c0.195-0.079,1.04-1.153,1.118-1.1l-0.001-0.011
							c0.561-0.469,0.969-1.032,1.565-1.546c0,0-0.01,0.021-0.02,0.039l0.931-1.326l-0.539,0.104l-1.155,0.802l-2.613,2.689
							l-2.185,2.047l-4.954,4.999c0.013-0.013-0.039,0.138-0.052,0.15c-0.017,0.001-0.031,0.001-0.045,0.002
							c0.005,0.464,0.134-2.269-0.924-3.398l-0.07,0.011c-0.325-0.37-0.299-0.352-0.375-0.451c-0.771-0.692-1.847-1.044-2.881-0.945
							c-1.037,0.086-2.018,0.625-2.652,1.423c-0.647,0.785-0.934,1.853-0.837,2.808c0.06,0.866,0.118,1.714,0.176,2.558
							c0.268-0.122,0.535-0.245,0.799-0.366c-0.258-0.267-0.484-0.562-0.679-0.869c-0.166-0.279-0.627-1.162-0.657-1.428
							c-0.454-1.003-0.621-2.221-0.419-3.278l0,0.041c0,0,0.016-0.126,0.044-0.248c0.021-0.125,0.057-0.245,0.057-0.245
							c0.01-0.019,0.018-0.02,0.018-0.002c0.052-0.278,0.186-0.619,0.388-0.93c0.201-0.32,0.467-0.553,0.766-0.834l-0.027,0.037
							c3.183-3.168,6.052-6.194,9.26-9.284c0.681-0.62,1.376-1.319,2.091-2.047c0.374-0.379,0.679-0.724,1.054-0.933
							c0.369-0.218,0.834-0.335,1.346-0.439l-0.488-0.888c-0.212,0.208-0.404,0.427-0.584,0.654c-0.152,0.173-1.06,1.32-1.203,2.873
							C41.8,54.899,42.629,56.214,42.78,56.379z"/>
						<path fill="#F15353" d="M49.696,57.546l-0.016,0.012C49.694,57.578,49.714,57.554,49.696,57.546z"/>
						<polygon fill="#F15353" points="42.728,53.396 42.724,53.425 42.771,53.32 						"/>
						<path fill="#F15353" d="M46.116,57.722c-0.262-0.062-0.274-0.064-0.24-0.044C45.97,57.7,46.054,57.719,46.116,57.722z"/>
						<path fill="#F15353" d="M49.626,57.442c-0.054,0.121-0.021,0.081,0.025,0.016c0.047-0.131,0.08-0.22,0.08-0.22
							C49.7,57.309,49.662,57.376,49.626,57.442z"/>
						<path fill="#F15353" d="M50.133,57.004l0.008,0.051C50.159,56.968,50.15,56.97,50.133,57.004z"/>
					</g>
				</g>
			</g>
			<g>
				<g>
					<g>
						<path fill="#F15353" d="M31.721,74.729C31.72,74.747,31.725,74.756,31.721,74.729L31.721,74.729z"/>
						<path fill="#F15353" d="M36.532,70.523l0.001,0.015c0.013,0.011,0.024,0.02,0.032,0.026L36.532,70.523z"/>
						<path fill="#F15353" d="M36.627,72.86l-0.002,0.015C36.632,72.873,36.64,72.875,36.627,72.86z"/>
						<path fill="#F15353" d="M33.552,66.13c-0.025,0.003-0.039,0.007-0.049,0.013C33.523,66.137,33.541,66.133,33.552,66.13z"/>
						<path fill="#F15353" d="M32.097,78.995c0,0-0.001-0.005-0.002-0.01c-0.002,0.009-0.003,0.015-0.005,0.025L32.097,78.995z"/>
						<path fill="#F15353" d="M32.073,78.95c0.005-0.052,0.018,0.013,0.022,0.035c0.012-0.058,0.009-0.115-0.002-0.172
							C32.074,78.815,32.085,78.924,32.073,78.95z"/>
						<path fill="#F15353" d="M34.077,86.464l-0.028-0.003C34.057,86.462,34.067,86.463,34.077,86.464z"/>
						<path fill="#F15353" d="M33.815,67.024l-0.023,0.004C33.804,67.029,33.811,67.027,33.815,67.024z"/>
						<path fill="#F15353" d="M32.991,85.595l-0.033,0.004C32.976,85.604,32.985,85.601,32.991,85.595z"/>
						<path fill="#F15353" d="M36.565,70.564l0.013,0.017L36.565,70.564z"/>
						<path fill="#F15353" d="M36.766,75.016c-0.009,0.001-0.016,0.007-0.021,0.013l0,0.006L36.766,75.016z"/>
						<path fill="#F15353" d="M36.331,85.706l0.012,0.005l0.015-0.046C36.344,85.682,36.335,85.696,36.331,85.706z"/>
						<path fill="#F15353" d="M36.855,77.979c0.003,0.002,0.007,0.009,0.011,0.009c0.006-0.051-0.001-0.185-0.015-0.354
							l-0.037-0.008L36.855,77.979z"/>
						<path fill="#F15353" d="M36.252,81.271l0.049-0.319c0.107,1.008,0.069,1.484,0.191,2.346l-0.02-0.047
							c-0.004,0.063,0.036,0.11,0.065,0.316c0.005,0.201,0.115,0.631-0.114,1.092l-0.007-0.002c-0.01,0.034,0.009,0.041-0.036,0.102
							c0.005,0.003,0.096-0.161,0.096-0.161c-0.012,0.11-0.005,0.219-0.07,0.358c-0.022,0.025-0.04,0.028-0.052,0.026
							c0.016,0.009-0.197,0.312-0.197,0.312l-0.112,0.05c-0.063,0.089,0.049,0.148-0.238,0.281c0.138-0.004-0.113,0.114-0.063,0.124
							c-0.018,0.002-0.056,0.008-0.088,0.008c-0.161,0.102-0.509,0.188-0.599,0.225c0,0,0.192,0.024,0.422-0.001
							c0.229-0.021,0.49-0.106,0.601-0.151c-0.266,0.155-0.062,0.057,0.001,0.037l0.007-0.025c0.16-0.097,0.183-0.073,0.266-0.126
							l-0.012-0.004l-0.005,0.012c-0.012,0.001-0.012-0.007-0.007-0.017c-0.008-0.005-0.007-0.016,0.03-0.052l-0.003,0.011
							c0.053-0.06,0.147-0.158,0.184-0.206l0.029,0.021c0.02-0.075,0.174-0.255,0.3-0.476c0.127-0.217,0.217-0.476,0.221-0.578
							c0.071-0.205-0.014-0.456-0.007-0.692c-0.017-0.385,0.039-0.195,0.056-0.391c0.005-0.243-0.039,0.052-0.048-0.045l0.029-0.292
							c0.017,0.167,0.032,0.074,0.043,0.043c-0.012-0.25,0.025-0.648-0.052-0.721c0.01-0.339,0.039-0.342,0.031-0.486
							c-0.009,0.049-0.014,0.146-0.029,0.147c0.022-0.137-0.013-0.063-0.016-0.008c-0.046-0.203,0.053-1.077-0.029-1.115
							l0.014-0.001c-0.062-0.043-0.114,0.037-0.157-0.104l0.02-0.098l-0.036-0.143c0.012-0.099,0.031-0.052,0.039-0.053
							c-0.044-0.233-0.036-0.563-0.049-0.85l-0.139,0.313c0.02-0.242,0.063-0.682,0.008-0.726l0.043-0.148
							c0.068-0.489-0.069-0.333-0.052-0.528l0.041-0.246l0.017,0.241c0.012-0.243,0.024-0.341,0.049-0.536l-0.002-0.002
							c-0.001,0.014-0.003,0.022-0.007,0.024l-0.004-0.033c-0.032-0.027-0.061-0.151-0.071-0.321
							c-0.009-0.242-0.066-0.427-0.032-0.816l-0.067-0.092l0.015-0.291l0.048-0.004c0.024,0.277,0.073,0.825,0.104,1.179
							l0.022,0.005c-0.019-0.19-0.046-0.459-0.061-0.603c0.004-0.07,0.041-0.252,0.083-0.125l-0.057-0.13
							c-0.058-0.72-0.061-0.725-0.062-1.479l-0.02,0.066c-0.025-0.147-0.049-0.295-0.014-0.34c-0.025-0.452-0.029-0.921,0.01-1.219
							l-0.061-0.06c-0.004-0.096,0.071-0.245-0.012-0.285l-0.04-0.202c-0.005-0.131-0.043-0.208-0.022-0.358l0,0v-0.001l0.005-0.028
							l-0.005,0.002c0.003-0.297-0.05,0.006-0.042-0.334c0.032-0.111-0.08-0.114-0.08-0.279l0.069-0.171
							c0.025-0.302-0.06-0.347-0.092-0.778c0.014-0.21,0.075-0.315,0.146-0.183c-0.088-0.183-0.055-0.082-0.108-0.33
							c0.027-0.04,0.036-0.015,0.067,0.039c0.02-0.225-0.038-0.136-0.048-0.303c-0.061-0.045-0.157-0.095-0.165-0.148l-0.013,0.066
							c-0.043-0.176-0.072-0.368-0.059-0.577l0.03,0.006l-0.031-0.219l0.036-0.017l-0.034-0.313l-0.007,0.044
							c-0.01-0.073-0.041-0.314-0.032-0.454l0.021,0.004c0.017-0.202,0.003-0.366-0.031-0.57c-0.033-0.225-0.114-0.448-0.222-0.695
							l0.068,0.049c-0.041-0.188-0.077-0.023-0.156-0.228l0.04-0.034c-0.154-0.138-0.12-0.222-0.18-0.351l-0.017,0.092
							c0.005-0.004-0.147-0.205-0.147-0.205c-0.175-0.217-0.062-0.184-0.003-0.18c0,0-0.176-0.1-0.178-0.095l0.009-0.07
							c-0.154-0.037-0.103-0.104-0.333-0.213c-0.006-0.03,0.056-0.008-0.013-0.061c0.001-0.01-0.407-0.12-0.407-0.111
							c0,0,0.242,0.065,0.24,0.071l-0.066,0.063c-0.253-0.048-0.308-0.145-0.489-0.174l0.125,0.012
							c-0.288-0.064-0.296-0.097-0.461-0.142c0.05,0.024,0.124,0.06,0.004,0.054c-0.089-0.007-0.041-0.04-0.129-0.056
							c-0.029,0.056-0.247,0.068-0.447,0.079c0.001-0.009,0.004-0.017,0.017-0.023c-0.051,0.015-0.072,0.035-0.157,0.04l0.036-0.074
							l-0.146,0.097c-0.11,0.011-0.244,0.109-0.245,0.062l0.054-0.032c-0.016-0.036-0.751,0.346-0.736,0.372l-0.041-0.034
							c-0.025,0.101-0.364,0.282-0.277,0.331c-0.156,0.074-0.352,0.506-0.38,0.376c-0.283,0.489-0.314,0.816-0.347,1.493
							c-0.071,0.206-0.004,0.739,0.013,1.095c0.086,0.688,0.15,1.202,0.229,1.838c-0.087,0.434,0.119,1.058,0.085,1.52l0.056,0.122
							c-0.052,0.31,0.073,0.768,0.031,1.199c0.028,0.104,0.039,0.157,0.042,0.182c0.001-0.02,0.008-0.05,0.037-0.062
							c-0.012,0.124,0.032,0.368-0.029,0.355l-0.008-0.031c-0.061-0.014,0.055,0.368,0.013,0.508l0.058-0.079l0.006,0.231
							l-0.017-0.061c0.215,0.991,0.046,1.459,0.244,2.391c-0.079-0.119,0.05,0.184-0.025,0.201
							c-0.078,0.244,0.053,0.438,0.093,0.631c0.004,0,0.008,0.002,0.015,0.013l0.016,0.341c-0.111-0.196,0.098,0.239,0.002,0.059
							c-0.007,0.893,0.151,2.045,0.193,3.074l0.021-0.047c0.015,0.261,0.068,0.582,0.043,0.782
							c-0.025,0.201,0.094,0.428,0.104,0.505c0.059,0.213-0.012,0.416-0.014,0.323c0.036,0.244,0.116,0.412,0.135,0.797
							c-0.028,0.068,0.043,0.318,0.162,0.525c0.11,0.212,0.255,0.378,0.221,0.409L33,85.594c0.229,0.432,0.663,0.639,1.107,0.868
							c0,0-0.015,0.001-0.03,0.002c0,0.001,0.271,0.034,0.526-0.004c0.256-0.033,0.481-0.12,0.481-0.12
							c-0.011-0.001-0.258-0.299-0.247-0.307c0,0-0.169-0.071-0.308-0.17c-0.141-0.101-0.247-0.219-0.247-0.219
							s-0.385-0.153-0.633-0.489c-0.264-0.321-0.316-0.745-0.317-0.745l-0.028-1.681l-0.334-4.113l-0.091-0.289
							c0.062-0.817-0.153-1.845-0.13-2.723l-0.061-0.014c-0.021-0.245,0.017-0.231,0.023-0.293c-0.177-2.271-0.439-4.657-0.5-6.665
							c0.013-0.147,0.104-0.587,0.215-0.667c0.155-0.483,0.678-0.871,1.188-0.939l-0.017,0.01c0,0,0.214-0.038,0.215-0.028
							c0.009,0.006,0.01,0.013,0.002,0.017c0.262-0.057,0.703,0.152,0.936,0.386l-0.019-0.007c0.39,0.322,0.603,0.707,0.622,1.253
							c0.054,0.612,0.107,1.229,0.161,1.837c0.105,1.22,0.202,2.437,0.252,3.698c-0.012,1.178,0.222,2.529,0.24,3.878
							C35.964,78.32,36.207,81.033,36.252,81.271z"/>
						<path fill="#F15353" d="M36.356,84.981l0.003-0.008C36.337,84.962,36.34,84.978,36.356,84.981z"/>
						<polygon fill="#F15353" points="36.901,79.603 36.901,79.62 36.932,79.552 						"/>
						<path fill="#F15353" d="M37.185,83.195c-0.004-0.162-0.011-0.169-0.019-0.146C37.168,83.108,37.174,83.159,37.185,83.195z"/>
						<path fill="#F15353" d="M35.646,85.729c-0.063,0.025-0.033,0.029,0.011,0.027c0.064-0.029,0.103-0.062,0.104-0.06
							C35.724,85.711,35.686,85.721,35.646,85.729z"/>
						<path fill="#F15353" d="M36.083,85.866l-0.009,0.032C36.111,85.866,36.104,85.861,36.083,85.866z"/>
					</g>
				</g>
			</g>
			<g>
				<g>
					<g>
						<path fill="#F15353" d="M31.247,74.001C31.243,73.915,31.236,73.873,31.247,74.001L31.247,74.001z"/>
						<path fill="#F15353" d="M59.035,47.008c0.019-0.019,0.027-0.028,0.045-0.046c0.029-0.046,0.054-0.085,0.073-0.116
							L59.035,47.008z"/>
						<path fill="#F15353" d="M66.085,39.407c0.007-0.021,0.012-0.035,0.019-0.055C66.095,39.354,66.091,39.341,66.085,39.407z"/>
						<path fill="#F15353" d="M43.653,65.517c-0.066,0.065-0.101,0.104-0.124,0.132C43.57,65.605,43.607,65.565,43.653,65.517z"/>
						<path fill="#F15353" d="M33.345,58.474c0,0-0.019,0.02-0.032,0.034c0.028-0.025,0.053-0.047,0.086-0.076L33.345,58.474z"/>
						<path fill="#F15353" d="M33.208,58.64c-0.172,0.16,0.034-0.058,0.105-0.132c-0.195,0.172-0.38,0.354-0.561,0.546
							C32.767,59.065,33.116,58.712,33.208,58.64z"/>
						<path fill="#F15353" d="M59.436,35.312l-0.064,0.068L59.436,35.312z"/>
						<path fill="#F15353" d="M45.037,65.422l-0.11,0.116C44.976,65.486,45.003,65.458,45.037,65.422z"/>
						<path fill="#F15353" d="M55.473,39.243l-0.022,0.064C55.48,39.26,55.482,39.245,55.473,39.243z"/>
						<path fill="#F15353" d="M59.153,46.847l0.047-0.062C59.188,46.799,59.173,46.821,59.153,46.847z"/>
						<path fill="#F15353" d="M68.622,31.44c0.009,0.004,0.029-0.006,0.053-0.02c0.009-0.008,0.016-0.014,0.021-0.019L68.622,31.44z
							"/>
						<path fill="#F15353" d="M67.947,29.684c0.005,0,0.014-0.003,0.026-0.01l0.129-0.152
							C68.042,29.585,67.995,29.634,67.947,29.684z"/>
						<path fill="#F15353" d="M77.779,21.586c0.005-0.011,0.022-0.038,0.021-0.042c-0.178,0.214-0.543,0.654-1.031,1.244
							l-0.003,0.06L77.779,21.586z"/>
						<path fill="#F15353" d="M81.806,13.491l0.939-1.086c-2.812,3.651-4.257,5.253-6.797,8.271l0.133-0.175
							c-0.411,0.4-0.428,0.83-4.926,5.307l-0.006-0.005c-0.151,0.159-0.14,0.168-0.459,0.471l0.792-0.759
							c-0.44,0.488-0.814,0.924-1.426,1.552c-0.137,0.126-0.191,0.161-0.213,0.166l-1.517,1.518l-0.506,0.422
							c-0.458,0.469-0.166,0.344-1.491,1.494c0.534-0.396-0.615,0.618-0.433,0.496c-0.084,0.065-0.229,0.178-0.357,0.277
							c-0.767,0.707-2.258,1.984-2.618,2.311c-0.001,0,0.817-0.609,1.724-1.334c0.854-0.699,1.824-1.491,2.331-1.906
							c-1.096,0.984-0.279,0.27-0.05,0.09l0.06-0.08c0.658-0.589,0.686-0.56,1.015-0.855c-0.003-0.002-0.016,0.004-0.027,0.009
							l-0.036,0.043c-0.036,0.023-0.021,0.002,0.01-0.033c-0.015,0,0.01-0.033,0.186-0.197l-0.03,0.035
							c0.274-0.265,0.723-0.697,0.924-0.891l0.029,0.022c0.432-0.494,3.174-3.054,3.767-3.708c0.638-0.614,1.339-1.46,2.094-2.265
							c1.182-1.304,0.626-0.621,1.235-1.262c0.745-0.814-0.179,0.14,0.111-0.194l0.906-0.963c-0.5,0.583-0.21,0.283-0.107,0.186
							c0.756-0.858,1.969-2.193,2.138-2.511c1.014-1.163,1.035-1.15,1.458-1.659c-0.15,0.163-0.438,0.496-0.453,0.489
							c0.417-0.458,0.182-0.233,0.016-0.042c0.585-0.737,3.167-3.731,3.215-3.947l0.011,0.009c0.044-0.105,0.001-0.097-0.008-0.128
							c-0.013-0.025,0.035-0.124,0.153-0.307c0.008,0.02,0.18-0.257,0.191-0.146c0.009-0.02,0.312,0.281,0.308,0.299
							c0.184,0.327,0.065,0.182,0.065,0.182c0.085,0.153,0.151,0.271,0.055,0.408c-0.508,0.771-1.229,1.761-1.844,2.603l0.93-1.03
							c-0.657,0.881-1.89,2.433-1.98,2.638L80.877,17.8c-1.409,1.693-0.895,1.25-1.454,1.928l-0.729,0.833l0.68-0.865
							c-0.7,0.849-0.989,1.18-1.568,1.839l-0.005,0.009c0.039-0.046,0.066-0.074,0.074-0.079l-0.096,0.121
							c-0.061,0.122-0.405,0.581-0.9,1.177c-0.708,0.84-1.227,1.53-2.431,2.809l-0.245,0.368l-0.908,0.957l-0.035-0.032
							c0.875-0.948,2.458-2.792,3.51-4.076l0.002-0.037c-0.626,0.759-1.337,1.624-1.767,2.111c-0.214,0.234-0.787,0.81-0.424,0.346
							l-0.365,0.487c-2.194,2.438-2.201,2.467-4.653,4.85l0.229-0.191c-0.473,0.487-0.952,0.964-1.116,1.066
							c-0.65,0.613-1.324,1.22-1.968,1.769c-0.319,0.265-0.631,0.524-0.932,0.773c-0.429,0.342-0.84,0.67-1.233,0.984
							c0.274,0.3,0.562,0.6,0.71,0.807l0.204,0.18c0.236,0.33,0.411,0.899,0.541,1.052c0.023-0.006,0.263,0.797,0.234,0.801
							c0.058,0.514,0.077,0.866-0.09,1.453l0,0l-0.001,0.003c-0.012,0.035-0.024,0.071-0.037,0.109c0.001,0,0.004-0.002,0.006-0.005
							c-0.195,0.572-0.217,0.561-0.205,0.587c-0.007,0.015,0.025,0.083-0.377,0.654c-0.303,0.335-0.244,0.414-0.791,0.947
							l-0.591,0.477c-0.997,0.931-1.104,1.153-2.501,2.549c-0.69,0.65-1.063,0.925-0.663,0.438
							c-0.558,0.663-0.243,0.312-1.028,1.147c-0.146,0.103-0.064,0.012,0.096-0.187c-0.745,0.694-0.425,0.463-0.969,1.004
							c-0.116,0.198-0.233,0.445-0.407,0.624l0.223-0.197c-0.552,0.596-1.169,1.233-1.857,1.88l0.005-0.045l-0.7,0.721l-0.071,0.019
							l-1.007,1.022l0.146-0.132c-0.235,0.242-1.009,1.033-1.469,1.467l0.001-0.031c-0.653,0.608-1.226,1.188-1.818,1.8
							l-0.256,0.264l-0.191,0.196c-0.038,0.076-0.006,0.179-0.013,0.267c0.006,0.222,0.01,0.261,0.006,0.384
							c-0.001,0.105-0.002,0.212-0.012,0.32c-0.028,0.432-0.104,0.885-0.25,1.356l0.033-0.26c-0.239,0.623,0.026,0.201-0.29,0.938
							l-0.064,0.015c-0.247,0.661-0.447,0.791-0.749,1.157l0.189-0.139c0.001,0-0.136,0.183-0.285,0.355
							c-0.147,0.174-0.31,0.333-0.31,0.333c-0.758,0.732-0.521,0.4-0.432,0.264l-0.477,0.551l-0.143,0.058
							c-0.328,0.424-0.384,0.367-1.018,1.051c-0.07,0.038,0.087-0.138-0.144,0.079l-1.028,1.143l0.629-0.68l-0.018,0.142
							c-0.636,0.727-0.932,0.915-1.403,1.418l0.318-0.354c-0.782,0.809-0.85,0.824-1.313,1.258c0.15-0.127,0.381-0.322,0.066,0.007
							c-0.233,0.239-0.15,0.106-0.38,0.322c-0.013,0.095-0.562,0.686-1.1,1.182c0.001-0.013,0.006-0.029,0.036-0.066
							c-0.125,0.139-0.183,0.217-0.423,0.437l0.09-0.181l-0.399,0.484c-0.308,0.281-0.705,0.743-0.697,0.674l0.159-0.177
							l-2.248,2.217l-0.067-0.006c-0.171,0.271-1.237,1.193-1.101,1.184c-0.171,0.145-0.443,0.417-0.708,0.684
							c-0.317,0.313-0.588,0.581-0.803,0.794c0.002,0.219-0.008,0.302-0.041,0.133c0.027,0.567,0.051,1.067,0.075,1.562
							c0.026,0.428,0.052,0.848,0.078,1.274c0.052,0.853,0.102,1.762,0.129,3.021c-0.048,0.9,0.082,3.357,0.139,4.974
							c0.021,0.395,0.041,0.772,0.06,1.137c0.021,0.385,0.03,0.625-0.039,0.926c-0.115,0.567-0.408,1.074-0.81,1.475
							c-0.402,0.399-0.918,0.699-1.508,0.829c-0.551,0.146-1.222,0.011-1.852-0.318c-0.725-0.446-1.459-1.314-1.532-2.395
							c-0.106-1.227-0.22-2.471-0.263-3.517l-0.089-0.567c-0.026-1.393-0.272-3.504-0.342-5.454
							c-0.055-0.508-0.079-0.737-0.09-0.836c0.004,0.088,0.005,0.224-0.021,0.268c-0.02-0.319-0.043-0.703-0.063-1.039
							c-0.009-0.138-0.017-0.269-0.025-0.392l-0.01-0.176c-0.019-0.043-0.083-0.054-0.115-0.078
							c-0.154-0.085-0.236-0.137-0.195-0.133l0.231,0.109c0.046,0.006-0.104-0.074-0.375-0.214
							c-0.133-0.074-0.324-0.176-0.522-0.306c-0.402-0.25-0.821-0.622-0.999-0.853c0,0,0.18,0.271,0.18,0.271
							c-0.017,0.016-0.672-0.725-0.652-0.74l0.174,0.198c-1.416-1.634-1.615-3.396-1.382-4.873c0.128-0.753,0.387-1.476,0.802-2.177
							c0.395-0.713,1.038-1.319,1.791-2.118c-0.354,0.453,0.574-0.626,0.668-0.611c0.835-0.7,1.408-1.437,2.019-2.084
							C32.75,59.051,32.754,59.04,32.786,59l1.107-1.094c-0.589,0.726,0.735-0.849,0.19-0.188c1.46-1.408,3.113-3.061,4.819-4.773
							c0.85-0.844,1.727-1.757,2.574-2.562c0.86-0.764,1.938-1.252,3.025-1.428l-0.194,0.012c0.274-0.059,0.571-0.09,0.873-0.113
							c0.176-0.005,0.249-0.016,0.51-0.009c0.279,0.102,0.472-0.231,0.597-0.331c0.446-0.448,0.869-0.868,1.203-1.174
							c0.667-0.611,1.353-1.442,1.598-1.693c0.67-0.73,1.367-1.308,1.063-1.01c0.74-0.757,1.382-1.523,2.448-2.536
							c0.413-0.297,2.778-2.892,2.874-2.858l0.006-0.017c1.371-1.273,2.568-2.646,4.016-3.983c0,0-0.028,0.034-0.059,0.07
							c0,0,0.134-0.168,0.439-0.359c0.301-0.191,0.757-0.396,1.241-0.542c0.968-0.306,2.002-0.372,2.003-0.372
							c0,0-0.293-0.077-0.595-0.131c-0.302-0.058-0.611-0.093-0.611-0.093s-0.918,0.031-1.84,0.314
							c-0.459,0.144-0.922,0.369-1.241,0.652c-0.255,0.221-0.425,0.369-0.425,0.369l-6.813,6.891l-5.539,5.4
							c0,0-0.172,0.173-0.474,0.477c-0.001,0.002-0.004,0.003-0.009,0.002l-0.096-0.001c-0.168,0.006-0.35,0.006-0.543,0.027
							c-0.387,0.032-0.822,0.099-1.284,0.227c-0.922,0.25-1.95,0.755-2.842,1.554c-0.838,0.807-1.625,1.622-2.469,2.46
							c-3.322,3.333-6.644,6.666-6.644,6.666l-0.902,0.999c-0.675,0.633-1.385,1.322-2.115,2.045
							c-0.784,0.74-1.448,1.74-1.808,2.834c-0.763,2.203-0.286,4.741,0.988,6.479l0.102,0.034c0.767,0.924,0.734,0.848,0.937,1.066
							c0.266,0.231,0.548,0.443,0.846,0.633c0.149,0.094,0.302,0.183,0.457,0.266c0.037,0.021,0.05,0.017,0.049,0.044l0.137,1.823
							l0.298,3.928c0.1,1.309,0.199,2.616,0.299,3.918c0.062,0.674,0.069,1.249,0.178,2.001c0.146,0.736,0.521,1.409,1.036,1.926
							c0.514,0.519,1.162,0.894,1.864,1.077c0.347,0.097,0.714,0.138,1.097,0.123c0.384-0.032,0.723-0.127,1.064-0.248
							c1.34-0.518,2.364-1.772,2.513-3.207c0.022-0.178,0.025-0.355,0.018-0.533l-0.016-0.465l-0.037-0.926
							c-0.023-0.615-0.046-1.227-0.069-1.833c-0.043-1.211-0.085-2.405-0.127-3.584c0.002-0.907-0.135-3.661-0.123-4.374
							l-0.031-0.479l-0.015-0.23l-0.005-0.021c0.437-0.449,0.867-0.893,1.296-1.334c0.498-0.502,0.992-1.001,1.485-1.499
							c1-0.995,1.992-1.984,2.963-2.951l-0.077,0.087l1.012-1.024c0.047-0.04,0.057-0.04,0.028-0.005
							c1.114-1.184,2.964-2.952,4.389-4.341l-0.078,0.087c0.507-0.518,0.99-0.956,1.511-1.533c0.496-0.571,0.901-1.222,1.187-1.919
							c0.29-0.694,0.461-1.435,0.515-2.18c0.014-0.186,0.021-0.373,0.019-0.559c0.001-0.043-0.015-0.029,0.034-0.074l0.729-0.733
							c1.942-1.953,3.867-3.89,5.788-5.822c1.926-1.932,3.846-3.858,5.78-5.799l0.728-0.727c0.248-0.242,0.518-0.544,0.725-0.856
							c0.423-0.634,0.699-1.37,0.788-2.131c0.105-0.753-0.02-1.572-0.298-2.273c-0.137-0.356-0.313-0.695-0.519-1.016
							c-0.096-0.151-0.231-0.339-0.316-0.444l-0.045-0.055l0.231-0.188c4.214-3.395,8.396-8.091,12.321-12.835
							c0.251-0.281,1.283-1.546,2.521-3.179c0.619-0.816,1.291-1.724,1.949-2.642c0.325-0.461,0.651-0.923,0.969-1.374
							c0.325-0.478,0.642-0.944,0.943-1.388c0.311-0.417-0.002-1.066-0.136-1.243c-0.203-0.319-0.572-0.744-0.873-0.868
							c-0.167-0.031-0.275-0.046-0.419,0.028c-0.14,0.087-0.263,0.278-0.382,0.435c-0.159,0.209-0.309,0.408-0.448,0.592
							C82.224,12.943,81.924,13.335,81.806,13.491z"/>
						<path fill="#F15353" d="M69.844,27.232l0.033-0.034C69.858,27.182,69.814,27.239,69.844,27.232z"/>
						<polygon fill="#F15353" points="82.318,15.761 82.366,15.696 82.159,15.922 						"/>
						<path fill="#F15353" d="M76.628,20.958c0.492-0.553,0.509-0.583,0.434-0.511C76.896,20.643,76.761,20.802,76.628,20.958z"/>
						<path fill="#F15353" d="M65.529,31.409c-0.29,0.255-0.17,0.169,0.011,0.03c0.291-0.266,0.493-0.45,0.493-0.45
							C65.879,31.118,65.688,31.277,65.529,31.409z"/>
						<path fill="#F15353" d="M66.927,30.6l-0.075,0.097C67.016,30.539,67.004,30.539,66.927,30.6z"/>
					</g>
				</g>
			</g>
		</g>
	</g>
	<g>
		<path fill="#EF3A3A" d="M39.167,55.618l-6.886,6.428c-0.264,0.245-0.278,0.657-0.032,0.92c0.127,0.138,0.301,0.206,0.476,0.206
			c0.159,0,0.318-0.057,0.443-0.175l6.888-6.429c0.262-0.244,0.276-0.656,0.031-0.92C39.842,55.386,39.431,55.373,39.167,55.618z"/>
		<g>
			<g>
				<g>
					<g>
						<path fill="#F15353" d="M34.48,60.595C34.489,60.59,34.49,60.583,34.48,60.595L34.48,60.595z"/>
						<path fill="#F15353" d="M34.834,60.72l0.005-0.006c-0.004-0.013-0.007-0.024-0.009-0.033L34.834,60.72z"/>
						<path fill="#F15353" d="M35.783,59.937l0.007-0.003C35.786,59.929,35.782,59.923,35.783,59.937z"/>
						<path fill="#F15353" d="M32.876,62.698c-0.003,0.001-0.002,0.004-0.001,0.008L32.876,62.698z"/>
						<polygon fill="#F15353" points="36.085,59.01 36.082,59.014 36.097,59.01 						"/>
						<path fill="#F15353" d="M36.081,59.041c-0.026,0.013-0.006-0.018,0.001-0.027c-0.033,0.009-0.056,0.028-0.073,0.055
							C36.022,59.082,36.062,59.04,36.081,59.041z"/>
						<path fill="#F15353" d="M39.041,56.181l-0.004,0.014L39.041,56.181z"/>
						<path fill="#F15353" d="M33.53,63.332l-0.01,0.017C33.527,63.342,33.53,63.337,33.53,63.332z"/>
						<path fill="#F15353" d="M38.556,56.607l0.015,0.026C38.567,56.621,38.562,56.613,38.556,56.607z"/>
						<path fill="#F15353" d="M34.831,60.681l-0.001-0.015L34.831,60.681z"/>
						<path fill="#F15353" d="M36.626,59.176c0.006,0.006,0.013,0.01,0.02,0.013l0.002-0.003L36.626,59.176z"/>
						<path fill="#F15353" d="M39.892,55.661l-0.002,0.012l0.032-0.008C39.909,55.661,39.899,55.66,39.892,55.661z"/>
						<path fill="#F15353" d="M37.851,58.206l-0.003-0.011c-0.026,0.011-0.079,0.058-0.144,0.119l0.021,0.03L37.851,58.206z"/>
						<path fill="#F15353" d="M39.669,57.66l-0.171,0.061c0.184-0.194,0.334-0.321,0.475-0.443c0.076-0.068,0.137-0.124,0.208-0.188
							c0.069-0.067,0.126-0.125,0.26-0.293l-0.016,0.04c0.044-0.035,0.046-0.09,0.152-0.222c0.054-0.067,0.134-0.153,0.267-0.276
							c0.054-0.049,0.132-0.119,0.246-0.222c0.089-0.044,0-0.088-0.023-0.138c-0.033-0.045-0.07-0.097-0.112-0.154l0.008-0.002
							c-0.032-0.029-0.046-0.023-0.087-0.088l0.099,0.156c-0.109-0.073-0.302-0.204-0.348-0.234c-0.02-0.025-0.015-0.041-0.007-0.05
							c0.011-0.008-0.369-0.223-0.369-0.223c0.003-0.001-0.095-0.101-0.095-0.101c-0.14-0.039-0.132,0.065-0.344-0.071
							c0.068,0.095-0.132,0-0.114,0.045c-0.015-0.013-0.036-0.031-0.056-0.049c-0.082-0.013-0.199-0.033-0.347-0.008
							c-0.141,0.011-0.306,0.125-0.341,0.187c-0.011-0.014,0.289-0.155,0.461-0.066c0.182,0.056,0.31,0.166,0.361,0.223
							c-0.164-0.078-0.046-0.008-0.022,0.025l0.017-0.012c0.092,0.056,0.075,0.094,0.116,0.127l0.003-0.012l-0.009,0.002
							c-0.001-0.009,0.004-0.012,0.011-0.014c0.003-0.009,0.011-0.013,0.037,0.003l-0.007,0.001
							c0.045,0.014,0.111,0.057,0.139,0.075l-0.025,0.027c0.058-0.009,0.161,0.08,0.221,0.167c0.064,0.089,0.079,0.172,0.104,0.201
							c-0.118,0.059-0.116,0.127-0.22,0.195c-0.13,0.105-0.114,0.034-0.195,0.066c-0.081,0.045,0.05,0.012,0.027,0.036l-0.117,0.04
							c0.042-0.044,0-0.035-0.016-0.04c-0.088,0.074-0.294,0.175-0.272,0.253c-0.153,0.097-0.173,0.075-0.231,0.125
							c0.028-0.008,0.073-0.034,0.083-0.023c-0.074,0.025-0.02,0.029,0.007,0.015c-0.058,0.097-0.501,0.287-0.464,0.361l-0.01-0.011
							c0.021,0.061,0.09,0.075,0.057,0.15l-0.055,0.016l-0.038,0.07c-0.05,0.021-0.043-0.008-0.048-0.014
							c-0.072,0.105-0.221,0.199-0.336,0.296l0.226,0.01c-0.118,0.06-0.336,0.16-0.32,0.215l-0.092,0.013
							c-0.256,0.098-0.1,0.154-0.195,0.2l-0.133,0.044l0.094-0.086c-0.113,0.064-0.164,0.085-0.264,0.126l0,0.002
							c0.007-0.003,0.012-0.004,0.015-0.002l-0.012,0.013c0.009,0.032-0.026,0.093-0.093,0.152
							c-0.099,0.081-0.142,0.181-0.333,0.272l0.004,0.079l-0.136,0.078l-0.032-0.036c0.099-0.098,0.318-0.314,0.442-0.438
							l-0.012-0.018c-0.083,0.077-0.164,0.182-0.222,0.229c-0.033,0.019-0.135,0.046-0.107-0.024l-0.02,0.082
							c-0.274,0.264-0.274,0.267-0.601,0.497l0.042-0.006c-0.048,0.064-0.096,0.128-0.138,0.114
							c-0.179,0.156-0.38,0.302-0.534,0.362l0.014,0.064c-0.039,0.032-0.151,0.021-0.116,0.096l-0.062,0.092
							c-0.053,0.044-0.062,0.097-0.141,0.126l0,0h0l-0.016,0.005l0.004,0.003c-0.13,0.088,0.035,0.036-0.117,0.134
							c-0.069,0.009,0.002,0.097-0.07,0.146H35.49c-0.146,0.072-0.111,0.151-0.277,0.307c-0.1,0.053-0.185,0.038-0.173-0.058
							c-0.023,0.123,0,0.067-0.073,0.184c-0.035-0.009-0.029-0.023-0.026-0.063c-0.11,0.054-0.034,0.07-0.1,0.129
							c0.02,0.061,0.06,0.148,0.041,0.171l0.037-0.01c-0.048,0.087-0.113,0.167-0.212,0.22l-0.016-0.024l-0.075,0.091l-0.03-0.022
							l-0.113,0.121l0.023-0.008c-0.025,0.029-0.11,0.126-0.176,0.162l-0.012-0.018c-0.193,0.093-0.261,0.271-0.433,0.44
							l-0.005-0.053c-0.088,0.024,0.027,0.063-0.059,0.114l-0.038-0.035c-0.018,0.109-0.091,0.065-0.151,0.087l0.065,0.031
							l-0.091,0.066c-0.105,0.066-0.112-0.013-0.123-0.052l-0.026,0.098l-0.052-0.034c0.001,0.094-0.052,0.034-0.106,0.135
							c-0.021-0.011-0.01-0.039-0.043-0.021l-0.074,0.184l0.053-0.101l0.049,0.074c-0.038,0.125-0.117,0.096-0.159,0.168
							l0.023-0.057c-0.081,0.104-0.11,0.081-0.177,0.117c0.027-0.004,0.069-0.01,0.038,0.035c-0.025,0.029-0.036-0.009-0.069,0.009
							c0.03,0.052-0.024,0.145-0.047,0.124c-0.003-0.008-0.007-0.016-0.009-0.021c0,0.012,0.004,0.028-0.013,0.021l-0.024-0.061
							c0.002-0.001,0.011,0.063,0.009,0.064c-0.017-0.01-0.028,0.04-0.034-0.004l0.004-0.015c-0.002,0.012-0.087-0.013-0.082-0.023
							l0.02-0.049c-0.016,0.031-0.022,0.02-0.026,0.012c-0.02-0.02-0.048-0.043-0.069-0.003c-0.047-0.095-0.14-0.064-0.054-0.123
							c0.009-0.013-0.178-0.011-0.098-0.061c0.14-0.016,0.072,0.011,0.153-0.053c0.243-0.275,0.442-0.501,0.647-0.733
							c0.245-0.066,0.381-0.412,0.604-0.528l0.016-0.079c0.168-0.055,0.285-0.289,0.5-0.39c0.026-0.053,0.043-0.077,0.051-0.087
							c-0.009,0.006-0.026,0.01-0.05-0.009c0.061-0.028,0.138-0.137,0.172-0.087l-0.008,0.016c0.034,0.05,0.124-0.153,0.211-0.165
							l-0.072-0.02l0.096-0.075l-0.015,0.031c0.29-0.465,0.603-0.479,0.877-0.913c0,0.096,0.047-0.094,0.104-0.043
							c0.157-0.015,0.156-0.173,0.213-0.262c-0.002-0.003-0.005-0.007-0.004-0.016l0.137-0.115c-0.012,0.144,0.04-0.147,0.024-0.02
							c0.392-0.268,0.788-0.738,1.208-1.083l-0.035-0.002c0.104-0.091,0.208-0.229,0.312-0.271c0.104-0.042,0.124-0.202,0.151-0.232
							c0.054-0.109,0.188-0.118,0.149-0.088c0.082-0.092,0.105-0.234,0.255-0.323c0.099,0.021,0.284-0.374,0.351-0.311l-0.004-0.007
							c0.203-0.101,0.278-0.321,0.489-0.438c0,0,0,0.009,0,0.018l0.157-0.529l-0.309-0.133l-0.472,0.1l-0.781,0.803l-0.719,0.538
							l-1.566,1.506l-0.066,0.157c-0.395,0.202-0.7,0.678-1.095,0.929l0.034,0.05c-0.092,0.092-0.111,0.059-0.142,0.072
							c-0.409,0.399-0.876,0.857-1.296,1.268c-0.525,0.495-0.893,0.842-1.584,1.494c-0.031,0.024-0.057,0.045-0.078,0.062
							c0.016,0.024,0.042,0.053,0.067,0.082c0.069,0.076,0.12,0.132,0.174,0.191c0.12,0.133,0.25,0.263,0.293,0.325
							c0.135,0.098,0.303,0.216,0.392,0.271c0.052,0.032,0.098,0.06,0.137,0.084c0.072,0.043,0.144,0.085,0.218,0.121
							c0.296,0.15,0.656,0.066,0.927-0.096l-0.017,0.02c0.008,0.002,0.238-0.193,0.204-0.172c0.008-0.002,0.014,0.003,0.013,0.01
							c0.103-0.167,0.354-0.33,0.536-0.471l-0.005,0.014c0.988-0.907,1.824-1.839,2.853-2.686c0.518-0.35,0.954-0.939,1.527-1.364
							C38.576,58.78,39.596,57.768,39.669,57.66z"/>
						<path fill="#F15353" d="M40.619,55.607l0.008,0.006C40.65,55.6,40.63,55.596,40.619,55.607z"/>
						<polygon fill="#F15353" points="38.525,57.678 38.532,57.672 38.482,57.67 						"/>
						<path fill="#F15353" d="M39.866,56.398c-0.041,0.027-0.038,0.032-0.026,0.035C39.854,56.423,39.864,56.41,39.866,56.398z"/>
						<path fill="#F15353" d="M39.65,55.18c-0.061-0.015-0.04,0.005-0.008,0.029c0.062,0.014,0.097,0.021,0.097,0.021
							C39.717,55.219,39.671,55.192,39.65,55.18z"/>
						<path fill="#F15353" d="M39.753,55.569l-0.021,0.015C39.76,55.588,39.762,55.581,39.753,55.569z"/>
					</g>
				</g>
			</g>
		</g>
	</g>
</g>
</svg>
