<?xml version="1.0" encoding="utf-8"?>
<!-- Generator: Adobe Illustrator 19.0.0, SVG Export Plug-In . SVG Version: 6.00 Build 0)  -->
<svg version="1.1" id="Layer_1" xmlns="http://www.w3.org/2000/svg" xmlns:xlink="http://www.w3.org/1999/xlink" x="0px" y="0px"
	 viewBox="-345 257 100 100" style="enable-background:new -345 257 100 100;" xml:space="preserve">
<style type="text/css">
	.st0{fill:#D13431;}
	.st1{fill:#D3D4D5;}
	.st2{fill:#B2B2B2;}
	.st3{fill:#C9322F;}
	.st4{fill:#DE3636;}
	.st5{fill:#EF3A3A;}
</style>
<path class="st0" d="M-300,317.4c0,0,1.5,4.7,6.8,4.8c5.1,0.2,10.6-2.7,17.4,0.9c3.3,1.8,9.5,9.2,9.9,10c0.6,1.2-2.7,3.7-3.8,2.4
	c-0.8-1-5.6-6.5-8.6-7.8c-6-2.7-9.9,1.4-17.2,0.2c-7.9-1.2-13-10.3-13-10.3"/>
<polygon class="st1" points="-291.7,330.3 -291.6,329.4 -291.6,328.3 -292.5,328.9 "/>
<polygon class="st2" points="-290.4,322.2 -290.3,322.1 -290.3,320 -291.2,320.7 "/>
<polygon class="st3" points="-295.2,320.6 -295.2,322.1 -290.4,322.3 -290.4,320.6 -290.4,320.3 "/>
<path class="st0" d="M-298.1,329.7c0,0,1.4,0.8,2.7,1.1c1.7,0.2,3.7-0.4,3.7-0.4V329l-3.7-0.2l-2.6-0.6L-298.1,329.7L-298.1,329.7z"
	/>
<path class="st4" d="M-287.2,317.6c0,0-0.1,4.5-5,4.5c-2.8,0-4.8-1.8-5.4-2.4c-1.3-1.2-4.8,2.1-3.2,4.2c0.8,1,3.9,3.4,7.6,3.7
	c2.7,0.2,7.2-1,9.7-3.1c3.4-2.8,3.3-7.9,3.3-7.9L-287.2,317.6z"/>
<path class="st5" d="M-295.2,329.3c2.4,0.4,3.4-0.3,3.4-0.3l0.2-0.7h-2.4l2-7.7h1.7l0.2-0.5c0,0-1.1-0.2-2.1-0.2
	c-0.6,0-2.6,0.2-2.6,0.2l-0.2,0.5h1.8l-2.4,7.4l-1.8-0.5l-0.4,0.6C-298.1,328.1-297.1,329.1-295.2,329.3"/>
<path class="st5" d="M-278.4,310.4l-5.1-3.7l-3.4-3.4l-4.1-9.6l-1.9-2.9l0.7-3.7c0,0,17.5,1.9,15.3-2.3s-10.3-6.8-17.3-6.8
	c-6.7,0-13.2,2.1-17,6c-2.4,2.6,13.3,2.1,13.3,2.1l1.7,5.2l-0.4,0.2l-3.3,6.8l-3.3,6.5l-4.7,5l-3.3,0.9l-5.5-0.8
	c0,0,1.5,5.7,3.7,7.4c4.6,3.7,12.7,0.5,18.8,0.5c7.1,0,11.8,4.1,15.9,0.7c4.1-3.4,7.3-8.8,7.3-8.8L-278.4,310.4z"/>
<path class="st0" d="M-292.3,312.5c0,0-0.8,0.9-2.1,0.9c-1.2,0-2-0.9-2-0.9s-4.8,0.9-4.3,1.5c0.5,0.7,4,1.4,6.3,1.4
	c2.3,0,6.7-1,7-1.4s-2.1-2.4-2.1-2.4L-292.3,312.5z"/>
<path class="st3" d="M-273.8,297.6c0.3,5.3-0.5,8.9-2.4,10.4c-2,1.4,6.6-2.3,6.6-2.3l3-4l-0.8-8.9l-2.8-3.5l-4.9-2.6l-6.8,0.2
	C-282,287.2-274.3,288.8-273.8,297.6"/>
<path class="st3" d="M-308.1,286.9c0,0-4.8,1.5-5.8,4.3c-1,2.7-2.7,10.1-1.4,12.7c1.4,2.6,2.4,4.1,3.3,4.6c0.9,0.5-6.4-1.7-6.4-1.7
	l-3.6-8.3v-6.6l5.5-4.5L-308.1,286.9z"/>
<path class="st0" d="M-325.2,289.4c6.9-9.8,26-4.7,31.4-4.7c5.4,0,22.2-4.4,30.1,5.5c2.4,3.1,1.7,13.9,0.8,15.4
	c-1.8,3-10.8,8.2-14.8,7.6c-4.9-0.8-11.2-10.1-13.9-18.2c-0.5-1.7-1.1-3.4-2.2-3.4c-1.2,0-2,1.4-2.7,3.4
	c-2.3,7.2-10.5,17.5-14.3,17.5c-4,0-12.5-4-14.9-8.4C-327.4,301.4-326.2,290.9-325.2,289.4 M-318.7,290.9c-2.5,2-2.3,9.8-0.6,12
	c1.7,2.2,5.4,5,8.6,4.7c8.8-0.8,13.8-16.8,11.6-18.4C-301.4,287.5-311.8,285.4-318.7,290.9 M-289.7,289.8
	c-2.3,1.6,2.9,17.6,11.6,18.4c3.3,0.2,6.9-2.5,8.6-4.7c1.7-2.2,1.9-10-0.6-12C-276.9,286.1-287.3,288.1-289.7,289.8"/>
<path class="st4" d="M-296.9,292c-0.8,5.6-7.5,15.6-11.9,18.4c-2.1,1.2-3.3,1.4-5.1,0.8c-1.8-0.6-8.9-4.7-10.2-5.8
	c-1.3-1.2-1.7-2.4-1.7-3.4c0-1.7,0.1-8.9,0.5-10.6c0.2-0.9,0.5-2.1,2.7-3.4c3.9-2.4,16.2-3.7,22.1-2
	C-296.8,287.2-296.5,289.2-296.9,292 M-302.3,288.1c-5-1.4-15.3-0.3-18.5,1.7c-1.8,1.1-2.1,2.1-2.3,2.8c-0.3,1.4-0.5,7.5-0.4,8.9
	c0,0.8,0.3,1.9,1.4,2.9c1.1,1,7.1,4.3,8.6,4.8c1.5,0.5,2.6,0.3,4.3-0.8c3.7-2.3,8.4-11.1,10.1-15.8
	C-298.3,290.4-299.1,289-302.3,288.1"/>
<path class="st4" d="M-287.8,286.2c5.9-1.7,18.2-0.4,22.1,2c2.2,1.3,2.4,2.4,2.7,3.4c0.4,1.7,0.5,8.9,0.5,10.6
	c0,0.9-0.4,2.3-1.7,3.4c-1.3,1.2-8.4,5.2-10.2,5.8s-3.1,0.4-5.1-0.8c-4.4-2.7-11.1-12.8-11.9-18.4
	C-291.9,289.2-291.4,287.2-287.8,286.2 M-289.1,292.7c1.7,4.7,6.3,13.4,10.1,15.8c1.8,1.1,2.7,1.2,4.3,0.8c1.5-0.5,7.5-3.8,8.6-4.8
	c1.1-1,1.4-2.1,1.4-2.9c0-1.4-0.1-7.5-0.4-8.9c-0.2-0.8-0.4-1.8-2.3-2.8c-3.3-2-13.6-3.1-18.5-1.7C-289.1,289-290,290.4-289.1,292.7
	"/>
<path class="st4" d="M-293.2,297.3c0,0,0.6,14.6,0.9,15.3c0.4,0.7,4.3,1.6,4.9,1.5c0.5-0.1-0.8-4-1.8-7.6
	C-290.4,302.1-292.9,296.6-293.2,297.3"/>
<path class="st4" d="M-295.5,297.3c0,0-0.6,14.6-0.9,15.3c-0.4,0.7-3.7,1.6-4.3,1.5s0.6-4,1.5-7.6
	C-298,302.1-295.8,296.6-295.5,297.3"/>
</svg>
