<?xml version="1.0" encoding="utf-8"?>
<!-- Generator: Adobe Illustrator 19.0.0, SVG Export Plug-In . SVG Version: 6.00 Build 0)  -->
<svg version="1.1" id="Layer_1" xmlns="http://www.w3.org/2000/svg" xmlns:xlink="http://www.w3.org/1999/xlink" x="0px" y="0px"
	 viewBox="-345 257 100 100" style="enable-background:new -345 257 100 100;" xml:space="preserve">
<style type="text/css">
	.st0{clip-path:url(#SVGID_2_);}
	.st1{fill:#B62E29;}
	.st2{clip-path:url(#SVGID_4_);}
	.st3{fill:#D13431;}
	.st4{clip-path:url(#SVGID_6_);}
	.st5{fill:#BC2D2B;}
	.st6{clip-path:url(#SVGID_8_);}
	.st7{clip-path:url(#SVGID_10_);}
	.st8{clip-path:url(#SVGID_12_);}
	.st9{clip-path:url(#SVGID_14_);}
	.st10{clip-path:url(#SVGID_16_);}
	.st11{clip-path:url(#SVGID_18_);}
	.st12{clip-path:url(#SVGID_20_);}
	.st13{fill:#EF3A3A;}
	.st14{clip-path:url(#SVGID_22_);}
	.st15{fill:#DE3636;}
	.st16{clip-path:url(#SVGID_24_);}
	.st17{clip-path:url(#SVGID_26_);}
	.st18{clip-path:url(#SVGID_28_);}
	.st19{clip-path:url(#SVGID_30_);}
</style>
<g>
	<g>
		<g>
			<defs>
				<path id="SVGID_1_" d="M-312,290l-12.6,18.4l3,7.8c7.6,7.4,22,9,32.2,5.6c8.6-2.9,22-11.5,21.8-20.9c-0.1-7.9-3.7-8.9-3.7-8.9
					l-8.5-6.6l-9.7-2.3L-312,290z"/>
			</defs>
			<clipPath id="SVGID_2_">
				<use xlink:href="#SVGID_1_"  style="overflow:visible;"/>
			</clipPath>
			<g class="st0">
				<polygon class="st1" points="-298.2,293.1 -300.5,294.6 -310,295.5 -313.9,293.4 -307.2,286.9 -299.8,285.4 -297.6,287.7 
					-297.2,290 				"/>
			</g>
		</g>
	</g>
	<g>
		<g>
			<defs>
				<path id="SVGID_3_" d="M-312,290l-12.6,18.4l3,7.8c7.6,7.4,22,9,32.2,5.6c8.6-2.9,22-11.5,21.8-20.9c-0.1-7.9-3.7-8.9-3.7-8.9
					l-8.5-6.6l-9.7-2.3L-312,290z"/>
			</defs>
			<clipPath id="SVGID_4_">
				<use xlink:href="#SVGID_3_"  style="overflow:visible;"/>
			</clipPath>
			<g class="st2">
				<path class="st3" d="M-300.5,294.6l-0.9,3.2l-8.8,8.6l-15.2,11.1l-4.4-12.5l11.8-12.1l3.4-1
					C-314.5,291.9-303.8,293.1-300.5,294.6"/>
			</g>
		</g>
	</g>
	<g>
		<g>
			<defs>
				<path id="SVGID_5_" d="M-312,290l-12.6,18.4l3,7.8c7.6,7.4,22,9,32.2,5.6c8.6-2.9,22-11.5,21.8-20.9c-0.1-7.9-3.7-8.9-3.7-8.9
					l-8.5-6.6l-9.7-2.3L-312,290z"/>
			</defs>
			<clipPath id="SVGID_6_">
				<use xlink:href="#SVGID_5_"  style="overflow:visible;"/>
			</clipPath>
			<g class="st4">
				<path class="st5" d="M-300.1,300.2l-1.3-2.4c0,0-7.8,1.7-13.7,6s-8.8,8.6-10.6,11.3s6.6,7.5,6.6,7.5l4.9,0.6l12.5-15.7
					L-300.1,300.2z"/>
			</g>
		</g>
	</g>
	<g>
		<g>
			<defs>
				<path id="SVGID_7_" d="M-312,290l-12.6,18.4l3,7.8c7.6,7.4,22,9,32.2,5.6c8.6-2.9,22-11.5,21.8-20.9c-0.1-7.9-3.7-8.9-3.7-8.9
					l-8.5-6.6l-9.7-2.3L-312,290z"/>
			</defs>
			<clipPath id="SVGID_8_">
				<use xlink:href="#SVGID_7_"  style="overflow:visible;"/>
			</clipPath>
			<g class="st6">
				<path class="st3" d="M-297.2,300.8l-2.9-0.6c0,0-14,15.7-15.6,19.6c-1.6,3.9,0.9,5.4,0.9,5.4l12,2.1l10.6-2.6l0.3-10.9
					L-297.2,300.8z"/>
			</g>
		</g>
	</g>
	<g>
		<g>
			<defs>
				<path id="SVGID_9_" d="M-312,290l-12.6,18.4l3,7.8c7.6,7.4,22,9,32.2,5.6c8.6-2.9,22-11.5,21.8-20.9c-0.1-7.9-3.7-8.9-3.7-8.9
					l-8.5-6.6l-9.7-2.3L-312,290z"/>
			</defs>
			<clipPath id="SVGID_10_">
				<use xlink:href="#SVGID_9_"  style="overflow:visible;"/>
			</clipPath>
			<g class="st7">
				<path class="st5" d="M-293.7,299.9l-3.5,0.8c0,0,1.1,5.7,1.3,12.8c0.2,7.2-0.4,11.1-0.4,11.1l23.5-7.5l3.2-5.1l-4.3-7.9
					L-293.7,299.9z"/>
			</g>
		</g>
	</g>
	<g>
		<g>
			<defs>
				<path id="SVGID_11_" d="M-312,290l-12.6,18.4l3,7.8c7.6,7.4,22,9,32.2,5.6c8.6-2.9,22-11.5,21.8-20.9c-0.1-7.9-3.7-8.9-3.7-8.9
					l-8.5-6.6l-9.7-2.3L-312,290z"/>
			</defs>
			<clipPath id="SVGID_12_">
				<use xlink:href="#SVGID_11_"  style="overflow:visible;"/>
			</clipPath>
			<g class="st8">
				<path class="st3" d="M-292.3,297.4l-1.5,2.5c0,0,15.7,7.5,20.2,12.7c4.5,5.2,7.9-7.6,7.9-7.6v-7.2l-10.6-2.9L-292.3,297.4z"/>
			</g>
		</g>
	</g>
	<g>
		<g>
			<defs>
				<path id="SVGID_13_" d="M-312,290l-12.6,18.4l3,7.8c7.6,7.4,22,9,32.2,5.6c8.6-2.9,22-11.5,21.8-20.9c-0.1-7.9-3.7-8.9-3.7-8.9
					l-8.5-6.6l-9.7-2.3L-312,290z"/>
			</defs>
			<clipPath id="SVGID_14_">
				<use xlink:href="#SVGID_13_"  style="overflow:visible;"/>
			</clipPath>
			<g class="st9">
				<path class="st5" d="M-294.5,293.4l-3.7-0.3c0,0-3.7-10.5-1.9-10.8c1.7-0.2,15.3,2.3,15.3,2.3L-294.5,293.4z"/>
			</g>
		</g>
	</g>
	<g>
		<g>
			<defs>
				<path id="SVGID_15_" d="M-312,290l-12.6,18.4l3,7.8c7.6,7.4,22,9,32.2,5.6c8.6-2.9,22-11.5,21.8-20.9c-0.1-7.9-3.7-8.9-3.7-8.9
					l-8.5-6.6l-9.7-2.3L-312,290z"/>
			</defs>
			<clipPath id="SVGID_16_">
				<use xlink:href="#SVGID_15_"  style="overflow:visible;"/>
			</clipPath>
			<g class="st10">
				<path class="st3" d="M-292.3,295.5l-2.2-2c0,0,6.6-8.2,8.2-8.8c1.7-0.6,8.3,2.2,8.3,2.2v3.1l-11.3,4.9L-292.3,295.5z"/>
			</g>
		</g>
	</g>
	<g>
		<g>
			<defs>
				<path id="SVGID_17_" d="M-312,290l-12.6,18.4l3,7.8c7.6,7.4,22,9,32.2,5.6c8.6-2.9,22-11.5,21.8-20.9c-0.1-7.9-3.7-8.9-3.7-8.9
					l-8.5-6.6l-9.7-2.3L-312,290z"/>
			</defs>
			<clipPath id="SVGID_18_">
				<use xlink:href="#SVGID_17_"  style="overflow:visible;"/>
			</clipPath>
			<g class="st11">
				<path class="st5" d="M-292.3,295.5c0,0,13.3-8.8,14.7-9c3.3-0.5,10.1,12.9,10.1,12.9s-6.2-4.5-24.8-1.9L-292.3,295.5
					L-292.3,295.5z"/>
			</g>
		</g>
	</g>
</g>
<g>
	<g>
		<g>
			<defs>
				<path id="SVGID_19_" d="M-316.6,273.3l-17.1,7.5l-2.6,10.5l4,24.2l6.9,3.2l3.8-2.6c-4.1-12.1,9.1-24.5,20.9-28.2
					c17-5.1,30.6,2.1,33,13.1l8.9,0.1l-2.5-17.8l-8.8-12.8l-20.5-1.5L-316.6,273.3z"/>
			</defs>
			<clipPath id="SVGID_20_">
				<use xlink:href="#SVGID_19_"  style="overflow:visible;"/>
			</clipPath>
			<g class="st12">
				<path class="st13" d="M-272,287.2c0,0,4.5,5.1,4.5,12.2c-0.1,7.1-3.3-0.5-3.3-0.5l-4-7L-272,287.2z"/>
			</g>
		</g>
	</g>
	<g>
		<g>
			<defs>
				<path id="SVGID_21_" d="M-316.6,273.3l-17.1,7.5l-2.6,10.5l4,24.2l6.9,3.2l3.8-2.6c-4.1-12.1,9.1-24.5,20.9-28.2
					c17-5.1,30.6,2.1,33,13.1l8.9,0.1l-2.5-17.8l-8.8-12.8l-20.5-1.5L-316.6,273.3z"/>
			</defs>
			<clipPath id="SVGID_22_">
				<use xlink:href="#SVGID_21_"  style="overflow:visible;"/>
			</clipPath>
			<g class="st14">
				<path class="st15" d="M-280.4,280.9c0,0,2.6-0.7,6,1.3c3.3,2,3.2,5.9,2.6,7.4c-0.6,1.6-2.3,4.6-2.3,4.6l-7.6-2.3
					C-281.9,291.9-281.6,281.5-280.4,280.9"/>
			</g>
		</g>
	</g>
	<g>
		<g>
			<defs>
				<path id="SVGID_23_" d="M-316.6,273.3l-17.1,7.5l-2.6,10.5l4,24.2l6.9,3.2l3.8-2.6c-4.1-12.1,9.1-24.5,20.9-28.2
					c17-5.1,30.6,2.1,33,13.1l8.9,0.1l-2.5-17.8l-8.8-12.8l-20.5-1.5L-316.6,273.3z"/>
			</defs>
			<clipPath id="SVGID_24_">
				<use xlink:href="#SVGID_23_"  style="overflow:visible;"/>
			</clipPath>
			<g class="st16">
				<path class="st13" d="M-291.8,278.9c0,0,2.2-2.2,5.7-2.2s6.4,2.3,6.6,5.7c0.3,3.3-0.5,5.4-2,6.9c-1.7,1.5-7.5,0.5-7.5,0.5"/>
			</g>
		</g>
	</g>
	<g>
		<g>
			<defs>
				<path id="SVGID_25_" d="M-316.6,273.3l-17.1,7.5l-2.6,10.5l4,24.2l6.9,3.2l3.8-2.6c-4.1-12.1,9.1-24.5,20.9-28.2
					c17-5.1,30.6,2.1,33,13.1l8.9,0.1l-2.5-17.8l-8.8-12.8l-20.5-1.5L-316.6,273.3z"/>
			</defs>
			<clipPath id="SVGID_26_">
				<use xlink:href="#SVGID_25_"  style="overflow:visible;"/>
			</clipPath>
			<g class="st17">
				<path class="st15" d="M-305.8,280.4c0,0,2.7-2.9,6.2-3.7c3.5-0.9,6.7-0.5,9.1,2.7c2.3,3.1,2.7,10.3,2.7,10.3s-6-0.6-10.6,1.2
					C-303.1,292.7-305.8,280.4-305.8,280.4"/>
			</g>
		</g>
	</g>
	<g>
		<g>
			<defs>
				<path id="SVGID_27_" d="M-316.6,273.3l-17.1,7.5l-2.6,10.5l4,24.2l6.9,3.2l3.8-2.6c-4.1-12.1,9.1-24.5,20.9-28.2
					c17-5.1,30.6,2.1,33,13.1l8.9,0.1l-2.5-17.8l-8.8-12.8l-20.5-1.5L-316.6,273.3z"/>
			</defs>
			<clipPath id="SVGID_28_">
				<use xlink:href="#SVGID_27_"  style="overflow:visible;"/>
			</clipPath>
			<g class="st18">
				<path class="st15" d="M-320.8,293c0,0-3.5,2-4.9,5.9c-1.2,3.5,0.4,12.7,4.2,17.3c0,0,3-8.2,6.6-12.1L-320.8,293z"/>
			</g>
		</g>
	</g>
	<g>
		<g>
			<defs>
				<path id="SVGID_29_" d="M-316.6,273.3l-17.1,7.5l-2.6,10.5l4,24.2l6.9,3.2l3.8-2.6c-4.1-12.1,9.1-24.5,20.9-28.2
					c17-5.1,30.6,2.1,33,13.1l8.9,0.1l-2.5-17.8l-8.8-12.8l-20.5-1.5L-316.6,273.3z"/>
			</defs>
			<clipPath id="SVGID_30_">
				<use xlink:href="#SVGID_29_"  style="overflow:visible;"/>
			</clipPath>
			<g class="st19">
				<path class="st13" d="M-303.7,282.1c-2.7-3.3-6.8-2.4-12.2,1.7c-4.6,3.5-7.3,8-6,11.5c1.3,3.5,5.9,7.2,5.9,7.2s3.8-5.1,8.2-7.9
					c4.2-2.7,8.7-4.8,8.7-4.8S-300.6,285.7-303.7,282.1"/>
			</g>
		</g>
	</g>
</g>
<g>
	<path class="st5" d="M-284.9,332.2c-0.2,0-0.3-0.1-0.4-0.2l-11.2-8.4c-0.3-0.2-0.4-0.6-0.2-0.8c0.2-0.3,0.6-0.4,0.8-0.2l11.2,8.4
		c0.3,0.2,0.4,0.6,0.2,0.8C-284.6,332.1-284.8,332.2-284.9,332.2z"/>
</g>
<g>
	<path class="st13" d="M-284.9,332.2L-284.9,332.2c-0.5-0.1-0.6-0.4-0.6-0.7l4.7-43.7c0.1-0.4,0.4-0.6,0.7-0.6
		c0.4,0.1,0.6,0.4,0.6,0.7l-4.7,43.7C-284.3,331.9-284.6,332.2-284.9,332.2z"/>
</g>
<g>
	<path class="st13" d="M-284.9,332.2c-0.1,0-0.2,0-0.2,0c-0.4-0.1-0.5-0.5-0.5-0.8l11.7-39.3c0.1-0.4,0.5-0.5,0.8-0.5
		s0.5,0.5,0.5,0.8l-11.7,39.3C-284.4,331.9-284.6,332.2-284.9,332.2z"/>
</g>
<g>
	<path class="st13" d="M-284.9,332.2c-0.1,0-0.2,0-0.3-0.1c-0.3-0.2-0.5-0.6-0.2-0.8l16.8-30.3c0.2-0.3,0.6-0.5,0.8-0.2
		c0.3,0.2,0.5,0.6,0.2,0.8l-16.8,30.3C-284.5,332-284.7,332.2-284.9,332.2z"/>
</g>
<g>
	<path class="st13" d="M-284.9,332.2c-0.4,0-0.6-0.3-0.6-0.6l-3.3-45c0-0.4,0.2-0.6,0.6-0.6s0.6,0.2,0.6,0.6l3.3,45
		C-284.3,331.8-284.6,332.2-284.9,332.2L-284.9,332.2z"/>
</g>
<g>
	<path class="st13" d="M-284.9,332.2c-0.3,0-0.5-0.2-0.6-0.5l-15.2-43.6c-0.2-0.4,0.1-0.7,0.4-0.8c0.4-0.2,0.7,0.1,0.8,0.4
		l15.2,43.6c0.2,0.4-0.1,0.7-0.4,0.8C-284.8,332.2-284.9,332.2-284.9,332.2z"/>
</g>
<g>
	<path class="st13" d="M-284.9,332.2c-0.2,0-0.3-0.1-0.5-0.2l-33.1-31.3c-0.3-0.2-0.3-0.6,0-0.8c0.2-0.3,0.6-0.3,0.8,0l33.1,31.3
		c0.3,0.2,0.3,0.6,0,0.8C-284.6,332.1-284.8,332.2-284.9,332.2z"/>
</g>
<g>
	<path class="st13" d="M-284.9,332.2c-0.1,0-0.2,0-0.2-0.1l-36.5-15.6c-0.3-0.2-0.5-0.5-0.4-0.8c0.2-0.3,0.5-0.5,0.8-0.4l36.5,15.6
		c0.3,0.2,0.5,0.5,0.4,0.8C-284.5,332-284.7,332.2-284.9,332.2z"/>
</g>
</svg>
