<?xml version="1.0" encoding="utf-8"?>
<!-- Generator: Adobe Illustrator 19.0.0, SVG Export Plug-In . SVG Version: 6.00 Build 0)  -->
<svg version="1.1" id="Layer_1" xmlns="http://www.w3.org/2000/svg" xmlns:xlink="http://www.w3.org/1999/xlink" x="0px" y="0px"
	 viewBox="-345 257 100 100" style="enable-background:new -345 257 100 100;" xml:space="preserve">
<style type="text/css">
	.st0{fill:#EAEAEA;}
	.st1{fill:#D1D1D1;}
	.st2{fill:#BDBDBC;}
	.st3{fill:#FFFFFF;}
</style>
<g>
	<path class="st0" d="M-259.7,305.8c0,0,0.1-2.3-1-4.1c-1.1-1.8-2.7-3.1-2.8-3.4s0.4-1.4,0.2-2.9c-0.1-0.8-0.5-1.2-1.8-1.7
		c-1.3-0.5-3.8-0.4-4.8-0.3c-0.9,0.1-16.4,8.9-16.4,8.9l-11.8,0.2c0,0-8.3-0.8-8.3-0.6c-0.1,0.2-3.1,4.3-3.1,4.5
		c0.1,0.2,2.5,6.4,2.5,6.4l8.7,2l8.3,2l8.4-1.8l16.3-5.4L-259.7,305.8z"/>
</g>
<g>
	<path class="st1" d="M-327.4,323.5c0,0,12.2,7.3,25.2,4.9c19.2-3.7,50.2-14.6,50.2-14.6l1.3-5l-21.7,7.5l-19.6,4.7l-13.9,2.4
		L-327.4,323.5L-327.4,323.5z"/>
</g>
<g>
	<path class="st0" d="M-334,322.8c0,0,2.8,4.3,8.9,6c6,1.7,23.1-0.5,23.1-0.5"/>
</g>
<g>
	<path class="st2" d="M-265.8,296.2c-2.5,3.2-15.5,11.2-18,12.2c-0.8,0.3-1.6,0.4-2.7,0.1c-1.2-0.4-4.1-1.2-4.9-1.6
		c-0.8-0.3-1.2-0.8-1.1-1.8c0.1-0.9,0.3-1.7,0.2-2.8c-0.1-0.8-0.2-1-0.7-1.3c-2-1-2.7-1.9-2.7-1.9s17.7-6.5,18.8-6.9
		c1-0.4,1.8-0.5,2.5-0.6c4-0.2,7.3,2.1,8.1,3.2C-265.8,295.6-265.6,296.1-265.8,296.2"/>
</g>
<g>
	<path class="st2" d="M-251.3,307c0,0,2.3,0.5,2.4,1.2c0.2,0.8-0.1,1.1-1.2,1.5c-1.1,0.4-19.8,7-26.7,8.9c-6.9,1.9-26.5,6.4-39,6.1
		c-12.5-0.3-18.9-0.8-21.2-1.5c-2.4-0.8-4.6-1.8-4.6-3c0-1.1,0.3-1.3,0.9-1.8c0.6-0.5,1.3-0.8,1.3-0.8l2.9,0.8l6.1,1.3l6,1.3
		l11.5-0.7l7.3-0.9l15.8-0.9l9.1-2.2l26.6-8.7L-251.3,307z"/>
</g>
<g>
	<path class="st3" d="M-311.5,296.8c0,0-10.1,7.6-13.1,10.2c-3.1,2.4-12.5,9.1-13.7,9.8c-1,0.7-1.9,1.6-1,2.2
		c1.4,0.9,3.6,1.9,4.5,2.4c1,0.5,2.1,0.5,3.5,0.5c3.5,0.1,19.4,0.4,26.8-0.1c19.3-1.1,51.5-12.9,53.5-14.2c0.3-0.2-0.8-1.3-1.5-2
		c-1.2-1-4.4-1.8-5.3-1.6c-0.8,0.2-20.5,12.2-34.3,10.8c-16.1-1.5-13.2-9.8-12.9-12.2c0.1-0.7,2.7-3.3,2.7-3.3L-311.5,296.8z"/>
</g>
<g>
	<path class="st0" d="M-310,305.6c-0.4,0.2-16.2,8.3-16.9,8.7c-0.7,0.4-1.4,0.9-2.2,0.4c-0.8-0.6-2.2-1.1-2.9-1.2
		c-0.7-0.1-1.3-0.1-0.5-1.2c0.8-1,15.7-11.9,16.2-12.3c0.5-0.4,8.6,2.4,8.6,2.9C-307.8,302.9-309.5,305.4-310,305.6"/>
</g>
<g>
	<path class="st1" d="M-285.7,291.3L-285.7,291.3c-0.1,0-6.6-0.2-12.6-1.7c-5.2-1.3-6.1-3.1-6.3-3.3c-0.2-0.3,0-0.7,0.3-0.8
		c0.3-0.2,0.7,0,0.8,0.3c0,0,0.9,1.5,5.6,2.7c5.9,1.5,12.2,1.7,12.3,1.7c0.3,0,0.6,0.3,0.6,0.6
		C-285.1,291.1-285.4,291.3-285.7,291.3z"/>
</g>
<g>
	<path class="st1" d="M-304.6,291.2c-1.1,0.8-9.3,6.9-10,7.4c-0.3,0.3-0.5,0.7,0.2,0.8c0.8,0.4,3.6,1.2,5.2,1.9
		c1.5,0.7,15.7,5.9,16,5.7c0.4-0.4,0.9-3.7,0.9-4.6c0-0.9,0-1.5-1.6-2.2c-1.2-0.6-2.4-2.4-3.1-3.6c-0.5-1,0.1-3.1,1-4.1
		c0.9-1,2.4-1.1,3.2-1.6l0.2-0.4c0,0-0.2-0.3-0.1-0.8s0.4-0.5,0.4-0.5s0.2-0.2,0-0.3s-2.4-0.7-4.4-1.2c-2-0.7-4.1-0.9-4.4-0.9
		c-0.4,0-0.6,0-0.8,0.3c-0.3,0.3-0.5,0.3-0.5,0.8s0,1,0,1.2s-0.1,0.4-0.2,0.5C-302.7,289.9-303.5,290.5-304.6,291.2"/>
</g>
</svg>
