<?xml version="1.0" encoding="utf-8"?>
<!-- Generator: Adobe Illustrator 16.0.0, SVG Export Plug-In . SVG Version: 6.00 Build 0)  -->
<!DOCTYPE svg PUBLIC "-//W3C//DTD SVG 1.1//EN" "http://www.w3.org/Graphics/SVG/1.1/DTD/svg11.dtd">
<svg version="1.1" id="Layer_1" xmlns="http://www.w3.org/2000/svg" xmlns:xlink="http://www.w3.org/1999/xlink" x="0px" y="0px"
	 width="100px" height="100px" viewBox="0 0 100 100" enable-background="new 0 0 100 100" xml:space="preserve">
<path fill="#F9F9F9" d="M45.57,49.102c-0.164-0.217-0.436-0.544-0.545-0.817c0.164-0.218,0.272-0.436,0.436-0.654
	c0.163,0.218,0.436,0.544,0.6,0.763C45.896,48.666,45.733,48.884,45.57,49.102z M41.648,42.946
	c-0.109-0.164,0.054-0.272,0.217-0.055c1.035,1.417,2.179,2.779,3.323,4.305c-0.164,0.217-0.327,0.489-0.49,0.708
	C43.718,46.16,42.738,44.743,41.648,42.946z M21.384,90.881c4.304-6.209,9.806-14.217,12.747-18.465
	c0.055-0.109-0.109-0.218-0.164-0.109c-2.887,4.14-9.151,13.128-10.731,15.361c-0.272,0.436-0.436,0.219-0.272-0.108
	c0,0.054,7.572-11.549,10.676-16.124c0.055-0.056,0.219,0.326,0.272,0.272c5.175-8.008,10.187-15.415,15.252-23.097
	c-4.903-8.062-10.731-16.505-14.979-23.695c-2.343-3.922-3.051-5.012-5.938-10.513c-0.436-0.872-3.323,1.471-2.614,2.724
	c0.763,1.362,3.541,6.373,6.101,10.513c4.576,7.408,8.389,13.672,12.747,20.646c-4.467,6.918-8.334,12.419-12.583,18.957
	c-0.055,0.109,0,0.218,0.109,0.109c4.63-6.7,8.28-11.984,12.692-18.685c0.163,0.272,0.273,0.49,0.436,0.708
	c-4.685,6.754-10.404,14.435-13.945,19.937c-0.109,0.219-0.763,0-0.981,0.327c-2.56,3.867-5.393,7.462-8.17,11.493
	c-1.089,1.58-2.561,5.774-2.016,5.503c0.49-0.273,17.322-24.078,25.493-36.171c0.108-0.108,0.327-0.054,0.218,0.055
	c-6.755,10.078-23.641,34.645-25.874,36.878C19.314,87.94,20.622,91.264,21.384,90.881z M69.102,70.999
	c-3.649-7.136-8.116-14.653-11.765-21.897c-4.358,7.244,15.196-23.532,18.847-30.178c0.218-0.381-0.218-0.435-0.055-0.762
	c0.381-0.762,3.269-5.012,3.922-6.863c0.544-1.525-1.688-2.669-1.852-2.561c-0.872,0.436-16.179,24.622-17.486,26.8
	c-2.723,4.303-5.556,8.606-8.388,12.91c-0.273-0.49,12.691,21.462,13.998,23.806c1.09,1.852,5.829,9.478,6.265,10.186
	c0.272,0.437,0.544-0.708,0.381-1.036c-1.089-2.014-3.05-5.337-4.794-8.551c-0.109-0.164,0.056-0.327,0.165-0.164
	c1.797,3.159,3.595,6.155,4.848,8.226c0.163,0.272,0.489-1.09,0.272-1.689C72.86,77.536,70.464,73.668,69.102,70.999z
	 M71.226,85.544c-0.107-0.219-2.506-4.467-3.595-6.21c-2.07-3.487-4.085-6.918-6.102-10.296c0-0.054,0.165-0.054,0.165-0.108
	c-5.666-8.988-0.491-0.436-11.059-17.976c-0.49,0.762-1.035,1.525-1.525,2.286c-5.502,8.01-11.222,16.888-16.778,24.84
	c-1.961,2.942-7.681,11.876-8.28,13.073c-0.218,0.437,1.308,0.218,1.525-0.108c0.327-0.49,5.502-8.17,8.825-12.91
	c0.108-0.163,0.272,0,0.163,0.164c-3.269,4.793-7.844,12.038-7.844,12.311c0,0.599,3.214-1.417,3.922-2.233
	c0.545-0.653,19.991-29.579,19.991-29.579c2.45,4.032,3.649,6.211,6.209,10.567c0.056,0.109,0.272,0.219,0.056-0.163
	c-2.18-3.976-3.922-6.862-6.047-10.677c0.108-0.163,0.273-0.326,0.381-0.489c2.344,4.357,4.794,8.771,7.736,13.019
	c-0.164,0.109-0.601,0.382-0.818,0.545c1.962,3.432,3.922,6.918,5.829,10.458c0.871,1.472,3.432,3.812,3.214,3.159
	C66.486,83.037,55.757,63.809,52.052,57c0-0.108,0.054-0.108,0.108-0.217c1.635,2.613,15.145,27.018,15.96,29.086
	C68.285,86.252,71.935,86.742,71.226,85.544z M53.032,37.227c0.054-0.109,0.272-0.164,0.163,0.055
	c-0.217,0.49-1.035,2.233-1.198,2.614c-0.108-0.163-0.271-0.327-0.381-0.544C51.889,38.969,52.814,37.553,53.032,37.227z
	 M30.1,13.531c0.49,0.653,13.182,19.664,20.7,32.247c5.392-8.225,10.784-16.505,16.396-25.057c0.87-1.417,7.462-11.331,7.789-11.984
	c0.381-0.763-2.723-0.381-3.54,0.599c-1.362,1.58-4.958,7.082-7.736,11.222c-4.139,6.155-12.474,18.792-12.255,18.411
	c-3.813-5.665-9.914-15.96-16.56-25.329C33.967,12.278,29.446,12.659,30.1,13.531z"/>
</svg>
