<?xml version="1.0" encoding="utf-8"?>
<!-- Generator: Adobe Illustrator 16.0.0, SVG Export Plug-In . SVG Version: 6.00 Build 0)  -->
<!DOCTYPE svg PUBLIC "-//W3C//DTD SVG 1.1//EN" "http://www.w3.org/Graphics/SVG/1.1/DTD/svg11.dtd">
<svg version="1.1" id="Layer_1" xmlns="http://www.w3.org/2000/svg" xmlns:xlink="http://www.w3.org/1999/xlink" x="0px" y="0px"
	 width="100px" height="100px" viewBox="0 0 100 100" enable-background="new 0 0 100 100" xml:space="preserve">
<g>
	<path fill="#FFFFFF" d="M86.385,72.402L53.021,16.285c-0.713-1.197-1.813-1.884-3.02-1.884s-2.307,0.687-3.019,1.884L13.616,72.402
		c-0.72,1.211-0.791,2.507-0.194,3.555c0.596,1.049,1.747,1.65,3.155,1.65h66.848c1.409,0,2.559-0.602,3.155-1.65
		S87.106,73.613,86.385,72.402z M17.409,73.689L50,18.874l32.592,54.815H17.409z"/>
	<path fill="#FFFFFF" d="M47.388,37.299v16.745c0,1.442,1.17,2.612,2.612,2.612c1.443,0,2.612-1.17,2.612-2.612V37.299
		c0-1.443-1.169-2.612-2.612-2.612S47.388,35.856,47.388,37.299z"/>
	<path fill="#FFFFFF" d="M50,60.455c-1.442,0-2.612,1.169-2.612,2.612v1.313c0,1.441,1.17,2.611,2.612,2.611
		c1.443,0,2.612-1.17,2.612-2.611v-1.313C52.612,61.624,51.443,60.455,50,60.455z"/>
</g>
</svg>
