<?xml version="1.0" encoding="utf-8"?>
<!-- Generator: Adobe Illustrator 19.0.0, SVG Export Plug-In . SVG Version: 6.00 Build 0)  -->
<svg version="1.1" id="Layer_1" xmlns="http://www.w3.org/2000/svg" xmlns:xlink="http://www.w3.org/1999/xlink" x="0px" y="0px"
	 viewBox="-345 257 100 100" style="enable-background:new -345 257 100 100;" xml:space="preserve">
<style type="text/css">
	.st0{opacity:0;}
	.st1{fill:#D1D1D1;}
	.st2{fill:#C6C6C6;}
	.st3{fill:#FFFFFF;}
	.st4{fill:#EAEAEA;}
	.st5{fill:#D3D4D5;}
	.st6{fill:#BFBFBF;}
	.st7{clip-path:url(#SVGID_2_);}
	.st8{clip-path:url(#SVGID_4_);}
</style>
<g>
	<g class="st0">
		<path class="st1" d="M-285.5,336c0,0-3.6,5.3-4.1,6c-0.6,0.6-5.3,1.1-6,0.5c-0.7-0.6-4.4-5.4-4.4-5.4l3.1-4.6l9.9,0.2L-285.5,336z
			"/>
	</g>
	<g>
		<path class="st1" d="M-300.1,336.9c0,0,2.5,0.8,7,0.8s7.3-1.4,7.3-1.4l-1.2-1.9l-4.7-0.4l-3.6,0.7l-3.8,0.1L-300.1,336.9z"/>
	</g>
	<g>
		<path class="st1" d="M-289.1,345.7c0,0-1.4,1.2-3.4,1.2c-2.9,0-3.4-0.9-3.4-0.9l2.2-0.3L-289.1,345.7L-289.1,345.7z"/>
	</g>
	<g>
		<rect x="-302" y="339" transform="matrix(0.5867 0.8098 -0.8098 0.5867 151.5913 381.5357)" class="st2" width="8" height="0.5"/>
	</g>
	<g>
		
			<rect x="-290.2" y="334.4" transform="matrix(0.9512 0.3086 -0.3086 0.9512 90.289 105.9931)" class="st2" width="0.5" height="8.2"/>
	</g>
	<g>
		<path class="st3" d="M-289.1,341.7C-289.2,341.7-289.2,341.7-289.1,341.7c-0.2-0.1-0.3-0.2-0.2-0.4l3.9-5.7
			c0.1-0.1,0.2-0.2,0.4-0.1c0.1,0.1,0.2,0.2,0.1,0.4l-3.9,5.7C-289.1,341.6-289.1,341.7-289.1,341.7z"/>
	</g>
	<g>
		<path class="st3" d="M-293.6,341.6c-0.1,0-0.2-0.1-0.2-0.1l-3.4-6.8c-0.1-0.1,0-0.3,0.1-0.4c0.1-0.1,0.3,0,0.4,0.1l3.4,6.8
			c0.1,0.1,0,0.3-0.1,0.4C-293.6,341.6-293.6,341.6-293.6,341.6z"/>
	</g>
	<g>
		<path class="st3" d="M-293.6,341.2v4.5c0,0,0.9,0.4,2.2,0.4s2.2-0.4,2.2-0.4v-4.5c0,0-0.9,0.4-2.2,0.4
			C-292.8,341.6-293.6,341.2-293.6,341.2"/>
	</g>
	<g>
		<path class="st4" d="M-295.8,342.2l2.2-1.1v4.5c0,0-0.3,0.4-1.1,0.6c-0.8,0.2-1.1-0.4-1.1-0.4L-295.8,342.2L-295.8,342.2z"/>
	</g>
	<g>
		<path class="st5" d="M-292.8,342.7l0.1-0.3c-0.1,0-0.3,0-0.4,0l0.1,0.3c-0.2,0.2-0.5,0.8-0.5,1.1c0,0.4,0.3,0.7,0.6,0.7
			c0.3,0,0.6-0.3,0.6-0.7C-292.3,343.5-292.6,342.9-292.8,342.7"/>
	</g>
	<g>
		<path class="st5" d="M-291.1,342.9l0.1-0.3c-0.1,0-0.3,0-0.3,0L-291.1,342.9c-0.3,0.2-0.6,0.8-0.6,1.1c0,0.4,0.3,0.7,0.6,0.7
			c0.3,0,0.6-0.3,0.6-0.7C-290.6,343.6-291,343-291.1,342.9"/>
	</g>
	<g>
		<path class="st5" d="M-289.5,342.7l0.1-0.3c-0.1,0-0.3,0-0.3,0L-289.5,342.7c-0.3,0.2-0.6,0.8-0.6,1.1c0,0.4,0.3,0.7,0.6,0.7
			c0.3,0,0.6-0.3,0.6-0.7C-289.1,343.4-289.3,342.9-289.5,342.7"/>
	</g>
	<g>
		<path class="st6" d="M-294.8,343.3l0.1-0.3c0,0-0.2,0-0.3,0L-294.8,343.3c-0.2,0.2-0.5,0.7-0.5,0.9c0,0.2,0.2,0.6,0.5,0.6
			c0.3,0,0.5-0.2,0.5-0.6C-294.4,343.9-294.7,343.5-294.8,343.3"/>
	</g>
	<g>
		<path class="st6" d="M-295.3,343.4l0.1-0.2c0,0-0.2,0-0.3,0L-295.3,343.4c-0.2,0.2-0.5,0.7-0.5,0.9c0,0.2,0.2,0.5,0.5,0.5
			s0.5-0.2,0.5-0.5C-295,344.1-295.2,343.6-295.3,343.4"/>
	</g>
	<g>
		<path class="st6" d="M-294.1,342.9l0.1-0.3c-0.1,0-0.3,0-0.3,0L-294.1,342.9c-0.3,0.2-0.6,0.8-0.6,1c0,0.4,0.3,0.6,0.6,0.6
			s0.6-0.2,0.6-0.6C-293.7,343.6-294,343.1-294.1,342.9"/>
	</g>
	<g>
		<path class="st5" d="M-295.8,343.7c-0.1,0-0.3-0.1-0.3-0.3c0-0.1,0.1-0.3,0.3-0.3c0,0,0.5,0,0.9-0.2c0.6-0.2,1.2-0.8,1.2-0.8
			c0.1-0.1,0.3-0.1,0.4,0s0.1,0.3,0,0.4c0,0-0.7,0.7-1.3,0.8C-295.2,343.7-295.8,343.7-295.8,343.7L-295.8,343.7z"/>
	</g>
	<g>
		<path class="st4" d="M-291.3,343.1c-1.5,0-2.3-0.4-2.3-0.5c-0.1-0.1-0.2-0.2-0.1-0.4c0.1-0.1,0.2-0.2,0.4-0.1c0,0,0.8,0.4,2.2,0.4
			c1.4,0,2.2-0.4,2.2-0.4c0.1-0.1,0.3,0,0.4,0.1c0.1,0.1,0,0.3-0.1,0.4C-289,342.7-289.9,343.1-291.3,343.1z"/>
	</g>
	<g>
		<g>
			<g>
				<defs>
					<path id="SVGID_1_" d="M-293.6,269.3c16.4,0,32,9.8,31.4,26.2c-0.3,7.7-9.1,23-23.5,41.2c0,0-0.5-2.3-6.6-2.2
						c-6.1,0.1-7.8,2.4-7.8,2.4c-7.3-6.7-27.7-25.2-27.3-40C-326.9,283.3-317.6,269.3-293.6,269.3z"/>
				</defs>
				<clipPath id="SVGID_2_">
					<use xlink:href="#SVGID_1_"  style="overflow:visible;"/>
				</clipPath>
				<g class="st7">
					<g>
						<path class="st3" d="M-296,268.8c15.2-0.2,24,6.8,24,6.8l-14-2.4l-15.6-0.4l-12.8,2.8l-4.4,2.2l-5.3,2.7l1.8-2.6
							C-322.5,278.1-309.6,268.9-296,268.8z"/>
					</g>
					<g>
						<path class="st3" d="M-289,271.8c4.5-1,11.3,1.2,13.1,2.5c0,0,7.9,0.2,11.9,4.8c0.8,1,0,5.2,0,5.2l-8.3-4.1l-16.2-3l-13.4-0.4
							l-15.1,2.4l-9.4,6.7l-0.4-3.5c2.8-2.2,6.3-4.5,10.4-5.9c2.6-2.2,7.4-4.5,12.7-4.3C-299.6,270.5-292.2,270.5-289,271.8z"/>
					</g>
					<g>
						<path class="st3" d="M-296.4,275c0.7-1,7.6-0.5,8.4,0.2c1.1-0.4,6.4-0.1,8,1.2c1.5-0.5,5.3,0.8,6.8,1.9
							c0.8-0.7,5.3,1.7,5.2,2.4c0.9-0.1,4.6,3.5,5.5,4.9c0.8,1,1.2,5,1.2,5l-9.4-5.7l-12.6-3.5l-12.8-0.5l-10.5,0.3l-14.3,3.8
							l-7.3,7.7l-2.5,1.1c0,0,0.2-2.6,0.7-3.8c1.4-3.5,8.7-9.2,11.7-9.9c1-1.4,5.2-2.7,6-2.3c0.8-1.1,6-2.2,7.5-1.7
							C-303.4,274.7-298.2,274.4-296.4,275z"/>
					</g>
					<g>
						<path class="st4" d="M-287.6,278.8c0.5-1.9,13.7-0.8,15.6,3.2c2.6-1.5,9.2,3.7,9.6,7.5c0.7-0.1,6.5,2.3,4.7,8.7
							c-0.5,3.3-2.8-1.1-2.8-1.1l-5.2-6l-16.5-4.9l-23.5-0.3l-11.8,3.4l-9.6,7.5l-3.5,3.3c0,0,1.7-3.9,1.3-5.5
							c-0.8-2.2,5.9-11.1,9.8-10.5c1.5-3.7,13.4-6.4,14.3-4.6C-304.8,277-287.8,276.5-287.6,278.8z"/>
					</g>
					<g>
						<path class="st4" d="M-296.3,283.1c1.6-0.8,6.7-0.7,8.9-0.1c1.7-0.6,6.8,0.3,8.6,1.2c3,0,6,1,7.3,2.1c2.2,0.4,4.5,1.3,5.7,2.6
							c4.7,2.6,5.9,6,6.8,10.4l-1.3,4l-5-6.1l-7.8-4.2l-10.7-2.1l-24.4-0.1l-6.5,2.2l-9.7,4.6l-4.7,7.1l-0.4-4.1
							c0.4-2.3,0.6-3.8,2-6c0.3-1.3,1.7-2.8,2.8-3.3c0.6-1.3,2.1-2.8,4.6-3c0.4-1.3,4.9-2.9,6.5-2.6c2.2-1.2,4.7-2,8.1-2
							C-303.2,282.8-298.4,282.3-296.3,283.1z"/>
					</g>
					<g>
						<path class="st3" d="M-287.1,288.1c2.2-1.6,13.4,0.5,15.5,3.2c3.2,0.2,8.7,5,9,7.2c2.1,1.4,2.1,4.8,1.7,8.2l-2.1,1.8l-1.6-4.7
							l-6.4-5.2l-8.9-1.7l-11.8-2.1l-11.5,1.5l-8,1.6l-9.1,3l-4.8,5.2l-1.5,4.4l-1-5.4c-0.4-1.5-1.5-3.7,0.9-5.4
							c-0.9-1.5,4.9-6.7,7-6.7c1.3-2.3,11.1-5.4,14.3-4.3C-302.4,286.6-290.1,286.2-287.1,288.1z"/>
					</g>
					<g>
						<path class="st3" d="M-294.5,293.3c35.8-0.5,33.3,14.7,33.3,14.7l-2.2,5.4l-3.8-5.2l-8.4-5.1l-10.7-1.8l-13.2,0.3l-11.3,1
							l-8.7,4.9l-3.6,5.8l-1.7,3.8l-1.7-7.2C-326.3,310.2-330.4,293.8-294.5,293.3z"/>
					</g>
					<g>
						<path class="st4" d="M-287.8,298.8c3.5-1.4,11.1-0.5,13.4,2.5c2.4-0.4,7,1.8,7.5,3.7c2.9,1.6,1.8,5.7,1.9,8.3l0.5,1.7
							l-2.5,3.1l-1.9-6l-6.7-4.5h-10l-12-1.7l-11.5,2.5l-7.5,3.9l-2,5.8l-2.7,1.6l-2.2-4.1c-1.4-2.4-1.6-4,0.1-6.7
							c0.3-1.5,3.3-5.5,7.4-6.5c1.8-2.2,10.6-4.3,13.1-3.1C-300.5,297.2-289.5,296.9-287.8,298.8z"/>
					</g>
					<g>
						<path class="st4" d="M-292.3,304c33.4-0.8,26,16.2,26,16.2l-4.3,0.8l-6.7-7.9l-15.4-2.2l-11.9,1.4l-9.7,4.7l-3.2,8l-4.5-1.5
							C-322.1,323.3-330,304.9-292.3,304z"/>
					</g>
					<g>
						<path class="st3" d="M-288.4,309.8c2.6-1.1,9-0.1,10.8,1.5c1.4-0.5,5.2,1.5,6,3c3.8,2.3,2.4,6.7,0.9,9.6l-2.4,0.8l-11.1-7.8
							l-16.2,0.8l-9.4,4l-5.2,5.3h-2.5c0.2-4.2-2.6-7.2,0-9.2c0.1-1.4,4-5,6.4-5.2c1.5-1.7,8.5-3.5,10.5-2.8
							C-296.6,308.3-291.4,308.1-288.4,309.8z"/>
					</g>
					<g>
						<path class="st3" d="M-292.4,314.6c27.3,0,21.8,12.6,21.8,12.6l-7,1.6l-4.7-4l-7-1.8l-13.3-0.4l-6,5.7l-6,1.8
							C-314.7,330.1-320.5,314.6-292.4,314.6z"/>
					</g>
					<g>
						<path class="st4" d="M-289.1,319.9c1.1-0.8,6.8-0.1,7.6,1.1c1.7-0.2,3.8,1.5,4.2,2.6c1.5,0.7,0.8,4.8-0.3,6.4l-2.3,1.9
							l-5.5-3.2l-9.8-1.1l-8.6,4.2l-4.7,2.5l-1.3-1.7c-0.8-2.5-1.7-4.6-0.5-6.5c-0.3-1.5,3.3-4.6,4.7-4.4c0.8-1.2,6-2.6,7.6-2
							C-297,318.7-289.9,318.7-289.1,319.9z"/>
					</g>
					<g>
						<path class="st4" d="M-292.9,324.7c17,0.2,14.1,7.4,14.1,7.4l-3,3.1c0,0-0.2-5.8-11-5.3c-10.8,0.5-11.9,5.2-11.9,5.2l-3.3-2.2
							C-308,332.7-308.4,324.5-292.9,324.7z"/>
					</g>
					<g>
						<path class="st3" d="M-296.2,328.8c2.1-0.7,4.1-0.7,6.2-0.2c1.7-0.1,3.1,0.3,4.5,0.9c1.2,0.2,2.3,1,3.1,1.9
							c1.7,0.8,1.9,2.2,1.7,3.3l-2.3,4.8l-22.6-0.8l-0.4-1.9c0.8-1.8-0.4-3.7,1.7-4.7c0.7-0.8,2.3-1.8,3.7-2.1
							C-299.5,329.3-298,328.8-296.2,328.8z"/>
					</g>
				</g>
			</g>
		</g>
	</g>
</g>
<g>
	<g>
		<g>
			<defs>
				<path id="SVGID_3_" d="M-293.6,269.3c16.4,0,32,9.8,31.4,26.2c-0.3,7.7-9.1,23-23.5,41.2c0,0-0.5-2.3-6.6-2.2
					c-6.1,0.1-7.8,2.4-7.8,2.4c-7.3-6.7-28.2-24.5-27.7-39.4C-327.5,283.9-317.6,269.3-293.6,269.3z"/>
			</defs>
			<clipPath id="SVGID_4_">
				<use xlink:href="#SVGID_3_"  style="overflow:visible;"/>
			</clipPath>
			<g class="st8">
				<g>
					<path class="st4" d="M-290.6,335.5L-290.6,335.5c-0.5,0-0.8-0.4-0.8-0.8s3.3-35.5,3.3-49.7c0-12.9-2.6-14.5-2.6-14.5h0.1
						l0.5-1.4c0.7,0.2,3.6,1.9,3.6,15.8c0,14.3-3.3,49.6-3.3,49.9C-289.8,335.2-290.2,335.5-290.6,335.5z"/>
				</g>
				<g>
					<path class="st4" d="M-288.2,335.9c-0.1,0-0.2,0-0.4-0.1c-0.4-0.2-0.5-0.7-0.3-1c0.2-0.4,18.8-36.7,16.5-50.6
						c-1.4-8.7-5.7-10.7-5.8-10.7c-0.4-0.2-0.6-0.6-0.4-0.9c0.2-0.4,0.6-0.6,0.9-0.4c0.2,0.1,5.2,2.2,6.7,11.9
						c2.2,14.4-15.8,50.1-16.7,51.5C-287.8,335.7-287.9,335.9-288.2,335.9z"/>
				</g>
				<g>
					<path class="st4" d="M-286,337.1c-0.2,0-0.4-0.1-0.5-0.2c-0.3-0.3-0.4-0.8-0.1-1c0.2-0.3,19.5-24.4,22.6-38.2
						c0.9-4.2-0.4-11.3-2.4-14.1c-0.3-0.3-0.2-0.8,0.1-1c0.3-0.3,0.8-0.2,1,0.1c2.4,3.1,3.8,10.7,2.7,15.4
						c-1.3,5.9-5.5,14.2-12.6,24.8c-5.2,7.9-10.1,14-10.2,14.1C-285.6,337-285.8,337.1-286,337.1z"/>
				</g>
				<g>
					<path class="st4" d="M-294.7,335.6c-0.4,0-0.7-0.2-0.8-0.6c-0.1-0.4-9.7-37.1-10.7-51.2c-0.5-7.1,0.8-11.7,3.7-14.1
						c0.3-0.3,0.8-0.2,1,0.1c0.3,0.3,0.2,0.8-0.1,1c-2.5,2.1-3.6,6.3-3.2,12.8c0.8,14.1,10.5,50.6,10.6,51S-294.2,335.5-294.7,335.6
						C-294.6,335.6-294.7,335.6-294.7,335.6z"/>
				</g>
				<g>
					<path class="st4" d="M-297,336.1c-0.2,0-0.5-0.1-0.6-0.3c-0.2-0.2-16.2-22.1-21.8-40.4c-2.9-9.7,0.1-16.4,3.1-20.3
						c0.3-0.3,0.8-0.4,1-0.1c0.3,0.3,0.4,0.8,0.1,1c-2.8,3.7-5.6,9.8-2.9,19c5.4,18.2,21.5,39.8,21.6,39.9c0.3,0.4,0.2,0.8-0.2,1
						C-296.7,336.1-296.9,336.1-297,336.1z"/>
				</g>
				<g>
					<path class="st4" d="M-299.8,337.6c-0.2,0-0.4-0.1-0.5-0.2c-0.1,0-5-4.2-10.4-9.8c-7.4-7.8-12.3-14.5-14.7-20.2
						c-5.2-12.7,1.5-23.2,1.7-23.7c0.2-0.4,0.7-0.5,1-0.2c0.4,0.2,0.5,0.7,0.2,1c-0.1,0.1-6.5,10.4-1.7,22.5
						c5.3,13.3,24.4,29.5,24.7,29.6c0.3,0.3,0.4,0.8,0.1,1C-299.4,337.5-299.6,337.6-299.8,337.6z"/>
				</g>
			</g>
		</g>
	</g>
</g>
</svg>
