<?xml version="1.0" encoding="utf-8"?>
<!-- Generator: Adobe Illustrator 19.0.0, SVG Export Plug-In . SVG Version: 6.00 Build 0)  -->
<svg version="1.1" id="Layer_1" xmlns="http://www.w3.org/2000/svg" xmlns:xlink="http://www.w3.org/1999/xlink" x="0px" y="0px"
	 viewBox="-345 257 100 100" style="enable-background:new -345 257 100 100;" xml:space="preserve">
<style type="text/css">
	.st0{fill:#F9F9F9;}
</style>
<path class="st0" d="M-299.3,307.1c-0.2-0.2-0.4-0.5-0.5-0.8c0.2-0.2,0.3-0.4,0.4-0.6c0.2,0.2,0.4,0.5,0.6,0.7
	C-299,306.7-299.1,306.9-299.3,307.1z M-303.1,301.1c-0.1-0.2,0.1-0.3,0.2-0.1c1,1.4,2.1,2.7,3.2,4.2c-0.2,0.2-0.3,0.5-0.5,0.7
	C-301.1,304.3-302.1,302.9-303.1,301.1z M-322.8,347.7c4.2-6,9.5-13.8,12.4-17.9c0.1-0.1-0.1-0.2-0.2-0.1c-2.8,4-8.9,12.7-10.4,14.9
	c-0.3,0.4-0.4,0.2-0.3-0.1c0,0.1,7.3-11.2,10.4-15.6c0.1-0.1,0.2,0.3,0.3,0.3c5-7.8,9.9-15,14.8-22.4c-4.8-7.8-10.4-16-14.5-23
	c-2.3-3.8-3-4.9-5.8-10.2c-0.4-0.8-3.2,1.4-2.5,2.6c0.7,1.3,3.4,6.2,5.9,10.2c4.4,7.2,8.1,13.3,12.4,20c-4.3,6.7-8.1,12.1-12.2,18.4
	c-0.1,0.1,0,0.2,0.1,0.1c4.5-6.5,8-11.6,12.3-18.1c0.2,0.3,0.3,0.5,0.4,0.7c-4.5,6.6-10.1,14-13.5,19.3c-0.1,0.2-0.7,0-1,0.3
	c-2.5,3.8-5.2,7.2-7.9,11.2c-1.1,1.5-2.5,5.6-2,5.3c0.5-0.3,16.8-23.4,24.7-35.1c0.1-0.1,0.3-0.1,0.2,0.1
	c-6.6,9.8-22.9,33.6-25.1,35.8C-324.8,344.8-323.5,348-322.8,347.7z M-276.5,328.4c-3.5-6.9-7.9-14.2-11.4-21.3
	c-4.2,7,14.7-22.8,18.3-29.3c0.2-0.4-0.2-0.4-0.1-0.7c0.4-0.7,3.2-4.9,3.8-6.7c0.5-1.5-1.6-2.6-1.8-2.5c-0.8,0.4-15.7,23.9-17,26
	c-2.6,4.2-5.4,8.4-8.1,12.5c-0.3-0.5,12.3,20.8,13.6,23.1c1.1,1.8,5.7,9.2,6.1,9.9c0.3,0.4,0.5-0.7,0.4-1c-1.1-2-3-5.2-4.7-8.3
	c-0.1-0.2,0.1-0.3,0.2-0.2c1.7,3.1,3.5,6,4.7,8c0.2,0.3,0.5-1.1,0.3-1.6C-272.8,334.7-275.1,331-276.5,328.4z M-274.4,342.5
	c-0.1-0.2-2.4-4.3-3.5-6c-2-3.4-4-6.7-5.9-10c0-0.1,0.2-0.1,0.2-0.1c-5.5-8.7-0.5-0.4-10.7-17.4c-0.5,0.7-1,1.5-1.5,2.2
	c-5.3,7.8-10.9,16.4-16.3,24.1c-1.9,2.9-7.5,11.5-8,12.7c-0.2,0.4,1.3,0.2,1.5-0.1c0.3-0.5,5.3-7.9,8.6-12.5c0.1-0.2,0.3,0,0.2,0.2
	c-3.2,4.7-7.6,11.7-7.6,11.9c0,0.6,3.1-1.4,3.8-2.2c0.5-0.6,19.4-28.7,19.4-28.7c2.4,3.9,3.5,6,6,10.3c0.1,0.1,0.3,0.2,0.1-0.2
	c-2.1-3.9-3.8-6.7-5.9-10.4c0.1-0.2,0.3-0.3,0.4-0.5c2.3,4.2,4.7,8.5,7.5,12.6c-0.2,0.1-0.6,0.4-0.8,0.5c1.9,3.3,3.8,6.7,5.7,10.2
	c0.8,1.4,3.3,3.7,3.1,3.1c-0.7-2.1-11.1-20.8-14.7-27.4c0-0.1,0.1-0.1,0.1-0.2c1.6,2.5,14.7,26.2,15.5,28.2
	C-277.3,343.2-273.7,343.7-274.4,342.5z M-292.1,295.6c0.1-0.1,0.3-0.2,0.2,0.1c-0.2,0.5-1,2.2-1.2,2.5c-0.1-0.2-0.3-0.3-0.4-0.5
	C-293.2,297.3-292.3,295.9-292.1,295.6z M-314.3,272.6c0.5,0.6,12.8,19.1,20.1,31.3c5.2-8,10.5-16,15.9-24.3
	c0.8-1.4,7.2-11,7.6-11.6c0.4-0.7-2.6-0.4-3.4,0.6c-1.3,1.5-4.8,6.9-7.5,10.9c-4,6-12.1,18.2-11.9,17.9c-3.7-5.5-9.6-15.5-16.1-24.6
	C-310.6,271.4-315,271.8-314.3,272.6z"/>
</svg>
