<?xml version="1.0" encoding="utf-8"?>
<!-- Generator: Adobe Illustrator 19.0.0, SVG Export Plug-In . SVG Version: 6.00 Build 0)  -->
<svg version="1.1" id="Layer_1" xmlns="http://www.w3.org/2000/svg" xmlns:xlink="http://www.w3.org/1999/xlink" x="0px" y="0px"
	 viewBox="-345 257 100 100" style="enable-background:new -345 257 100 100;" xml:space="preserve">
<style type="text/css">
	.st0{fill:#DE3636;}
	.st1{fill:#EF3A3A;}
	.st2{fill:#D13431;}
	.st3{fill:none;}
</style>
<g>
	<path class="st0" d="M-316.3,297c-0.3,0.7-0.5,2.7,0.6,4.3c2.9,4.3,12.3,16.4,22,20.2c11.8,4.6,28.4,8.3,35.5,5.4
		c6.8-2.8,11.8-5.9,10.7-6.8C-249,319.4-316.3,297-316.3,297"/>
</g>
<g>
	<path class="st1" d="M-316.2,296.9c-0.9,0.8,11.2,14,15.4,17c9,6.3,18.4,9.2,31.4,8.7c9.5-0.3,21.1-1.5,21.7-2.4
		c0.6-0.9-13.1-5.4-22.8-9.8c-8-3.7-17.3-5.7-29.2-9.3C-307.2,298.7-315,295.8-316.2,296.9"/>
</g>
<g>
	<g>
		<path class="st0" d="M-256.7,320.1c-1.2,0-2.6,0-3.9-0.1c-3.7-0.2-13.1-1.3-13.1-1.3c-0.1,0-0.2-0.1-0.2-0.1
			c-0.1-0.1-0.1-0.2,0-0.3c0.1-0.1,0.9-2.6,1.6-3.7c0.7-1.1,2.4-2.5,2.4-2.6c0.1-0.1,0.2-0.1,0.4-0.1c0.1,0,4.7,1.8,8,3.3
			c3.3,1.4,9.5,4.2,9.7,4.2c0.1,0.1,0.2,0.2,0.2,0.4s-0.1,0.3-0.3,0.3C-252.1,320-254.2,320.1-256.7,320.1z M-273.3,318
			c1.8,0.2,9.5,1.1,12.7,1.2c2.4,0.1,5.1,0.1,6.9,0.1c-2.1-0.9-6-2.6-8.2-3.6c-2.9-1.2-6.9-2.9-7.8-3.2c-0.4,0.4-1.5,1.4-2.1,2.3
			C-272.4,315.6-273,317.3-273.3,318z"/>
	</g>
	<g>
		<path class="st0" d="M-266.3,319.5c-0.1,0-0.2-0.1-0.3-0.1c-0.1-0.1-1.6-2.4-2.4-3.8c-0.7-1.5-1.1-3.2-1.1-3.3
			c-0.1-0.2,0.1-0.4,0.3-0.4s0.4,0.1,0.4,0.3c0,0,0.4,1.7,1,3.2c0.7,1.4,2.4,3.7,2.4,3.7c0.1,0.1,0.1,0.4-0.1,0.5
			C-266.2,319.5-266.3,319.5-266.3,319.5z"/>
	</g>
	<g>
		<path class="st0" d="M-273.8,318.7c-0.1,0-0.2-0.1-0.3-0.1c-0.1-0.1-0.1-0.4,0.1-0.5c0.1-0.1,2.9-2.4,5-3.3
			c1.8-0.7,3.4-1.1,3.5-1.2c0.1-0.1,0.4,0.1,0.4,0.2c0.1,0.2-0.1,0.4-0.2,0.4c0,0-1.5,0.4-3.4,1.1c-2.1,0.8-4.8,3.2-4.8,3.2
			C-273.6,318.7-273.6,318.7-273.8,318.7z"/>
	</g>
	<g>
		<path class="st0" d="M-297.7,310.5c-0.1,0-0.1,0-0.2-0.1c-0.1-0.1-6.7-4.3-9.1-6.2c-2.5-2-6-5.5-6.1-5.7c-0.1-0.1-0.1-0.3-0.1-0.4
			c0.1-0.1,0.2-0.2,0.4-0.1c0.1,0,9.1,2.4,10.7,2.9c1.5,0.4,10.1,2.9,10.1,2.9c0.1,0.1,0.2,0.1,0.2,0.3c0,0.1-0.1,0.3-0.2,0.4
			c0,0-2.2,1-3.5,2.4c-1.2,1.2-2,3.5-2,3.5C-297.6,310.4-297.7,310.5-297.7,310.5C-297.7,310.5-297.7,310.5-297.7,310.5z
			 M-311.8,299c1.2,1.2,3.4,3.4,5.1,4.7c2.1,1.6,7.3,5,8.7,6c0.3-0.7,0.9-2.4,2.1-3.4c0.9-0.9,2.1-1.5,2.9-2.1
			c-2.2-0.7-8-2.4-9.3-2.7C-303.6,301.1-309.3,299.7-311.8,299z"/>
	</g>
	<g>
		<path class="st0" d="M-297.7,310.5L-297.7,310.5c-0.3-0.1-0.4-0.2-0.3-0.4c0,0,0.8-3.5,0.9-4.5c0.1-1,0.2-2.8,0.2-2.8
			c0-0.2,0.1-0.4,0.4-0.3c0.2,0,0.4,0.1,0.3,0.4c0,0-0.1,1.7-0.2,2.8c-0.1,1.1-0.9,4.5-1,4.6C-297.4,310.5-297.6,310.5-297.7,310.5z
			"/>
	</g>
	<g>
		<path class="st0" d="M-302.2,307.6c-0.1,0-0.3-0.1-0.4-0.3c-0.1-0.2,0.1-0.4,0.2-0.4c0,0,3.4-0.8,5.2-1.5c1.5-0.6,4.6-1.5,4.7-1.5
			c0.2-0.1,0.4,0.1,0.4,0.2s-0.1,0.4-0.2,0.4c0,0-3.2,1-4.6,1.5C-298.8,306.7-302,307.5-302.2,307.6
			C-302.1,307.6-302.2,307.6-302.2,307.6z"/>
	</g>
</g>
<g>
	<path class="st2" d="M-294.1,310.2c0,0,0.2,2.9,3.9,3.8c3.7,1,12.2,1.3,14.4,0.5c2.2-0.8,4-2.8,1.4-4.3c-2.6-1.5-3.3-3.2-7.9-4
		c-4.6-0.8-8.3-0.5-10,1.1C-293.9,308.8-294.3,309.7-294.1,310.2"/>
</g>
<g>
	<path class="st0" d="M-292.7,305.6c-2.4,1.5-3.2,3.2-2.4,4.6c1.6,3.2,4.8,3.7,4.8,3.7s-2.7-1.2-3.2-2.9c-0.4-1.2,0.7-2.7,2.2-3.5
		c1.4-0.7,4.5-1.3,8.4-0.6c6.1,1.2,9.3,4.6,9.3,5.4c0,0.4-0.1,0.6-0.1,0.6s1.5-1.3,0-3.4c-1.5-2.1-5-4.3-8.3-4.9
		C-286.4,303.7-290.2,304.1-292.7,305.6"/>
</g>
<g>
	<path class="st2" d="M-306.6,302c0,0-0.2,1.1,1.8,1.7c0.7,0.2,3.2,0.5,4,0.2c0.9-0.4,1.5-1.5,0.7-2.1c-0.8-0.5-1.1-0.8-2.6-1.1
		c-1.5-0.3-2.7-0.1-3.2,0.4C-306.6,301.6-306.8,301.9-306.6,302"/>
</g>
<g>
	<path class="st0" d="M-306,300.3c-1.1,0.6-1.3,1.5-0.9,2.2c0.6,1,2.1,1.2,2.1,1.2s-1.1-0.3-1.4-0.8c-0.2-0.5,0.3-1.2,0.9-1.5
		c0.7-0.4,1.7-0.6,3.5-0.1c1,0.3,1.7,0.9,1.8,1.4c0,0.3,0,0.4,0,0.4s0.1-0.1,0.2-0.5c0.3-1.2-0.7-2.2-2.1-2.6
		C-303.5,299.7-304.9,299.8-306,300.3"/>
</g>
<g>
	<line class="st3" x1="-307.5" y1="319.2" x2="-267.2" y2="303.3"/>
</g>
<g>
	
		<rect x="-287.9" y="289.6" transform="matrix(0.3671 0.9302 -0.9302 0.3671 107.6013 464.3064)" class="st0" width="1" height="43.3"/>
</g>
<g>
	<path class="st1" d="M-267.5,302.6c0.3-0.1,0.8-0.4,1.5-0.7c0.7-0.4,0.4-1.7,2.1-2.7s6.2-2.9,6.2-2.9s2.1,1.2,2.4,2.3
		c0.4,1,0.6,2.9,0.6,2.9s-5.1,2.4-6.6,2.7c-1.4,0.4-3.5-0.9-4-0.7c-0.6,0.2-1.3,0.6-1.8,0.7c-0.3,0.1-0.7-0.1-0.7-0.7
		C-267.8,303.1-267.8,302.7-267.5,302.6"/>
</g>
<g>
	<path class="st1" d="M-306.6,319c0.1,0.4,0.1,0.7-0.1,0.8c-0.2,0.1-1,0.5-1.7,1c-0.7,0.4-0.6,2.3-2.2,3.3c-1.5,1-6.3,2.9-6.3,2.9
		s-2.1-1.3-2.5-2.1c-0.5-0.8-0.8-3.7-0.8-3.7s5.3-2.4,6.8-2.8c1.3-0.4,3.7,1,4.3,0.7c0.6-0.2,1.3-0.7,1.8-0.8
		C-307.1,318.1-306.8,318.6-306.6,319"/>
</g>
</svg>
