<?xml version="1.0" encoding="utf-8"?>
<!-- Generator: Adobe Illustrator 19.0.0, SVG Export Plug-In . SVG Version: 6.00 Build 0)  -->
<svg version="1.1" id="Layer_1" xmlns="http://www.w3.org/2000/svg" xmlns:xlink="http://www.w3.org/1999/xlink" x="0px" y="0px"
	 viewBox="-345 257 100 100" style="enable-background:new -345 257 100 100;" xml:space="preserve">
<style type="text/css">
	.st0{fill:#A82929;}
	.st1{fill:#D13333;}
	.st2{fill:#B82D2B;}
	.st3{fill:#EF3A3A;}
</style>
<path class="st0" d="M-276,319.8c0,0,1.8-0.1,2.7,0.3c0.8,0.3,1.1,0.3,1.3,1.6c0.2,1.4,0.6,2,0.4,4.4c-0.2,2.3,0.1,5,0.5,6.3
	c0.4,1.2,0.3,1.4,0,1.7c-0.3,0.3-1.1,1.2-2,1.1s-3.6-2.2-3.6-2.2L-276,319.8z"/>
<path class="st0" d="M-278,304.3c0,0,1.5-0.4,2.2-0.2s1.8,4,2,4.8c0.2,0.8,0.1,1.8,0.1,1.8s0.3,0.1,0.4,0.3s0.4,2.5,0.2,2.9
	s-0.4,0.6-0.4,0.6s0.1,1.1,0.4,2.1s0.7,2.5,0.2,3.1c-0.6,0.6-1.3,0.9-2.4,0.6s-2-1.2-2-1.2L-278,304.3z"/>
<path class="st1" d="M-304.1,342.1c0,0,3-0.5,6.6-0.7s7.3-1,9-1.2s3.5-0.1,6-0.6c2.5-0.5,8-1.7,8.3-4.9c0.3-3.2-1.2-16.6-1.5-19.1
	s0.1-9.8-3-13.5l-3.5,0.2l-21.1-4l-4.7,0.7L-304.1,342.1z"/>
<path class="st0" d="M-303.2,341.4c0,0,0.8,0.7-3.2,0.6c-4-0.1-4.1-1.9-4.1-1.9l0.3-12.2l-4.9-20.1c0,0-0.9-2.8,0.5-5.3
	c1.3-2.5,2.8-3.9,4.9-4.2c2.1-0.4,4,0,4,0s-0.5,1.4-0.7,2.8c-0.1,1.4,0.4,5.7,0.7,7.7c0.3,1.9,1.7,16.3,1.9,19.2
	S-303,339.5-303.2,341.4z"/>
<path class="st2" d="M-304.3,327.6c0.3,4.6,1,11.4,0.5,12c-0.5,0.6-1.3,1.5-2.9,1.5c-1.6,0-6.8-0.2-7.1-0.5c-0.3-0.2-1.5-0.7-1.3-4
	c0.2-3.3-0.3-5.4-0.5-6.5c-0.2-1.2-1-4.4-0.3-5.2c0.7-0.7,1.1-1.4,2-1.4c0.8,0,7.4-0.4,8.4,0.2
	C-304.5,324.2-304.5,324.3-304.3,327.6z"/>
<g>
	<g>
		<path class="st2" d="M-304.9,316c-0.7,0-1.1,0-1.1,0l0-1.7c0.1,0,10,0.1,18.9-0.9c6.4-0.7,9.7-1.5,11.1-1.9l0.1,1.7
			c-1.6,0.4-5,1.1-11,1.8C-294.1,316-302,316-304.9,316z"/>
	</g>
	<g>
		<path class="st2" d="M-288.7,340.1c1-1.1,2.4-3.3,2.6-6.6c0.2-4.4,0-10.4-0.5-14.5c-0.5-3.6-0.8-4.5-0.8-4.5l1.5-0.7
			c0.1,0.1,0.4,1.1,0.9,5c0.5,4.2,0.7,9.5,0.4,14c-0.2,3.2-1.5,5.6-2.6,7.1L-288.7,340.1z"/>
	</g>
</g>
<path class="st3" d="M-309.8,298.3c0,0,2.5-0.6,4.1,1.7c1.6,2.2,2.6,6.5,4.7,6.7s13.2-0.6,17.2-1.4c4-0.8,6.6-1,6.2-2.8
	c-0.3-1.7-2.2-6.3-9.2-6.6C-293.6,295.5-309.8,298.3-309.8,298.3z"/>
<path class="st1" d="M-312.4,276.3c0,3.1,0.4,22.5,0.4,22.5s26.8-1.7,27.7-1.7c3.3,0,7.5-3.4,7.5-10c0-5.4-3.2-11.2-6.5-11.2
	C-286,276-312.4,276.3-312.4,276.3z"/>
<path class="st0" d="M-316.6,287.8c0,5.2,2.3,11,4.6,11c3.3,0,6.1-2.8,6.1-11c0-5.4-3.2-11.5-6.5-11.5
	C-315.1,276.3-316.6,283.6-316.6,287.8z"/>
<path class="st3" d="M-279.7,280.9c-1.1-3-3-4.1-4.8-5c-3.9,0.1-17.4,0.1-24.2,0.3c1,0.5,1.8,1.3,2.7,3.1c1.7,3.4,3,6.8,7.9,6.8
	c5.6,0,11.1-0.1,14-0.3C-278.9,285.5-278.8,283.5-279.7,280.9z"/>
<g>
	<path class="st2" d="M-281,315.7c0-0.1-0.4-9.9-2.8-22.6c-1.4-7.9-1.3-12.9-5.3-15.9c-0.3-0.2,3.6-0.3,3.8,0
		c3.4,4.4,3.7,9.3,4.8,15.4c2.2,12.9,2.8,22.8,2.8,22.9L-281,315.7z"/>
</g>
<g>
	<path class="st2" d="M-296.8,317.1c0-0.1-1.3-13.2-2.7-26.3c-0.8-6.8-2.5-10.5-4.3-12.9c-0.2-0.3,3.3-0.6,3.6-0.2
		c2.3,2.3,3.4,6.9,4.1,12.8c1.5,13.1,2.7,26.2,2.8,26.4L-296.8,317.1z"/>
</g>
<g>
	<path class="st2" d="M-297.4,308.9c0,0-0.5,0.7-0.2,1.5c0.2,0.8,0.6,1.1,0.6,1.1l3.2-0.3c0,0,0.4-0.5,0.4-1.3
		c0-0.5-0.2-1.1-0.2-1.1L-297.4,308.9z"/>
	<path class="st3" d="M-294.1,305.2c0.4,0,0.5,0.1,0.6,0.5c0,0.3,0.2,3.4,0.2,3.4s-0.7,0-0.7,1.1c0.1,1.1,0.8,0.9,0.8,0.9v1.4
		l-0.6,0l0-0.7l-3.2,0.2l0.1,0.7l-0.6,0.1l0-1.3c0,0,0.8-0.4,0.8-1.3c0-0.9-1-1-1-1s-0.2-2.5-0.2-3.2c0-0.5,0-0.6,0.6-0.6
		C-297,305.4-294.4,305.3-294.1,305.2z M-297.5,306.5c0,0.2,0.1,0.6,0.1,0.9c0,0.3,0.3,0.2,0.6,0.2c0.2,0,2.6-0.2,2.9-0.3
		c0.2,0,0.2-0.2,0.2-0.4s0-0.6-0.1-0.9c-0.1-0.3-0.3-0.2-0.4-0.2s-2.8,0.2-3.1,0.2C-297.5,306.2-297.5,306.3-297.5,306.5z"/>
</g>
<g>
	<path class="st2" d="M-281.3,308.3c0,0-0.5,0.7-0.2,1.5c0.2,0.8,0.6,1.1,0.6,1.1l2.5-0.3c0,0,0.4-0.5,0.4-1.3
		c0-0.5-0.2-1.1-0.2-1.1L-281.3,308.3z"/>
	<path class="st3" d="M-278.5,304.6c0.4,0,0.5,0.1,0.6,0.5c0,0.3,0,3.2,0,3.2s-0.8,0-0.8,1.1c0.1,1.1,0.8,0.9,0.8,0.9l0.1,1.2
		l-0.5,0.1l0-0.9l-2.7,0.3l0.1,0.7l-0.6,0.1l0-1.3c0,0,1,0,1-0.9c0-0.9-1-1.3-1-1.3s-0.2-2.2-0.2-2.9c0-0.5,0-0.6,0.6-0.6
		C-280.9,304.8-278.8,304.7-278.5,304.6z M-281.2,305.7c0,0.2,0.1,0.5,0.1,0.8c0,0.3,0.3,0.2,0.6,0.2c0.2,0,1.9-0.2,2.2-0.3
		c0.2,0,0.2-0.2,0.2-0.4c0-0.1,0-0.5,0-0.7c0-0.3-0.3-0.2-0.4-0.2c-0.1,0-2.2,0.2-2.4,0.2C-281.2,305.4-281.2,305.5-281.2,305.7z"/>
</g>
<path class="st2" d="M-312.4,307c0,0-1.9-5.1-1.8-8.2s1-8.4,0.4-12.6c-0.4-3.1-0.7-6-0.4-8.2c0.3-2.1,2.2-2.7,3-2.9
	c0.8-0.2,13.2,0.3,15.5,0.2c2.3-0.1,11.1-0.2,12.3-0.2c1.4,0,3.3,2.3,3.5,2.7c0,0-0.5-0.6-1.1-1c-0.9-0.7-1.6-0.8-1.6-0.8
	c-0.2-0.3-0.3-0.4-0.6-0.5c-0.8-0.1-11.1,0-11.2,0.2c0,0-0.1,0.1,0,0.2l-2.4,0c0.1-0.2,0.1-0.3,0-0.3c-0.3,0-12.8-0.5-13.6-0.1
	c-0.8,0.5-1.9,1.5-2.3,2.8c-0.4,1.4-0.5,2.8-0.3,5c0.3,3,0.7,6.2,1.4,8.5c0.9,3,0.6,3.8,0.5,5.3c0,1.2,0.3,5.4,0.9,6.3
	c0.5,0.8-0.1,1.6,1.1,3.3l0.1,1.4l-2.4-0.4L-312.4,307z"/>
<g>
	<path class="st1" d="M-311.1,299.9c0,0,0.5,0.6,0.4,1.5c-0.1,0.8-0.5,1.2-0.5,1.2l-2.5,0c0,0-0.4-0.4-0.5-1.3c-0.1-0.5,0-1.1,0-1.1
		L-311.1,299.9z"/>
	<path class="st3" d="M-311.4,296.5c0.5,0,0.6,0.1,0.6,0.6c0.1,0.7,0.3,2.9,0.3,2.9s-1.2,0.5-1.1,1.4c0.1,0.9,1.3,0.8,1.3,0.8
		l0.1,1.3l-0.6,0l0-0.7l-2.9,0l0.1,0.9l-0.5-0.1l-0.1-1.2c0,0,0.7,0.2,0.7-1s-0.9-1-0.9-1s-0.4-2.9-0.4-3.2c0-0.4,0.1-0.5,0.5-0.6
		C-314,296.6-311.9,296.5-311.4,296.5z M-311.7,297c-0.2,0-2.3,0.1-2.4,0.1c-0.1,0-0.4-0.1-0.4,0.2c0,0.3,0.1,0.6,0.1,0.7
		c0,0.1,0,0.3,0.3,0.3c0.3,0,1.9,0,2.2,0c0.2,0,0.5,0,0.5-0.3c0-0.3,0-0.6,0-0.8C-311.5,297.2-311.5,297-311.7,297z"/>
</g>
<path class="st1" d="M-306.5,307.6c0.9,1,1.1,4.4,1.4,7.6c0.3,3.2,0.6,6.5,0.2,7.2c-0.3,0.7-0.5,1.1-1.6,1.5s-2.6,0.2-4.7,0.2
	c-2.1,0-4.4,0.5-4.8-0.9c-0.4-1.3-0.2-4.3-0.2-4.5c0-0.2-0.9-0.1-0.9-0.3c0-0.2-0.4-3.5-0.3-3.6c0-0.2,0.7-0.2,0.7-0.3
	c0-0.1-1-1.9-1-2.9c0-1,0.2-3,1.1-3.6c0.9-0.5,2.2-1,3-1.1C-312.7,306.7-308.4,305.5-306.5,307.6z"/>
</svg>
