<?xml version="1.0" encoding="utf-8"?>
<!-- Generator: Adobe Illustrator 19.0.0, SVG Export Plug-In . SVG Version: 6.00 Build 0)  -->
<svg version="1.1" id="Layer_1" xmlns="http://www.w3.org/2000/svg" xmlns:xlink="http://www.w3.org/1999/xlink" x="0px" y="0px"
	 viewBox="-345 257 100 100" style="enable-background:new -345 257 100 100;" xml:space="preserve">
<style type="text/css">
	.st0{fill:#D13333;}
	.st1{fill:#EF3A3A;}
	.st2{fill:#B82D2B;}
	.st3{fill:none;}
</style>
<g>
	<path class="st0" d="M-325.1,290.5c-0.3,0.8-0.6,3,0.7,4.7c3.1,4.7,13.3,17.8,23.8,21.9c12.8,4.9,30.7,8.9,38.5,5.8
		c7.3-3,12.8-6.4,11.6-7.3C-252.2,314.8-325.1,290.5-325.1,290.5"/>
</g>
<g>
	<path class="st1" d="M-325,290.3c-1,0.9,12.1,15.1,16.7,18.4c9.7,6.9,19.9,10,34,9.4c10.3-0.3,22.8-1.6,23.5-2.6
		s-14.2-5.8-24.6-10.7c-8.7-4-18.8-6.2-31.6-10.1C-315.3,292.3-323.7,289.2-325,290.3"/>
</g>
<g>
	<g>
		<path class="st0" d="M-260.6,315.4c-1.3,0-2.9,0-4.2-0.1c-4-0.2-14.2-1.4-14.2-1.4c-0.1,0-0.2-0.1-0.2-0.1c-0.1-0.1-0.1-0.2,0-0.3
			c0.1-0.1,1-2.9,1.7-4c0.8-1.1,2.6-2.8,2.6-2.9c0.1-0.1,0.2-0.1,0.5-0.1c0.1,0,5,1.9,8.7,3.6c3.6,1.5,10.3,4.6,10.5,4.6
			c0.1,0.1,0.2,0.2,0.2,0.5c0,0.2-0.1,0.3-0.3,0.3C-255.7,315.3-257.8,315.4-260.6,315.4z M-278.6,313.1c1.9,0.2,10.3,1.1,13.8,1.3
			c2.6,0.1,5.5,0.1,7.4,0.1c-2.3-1-6.5-2.9-8.8-3.9c-3.1-1.3-7.4-3.1-8.5-3.4c-0.5,0.5-1.6,1.5-2.3,2.5
			C-277.7,310.6-278.2,312.5-278.6,313.1z"/>
	</g>
	<g>
		<path class="st0" d="M-271,314.8c-0.1,0-0.2-0.1-0.3-0.1c-0.1-0.1-1.7-2.6-2.6-4.1c-0.8-1.6-1.1-3.4-1.1-3.6
			c-0.1-0.2,0.1-0.5,0.3-0.5s0.5,0.1,0.5,0.3c0,0,0.5,1.8,1,3.4c0.8,1.5,2.6,4,2.6,4c0.1,0.1,0.1,0.5-0.1,0.6
			C-270.9,314.8-271,314.8-271,314.8z"/>
	</g>
	<g>
		<path class="st0" d="M-279.2,314c-0.1,0-0.2-0.1-0.3-0.1c-0.1-0.1-0.1-0.5,0.1-0.6c0.1-0.1,3.1-2.6,5.4-3.6
			c1.9-0.8,3.7-1.1,3.8-1.3s0.5,0.1,0.5,0.2c0.1,0.2-0.1,0.5-0.2,0.5c0,0-1.6,0.5-3.7,1.1c-2.3,0.9-5.2,3.4-5.2,3.4
			C-278.9,314-278.9,314-279.2,314z"/>
	</g>
	<g>
		<path class="st0" d="M-305.1,305c-0.1,0-0.1,0-0.2-0.1s-7.2-4.7-9.9-6.8c-2.8-2.2-6.5-6-6.6-6.2c-0.1-0.1-0.1-0.3-0.1-0.5
			c0.1-0.1,0.2-0.2,0.5-0.1c0.1,0,9.9,2.6,11.6,3.1c1.6,0.5,10.9,3.1,10.9,3.1c0.1,0.1,0.2,0.1,0.2,0.3c0,0.1-0.1,0.3-0.2,0.5
			c0,0-2.4,1-3.8,2.6c-1.3,1.3-2.2,3.8-2.2,3.8C-304.9,304.9-305.1,305-305.1,305L-305.1,305z M-320.3,292.6c1.3,1.3,3.7,3.7,5.5,5
			c2.3,1.7,7.9,5.4,9.4,6.5c0.3-0.8,1-2.6,2.3-3.7c1-1,2.3-1.6,3.1-2.3c-2.4-0.8-8.7-2.6-10.1-3
			C-311.4,294.9-317.5,293.3-320.3,292.6z"/>
	</g>
	<g>
		<path class="st0" d="M-305.1,305L-305.1,305c-0.3-0.1-0.5-0.2-0.3-0.5c0,0,0.9-3.8,1-4.9s0.2-3,0.2-3c0-0.2,0.1-0.5,0.5-0.3
			c0.2,0,0.5,0.1,0.3,0.5c0,0-0.1,1.8-0.2,3s-1,4.9-1,4.9C-304.7,305-304.9,305-305.1,305z"/>
	</g>
	<g>
		<path class="st0" d="M-309.9,301.9c-0.1,0-0.3-0.1-0.5-0.3c-0.1-0.2,0.1-0.5,0.2-0.5c0,0,3.7-0.9,5.6-1.6c1.6-0.7,4.9-1.6,5-1.6
			c0.2-0.1,0.5,0.1,0.5,0.2s-0.1,0.5-0.2,0.5c0,0-3.4,1-4.9,1.6C-306.2,301-309.6,301.8-309.9,301.9
			C-309.8,301.9-309.9,301.9-309.9,301.9z"/>
	</g>
</g>
<g>
	<path class="st2" d="M-301.2,304.8c0,0,0.2,3.1,4.2,4.1c4,1,13.2,1.4,15.6,0.6c2.4-0.9,4.4-3,1.5-4.7c-2.9-1.7-3.6-3.4-8.6-4.4
		s-8.9-0.6-10.9,1.1C-300.9,303.2-301.3,304.2-301.2,304.8"/>
</g>
<g>
	<path class="st0" d="M-299.6,299.7c-2.6,1.6-3.4,3.4-2.6,4.9c1.7,3.4,5.2,4,5.2,4s-3-1.3-3.4-3.1c-0.5-1.3,0.8-3,2.4-3.8
		c1.5-0.8,4.9-1.4,9.1-0.7c6.6,1.3,10.1,4.9,10.1,5.8c0,0.5-0.1,0.7-0.1,0.7s1.6-1.4,0-3.7c-1.6-2.3-5.4-4.7-8.9-5.3
		C-292.8,297.7-296.9,298.1-299.6,299.7"/>
</g>
<g>
	<path class="st2" d="M-314.7,295.8c0,0-0.2,1.1,1.9,1.8c0.8,0.2,3.4,0.6,4.4,0.2c1-0.5,1.6-1.6,0.8-2.3c-0.9-0.6-1.1-0.9-2.9-1.1
		c-1.6-0.3-3-0.1-3.4,0.5C-314.7,295.4-314.9,295.7-314.7,295.8"/>
</g>
<g>
	<path class="st0" d="M-314,294c-1.1,0.7-1.4,1.6-1,2.4c0.7,1,2.3,1.3,2.3,1.3s-1.1-0.3-1.5-0.9c-0.2-0.6,0.3-1.3,1-1.6
		c0.8-0.5,1.8-0.7,3.8-0.1c1,0.3,1.8,1,1.9,1.5c0,0.3,0,0.5,0,0.5s0.1-0.1,0.2-0.6c0.3-1.3-0.8-2.4-2.3-2.9
		C-311.2,293.3-312.8,293.4-314,294"/>
</g>
<g>
	<line class="st3" x1="-315.6" y1="314.5" x2="-271.9" y2="297.2"/>
</g>
<g>
	
		<rect x="-294.4" y="282.4" transform="matrix(0.3671 0.9302 -0.9302 0.3671 98.5024 466.9146)" class="st0" width="1" height="46.9"/>
</g>
<g>
	<path class="st1" d="M-272.3,296.5c0.3-0.1,0.9-0.5,1.6-0.8c0.8-0.5,0.5-1.8,2.3-3c1.8-1,6.8-3.1,6.8-3.1s2.3,1.3,2.6,2.5
		c0.5,1,0.7,3.1,0.7,3.1s-5.5,2.6-7.1,3c-1.5,0.5-3.8-1-4.4-0.8c-0.7,0.2-1.4,0.7-1.9,0.8c-0.3,0.1-0.8-0.1-0.8-0.8
		C-272.6,297-272.6,296.6-272.3,296.5"/>
</g>
<g>
	<path class="st1" d="M-314.7,314.3c0.1,0.5,0.1,0.8-0.1,0.9c-0.2,0.1-1,0.6-1.8,1s-0.7,2.5-2.4,3.6c-1.6,1-6.9,3.1-6.9,3.1
		s-2.3-1.4-2.8-2.3c-0.6-0.9-0.9-4-0.9-4s5.7-2.6,7.3-3c1.4-0.5,4,1,4.7,0.8c0.7-0.2,1.4-0.8,1.9-0.9
		C-315.1,313.3-314.9,313.8-314.7,314.3"/>
</g>
</svg>
