<?xml version="1.0" encoding="utf-8"?>
<!-- Generator: Adobe Illustrator 19.0.0, SVG Export Plug-In . SVG Version: 6.00 Build 0)  -->
<svg version="1.1" id="Layer_1" xmlns="http://www.w3.org/2000/svg" xmlns:xlink="http://www.w3.org/1999/xlink" x="0px" y="0px"
	 viewBox="-345 257 100 100" style="enable-background:new -345 257 100 100;" xml:space="preserve">
<style type="text/css">
	.st0{fill:#E8E8E8;}
	.st1{fill:#939393;}
	.st2{fill:#AFAFAF;}
	.st3{fill:#C6C7C6;}
	.st4{fill:#D3D3D3;}
	.st5{fill:#FFFFFF;}
</style>
<path class="st0" d="M-252.6,300.7c0,0,1.8,1.3,2,1.6s0.4,0.5,0.9,3.9c0.6,3.4,0.7,5.2,0.6,5.5c-0.1,0.3-0.7,0.6-0.7,0.6l-2.7-0.6
	l-0.5-3.4L-252.6,300.7z"/>
<polygon class="st1" points="-248.5,316.6 -248.2,319.6 -247.7,319.7 -247.4,319.4 -247.4,317.1 -247.5,316.1 "/>
<path class="st2" d="M-329.4,315.2l0.4,0.3l0.7-0.1l0.2-2.1l30.6,14.4l0.2,4.1l0.6,0.3l1.1-0.2l0.4-4.1l47.4-11v2.9l0.7-0.2
	c0,0,0.1-2.9,0.1-3.3s-0.1-0.8-0.7-1c-0.6-0.2-1.5-0.7-1.6-1c0-0.3,0-0.5,0-0.5l-46.8,8.5l-30.4-12.6l-0.8-23.7l40.3-0.1v-1.7
	l-43.2-0.2L-329.4,315.2z"/>
<path class="st3" d="M-327.6,286.3c0,0.7,0.4,20.3,0.4,20.6c0,0.4,0,0.5,0.4,0.6s0.5,0.1,0.8,0.1c0.7,0,5.7-0.5,5.7-0.5l33.9-6.8
	c0,0-0.3-13.5-0.3-14c0-0.4,0-0.6-0.6-0.6s-38.7,0-39.4,0C-327.4,285.6-327.6,285.6-327.6,286.3z"/>
<path class="st4" d="M-249.5,313.7c0,0,0-2.4,0-2.7s-0.2-0.5-0.7-0.6s-4.7-0.9-4.7-0.9l-34.7-2.5l-31.4-0.3c0,0-5.3,0.5-5.7,0.6
	c-0.4,0-0.4,0.1-0.4,0.3s0,1.6,0,2s0,0.6,0.3,0.7s29.9,12.5,30.4,12.6s0.8,0.3,1.5,0.1S-249.5,313.7-249.5,313.7z"/>
<path class="st5" d="M-324.2,300.4c-0.1,0.6-0.4,4.1,0,5.3c0.4,1.3,0.4,1.7,1.5,2.1c1,0.4,25,9,25.8,9.3s1.8,0.7,3.7,0.5
	c1.9-0.3,38-6.6,39.2-6.9s2.3-0.8,2.4-2.3s0.3-5,0.3-5.8s-1.2-1.2-2.7-1.6s-25.4-3.5-26-3.6s-2.8-0.2-4.1-0.1s-37.3,2.1-38.3,2.3
	S-324.2,300-324.2,300.4z"/>
<g>
	<path class="st2" d="M-322.3,291.5c-0.7,0-0.9,0.3-0.4,1s1.7,2.4,2.2,3.4c0.5,0.9,1.1,2,1.2,2.6c0,0.4-0.2,1.1,0.2,1.1
		s5.2-0.8,6-0.8s8.8-1.8,8.8-1.8l-6.2-5.1l-4.7-0.7l-0.1,0.3C-315.2,291.4-321.6,291.4-322.3,291.5z"/>
	<path class="st2" d="M-302,291.1c-0.7,0-0.9,0.3-0.4,1c0.5,0.6,0.1,1.4,0.6,2.4c0.5,0.9,2.2,2,2.2,2.6c0,0.4-0.2,1.1,0.2,1.1
		s5.7-0.5,6.5-0.4c0.4,0,2.9-0.7,5.4-0.8c2.4-0.1,4.9,0.5,4.8,0.1c-0.1-0.6-0.9-0.5-2.1-2.4l-10.1-3.9l-0.1,0.3
		C-294.9,291-301.3,291.1-302,291.1z"/>
	<path class="st0" d="M-316.5,291c0.4,0.6,2.6,5.7,3,7s0.1,1.9,1.2,1.6c1.1-0.2,12.1-0.9,13.3-0.9s1.4-0.2,1.1-0.4
		c-0.3-0.2-0.8-0.4-0.8-0.7c0-0.2-1.1-2.2-1.7-3s-1.2-2.8-1.3-3.5c-0.1-0.7-0.2-1.1-0.9-0.8c-0.7,0.3-1.7,0.6-3.7,0.6
		s-7.1-0.2-7.9-0.4c-0.9-0.2-2.6-1-2.8-0.7C-317.3,290-316.9,290.5-316.5,291z"/>
	<path class="st0" d="M-300,290.2c0.3,0.4,0.8,1.1,1.1,1.7s1.7,3.3,2.1,4s0.9,2.1,1.1,2.2s0.4,0.3,1,0.3s3.8-0.5,4.5-0.5
		s5.6-0.4,6.2-0.4s0.7-0.3,0.5-0.8s-0.9-2.2-1.6-3.2c-0.7-0.9-1.5-2.1-1.9-2.9c-0.3-0.8-0.5-1.2-1-1c-0.6,0.2-1.2,0.4-2.1,0.4
		s-5.7,0.1-6.5,0s-2.4-0.2-2.6-0.2S-300.7,289.5-300,290.2z"/>
</g>
<path class="st0" d="M-309.9,304.3c-0.8,1.6-2,8.3-2,10.1s0,1.8,0.7,2.1c0.7,0.3,8.2,3.8,8.5,3.9s1.2,0.8,1.5,1.1
	c0.3,0.4,0.7,0.5,1.3,0s1.4-1.7,2-4.2s1.6-9.9,2.6-10.6s9.1-1.7,12-1.9c2.9-0.3,7.5-0.8,9.6-1s10.3-1.4,13.2-1.8
	c2.9-0.4,8.5-0.8,9.4-0.1c0.3,0.2,0.4,0.4,0.4,0.3c-0.4-1.2-1.6-2.1-4.3-2.4c-2.7-0.3-7.5-0.9-8.8-1.2c-1.3-0.3-2.8-0.6-5.1-0.5
	c-2.3,0.1-7.4,0.1-11.3,0.5s-15.5,0.7-19.5,1.4c-4,0.7-6,0.9-7.4,1.4C-308.5,302-309.2,302.8-309.9,304.3z"/>
</svg>
