<?xml version="1.0" encoding="utf-8"?>
<!-- Generator: Adobe Illustrator 16.0.0, SVG Export Plug-In . SVG Version: 6.00 Build 0)  -->
<!DOCTYPE svg PUBLIC "-//W3C//DTD SVG 1.1//EN" "http://www.w3.org/Graphics/SVG/1.1/DTD/svg11.dtd">
<svg version="1.1" id="Layer_1" xmlns="http://www.w3.org/2000/svg" xmlns:xlink="http://www.w3.org/1999/xlink" x="0px" y="0px"
	 width="100px" height="100px" viewBox="0 0 100 100" enable-background="new 0 0 100 100" xml:space="preserve">
<g>
	<g>
		<path fill="#FFFFFF" d="M33.304,68.392c0,0.007,0,0.017,0,0.027C33.304,68.408,33.304,68.398,33.304,68.392z"/>
		<path fill="#FFFFFF" d="M33.304,68.45c0-0.012,0-0.022,0-0.031C33.304,68.428,33.304,68.438,33.304,68.45z"/>
		<path fill="#FFFFFF" d="M56.18,73.913c0.03,0,0.059,0,0.088,0h1.218L57.48,72.7c-0.003-0.6-0.006-1.2-0.009-1.801
			c-0.005-0.692-0.01-1.386-0.016-2.079l-0.007-0.844l-0.002-0.211c-0.002-0.034,0.002-0.072-0.004-0.104l-0.1-0.035l-0.398-0.138
			l-0.798-0.276l-0.399-0.139l-0.049-0.018l-0.026-0.008l-0.054-0.017l-0.108-0.034c-0.573-0.181-1.146-0.361-1.721-0.542
			c-1.148-0.36-2.301-0.715-3.457-1.067c-1.157-0.353-2.319-0.699-3.487-1.043c2.365,0.707,4.67,1.427,6.955,2.16
			c0.571,0.184,1.141,0.368,1.71,0.551l0.106,0.035l0.054,0.018l0.088,0.03l0.388,0.136l0.773,0.27l0.386,0.135l0.048,0.018
			l0.024,0.008c0.006,0,0.004,0.006,0.004,0.01l0.001,0.013v0.103l0.001,0.205l0.005,0.819c0.002,0.683,0.004,1.365,0.006,2.048
			c0,0.599,0,1.198,0,1.798v1.129l-1.127-0.001c-0.028,0-0.057,0-0.085-0.001c0.003-0.059,0.005-0.118,0.007-0.177
			c0.025,0,0.052,0,0.078,0l0.942,0.004l0.007-0.954c0.005-0.611,0.01-1.223,0.015-1.833c0.003-0.306,0.005-0.611,0.008-0.916
			l0.003-0.457l0.002-0.73v-0.79v-0.1l0.001-0.05c-0.001-0.007,0.002-0.019-0.003-0.022l-0.023-0.009l-0.185-0.065l-0.371-0.131
			l-0.744-0.264l-0.188-0.066l-0.092-0.032l-0.055-0.019l-0.218-0.073c-0.578-0.193-1.158-0.384-1.741-0.574
			c-2.327-0.76-4.688-1.479-7.125-2.148c0.013-0.04,0.04-0.119,0.053-0.16l-0.481-0.14l-0.324-0.096l-0.23-0.067
			c-0.019-0.006-0.038-0.013-0.057-0.016l-0.058,0.015l-0.116,0.03l-0.464,0.119l-0.029,0.008l-0.014,0.004l-0.008,0.003l-0.03,0.01
			l-0.059,0.021l-0.119,0.04l-0.476,0.163c-0.634,0.219-1.27,0.439-1.905,0.663c-1.272,0.449-2.548,0.911-3.826,1.396
			c-0.53,0.206-1.019,0.408-1.47,0.6c-0.448,0.192-0.862,0.368-1.241,0.53c1.889-0.713,3.842-1.378,5.828-2.033
			c0.993-0.328,1.995-0.651,3.001-0.974l0.378-0.12c0.011-0.005,0.045-0.013,0.068-0.019L45,64.376l0.154-0.041l0.153-0.04
			l0.077-0.02l0.038-0.011c0.007-0.001,0.013-0.004,0.019-0.004l0.019,0.006c0.299,0.093,0.597,0.186,0.896,0.278
			c0.507,0.159,1.014,0.317,1.522,0.478c2.03,0.641,4.068,1.295,6.093,1.957c0.506,0.167,1.012,0.333,1.517,0.499
			c0.371,0.128,0.742,0.257,1.112,0.385l0.285,0.1l0.071,0.025l0.009,0.003c0.004,0,0.006,0.002,0.005,0.006v0.02v0.037v0.152v0.604
			c0,0.334-0.001,0.667-0.001,1c-0.002,0.265-0.004,0.528-0.005,0.792c-0.005,0.527-0.01,1.053-0.014,1.577
			c-0.001-0.884-0.008-1.801-0.016-2.732c-0.003-0.341-0.006-0.684-0.009-1.028l-0.002-0.261l-0.002-0.131
			c-0.037-0.017-0.081-0.029-0.122-0.044c-0.166-0.057-0.332-0.112-0.498-0.168c-0.166-0.057-0.332-0.113-0.498-0.17l-0.249-0.085
			l-0.176-0.057c-0.225-0.072-0.45-0.145-0.676-0.218c-1.806-0.579-3.607-1.165-5.283-1.734c-1.2-0.396-2.374-0.771-3.529-1.127
			c-0.099-0.03-0.198-0.061-0.297-0.091l-0.085-0.025l-0.042-0.014c-0.014-0.002-0.028-0.014-0.043-0.006l-0.172,0.046
			c-0.114,0.03-0.229,0.061-0.343,0.091c-0.013,0.004-0.032,0.008-0.04,0.012l-0.026,0.008l-0.054,0.018l-0.107,0.034
			c-0.285,0.093-0.568,0.185-0.85,0.277c-0.563,0.186-1.123,0.37-1.678,0.554c-1.109,0.369-2.202,0.739-3.286,1.112
			c-1.084,0.372-2.158,0.75-3.228,1.142c-0.231,0.085-0.465,0.171-0.698,0.257c-0.299,0.126-0.569,0.233-0.81,0.328
			c-0.235,0.094-0.442,0.173-0.59,0.228c-0.147,0.055-0.237,0.085-0.238,0.086c0-0.012,0-0.021,0-0.03c0,0.01,0,0.02,0,0.03l0,0
			v2.756c-0.007,0.322-0.016,0.67-0.025,1.038c-0.016,0.001-0.047,0.005-0.063,0.006c0.011-0.509,0.02-0.922,0.027-1.257
			c0.005-0.332,0.009-0.587,0.012-0.781c0.004-0.387,0.002-0.529-0.005-0.561c-0.007-0.032-0.02,0.047-0.034,0.103
			c-0.013,0.056-0.027,0.087-0.024-0.039c-0.049,0.628-0.098,1.255-0.147,1.884L33.008,72.1l-0.009,0.117l-0.001,0.015l0.001,0.024
			l0.002,0.05l0.005,0.099l0.02,0.396L33.037,73l0,0.014l0,0.006l0,0.003h0.002l0.025,0.002l0.05,0.004l0.099,0.009l0.398,0.032
			l0.268,0.022l0.059,0.004c0.003,0,0.015,0.003,0.024,0.005l0.029,0.006l0.058,0.013l0.231,0.053l0.094-0.081
			c-0.015,3.016-0.073,5.987,0.081,8.403c0.224,3.119,1.006,1.949,1.285-1.17c0.056,0,0.167,0,0.223,0
			c-0.112,3.119,0.447,1.56,0.726,1.949c0-1.559,0.056-3.119,0.224-4.679c0-0.39,0-1.17,0-1.559
			c-0.003-1.485-0.006-2.954-0.008-4.411c0.069-0.018,0.141-0.033,0.212-0.049c0.384-0.081,0.803-0.143,1.227-0.193
			c0.85-0.099,1.726-0.16,2.603-0.202c1.756-0.085,3.525-0.104,5.293-0.091c0.883,0.005,1.764,0.021,2.642,0.053
			c0.877,0.032,1.752,0.078,2.615,0.153c0.228,0.021,0.455,0.042,0.681,0.066c0.013,0.006,0.025,0.011,0.037,0.016
			c0.306,0.128,0.597,0.271,0.847,0.431c0.062,0.04,0.12,0.083,0.181,0.123c0.059,0.042,0.11,0.085,0.166,0.127
			c0.048,0.045,0.101,0.087,0.145,0.131c0.043,0.045,0.09,0.088,0.124,0.133c0.041,0.043,0.069,0.088,0.103,0.129
			c0.014,0.021,0.027,0.042,0.041,0.062c0.015,0.021,0.021,0.037,0.035,0.062c0.014,0.027,0.025,0.057,0.039,0.081l0.059,0.041
			l0.117,0.08c0.009,0.007,0.019,0.013,0.027,0.019c0,0.008,0,0.016,0,0.023c-0.055,0-0.165,0-0.222,0
			c-0.024,2.058-0.062,4.134-0.113,6.236c0,0.874,0.105,1.625,0.237,2.253c0.097-1.553,0.167-3.143,0.219-4.755
			c0.026-0.807,0.049-1.618,0.066-2.434c0.007-0.367,0.015-0.735,0.021-1.103c0.011,0.012,0.022,0.024,0.033,0.036
			c-0.002,0.07-0.002,0.14-0.003,0.209c-0.012,0.933-0.022,1.846-0.032,2.747c-0.021,1.804-0.05,3.559-0.133,5.312
			c-0.012,0.189-0.023,0.382-0.035,0.572c0.063,0.249,0.128,0.473,0.185,0.672c0.279,0.777,0.671,1.169,0.95-0.392
			c0-0.39,0-1.169,0-1.169c0.11-0.153,0.229-0.065,0.343,0.027c0.057-2.374,0.101-4.748,0.148-7.121c0.002,0,0.004,0,0.006,0
			c-0.016,2.383-0.031,4.788-0.048,7.201c0.134,0.085,0.252,0.063,0.332-0.497c0.168-0.779,0-3.509,0.057-5.069
			C56.136,75.009,56.159,74.463,56.18,73.913z M50.366,70.737c-0.024-0.006-0.049-0.012-0.074-0.017
			c-0.119-0.022-0.238-0.045-0.357-0.068c0.004-0.001,0.008-0.003,0.013-0.004c0.178,0.008,0.356,0.018,0.534,0.028
			c0.101,0.006,0.2,0.013,0.301,0.021c0.159,0.033,0.316,0.069,0.472,0.108c-0.06-0.006-0.118-0.011-0.177-0.016
			C50.84,70.771,50.604,70.754,50.366,70.737z M49.256,70.619c0.14,0.022,0.279,0.046,0.417,0.067
			c0.02,0.003,0.04,0.007,0.059,0.011c-1.169-0.068-2.341-0.106-3.502-0.136C47.202,70.569,48.224,70.582,49.256,70.619z
			 M52.58,71.257c0.021,0.009,0.043,0.019,0.063,0.028c0.1,0.044,0.196,0.092,0.289,0.143c-0.116-0.019-0.233-0.035-0.351-0.052
			c-0.067-0.01-0.137-0.017-0.205-0.026c-0.138-0.06-0.279-0.117-0.425-0.17C52.163,71.203,52.372,71.229,52.58,71.257z
			 M33.305,68.48c0.004-0.002,0.177-0.059,0.6-0.179L33.305,68.48L33.305,68.48z M36.47,71.764L36.47,71.764L36.47,71.764
			C36.469,71.765,36.47,71.764,36.47,71.764C36.472,71.767,36.469,71.762,36.47,71.764z M50.567,71.173
			c-0.68-0.049-1.363-0.086-2.049-0.111c-1.371-0.053-2.753-0.067-4.144-0.062c-0.695,0.004-1.392,0.015-2.091,0.037
			c-0.699,0.021-1.4,0.053-2.102,0.101c0.04-0.038,0.159-0.09-0.047-0.108c0.712-0.078,1.427-0.128,2.138-0.161
			c0.711-0.034,1.421-0.05,2.128-0.053c1.415-0.005,2.821,0.029,4.215,0.103c0.698,0.036,1.393,0.081,2.084,0.14
			c0.283,0.023,0.567,0.05,0.85,0.079c0.168,0.054,0.332,0.11,0.491,0.172C51.555,71.253,51.062,71.21,50.567,71.173z
			 M53.583,72.093c-0.127-0.119-0.282-0.232-0.445-0.343c-0.043-0.026-0.087-0.052-0.131-0.078s-0.084-0.054-0.132-0.078
			l-0.14-0.073l-0.069-0.038l-0.073-0.034c-0.035-0.017-0.07-0.032-0.105-0.049c0.095,0.012,0.19,0.024,0.284,0.037
			c0.081,0.012,0.161,0.023,0.241,0.036c0.069,0.039,0.139,0.078,0.207,0.119c0.173,0.113,0.342,0.23,0.479,0.361
			c0.067,0.062,0.129,0.126,0.185,0.19c-0.001,0.099-0.002,0.199-0.003,0.298C53.807,72.329,53.706,72.209,53.583,72.093z
			 M54.079,72.689l-0.072-0.053l-0.036-0.025c-0.009-0.016-0.016-0.034-0.024-0.051l-0.012-0.026
			c-0.003-0.005-0.002-0.005-0.003-0.006l-0.002-0.003l-0.006-0.01l-0.012-0.021c-0.006-0.014-0.017-0.028-0.025-0.043
			c-0.002-0.002-0.004-0.005-0.006-0.008c0.002-0.099,0.004-0.197,0.006-0.297c0.058,0.067,0.108,0.136,0.152,0.203
			c0.011,0.016,0.022,0.032,0.03,0.049l0.014,0.024l0.005,0.007c0.002,0.09,0.004,0.181,0.006,0.271L54.079,72.689z M54.308,72.905
			c0.002-0.081,0.004-0.162,0.005-0.244l0.003,0.003c0.009,0.009,0.016,0.019,0.023,0.027c0.002,0.003,0.004,0.005,0.006,0.007
			c-0.001,0.082-0.003,0.163-0.004,0.244C54.33,72.93,54.319,72.918,54.308,72.905z M55.764,73.827
			c0.001-0.06,0.002-0.119,0.003-0.18c0.001,0,0.002,0,0.003,0c-0.001,0.061-0.001,0.12-0.002,0.18
			C55.767,73.827,55.765,73.827,55.764,73.827z"/>
	</g>
	<g>
		<polygon fill="#FFFFFF" points="29.239,28.988 35.332,28.988 35.332,34.66 29.321,34.66 		"/>
		<g>
			<path fill="#FFFFFF" d="M29.548,29.695c-0.002,0.101-0.004,0.202-0.006,0.301c-0.01,0.758-0.008,1.515-0.003,2.287
				c0.003,0.386,0.006,0.775,0.009,1.17c0.002,0.37,0.008,0.897,0.004,0.97c0.038,0.001,0.076,0.002,0.114,0.003l0.059,0.001
				c0.045,0,0.089,0.001,0.134,0.001c0.181,0.003,0.364,0.005,0.549,0.008c1.437,0.033,3.081,0.017,4.513,0.017
				c-0.92-0.006-1.854-0.013-2.79-0.019c-0.468-0.003-0.938-0.006-1.407-0.009c-0.234-0.001-0.468-0.003-0.703-0.005l-0.318-0.003
				l-0.142-0.003c0.001-0.711,0.002-1.418,0.003-2.116c0.004-0.777,0.013-1.544,0.029-2.296c0.044,0.331,0.082,0.725,0.088,1.185
				c0.003,1.039,0.007,2.063,0.01,3.079c-0.017,0.01-0.049,0.028-0.066,0.037l0.003,0.042l0.092-0.004
				c0.122-0.001,0.243-0.002,0.364-0.003c0.254,0,0.507-0.001,0.758-0.001c0.504,0,1.004,0.004,1.502,0.009
				c0.901,0.01,1.798,0.02,2.701,0.029l0.001-0.109c0-0.103,0-0.206,0-0.31c-0.001-0.235-0.002-0.47-0.003-0.706
				c-0.004-0.472-0.011-0.948-0.024-1.429c-0.009,0.109-0.023,0.044-0.034,0.022c0-0.008,0-0.015,0-0.022c0,0.007,0,0.014,0,0.022
				c-0.009-0.021-0.017-0.008-0.017,0.184c0-0.192,0.007-0.204,0.017-0.184c0.002,0.84,0.004,1.663,0.006,2.477
				c-0.886-0.004-1.764-0.008-2.648-0.012c-0.499-0.004-0.999-0.008-1.502-0.012c-0.251-0.002-0.504-0.004-0.758-0.007
				c-0.12-0.001-0.24-0.002-0.361-0.004l-0.033-0.004l0-0.005l0,0.005l0.033,0.002c0.118,0,0.236,0.001,0.354,0.002
				c0.252,0.001,0.503,0.002,0.754,0.003c0.502,0.001,1.003,0.003,1.503,0.004c0.879,0,1.755,0,2.632,0
				c-0.004-1.631-0.008-3.267-0.012-4.932c-0.634,0-1.274,0.001-1.92,0.002c-0.205,0-0.616,0-0.821,0
				c-0.821-0.05-1.643-0.067-2.463-0.067c0.205-0.084-0.616-0.251,1.027-0.218c0-0.017,0-0.05,0-0.067
				c-1.643-0.083-2.258-0.318-0.616-0.385c0.735-0.026,1.568-0.032,2.447-0.031c1.002,0.002,2.057,0.005,3.105,0.007
				c0,0.363,0.001,0.726,0.002,1.086c0.002,0.233,0.005,0.465,0.007,0.695c0.006,0.713,0.012,1.425,0.018,2.137l0.001,1.068
				c-0.003,0.491-0.005,0.981-0.008,1.472l-0.646-0.005l-0.246-0.003l-0.163-0.003c-0.864-0.019-1.758-0.028-2.659-0.037
				c-1.008-0.009-2.024-0.019-3.023-0.028c-0.001-0.245-0.002-0.489-0.003-0.732c0.001-0.136,0.001-0.271,0.002-0.406
				c0.003-0.27,0.006-0.538,0.009-0.803c0.005-0.821-0.066-2.257-0.021-2.669c0.02-0.295,0.055-0.307,0.096-0.263
				c0.015,1.35,0.029,2.695,0.043,4.025l0.004,0.718l1.288,0.013l1.093,0.016c0.729,0.013,1.457,0.025,2.186,0.038
				c-0.713-0.021-1.436-0.035-2.165-0.046c-0.365-0.004-0.731-0.009-1.099-0.014c-0.432-0.003-0.865-0.006-1.3-0.009
				c-0.002-0.237-0.004-0.476-0.007-0.715c-0.003-1.327-0.007-2.655-0.01-3.983c0.035,0.048,0.071,0.094,0.103,0.013
				c0,0-0.006-0.411-0.009-0.615c0.072-0.823,0.192-0.619,0.282-0.21C29.506,29.449,29.526,29.566,29.548,29.695z"/>
		</g>
	</g>
	<g>
		<polygon fill="#FFFFFF" points="42.347,28.988 48.439,28.988 48.439,34.66 42.428,34.66 		"/>
		<g>
			<path fill="#FFFFFF" d="M42.656,29.695c-0.002,0.101-0.004,0.202-0.006,0.301c-0.01,0.758-0.008,1.515-0.003,2.287
				c0.003,0.386,0.006,0.775,0.009,1.17c0.003,0.37,0.007,0.897,0.004,0.97c0.038,0.001,0.076,0.002,0.114,0.003l0.059,0.001
				c0.044,0,0.089,0.001,0.134,0.001c0.181,0.003,0.364,0.005,0.549,0.008c1.436,0.033,3.081,0.017,4.513,0.017
				c-0.92-0.006-1.854-0.013-2.79-0.019c-0.469-0.003-0.938-0.006-1.407-0.009c-0.234-0.001-0.469-0.003-0.703-0.005l-0.318-0.003
				l-0.142-0.003c0.001-0.711,0.002-1.418,0.003-2.116c0.004-0.777,0.013-1.544,0.029-2.296c0.044,0.331,0.082,0.725,0.088,1.185
				c0.003,1.039,0.007,2.063,0.011,3.079c-0.017,0.01-0.05,0.028-0.066,0.037l0.003,0.042l0.091-0.004
				c0.122-0.001,0.243-0.002,0.364-0.003c0.254,0,0.507-0.001,0.759-0.001c0.504,0,1.004,0.004,1.502,0.009
				c0.902,0.01,1.798,0.02,2.702,0.029l0.001-0.109c0-0.103,0-0.206,0-0.31c-0.001-0.235-0.003-0.47-0.004-0.706
				c-0.004-0.472-0.012-0.948-0.024-1.429c-0.009,0.109-0.023,0.044-0.034,0.022c0-0.008,0-0.015,0-0.022c0,0.007,0,0.014,0,0.022
				c-0.009-0.021-0.017-0.008-0.017,0.184c0-0.192,0.008-0.204,0.017-0.184c0.002,0.84,0.004,1.663,0.006,2.477
				c-0.886-0.004-1.764-0.008-2.648-0.012c-0.499-0.004-0.999-0.008-1.502-0.012c-0.252-0.002-0.504-0.004-0.758-0.007
				c-0.12-0.001-0.241-0.002-0.361-0.004l-0.033-0.004l0-0.005l0,0.005l0.033,0.002c0.118,0,0.236,0.001,0.354,0.002
				c0.252,0.001,0.503,0.002,0.754,0.003c0.502,0.001,1.003,0.003,1.503,0.004c0.879,0,1.755,0,2.632,0
				c-0.004-1.631-0.008-3.267-0.012-4.932c-0.634,0-1.274,0.001-1.92,0.002c-0.205,0-0.615,0-0.82,0
				c-0.821-0.05-1.643-0.067-2.463-0.067c0.205-0.084-0.616-0.251,1.026-0.218c0-0.017,0-0.05,0-0.067
				c-1.642-0.083-2.258-0.318-0.616-0.385c0.735-0.026,1.568-0.032,2.447-0.031c1.002,0.002,2.057,0.005,3.104,0.007
				c0.001,0.363,0.002,0.726,0.003,1.086c0.002,0.233,0.005,0.465,0.007,0.695c0.006,0.713,0.012,1.425,0.018,2.137l0.001,1.068
				c-0.002,0.491-0.005,0.981-0.008,1.472l-0.646-0.005l-0.246-0.003l-0.163-0.003c-0.864-0.019-1.758-0.028-2.659-0.037
				c-1.008-0.009-2.024-0.019-3.023-0.028c-0.001-0.245-0.002-0.489-0.004-0.732c0.001-0.136,0.002-0.271,0.002-0.406
				c0.003-0.27,0.006-0.538,0.009-0.803c0.004-0.821-0.066-2.257-0.022-2.669c0.02-0.295,0.055-0.307,0.095-0.263
				c0.015,1.35,0.029,2.695,0.043,4.025l0.004,0.718l1.287,0.013l1.093,0.016c0.729,0.013,1.457,0.025,2.186,0.038
				c-0.714-0.021-1.436-0.035-2.165-0.046c-0.364-0.004-0.73-0.009-1.099-0.014c-0.431-0.003-0.864-0.006-1.299-0.009
				c-0.002-0.237-0.004-0.476-0.007-0.715c-0.003-1.327-0.007-2.655-0.01-3.983c0.035,0.048,0.071,0.094,0.103,0.013
				c0,0-0.006-0.411-0.009-0.615c0.072-0.823,0.192-0.619,0.282-0.21C42.614,29.449,42.634,29.566,42.656,29.695z"/>
		</g>
	</g>
	<g>
		<polygon fill="#FFFFFF" points="55.131,28.988 61.225,28.988 61.225,34.66 55.213,34.66 		"/>
		<g>
			<path fill="#FFFFFF" d="M55.44,29.695c-0.002,0.101-0.004,0.202-0.006,0.301c-0.009,0.758-0.007,1.515-0.003,2.287
				c0.003,0.386,0.007,0.775,0.009,1.17c0.004,0.37,0.008,0.897,0.005,0.97c0.038,0.001,0.076,0.002,0.114,0.003l0.058,0.001
				c0.045,0,0.09,0.001,0.135,0.001c0.182,0.003,0.364,0.005,0.549,0.008c1.437,0.033,3.08,0.017,4.514,0.017
				c-0.921-0.006-1.854-0.013-2.79-0.019c-0.469-0.003-0.938-0.006-1.407-0.009c-0.234-0.001-0.469-0.003-0.702-0.005l-0.318-0.003
				l-0.142-0.003c0.001-0.711,0.002-1.418,0.003-2.116c0.004-0.777,0.013-1.544,0.028-2.296c0.045,0.331,0.082,0.725,0.088,1.185
				c0.004,1.039,0.008,2.063,0.011,3.079c-0.017,0.01-0.05,0.028-0.066,0.037l0.004,0.042l0.091-0.004
				c0.123-0.001,0.244-0.002,0.365-0.003c0.254,0,0.507-0.001,0.759-0.001c0.503,0,1.004,0.004,1.501,0.009
				c0.902,0.01,1.799,0.02,2.702,0.029l0.001-0.109c0-0.103,0-0.206,0-0.31c-0.001-0.235-0.002-0.47-0.003-0.706
				c-0.004-0.472-0.012-0.948-0.024-1.429c-0.01,0.109-0.023,0.044-0.034,0.022c0-0.008,0-0.015,0-0.022c0,0.007,0,0.014,0,0.022
				c-0.01-0.021-0.017-0.008-0.017,0.184c0-0.192,0.007-0.204,0.017-0.184c0.003,0.84,0.005,1.663,0.006,2.477
				c-0.886-0.004-1.764-0.008-2.647-0.012c-0.498-0.004-0.998-0.008-1.502-0.012c-0.252-0.002-0.504-0.004-0.758-0.007
				c-0.121-0.001-0.24-0.002-0.361-0.004l-0.033-0.004v-0.005v0.005l0.033,0.002c0.117,0,0.235,0.001,0.353,0.002
				c0.253,0.001,0.504,0.002,0.755,0.003c0.502,0.001,1.004,0.003,1.504,0.004c0.878,0,1.754,0,2.632,0
				c-0.004-1.631-0.008-3.267-0.012-4.932c-0.634,0-1.274,0.001-1.921,0.002c-0.204,0-0.614,0-0.82,0
				c-0.82-0.05-1.643-0.067-2.462-0.067c0.204-0.084-0.617-0.251,1.025-0.218c0-0.017,0-0.05,0-0.067
				c-1.643-0.083-2.258-0.318-0.616-0.385c0.736-0.026,1.569-0.032,2.448-0.031c1.002,0.002,2.057,0.005,3.104,0.007
				c0.001,0.363,0.002,0.726,0.002,1.086c0.003,0.233,0.005,0.465,0.008,0.695c0.006,0.713,0.012,1.425,0.018,2.137l0.001,1.068
				c-0.003,0.491-0.005,0.981-0.008,1.472l-0.646-0.005l-0.246-0.003l-0.162-0.003c-0.864-0.019-1.759-0.028-2.659-0.037
				c-1.009-0.009-2.025-0.019-3.023-0.028c-0.002-0.245-0.003-0.489-0.004-0.732c0-0.136,0.002-0.271,0.002-0.406
				c0.003-0.27,0.006-0.538,0.01-0.803c0.004-0.821-0.067-2.257-0.022-2.669c0.021-0.295,0.056-0.307,0.096-0.263
				c0.014,1.35,0.028,2.695,0.043,4.025l0.005,0.718l1.287,0.013l1.093,0.016c0.728,0.013,1.456,0.025,2.185,0.038
				c-0.713-0.021-1.435-0.035-2.164-0.046c-0.364-0.004-0.731-0.009-1.099-0.014c-0.432-0.003-0.864-0.006-1.3-0.009
				c-0.002-0.237-0.004-0.476-0.007-0.715c-0.003-1.327-0.007-2.655-0.011-3.983c0.036,0.048,0.071,0.094,0.104,0.013
				c0,0-0.006-0.411-0.009-0.615c0.071-0.823,0.192-0.619,0.282-0.21C55.398,29.449,55.419,29.566,55.44,29.695z"/>
		</g>
	</g>
	<g>
		<polygon fill="#FFFFFF" points="29.239,40.49 35.332,40.49 35.332,46.162 29.321,46.162 		"/>
		<g>
			<path fill="#FFFFFF" d="M29.548,41.198c-0.002,0.101-0.004,0.202-0.006,0.301c-0.01,0.758-0.008,1.515-0.003,2.287
				c0.003,0.386,0.006,0.776,0.009,1.17c0.002,0.37,0.008,0.897,0.004,0.97c0.038,0.001,0.076,0.002,0.114,0.003l0.059,0.002
				c0.045,0,0.089,0.001,0.134,0.001c0.181,0.002,0.364,0.005,0.549,0.008c1.437,0.034,3.081,0.017,4.513,0.017
				c-0.92-0.007-1.854-0.013-2.79-0.02c-0.468-0.003-0.938-0.006-1.407-0.009c-0.234-0.002-0.468-0.003-0.703-0.005l-0.318-0.003
				l-0.142-0.003c0.001-0.711,0.002-1.417,0.003-2.116c0.004-0.778,0.013-1.544,0.029-2.296c0.044,0.33,0.082,0.725,0.088,1.185
				c0.003,1.039,0.007,2.063,0.01,3.079c-0.017,0.01-0.049,0.028-0.066,0.037l0.003,0.042l0.092-0.004
				c0.122-0.001,0.243-0.002,0.364-0.003c0.254,0,0.507-0.001,0.758-0.001c0.504,0.001,1.004,0.004,1.502,0.01
				c0.901,0.01,1.798,0.019,2.701,0.029l0.001-0.108c0-0.104,0-0.207,0-0.31c-0.001-0.235-0.002-0.47-0.003-0.706
				c-0.004-0.473-0.011-0.948-0.024-1.429c-0.009,0.109-0.023,0.044-0.034,0.021c0-0.008,0-0.015,0-0.021c0,0.007,0,0.014,0,0.021
				c-0.009-0.021-0.017-0.008-0.017,0.184c0-0.191,0.007-0.204,0.017-0.184c0.002,0.84,0.004,1.663,0.006,2.477
				c-0.886-0.004-1.764-0.007-2.648-0.011c-0.499-0.004-0.999-0.008-1.502-0.012c-0.251-0.002-0.504-0.005-0.758-0.007
				c-0.12-0.001-0.24-0.003-0.361-0.004l-0.033-0.004l0-0.005l0,0.005l0.033,0.002c0.118,0,0.236,0.001,0.354,0.002
				c0.252,0.001,0.503,0.002,0.754,0.003c0.502,0.001,1.003,0.003,1.503,0.004c0.879,0,1.755,0,2.632,0
				c-0.004-1.631-0.008-3.266-0.012-4.932c-0.634,0.001-1.274,0.001-1.92,0.002c-0.205,0-0.616,0-0.821,0
				c-0.821-0.051-1.643-0.067-2.463-0.067c0.205-0.083-0.616-0.251,1.027-0.218c0-0.017,0-0.05,0-0.067
				c-1.643-0.083-2.258-0.318-0.616-0.385c0.735-0.027,1.568-0.032,2.447-0.031c1.002,0.002,2.057,0.005,3.105,0.007
				c0,0.363,0.001,0.725,0.002,1.086c0.002,0.233,0.005,0.465,0.007,0.695c0.006,0.712,0.012,1.425,0.018,2.137l0.001,1.068
				c-0.003,0.49-0.005,0.981-0.008,1.472l-0.646-0.005l-0.246-0.003l-0.163-0.003c-0.864-0.02-1.758-0.029-2.659-0.037
				c-1.008-0.01-2.024-0.019-3.023-0.028c-0.001-0.245-0.002-0.489-0.003-0.732c0.001-0.136,0.001-0.272,0.002-0.407
				c0.003-0.27,0.006-0.538,0.009-0.803c0.005-0.821-0.066-2.258-0.021-2.669c0.02-0.295,0.055-0.307,0.096-0.263
				c0.015,1.35,0.029,2.694,0.043,4.025l0.004,0.718l1.288,0.013l1.093,0.016c0.729,0.012,1.457,0.025,2.186,0.038
				c-0.713-0.021-1.436-0.035-2.165-0.046c-0.365-0.004-0.731-0.009-1.099-0.014c-0.432-0.003-0.865-0.006-1.3-0.009
				c-0.002-0.237-0.004-0.476-0.007-0.715c-0.003-1.328-0.007-2.655-0.01-3.983c0.035,0.048,0.071,0.094,0.103,0.013
				c0,0-0.006-0.411-0.009-0.616c0.072-0.822,0.192-0.618,0.282-0.21C29.506,40.951,29.526,41.069,29.548,41.198z"/>
		</g>
	</g>
	<g>
		<polygon fill="#FFFFFF" points="42.347,40.49 48.439,40.49 48.439,46.162 42.428,46.162 		"/>
		<g>
			<path fill="#FFFFFF" d="M42.656,41.198c-0.002,0.101-0.004,0.202-0.006,0.301c-0.01,0.758-0.008,1.515-0.003,2.287
				c0.003,0.386,0.006,0.776,0.009,1.17c0.003,0.37,0.007,0.897,0.004,0.97c0.038,0.001,0.076,0.002,0.114,0.003l0.059,0.002
				c0.044,0,0.089,0.001,0.134,0.001c0.181,0.002,0.364,0.005,0.549,0.008c1.436,0.034,3.081,0.017,4.513,0.017
				c-0.92-0.007-1.854-0.013-2.79-0.02c-0.469-0.003-0.938-0.006-1.407-0.009c-0.234-0.002-0.469-0.003-0.703-0.005l-0.318-0.003
				l-0.142-0.003c0.001-0.711,0.002-1.417,0.003-2.116c0.004-0.778,0.013-1.544,0.029-2.296c0.044,0.33,0.082,0.725,0.088,1.185
				c0.003,1.039,0.007,2.063,0.011,3.079c-0.017,0.01-0.05,0.028-0.066,0.037l0.003,0.042l0.091-0.004
				c0.122-0.001,0.243-0.002,0.364-0.003c0.254,0,0.507-0.001,0.759-0.001c0.504,0.001,1.004,0.004,1.502,0.01
				c0.902,0.01,1.798,0.019,2.702,0.029l0.001-0.108c0-0.104,0-0.207,0-0.31c-0.001-0.235-0.003-0.47-0.004-0.706
				c-0.004-0.473-0.012-0.948-0.024-1.429c-0.009,0.109-0.023,0.044-0.034,0.021c0-0.008,0-0.015,0-0.021c0,0.007,0,0.014,0,0.021
				c-0.009-0.021-0.017-0.008-0.017,0.184c0-0.191,0.008-0.204,0.017-0.184c0.002,0.84,0.004,1.663,0.006,2.477
				c-0.886-0.004-1.764-0.007-2.648-0.011c-0.499-0.004-0.999-0.008-1.502-0.012c-0.252-0.002-0.504-0.005-0.758-0.007
				c-0.12-0.001-0.241-0.003-0.361-0.004l-0.033-0.004l0-0.005l0,0.005l0.033,0.002c0.118,0,0.236,0.001,0.354,0.002
				c0.252,0.001,0.503,0.002,0.754,0.003c0.502,0.001,1.003,0.003,1.503,0.004c0.879,0,1.755,0,2.632,0
				c-0.004-1.631-0.008-3.266-0.012-4.932c-0.634,0.001-1.274,0.001-1.92,0.002c-0.205,0-0.615,0-0.82,0
				c-0.821-0.051-1.643-0.067-2.463-0.067c0.205-0.083-0.616-0.251,1.026-0.218c0-0.017,0-0.05,0-0.067
				c-1.642-0.083-2.258-0.318-0.616-0.385c0.735-0.027,1.568-0.032,2.447-0.031c1.002,0.002,2.057,0.005,3.104,0.007
				c0.001,0.363,0.002,0.725,0.003,1.086c0.002,0.233,0.005,0.465,0.007,0.695c0.006,0.712,0.012,1.425,0.018,2.137l0.001,1.068
				c-0.002,0.49-0.005,0.981-0.008,1.472l-0.646-0.005l-0.246-0.003l-0.163-0.003c-0.864-0.02-1.758-0.029-2.659-0.037
				c-1.008-0.01-2.024-0.019-3.023-0.028c-0.001-0.245-0.002-0.489-0.004-0.732c0.001-0.136,0.002-0.272,0.002-0.407
				c0.003-0.27,0.006-0.538,0.009-0.803c0.004-0.821-0.066-2.258-0.022-2.669c0.02-0.295,0.055-0.307,0.095-0.263
				c0.015,1.35,0.029,2.694,0.043,4.025l0.004,0.718l1.287,0.013l1.093,0.016c0.729,0.012,1.457,0.025,2.186,0.038
				c-0.714-0.021-1.436-0.035-2.165-0.046c-0.364-0.004-0.73-0.009-1.099-0.014c-0.431-0.003-0.864-0.006-1.299-0.009
				c-0.002-0.237-0.004-0.476-0.007-0.715c-0.003-1.328-0.007-2.655-0.01-3.983c0.035,0.048,0.071,0.094,0.103,0.013
				c0,0-0.006-0.411-0.009-0.616c0.072-0.822,0.192-0.618,0.282-0.21C42.614,40.951,42.634,41.069,42.656,41.198z"/>
		</g>
	</g>
	<g>
		<polygon fill="#FFFFFF" points="55.131,40.49 61.225,40.49 61.225,46.162 55.213,46.162 		"/>
		<g>
			<path fill="#FFFFFF" d="M55.44,41.198c-0.002,0.101-0.004,0.202-0.006,0.301c-0.009,0.758-0.007,1.515-0.003,2.287
				c0.003,0.386,0.007,0.776,0.009,1.17c0.004,0.37,0.008,0.897,0.005,0.97c0.038,0.001,0.076,0.002,0.114,0.003l0.058,0.002
				c0.045,0,0.09,0.001,0.135,0.001c0.182,0.002,0.364,0.005,0.549,0.008c1.437,0.034,3.08,0.017,4.514,0.017
				c-0.921-0.007-1.854-0.013-2.79-0.02c-0.469-0.003-0.938-0.006-1.407-0.009c-0.234-0.002-0.469-0.003-0.702-0.005l-0.318-0.003
				l-0.142-0.003c0.001-0.711,0.002-1.417,0.003-2.116c0.004-0.778,0.013-1.544,0.028-2.296c0.045,0.33,0.082,0.725,0.088,1.185
				c0.004,1.039,0.008,2.063,0.011,3.079c-0.017,0.01-0.05,0.028-0.066,0.037l0.004,0.042l0.091-0.004
				c0.123-0.001,0.244-0.002,0.365-0.003c0.254,0,0.507-0.001,0.759-0.001c0.503,0.001,1.004,0.004,1.501,0.01
				c0.902,0.01,1.799,0.019,2.702,0.029l0.001-0.108c0-0.104,0-0.207,0-0.31c-0.001-0.235-0.002-0.47-0.003-0.706
				c-0.004-0.473-0.012-0.948-0.024-1.429c-0.01,0.109-0.023,0.044-0.034,0.021c0-0.008,0-0.015,0-0.021c0,0.007,0,0.014,0,0.021
				c-0.01-0.021-0.017-0.008-0.017,0.184c0-0.191,0.007-0.204,0.017-0.184c0.003,0.84,0.005,1.663,0.006,2.477
				c-0.886-0.004-1.764-0.007-2.647-0.011c-0.498-0.004-0.998-0.008-1.502-0.012c-0.252-0.002-0.504-0.005-0.758-0.007
				c-0.121-0.001-0.24-0.003-0.361-0.004l-0.033-0.004V45.78v0.005l0.033,0.002c0.117,0,0.235,0.001,0.353,0.002
				c0.253,0.001,0.504,0.002,0.755,0.003c0.502,0.001,1.004,0.003,1.504,0.004c0.878,0,1.754,0,2.632,0
				c-0.004-1.631-0.008-3.266-0.012-4.932c-0.634,0.001-1.274,0.001-1.921,0.002c-0.204,0-0.614,0-0.82,0
				c-0.82-0.051-1.643-0.067-2.462-0.067c0.204-0.083-0.617-0.251,1.025-0.218c0-0.017,0-0.05,0-0.067
				c-1.643-0.083-2.258-0.318-0.616-0.385c0.736-0.027,1.569-0.032,2.448-0.031c1.002,0.002,2.057,0.005,3.104,0.007
				c0.001,0.363,0.002,0.725,0.002,1.086c0.003,0.233,0.005,0.465,0.008,0.695c0.006,0.712,0.012,1.425,0.018,2.137l0.001,1.068
				c-0.003,0.49-0.005,0.981-0.008,1.472l-0.646-0.005l-0.246-0.003l-0.162-0.003c-0.864-0.02-1.759-0.029-2.659-0.037
				c-1.009-0.01-2.025-0.019-3.023-0.028c-0.002-0.245-0.003-0.489-0.004-0.732c0-0.136,0.002-0.272,0.002-0.407
				c0.003-0.27,0.006-0.538,0.01-0.803c0.004-0.821-0.067-2.258-0.022-2.669c0.021-0.295,0.056-0.307,0.096-0.263
				c0.014,1.35,0.028,2.694,0.043,4.025l0.005,0.718l1.287,0.013l1.093,0.016c0.728,0.012,1.456,0.025,2.185,0.038
				c-0.713-0.021-1.435-0.035-2.164-0.046c-0.364-0.004-0.731-0.009-1.099-0.014c-0.432-0.003-0.864-0.006-1.3-0.009
				c-0.002-0.237-0.004-0.476-0.007-0.715c-0.003-1.328-0.007-2.655-0.011-3.983c0.036,0.048,0.071,0.094,0.104,0.013
				c0,0-0.006-0.411-0.009-0.616c0.071-0.822,0.192-0.618,0.282-0.21C55.398,40.951,55.419,41.069,55.44,41.198z"/>
		</g>
	</g>
	<g>
		<polygon fill="#FFFFFF" points="29.239,51.734 35.332,51.734 35.332,57.407 29.321,57.407 		"/>
		<g>
			<path fill="#FFFFFF" d="M29.548,52.442c-0.002,0.101-0.004,0.202-0.006,0.302c-0.01,0.758-0.008,1.516-0.003,2.286
				c0.003,0.387,0.006,0.775,0.009,1.171c0.002,0.37,0.008,0.896,0.004,0.97c0.038,0.001,0.076,0.002,0.114,0.003l0.059,0.001
				c0.045,0.001,0.089,0.002,0.134,0.002c0.181,0.003,0.364,0.006,0.549,0.008c1.437,0.034,3.081,0.018,4.513,0.018
				c-0.92-0.007-1.854-0.013-2.79-0.02c-0.468-0.003-0.938-0.006-1.407-0.009c-0.234-0.002-0.468-0.004-0.703-0.006l-0.318-0.002
				l-0.142-0.004c0.001-0.711,0.002-1.418,0.003-2.116c0.004-0.777,0.013-1.545,0.029-2.296c0.044,0.33,0.082,0.725,0.088,1.186
				c0.003,1.039,0.007,2.063,0.01,3.079c-0.017,0.01-0.049,0.027-0.066,0.037l0.003,0.041l0.092-0.004
				c0.122-0.001,0.243-0.002,0.364-0.003c0.254,0,0.507-0.001,0.758-0.001c0.504,0.001,1.004,0.005,1.502,0.009
				c0.901,0.011,1.798,0.02,2.701,0.029l0.001-0.108c0-0.104,0-0.207,0-0.31c-0.001-0.234-0.002-0.47-0.003-0.706
				c-0.004-0.473-0.011-0.948-0.024-1.429c-0.009,0.109-0.023,0.045-0.034,0.021c0-0.008,0-0.015,0-0.021c0,0.007,0,0.014,0,0.021
				c-0.009-0.021-0.017-0.008-0.017,0.184c0-0.191,0.007-0.204,0.017-0.184c0.002,0.84,0.004,1.663,0.006,2.477
				c-0.886-0.003-1.764-0.007-2.648-0.011c-0.499-0.004-0.999-0.008-1.502-0.012c-0.251-0.002-0.504-0.005-0.758-0.007
				c-0.12-0.002-0.24-0.003-0.361-0.004l-0.033-0.004l0-0.006l0,0.005l0.033,0.003c0.118,0,0.236,0.001,0.354,0.002
				c0.252,0.001,0.503,0.002,0.754,0.004c0.502,0.001,1.003,0.002,1.503,0.004c0.879,0,1.755,0,2.632,0
				c-0.004-1.631-0.008-3.267-0.012-4.932c-0.634,0-1.274,0.001-1.92,0.002c-0.205,0-0.616,0-0.821,0
				c-0.821-0.051-1.643-0.067-2.463-0.067c0.205-0.084-0.616-0.251,1.027-0.218c0-0.017,0-0.051,0-0.067
				c-1.643-0.084-2.258-0.318-0.616-0.385c0.735-0.026,1.568-0.032,2.447-0.031c1.002,0.003,2.057,0.005,3.105,0.008
				c0,0.362,0.001,0.726,0.002,1.085c0.002,0.233,0.005,0.465,0.007,0.695c0.006,0.713,0.012,1.426,0.018,2.138l0.001,1.068
				c-0.003,0.49-0.005,0.981-0.008,1.472l-0.646-0.005l-0.246-0.003L34.68,57.8c-0.864-0.02-1.758-0.028-2.659-0.036
				c-1.008-0.01-2.024-0.02-3.023-0.029c-0.001-0.244-0.002-0.488-0.003-0.732c0.001-0.136,0.001-0.271,0.002-0.406
				c0.003-0.271,0.006-0.537,0.009-0.803c0.005-0.822-0.066-2.258-0.021-2.669c0.02-0.295,0.055-0.308,0.096-0.263
				c0.015,1.35,0.029,2.694,0.043,4.025l0.004,0.717l1.288,0.015l1.093,0.015c0.729,0.013,1.457,0.025,2.186,0.038
				c-0.713-0.021-1.436-0.036-2.165-0.047c-0.365-0.004-0.731-0.009-1.099-0.013c-0.432-0.004-0.865-0.007-1.3-0.01
				c-0.002-0.237-0.004-0.477-0.007-0.715c-0.003-1.328-0.007-2.655-0.01-3.984c0.035,0.049,0.071,0.095,0.103,0.014
				c0,0-0.006-0.41-0.009-0.615c0.072-0.823,0.192-0.619,0.282-0.21C29.506,52.195,29.526,52.314,29.548,52.442z"/>
		</g>
	</g>
	<g>
		<polygon fill="#FFFFFF" points="42.347,51.734 48.439,51.734 48.439,57.407 42.428,57.407 		"/>
		<g>
			<path fill="#FFFFFF" d="M42.656,52.442c-0.002,0.101-0.004,0.202-0.006,0.302c-0.01,0.758-0.008,1.516-0.003,2.286
				c0.003,0.387,0.006,0.775,0.009,1.171c0.003,0.37,0.007,0.896,0.004,0.97c0.038,0.001,0.076,0.002,0.114,0.003l0.059,0.001
				c0.044,0.001,0.089,0.002,0.134,0.002c0.181,0.003,0.364,0.006,0.549,0.008c1.436,0.034,3.081,0.018,4.513,0.018
				c-0.92-0.007-1.854-0.013-2.79-0.02c-0.469-0.003-0.938-0.006-1.407-0.009c-0.234-0.002-0.469-0.004-0.703-0.006l-0.318-0.002
				l-0.142-0.004c0.001-0.711,0.002-1.418,0.003-2.116c0.004-0.777,0.013-1.545,0.029-2.296c0.044,0.33,0.082,0.725,0.088,1.186
				c0.003,1.039,0.007,2.063,0.011,3.079c-0.017,0.01-0.05,0.027-0.066,0.037l0.003,0.041l0.091-0.004
				c0.122-0.001,0.243-0.002,0.364-0.003c0.254,0,0.507-0.001,0.759-0.001c0.504,0.001,1.004,0.005,1.502,0.009
				c0.902,0.011,1.798,0.02,2.702,0.029l0.001-0.108c0-0.104,0-0.207,0-0.31c-0.001-0.234-0.003-0.47-0.004-0.706
				c-0.004-0.473-0.012-0.948-0.024-1.429c-0.009,0.109-0.023,0.045-0.034,0.021c0-0.008,0-0.015,0-0.021c0,0.007,0,0.014,0,0.021
				c-0.009-0.021-0.017-0.008-0.017,0.184c0-0.191,0.008-0.204,0.017-0.184c0.002,0.84,0.004,1.663,0.006,2.477
				c-0.886-0.003-1.764-0.007-2.648-0.011c-0.499-0.004-0.999-0.008-1.502-0.012c-0.252-0.002-0.504-0.005-0.758-0.007
				c-0.12-0.002-0.241-0.003-0.361-0.004l-0.033-0.004l0-0.006l0,0.005l0.033,0.003c0.118,0,0.236,0.001,0.354,0.002
				c0.252,0.001,0.503,0.002,0.754,0.004c0.502,0.001,1.003,0.002,1.503,0.004c0.879,0,1.755,0,2.632,0
				c-0.004-1.631-0.008-3.267-0.012-4.932c-0.634,0-1.274,0.001-1.92,0.002c-0.205,0-0.615,0-0.82,0
				c-0.821-0.051-1.643-0.067-2.463-0.067c0.205-0.084-0.616-0.251,1.026-0.218c0-0.017,0-0.051,0-0.067
				c-1.642-0.084-2.258-0.318-0.616-0.385c0.735-0.026,1.568-0.032,2.447-0.031c1.002,0.003,2.057,0.005,3.104,0.008
				c0.001,0.362,0.002,0.726,0.003,1.085c0.002,0.233,0.005,0.465,0.007,0.695c0.006,0.713,0.012,1.426,0.018,2.138l0.001,1.068
				c-0.002,0.49-0.005,0.981-0.008,1.472l-0.646-0.005l-0.246-0.003L47.788,57.8c-0.864-0.02-1.758-0.028-2.659-0.036
				c-1.008-0.01-2.024-0.02-3.023-0.029c-0.001-0.244-0.002-0.488-0.004-0.732c0.001-0.136,0.002-0.271,0.002-0.406
				c0.003-0.271,0.006-0.537,0.009-0.803c0.004-0.822-0.066-2.258-0.022-2.669c0.02-0.295,0.055-0.308,0.095-0.263
				c0.015,1.35,0.029,2.694,0.043,4.025l0.004,0.717l1.287,0.015l1.093,0.015c0.729,0.013,1.457,0.025,2.186,0.038
				c-0.714-0.021-1.436-0.036-2.165-0.047c-0.364-0.004-0.73-0.009-1.099-0.013c-0.431-0.004-0.864-0.007-1.299-0.01
				c-0.002-0.237-0.004-0.477-0.007-0.715c-0.003-1.328-0.007-2.655-0.01-3.984c0.035,0.049,0.071,0.095,0.103,0.014
				c0,0-0.006-0.41-0.009-0.615c0.072-0.823,0.192-0.619,0.282-0.21C42.614,52.195,42.634,52.314,42.656,52.442z"/>
		</g>
	</g>
	<g>
		<polygon fill="#FFFFFF" points="55.131,51.734 61.225,51.734 61.225,57.407 55.213,57.407 		"/>
		<g>
			<path fill="#FFFFFF" d="M55.44,52.442c-0.002,0.101-0.004,0.202-0.006,0.302c-0.009,0.758-0.007,1.516-0.003,2.286
				c0.003,0.387,0.007,0.775,0.009,1.171c0.004,0.37,0.008,0.896,0.005,0.97c0.038,0.001,0.076,0.002,0.114,0.003l0.058,0.001
				c0.045,0.001,0.09,0.002,0.135,0.002c0.182,0.003,0.364,0.006,0.549,0.008c1.437,0.034,3.08,0.018,4.514,0.018
				c-0.921-0.007-1.854-0.013-2.79-0.02c-0.469-0.003-0.938-0.006-1.407-0.009c-0.234-0.002-0.469-0.004-0.702-0.006l-0.318-0.002
				l-0.142-0.004c0.001-0.711,0.002-1.418,0.003-2.116c0.004-0.777,0.013-1.545,0.028-2.296c0.045,0.33,0.082,0.725,0.088,1.186
				c0.004,1.039,0.008,2.063,0.011,3.079c-0.017,0.01-0.05,0.027-0.066,0.037l0.004,0.041l0.091-0.004
				c0.123-0.001,0.244-0.002,0.365-0.003c0.254,0,0.507-0.001,0.759-0.001c0.503,0.001,1.004,0.005,1.501,0.009
				c0.902,0.011,1.799,0.02,2.702,0.029l0.001-0.108c0-0.104,0-0.207,0-0.31c-0.001-0.234-0.002-0.47-0.003-0.706
				c-0.004-0.473-0.012-0.948-0.024-1.429c-0.01,0.109-0.023,0.045-0.034,0.021c0-0.008,0-0.015,0-0.021c0,0.007,0,0.014,0,0.021
				c-0.01-0.021-0.017-0.008-0.017,0.184c0-0.191,0.007-0.204,0.017-0.184c0.003,0.84,0.005,1.663,0.006,2.477
				c-0.886-0.003-1.764-0.007-2.647-0.011c-0.498-0.004-0.998-0.008-1.502-0.012c-0.252-0.002-0.504-0.005-0.758-0.007
				c-0.121-0.002-0.24-0.003-0.361-0.004l-0.033-0.004v-0.006v0.005l0.033,0.003c0.117,0,0.235,0.001,0.353,0.002
				c0.253,0.001,0.504,0.002,0.755,0.004c0.502,0.001,1.004,0.002,1.504,0.004c0.878,0,1.754,0,2.632,0
				c-0.004-1.631-0.008-3.267-0.012-4.932c-0.634,0-1.274,0.001-1.921,0.002c-0.204,0-0.614,0-0.82,0
				c-0.82-0.051-1.643-0.067-2.462-0.067c0.204-0.084-0.617-0.251,1.025-0.218c0-0.017,0-0.051,0-0.067
				c-1.643-0.084-2.258-0.318-0.616-0.385c0.736-0.026,1.569-0.032,2.448-0.031c1.002,0.003,2.057,0.005,3.104,0.008
				c0.001,0.362,0.002,0.726,0.002,1.085c0.003,0.233,0.005,0.465,0.008,0.695c0.006,0.713,0.012,1.426,0.018,2.138l0.001,1.068
				c-0.003,0.49-0.005,0.981-0.008,1.472l-0.646-0.005l-0.246-0.003L60.573,57.8c-0.864-0.02-1.759-0.028-2.659-0.036
				c-1.009-0.01-2.025-0.02-3.023-0.029c-0.002-0.244-0.003-0.488-0.004-0.732c0-0.136,0.002-0.271,0.002-0.406
				c0.003-0.271,0.006-0.537,0.01-0.803c0.004-0.822-0.067-2.258-0.022-2.669c0.021-0.295,0.056-0.308,0.096-0.263
				c0.014,1.35,0.028,2.694,0.043,4.025l0.005,0.717l1.287,0.015l1.093,0.015c0.728,0.013,1.456,0.025,2.185,0.038
				c-0.713-0.021-1.435-0.036-2.164-0.047c-0.364-0.004-0.731-0.009-1.099-0.013c-0.432-0.004-0.864-0.007-1.3-0.01
				c-0.002-0.237-0.004-0.477-0.007-0.715c-0.003-1.328-0.007-2.655-0.011-3.984c0.036,0.049,0.071,0.095,0.104,0.014
				c0,0-0.006-0.41-0.009-0.615c0.071-0.823,0.192-0.619,0.282-0.21C55.398,52.195,55.419,52.314,55.44,52.442z"/>
		</g>
	</g>
	<g>
		<path fill="#FFFFFF" d="M84.043,34.94c0.03-4.427,0.061-8.885,0.091-13.25c-0.917-0.005-1.831-0.01-2.742-0.016
			c-0.501-0.006-1.002-0.012-1.5-0.018c-0.996-0.015-1.984-0.03-2.964-0.045l-1.481-0.021l-2.827-0.017
			c-0.009,1.958-0.018,3.915-0.025,5.873c-0.002,1.002-0.001,2.005,0,3.008c-0.416-0.02-0.833,0.019-1.249,0.059
			c-0.257,0.035-0.521,0.037-0.782,0.03c0.003-0.548,0.005-1.097,0.008-1.645c0.004-1.052,0.008-2.103,0.013-3.154
			c0.002-0.525,0.004-1.05,0.006-1.575l-0.065-0.691l-0.033-0.35l-0.018-0.175c0.001-0.015-0.006-0.027-0.012-0.041
			c-0.006-0.013-0.012-0.025-0.02-0.039C70.43,22.85,70.415,22.824,70.4,22.8c-0.238-0.396-0.645-0.665-1.084-0.872
			c-0.054-0.026-0.108-0.054-0.164-0.079c-0.055-0.023-0.11-0.047-0.167-0.068l-0.119-0.047c-0.036-0.014-0.074-0.029-0.109-0.041
			c-0.142-0.047-0.288-0.101-0.426-0.14c-0.281-0.087-0.556-0.158-0.829-0.225l-0.408-0.095l-0.404-0.083
			c-0.135-0.029-0.269-0.054-0.402-0.078l-0.401-0.073c-1.068-0.182-2.125-0.317-3.177-0.429c-1.052-0.111-2.099-0.206-3.141-0.28
			c-0.521-0.041-1.04-0.073-1.559-0.106c-0.519-0.036-1.035-0.06-1.552-0.09c-2.064-0.109-4.108-0.182-6.13-0.24
			c-2.454-0.066-4.903-0.099-7.356-0.092l-1.84,0.002l-1.842,0.025c-1.228,0.011-2.458,0.054-3.687,0.087
			c-2.461,0.091-4.923,0.219-7.401,0.466l-0.464,0.047c-0.155,0.016-0.31,0.029-0.465,0.051l-0.933,0.117
			c-0.622,0.08-1.248,0.178-1.878,0.293c-0.157,0.025-0.317,0.062-0.475,0.093c-0.159,0.034-0.316,0.062-0.478,0.103l-0.482,0.116
			l-0.491,0.138c-0.167,0.052-0.335,0.106-0.505,0.166l-0.263,0.101c-0.044,0.019-0.085,0.032-0.133,0.055l-0.14,0.064l-0.139,0.064
			c-0.022,0.01-0.048,0.025-0.074,0.039l-0.077,0.042l-0.151,0.086c-0.012,0.007-0.026,0.016-0.041,0.026l-0.043,0.029l-0.086,0.059
			l-0.085,0.06l-0.021,0.016l-0.025,0.021l-0.05,0.042c-0.034,0.029-0.067,0.059-0.099,0.088l-0.048,0.045
			c-0.019,0.019-0.04,0.043-0.06,0.064c-0.04,0.044-0.078,0.09-0.115,0.137l-0.027,0.035l-0.035,0.052
			c-0.023,0.036-0.045,0.072-0.067,0.109c-0.021,0.037-0.041,0.074-0.06,0.113c-0.026,0.057-0.049,0.116-0.069,0.175
			c-0.021,0.064-0.036,0.104-0.057,0.22c-0.009,0.051-0.015,0.101-0.019,0.151c-0.001,0.027-0.004,0.036-0.004,0.119
			c0,0.001,0,0.003,0,0.004l0.027,5.781c0.111,16.091-0.112,33.649,0.111,46.815c0.224,11.707,1.006,7.317,1.285-4.391
			c0.056,0,0.168,0,0.224,0c-0.112,11.708,0.447,5.855,0.726,7.315c0-5.849,0.056-11.703,0.224-17.555c0-1.464,0-4.392,0-5.852
			c-0.008-10.7-0.015-21.203-0.022-31.593l0.055-0.025l0.196-0.076l0.049-0.019l0.055-0.018l0.108-0.035
			c0.074-0.022,0.141-0.049,0.22-0.069l0.23-0.063c0.622-0.167,1.29-0.294,1.962-0.406c0.168-0.028,0.339-0.051,0.509-0.077
			c0.17-0.024,0.339-0.054,0.511-0.073l1.031-0.127c0.171-0.023,0.346-0.038,0.519-0.056l0.52-0.051
			c0.347-0.034,0.692-0.072,1.042-0.095c2.787-0.229,5.596-0.343,8.405-0.414c0.703-0.013,1.405-0.025,2.108-0.038l1.054-0.017
			l1.054-0.007c0.703-0.004,1.406-0.008,2.109-0.012c0.703,0.001,1.406,0.002,2.109,0.004c2.811,0.015,5.619,0.058,8.419,0.164
			l1.05,0.041l1.048,0.051c0.351,0.016,0.699,0.035,1.048,0.056c0.349,0.021,0.698,0.038,1.047,0.063
			c1.394,0.09,2.783,0.205,4.158,0.361l0.514,0.062c0.172,0.021,0.343,0.042,0.513,0.066l0.511,0.07l0.505,0.079
			c0.672,0.11,1.339,0.235,1.963,0.398c0.159,0.039,0.307,0.084,0.456,0.128c0.074,0.022,0.143,0.047,0.214,0.071
			c0.035,0.012,0.072,0.023,0.104,0.036l0.079,0.031c0.024,0.009,0.039,0.017,0.058,0.027c0.017,0.01,0.035,0.021,0.042,0.041
			c-0.001,0.504-0.002,1.009-0.003,1.513c-0.012,5.661-0.024,11.341-0.036,17.055c0.023-5.39,0.047-10.694,0.07-15.956
			c0.002-0.658,0.005-1.315,0.007-1.972l0.002-0.492v-0.096l0.002-0.035v-0.036c0-0.012-0.009-0.022-0.017-0.03
			c-0.018-0.016-0.038-0.028-0.06-0.039l-0.032-0.016l-0.109-0.043c-0.062-0.023-0.131-0.044-0.196-0.067
			c-0.063-0.023-0.134-0.044-0.204-0.064l-0.21-0.062l-0.217-0.057c-0.144-0.04-0.295-0.072-0.443-0.107
			c-0.601-0.134-1.221-0.246-1.849-0.341c-1.255-0.191-2.536-0.326-3.819-0.439c-1.283-0.113-2.575-0.193-3.868-0.265
			c-2.588-0.136-5.185-0.211-7.791-0.251c-0.651-0.013-1.303-0.016-1.956-0.024c-0.652-0.008-1.305-0.009-1.959-0.011
			c-0.327-0.001-0.654-0.002-0.981-0.003c-0.327,0.002-0.654,0.003-0.981,0.005c-0.654,0.003-1.31,0.007-1.965,0.01
			c-2.622,0.032-5.254,0.077-7.891,0.21l-0.495,0.022l-0.494,0.028c-0.33,0.02-0.659,0.04-0.989,0.06
			c-0.662,0.034-1.318,0.094-1.978,0.144l-0.495,0.04l-0.492,0.049c-0.329,0.032-0.657,0.065-0.986,0.099
			c-0.326,0.04-0.653,0.08-0.979,0.12c-0.163,0.022-0.328,0.039-0.489,0.064L25.8,23.165c0.149-0.059,0.589-0.169-0.167-0.088
			l0.494-0.079l0.247-0.04l0.25-0.033c0.333-0.045,0.665-0.089,0.997-0.133c0.333-0.04,0.668-0.074,1.002-0.11
			c0.334-0.036,0.668-0.074,1.004-0.1c1.34-0.122,2.683-0.211,4.024-0.282c2.682-0.146,5.358-0.196,8.023-0.227
			c2.666-0.021,5.324-0.01,7.973,0.041c2.648,0.051,5.289,0.139,7.918,0.291c1.314,0.079,2.626,0.174,3.932,0.296
			c1.304,0.123,2.604,0.275,3.877,0.486c0.634,0.108,1.264,0.229,1.86,0.385l0.223,0.059l0.216,0.064l0.106,0.032l0.103,0.035
			l0.103,0.035c0.034,0.011,0.067,0.023,0.099,0.036c0.081,0.033,0.082,0.032,0.103,0.042c0.018,0.009,0.035,0.016,0.053,0.025
			c0.034,0.018,0.066,0.039,0.094,0.067c0.014,0.013,0.023,0.032,0.02,0.052l-0.001,0.058l-0.001,0.058l-0.001,0.164
			c-0.001,0.333-0.003,0.667-0.004,1c-0.002,0.668-0.004,1.336-0.006,2.004c-0.014,5.349-0.01,10.745,0.031,16.231
			c-0.055,0-0.165,0-0.222,0c-0.024,7.725-0.062,15.514-0.113,23.406c0,3.28,0.105,6.097,0.237,8.455
			c0.193-11.661,0.28-23.868,0.332-36.195c0.011-3.082,0.021-6.171,0.032-9.26c0.006-1.545,0.009-3.09,0.015-4.635l0.003-1.151
			l0.001-0.262c-0.001-0.021,0.006-0.044-0.006-0.064c-0.009-0.02-0.024-0.037-0.039-0.053c-0.031-0.03-0.067-0.056-0.104-0.079
			c-0.075-0.046-0.152-0.082-0.237-0.115l-0.107-0.042c-0.039-0.015-0.082-0.028-0.122-0.042c-0.084-0.028-0.164-0.058-0.251-0.082
			l-0.258-0.077l-0.265-0.069c-0.088-0.024-0.178-0.045-0.268-0.066l-0.271-0.062c-0.726-0.16-1.473-0.281-2.222-0.387
			c-0.75-0.109-1.507-0.192-2.264-0.272c-1.517-0.151-3.039-0.265-4.562-0.351c-1.523-0.084-3.046-0.153-4.566-0.2
			c-0.76-0.027-1.52-0.042-2.277-0.064c-0.759-0.015-1.517-0.029-2.273-0.044c2.554,0.032,5.198,0.085,7.882,0.208
			c0.335,0.015,0.671,0.031,1.008,0.047c0.337,0.019,0.673,0.038,1.011,0.057c0.338,0.018,0.675,0.041,1.013,0.064
			c0.338,0.022,0.677,0.044,1.015,0.073c1.353,0.104,2.707,0.234,4.046,0.419c0.335,0.044,0.667,0.099,1,0.15
			c0.33,0.059,0.66,0.115,0.985,0.183c0.164,0.032,0.323,0.07,0.484,0.106c0.162,0.035,0.317,0.079,0.476,0.119
			c0.079,0.019,0.154,0.043,0.231,0.066c0.076,0.024,0.156,0.043,0.229,0.07l0.222,0.075l0.175,0.068
			c0.08,0.035,0.159,0.07,0.232,0.117c0.02,0.011,0.037,0.022,0.054,0.036c0.019,0.012,0.035,0.026,0.05,0.041
			c0.016,0.015,0.031,0.031,0.043,0.049c0.006,0.009,0.01,0.019,0.014,0.029c0.003,0.01,0.001,0.021,0.001,0.032
			c0,0.235-0.001,0.47-0.002,0.705c-0.002,0.679-0.004,1.356-0.007,2.03c-0.005,1.45-0.013,2.885-0.022,4.3
			c-0.079,0.147-0.073,0.33-0.004,0.505c-0.009,1.048-0.018,2.083-0.029,3.105c-0.111,14.63-0.056,27.799-0.224,40.967
			c-0.011,0.712-0.023,1.43-0.034,2.147c0.063,0.935,0.128,1.771,0.185,2.518c0.279,2.922,0.671,4.389,0.95-1.467
			c0-1.463,0-4.388,0-4.388c0.11-0.577,0.229-0.245,0.343,0.102c0.025-4.601,0.051-9.203,0.076-13.805c0.021,0,0.04,0,0.056,0
			c-0.009,4.688-0.017,9.394-0.024,14.106c0.132,0.321,0.251,0.238,0.331-1.864c0.113-1.965,0.074-7.226,0.054-12.244
			c0.776-0.006,1.533-0.029,2.287-0.041c0,0.309,0,0.616,0.001,0.922c0.005,1.354,0.011,2.685,0.015,3.985
			c0.848-0.004,1.684-0.009,2.511-0.014c0.451-0.006,0.896-0.013,1.335-0.019c0.832-0.014,1.641-0.031,2.424-0.054
			c6.391-0.203,4.787-0.868-0.841-1.198h4.793V63.04c0.048-0.346,0.093-0.782,0.136-1.323c0-0.878,0-2.633,0-2.633
			c0.11-0.346,0.229-0.146,0.344,0.061c0.053-5.677,0.104-11.358,0.156-17.035c0.015-3.252,0.034-6.483,0.066-9.684
			c0.02-1.601,0.04-3.193,0.059-4.778c0.013-0.792,0.025-1.583,0.037-2.37c0.008-0.434,0.015-0.866,0.021-1.298
			c0.008-0.635,0.016-1.269,0.023-1.901c-0.474-0.006-0.943-0.012-1.41-0.018c-0.237-0.003-0.474-0.006-0.71-0.009
			c-0.156-0.003-0.314-0.007-0.472-0.01l0.476,0.007l0.714,0.007c0.47,0.004,0.94,0.009,1.412,0.013
			c-0.041,3.481-0.082,6.963-0.122,10.446c-0.031,3.198-0.062,6.396-0.095,9.595c-0.016,5.69-0.033,11.444-0.05,17.216
			c0.133,0.192,0.252,0.143,0.332-1.119c0.167-1.756,0-7.902,0.056-11.415C83.967,42.944,84.011,38.956,84.043,34.94z
			 M21.497,23.465c0.018,0.001,0.035,0.003,0.051,0.008c0.009,0.002,0.015,0.004,0.023,0.006
			C21.484,23.477,21.448,23.472,21.497,23.465z M22.614,23.431l-0.012-0.152C23.004,23.348,22.89,23.398,22.614,23.431z
			 M70.044,45.965c-0.007,3.992-0.014,8.004-0.021,12.028c-0.015,0-0.03,0-0.045-0.001C69.999,53.982,70.021,49.973,70.044,45.965
			c0.011-4.319,0.026-8.614,0.048-12.881c0.01,0,0.019,0,0.028,0C70.095,37.377,70.069,41.671,70.044,45.965z M70.147,28.516
			c-0.004,0.671-0.008,1.342-0.012,2.013c-0.011,0-0.02,0-0.029-0.001c0.004-0.73,0.008-1.46,0.013-2.188
			c0.006-0.728,0.01-1.455,0.016-2.18c0.002-0.363,0.005-0.726,0.008-1.088l0.004-0.543l0.002-0.272l0.001-0.067
			c0-0.012,0-0.021,0-0.036l-0.004-0.05l-0.014-0.202l-0.028-0.404l-0.014-0.202l-0.008-0.101l-0.003-0.05
			c-0.001-0.018-0.01-0.031-0.016-0.047c-0.058-0.122-0.144-0.226-0.237-0.319c-0.096-0.093-0.202-0.176-0.315-0.25l-0.178-0.106
			c-0.028-0.019-0.06-0.034-0.091-0.048l-0.094-0.045c-0.062-0.03-0.126-0.062-0.188-0.089l-0.097-0.04l-0.087-0.034
			c-0.047-0.019-0.095-0.039-0.142-0.056l-0.141-0.049c-0.094-0.032-0.188-0.065-0.28-0.092c-0.741-0.228-1.469-0.382-2.195-0.516
			c-0.726-0.132-1.449-0.244-2.171-0.335c-0.36-0.05-0.721-0.091-1.081-0.133c-0.36-0.044-0.72-0.078-1.079-0.116
			c-1.438-0.145-2.869-0.254-4.296-0.35c1.459,0.091,2.919,0.199,4.38,0.344c0.365,0.037,0.729,0.073,1.096,0.116l0.548,0.062
			l0.549,0.071c0.365,0.045,0.732,0.103,1.098,0.155c0.366,0.061,0.733,0.117,1.101,0.188l0.275,0.052l0.276,0.058l0.275,0.058
			l0.277,0.064c0.369,0.084,0.74,0.188,1.116,0.308l0.284,0.098l0.145,0.057c0.063,0.025,0.131,0.052,0.194,0.081l0.191,0.092
			l0.096,0.046c0.032,0.015,0.061,0.035,0.091,0.052c0.061,0.037,0.121,0.072,0.18,0.109c0.056,0.04,0.11,0.082,0.165,0.124
			c0.052,0.045,0.101,0.091,0.149,0.138c0.045,0.05,0.092,0.1,0.13,0.156c0.038,0.055,0.076,0.115,0.097,0.178l0.014,0.206
			l0.06,0.821L70.147,28.516z M72.602,32.767c0,0.062,0.001,0.123,0.001,0.184c-0.242,0.002-0.486,0.008-0.734,0.021
			c0.008-0.036,0.031-0.082-0.009-0.111C72.11,32.797,72.357,32.771,72.602,32.767z M72.666,60.419
			c-0.263,0-0.528,0.007-0.798,0.021c0.008-0.035,0.031-0.081-0.009-0.111c0.273-0.068,0.541-0.094,0.807-0.094
			C72.666,60.296,72.666,60.357,72.666,60.419z M72.68,52.837c-0.004,1.719-0.009,3.423-0.014,5.09
			c-0.439-0.028-0.881,0.014-1.321,0.056c-0.319,0.044-0.649,0.036-0.974,0.023c-0.004-1.536-0.002-2.986,0.01-4.236
			c0.094-6.712,0.139-13.679,0.171-20.688c0.694-0.008,1.374-0.028,2.052-0.039c0.011,2.662,0.032,5.324,0.054,7.986
			C72.702,44.898,72.692,48.911,72.68,52.837z M80.601,56.59c-0.004,0.304-0.008,0.606-0.012,0.906
			c-0.012,1.096,0.022,3.014-0.012,3.562c-0.007,0.197-0.018,0.3-0.028,0.345c-0.004,0.01-0.006,0.026-0.009,0.033
			s-0.006,0.01-0.009,0.009c-0.006-0.001-0.014-0.02-0.02-0.037c0.003-1.801,0.007-3.597,0.01-5.372
			c-0.011,1.771-0.021,3.543-0.031,5.315c-0.023-0.064-0.047-0.127-0.069-0.019v0.382h-0.494c-0.169-0.009-0.295-0.018-0.402-0.027
			h-0.351v-0.067v-0.001v-1.439c-0.066,1.763-0.199,2.271-0.24,0.274c-0.003-0.2-0.006-0.405-0.009-0.615
			c-0.001-0.105-0.002-0.212-0.004-0.319v-0.041v-0.013v-0.001l-0.001-0.007l-0.001-0.011l-0.02,0.002
			c-0.088,0-0.177,0.001-0.266,0.002c-0.183,0-0.366,0-0.554,0.001c-0.289,0-0.584,0-0.885,0c-0.002,0.811-0.004,1.649-0.005,2.491
			c-0.576,0-1.155,0-1.731-0.001c-0.002-0.606-0.005-1.21-0.007-1.806c-0.003-0.744-0.006-1.489-0.01-2.232
			c-0.001-0.836-0.002-1.671-0.002-2.507c0.588,0.002,1.176,0.003,1.764,0.005c-0.002,0.386-0.005,0.771-0.007,1.158
			c-0.003,0.258-0.006,0.518-0.008,0.779c-0.002,0.131-0.002,0.263-0.003,0.395l-0.001,0.099v0.023l-0.001,0.002v0.005l-0.002,0.02
			l0.03,0.002c0.092,0.001,0.185,0.001,0.277,0.002c0.186,0.001,0.373,0.002,0.559,0.003c0.187,0.001,0.374,0.002,0.562,0.003
			l0.281,0.001l0.046,0.001c0.004-0.815,0.008-1.635,0.012-2.447c0.557,0.003,1.11,0.006,1.66,0.009
			C80.607,55.836,80.604,56.214,80.601,56.59z"/>
		<path fill="#FFFFFF" d="M79.037,55.533l-0.018,2.443l-0.126-0.002l-0.28-0.003l-0.559-0.005l-0.561-0.005l-0.279-0.003
			l-0.106-0.003l0.003-0.092c-0.002,0.03-0.003,0.062-0.004,0.093l0.105,0.004l0.277,0.004c0.186,0.002,0.372,0.004,0.559,0.006
			s0.373,0.004,0.561,0.006c0.094,0.002,0.188,0.002,0.281,0.003l0.135,0.002l0.002-0.156c0.001-0.103,0.002-0.204,0.003-0.306
			c0.001-0.205,0.003-0.409,0.004-0.614c0.002-0.454,0.004-0.909,0.006-1.368c0.492,0.002,0.987,0.004,1.482,0.005
			c0,0.164-0.001,0.328-0.001,0.493l0.002-0.494L79.037,55.533z"/>
	</g>
	<g>
		<path fill="#FFFFFF" d="M82.871,110.704l-0.078-0.009c-0.024-0.004-0.045-0.008-0.068-0.012l-0.137-0.024l-0.271-0.05
			c-0.176-0.037-0.346-0.077-0.518-0.116c-0.779-0.186-1.514-0.409-2.246-0.632c-0.731-0.223-1.454-0.449-2.176-0.664
			c-0.723-0.213-1.444-0.418-2.16-0.577c-0.354-0.075-0.712-0.146-1.051-0.183l-0.252-0.028l-0.271-0.011
			c-0.183-0.006-0.361-0.021-0.55-0.015c-0.187,0-0.372,0.001-0.559,0.001c-0.189,0.007-0.379,0.014-0.568,0.021
			c-0.095,0.003-0.19,0.005-0.285,0.011l-0.287,0.019c-0.192,0.012-0.385,0.024-0.577,0.037c-0.773,0.062-1.554,0.133-2.345,0.224
			c-1.581,0.177-3.196,0.397-4.857,0.624c-1.163,0.149-2.371,0.325-3.604,0.492c-1.183,0.169-2.414,0.439-3.643,0.703
			c-1.23,0.267-2.464,0.541-3.694,0.776c-0.616,0.115-1.229,0.227-1.845,0.312c-0.612,0.092-1.23,0.153-1.852,0.184
			c1.473-0.06,2.871-0.306,4.271-0.567c1.396-0.264,2.78-0.568,4.161-0.854c0.688-0.141,1.379-0.281,2.06-0.395
			c0.17-0.028,0.338-0.052,0.507-0.078l0.261-0.037l0.266-0.037l1.059-0.152c1.406-0.207,2.806-0.416,4.201-0.604
			s2.787-0.357,4.167-0.478c0.345-0.025,0.689-0.055,1.032-0.076c0.171-0.009,0.342-0.019,0.513-0.027l0.256-0.014l0.254-0.007
			c0.169-0.005,0.338-0.01,0.507-0.014c0.168-0.001,0.334,0.002,0.501,0.002l0.249,0.002c0.082,0.003,0.163,0.009,0.244,0.013
			l0.243,0.013l0.121,0.007l0.061,0.003l0.056,0.007c0.295,0.031,0.604,0.082,0.921,0.15c0.316,0.066,0.638,0.147,0.959,0.232
			c0.643,0.172,1.289,0.373,1.937,0.576c0.652,0.208,1.303,0.415,1.95,0.622c0.656,0.205,1.314,0.408,2.009,0.581
			c-0.577-0.058-1.191-0.154-1.841-0.289c-0.648-0.136-1.332-0.31-2.05-0.517c-0.859-0.261-1.708-0.512-2.528-0.708l-0.154-0.038
			l-0.151-0.031l-0.301-0.063c-0.1-0.02-0.194-0.034-0.292-0.051l-0.145-0.024c-0.05-0.009-0.092-0.011-0.137-0.017
			c-0.092-0.01-0.179-0.021-0.272-0.03l-0.303-0.014l-0.303-0.015h-0.314c-0.415-0.007-0.845,0.014-1.271,0.029
			c-0.216,0.013-0.431,0.025-0.646,0.039c-0.214,0.011-0.432,0.033-0.647,0.049c-0.433,0.032-0.868,0.08-1.301,0.121
			c-0.218,0.024-0.436,0.048-0.652,0.072c-0.217,0.023-0.435,0.049-0.652,0.076c-0.007-0.056-0.021-0.164-0.027-0.22
			c-1.234,0.18-2.461,0.371-3.683,0.562c-1.224,0.19-2.438,0.383-3.669,0.556l-0.231,0.032l-0.218,0.032
			c-0.145,0.022-0.286,0.042-0.433,0.066c-0.292,0.051-0.583,0.1-0.879,0.157c-0.589,0.109-1.185,0.232-1.779,0.354
			c-1.191,0.244-2.391,0.493-3.604,0.717l-0.455,0.084l-0.459,0.078c-0.305,0.055-0.614,0.101-0.923,0.148
			c-0.153,0.025-0.31,0.046-0.467,0.065l-0.468,0.062l-0.477,0.049l-0.238,0.024c-0.08,0.007-0.163,0.011-0.244,0.016
			c-0.163,0.01-0.325,0.021-0.489,0.029l-0.505,0.005c-0.042,0-0.083,0.002-0.126,0l-0.13-0.008l-0.261-0.016l-0.13-0.008
			l-0.124-0.015l-0.249-0.03c-0.082-0.011-0.167-0.019-0.247-0.031l-0.241-0.039c-0.16-0.026-0.322-0.051-0.478-0.083l-0.471-0.093
			l-0.463-0.101c-0.615-0.138-1.223-0.286-1.825-0.438c-0.604-0.151-1.202-0.305-1.801-0.451c-0.598-0.146-1.194-0.283-1.785-0.401
			c-0.146-0.026-0.294-0.054-0.441-0.081c-0.144-0.021-0.289-0.044-0.433-0.065c-0.073-0.014-0.141-0.018-0.211-0.025l-0.208-0.021
			c-0.067-0.009-0.145-0.011-0.22-0.015l-0.227-0.01c0.34,0.055,0.132,0.084,0.059,0.115c-0.024-0.002-0.047-0.003-0.068-0.005
			c0.021,0.002,0.044,0.003,0.068,0.005c-0.034,0.014-0.041,0.027,0.034,0.043c0.073,0.017,0.244,0.028,0.507,0.067
			c-0.263-0.039-0.434-0.051-0.507-0.067c-0.075-0.016-0.068-0.029-0.034-0.043c0.146,0.011,0.301,0.017,0.43,0.037l0.202,0.025
			c0.034,0.004,0.066,0.007,0.102,0.013l0.105,0.019c0.141,0.024,0.279,0.046,0.422,0.074s0.286,0.058,0.429,0.087
			c0.577,0.125,1.16,0.267,1.747,0.416c0.592,0.152,1.182,0.304,1.77,0.455c0.593,0.152,1.192,0.3,1.8,0.438l0.458,0.1
			c0.153,0.032,0.311,0.061,0.466,0.092l0.234,0.045l0.24,0.038l0.239,0.039l0.12,0.019l0.124,0.015
			c0.167,0.019,0.329,0.041,0.499,0.056c0.175,0.01,0.351,0.021,0.524,0.028l0.506-0.007l0.127-0.002
			c0.041-0.002,0.081-0.005,0.122-0.008l0.243-0.016c0.328-0.018,0.639-0.057,0.955-0.09c0.158-0.016,0.311-0.041,0.466-0.061
			c0.153-0.022,0.311-0.041,0.463-0.065c0.611-0.096,1.216-0.199,1.813-0.314c1.197-0.228,2.376-0.48,3.549-0.727
			c0.293-0.061,0.585-0.121,0.877-0.183c0.291-0.058,0.583-0.116,0.874-0.175c0.58-0.112,1.156-0.215,1.714-0.293
			c1.215-0.165,2.413-0.346,3.619-0.519c1.203-0.173,2.412-0.339,3.627-0.486c-1.887,0.235-3.768,0.524-5.658,0.809
			c-0.474,0.071-0.947,0.142-1.426,0.209l-0.178,0.025l-0.165,0.025l-0.332,0.052l-0.678,0.121
			c-0.909,0.173-1.833,0.374-2.761,0.574c-0.929,0.199-1.863,0.4-2.808,0.588c-0.946,0.186-1.9,0.36-2.887,0.486l-0.75,0.082
			l-0.386,0.027l-0.193,0.014c-0.032,0.002-0.063,0.005-0.097,0.006l-0.101,0.002c-0.27,0.003-0.531,0.018-0.814-0.005
			c-0.286-0.01-0.542-0.045-0.806-0.075c-0.067-0.006-0.129-0.017-0.192-0.026l-0.189-0.03c-0.126-0.021-0.255-0.038-0.377-0.062
			l-0.369-0.07l-0.185-0.036l-0.181-0.038c-0.24-0.053-0.483-0.104-0.719-0.16c-0.237-0.056-0.475-0.111-0.708-0.17
			c-0.938-0.231-1.858-0.478-2.769-0.707c-0.456-0.115-0.906-0.224-1.353-0.323c-0.442-0.094-0.889-0.187-1.296-0.235
			c-0.195-0.031-0.436-0.041-0.659-0.058l-0.681-0.049c-0.057-0.004-0.113-0.009-0.171-0.012l-0.174-0.005l-0.35-0.011
			c-0.233-0.008-0.467-0.016-0.7-0.022c-0.117-0.003-0.233-0.008-0.351-0.01l-0.354-0.002c-0.236-0.002-0.473-0.004-0.709-0.006
			c-0.236-0.001-0.472-0.005-0.71-0.003s-0.476,0.004-0.714,0.007c-1.905,0.014-3.827,0.067-5.767,0.125
			c-0.486,0.016-0.973,0.029-1.461,0.043c-0.248,0.006-0.481,0.018-0.717,0.028c-0.237,0.01-0.473,0.021-0.71,0.03
			c-0.482,0.031-0.965,0.061-1.45,0.092c-0.487,0.034-0.976,0.069-1.465,0.104c-0.335,0.023-0.838,0.06-1.341,0.096
			c-0.506,0.034-1.012,0.068-1.349,0.09c-0.681,0.003-1.362,0.006-2.043,0.008l-1.031-0.004c-0.17,0.003-0.348-0.006-0.523-0.011
			l-0.528-0.015l-0.472-0.015c-0.133-0.003-0.289,0.003-0.446,0.01c-0.318,0.016-0.653,0.039-0.994,0.062
			c-0.341,0.022-0.689,0.043-1.046,0.056c-0.358,0.012-0.724,0.016-1.117-0.01c0.2-0.059,0.152-0.148,0.075-0.243
			c-0.078-0.094-0.187-0.196-0.133-0.272c0.052-0.079,0.264-0.12,0.792-0.167c0.262-0.021,0.605-0.051,1.053-0.088
			c0.221-0.017,0.469-0.037,0.745-0.058c0.274-0.021,0.578-0.042,0.902-0.048c-0.002-0.057-0.007-0.168-0.009-0.224
			c-0.333-0.004-0.657,0.005-0.966,0.008c-0.31,0.004-0.605,0.005-0.885-0.003c-0.56-0.013-1.06-0.054-1.472-0.138
			c-0.206-0.043-0.39-0.096-0.54-0.16c-0.151-0.064-0.264-0.137-0.33-0.213c-0.075-0.079-0.115-0.168-0.123-0.251
			c-0.009-0.082,0.01-0.154,0.033-0.207c-0.018-0.123,0.007-0.186,0.077-0.182c0.018,0.001,0.038,0.007,0.061,0.017
			c0.012,0.005,0.024,0.011,0.037,0.018c0.006,0.003,0.013,0.007,0.02,0.011l0.008,0.004c0.022,0.012,0.049,0.028,0.088,0.04
			c0.02,0.006,0.042,0.01,0.066,0.011c0.012,0.002,0.024,0.002,0.037,0.001c0.016,0.002,0.017-0.005,0.029-0.006
			c0.045-0.007,0.16,0.003,0.322,0.003c0.327,0.003,0.826-0.028,1.457-0.093c0.357-0.035,0.729-0.077,1.124-0.119
			c0.197-0.021,0.399-0.043,0.614-0.061c0.217-0.018,0.438-0.034,0.721-0.031c0.385-0.006,0.777-0.013,1.174-0.019
			c0.408-0.018,0.821-0.037,1.24-0.056c1.69-0.093,3.483-0.228,5.332-0.35c0.231-0.016,0.463-0.03,0.696-0.046
			c0.234-0.014,0.469-0.027,0.705-0.041c0.236-0.014,0.472-0.027,0.708-0.041c0.241-0.01,0.482-0.02,0.724-0.028
			c0.491-0.021,0.954-0.03,1.425-0.042c0.471-0.013,0.944-0.025,1.416-0.037c0.948-0.024,1.896-0.05,2.837-0.074
			c0.473-0.012,0.944-0.023,1.413-0.035c0.471-0.008,0.939-0.018,1.405-0.026c0.339-0.008,0.68-0.007,1.021-0.008h1.023
			c0.342,0.002,0.688,0.015,1.032,0.022l0.517,0.013c0.087,0.003,0.171,0.003,0.26,0.009l0.264,0.017l1.058,0.07
			c0.042,0.002,0.091,0.009,0.139,0.015l0.143,0.018l0.287,0.036c0.184,0.028,0.363,0.061,0.544,0.092
			c0.71,0.132,1.382,0.293,2.047,0.458c1.324,0.332,2.61,0.689,3.871,0.984l0.47,0.106l0.463,0.096l0.116,0.023l0.113,0.02
			l0.227,0.039c0.075,0.012,0.152,0.028,0.224,0.037l0.217,0.028c0.072,0.009,0.147,0.021,0.216,0.027l0.202,0.015l0.101,0.008
			c0.034,0.003,0.067,0.007,0.104,0.005h0.215l0.216,0.002c0.073-0.001,0.151-0.008,0.226-0.01l0.228-0.012
			c0.077-0.003,0.151-0.005,0.23-0.015c0.855-0.062,1.753-0.19,2.662-0.347c0.909-0.156,1.831-0.338,2.763-0.527
			c0.934-0.189,1.875-0.39,2.836-0.576c0.242-0.046,0.484-0.091,0.727-0.136l0.369-0.064c0.123-0.021,0.245-0.043,0.372-0.061
			l0.379-0.057l0.183-0.025l0.177-0.024l0.71-0.099c1.901-0.271,3.822-0.562,5.733-0.793c0.957-0.115,1.911-0.222,2.866-0.3
			c0.955-0.076,1.906-0.139,2.865-0.143c0.173-0.006,0.357-0.005,0.549-0.005c0.096,0,0.193,0,0.292,0
			c0.099-0.001,0.199-0.002,0.304,0.004c0.208,0.008,0.422,0.015,0.641,0.022c0.115,0.012,0.231,0.022,0.35,0.033
			c0.059,0.006,0.119,0.01,0.176,0.019c0.057,0.008,0.112,0.017,0.169,0.024c0.909,0.134,1.789,0.351,2.617,0.568
			c0.826,0.22,1.595,0.443,2.234,0.637c0.64,0.195,1.149,0.355,1.456,0.481c0.223,0.078,0.389,0.143,0.513,0.199
			c0.123,0.057,0.2,0.1,0.247,0.14c0.092,0.079,0.053,0.135-0.031,0.183l-0.195-0.045l-0.197-0.05l-0.393-0.103
			c-0.263-0.073-0.525-0.143-0.789-0.219c-0.525-0.149-1.053-0.307-1.582-0.462c-0.531-0.154-1.062-0.311-1.601-0.455
			c-0.268-0.075-0.54-0.143-0.812-0.213c-0.136-0.034-0.275-0.063-0.412-0.097l-0.205-0.048l-0.211-0.042
			c-0.14-0.028-0.277-0.059-0.421-0.082l-0.431-0.068c-0.146-0.02-0.296-0.032-0.444-0.048c-0.075-0.009-0.146-0.01-0.218-0.013
			l-0.215-0.008c-0.144-0.005-0.287-0.013-0.429-0.014l-0.424,0.003c-0.283-0.002-0.562,0.012-0.841,0.022
			c-1.116,0.049-2.215,0.151-3.306,0.271c-2.677,0.278-5.33,0.682-7.967,1.043l-0.492,0.065c-0.165,0.021-0.325,0.041-0.5,0.067
			c-0.171,0.024-0.345,0.046-0.513,0.074l-0.505,0.084c-0.669,0.117-1.331,0.244-1.987,0.374c-1.314,0.259-2.618,0.523-3.917,0.748
			c1.272-0.208,2.558-0.461,3.859-0.713c0.65-0.126,1.308-0.251,1.972-0.368c0.336-0.055,0.669-0.114,1.013-0.159l0.257-0.037
			l0.245-0.031c0.165-0.021,0.329-0.043,0.493-0.065c2.639-0.361,5.318-0.781,8.042-1.082c1.089-0.112,2.184-0.206,3.29-0.247
			c0.277-0.009,0.554-0.021,0.834-0.018l0.42,0.001c0.139-0.001,0.282,0.01,0.423,0.016c0.143,0.008,0.281,0.01,0.426,0.022
			l0.439,0.047l0.424,0.07l0.105,0.018l0.104,0.021l0.207,0.043c0.277,0.055,0.544,0.126,0.815,0.19
			c0.268,0.071,0.536,0.139,0.8,0.215l0.396,0.112l0.394,0.115l0.784,0.234c1.042,0.313,2.075,0.639,3.106,0.902
			c-0.178,0.077-0.354,0.153-0.124,0.324c0,0,0.081,0.019,0.213,0.049c0.066,0.015,0.146,0.033,0.232,0.053
			c0.088,0.02,0.185,0.037,0.286,0.058c0.102,0.019,0.209,0.044,0.318,0.059c0.107,0.016,0.218,0.032,0.325,0.048
			c0.106,0.015,0.209,0.018,0.307,0.025c0.101,0.004,0.192,0.006,0.275,0.008c0.666,0.08,1.132,0.14,1.428,0.213
			c0.297,0.072,0.427,0.15,0.431,0.234c0.004,0.167-0.495,0.355-1.179,0.504c-0.173,0.031-0.363,0.06-0.564,0.091
			c-0.1,0.015-0.21,0.026-0.32,0.04C83.146,110.693,83.006,110.698,82.871,110.704z"/>
	</g>
</g>
</svg>
