<?xml version="1.0" encoding="utf-8"?>
<!-- Generator: Adobe Illustrator 19.0.0, SVG Export Plug-In . SVG Version: 6.00 Build 0)  -->
<svg version="1.1" id="Layer_1" xmlns="http://www.w3.org/2000/svg" xmlns:xlink="http://www.w3.org/1999/xlink" x="0px" y="0px"
	 viewBox="-345 257 100 100" style="enable-background:new -345 257 100 100;" xml:space="preserve">
<style type="text/css">
	.st0{fill:#ADADAD;}
	.st1{fill:#BDBDBC;}
	.st2{fill:#E2E2E2;}
	.st3{fill:#FFFFFF;}
	.st4{clip-path:url(#SVGID_2_);}
	.st5{fill:#D8D8D8;}
	.st6{fill:#CECECE;}
	.st7{fill:#D1D1D1;}
	.st8{fill:#F4F4F4;}
	.st9{fill:#EAEAEA;}
	.st10{fill:#DDDDDB;}
</style>
<g>
	<path class="st0" d="M-274.7,292.6c0,0,0.6,1.4,1,4.1c0.4,2.7,0.8,6.6,1.3,8.7s0.3,2.1,0.6,3s0.4,2.2,0.3,2.5
		c-0.1,0.2-3.4,1.2-3.5,1c-0.1-0.2-0.5-0.8-0.8-3.2c-0.4-2.5-1.2-8.3-1.4-9.8c-0.2-1.5-0.2-3.8-0.6-4.8S-274.7,292.6-274.7,292.6z"
		/>
</g>
<g>
	<path class="st1" d="M-278.8,294.4c0,0,1.3,4.5,1.3,6.6c0,2.1-1.6,11.7-1.7,14.7c-0.1,3,0,3.5-0.3,3.8c-0.3,0.2-3.2,0.4-4.2,0
		c-1-0.4-6.5-3.2-7-5.1c-0.4-1.9-2.6-12.9-1.9-17.2C-291.9,292.9-278.8,294.4-278.8,294.4z"/>
</g>
<g>
	<path class="st2" d="M-273.1,282.3l-5.7-0.2l5.7-5.9c0,0,0.5-0.2,0.8,0.2c0.3,0.4,0.6,1.3,0,3.4
		C-272.9,281.8-273.1,282.3-273.1,282.3z"/>
</g>
<g>
	<path class="st1" d="M-277.4,281.2c0,0,3.3-0.2,4,0s2.3,1.5,3.4,2.5c1.1,1,2,2.5,1.9,4.6c0,2.1-0.7,3.1-2.7,4.1
		c-2.1,0.9-6.8,1.3-6.8,1.3l-0.9-10.3L-277.4,281.2z"/>
</g>
<g>
	<g>
		<path class="st3" d="M-275.1,285.4c-0.7-2.8-4.9-3.5-4.9-3.5c-1.9-0.6-13.2,2.3-14.6,2.6l-22.2-10.2c0,0-2.1-0.2-3.2-0.2
			c-1.1,0.1-2.2,0.1-2.5,0.1c-0.3,0-0.3,0.3-0.2,0.4c0.1,0.1,0.1,0.1-0.1,0.1c-0.2,0-2.3,1.3-4.2,4.8c-1.9,3.5-2.8,5.5-3.4,8
			c-0.6,2.5-0.5,4.9,1.8,6.2c2.3,1.3,7.6,2.6,11.5,3.2c3.9,0.6,19.5,2.6,29.4,2.6c3.9,0,7-2.7,9.8-5
			C-275.4,292.6-274.3,288.2-275.1,285.4z"/>
	</g>
	<g>
		<defs>
			<path id="SVGID_1_" d="M-275.1,285.4c-0.7-2.8-4.9-3.5-4.9-3.5c-1.9-0.6-13.2,2.3-14.6,2.6l-22.2-10.2c0,0-2.1-0.2-3.2-0.2
				c-1.1,0.1-2.2,0.1-2.5,0.1c-0.3,0-0.3,0.3-0.2,0.4c0.1,0.1,0.1,0.1-0.1,0.1c-0.2,0-2.3,1.3-4.2,4.8c-1.9,3.5-2.8,5.5-3.4,8
				c-0.6,2.5-0.5,4.9,1.8,6.2c2.3,1.3,7.6,2.6,11.5,3.2c3.9,0.6,19.5,2.6,29.4,2.6c3.9,0,7-2.7,9.8-5
				C-275.4,292.6-274.3,288.2-275.1,285.4z"/>
		</defs>
		<clipPath id="SVGID_2_">
			<use xlink:href="#SVGID_1_"  style="overflow:visible;"/>
		</clipPath>
		<g class="st4">
			<path class="st2" d="M-293.8,297.1c-11.3,0-26.5-2.4-31.4-4.3c-3.4-1.3-3.6-3.3-2.8-6.2c1.1-3.9,4.3-9.7,9-13.5l0.8,1
				c-4.5,3.7-7.6,9.2-8.6,12.9c-0.7,2.4-0.5,3.6,2,4.6c5.3,2,23.1,4.7,34.3,4.1c4.5-0.2,6.9-1.5,8.8-2.9c1.1-0.8,3.3-3.4,3.4-5.5
				c0.1-0.8-0.2-1.4-0.7-1.9l0.9-0.9c0.8,0.8,1.2,1.8,1.1,3c-0.2,2.7-2.7,5.6-4,6.5c-2,1.4-4.6,2.9-9.5,3.1
				C-291.4,297.1-292.6,297.1-293.8,297.1z"/>
		</g>
	</g>
</g>
<g>
	<path class="st0" d="M-289,309.1l0.9,4.1c0,0,1.1,2.8,1.3,2.7c0.2-0.1,0.1-0.7,0.1-0.7s0,0,0.3-0.3s0.3-0.8,0.3-0.8
		s-0.1,0.1,0.2-0.3s0.1-0.9-0.2-2c-0.4-1.1-1.1-2.5-1.8-4.8s-0.9-5.5-0.9-6.3c0-0.8,0.2-3.5,0.2-4.6c0-1.1-0.3-1.8-0.8-1.9l-1.2,0.3
		L-289,309.1z"/>
</g>
<g>
	<path class="st1" d="M-291.2,296.2c-1.1,0-1.9-0.2-2.5-0.8c-0.7-0.6-1-1.5-1.1-2.9c-0.1-2.6,2.6-4.6,4-4.9l0.1,0.4l-0.1-0.4
		c2.5-0.5,4.2,0.5,4.6,2.6c0.3,1.5,0,2.9-0.8,4.1c-0.8,1.1-2,1.7-3.4,1.9C-290.7,296.2-290.9,296.2-291.2,296.2z M-289.5,288.5
		c-0.3,0-0.7,0-1,0.1c-1.2,0.2-3.4,2-3.3,4c0,1.1,0.3,1.8,0.8,2.2c0.5,0.5,1.4,0.6,2.6,0.5c1.2-0.1,2.1-0.6,2.8-1.5
		c0.7-0.9,0.9-2.1,0.7-3.4C-287.3,288.9-288.4,288.5-289.5,288.5z"/>
</g>
<g>
	<path class="st5" d="M-289.6,294.3c0.2,0-4.1,0.3-4.2,0.4c-0.1,0.1,0.1,3.5,0.4,5.4c0.3,1.8,0,4.3,0.5,6.9c0.5,2.5,1.1,5.1,1.2,6.5
		c0.1,1.4,0.6,2.7,0.7,2.9s4.2-0.4,4.1-0.5c-0.1-0.1-0.3-0.4-0.7-2.7c-0.4-2.3-1.2-6.6-1.4-8.9c-0.2-2.3-1.2-7.9-1.2-8.6
		C-290.1,295-289.8,294.3-289.6,294.3z"/>
</g>
<g>
	<path class="st6" d="M-313.9,268.4c1.7-0.3,4.3,0.2,5.9,1.4c1.6,1.2,3.5,2.5,5.3,5.2s1.8,3.1,1.8,3.1s4.9,0.1,9.8,0
		c5-0.1,6.3-0.4,6.3-0.4l-1.4,4.2l-6.6,1l-18.5-0.3c0,0-0.3-0.6-1.3-1.3c-0.9-0.7-4.2-4-4.7-6.9c-0.4-2.8-0.4-3.6,0.2-4.5
		C-316.5,269.4-315.7,268.7-313.9,268.4z"/>
</g>
<g>
	<path class="st3" d="M-282.1,274.2c-0.7,0.6-2.9,1.1-4.5,4.6c-1.6,3.4-3,7.2-3,7.2l5.4,1.3l6.2-3.2c0,0,1.5-4.2,3-5.8
		s2.5-1.9,2.5-1.9s0.2,0.1-1.8-1.2s-2.4-1.4-2.3-2.3c0.1-0.9,0.6-2.8,0.9-3.1c0.3-0.3,0.7-0.4,1.2-0.7c0.5-0.4,0.6-0.8,0.8-0.9
		c0.1-0.1,0.5-0.1,0.7-0.2c0.4-0.1,0.3-0.8,0.2-0.9c-0.2-0.1-1.7-0.1-3.2,0.3c-1.2,0.3-2.1,0.8-2.1,1c-0.1,0.2,0,0.5-0.1,0.7
		c-0.4,0.8-1.4,3-2,3.5C-280.6,272.9-281.5,273.7-282.1,274.2z"/>
</g>
<g>
	<path class="st5" d="M-284.1,320.5c0,0-0.2-0.4-0.4-0.4c-0.2,0-1.2,0.5-1.4,0.7s-0.3,0.2-0.3,0.7c0,0.5,0.1,1.4,0.2,2.5
		c0.1,1.1,0.3,2.6,0,4.6c-0.4,2-0.6,4.5,0.3,5.8c0.9,1.2,2.4,2.4,4.8,2.4c2.5,0,3.3-0.8,3.8-1.1s2.6-1.9,2.9-2.9
		c0.6-1.9-0.9-4.6-1.5-6.1c-0.6-1.5-1.3-3.6-1.8-5.2c-0.5-1.6-0.5-1.9-0.6-2c-0.1-0.1-0.3-0.1-0.5,0s-0.8,0.4-1.1,0.6
		c-0.1,0.1-0.6,0.1-0.6,0.2c0,0.1,0,0.3,0.1,0.3c0.1,0.1-0.3,0.6-0.3,0.9s-0.1,0.5-0.2,0.7c0,0.1,0,0.7,0.2,1
		c0.1,0.3,0.8,0.9,0.8,0.9s0.1,0.4,0.5,1.5c0.5,1.2,1.4,2.9,1.7,3.8c0.3,0.9,0.7,2.2,0.4,3.1c-0.3,0.9-0.4,1.5-1.8,1.5
		c-1.4,0-2.9,0-4.1-1.3c-1.2-1.3-1-2.3-0.9-3.6c0.1-1.3,0.5-3.5,0.5-5.1C-283.4,322.1-284.1,320.5-284.1,320.5z"/>
</g>
<g>
	<path class="st0" d="M-284.6,316.4c0.1,1.2,0.4,3.5,0.4,3.9c0,0.4-0.2,2.4,0.1,3.1c0.3,0.7,0.8,1.1,1,1.1s2-0.3,2.3-0.3
		s0.7,0.1,0.9,0c0.1-0.1,0.2-0.1,0.3-0.2l-0.1-0.3c0,0-0.5-0.2-0.6-1.1c-0.2-0.9,0.3-1.2,0.3-1.2l-0.3-1.3c0,0-0.2-2-0.5-3
		c-0.3-1-0.8-2.2-1.5-2.5c-0.6-0.3-1.7-0.2-2,0.2C-284.6,315.1-284.7,315.5-284.6,316.4z"/>
</g>
<g>
	<path class="st7" d="M-284.3,319.8c0.3-0.1,2.6-0.2,2.8-0.2c0.2,0,0.4,0,0.8-0.1c0.4-0.1,1.2-0.3,1.4-0.3c0.1,0,0.1,0.2,0.2,0.5
		c0,0-0.8,0.4-0.9,0.4c-0.1,0.1,0.1,0.6,0.1,0.6c-0.2,0.1-0.4,0.1-0.5,0.2c-0.3,0.1-0.6,0.1-0.9,0.2c-0.3,0-2.5,0.2-2.6,0.2
		C-284.3,321.2-284.4,319.8-284.3,319.8z"/>
</g>
<g>
	<path class="st8" d="M-289.6,327.8c0.4,0.2,0.3,0.3,0.4,0.8c0.1,0.4,0.8,3.4,1.4,5c0.6,1.6,2.6,5.2,2.5,7.3c-0.1,2-0.8,2.8-1.9,4.4
		s-5.4,2.5-7.4,2.1s-4.7-1.6-4.9-5.2c-0.1-3.6,1-5.6,0.9-7.7c-0.1-2.2-0.1-3.5,0-4.2s0.3-1,0.5-1.2c0.2-0.2,1-1,1-1l1,4
		c0,0-0.1,1.2-0.1,1.6s-0.2,1-0.4,2.5s-1,4.4-0.3,5.5c0.7,1.1,1.7,2.7,4.6,2.3s4.2-0.9,4.6-1.5s0.3-2.9-1-5.4
		c-1.3-2.5-1.9-4.9-2.1-4.9s-0.9,0.1-1-0.6c-0.1-0.7-0.2-1.5-0.1-1.5s0.8,0,0.8-0.3s0.6-0.6,0.6-0.8S-289.9,327.7-289.6,327.8z"/>
</g>
<g>
	<path class="st9" d="M-296.6,288.3c-1.5,0.7-5.8,5-8.4,9.4c-2.9,4.8-3.8,9.4-3.8,16.7c0,6.5,2.6,9.4,6.1,11.2
		c3.5,1.8,5.2,2.4,5.6,3.2c0.4,0.8,0.2,2.2,0.8,3.5c0.6,1.3,0.8,1.5,1.2,1.5c0.3,0,2.9-0.2,3.3-0.3s0.7-0.4,0.7-0.9
		c0.1-0.4-0.1-2.4-0.5-3.8s-0.6-3-0.7-5.2s0.2-8.5,0-12.6c-0.4-6.5-1.2-9.5-1.5-11.6c-0.2-2.1-0.2-3.8,0-5.4
		c0.2-1.5,0.5-4.3-0.2-4.9S-295.5,287.8-296.6,288.3z"/>
</g>
<g>
	<path class="st7" d="M-297.4,328.4c0.1,0,4.8-1.1,5-1.2s0.4-0.3,0.5-0.3c0.1,0,0.3,1.5,0.2,1.6c-0.1,0.1-0.4,0.3-0.6,0.4
		c-0.2,0.1-4.4,1-4.5,1S-297.5,328.5-297.4,328.4z"/>
</g>
<g>
	<path class="st10" d="M-311.7,282.1c-0.1,0.2,0.1,3.7,2,5.2c1.9,1.5,2.7,1.6,4.8,1.8c3.6,0.3,8,0.1,10.6,0.4c4.6,0.5,7.4,3,9.9,3
		c2.5,0,4.6-0.7,6.3-3.9c1.7-3.2,1.1-5.2,0.6-5.6c-0.8-0.8-1.9-0.7-3.2,0.6c-0.9,1-2.2,1.9-3.7,1.9c-1.5,0-3.5-0.3-3.6-1.8
		c-0.1-1.1,0.5-2.9,0.5-2.9s-4.2-1.1-8.1-1.1s-13.8,2.2-14.6,2.2C-311,282-311.7,282.1-311.7,282.1z"/>
</g>
</svg>
