<?xml version="1.0" encoding="utf-8"?>
<!-- Generator: Adobe Illustrator 19.0.0, SVG Export Plug-In . SVG Version: 6.00 Build 0)  -->
<svg version="1.1" id="Layer_1" xmlns="http://www.w3.org/2000/svg" xmlns:xlink="http://www.w3.org/1999/xlink" x="0px" y="0px"
	 viewBox="-345 257 100 100" style="enable-background:new -345 257 100 100;" xml:space="preserve">
<style type="text/css">
	.st0{fill:#BDBDBC;}
	.st1{fill:#D1D1D1;}
	.st2{fill:#EAEAEA;}
	.st3{fill:#FEFEFE;}
	.st4{fill:#FFFFFF;}
	.st5{fill:#D3D3D3;}
</style>
<g>
	<path class="st0" d="M-270.5,296.9c0,0-0.1-4.1-2.6-4.6c-3.3-0.6-14.2,0-14.2,0l2.2,7.9l2.5,2.6c0,0,4-0.1,4.2,0
		c0.3,0.1,4.7-2.7,4.7-2.7L-270.5,296.9z"/>
</g>
<g>
	<path class="st1" d="M-336.6,321.6c0,8.6,4.2,14.1,9.9,14.1c7,0,9.9-6.7,9.9-14.7c0-4.3-6.5-11.8-6.5-11.8h-2.4
		C-332.7,309.3-336.6,315.5-336.6,321.6"/>
</g>
<g>
	<path class="st0" d="M-327.7,322.6c0,4.1,1.7,6.5,3.9,6.5c2.1,0,3.1-3.3,3.1-5.6c0-2.5-0.6-6.1-3.4-6.1
		C-326.5,317.4-327.7,320-327.7,322.6"/>
</g>
<g>
	<path class="st1" d="M-271.5,320.2c-0.3,7.8,5.5,10.7,10,10.7c7.3,0,10-5.6,10-11.8s-1.1-11.5-7.7-12.2
		C-266.3,306.1-271.3,312.4-271.5,320.2"/>
</g>
<g>
	<path class="st2" d="M-331.9,294.5l2.8-1.1l3.3,3.3l7.1-1.7l9.4,1.1l7.7-2.7h6.2l4.1,2.3l1.9,3.1l2.6,5.3l4.8,1.1
		c0,0,4-0.4,4.4-0.4c0.4,0,3.9-0.4,4.1-0.4c0.3,0.1,2.9-1.3,2.9-1.3s5.7-2,6.2-1.9c0.4,0.1,6.4-2.9,6.4-2.9s3.7-2.5,4.1-1.5
		c0.4,1.1,0.5,2.4,0.2,3.1c-0.4,0.7-6.4,2.4-6.4,2.4s-1.9,3.1-2.7,7c-1.1,4.9-1.6,9.3-2.2,9.5c-0.6,0.4-13.3,3.3-14.7,3.5
		c-1.5,0.3-20.8,3.7-20.8,3.7s-1.7-3.3-5.6-3.3c-2.7,0-10.5-0.8-11.8-0.7c-1.8,0.1-4.3,2.2-4.9,2.2c-1,0-1.1-6.7-1.1-6.7
		s-2.2-1.7-5.3-5.5c-1.1-1.3-6.5-1.7-6.5-5.6c0-1.9,1.7-2.5,1.7-2.5C-334.8,302.4-337.4,297.2-331.9,294.5"/>
</g>
<g>
	<path class="st3" d="M-303.8,300.9c0,3.2,1.4,4.1,3.1,4.1c1.9,0,2.6-1.9,2.6-4.1s-0.9-3.7-2.7-3.7
		C-302.5,297.1-303.8,299.4-303.8,300.9"/>
</g>
<g>
	<path class="st3" d="M-334,299.5c0,2.7,1.2,3.4,2.6,3.4c1,0,1.6-1.5,1.6-3.3s-0.8-3.3-1.6-3.3C-332.9,296.2-334,298.2-334,299.5"/>
</g>
<g>
	<path class="st3" d="M-330.4,290.9c-1,0.4-0.5,1,0.1,1c0.9-0.1,1.6,0.2,1.6,0.5c0,0.5-0.4,0.7-1.1,1.1c-1.4,0.7-2.3,1.1-2.3,1.1
		s2.7-1.3,4.5,3.9c0.2,0.6,0.4,0.4,1.3,0c0.6-0.3,2.8-0.5,7.3-0.4c4.6,0.2,7.4,0.4,8,0.4c0.8,0.2,3.3,1.1,4.2,1.1
		c0.8,0,1.6-4.4,6.3-4.4c2.4,0,5.2,2.5,6.4,4.9c1.4,2.8,5.5,8.3,5.3,8.5c-0.2,0.3,3.6-0.4,5.4-0.6c1.9-0.2,2.9,0.8,3.5,1.5
		c1,1,9-1.1,10.8-1.7c1.8-0.5,3.6-1,4.4-2c0.8-1.1,2.1-3.5,2.6-4.5c0.5-1,2.6-1.5,3.9-1.9c1.4-0.5,4.3-1.5,4.3-1.5s-0.6-2.2-1.2-2.1
		c-0.7,0.1-9.1,1.5-11.4,1.1c-2-0.4-4.3-1.2-4.3-1.2s-2.2,2.5-4.7,4.4c-2.5,1.9-4.8,2.3-5.6,1.5c-0.7-0.9-1.7-4.6-2.5-6.2
		c-0.8-1.6-1.3-2.6-3.9-2.8c-1.7-0.2-2.5,0.1-2.7-0.6c-0.1-0.3,0.1-0.7,0.6-0.8c1.5-0.2,1.1-1.1,0.6-1.1c-0.7,0-6.5-0.3-8.1-0.5
		c-1.6-0.2-2.1-0.6-1.9-1.5c0.2-0.9-8.7-0.4-8.7-0.4s0.5,0.9-0.7,1.9C-309.2,290.2-327,289.8-330.4,290.9"/>
</g>
<g>
	<path class="st1" d="M-302,325.3c0,9.6,5,12.6,9.8,12.6c4.1,0,10.3-3.5,10.3-13.3c0-9.7-3.6-14.4-9.4-14.4
		C-297.1,310.2-302,315.8-302,325.3"/>
</g>
<g>
	<path class="st0" d="M-259.9,319c0,4.1,1.3,6.3,3.1,6.3c1.7,0,2.7-3.2,2.7-6.3s-0.9-5.6-2.9-5.6
		C-259.1,313.4-259.9,317.1-259.9,319"/>
</g>
<g>
	<path class="st0" d="M-292.2,325c0,5.2,2.6,6.8,4.1,6.8c2,0,4.1-3.4,4.1-7.4c0-3.3-1.3-7-4.1-7C-290.9,317.4-292.2,321.8-292.2,325
		"/>
</g>
<g>
	<path class="st2" d="M-303.6,287.3c-4.3,0-7.6-4.1-8.4-5l-4.8-0.9c-0.4-0.1-0.6-0.4-0.5-0.8c0.1-0.4,0.4-0.6,0.8-0.5l5.1,1
		c0.2,0,0.4,0.1,0.4,0.3c0,0.1,3.3,4.7,7.5,4.7c6.4,0,7.9-4,7.9-4.1c0.1-0.3,0.4-0.4,0.5-0.4l14.4-1.3c0.4,0,0.7,0.3,0.7,0.6
		c0,0.4-0.3,0.7-0.6,0.7l-14,1.3C-295.1,283.9-297.4,287.3-303.6,287.3z"/>
</g>
<g>
	<path class="st4" d="M-299.2,284.1c0.5,0.9,1.3,3.6,1.1,4.6c-0.1,0.5-11.5,0.6-11.5-0.2s0.3-3.5,1.1-4.4
		C-307.7,283.4-300,282.7-299.2,284.1"/>
</g>
<g>
	<path class="st5" d="M-329.4,307.5c-0.3-5.4,0.6-3,0.8-4.6c0.1-1.9,1.5-3.9,4.1-3.8l-1.4,9.1l2.7,8.4
		C-323.3,316.6-329.2,314.1-329.4,307.5"/>
</g>
<g>
	<path class="st5" d="M-325.6,311.3c0,0,5.5,1,11.5,0.3c3.5-0.4,0.1,1.4,0.1,1.4h-9.6"/>
</g>
<g>
	<path class="st1" d="M-323.2,316.1c0.3,0.5,0,0.5-0.8,0s-3.2-1.3-3.6-6.8c-0.4-5.4,0-3.5,0-3.5s0.4-0.5,0.5-2.1
		c0.1-1.6,0.5-3.5,2.6-4.7c0,0-0.2,5.6,0,9.6C-324.5,312-324,314.5-323.2,316.1"/>
</g>
<g>
	<path class="st1" d="M-325.4,304.3c0,0,7.5,0.5,11.5,0.1c1.8-0.2,0.3,1.3,0.3,1.3l-11.6-0.2"/>
</g>
<g>
	<path class="st1" d="M-309.9,300.1c0,0.8,0.4,5,0.4,5s-0.4,0.3-0.4,0.9c0,0.6,0.4,0.9,0.4,0.9l-0.2,4.8c0,0-0.4,0.2-0.3,0.9
		c0.1,0.7,0.4,0.8,0.4,0.8s-0.2,2.1-1.2,3.1c-1.1,1-1.5,2.3-2.9,0.5c-1.4-1.8-1.9-5-1.8-8.9c0.2-4,0.8-6.7,1-7
		c0.2-0.3,1.1-1.5,1.1-1.5S-309.9,299.3-309.9,300.1"/>
</g>
<g>
	<path class="st1" d="M-320.2,313.7c-7.4,0-12.8-2.7-14.3-3.9c-1.3-1.1-2.1-3.3-1.7-4.6c0.4-0.9,1.1-1.2,2.1-1.1
		c0.4,0,0.7,0.1,1.1,0.1c2.3,0.3,5.4,0.6,12.2,0.8l0,0c7.6,0.3,11.3-0.1,13.9-0.3c0.7-0.1,1.3-0.1,1.9-0.2c2.1-0.1,3.5,1.5,3.8,3.1
		c0.3,1.3-0.3,3.1-2.6,3.8c-4.7,1.4-10.2,2.2-16.3,2.3C-320,313.7-320.1,313.7-320.2,313.7z M-334.3,305.4c-0.4,0-0.5,0.2-0.5,0.4
		c-0.3,0.7,0.3,2.3,1.1,3c1.2,1,6.5,3.7,13.7,3.6c6-0.1,11.4-0.8,15.9-2.2c1.8-0.5,1.8-1.8,1.6-2.3c-0.2-1.1-1.1-2-2.4-1.9
		c-0.6,0-1.2,0.1-1.9,0.2c-2.7,0.3-6.4,0.5-14.1,0.3c-6.9-0.2-10-0.6-12.3-0.9c-0.4,0-0.7-0.1-1.1-0.1
		C-334.2,305.4-334.2,305.4-334.3,305.4z"/>
</g>
</svg>
