<?xml version="1.0" encoding="utf-8"?>
<!-- Generator: Adobe Illustrator 19.0.0, SVG Export Plug-In . SVG Version: 6.00 Build 0)  -->
<svg version="1.1" id="Layer_1" xmlns="http://www.w3.org/2000/svg" xmlns:xlink="http://www.w3.org/1999/xlink" x="0px" y="0px"
	 viewBox="-345 257 100 100" style="enable-background:new -345 257 100 100;" xml:space="preserve">
<style type="text/css">
	.st0{fill:#AFAFAF;}
	.st1{fill:#EAEAEA;}
	.st2{fill:#D1D1D1;}
	.st3{fill:#FFFFFF;}
	.st4{fill:#BDBDBC;}
</style>
<g>
	<path class="st0" d="M-271,334c-0.1,0-0.2,0-0.2,0c-0.2,0-3.6-0.5-9.9-2.7c-6-2.1-14.7-2.6-17.2-2.5c-1.9,0.1-4.8,1.3-5.8,1.9
		c-0.7,0.4-1.5,0.1-1.9-0.6c-0.4-0.7-0.1-1.5,0.6-1.9c0.2-0.1,4-2,6.9-2.2c3.1-0.1,11.9,0.4,18.2,2.7c6,2.1,9.4,2.7,9.4,2.7
		c0.7,0.1,1.2,0.8,1.2,1.6C-269.7,333.6-270.3,334-271,334z"/>
</g>
<g>
	<path class="st1" d="M-327,287.3c0,0-6.6-0.4-7-0.2c-0.4,0.2-0.6-0.3-1.2,3.5c-0.7,4.2-1.3,11.8-1.4,14.1c0,2.3-0.4,3.9,2,4.5
		c2.6,0.6,3.5,0.8,3.5,0.8L-327,287.3z"/>
</g>
<g>
	<path class="st2" d="M-328.8,287.2c0,0-0.8,2-1.4,6.6c-0.6,4.6-1.1,9.2-1.1,9.2l-0.1,0.4c0,0-3.7,0-4.1,0c-0.4,0-0.4-0.4-0.4-0.6
		c0-0.2,0.5-7,1.1-10.5s0.8-4.4,1.2-5.1C-333.6,286.9-328.7,287.2-328.8,287.2z"/>
</g>
<g>
	<path class="st1" d="M-332.8,314.4c19.6,5,27.6-0.2,41.3-1.7c5-0.5,13.4-0.1,18.7-1.7c5.3-1.6,9.4-1.9,9.7-2.3
		c0.4-0.4-0.4-1.9-0.4-1.9l-10.2-1.3l-44.6-0.6l-13.5,5.9C-331.7,310.9-332.7,313.9-332.8,314.4z"/>
</g>
<g>
	<path class="st2" d="M-306.4,333c-0.4,0-0.6-0.1-0.9-0.3c-0.3-0.2-7.2-5-12.4-13.3c-3.5-5.7-6.5-13.4-6.5-13.7
		c-0.4-0.9,0.1-1.8,1-2.1c0.9-0.4,1.8,0.1,2.1,1c0,0.1,2.8,7.8,6.3,13.1c4.9,7.7,11.4,12.2,11.5,12.3c0.7,0.5,1,1.5,0.4,2.3
		C-305.4,332.7-305.9,333-306.4,333z"/>
</g>
<g>
	<path class="st2" d="M-284,336.8c-0.5,0-1.2-0.3-1.4-0.8c-0.2-0.3-3.5-6.4-6.7-16.9c-3.2-10.5-3.6-17-3.6-17.3
		c-0.1-0.9,0.6-1.7,1.5-1.8s1.7,0.6,1.8,1.5l0,0c0,0.1,0.4,6.4,3.5,16.5c3.1,10.2,6.4,16.1,6.5,16.2c0.4,0.8,0.2,1.8-0.6,2.2
		C-283.4,336.7-283.7,336.8-284,336.8z"/>
</g>
<g>
	<path class="st2" d="M-286.1,338.2L-286.1,338.2c-0.3,0-5.8-0.2-10.1-1.5c-4.3-1.2-8.7-3.8-8.8-3.9c-0.8-0.4-1.1-1.5-0.6-2.2
		c0.4-0.8,1.5-1.1,2.2-0.6c0,0,4.2,2.5,8.1,3.6s9.1,1.3,9.2,1.3c0.9,0,1.6,0.8,1.6,1.7C-284.5,337.5-285.2,338.2-286.1,338.2z"/>
</g>
<g>
	<path class="st2" d="M-276,347.3c-1.1,0-3.2-0.9-7.6-8.1c-0.4-0.8-0.3-1.8,0.5-2.3c0.8-0.4,1.8-0.3,2.3,0.5
		c1.8,2.8,3.9,5.7,4.9,6.4c1-0.8,3.4-4.4,3.5-10.9c0-0.9,0.7-1.6,1.7-1.6l0,0c0.9,0,1.7,0.7,1.6,1.7c-0.1,8.4-3.6,13.7-6.3,14.2
		C-275.7,347.3-275.8,347.3-276,347.3z"/>
</g>
<g>
	<path class="st2" d="M-270.9,334.3L-270.9,334.3c-1-0.1-1.7-0.9-1.6-1.8c0-0.1,0.5-7.1-0.9-12.2c-1.6-5.6-2.7-18.7-2.7-19.2
		c-0.1-0.9,0.6-1.7,1.5-1.8s1.7,0.6,1.8,1.5c0,0.1,1.2,13.3,2.6,18.6c1.6,5.8,1.1,13.1,1.1,13.4C-269.3,333.7-270,334.3-270.9,334.3
		z"/>
</g>
<g>
	<path class="st0" d="M-303.2,329.8c-0.7,0-1.3-0.6-1.3-1.3c0-0.1-0.1-4.7-0.4-10c-0.4-5.2-1-9-1-9c-0.1-0.7,0.4-1.4,1.2-1.6
		c0.7-0.1,1.4,0.4,1.6,1.2c0,0.2,0.6,3.9,1,9.3c0.4,5.4,0.4,10.1,0.4,10.1C-301.8,329.2-302.4,329.8-303.2,329.8L-303.2,329.8z"/>
</g>
<g>
	<path class="st2" d="M-266.7,306.8c0,0-6.3,3-13.9,3.2c-10.4,0.3-15.1,0.6-25.7,3.3c-6.7,1.8-14.1,1.7-19.8,0.5
		c-5.8-1.2-6.1-1.6-6.1-1.6l16.5-11.8l15.7,0.6l21.2,2.1L-266.7,306.8z"/>
</g>
<g>
	<path class="st3" d="M-302.4,270.1c20.4-1,30.5,13.4,33.8,19.5c3.4,6.1,6,18.4,5.8,18.9c-0.2,0.5-0.7,0.4-0.7,0.4s0.4-0.4-0.2-0.7
		c-0.7-0.3-16.3-2.5-24.2-2s-23.3,0.4-29.4,1.2c-6.1,0.9-14.7,5.1-15.1,6.1c-0.3,0.6-0.1,1-0.1,1s-1.2,0.1-1.1-1
		c0.1-0.8,1.2-2.1,1-3.5c-0.2-1.3-0.7-5.3,0.3-6.5c1-1.2,1.8-6.6,2.7-10.6C-328.6,289.1-322.9,271-302.4,270.1z"/>
</g>
<g>
	<g>
		<path class="st4" d="M-258.8,290.7c2.8,0.4,3.8,2.4,4.1,4.7s0,5.1-0.8,6.5c-0.8,1.4-2.2,3.5-4.8,3.4c-2.6-0.2-6.2-1.1-6.1-2.9
			s-0.2-8.2,0.4-9.4C-265.6,291.8-263.5,290-258.8,290.7z"/>
	</g>
	<g>
		<path class="st3" d="M-256.5,297.7c0.4-3.5-0.3-5.9-2.5-6.7s-4.5-0.6-5,0.4c-0.5,1.1-1.3,5.5-1,7.9c0.4,2.4,1.9,4.5,3.5,5
			C-259.9,304.8-257.2,304-256.5,297.7z"/>
	</g>
	<g>
		<path class="st3" d="M-259.1,297.1c-0.3,2.7-2.4,7.3-4.2,7.8c-1.9,0.5-4.4-6.5-4.4-6.5l0.8-7.1l4.5-1.6
			C-262.5,289.9-258.7,291.3-259.1,297.1z"/>
	</g>
	<g>
		<path class="st2" d="M-275.3,293.7c-0.1,1.7-0.2,5.2,1.3,7c1.5,1.8,2,2.5,4.4,2.6c2.3,0,0.2-7.8,0.2-7.8l3-6.4c0,0-2.7,0.1-5.1,1
			C-273.9,291-275.2,291.1-275.3,293.7z"/>
	</g>
	<g>
		<path class="st1" d="M-266,288.6c2.2-0.6,5.9,0.3,8,1.2c1.9,0.9,3.1,2.5,3.5,3.8c0.4,1.3,0.5,4.5-0.5,8.5c-1.2,4-5.4,4.5-7.6,4.4
			c-2.2-0.1-6.2,0.1-8.1-3.6c-1.9-3.7-0.7-8.5,0.5-10.9C-269.4,290.2-268.1,289.3-266,288.6z M-265,295.8c-0.4,3.2,0,6.1,1.8,7.5
			c1.8,1.4,3.5,1.6,5.6,0c2-1.6,2.7-4.5,2.7-7.3c0-2.1-0.6-3.6-2.7-4.5c-2-0.8-4-1-5.1-0.3C-264,292-264.7,293.7-265,295.8z"/>
	</g>
	<g>
		<path class="st1" d="M-277.2,293.4c-0.5,1.2,0,2.2,0.5,2.7c0.4,0.4,1.4,1,2.4,1c0.9,0,2.3-0.6,2.2-1.9c-0.1-1.1-0.6-2-2.4-3.1
			C-275.7,291.5-276.6,292.1-277.2,293.4z"/>
	</g>
</g>
<g>
	<path class="st3" d="M-306.9,327.8c2.1-1.3,4.6-1.8,5.2,0.4s0.9,3.8-0.9,4.9c-1.8,1-3.1,0.8-4.7-0.4
		C-310.1,330.7-309.9,329.7-306.9,327.8z"/>
</g>
<g>
	<path class="st3" d="M-287.3,334.2c-2.4,1.8-0.7,4.3,0,4.7c0.7,0.4,2.9,0.4,3.8,0.7c0.9,0.4,1.7,0.4,2.3-0.3c0.5-0.7,0.7-1.1-0.2-2
		c-0.9-1.1-0.2-2.6-1.7-3.4C-284.7,333.1-286.2,333.4-287.3,334.2z"/>
</g>
<g>
	<path class="st3" d="M-272.8,330.6c-1.4,1.1-0.4,2.6,0,2.7c0.4,0.3,1.8,0.2,2.3,0.4c0.5,0.3,1,0.3,1.3-0.2c0.4-0.4,0.4-0.6-0.1-1.2
		c-0.5-0.6-0.1-1.5-1-1.9C-271.2,330-272.1,330.1-272.8,330.6z"/>
</g>
<g>
	<path class="st1" d="M-309.6,278.8c1.9-0.3,3.4,0.4,2.1,1.9c-1.2,1.5-2.2,1.8-3.2,1.5c-1.2-0.4-0.8-1.5-0.7-2
		C-311.3,279.6-310.6,278.9-309.6,278.8z"/>
</g>
<g>
	<path class="st1" d="M-300.2,279.3c1.8,0.5,2.7,1.2,1.9,1.9c-0.9,1-2.1,1.9-3.7,1.2c-1.2-0.5-1-2.2-0.7-2.7
		C-302.3,279.2-302,278.7-300.2,279.3z"/>
</g>
<g>
	<path class="st1" d="M-307,285.2c2.6-0.2,3.3,0.4,2.3,2.2c-1,1.8-2.7,1.9-3.9,0.4C-309.7,286.2-308.8,285.4-307,285.2z"/>
</g>
<g>
	<path class="st1" d="M-313.3,287.9c-1.1,1.3-2.7,2.5-3.3,0c-0.5-2.2,1.2-2.4,2.2-2.4C-313.2,285.6-311.7,285.9-313.3,287.9z"/>
</g>
<g>
	<path class="st1" d="M-317.4,280.2c1.8-0.4,2.2-0.2,2.2-0.2s0,2.2-1.6,3c-1.7,0.8-2.2,0.7-2-1.2
		C-318.7,280.6-318.7,280.4-317.4,280.2z"/>
</g>
<g>
	<path class="st1" d="M-322.3,287.8c1.5-0.7,2.6-1,2.2,1.2c-0.4,2.4-2.5,2.7-2.5,2.7s-0.9-0.6-0.9-2.1
		C-323.3,288.5-322.8,287.9-322.3,287.8z"/>
</g>
<g>
	<path class="st1" d="M-322.4,282.6c0,0-0.3,1.9-0.8,2.8c-0.5,1-2.1,1.3-2.1,1.3s-0.3-1.8-0.1-2.1
		C-325.2,284.3-322.9,282.3-322.4,282.6z"/>
</g>
</svg>
