<?xml version="1.0" encoding="utf-8"?>
<!-- Generator: Adobe Illustrator 19.0.0, SVG Export Plug-In . SVG Version: 6.00 Build 0)  -->
<svg version="1.1" id="Layer_1" xmlns="http://www.w3.org/2000/svg" xmlns:xlink="http://www.w3.org/1999/xlink" x="0px" y="0px"
	 viewBox="-345 257 100 100" style="enable-background:new -345 257 100 100;" xml:space="preserve">
<style type="text/css">
	.st0{fill:#FFFFFF;}
	.st1{fill:#EAEAEA;}
	.st2{fill:#D1D1D1;}
</style>
<path class="st0" d="M-324.9,317.2l76.9-19.7c0.3-0.1,0.6,0.1,0.7,0.4c0.1,0.3-0.1,0.6-0.4,0.7l-76.6,20.7c-0.6,0.2-1.2-0.2-1.3-0.8
	C-325.9,318-325.5,317.4-324.9,317.2C-325,317.2-324.9,317.2-324.9,317.2z"/>
<path class="st1" d="M-253.5,301.3c0,0,0.7,1.1,0.8,1.2c0.2,0.1,0.9,0.3,1.3-0.5c0.4-0.8,0.1-2.2-0.2-2.9c-0.3-1-1-2.1-1.4-2.5
	c-0.5-0.5-0.8-0.3-1.1-0.1c-0.1,0.1-0.3,1.7-0.3,1.7L-253.5,301.3z"/>
<path class="st2" d="M-254.2,299.8c0.3,0.9,0.6,1.6,1,1.5c0.3-0.1,0.5-1,0.3-1.9c-0.2-0.7-0.8-1.6-1.1-1.5
	C-254.4,298.1-254.6,298.9-254.2,299.8z"/>
<path class="st0" d="M-254.6,299.5c0,0,0.2,0,0.3,0.2c0.2,0.4-0.1,0.5-0.1,0.5s0.1,0.2,0.2,0.1c0.3-0.1,0.6-0.2,0.8-0.2
	c0.2-0.1-0.1-1.1-0.3-1c-0.1,0-0.6,0.1-0.7,0.2C-254.6,299.3-254.6,299.5-254.6,299.5z"/>
<g>
	<path class="st2" d="M-331.8,314.1c0,0-0.3-0.6,0.9-1.5c1-0.7,3.5-1.9,5.6-2.4c2.1-0.5,2.3-0.3,2.3-0.3l-0.1,1.8l-4.8,2.3
		L-331.8,314.1z"/>
	<path class="st1" d="M-341.1,321.1c0,0,0-0.6,0.7-1.4c0.7-0.8,3.3-3.1,5.3-4.4c1.8-1.2,3.3-1.8,6.2-2.7c6.2-2,5.6-2.6,5.6-2.6
		s0.6-0.2,0.8,1c0.1,0.7,0.6,2.1,0.8,2.4c0.2,0.4,0,0.7-0.6,1.1c-0.6,0.4-5.4,2.4-6.7,2.8s-8.1,1.7-8.9,2.2s-1,0.8-0.9,1.3
		c0.2,0.5-0.4,0.5-0.4,0.5s-0.2-0.7,0-1.1s0.6-0.6,0.6-0.7c0-0.1-0.1-0.2-0.1-0.1c-0.1,0-1.2,0.7-1.3,1.2c-0.1,0.5,0,1.1,0,1.1
		L-341.1,321.1z"/>
	<path class="st1" d="M-341.6,323.3c0.5,1.6,1.2,2.5,1.3,2.7c0.3,0.5,0.8-0.8,1.5-1.3c0.7-0.4,2.2-1.3,3.2-0.8
		c0.6,0.3,0.6,0.3,0.9-0.1c0.7-0.9,1.6-1.4,2.1-1.5s3.5-0.9,4.3-1c0.8-0.1,1.5,0,1.9,0.2c0.4,0.2,0.4,0.2,0.6-0.2
		c0.2-0.3,0.9-1.4,1.7-1.6c0.2-0.1,0.9-0.3,1.1-0.4s-0.4-2.7-0.6-2.8c-0.3,0-1.2,0.4-1.4,0.3c-0.2-0.1-1.4-0.8-1.6-0.5
		c-0.2,0.3-0.7,1.1-1.4,1.2c-0.7,0.1-4.4,0.4-7.2,1.3c-2.7,0.9-5.1,2.1-5.7,1.8s-1.2-0.7-1.1,0C-342,321.1-341.9,322.3-341.6,323.3z
		"/>
</g>
<path class="st0" d="M-321.2,294.6l68.3,40.5c0.3,0.2,0.4,0.5,0.2,0.8c-0.2,0.3-0.5,0.3-0.8,0.2l-68.8-39.6c-0.5-0.3-0.7-1-0.4-1.5
	S-321.8,294.3-321.2,294.6C-321.2,294.6-321.2,294.6-321.2,294.6z"/>
<path class="st1" d="M-259.5,333.8c0,0-0.3,1.3-0.2,1.4s0.4,0.9,1.3,0.6s1.6-1.5,1.9-2.2c0.5-0.9,0.8-2.2,0.8-2.7
	c0-0.7-0.3-0.8-0.7-0.8c-0.1,0-1.4,1-1.4,1L-259.5,333.8z"/>
<path class="st2" d="M-258.9,332.3c-0.4,0.9-0.7,1.6-0.4,1.7c0.3,0.1,1.1-0.3,1.5-1.2c0.4-0.7,0.5-1.7,0.2-1.8
	C-257.8,330.9-258.5,331.4-258.9,332.3z"/>
<path class="st0" d="M-259,331.8c0,0,0.2,0.1,0.1,0.3c-0.2,0.4-0.5,0.3-0.5,0.3s-0.1,0.2,0.1,0.3c0.2,0.1,0.6,0.3,0.7,0.4
	c0.2,0.1,0.7-0.8,0.5-0.9c-0.1,0-0.5-0.3-0.6-0.4C-258.9,331.7-259,331.8-259,331.8z"/>
<g>
	<path class="st2" d="M-323.9,287.5c0,0,0.2-0.6,1.7-0.4c1.2,0.2,3.8,1.1,5.6,2.3c1.9,1.1,1.8,1.5,1.8,1.5l-1.3,1.2l-5-1.8
		L-323.9,287.5z"/>
	<path class="st1" d="M-335.4,285.9c0,0,0.4-0.5,1.5-0.5c1.1-0.1,4.5,0.2,6.8,0.7c2.1,0.5,3.6,1.1,6.3,2.4c5.8,3,5.8,2.1,5.8,2.1
		s0.6,0.2-0.1,1.3c-0.4,0.6-1.1,1.9-1.2,2.2c-0.1,0.4-0.5,0.5-1.2,0.3c-0.7-0.2-5.5-2.1-6.7-2.8c-1.2-0.6-7-4.5-7.8-4.8
		c-0.9-0.3-1.3-0.2-1.5,0.3c-0.3,0.5-0.6,0.1-0.6,0.1s0.3-0.6,0.8-0.8c0.4-0.2,0.9,0,0.9-0.1s0.1-0.2,0-0.2s-1.3-0.3-1.8,0
		c-0.4,0.3-0.8,0.7-0.8,0.7L-335.4,285.9z"/>
	<path class="st1" d="M-337.4,287.1c-0.8,1.5-1,2.6-1,2.9c-0.1,0.6,1.1-0.1,1.9,0.2c0.7,0.2,2.5,0.6,2.9,1.7
		c0.2,0.7,0.2,0.7,0.7,0.6c1.2-0.1,2.1,0.2,2.6,0.4c0.5,0.3,3.1,1.8,3.8,2.3s1,1.1,1.2,1.5c0.1,0.4,0.1,0.4,0.6,0.3
		c0.4-0.1,1.6-0.4,2.3,0c0.2,0.1,0.8,0.4,1.1,0.5s1.7-2.2,1.5-2.4c-0.2-0.2-1.2-0.5-1.2-0.8c-0.1-0.2-0.4-1.6-0.8-1.5
		c-0.3,0.1-1.3,0.2-1.9-0.1c-0.6-0.4-3.4-2.8-6-4.1c-2.6-1.3-5-2.1-5.3-2.8c-0.3-0.6-0.3-1.3-0.8-0.8
		C-336,285.3-336.9,286.2-337.4,287.1z"/>
</g>
</svg>
