<?xml version="1.0" encoding="utf-8"?>
<!-- Generator: Adobe Illustrator 19.0.0, SVG Export Plug-In . SVG Version: 6.00 Build 0)  -->
<svg version="1.1" id="Layer_1" xmlns="http://www.w3.org/2000/svg" xmlns:xlink="http://www.w3.org/1999/xlink" x="0px" y="0px"
	 viewBox="-345 257 100 100" style="enable-background:new -345 257 100 100;" xml:space="preserve">
<style type="text/css">
	.st0{fill:#D1D1D1;}
	.st1{fill:none;stroke:#D1D1D1;stroke-width:6;stroke-linecap:round;stroke-linejoin:round;stroke-miterlimit:10;}
	.st2{fill:#FCFCFC;}
	.st3{fill:#EAEAEA;}
	.st4{fill:#FFFFFF;}
</style>
<g>
	<g>
		<path class="st0" d="M-295.1,327.5c-16,0-29-13-29-29c0-16,13-29,29-29s29,13,29,29C-266.2,314.4-279.2,327.5-295.1,327.5z
			 M-295.1,272.2c-14.5,0-26.2,11.8-26.2,26.2c0,14.5,11.8,26.2,26.2,26.2c14.5,0,26.2-11.8,26.2-26.2
			C-269,284-280.8,272.2-295.1,272.2z"/>
	</g>
	<g>
		<path class="st1" d="M-309,342.7"/>
	</g>
	<g>
		<path class="st1" d="M-282.6,342.7"/>
	</g>
	<g>
		<path class="st0" d="M-295.1,327.5c-0.7,0-1.4-0.7-1.4-1.4v-55.2c0-0.7,0.7-1.4,1.4-1.4c0.7,0,1.4,0.7,1.4,1.4v55.2
			C-293.7,326.8-294.4,327.5-295.1,327.5z"/>
	</g>
	<g>
		<path class="st0" d="M-314.7,319.3c-0.4,0-0.7-0.1-1-0.4c-0.6-0.6-0.6-1.4,0-2l39.1-39.1c0.6-0.6,1.4-0.6,2,0s0.6,1.4,0,2
			l-39.1,39.1C-313.9,319.2-314.3,319.3-314.7,319.3z"/>
	</g>
	<g>
		<path class="st0" d="M-267.6,299.8h-55.2c-0.7,0-1.4-0.7-1.4-1.4c0-0.7,0.7-1.4,1.4-1.4h55.2c0.7,0,1.4,0.7,1.4,1.4
			C-266.2,299.2-266.8,299.8-267.6,299.8z"/>
	</g>
	<g>
		<path class="st0" d="M-275.6,319.3c-0.4,0-0.7-0.1-1-0.4l-39.1-39.1c-0.6-0.6-0.6-1.4,0-2s1.4-0.6,2,0l39.1,39.1
			c0.6,0.6,0.6,1.4,0,2C-275,319.2-275.3,319.3-275.6,319.3z"/>
	</g>
	<g>
		<path class="st2" d="M-308.5,340.4c-0.2,0-0.3,0-0.5-0.1c-0.7-0.3-1.1-1-0.9-1.8l13.4-40.5c0.2-0.6,0.7-0.9,1.3-0.9l0,0
			c0.6,0,1.1,0.4,1.3,0.9l13,40.5c0.3,0.7-0.2,1.5-0.9,1.8c-0.7,0.3-1.5-0.2-1.8-0.9l-11.7-36.3l-12,36.3
			C-307.4,340-307.9,340.4-308.5,340.4z"/>
	</g>
	<g>
		<circle class="st2" cx="-295.1" cy="298.4" r="4.7"/>
	</g>
	<g>
		<circle class="st3" cx="-295.1" cy="298.4" r="1.6"/>
	</g>
	<g>
		<g>
			<g>
				<g>
					<rect x="-328.3" y="297.3" class="st3" width="1.4" height="4.8"/>
				</g>
				<g>
					<rect x="-322.7" y="296.9" class="st3" width="1.4" height="5.1"/>
				</g>
			</g>
			<g>
				<path class="st4" d="M-328.4,300.4h1.6l0.7,0.7v0.7h2.6v-0.7l0.7-0.7h1.7c0.4,0,0.7,0.3,0.7,0.7v2.7l-2.2,1.6l0,0
					c0,0.4-0.3,0.7-0.7,0.7h-2.8c-0.4,0-0.7-0.3-0.7-0.7l0,0l-2.3-1.6V301C-329.1,300.6-328.8,300.4-328.4,300.4z"/>
			</g>
			<g>
				<polygon class="st4" points="-326.2,295.3 -323.5,295.3 -320.5,296.2 -320.5,297.7 -322.7,297.3 -326.8,297.3 -329.1,297.7 
					-329.1,296.2 				"/>
			</g>
		</g>
		<g>
			<g>
				<g>
					<rect x="-268.8" y="297.3" class="st3" width="1.4" height="4.8"/>
				</g>
				<g>
					<rect x="-263.1" y="296.9" class="st3" width="1.4" height="5.1"/>
				</g>
			</g>
			<g>
				<path class="st4" d="M-268.9,300.4h1.6l0.7,0.7v0.7h2.6v-0.7l0.7-0.7h1.7c0.4,0,0.7,0.3,0.7,0.7v2.7l-2.2,1.6l0,0
					c0,0.4-0.3,0.7-0.7,0.7h-2.8c-0.4,0-0.7-0.3-0.7-0.7l0,0l-2.3-1.6V301C-269.5,300.6-269.3,300.4-268.9,300.4z"/>
			</g>
			<g>
				<polygon class="st4" points="-266.6,295.3 -264,295.3 -260.9,296.2 -260.9,297.7 -263.1,297.3 -267.3,297.3 -269.5,297.7 
					-269.5,296.2 				"/>
			</g>
		</g>
	</g>
	<g>
		<g>
			<g>
				<rect x="-298.7" y="267.6" class="st3" width="1.4" height="4.8"/>
			</g>
			<g>
				<rect x="-293.1" y="267.2" class="st3" width="1.4" height="5.1"/>
			</g>
		</g>
		<g>
			<path class="st4" d="M-298.9,270.7h1.6l0.7,0.7v0.7h2.6v-0.8l0.7-0.7h1.7c0.4,0,0.7,0.3,0.7,0.7v2.7l-2.2,1.6l0,0
				c0,0.4-0.3,0.7-0.7,0.7h-2.8c-0.4,0-0.7-0.3-0.7-0.7l0,0l-2.3-1.6v-2.6C-299.5,271-299.3,270.7-298.9,270.7z"/>
		</g>
		<g>
			<polygon class="st4" points="-296.5,265.6 -293.9,265.6 -290.8,266.5 -290.8,268 -293.1,267.7 -297.2,267.7 -299.5,268 
				-299.5,266.5 			"/>
		</g>
	</g>
	<g>
		<g>
			<g>
				<rect x="-298.7" y="325.2" class="st3" width="1.4" height="4.8"/>
			</g>
			<g>
				<rect x="-293.1" y="324.8" class="st3" width="1.4" height="5.1"/>
			</g>
		</g>
		<g>
			<path class="st4" d="M-298.9,328.3h1.6l0.7,0.7v0.7h2.6v-0.7l0.7-0.7h1.7c0.4,0,0.7,0.3,0.7,0.7v2.7l-2.2,1.6l0,0
				c0,0.4-0.3,0.7-0.7,0.7h-2.8c-0.4,0-0.7-0.3-0.7-0.7l0,0l-2.3-1.6V329C-299.5,328.6-299.3,328.3-298.9,328.3z"/>
		</g>
		<g>
			<polygon class="st4" points="-296.5,323.3 -293.9,323.3 -290.8,324.1 -290.8,325.6 -293.1,325.3 -297.2,325.3 -299.5,325.6 
				-299.5,324.1 			"/>
		</g>
	</g>
	<g>
		<g>
			<g>
				<g>
					<rect x="-321.8" y="278.8" class="st3" width="1.4" height="4.8"/>
				</g>
				<g>
					<rect x="-316.2" y="278.4" class="st3" width="1.4" height="5.1"/>
				</g>
			</g>
			<g>
				<path class="st4" d="M-321.9,282h1.6l0.7,0.7v0.7h2.6v-0.8l0.7-0.7h1.7c0.4,0,0.7,0.3,0.7,0.7v2.7l-2.2,1.6l0,0
					c0,0.4-0.3,0.7-0.7,0.7h-2.8c-0.4,0-0.7-0.3-0.7-0.7l0,0l-2.3-1.6v-2.6C-322.6,282.2-322.2,282-321.9,282z"/>
			</g>
			<g>
				<polygon class="st4" points="-319.6,276.8 -317,276.8 -313.9,277.8 -313.9,279.3 -316.2,278.9 -320.3,278.9 -322.6,279.3 
					-322.6,277.8 				"/>
			</g>
		</g>
		<g>
			<g>
				<g>
					<rect x="-276" y="278.8" class="st3" width="1.4" height="4.8"/>
				</g>
				<g>
					<rect x="-270.3" y="278.4" class="st3" width="1.4" height="5.1"/>
				</g>
			</g>
			<g>
				<path class="st4" d="M-276.1,282h1.6l0.7,0.7v0.7h2.6v-0.8l0.7-0.7h1.7c0.4,0,0.7,0.3,0.7,0.7v2.7l-2.2,1.6l0,0
					c0,0.4-0.3,0.7-0.7,0.7h-2.8c-0.4,0-0.7-0.3-0.7-0.7l0,0l-2.3-1.6v-2.6C-276.7,282.2-276.5,282-276.1,282z"/>
			</g>
			<g>
				<polygon class="st4" points="-273.7,276.8 -271.1,276.8 -268,277.8 -268,279.3 -270.3,278.9 -274.4,278.9 -276.7,279.3 
					-276.7,277.8 				"/>
			</g>
		</g>
	</g>
	<g>
		<g>
			<g>
				<g>
					<rect x="-321.8" y="314.8" class="st3" width="1.4" height="4.8"/>
				</g>
				<g>
					<rect x="-316.2" y="314.4" class="st3" width="1.4" height="5.1"/>
				</g>
			</g>
			<g>
				<path class="st4" d="M-321.9,317.9h1.6l0.7,0.7v0.7h2.6v-0.7l0.7-0.7h1.7c0.4,0,0.7,0.3,0.7,0.7v2.7l-2.2,1.6l0,0
					c0,0.4-0.3,0.7-0.7,0.7h-2.8c-0.4,0-0.7-0.3-0.7-0.7l0,0l-2.3-1.6v-2.7C-322.6,318.2-322.2,317.9-321.9,317.9z"/>
			</g>
			<g>
				<polygon class="st4" points="-319.6,312.8 -317,312.8 -313.9,313.7 -313.9,315.2 -316.2,314.8 -320.3,314.8 -322.6,315.2 
					-322.6,313.7 				"/>
			</g>
		</g>
		<g>
			<g>
				<g>
					<rect x="-275.6" y="314.8" class="st3" width="1.4" height="4.8"/>
				</g>
				<g>
					<rect x="-269.9" y="314.4" class="st3" width="1.4" height="5.1"/>
				</g>
			</g>
			<g>
				<path class="st4" d="M-275.7,317.9h1.6l0.7,0.7v0.7h2.6v-0.7l0.7-0.7h1.7c0.4,0,0.7,0.3,0.7,0.7v2.7l-2.2,1.6l0,0
					c0,0.4-0.3,0.7-0.7,0.7h-2.8c-0.4,0-0.7-0.3-0.7-0.7l0,0l-2.3-1.6v-2.7C-276.5,318.2-276.1,317.9-275.7,317.9z"/>
			</g>
			<g>
				<polygon class="st4" points="-273.5,312.8 -270.8,312.8 -267.8,313.7 -267.8,315.2 -270,314.8 -274.1,314.8 -276.5,315.2 
					-276.5,313.7 				"/>
			</g>
		</g>
	</g>
</g>
</svg>
