<?xml version="1.0" encoding="utf-8"?>
<!-- Generator: Adobe Illustrator 19.0.0, SVG Export Plug-In . SVG Version: 6.00 Build 0)  -->
<svg version="1.1" id="Layer_1" xmlns="http://www.w3.org/2000/svg" xmlns:xlink="http://www.w3.org/1999/xlink" x="0px" y="0px"
	 viewBox="-345 257 100 100" style="enable-background:new -345 257 100 100;" xml:space="preserve">
<style type="text/css">
	.st0{fill:#EAEAEA;}
	.st1{fill:#D1D1D1;}
	.st2{fill:#BDBDBC;}
	.st3{fill:#FFFFFF;}
</style>
<g>
	<path class="st0" d="M-257.7,308c0,0,0.1-2.4-1.1-4.4c-1.2-1.9-2.9-3.3-3-3.6s0.4-1.5,0.2-3.1c-0.1-0.9-0.5-1.3-1.9-1.8
		c-1.4-0.5-4-0.4-5.1-0.3c-1,0.1-17.4,9.5-17.4,9.5l-12.5,0.2c0,0-8.8-0.8-8.8-0.6c-0.1,0.2-3.3,4.6-3.3,4.8
		c0.1,0.2,2.7,6.8,2.7,6.8l9.2,2.1l8.8,2.1l8.9-1.9l17.3-5.7L-257.7,308z"/>
</g>
<g>
	<path class="st1" d="M-329.5,326.8c0,0,12.9,7.7,26.8,5.2c20.4-3.9,53.3-15.5,53.3-15.5l1.4-5.3l-23,8l-20.8,5l-14.8,2.5
		L-329.5,326.8L-329.5,326.8z"/>
</g>
<g>
	<path class="st0" d="M-336.5,326.1c0,0,3,4.6,9.4,6.4c6.4,1.8,24.5-0.5,24.5-0.5"/>
</g>
<g>
	<path class="st2" d="M-264.1,297.9c-2.7,3.4-16.5,11.9-19.1,13c-0.8,0.3-1.7,0.4-2.9,0.1c-1.3-0.4-4.3-1.3-5.2-1.7
		c-0.9-0.3-1.3-0.9-1.2-1.9c0.1-1,0.3-1.8,0.2-3c-0.1-0.8-0.2-1.1-0.7-1.4c-2.1-1.1-2.9-2-2.9-2s18.8-6.9,20-7.3
		c1.1-0.4,1.9-0.5,2.7-0.6c4.2-0.2,7.8,2.2,8.6,3.4C-264.1,297.2-263.9,297.7-264.1,297.9"/>
</g>
<g>
	<path class="st2" d="M-248.7,309.3c0,0,2.4,0.5,2.6,1.3c0.2,0.8-0.1,1.2-1.3,1.6c-1.2,0.4-21,7.4-28.3,9.5
		c-7.3,2-28.1,6.8-41.4,6.5c-13.3-0.3-20.1-0.8-22.5-1.6c-2.5-0.9-4.9-1.9-4.9-3.2c0-1.2,0.3-1.4,1-1.9c0.6-0.5,1.4-0.8,1.4-0.8
		l3.1,0.8l6.5,1.4l6.4,1.4l12.2-0.7l7.8-1l16.8-1l9.7-2.3l28.2-9.2L-248.7,309.3z"/>
</g>
<g>
	<path class="st3" d="M-312.7,298.5c0,0-10.7,8.1-13.9,10.8c-3.3,2.6-13.3,9.7-14.5,10.4c-1.1,0.7-2,1.7-1.1,2.3
		c1.5,1,3.8,2,4.8,2.5c1.1,0.5,2.2,0.5,3.7,0.5c3.7,0.1,20.6,0.4,28.4-0.1c20.5-1.2,54.7-13.7,56.8-15.1c0.3-0.2-0.9-1.4-1.6-2.1
		c-1.3-1.1-4.7-1.9-5.6-1.7c-0.9,0.2-21.8,13-36.4,11.5c-17.1-1.6-14-10.4-13.7-13c0.1-0.7,2.9-3.5,2.9-3.5L-312.7,298.5z"/>
</g>
<g>
	<path class="st0" d="M-311.1,307.8c-0.4,0.2-17.2,8.8-17.9,9.2c-0.7,0.4-1.5,1-2.3,0.4s-2.3-1.2-3.1-1.3c-0.7-0.1-1.4-0.1-0.5-1.3
		c0.8-1.1,16.7-12.6,17.2-13.1c0.5-0.4,9.1,2.5,9.1,3.1C-308.7,305-310.5,307.6-311.1,307.8"/>
</g>
<g>
	<path class="st1" d="M-285.3,292.7L-285.3,292.7c-0.1,0-7-0.2-13.4-1.8c-5.5-1.4-6.5-3.3-6.7-3.5c-0.2-0.3,0-0.7,0.3-0.8
		c0.3-0.2,0.7,0,0.8,0.3c0,0,1,1.6,5.9,2.9c6.3,1.6,13,1.8,13.1,1.8c0.3,0,0.6,0.3,0.6,0.6C-284.6,292.4-284.9,292.7-285.3,292.7z"
		/>
</g>
<g>
	<path class="st1" d="M-305.3,292.6c-1.2,0.9-9.9,7.3-10.6,7.9c-0.3,0.3-0.5,0.7,0.2,0.9c0.8,0.4,3.8,1.3,5.5,2
		c1.6,0.7,16.7,6.3,17,6.1c0.4-0.4,1-3.9,1-4.9s0-1.6-1.7-2.3c-1.3-0.6-2.6-2.6-3.3-3.8c-0.5-1.1,0.1-3.3,1.1-4.4
		c1-1.1,2.5-1.2,3.4-1.7l0.2-0.4c0,0-0.2-0.3-0.1-0.9s0.4-0.5,0.4-0.5s0.2-0.2,0-0.3c-0.2-0.1-2.5-0.7-4.7-1.3c-2.1-0.7-4.3-1-4.7-1
		s-0.6,0-0.9,0.3s-0.5,0.3-0.5,0.8s0,1.1,0,1.3c0,0.2-0.1,0.4-0.2,0.5C-303.3,291.2-304.2,291.8-305.3,292.6"/>
</g>
</svg>
