<?xml version="1.0" encoding="utf-8"?>
<!-- Generator: Adobe Illustrator 19.0.0, SVG Export Plug-In . SVG Version: 6.00 Build 0)  -->
<svg version="1.1" id="Layer_1" xmlns="http://www.w3.org/2000/svg" xmlns:xlink="http://www.w3.org/1999/xlink" x="0px" y="0px"
	 viewBox="-899 900.2 100 100" style="enable-background:new -899 900.2 100 100;" xml:space="preserve">
<style type="text/css">
	.st0{fill:#BFBFBF;}
	.st1{fill:#FFFFFF;}
	.st2{fill:#BDBDBC;}
	.st3{fill:#D1D1D1;}
	.st4{fill:#EAEAEA;}
	.st5{fill:#E2E2E2;}
</style>
<g>
	<path class="st0" d="M-810,972.8c-0.3,0-0.5-0.2-0.6-0.5l-15.2-43.6c-0.1-0.4,0.1-0.7,0.4-0.9c0.4-0.1,0.7,0.1,0.9,0.4l15.2,43.6
		c0.1,0.4-0.1,0.7-0.4,0.9C-809.9,972.8-809.9,972.8-810,972.8z"/>
</g>
<g>
	<path class="st1" d="M-810,972.8c-0.3,0-0.5-0.1-0.6-0.4l-22.2-46.8c-0.2-0.3,0-0.7,0.3-0.9c0.3-0.2,0.7,0,0.9,0.3l22.2,46.8
		c0.2,0.3,0,0.7-0.3,0.9C-809.8,972.7-809.9,972.8-810,972.8z"/>
</g>
<g>
	<path class="st2" d="M-837.6,922.2c0,0-4.3-0.2-7.1,1.3c-2.8,1.5-5.5,2.9-9.5,7.9c-4,5.1-4.6,6.5-6.7,11.2s-3.3,9.8-3.6,14.1
		c-0.3,4.4,0.2,4.3,0.2,5.1s-0.2,2.3,0.1,5s0.9,7.1,1.8,9.2c0.9,2.1,2.3,5.7,4.1,8.1c1.9,2.5-11.3-3.5-11.3-3.5l3.5-16.7l0.1-16.7
		l7-11.8l7-12.6l13.5-2.1L-837.6,922.2z"/>
</g>
<g>
	<path class="st3" d="M-829.2,924.2c-2.1-1.5-13.5-7.8-20.4-8.5s-13-0.8-19.5,3.2c-6.5,3.9,2.8,0.2,2.8,0.2l9.7-2.8l7.8,0.7
		l11.7,4.5l8,4.4V924.2z"/>
</g>
<g>
	<path class="st1" d="M-851,918c0,0-2.8-1.5-6.9-1s-10.9,2.5-12.8,4.1c-1.9,1.6-8.1,8.8-8.1,8.8s-4.6,8.1-5.2,12.7
		s-0.7,7.1-0.4,10.5c0.3,3.4,0.8,6.3,2.4,11.3c1.6,5,1.7,5.6,3.1,8.1c1.4,2.6,3.1,5.6,4.2,6.6s5.3,3,5.3,3l4.4,2l5.1,0.3l-9.6-12.4
		l-5.2-12l5-11.7l9.2-15.7l8.9-13.3L-851,918z"/>
</g>
<g>
	<path class="st4" d="M-851.9,917.3c0,0-4.4,2.2-7,7.7s-3.3,8.7-4.5,10.3c-1.1,1.6-5.3,5.8-8.1,11.1c-2.8,5.4-5.7,11.2-5.9,12.7
		c-0.2,1.5,6.1,13.4,8.4,15.8c2.3,2.5,7.6,9.3,7.6,9.3h2.9l-4-6.6l-4.4-9.3l-0.9-15.6l4.7-9.6l6-11.2l7.4-7.5l5.8-4.2
		c0,0,0.4-1-0.3-1.3C-844.9,918.7-851.9,917.3-851.9,917.3z"/>
</g>
<g>
	<path class="st3" d="M-844.3,919c0,0-5,0.6-8.8,5.1c-3.8,4.5-6,9.6-7.3,11.9c-1.3,2.3-10.5,14.6-10.3,24.8
		c0.1,10.2,12.2,23.5,12.2,23.5s-1.5-2.4-2.4-4.3c-0.9-1.9-1.2-2.7-1.7-4.1c-0.5-1.4-1.6-4.1-1.9-8.2c-0.3-4.1-0.1-5-0.1-5.9
		s-1.9-4.6,1.1-13.9s4.1-9.2,5.2-11.4c1.2-2.2,2.4-5.7,7.7-9.9c5.3-4.2,7-4.1,8.3-4.4c1.2-0.3,4.5-0.7,4.5-0.7L-844.3,919z"/>
</g>
<g>
	<path class="st5" d="M-877.8,929.6c0,0,3.9,1.4,8.9,3.2c5.1,1.7,10.6,3.6,10.7,3.6c0.1,0-0.1,0.6-0.2,0.5c-0.1,0-6.9-2.3-11.7-3.7
		s-8.7-2.2-8.7-2.2L-877.8,929.6z"/>
</g>
<g>
	<path class="st5" d="M-855.7,917.3c0,0,3.7,1.6,7.9,3.2c4.2,1.6,5.4,2,5.5,2.1c0.1,0,0.8-0.1,0.8-0.2c-0.1-0.1-4.8-1.7-6.7-2.4
		c-1.9-0.8-6.1-2.4-6.1-2.4L-855.7,917.3z"/>
</g>
<g>
	<path class="st5" d="M-883.2,957.2c0,0,5.5,1.7,10,2.6s8.3,1.7,8.4,1.7c0.1,0,0.2,0.5,0.1,0.4s-5.1-0.7-8.5-1.4s-9.6-1.7-9.6-1.7
		L-883.2,957.2z"/>
</g>
<g>
	<path class="st5" d="M-878,972.8c0,0,6,1.2,9.3,1.8c3.3,0.6,5.7,1.1,5.9,1.1c0.2,0,0.3,0.5,0.2,0.5s-4.5-0.5-7.5-0.8
		c-2.9-0.3-6.8-0.4-6.8-0.4L-878,972.8z"/>
</g>
<g>
	<path class="st4" d="M-882.6,934.4c-4.5,9.7-4.2,21.9-0.1,31.3c4.1,9.4,5.9,12,6.3,12.6c2.5,3.2,9.1,5.8,11.3,6.3
		c1,0.2,6.9,0.5,7.1,0.5s0.2-0.8-0.4-0.9c-0.6-0.1-4.5-0.3-5.6-0.6s-8.3-2.8-11.1-6.1c-0.8-1-6.6-12-7.6-19.8
		c-1-7.8-1.2-14,4.2-25.3c5.4-11.3,17-14,20.3-14.3c3.3-0.3,10.8-0.2,17.5,2.9s6.4,3.4,7.5,3.9c1.1,0.5,8.4,4.1,8.9,4.4
		c0.5,0.3,0.6-0.5,0-0.9c-0.6-0.4-4.4-3.9-4.8-4.1s-1.9-0.1-2.2-0.4c-0.4-0.3-8.1-4.3-11.5-5.4c-3.4-1.1-9.7-3.8-18.5-2.2
		C-870.3,917.7-877.6,923.7-882.6,934.4z"/>
</g>
<g>
	<path class="st0" d="M-858.8,984.7c-0.3,0-0.6-0.2-0.7-0.5c-0.1-0.4,0.1-0.7,0.5-0.8l48.8-12c0.4-0.1,0.7,0.1,0.8,0.5
		s-0.1,0.7-0.5,0.8l-48.8,12C-858.7,984.7-858.7,984.7-858.8,984.7z"/>
</g>
<g>
	<path class="st1" d="M-864.9,984.4c-0.3,0-0.6-0.2-0.7-0.5c-0.1-0.4,0.2-0.7,0.5-0.8l54.9-11.7c0.4-0.1,0.7,0.2,0.8,0.5
		c0.1,0.4-0.2,0.7-0.5,0.8l-54.9,11.7C-864.8,984.4-864.9,984.4-864.9,984.4z"/>
</g>
</svg>
