<?xml version="1.0" encoding="utf-8"?>
<!-- Generator: Adobe Illustrator 19.0.0, SVG Export Plug-In . SVG Version: 6.00 Build 0)  -->
<svg version="1.1" id="Layer_1" xmlns="http://www.w3.org/2000/svg" xmlns:xlink="http://www.w3.org/1999/xlink" x="0px" y="0px"
	 viewBox="-345 257 100 100" style="enable-background:new -345 257 100 100;" xml:space="preserve">
<style type="text/css">
	.st0{fill:#FFFFFF;}
	.st1{fill:#EAEAEA;}
	.st2{fill:#BDBDBC;}
	.st3{fill:#E2E2E2;}
	.st4{fill:#D1D1D1;}
	.st5{fill:#BCBCBC;}
	.st6{fill:#D3CDCD;}
</style>
<g>
	<path class="st0" d="M-341.8,314.8c0,0,1.1,6.9,1.7,7.3c0.6,0.4,19.1,6.3,20.7,6.2c1.1,0,0.5-0.7,0.5-0.7s0.1-9.1-0.2-9.2
		s-21.6-4.3-21.6-4.3S-341.4,314.1-341.8,314.8z"/>
	<path class="st1" d="M-249.4,298.7c0,0-4.4,8.7-8.5,11.5c-5.1,3.5-11.6,5.9-22.4,9.3c-9.7,3.1-37.7,8.8-39.2,8.8
		c-0.1,0,0.3-7.4,0-8.5c-0.1-0.6,13.6-3.4,13.6-3.4l20.2-4.3l14.3-4.8L-249.4,298.7z"/>
	<path class="st0" d="M-250.2,294c4.1,1.3,2.4,7-10.1,11.7c-18.9,7.1-59.4,11.8-59.4,11.8l-21.9-4.3c0,0,61.1-14.7,67.4-16.1
		C-268,295.7-254.9,292.6-250.2,294z"/>
	<path class="st1" d="M-267.4,297.4c-2.7,0.5-14.2,2.2-17.3,2.7s-17.1,3.9-20.6,5c-3.5,1-16.6,4.2-18.5,4.6c-1.2,0.2-2.2,2.6-2.6,3
		s2.8,1.5,7.7,2c5.2,0.5,11.1-1.1,11.3-1.1c1.2,0,12.2,0.6,23.7-2c11.5-2.6,22.1-5.4,25.6-7.8c1.3-0.9,4.6-3.1,4.6-3.1l-0.9-1.9
		L-267.4,297.4z"/>
	<path class="st1" d="M-319.7,317.5l-21.9-4.3c0,0-0.3,2.3,0,2.4c0.3,0.1,22.4,5.1,22.4,4.7C-319.3,320-319.7,317.5-319.7,317.5z"/>
	<path class="st2" d="M-269.8,302.9c-1.2,0.1-11.5,2.5-24,5.2c-12.5,2.7-24.9,6.4-24.9,6.4c12.3,1.2,15.9,2.1,39.7-3.4
		c15.6-3.6,19.6-6.5,19.6-6.5l-5.9-1.2L-269.8,302.9z"/>
	<path class="st3" d="M-272.5,299.1c0,0-0.1,3.8,0.5,4.2c0.5,0.4,10.3,2.6,11.3,2.1c1-0.5,2.2-1.2,3-1.7
		C-257.1,303.2-272.5,299.1-272.5,299.1z"/>
	<path class="st0" d="M-272.5,299.1c0.3,0.8,1.5,2.5,3.8,3.1c0.8,0.2,9,2.1,10,1.9c1-0.3,4.9-2.4,4.9-3.3c0-0.3-5.8-1.7-9.2-2
		C-267,298.3-272.5,299.1-272.5,299.1z"/>
	<g>
		<path class="st3" d="M-290.1,305.3c0,0-0.2,1.7,0,2c0.2,0.4,10.5,3.6,10.6,3.6s6-1.3,6-1.3c-0.3-0.5-7.1-2-7.1-2L-290.1,305.3z"/>
		<path class="st0" d="M-290.1,305.3c0,0,5.6-1.1,6.6-1c1.1,0,15,3.9,14.5,4c-0.5,0.1-4.9,1.5-5.6,1.7
			C-274.9,310.1-290.1,305.6-290.1,305.3z"/>
	</g>
	<g>
		<path class="st3" d="M-303.7,308.5c0,0,0,1.5,0.2,1.9c0.2,0.4,9.7,3.1,9.9,3.1s2.8-0.5,3.3-0.7c0.5-0.2-4.4-2.7-4.4-2.7
			L-303.7,308.5z"/>
		<path class="st0" d="M-303.7,308.5c0,0,3.2-0.8,4.3-0.7c1.1,0,13.5,4.3,12.9,4.4c-0.5,0.1-3.8,0.7-4.2,0.8
			C-291,313.1-303.6,308.8-303.7,308.5z"/>
	</g>
	<g>
		<path class="st3" d="M-312.3,315.2c3.1,0.3,5.8,0.4,9.2,0.2c-0.9-0.7-1.9-2-1.9-2l-11.5-1.5c0,0,0,1.8,0.2,2.1
			C-316.5,314.1-314.8,314.6-312.3,315.2z"/>
		<path class="st0" d="M-299.3,314.7c-3.3-1.2-11.7-3.7-12.4-3.8c-0.9,0-5,0.9-5,0.9c0,0.1,8.1,2.3,11.9,3.6
			C-302.9,315.5-301.5,315-299.3,314.7z"/>
	</g>
	<path class="st4" d="M-261.8,296.7c2.4,0.1,7.3,1.1,8,1.7c0.7,0.6,0.8,1.5,0.3,2.2c-0.7,1,0.1-0.2-0.8-0.9c-0.6-0.4-9-2.4-15.4-1.8
		c-15.1,1.5-54,12.5-53.9,12.3c0.1-0.3,0.5-1.5,0.5-1.5s44-11,48.8-11.7C-271.9,296.7-266.5,296.4-261.8,296.7z"/>
	<path class="st2" d="M-323.1,308.7l0.2,5.3c0,0-4.1-0.6-3.8-1.9C-326.3,310.2-323.1,308.7-323.1,308.7z"/>
	<g>
		<path class="st1" d="M-336.6,317.5c-0.2,0.6,1.7,2.9,1.9,4c0.4,2.1-0.3,3.4,0.1,4.3c0.6,1.3,1.5,1.7,2.3,1.6c1,0,1.9-0.5,1.9-0.8
			s-0.5-2.4-0.2-2.5c0.3-0.1-1.1-5.6-1.1-5.6l1.3-2.4l-4.1,0.3L-336.6,317.5z"/>
		<path class="st0" d="M-331.9,318.6c0,0-4.7-0.8-4.8-1.1c-0.1-0.4,0.5-1.9,0.6-3c0.1-0.7,0-2.6,0.2-2.8c0.2-0.2,4.3,0,4.3,0v3
			L-331.9,318.6z"/>
		<path class="st5" d="M-328.6,316c0,0,0.2,1.1-0.5,2c-0.7,0.9-1.3,1.2-1.3,1.8c0,0.6,0.1,4.6,0.6,5.3c0.3,0.4-0.2,1.5-0.8,1.7
			c-0.3,0.1-1.3-6.4-1.3-8.2S-328.6,316-328.6,316z"/>
		<path class="st6" d="M-332.3,311.7l0.4,6.9c0,0,3.2-2.4,3.3-2.6c0.1-0.2-0.4-5.1-0.7-5.1C-329.6,310.8-332,311.2-332.3,311.7z"/>
		<path class="st1" d="M-332.3,310.6c-0.2,0-3.8,0.9-3.5,1.1c0.3,0.2,3.3,0.4,3.7,0.2c0.3-0.2,3.1-1,2.9-1.1
			C-329.6,310.8-332,310.5-332.3,310.6z"/>
	</g>
	<path class="st3" d="M-319.3,320.3c1.5,0,44.2-8.2,53-11.4c6.9-2.5,13.7-6.7,13.7-6.7s-0.5,0.5-6.3,2.9c-1.1,0.5-7.1,1.9-8.2,2.2
		c-12.1,3.6-19.8,4.8-26.4,5.9c-6.6,1.1-26.2,4.3-26.2,4.3S-319.4,320.3-319.3,320.3z"/>
</g>
</svg>
