<?xml version="1.0" encoding="utf-8"?>
<!-- Generator: Adobe Illustrator 19.0.0, SVG Export Plug-In . SVG Version: 6.00 Build 0)  -->
<svg version="1.1" id="Layer_1" xmlns="http://www.w3.org/2000/svg" xmlns:xlink="http://www.w3.org/1999/xlink" x="0px" y="0px"
	 viewBox="-345 257 100 100" style="enable-background:new -345 257 100 100;" xml:space="preserve">
<style type="text/css">
	.st0{fill:#FFFFFF;}
	.st1{fill:#D1D1D1;}
	.st2{fill:#EAEAEA;}
	.st3{fill:#E2E2E2;}
	.st4{fill:#FEFEFE;}
</style>
<g>
	<path class="st0" d="M-271.6,317c0,7.7,3.2,14.1,7.7,14.1s6.6-4.6,6.6-13.3c0-6-3.2-10.9-6.5-10.9S-271.6,309.7-271.6,317"/>
</g>
<g>
	<path class="st0" d="M-328.6,320.8c-0.9,7.8,0.7,18.5,9.2,18c8.4-0.4,11.3-10.9,11.2-15.4c-0.1-4.6-1.7-16.3-8.8-16.2
		C-324.2,307.3-328,315.3-328.6,320.8"/>
</g>
<g>
	<path class="st1" d="M-266.3,302.8c-3.1,0-12.4,2.2-12.4,12.2c0,14.7,4.9,20.2,12.2,20.2c6.3,0,11.2-5.8,11.2-16.2
		C-255.4,307.9-260.9,302.8-266.3,302.8 M-264,329.6c-5.5,0-6.2-8.5-6.2-12.5c0-3.4,1.9-8.4,6.2-8.4c4.3,0,6.7,4.8,6.5,10.5
		c-0.4,7.1-2.7,10.4-6,10.3"/>
</g>
<g>
	<path class="st1" d="M-267.3,317.6c0,4.7,0.9,8.8,3.6,8.8c3,0,4.6-3.6,4.6-8.2c0-3.6-2-6.7-4-6.7
		C-265.1,311.5-267.3,313.1-267.3,317.6"/>
</g>
<g>
	<path class="st0" d="M-257,292.2c0.8-0.1,0.9-0.5,0.9-1.7c0-0.8-0.4-0.9-1.5-1c-2.3-0.3-7.2-1.3-7.2-1.3l-0.3,0.2l-0.2-0.2
		l-2.5,1.6l-1.1,0.6h0.1l-12.3,7.5c0,0-6.3-11.8-10.4-13.2c-6.5-2.2-16.6-0.2-16.6-0.2l-2,1.7l-5.8,8.6l-2.3,9.8l6.6,12.8
		c0,0,3.7,0.7,8.7,3.6c5.4,3.2,10.8,6.1,13.9,6.5c1,0.2,4.6-1.9,4.7-3.1c0.4-3.1,3.6-0.9,5-2.6c2.3-2.7,12.8-15.5,13.2-18.7
		c0.2-2.4,5-4.4,8.5-6.8c0.5-0.3,0.5-2.7,0-2.9C-258.1,293.2-258.1,292.4-257,292.2"/>
</g>
<g>
	<path class="st1" d="M-283.2,292c0,0,4.4-4.1,6-4.6c1.7-0.5,11.1-1.6,12.3-1.1c1.2,0.5,0.9,2.5,0,2.7c-0.9,0.2-3.1,1.3-3.8,2.9
		c-0.8,1.6-3.8,7.1-5.8,7.5c-2,0.4-2.7,0.4-4.5,0.2c-1.3-0.1-1.6-0.4-2.5-1.7c-0.9-1.3-3.4-5.1-3.8-6
		C-285.6,291-283.2,292-283.2,292"/>
</g>
<g>
	<path class="st1" d="M-310.6,283.4c-1.2,0-2.4-0.6-3.4-1.2c-0.8-0.4-1.6-0.8-2.2-0.9c-1.6-0.1-2.9,0-2.9,0c-0.4,0-0.8-0.3-0.8-0.7
		s0.3-0.8,0.7-0.8c0.1,0,1.4,0,3,0c1.1,0.1,2,0.6,2.9,1.1s1.7,1,2.6,1c3.4,0,6.7-1,8.9-1.7c1-0.3,1.7-0.5,2.2-0.6
		c7.3-0.7,14.2-0.6,14.2-0.6c0.4,0,0.7,0.3,0.7,0.8c0,0.4-0.4,0.8-0.8,0.7c-0.1,0-6.8-0.2-14,0.6c-0.3,0-1.1,0.2-1.9,0.5
		C-303.4,282.3-306.9,283.4-310.6,283.4z"/>
</g>
<g>
	<path class="st2" d="M-306.3,297.2l1.1,0.4l7.5,2.7l13.7,11.4c0,0,1.4,2.3,1.5,4.5c0.1,2.7,0.6,4.4,2.7,4.7
		c3.1,0.5,14.1,1.7,18.5,1.9c1.5,0.1,2.2-1.4,2.3-2.2c0.4-2.9-0.6-5.1-2.1-8.3c-1.5-3.2-3.6-7.6-3.4-8.8c0.2-1.2-0.7-0.9-1.2-0.9
		c-8.8,0-11.2,6.4-11.2,6.4l-17.6-16l-9.1-2.9c0,0,2.3-6,1.8-7c-0.5-1.1-10.2,0.9-10.2,0.9l-3.1,6.5c0,0,0.3,3.6-0.7,5.8
		c-0.2,0.6-0.1,1.2,0.4,1.2C-311.6,297.2-306.3,297.2-306.3,297.2"/>
</g>
<g>
	<path class="st3" d="M-318.1,306c-0.1,0-0.2,0-0.2,0c-0.4-0.2-0.7-0.6-0.5-1l6.8-21.3c0.2-0.4,0.6-0.7,1-0.5c0.4,0.2,0.7,0.6,0.5,1
		l-6.8,21.3C-317.4,305.8-317.8,306-318.1,306z"/>
</g>
<g>
	<path class="st1" d="M-317.9,303.8c-8.3,0-16.6,8.9-16.6,20.7c0,9.6,5.6,16.5,14.2,16.5c10.9,0,13.4-12.4,13.4-19.3
		C-306.9,312.2-311.2,303.8-317.9,303.8 M-318.9,335.9c-6.8-0.1-8.4-7.6-8.3-13.6c0.1-2.8,2.3-11.7,8.7-12.4
		c6.4-0.8,8.4,6.3,8.8,11.4C-309.3,326.4-312.1,335.9-318.9,335.9"/>
</g>
<g>
	<path class="st1" d="M-323.8,321.6c-0.6,4.9,0.5,11.6,5.7,11.3c5.2-0.2,7-6.8,7-9.6c-0.1-2.8-1.1-10.2-5.5-10.2
		C-321,313.2-323.4,318.2-323.8,321.6"/>
</g>
<g>
	<path class="st2" d="M-317.3,303.4c-2.1-0.2-5.5,0.2-7.3,1.7c-0.7,0.6-0.9,1.1-0.9,1.1s1.2-0.7,1.6-0.9c2.4-1.2,6.3,1.2,6.5,2.4
		c0,0.2,0.6,1,0.4,3c-0.4,4.6-1.5,11.5-1.4,13.4c0.1,1.6,2,2.5,2.9,2.5c2.5,0,2.9-2.1,3.6-2.1c2.2-0.1,4.8-0.5,5.3-0.5
		c0.8,0,0.2-6.2-0.9-9.9C-309,308.7-312.1,303.8-317.3,303.4"/>
</g>
<g>
	<path class="st1" d="M-316.1,294.6c-2.3,0-3.3-2.3-3.3-6.1c0-3.2,3.4-4.7,3.6-5.4c0.3-0.9,0.7-1,1.4-1.4c0.5-0.3,0.7-1,1.4-1.7
		c0.3-0.3,0.8-0.7,1.4-0.4c0.6,0.2,4.6,2.7,4.9,3.4c0.2,0.4-0.1,3.3-0.2,4.7C-307,289.2-307.3,294.6-316.1,294.6"/>
</g>
<g>
	<path class="st4" d="M-318.9,289c0-3.4,2.2-4.3,4.3-4.3c1.7,0,2.7,1.5,2.7,3.9c0,4.1-1.4,5.5-3.9,5.5
		C-318.3,294-318.9,291.3-318.9,289"/>
</g>
<g>
	<path class="st3" d="M-314.7,324.3c-0.1,0-0.2,0-0.2,0c-0.4-0.2-0.7-0.6-0.5-1l12.3-39.6c0.2-0.4,0.6-0.7,1-0.5
		c0.4,0.2,0.7,0.6,0.5,1l-12.3,39.6C-314.1,324.2-314.4,324.3-314.7,324.3z"/>
</g>
<g>
	<path class="st3" d="M-262.3,320C-262.4,320-262.4,320-262.3,320l-15.9-1.6c-0.4-0.1-0.7-0.4-0.7-0.8c0.1-0.4,0.4-0.7,0.8-0.7
		l15.8,1.6c0.4,0.1,0.7,0.4,0.7,0.8C-261.5,319.8-261.9,320-262.3,320z"/>
</g>
</svg>
