<?xml version="1.0" encoding="utf-8"?>
<!-- Generator: Adobe Illustrator 16.0.0, SVG Export Plug-In . SVG Version: 6.00 Build 0)  -->
<!DOCTYPE svg PUBLIC "-//W3C//DTD SVG 1.1//EN" "http://www.w3.org/Graphics/SVG/1.1/DTD/svg11.dtd">
<svg version="1.1" id="Layer_1" xmlns="http://www.w3.org/2000/svg" xmlns:xlink="http://www.w3.org/1999/xlink" x="0px" y="0px"
	 width="100px" height="100px" viewBox="0 0 100 100" enable-background="new 0 0 100 100" xml:space="preserve">
<path fill="#FFFFFF" d="M80.714,47.9c0.003-0.023,0.003-0.047,0.006-0.07c0-0.005,0-0.012,0-0.017c0,0,0-0.005,0-0.008
	c0-17.276-13.669-31.331-30.471-31.331c-16.8,0-30.468,14.054-30.468,31.331c0,0.034,0,0.064,0.004,0.095
	c-0.038,0.349,0.059,0.71,0.304,0.992l28.907,33.067v1.726c0,0.702,0.554,1.273,1.236,1.273c0.683,0,1.239-0.571,1.239-1.273v-1.658
	L80.41,48.892C80.654,48.61,80.75,48.249,80.714,47.9z M22.639,48.001c1.6-1.352,3.583-2.088,5.685-2.088
	c2.336,0,4.525,0.908,6.205,2.557l11.376,26.146L22.639,48.001z M49.013,75.538L37.095,48.142c1.624-1.441,3.673-2.229,5.848-2.229
	c2.273,0,4.412,0.86,6.07,2.428V75.538L49.013,75.538z M54.597,74.64l11.375-26.169c1.681-1.65,3.87-2.557,6.202-2.557
	c2.104,0,4.088,0.736,5.691,2.088L54.597,74.64z M51.484,75.561V48.341c1.662-1.568,3.8-2.428,6.073-2.428
	c2.172,0,4.224,0.787,5.848,2.229L51.484,75.561z M72.174,43.37L72.174,43.37c-2.706,0-5.258,0.953-7.307,2.706
	c-2.052-1.753-4.603-2.706-7.31-2.706l0,0c-2.704,0-5.257,0.953-7.31,2.706c-2.049-1.753-4.603-2.706-7.306-2.706l0,0
	c-2.706,0-5.257,0.953-7.31,2.706c-2.049-1.753-4.603-2.706-7.309-2.706c-2.132,0-4.173,0.59-5.944,1.702
	c1.344-14.598,13.329-26.055,27.869-26.055c14.543,0,26.527,11.457,27.872,26.055C76.35,43.96,74.308,43.37,72.174,43.37z"/>
</svg>
