<?xml version="1.0" encoding="utf-8"?>
<!-- Generator: Adobe Illustrator 19.0.0, SVG Export Plug-In . SVG Version: 6.00 Build 0)  -->
<svg version="1.1" id="Layer_1" xmlns="http://www.w3.org/2000/svg" xmlns:xlink="http://www.w3.org/1999/xlink" x="0px" y="0px"
	 viewBox="-345 257 100 100" style="enable-background:new -345 257 100 100;" xml:space="preserve">
<style type="text/css">
	.st0{clip-path:url(#SVGID_2_);}
	.st1{fill:#ACACAC;}
	.st2{clip-path:url(#SVGID_4_);}
	.st3{fill:#D1D1D1;}
	.st4{clip-path:url(#SVGID_6_);}
	.st5{fill:#BDBDBC;}
	.st6{clip-path:url(#SVGID_8_);}
	.st7{clip-path:url(#SVGID_10_);}
	.st8{clip-path:url(#SVGID_12_);}
	.st9{clip-path:url(#SVGID_14_);}
	.st10{clip-path:url(#SVGID_16_);}
	.st11{clip-path:url(#SVGID_18_);}
	.st12{clip-path:url(#SVGID_20_);}
	.st13{fill:#FFFFFF;}
	.st14{clip-path:url(#SVGID_22_);}
	.st15{fill:#EAEAEA;}
	.st16{clip-path:url(#SVGID_24_);}
	.st17{clip-path:url(#SVGID_26_);}
	.st18{clip-path:url(#SVGID_28_);}
	.st19{clip-path:url(#SVGID_30_);}
	.st20{fill:#BFBFBF;}
</style>
<g>
	<g>
		<defs>
			<path id="SVGID_1_" d="M-316.9,287.9l-16.7,24.4l4,10.3c10.1,9.8,29.1,11.9,42.6,7.4c11.4-3.9,29.1-15.2,28.9-27.7
				c-0.1-10.4-4.9-11.8-4.9-11.8l-11.2-8.7l-12.8-3L-316.9,287.9z"/>
		</defs>
		<clipPath id="SVGID_2_">
			<use xlink:href="#SVGID_1_"  style="overflow:visible;"/>
		</clipPath>
		<g class="st0">
			<polygon class="st1" points="-298.5,292.1 -301.6,294 -314.2,295.2 -319.3,292.5 -310.5,283.8 -300.7,281.8 -297.7,284.9 
				-297.2,287.9 			"/>
		</g>
	</g>
	<g>
		<defs>
			<path id="SVGID_3_" d="M-316.9,287.9l-16.7,24.4l4,10.3c10.1,9.8,29.1,11.9,42.6,7.4c11.4-3.9,29.1-15.2,28.9-27.7
				c-0.1-10.4-4.9-11.8-4.9-11.8l-11.2-8.7l-12.8-3L-316.9,287.9z"/>
		</defs>
		<clipPath id="SVGID_4_">
			<use xlink:href="#SVGID_3_"  style="overflow:visible;"/>
		</clipPath>
		<g class="st2">
			<path class="st3" d="M-301.6,294l-1.2,4.2l-11.6,11.4l-20.1,14.7l-5.8-16.6l15.6-16l4.5-1.3C-320.1,290.5-306,292-301.6,294"/>
		</g>
	</g>
	<g>
		<defs>
			<path id="SVGID_5_" d="M-316.9,287.9l-16.7,24.4l4,10.3c10.1,9.8,29.1,11.9,42.6,7.4c11.4-3.9,29.1-15.2,28.9-27.7
				c-0.1-10.4-4.9-11.8-4.9-11.8l-11.2-8.7l-12.8-3L-316.9,287.9z"/>
		</defs>
		<clipPath id="SVGID_6_">
			<use xlink:href="#SVGID_5_"  style="overflow:visible;"/>
		</clipPath>
		<g class="st4">
			<path class="st5" d="M-301.1,301.5l-1.7-3.2c0,0-10.3,2.2-18.1,7.9c-7.8,5.7-11.6,11.4-14,15c-2.4,3.6,8.7,10,8.7,10l6.5,0.8
				l16.6-20.8L-301.1,301.5z"/>
		</g>
	</g>
	<g>
		<defs>
			<path id="SVGID_7_" d="M-316.9,287.9l-16.7,24.4l4,10.3c10.1,9.8,29.1,11.9,42.6,7.4c11.4-3.9,29.1-15.2,28.9-27.7
				c-0.1-10.4-4.9-11.8-4.9-11.8l-11.2-8.7l-12.8-3L-316.9,287.9z"/>
		</defs>
		<clipPath id="SVGID_8_">
			<use xlink:href="#SVGID_7_"  style="overflow:visible;"/>
		</clipPath>
		<g class="st6">
			<path class="st3" d="M-297.2,302.2l-3.9-0.8c0,0-18.6,20.8-20.7,26c-2.1,5.2,1.2,7.1,1.2,7.1l15.9,2.8l14-3.5l0.4-14.4
				L-297.2,302.2z"/>
		</g>
	</g>
	<g>
		<defs>
			<path id="SVGID_9_" d="M-316.9,287.9l-16.7,24.4l4,10.3c10.1,9.8,29.1,11.9,42.6,7.4c11.4-3.9,29.1-15.2,28.9-27.7
				c-0.1-10.4-4.9-11.8-4.9-11.8l-11.2-8.7l-12.8-3L-316.9,287.9z"/>
		</defs>
		<clipPath id="SVGID_10_">
			<use xlink:href="#SVGID_9_"  style="overflow:visible;"/>
		</clipPath>
		<g class="st7">
			<path class="st5" d="M-292.6,301.1l-4.6,1.1c0,0,1.4,7.5,1.7,17c0.3,9.5-0.5,14.7-0.5,14.7l31.1-10l4.2-6.8l-5.7-10.5
				L-292.6,301.1z"/>
		</g>
	</g>
	<g>
		<defs>
			<path id="SVGID_11_" d="M-316.9,287.9l-16.7,24.4l4,10.3c10.1,9.8,29.1,11.9,42.6,7.4c11.4-3.9,29.1-15.2,28.9-27.7
				c-0.1-10.4-4.9-11.8-4.9-11.8l-11.2-8.7l-12.8-3L-316.9,287.9z"/>
		</defs>
		<clipPath id="SVGID_12_">
			<use xlink:href="#SVGID_11_"  style="overflow:visible;"/>
		</clipPath>
		<g class="st8">
			<path class="st3" d="M-290.7,297.8l-2,3.3c0,0,20.8,10,26.8,16.8c6,6.9,10.5-10.1,10.5-10.1v-9.6l-14.1-3.9L-290.7,297.8z"/>
		</g>
	</g>
	<g>
		<defs>
			<path id="SVGID_13_" d="M-316.9,287.9l-16.7,24.4l4,10.3c10.1,9.8,29.1,11.9,42.6,7.4c11.4-3.9,29.1-15.2,28.9-27.7
				c-0.1-10.4-4.9-11.8-4.9-11.8l-11.2-8.7l-12.8-3L-316.9,287.9z"/>
		</defs>
		<clipPath id="SVGID_14_">
			<use xlink:href="#SVGID_13_"  style="overflow:visible;"/>
		</clipPath>
		<g class="st9">
			<path class="st5" d="M-293.7,292.5l-4.9-0.4c0,0-4.9-13.9-2.5-14.3c2.3-0.3,20.3,3,20.3,3L-293.7,292.5z"/>
		</g>
	</g>
	<g>
		<defs>
			<path id="SVGID_15_" d="M-316.9,287.9l-16.7,24.4l4,10.3c10.1,9.8,29.1,11.9,42.6,7.4c11.4-3.9,29.1-15.2,28.9-27.7
				c-0.1-10.4-4.9-11.8-4.9-11.8l-11.2-8.7l-12.8-3L-316.9,287.9z"/>
		</defs>
		<clipPath id="SVGID_16_">
			<use xlink:href="#SVGID_15_"  style="overflow:visible;"/>
		</clipPath>
		<g class="st10">
			<path class="st3" d="M-290.7,295.2l-2.9-2.7c0,0,8.7-10.8,10.9-11.6c2.2-0.8,11,2.9,11,2.9v4.1l-15,6.5L-290.7,295.2z"/>
		</g>
	</g>
	<g>
		<defs>
			<path id="SVGID_17_" d="M-316.9,287.9l-16.7,24.4l4,10.3c10.1,9.8,29.1,11.9,42.6,7.4c11.4-3.9,29.1-15.2,28.9-27.7
				c-0.1-10.4-4.9-11.8-4.9-11.8l-11.2-8.7l-12.8-3L-316.9,287.9z"/>
		</defs>
		<clipPath id="SVGID_18_">
			<use xlink:href="#SVGID_17_"  style="overflow:visible;"/>
		</clipPath>
		<g class="st11">
			<path class="st5" d="M-290.7,295.2c0,0,17.6-11.7,19.5-11.9c4.4-0.7,13.4,17.1,13.4,17.1s-8.2-6-32.8-2.5V295.2z"/>
		</g>
	</g>
</g>
<g>
	<g>
		<defs>
			<path id="SVGID_19_" d="M-323,265.8l-22.6,9.9l-3.5,13.9l5.3,32.1l9.2,4.3l5.1-3.5c-5.4-16,12-32.5,27.7-37.3
				c22.5-6.8,40.5,2.8,43.7,17.4l11.8,0.1l-3.3-23.6l-11.6-16.9l-27.2-2L-323,265.8z"/>
		</defs>
		<clipPath id="SVGID_20_">
			<use xlink:href="#SVGID_19_"  style="overflow:visible;"/>
		</clipPath>
		<g class="st12">
			<path class="st13" d="M-263.9,284.2c0,0,6,6.8,5.9,16.2c-0.1,9.4-4.4-0.7-4.4-0.7l-5.3-9.3L-263.9,284.2z"/>
		</g>
	</g>
	<g>
		<defs>
			<path id="SVGID_21_" d="M-323,265.8l-22.6,9.9l-3.5,13.9l5.3,32.1l9.2,4.3l5.1-3.5c-5.4-16,12-32.5,27.7-37.3
				c22.5-6.8,40.5,2.8,43.7,17.4l11.8,0.1l-3.3-23.6l-11.6-16.9l-27.2-2L-323,265.8z"/>
		</defs>
		<clipPath id="SVGID_22_">
			<use xlink:href="#SVGID_21_"  style="overflow:visible;"/>
		</clipPath>
		<g class="st14">
			<path class="st15" d="M-275,275.9c0,0,3.5-0.9,7.9,1.7c4.4,2.7,4.2,7.8,3.4,9.8c-0.8,2.1-3.1,6.1-3.1,6.1l-10.1-3
				C-277,290.5-276.6,276.7-275,275.9"/>
		</g>
	</g>
	<g>
		<defs>
			<path id="SVGID_23_" d="M-323,265.8l-22.6,9.9l-3.5,13.9l5.3,32.1l9.2,4.3l5.1-3.5c-5.4-16,12-32.5,27.7-37.3
				c22.5-6.8,40.5,2.8,43.7,17.4l11.8,0.1l-3.3-23.6l-11.6-16.9l-27.2-2L-323,265.8z"/>
		</defs>
		<clipPath id="SVGID_24_">
			<use xlink:href="#SVGID_23_"  style="overflow:visible;"/>
		</clipPath>
		<g class="st16">
			<path class="st13" d="M-290.1,273.2c0,0,2.9-2.9,7.5-2.9c4.6,0,8.5,3.1,8.8,7.6c0.4,4.4-0.6,7.1-2.7,9.1c-2.2,2-10,0.7-10,0.7"/>
		</g>
	</g>
	<g>
		<defs>
			<path id="SVGID_25_" d="M-323,265.8l-22.6,9.9l-3.5,13.9l5.3,32.1l9.2,4.3l5.1-3.5c-5.4-16,12-32.5,27.7-37.3
				c22.5-6.8,40.5,2.8,43.7,17.4l11.8,0.1l-3.3-23.6l-11.6-16.9l-27.2-2L-323,265.8z"/>
		</defs>
		<clipPath id="SVGID_26_">
			<use xlink:href="#SVGID_25_"  style="overflow:visible;"/>
		</clipPath>
		<g class="st17">
			<path class="st15" d="M-308.6,275.2c0,0,3.6-3.8,8.2-4.9c4.6-1.2,8.9-0.6,12,3.6c3.1,4.1,3.6,13.6,3.6,13.6s-8-0.8-14.1,1.6
				C-305,291.5-308.6,275.2-308.6,275.2"/>
		</g>
	</g>
	<g>
		<defs>
			<path id="SVGID_27_" d="M-323,265.8l-22.6,9.9l-3.5,13.9l5.3,32.1l9.2,4.3l5.1-3.5c-5.4-16,12-32.5,27.7-37.3
				c22.5-6.8,40.5,2.8,43.7,17.4l11.8,0.1l-3.3-23.6l-11.6-16.9l-27.2-2L-323,265.8z"/>
		</defs>
		<clipPath id="SVGID_28_">
			<use xlink:href="#SVGID_27_"  style="overflow:visible;"/>
		</clipPath>
		<g class="st18">
			<path class="st15" d="M-328.5,291.9c0,0-4.7,2.6-6.5,7.8c-1.6,4.7,0.5,16.8,5.5,22.9c0,0,4-10.8,8.8-16L-328.5,291.9z"/>
		</g>
	</g>
	<g>
		<defs>
			<path id="SVGID_29_" d="M-323,265.8l-22.6,9.9l-3.5,13.9l5.3,32.1l9.2,4.3l5.1-3.5c-5.4-16,12-32.5,27.7-37.3
				c22.5-6.8,40.5,2.8,43.7,17.4l11.8,0.1l-3.3-23.6l-11.6-16.9l-27.2-2L-323,265.8z"/>
		</defs>
		<clipPath id="SVGID_30_">
			<use xlink:href="#SVGID_29_"  style="overflow:visible;"/>
		</clipPath>
		<g class="st19">
			<path class="st13" d="M-305.8,277.5c-3.6-4.4-9-3.2-16.1,2.3c-6.1,4.7-9.7,10.6-8,15.3s7.8,9.6,7.8,9.6s5.1-6.8,10.8-10.4
				c5.5-3.6,11.5-6.4,11.5-6.4S-301.8,282.3-305.8,277.5"/>
		</g>
	</g>
</g>
<g>
	<path class="st20" d="M-281,343.8c-0.2,0-0.4-0.1-0.5-0.2l-14.9-11.1c-0.4-0.3-0.5-0.8-0.2-1.1c0.3-0.4,0.8-0.5,1.1-0.2l14.9,11.1
		c0.4,0.3,0.5,0.8,0.2,1.1C-280.5,343.7-280.8,343.8-281,343.8z"/>
</g>
<g>
	<path class="st13" d="M-281,343.8C-281,343.8-281,343.8-281,343.8c-0.6-0.1-0.8-0.5-0.8-0.9l6.2-57.9c0.1-0.5,0.5-0.8,0.9-0.8
		c0.5,0.1,0.8,0.5,0.8,0.9l-6.2,57.9C-280.2,343.5-280.6,343.8-281,343.8z"/>
</g>
<g>
	<path class="st13" d="M-281,343.8c-0.1,0-0.2,0-0.3,0c-0.5-0.1-0.7-0.6-0.6-1l15.5-52c0.1-0.5,0.6-0.7,1-0.6s0.7,0.6,0.6,1
		l-15.5,52C-280.3,343.5-280.6,343.8-281,343.8z"/>
</g>
<g>
	<path class="st13" d="M-281,343.8c-0.1,0-0.3,0-0.4-0.1c-0.4-0.2-0.6-0.8-0.3-1.1l22.3-40.2c0.2-0.4,0.8-0.6,1.1-0.3
		c0.4,0.2,0.6,0.8,0.3,1.1l-22.3,40.2C-280.4,343.6-280.7,343.8-281,343.8z"/>
</g>
<g>
	<path class="st13" d="M-281,343.8c-0.5,0-0.8-0.4-0.8-0.8l-4.4-59.6c0-0.5,0.3-0.8,0.8-0.8s0.8,0.3,0.8,0.8l4.4,59.6
		C-280.1,343.3-280.5,343.8-281,343.8L-281,343.8z"/>
</g>
<g>
	<path class="st13" d="M-281,343.8c-0.4,0-0.7-0.2-0.8-0.6l-20.2-57.7c-0.2-0.5,0.1-0.9,0.5-1c0.5-0.2,0.9,0.1,1,0.5l20.2,57.7
		c0.2,0.5-0.1,0.9-0.5,1C-280.8,343.8-280.9,343.8-281,343.8z"/>
</g>
<g>
	<path class="st13" d="M-281,343.8c-0.2,0-0.4-0.1-0.6-0.2l-43.9-41.5c-0.4-0.3-0.4-0.8,0-1.1c0.3-0.4,0.8-0.4,1.1,0l43.9,41.5
		c0.4,0.3,0.4,0.8,0,1.1C-280.6,343.7-280.8,343.8-281,343.8z"/>
</g>
<g>
	<path class="st13" d="M-281,343.8c-0.1,0-0.2,0-0.3-0.1l-48.3-20.7c-0.4-0.2-0.6-0.7-0.5-1c0.2-0.4,0.7-0.6,1-0.5l48.3,20.7
		c0.4,0.2,0.6,0.7,0.5,1C-280.4,343.6-280.7,343.8-281,343.8z"/>
</g>
</svg>
