<?xml version="1.0" encoding="utf-8"?>
<!-- Generator: Adobe Illustrator 19.0.0, SVG Export Plug-In . SVG Version: 6.00 Build 0)  -->
<svg version="1.1" id="Layer_1" xmlns="http://www.w3.org/2000/svg" xmlns:xlink="http://www.w3.org/1999/xlink" x="0px" y="0px"
	 viewBox="-345 257 100 100" style="enable-background:new -345 257 100 100;" xml:space="preserve">
<style type="text/css">
	.st0{fill:#FFFFFF;}
	.st1{clip-path:url(#SVGID_2_);fill:#EAEAEA;}
	.st2{clip-path:url(#SVGID_4_);fill:#EAEAEA;}
	.st3{clip-path:url(#SVGID_6_);fill:#D1D1D1;}
	.st4{fill:#BBBBBC;}
	.st5{fill:#D1D1D1;}
	.st6{fill:none;stroke:#E2E2E2;stroke-miterlimit:10;}
	.st7{fill:#F4F4F4;}
	.st8{fill:none;stroke:#E2E2E2;stroke-linecap:round;stroke-linejoin:round;stroke-miterlimit:10;}
</style>
<path class="st0" d="M-292.5,333c1.7-0.2,5.7-0.5,9.4-2.7c3.6-2.2,23.6-12.7,26.3-13.8s6.3-2.3,7.7-5.3s2.3-5.4,2.1-7.2
	c-0.2-1.8-1-3.2-2.3-4.7c-1.3-1.4-4.9-6.3-11.6-6.9s-9.8,0-14.6,1c-4.8,1-39.6,8-43.4,8.5s-9.3,0.2-13.2,1.7
	c-3.9,1.5-10.5,3.5-10.9,9.8s2.6,7.3,4,8.6c1.4,1.3,3.3,3.2,5.1,4.4c1.8,1.2,3.2,2.4,8.4,3.4c4.1,0.8,13.1,3.1,14.9,3.5
	s4.3,0.9,7,0.6C-300.9,333.6-294.7,333.2-292.5,333z"/>
<g>
	<g>
		<defs>
			<path id="SVGID_1_" d="M-292.5,333c1.7-0.2,5.7-0.5,9.4-2.7c3.6-2.2,23.6-12.7,26.3-13.8s6.3-2.3,7.7-5.3s2.3-5.4,2.1-7.2
				c-0.2-1.8-1-3.2-2.3-4.7c-1.3-1.4-4.9-6.3-11.6-6.9s-9.8,0-14.6,1c-4.8,1-39.6,8-43.4,8.5s-9.3,0.2-13.2,1.7
				c-3.9,1.5-10.5,3.5-10.9,9.8s2.6,7.3,4,8.6c1.4,1.3,3.3,3.2,5.1,4.4c1.8,1.2,3.2,2.4,8.4,3.4c4.1,0.8,13.1,3.1,14.9,3.5
				s4.3,0.9,7,0.6C-300.9,333.6-294.7,333.2-292.5,333z"/>
		</defs>
		<clipPath id="SVGID_2_">
			<use xlink:href="#SVGID_1_"  style="overflow:visible;"/>
		</clipPath>
		<path class="st1" d="M-321.5,302c0,0,2.7-0.7,4,0.5s3.1,3.3,3.3,6c0.2,2.6,0.3,2.1,0.3,2.1s1.7,0.4,2.3,0.5c0.5,0.1,14.8,0,14.8,0
			l7.5-2.6l9.8-1.6l-0.4-4l-1.3-2c0,0-0.9-3.9-2.9-4.8c-1.4-0.6-6.7-1.8-6.7-1.8l-28.9,5.6L-321.5,302z"/>
	</g>
	<g>
		<defs>
			<path id="SVGID_3_" d="M-292.5,333c1.7-0.2,5.7-0.5,9.4-2.7c3.6-2.2,23.6-12.7,26.3-13.8s6.3-2.3,7.7-5.3s2.3-5.4,2.1-7.2
				c-0.2-1.8-1-3.2-2.3-4.7c-1.3-1.4-4.9-6.3-11.6-6.9s-9.8,0-14.6,1c-4.8,1-39.6,8-43.4,8.5s-9.3,0.2-13.2,1.7
				c-3.9,1.5-10.5,3.5-10.9,9.8s2.6,7.3,4,8.6c1.4,1.3,3.3,3.2,5.1,4.4c1.8,1.2,3.2,2.4,8.4,3.4c4.1,0.8,13.1,3.1,14.9,3.5
				s4.3,0.9,7,0.6C-300.9,333.6-294.7,333.2-292.5,333z"/>
		</defs>
		<clipPath id="SVGID_4_">
			<use xlink:href="#SVGID_3_"  style="overflow:visible;"/>
		</clipPath>
		<path class="st2" d="M-292,312.6c0,0,1.7-1.1,4.3,1.3c2.6,2.4,4.4,5.5,4.4,11c0,1.4,33.8-14.6,33.8-14.6s-0.1-4.5-3.9-7
			c-3.8-2.5-9.7,0-9.7,0l-7.6,1.3L-292,312.6z"/>
	</g>
	<g>
		<defs>
			<path id="SVGID_5_" d="M-292.5,333c1.7-0.2,5.7-0.5,9.4-2.7c3.6-2.2,23.6-12.7,26.3-13.8s6.3-2.3,7.7-5.3s2.3-5.4,2.1-7.2
				c-0.2-1.8-1-3.2-2.3-4.7c-1.3-1.4-4.9-6.3-11.6-6.9s-9.8,0-14.6,1c-4.8,1-39.6,8-43.4,8.5s-9.3,0.2-13.2,1.7
				c-3.9,1.5-10.5,3.5-10.9,9.8s2.6,7.3,4,8.6c1.4,1.3,3.3,3.2,5.1,4.4c1.8,1.2,3.2,2.4,8.4,3.4c4.1,0.8,13.1,3.1,14.9,3.5
				s4.3,0.9,7,0.6C-300.9,333.6-294.7,333.2-292.5,333z"/>
		</defs>
		<clipPath id="SVGID_6_">
			<use xlink:href="#SVGID_5_"  style="overflow:visible;"/>
		</clipPath>
		<path class="st3" d="M-343.7,314.5c0.8,1.5,4.3,3.4,4.3,3.4s3.6,3.2,6.4,4.2c2.7,1,23,5.8,27.7,6.6c5.5,0.9,18.1-0.8,21.6-1.4
			c1.3-0.2,9-4.4,17-8.3s16.4-7.6,17.1-8.4c1.5-1.5,3.3-7.3,3.3-7.3l-1-3.4c0.3,3.5-1.1,7.6-2.5,8.8c-2.3,1.8-31.2,14.7-34.2,15.2
			c-3.8,0.6-12.9,1.3-20.7,0.9s-25.3-5.9-27.7-6.8c-2.4-0.9-4.6-2.9-6.2-3.7s-5.4-3.2-5.4-3.2L-343.7,314.5z"/>
	</g>
</g>
<path class="st4" d="M-262.2,303.1c-1,0.3-9.4,2.6-14.1,4.2s-12.7,4.8-13.9,5.1c-1.2,0.3-10.2,0.1-12,0s-3.8,0-6.2-0.5
	s6.2-1.1,16.3-3.5s21.4-5.5,22.4-5.7s3.6-1,5.3-0.7C-262.8,302.3-261.7,302.9-262.2,303.1z"/>
<path class="st5" d="M-281,298.3c1.1,0.1,15.7,3.9,16.4,4.2c0.7,0.2,1.1,1.1,1.1,1.1l-13,3.9c0,0-6.6-1.2-6.8-1.5s-1-1.3-1-3.9
	C-284.3,299.3-281.4,298.3-281,298.3z"/>
<g>
	<line class="st6" x1="-281.5" y1="307.3" x2="-266.6" y2="293.1"/>
	<line class="st6" x1="-284.5" y1="305.7" x2="-268.7" y2="292.6"/>
	<path class="st7" d="M-290.7,310.9c0.6,0.6,0.6,1.4,1,1s3.8-3.1,4-3.4c0.2-0.4,0.5-1.1,1-1.5s0.8-0.8,0.8-0.8l-1.1-1.1
		c0,0-0.1,0.3-0.9,0.9c-0.3,0.3-1.8,0.9-2.6,1.5c-0.9,0.6-3.6,3.1-3.6,3.2S-290.7,310.9-290.7,310.9z"/>
	<path class="st7" d="M-282.2,309.4c0,0,0.1-0.5,0.6-0.9c0.5-0.5,0.8-0.8,0.8-0.8l-1.2-1.1c0,0-0.1,0.3-0.8,0.9
		c-0.3,0.3-1.8,1.1-2.5,1.7c-0.8,0.7-2.5,2.4-2.4,2.3C-286.3,311-283,309.9-282.2,309.4z"/>
	<path class="st8" d="M-270.1,292.3c0,0,0.9-0.5,1.7-0.2c0.8,0.3,0.9,1,0.9,1"/>
	<path class="st8" d="M-268.2,293.1c0,0,0.8-0.5,1.7-0.3c0.9,0.2,1,0.9,1,0.9"/>
</g>
<path class="st5" d="M-289.1,312c0,0-0.3-1.1-2.6-2.2s-14.8-5.6-15.5-5.5s-3.7,0.8-4.8,2.9c-1,2.2-0.5,3.6-0.5,3.6s2.2,0.6,3.9,0.9
	s3.1,0.5,5.5,0.5c2.4,0.1,10.3,0.5,12.2,0.1C-289.1,312-289.1,312-289.1,312z"/>
</svg>
