<?xml version="1.0" encoding="utf-8"?>
<!-- Generator: Adobe Illustrator 19.0.0, SVG Export Plug-In . SVG Version: 6.00 Build 0)  -->
<svg version="1.1" id="Layer_1" xmlns="http://www.w3.org/2000/svg" xmlns:xlink="http://www.w3.org/1999/xlink" x="0px" y="0px"
	 viewBox="-345 257 100 100" style="enable-background:new -345 257 100 100;" xml:space="preserve">
<style type="text/css">
	.st0{fill:#F9F9F9;}
	.st1{fill:#BDBDBC;}
	.st2{fill:#EAEAEA;}
	.st3{fill:#D1D1D1;}
	.st4{fill:#B7B7B7;}
	.st5{fill:#FFFFFF;}
</style>
<g>
	<path class="st0" d="M-301.5,349c-0.2,0-0.3,0-0.4-0.1c-0.8-0.3-1.2-1.1-1-1.9c0.1-0.4,12-39,13.1-42.8c0.2-0.5,0.4-1.2,0.5-1.7
		c1-3.2,2-6.5,0.5-9.5c-0.7-1.4-1.7-2-3.1-1.9c1.6,1.2,3.5,2.9,2.7,5.8c-0.7,2.8-2.9,4.3-6,4.2c-1.1-0.1-3-0.4-4.3-2
		c-0.9-1.2-1.2-2.7-0.8-4.6c0.3-1.4,1.4-2.9,2.9-4.2c-1-1-1.8-2-1.9-3.5c-0.1-1.2,0.4-2.4,1.6-3.5c1.2-1.2,2.4-2,3.7-3
		c1.8-1.2,3.7-2.7,5.8-4.9c3.5-3.7,5.2-9.4,5.2-9.5c0.3-0.8,1.1-1.2,1.9-1c0.8,0.3,1.2,1.1,1,1.9c-0.1,0.3-1.9,6.5-5.9,10.6
		c-2.3,2.4-4.3,3.9-6.2,5.3c-1.3,1-2.4,1.8-3.4,2.7c-0.4,0.4-0.8,0.9-0.7,1.3c0,0.6,0.8,1.3,1.6,2c0.7-0.3,1.4-0.4,2.1-0.5
		c2.8-0.4,5.2,0.9,6.5,3.5c2,4.1,0.7,8.3-0.4,11.7c-0.2,0.5-0.4,1.1-0.5,1.6c-1.1,3.7-12.6,41.3-13.1,42.9
		C-300.3,348.6-300.8,349-301.5,349z M-295.1,292.4c-1.2,0.9-2.1,1.9-2.3,2.7c-0.2,1-0.1,1.7,0.3,2.2c0.5,0.7,1.7,0.9,2.1,0.9
		c2.5,0.2,2.8-1.4,2.9-1.9c0.3-1.2-0.3-1.7-1.9-2.9c-0.4-0.3-0.6-0.5-1-0.8C-294.9,292.5-295,292.5-295.1,292.4z"/>
</g>
<g>
	<path class="st1" d="M-291.6,310l-2.4-2.6c0,0,0,0-0.1,0.1c0,0,1.3-1.5,1.3-6.4c0-1.9-0.3-3.5-0.5-5c-0.3-1.5-0.4-3-0.4-4.6
		c0-1.6,0.3-3.1,0.4-4.6c0.3-1.5,0.4-2.9,0.4-4.3c0-6.3-1.4-8.3-1.5-8.4v0.1l2.7-2.2c0.4,0.4,2.3,3,2.3,10.6c0,1.6-0.3,3.3-0.4,4.9
		c-0.2,1.4-0.4,2.8-0.4,4.2s0.2,2.6,0.4,4c0.3,1.6,0.5,3.4,0.5,5.6C-289.2,307.5-291.2,309.6-291.6,310z"/>
</g>
<g>
	<path class="st2" d="M-294,310c-0.6-0.6-2.4-2.5-2.4-8.7c0-2.2,0.4-3.9,0.9-5.5c0.4-1.5,0.8-2.9,0.8-4.7c0-1.8-0.3-2.9-0.6-4.3
		c-0.4-1.6-0.8-3.4-0.8-6.2c0-6,1.8-8.3,2-8.6c1.2-1.3,4-0.4,2.7,2.2l0,0c0,0-1.2,1.8-1.2,6.5c0,2.4,0.4,3.9,0.7,5.4
		c0.4,1.5,0.7,3,0.7,5.1c0,2.3-0.4,4-0.9,5.6c-0.4,1.4-0.7,2.8-0.7,4.6c0,4.7,1.3,6.2,1.3,6.2l-0.1-0.1
		C-290.5,309.1-292,311.5-294,310z"/>
</g>
<g>
	<path class="st3" d="M-292.6,342.4c-3,0-7.8-0.7-9-2.2c-1-1.2-2.4-4-2.8-5.1c-0.4-1,0.1-2.2,1.1-2.6c1-0.4,2.2,0.1,2.6,1.1
		c0.4,1.1,1.5,3.1,2.1,4c1.2,0.5,5.8,1.2,7,0.9c0.5-0.4,2.4-2.3,6.1-14.6c2.2-7.4,2.8-11.2,1.9-13.3c-1.2-2.8-4.2-4.4-8.9-4.7
		c-5-0.4-12.4,6.2-13.9,8.9c-0.3,0.4,0,1.4,0.1,1.7c0.4,1-0.1,2.2-1.1,2.6c-1,0.4-2.2-0.1-2.6-1.1c-0.1-0.3-1.1-2.8,0.1-5
		c1.9-3.6,10.6-11.5,17.7-11.1c6.2,0.4,10.4,2.8,12.2,7.1c1.3,3.1,0.9,7.3-1.8,16c-4.2,13.6-6.5,16.7-8.9,17.3
		C-291,342.3-291.7,342.4-292.6,342.4z"/>
</g>
<g>
	<path class="st0" d="M-301.5,349.3c-0.2,0-0.4,0-0.5-0.1c-0.9-0.3-1.4-1.2-1.2-2.2c0.1-0.4,10.8-34.4,13.1-42.8
		c0.2-0.8,0.4-1.5,0.6-2.2c1.4-5,1.8-6.7,0.5-8.7c-0.5-0.9-1.2-1.4-1.9-1.6c1.3,1.2,2.6,2.8,1.9,5.3c-0.7,2.9-3,4.6-6.3,4.3
		c-1.2-0.1-3.2-0.4-4.4-2.1c-1-1.2-1.2-2.8-0.9-4.8c0.3-1.5,1.3-3,2.7-4.2c-0.9-0.9-1.7-2-1.8-3.4c-0.1-1.3,0.5-2.6,1.7-3.7
		c1.2-1.2,2.4-2,3.7-3c1.8-1.2,3.7-2.7,5.8-4.9c3.5-3.6,5.1-9.3,5.1-9.4c0.3-0.9,1.2-1.4,2.1-1.2c0.9,0.3,1.4,1.2,1.2,2.1
		c-0.1,0.3-1.9,6.6-5.9,10.8c-2.3,2.4-4.4,4-6.3,5.3c-1.3,1-2.4,1.8-3.4,2.7c-0.4,0.4-0.7,0.9-0.7,1.1c0,0.4,0.7,1.2,1.4,1.8
		c0.4-0.2,0.8-0.3,1.2-0.4c3-0.5,5.7,0.6,7.3,3.3c2.1,3.3,1.2,6.4-0.2,11.4c-0.2,0.7-0.4,1.4-0.6,2.2c-2.3,8.4-13,42.5-13.1,42.9
		C-300.1,348.7-300.8,349.3-301.5,349.3z M-295.1,292.7c-1.2,0.8-1.9,1.8-2,2.5c-0.2,0.9-0.1,1.6,0.3,2c0.4,0.4,1.1,0.7,1.9,0.8
		c2.2,0.2,2.6-1.2,2.7-1.7c0.3-1-0.2-1.4-1.8-2.7C-294.4,293.3-294.7,293-295.1,292.7C-295.1,292.8-295.1,292.7-295.1,292.7z"/>
</g>
<g>
	<path class="st2" d="M-293.8,287.5c-0.8,0-1.5-0.5-1.7-1.3c-0.3-1.3-0.6-3-0.6-5.6c0-0.5,0-1.2,0.1-1.8c0.1-1,1-1.6,1.9-1.5
		s1.6,1,1.5,1.9c-0.1,0.4-0.1,1-0.1,1.3c0,2.1,0.3,3.5,0.5,4.8c0.2,1-0.4,1.9-1.3,2C-293.6,287.5-293.7,287.5-293.8,287.5z"/>
</g>
<g>
	<path class="st2" d="M-294,307.9c-0.7,0-1.4-0.4-1.6-1.2c-1.3-3.7-0.4-8.5,0.2-11c0.3-1,1.2-1.5,2.1-1.2c1,0.3,1.5,1.2,1.2,2.1
		c-0.9,3.6-1,6.9-0.3,9c0.4,0.9-0.2,1.9-1.1,2.2C-293.7,307.9-293.8,307.9-294,307.9z"/>
</g>
<g>
	<path class="st2" d="M-291.2,291.5l-3.5-3v-0.2h1.1l2-1c0,0,0.3,0.9,0.4,1.8C-291.3,289.8-291.2,291.5-291.2,291.5"/>
</g>
<g>
	<path class="st4" d="M-289.8,288.1c-0.1,0.6-0.4,3.3-0.4,4.3l-1.1-0.9c0,0,0-0.6-0.1-1.8c-0.1-1.2-0.3-1.8-0.4-2
		C-291.6,287.3-289.8,287.6-289.8,288.1"/>
</g>
<g>
	<path class="st5" d="M-302.9,335.8c-1,0-1.9-0.6-2.1-1.5l-5.2-16.4c-0.4-1.2,0.3-2.4,1.4-2.8c1.2-0.4,2.4,0.3,2.8,1.4l5.2,16.4
		c0.4,1.2-0.3,2.4-1.4,2.8C-302.4,335.8-302.6,335.8-302.9,335.8z"/>
</g>
</svg>
