<?xml version="1.0" encoding="utf-8"?>
<!-- Generator: Adobe Illustrator 19.0.0, SVG Export Plug-In . SVG Version: 6.00 Build 0)  -->
<svg version="1.1" id="Layer_1" xmlns="http://www.w3.org/2000/svg" xmlns:xlink="http://www.w3.org/1999/xlink" x="0px" y="0px"
	 viewBox="-345 257 100 100" style="enable-background:new -345 257 100 100;" xml:space="preserve">
<style type="text/css">
	.st0{fill:#FFFFFF;}
	.st1{fill:#EAEAEA;}
	.st2{fill:#BDBDBC;}
	.st3{fill:#D1D1D1;}
</style>
<path class="st0" d="M-311.9,295.2c-11.6-5.7-14-7.9-18.2-7.6c-4.2,0.3-14.1,4.2-13.2,9.3c0.9,5.2,8,6.9,11.7,8.2
	c7.1,2.5,49.1,22.6,53,24.5c5.1,2.4,12,3.3,20.5,0.1c8.4-3.2,12-9.6,11.2-11.3c-1.6-3.2-14.7-4.4-22.2-6.7
	C-274.7,310-305.5,298.4-311.9,295.2"/>
<path class="st1" d="M-302.7,316.4c1.1,0.5,9.8,4.9,10.6,5.1c0.8,0.3,3.9-0.6,5-1.4c1.1-0.8,10.1-9.8,10.6-10.3
	c1-1.1,0.3-1.6-0.9-2.2c-1.3-0.7-9-3.8-10.3-4c-1.2-0.2-2-0.5-2.9,0.2c-1.6,1.4-10.8,9.4-11.7,10.4
	C-303.2,315.3-303.5,316.1-302.7,316.4"/>
<path class="st2" d="M-286.4,304.6c0,0-1.4,0.8-1.5,0.9c-1.3,0.7-3.2,2.2-3.2,2.2s-0.5-0.8,0.4-1.8
	C-289.9,305-286.4,304.6-286.4,304.6"/>
<path class="st3" d="M-283.4,313l3.6-3.6c0,0-1.9-4.4-5.5-5.7c-2.3-0.8-5.6,2.2-5.6,2.2s1.4-1.1,3.5,0
	C-283.8,307.8-283.4,313-283.4,313"/>
<path class="st2" d="M-291.9,307.8c0,0-1.4,1.3-1.8,2.5c-0.1,0.2-4.4,3.6-4.4,3.6s0.2-2.5,1.8-4.2
	C-295.4,308.8-291.9,307.8-291.9,307.8"/>
<path class="st3" d="M-288,317.7l3.8-3.8c0,0-1.9-5.5-5.3-6.9c-3-1.2-6.6,2.7-6.6,2.7s2.7-1.8,4.6-0.5
	C-288.4,311.4-288,317.7-288,317.7"/>
<path class="st1" d="M-330.8,303.9c1,0.5,9,4.1,9.7,4.3c0.7,0.3,2.6-0.4,3.6-1.1c1-0.7,10.4-8.3,10.9-8.8c0.9-0.9,0.4-1.4-0.8-2.1
	c-1.1-0.7-7.9-3.8-9.1-4.1c-1-0.3-1.8-0.5-2.7,0.1c-1.5,1.1-10.5,8.8-11.3,9.6C-331.2,302.8-331.4,303.5-330.8,303.9"/>
<path class="st2" d="M-315.2,293.2c0,0-1.3,0.7-1.4,0.8c-1.2,0.5-3,1.8-3,1.8s-0.4-0.7,0.4-1.6
	C-318.4,293.4-315.2,293.2-315.2,293.2"/>
<path class="st3" d="M-312.8,300.9l3.4-3.1c0,0-1.6-4-4.7-5.3c-2-0.8-5.1,1.7-5.1,1.7s1.3-0.9,3.2,0.2
	C-313,296.2-312.8,300.9-312.8,300.9"/>
<path class="st2" d="M-320.3,295.8c0,0-1.3,1.1-1.7,2.2c-0.1,0.2-4.1,3-4.1,3s0.3-2.2,1.8-3.7C-323.5,296.6-320.3,295.8-320.3,295.8
	"/>
<path class="st3" d="M-317.2,304.9l3.6-3.2c0,0-1.4-5-4.5-6.4c-2.7-1.2-6.1,2.1-6.1,2.1s2.5-1.5,4.2-0.2
	C-317.3,299.3-317.2,304.9-317.2,304.9"/>
</svg>
