<?xml version="1.0" encoding="utf-8"?>
<!-- Generator: Adobe Illustrator 19.0.0, SVG Export Plug-In . SVG Version: 6.00 Build 0)  -->
<svg version="1.1" id="Layer_1" xmlns="http://www.w3.org/2000/svg" xmlns:xlink="http://www.w3.org/1999/xlink" x="0px" y="0px"
	 viewBox="-345 257 100 100" style="enable-background:new -345 257 100 100;" xml:space="preserve">
<style type="text/css">
	.st0{fill:#EAEAEA;}
	.st1{fill:#D1D1D1;}
	.st2{fill:#AFAFAF;}
	.st3{fill:#FFFFFF;}
	.st4{fill:#DBDBDB;}
</style>
<g>
	<path class="st0" d="M-341.7,298.9c6-1.4,19.2-2.5,31.2-2.5c12.1,0,26.2,1.8,26.2,1.8l0.3,2.1c0,0-11.5-0.7-22-0.4
		c-11.7,0.3-23.7,3.2-27.5,4.1c-1.1,0.3-3.7,0.4-4.9,1.6c-0.9,0.9-3.2,0.3-4.1-0.6c-0.3-0.3-1-0.5-0.9-1.7c0.1-0.9,0.2-2.4,0.4-3.1
		C-342.8,299.6-342.4,299-341.7,298.9z"/>
</g>
<g>
	<path class="st1" d="M-337.9,299.3c0,0,6-1.1,10-1.4c4-0.2,14.9-1.1,22.4-1c7.5,0.2,16.1,1,18.8,1.3c2.7,0.2,3.8,0.3,3.8,0.3
		l-1.5,2.9c-2.5,0-9.9-0.3-15.8-0.3c-6.2,0-19.8,0.4-30.6,2.7C-341.4,306-337.9,299.3-337.9,299.3"/>
</g>
<g>
	<path class="st2" d="M-280.1,299.7c0,0.5-0.1,0.9-0.1,0.9l-0.9-0.8l0.5-1.2l0.4,0.3C-280.3,298.9-280.1,299.1-280.1,299.7z"/>
</g>
<g>
	<g>
		<path class="st3" d="M-279.6,300.6c-0.3,0-0.6-0.2-0.7-0.5c-0.1-0.4,0.1-0.9,0.5-1l31.9-10.8c0.4-0.1,0.9,0.1,1,0.5
			c0.1,0.4-0.1,0.9-0.5,1l-31.9,10.8C-279.4,300.6-279.5,300.6-279.6,300.6z"/>
	</g>
	<g>
		<path class="st3" d="M-278.8,301.2c-0.3,0-0.6-0.2-0.7-0.5c0,0-0.1,0-0.2-0.1c-0.7-0.1-1.5,0-1.5,0c-0.4,0.1-0.8-0.2-0.9-0.6
			c-0.1-0.4,0.2-0.8,0.6-0.9c0,0,1-0.2,2,0c1.5,0.3,1.5,1.3,1.5,1.4C-278,300.9-278.3,301.2-278.8,301.2z"/>
	</g>
</g>
<g>
	<path class="st4" d="M-284.2,298.1c0,0-0.4,1.1-0.4,2c0.1,0.8,0.2,1.2,0.2,1.2s2.9,0.3,3.7-0.3c0.4-0.3,0.4-0.5,0.4-0.5
		s-0.5-0.3-0.5-0.9s0.5-0.8,0.5-0.8s-0.1-0.5-1.3-0.6C-282.8,298.2-284.2,298.1-284.2,298.1z"/>
</g>
<g>
	<g>
		<path class="st3" d="M-341.3,302.4c-0.2,1.2,0.3,2.3,1.2,2.7c0.9,0.4,4.6,1.6,7.6,3.2c0.5,0.2,1,1.1,2.6,1.9
			c1.5,0.7,2.2,0.5,2.8,0.7c0.7,0.2,1.6,0.5,6,2.4c2.3,1,5.1,2.2,6.1,2.7c1,0.6,1.2,1,3,2c2.4,1.3,3.3,1.1,3.8,1.3
			c2,0.6,3.6,1.2,7.4,2.9c3.8,1.7,7.3,3.4,7.3,3.4l2.2-5.7l-0.2-1.6c0,0-9.6-4-12.6-5.2s-8.2-3.4-11.8-4.8c-3.6-1.4-8.2-3.6-11.8-5
			c-3.6-1.4-8.1-4.1-10.1-4.1C-339,299.3-340.9,300.3-341.3,302.4z"/>
	</g>
	<g>
		<path class="st0" d="M-310.6,311.8c2.4,0.8,3.1,3.1,2.9,5.3c-0.3,3-2.4,1.8-4.4,0.7c-2.1-1.1-3.6-2.7-3.2-4.5
			C-315,311.4-312.8,311.1-310.6,311.8z"/>
	</g>
	<g>
		<path class="st0" d="M-328.5,304.5c2.2,0.7,2,3.4,1.7,5c-0.3,1.6-1.7,1.2-3.2,0.4c-1.9-1-3.3-2.5-2.9-4
			C-332.3,304.4-330.1,304-328.5,304.5z"/>
	</g>
</g>
<g>
	<path class="st2" d="M-279.1,302.4c0.2,0.3,0.3,0.4,1,1.9c0.5,1.1,1.2,3.4,1.1,4.6c-0.1,1.2,0.9,0,0.9,0l0.3-4.4l-1.4-2.3l-2-0.8
		L-279.1,302.4z"/>
</g>
<g>
	<path class="st0" d="M-281.6,322.9c-3.2,2.3-9.1,5.3-9.4,5.3c-0.4,0-1.9-1.2-2.5-1.7c-0.6-0.4-1.2-1.8-0.7-3.9c0,0,0.3-1.7,0.8-2.3
		s1.5-1.9,1.9-1.9c0.4,0,0.6,0.2,1.2,0c0.6-0.2,6.5-2.4,8.5-3.7s5-3.6,5.2-6.8c0.2-3.1-0.6-4.7-1.2-5.5c-0.7-0.8-1-1.1-1-1.1
		s0.1-0.9,0.4-0.9c0.4-0.1,1-0.3,1-0.3s3.6,2.1,3.6,6.1c0,2.5-0.5,4.9-0.5,4.9l-4.3,5.7l-10.1,5.6l-2.2,5.8"/>
</g>
<g>
	<path class="st3" d="M-291.1,328.2c14.8-6.5,17.1-12.5,17.3-16.4c0.1-4-0.2-6.4-0.2-6.4s1.5,10.9-16.2,15.7c-0.5,0.1-0.7,1-0.7,1.3
		c0,0.3,0.3,1.7,0.2,2.7s-0.7,2.1-0.7,2.4L-291.1,328.2z"/>
</g>
<g>
	<path class="st4" d="M-279.9,300.7c-0.1,0.3-0.1,0.9-0.1,1c0.1,0.1,0.8,0.9,0.9,0.9c0.1,0-0.1-1.3,0.3-1.6c0.4-0.3,1.6-0.6,1.5-0.7
		c-0.1-0.1-1.2-0.7-1.8-0.5C-279.6,300-279.8,300.3-279.9,300.7z"/>
</g>
</svg>
