<?xml version="1.0" encoding="utf-8"?>
<!-- Generator: Adobe Illustrator 19.0.0, SVG Export Plug-In . SVG Version: 6.00 Build 0)  -->
<svg version="1.1" id="Layer_1" xmlns="http://www.w3.org/2000/svg" xmlns:xlink="http://www.w3.org/1999/xlink" x="0px" y="0px"
	 viewBox="-345 257 100 100" style="enable-background:new -345 257 100 100;" xml:space="preserve">
<style type="text/css">
	.st0{fill:#D1D1D1;}
	.st1{fill:#F4F4F4;}
	.st2{fill:#EAEAEA;}
	.st3{clip-path:url(#SVGID_3_);}
	.st4{fill:#FFFFFF;}
	.st5{fill:#BDBDBC;}
	.st6{clip-path:url(#SVGID_5_);}
	.st7{clip-path:url(#SVGID_7_);}
	.st8{clip-path:url(#SVGID_9_);}
	.st9{clip-path:url(#SVGID_11_);}
	.st10{clip-path:url(#SVGID_13_);}
	.st11{clip-path:url(#SVGID_15_);}
	.st12{fill:#E2E2E2;}
</style>
<g>
	<path class="st0" d="M-321.9,342.4c0,0,2.7,5,1.3,6.1c-0.5,0.4,1,1,1.7,0.6c3.2-2.4,3.5-7.5,1.7-10.2"/>
</g>
<g>
	<path class="st0" d="M-313.2,340.8c0,0,2.1,3.8,1,4.7c-0.4,0.3,0.8,0.8,1.3,0.4c2.4-1.9,2.6-5.8,1.3-7.9"/>
</g>
<g>
	<path class="st1" d="M-281.7,332.4c14.8-7.6,27.1-16.8,24.9-19.7c-1.9-2.5-17.6,2.3-35.3,10.6c-17.6,8.3-33.6,16.5-30.8,21
		C-320.3,348.3-297.1,340.3-281.7,332.4"/>
</g>
<g>
	<path class="st2" d="M-281.7,332.4c14.8-7.6,27.1-16.8,24.9-19.7c-1.9-2.5-17.6,2.3-35.3,10.6c-17.6,8.3-33.6,16.5-30.8,21
		C-320.3,348.3-297.1,340.3-281.7,332.4"/>
</g>
<g>
	<g>
		<path id="SVGID_1_" class="st2" d="M-291.9,323.3c-17.6,8.3-33.6,16.5-30.8,21c2.4,3.9,25.7-4.1,41.1-12
			c14.8-7.6,27.1-16.8,24.9-19.7c-0.4-0.5-1.1-0.7-2.3-0.7C-264.4,312.1-277.6,316.5-291.9,323.3"/>
	</g>
	<g>
		<defs>
			<path id="SVGID_2_" d="M-291.9,323.3c-17.6,8.3-33.6,16.5-30.8,21c2.4,3.9,25.7-4.1,41.1-12c14.8-7.6,27.1-16.8,24.9-19.7
				c-0.4-0.5-1.1-0.7-2.3-0.7C-264.4,312.1-277.6,316.5-291.9,323.3"/>
		</defs>
		<clipPath id="SVGID_3_">
			<use xlink:href="#SVGID_2_"  style="overflow:visible;"/>
		</clipPath>
		<g class="st3">
			<path class="st4" d="M-281.7,332.4c6.6-3.4,11.2-12.4,16.8-13c11.6-1.4,9.4-5.1,8.3-6.7c-1-1.4-6.5-3.8-11.5,3.6
				c-3.7,5.3-15.6,3.2-23.7,7c-9.5,4.5-15.1,11-23.2,14.5c-5.8,2.6-10.6,2.5-7.7,6.5c2.5,3.5,5,1.2,10-3.6
				C-308.5,336.9-291.4,337.4-281.7,332.4"/>
		</g>
	</g>
</g>
<g>
	<path class="st5" d="M-326.6,324.8c-0.5,0-0.8-0.4-0.8-0.8c0-0.8,1.1-5.5,23.3-15c18.3-7.9,21.6-4.8,22-4l-1.3,0.8c0,0,0,0,0,0.1
		c0,0-3-2.8-20.3,4.6c-21.4,9.2-22.3,13.6-22.3,13.6C-325.8,324.4-326.1,324.8-326.6,324.8z"/>
</g>
<g>
	<g>
		<defs>
			<path id="SVGID_4_" d="M-301.7,266.1c-0.5,1.4-1.8,3.1-1.8,3.1s-1.2,5.3-3.8,9.8c-2.9,5-6.8,9-6.8,9s-0.4,8.4-2.5,16.6
				c-2.4,9-7.4,16.5-7.2,17.6c0.2,1,1.3,0.8,4.8,3.3c3.8,2.6,4.3,3.5,5.2,3.7c0.8,0.2,8.1-1.7,13.2-2.3c5.7-0.7,12.5,0,12.5,0
				s1-13.2-0.9-24.8c-2-11.6-8.6-38.7-11.2-38.7l0,0C-300.9,263.2-301.2,264.5-301.7,266.1"/>
		</defs>
		<clipPath id="SVGID_5_">
			<use xlink:href="#SVGID_4_"  style="overflow:visible;"/>
		</clipPath>
		<g class="st6">
			<polygon class="st2" points="-284,312.1 -284.3,312.1 -295.2,314.1 -309,323 -314.8,327.6 -314.8,333.1 -291,335.7 -280.7,325.1 
							"/>
		</g>
	</g>
	<g>
		<defs>
			<path id="SVGID_6_" d="M-301.7,266.1c-0.5,1.4-1.8,3.1-1.8,3.1s-1.2,5.3-3.8,9.8c-2.9,5-6.8,9-6.8,9s-0.4,8.4-2.5,16.6
				c-2.4,9-7.4,16.5-7.2,17.6c0.2,1,1.3,0.8,4.8,3.3c3.8,2.6,4.3,3.5,5.2,3.7c0.8,0.2,8.1-1.7,13.2-2.3c5.7-0.7,12.5,0,12.5,0
				s1-13.2-0.9-24.8c-2-11.6-8.6-38.7-11.2-38.7l0,0C-300.9,263.2-301.2,264.5-301.7,266.1"/>
		</defs>
		<clipPath id="SVGID_7_">
			<use xlink:href="#SVGID_6_"  style="overflow:visible;"/>
		</clipPath>
		<g class="st7">
			<polygon class="st4" points="-294.1,268.1 -304.2,266.9 -306.5,271.7 -296.3,275.5 -289,276.5 			"/>
		</g>
	</g>
	<g>
		<defs>
			<path id="SVGID_8_" d="M-301.7,266.1c-0.5,1.4-1.8,3.1-1.8,3.1s-1.2,5.3-3.8,9.8c-2.9,5-6.8,9-6.8,9s-0.4,8.4-2.5,16.6
				c-2.4,9-7.4,16.5-7.2,17.6c0.2,1,1.3,0.8,4.8,3.3c3.8,2.6,4.3,3.5,5.2,3.7c0.8,0.2,8.1-1.7,13.2-2.3c5.7-0.7,12.5,0,12.5,0
				s1-13.2-0.9-24.8c-2-11.6-8.6-38.7-11.2-38.7l0,0C-300.9,263.2-301.2,264.5-301.7,266.1"/>
		</defs>
		<clipPath id="SVGID_9_">
			<use xlink:href="#SVGID_8_"  style="overflow:visible;"/>
		</clipPath>
		<g class="st8">
			<path class="st2" d="M-294,272.5c0,0-8.5,1.1-13.1-2.6c-4.6-3.8-15.9,14.6-15.9,14.6l3.8,9.9h19l13.1-6.8L-294,272.5z"/>
		</g>
	</g>
	<g>
		<defs>
			<path id="SVGID_10_" d="M-301.7,266.1c-0.5,1.4-1.8,3.1-1.8,3.1s-1.2,5.3-3.8,9.8c-2.9,5-6.8,9-6.8,9s-0.4,8.4-2.5,16.6
				c-2.4,9-7.4,16.5-7.2,17.6c0.2,1,1.3,0.8,4.8,3.3c3.8,2.6,4.3,3.5,5.2,3.7c0.8,0.2,8.1-1.7,13.2-2.3c5.7-0.7,12.5,0,12.5,0
				s1-13.2-0.9-24.8c-2-11.6-8.6-38.7-11.2-38.7l0,0C-300.9,263.2-301.2,264.5-301.7,266.1"/>
		</defs>
		<clipPath id="SVGID_11_">
			<use xlink:href="#SVGID_10_"  style="overflow:visible;"/>
		</clipPath>
		<g class="st9">
			<path class="st4" d="M-289.7,282.5c0,0-6.2,4.2-25.8,5.3s-9.3,20.9-9.3,20.9l23.9-3l20.1-13.6L-289.7,282.5z"/>
		</g>
	</g>
	<g>
		<defs>
			<path id="SVGID_12_" d="M-301.7,266.1c-0.5,1.4-1.8,3.1-1.8,3.1s-1.2,5.3-3.8,9.8c-2.9,5-6.8,9-6.8,9s-0.4,8.4-2.5,16.6
				c-2.4,9-7.4,16.5-7.2,17.6c0.2,1,1.3,0.8,4.8,3.3c3.8,2.6,4.3,3.5,5.2,3.7c0.8,0.2,8.1-1.7,13.2-2.3c5.7-0.7,12.5,0,12.5,0
				s1-13.2-0.9-24.8c-2-11.6-8.6-38.7-11.2-38.7l0,0C-300.9,263.2-301.2,264.5-301.7,266.1"/>
		</defs>
		<clipPath id="SVGID_13_">
			<use xlink:href="#SVGID_12_"  style="overflow:visible;"/>
		</clipPath>
		<g class="st10">
			<path class="st4" d="M-284.9,312.9c0,0-18.7,11.5-29.6,16.3c-11,4.8-13.8-11.3-13.8-11.3l42.5-16.1L-284.9,312.9z"/>
		</g>
	</g>
	<g>
		<defs>
			<path id="SVGID_14_" d="M-301.7,266.1c-0.5,1.4-1.8,3.1-1.8,3.1s-1.2,5.3-3.8,9.8c-2.9,5-6.8,9-6.8,9s-0.4,8.4-2.5,16.6
				c-2.4,9-7.4,16.5-7.2,17.6c0.2,1,1.3,0.8,4.8,3.3c3.8,2.6,4.3,3.5,5.2,3.7c0.8,0.2,8.1-1.7,13.2-2.3c5.7-0.7,12.5,0,12.5,0
				s1-13.2-0.9-24.8c-2-11.6-8.6-38.7-11.2-38.7l0,0C-300.9,263.2-301.2,264.5-301.7,266.1"/>
		</defs>
		<clipPath id="SVGID_15_">
			<use xlink:href="#SVGID_14_"  style="overflow:visible;"/>
		</clipPath>
		<g class="st11">
			<path class="st2" d="M-289.1,291.4c0,0-8.3,7.8-28.8,12.1c-20.4,4.3-11.7,20.8-11.7,20.8s13.1-4.1,30-10.5
				c9.4-3.6,16.5-8.3,16.5-8.3l-2.3-9.3L-289.1,291.4z"/>
		</g>
	</g>
</g>
<g>
	<path class="st0" d="M-297.7,269.2c0,0,6.6,14.8,8,35.2c1.2,17.2,0.5,21.9,0.5,21.9s0.5,0.6,1.1,0.5s1.3-0.4,1.3-0.7
		c0.1-0.3,0.4-9.4-1.1-24c-1.8-17.9-8.3-34.3-8.3-34.3L-297.7,269.2z"/>
</g>
<g>
	<path class="st2" d="M-300.1,263c1.8,0,4.6,6.5,4.7,6.8c0.1,0.4-2.2,0.7-4.2,0.5c-2-0.2-4.3-0.8-4.1-1.2c0.1-0.3,1.1-1.7,1.9-3.2
		C-301.1,264.4-300.5,263-300.1,263"/>
</g>
<g>
	<path class="st12" d="M-323,325.5c-2.8,0-3.8-0.7-4-0.8c-0.4-0.3-0.4-0.8-0.2-1c0.3-0.4,0.8-0.4,1-0.2c0.1,0.1,5.9,3.2,30-7.6
		c13.9-6.2,12.8-10.1,12.8-10.1c-0.2-0.4,0-0.8,0.4-1c0.4-0.2,0.8,0,1,0.5c0.2,0.6,1.7,5.3-13.6,12.1
		C-310.7,324-318.8,325.5-323,325.5z"/>
</g>
</svg>
