<?xml version="1.0" encoding="utf-8"?>
<!-- Generator: Adobe Illustrator 19.0.0, SVG Export Plug-In . SVG Version: 6.00 Build 0)  -->
<svg version="1.1" id="Layer_1" xmlns="http://www.w3.org/2000/svg" xmlns:xlink="http://www.w3.org/1999/xlink" x="0px" y="0px"
	 viewBox="-255 347 100 100" style="enable-background:new -255 347 100 100;" xml:space="preserve">
<style type="text/css">
	.st0{display:none;}
	.st1{display:inline;}
	.st2{fill:#010002;}
	.st3{fill:#EF3A3A;}
</style>
<g id="Layer_2" class="st0">
	<g class="st1">
		<path d="M-583.8,608.6h67.1c6.4,0,11.6,4.7,11.6,11.6v67.1c0,6.9-5.2,11.6-11.6,11.6h-67.1c-6.4,0-11.6-4.7-11.6-11.6v-67.1
			C-595.4,613.3-590.2,608.6-583.8,608.6L-583.8,608.6z M-529.7,618.6c-2.2,0-4.1,1.8-4.1,4.1v9.7c0,2.2,1.8,4.1,4.1,4.1h10.2
			c2.2,0,4.1-1.8,4.1-4.1v-9.7c0-2.2-1.8-4.1-4.1-4.1H-529.7L-529.7,618.6z M-515.4,646.7h-7.9c0.8,2.5,1.2,5.1,1.2,7.7
			c0,15-12.6,27.2-28,27.2c-15.5,0-28-12.2-28-27.2c0-2.7,0.4-5.3,1.2-7.7h-8.3v38.1c0,2,1.6,3.6,3.6,3.6h62.8c2,0,3.6-1.6,3.6-3.6
			L-515.4,646.7L-515.4,646.7z M-550.2,635.9c-10,0-18.1,7.9-18.1,17.6s8.1,17.6,18.1,17.6s18.1-7.9,18.1-17.6
			S-540.2,635.9-550.2,635.9z"/>
	</g>
</g>
<g id="Layer_3" class="st0">
	<g class="st1">
		<g>
			<path class="st2" d="M-506.5,626.4c-3.3,1.5-6.8,2.4-10.5,2.9c3.8-2.3,6.7-5.8,8-10.1c-3.5,2.1-7.4,3.6-11.6,4.4
				c-3.3-3.6-8.1-5.8-13.3-5.8c-10.1,0-18.3,8.2-18.3,18.3c0,1.4,0.2,2.8,0.5,4.2c-15.2-0.8-28.6-8-37.6-19.1
				c-1.6,2.7-2.5,5.8-2.5,9.2c0,6.3,3.2,11.9,8.1,15.2c-3-0.1-5.8-0.9-8.3-2.3v0.2c0,8.8,6.3,16.2,14.6,17.9
				c-1.5,0.4-3.1,0.6-4.8,0.6c-1.2,0-2.3-0.1-3.4-0.3c2.3,7.3,9.1,12.5,17.1,12.7c-6.2,4.9-14.1,7.8-22.7,7.8
				c-1.5,0-2.9-0.1-4.4-0.2c8.1,5.2,17.7,8.2,28,8.2c33.6,0,52-27.8,52-52l-0.1-2.4C-512,633.3-508.9,630.1-506.5,626.4z"/>
		</g>
	</g>
</g>
<g id="Layer_4" class="st0">
	<g class="st1">
		<path id="YouTube" d="M-525.1,674.8h-4.9v-2.9c0-1.3,1-2.3,2.3-2.3h0.3c1.3,0,2.3,1,2.3,2.3L-525.1,674.8z M-543.6,668.7
			c-1.3,0-2.3,0.8-2.3,1.9v14c0,1,1,1.9,2.3,1.9c1.3,0,2.3-0.8,2.3-1.9v-14C-541.3,669.5-542.3,668.7-543.6,668.7z M-513.5,660.9
			v26.5c0,6.4-5.5,11.6-12.3,11.6h-50.5c-6.8,0-12.3-5.2-12.3-11.6v-26.5c0-6.4,5.5-11.6,12.3-11.6h50.5
			C-519,649.3-513.5,654.5-513.5,660.9z M-572.9,690.3v-28h6.3v-4.1h-16.7v4.1h5.2v28H-572.9z M-554.1,666.5h-5.2v14.9
			c0,2.2,0.1,3.2,0,3.6c-0.4,1.2-2.3,2.4-3.1,0.1c-0.1-0.4,0-1.6,0-3.6v-15h-5.2v14.8c0,2.3-0.1,4,0,4.7c0.1,1.4,0.1,2.9,1.3,3.8
			c2.3,1.7,6.8-0.3,8-2.7v3.1h4.2L-554.1,666.5L-554.1,666.5z M-537.4,683.6v-12.4c0-4.7-3.5-7.6-8.4-3.7v-9.2h-5.2v31.9l4.3-0.1
			l0.4-2C-540.9,693.1-537.4,689.6-537.4,683.6z M-521.1,682h-3.9c0,0.2,0,0.3,0,0.5v2.2c0,1.2-1,2.1-2.1,2.1h-0.8
			c-1.2,0-2.1-1-2.1-2.1v-0.2V682v-3h9v-3.4c0-2.5-0.1-4.9-0.3-6.3c-0.6-4.5-6.9-5.2-10.1-2.9c-1,0.7-1.7,1.7-2.2,2.9
			c-0.4,1.3-0.7,3-0.7,5.3v7.4C-534.3,694.3-519.3,692.6-521.1,682z M-541.2,641.7c0.3,0.7,0.7,1.2,1.3,1.6c0.6,0.4,1.3,0.6,2.1,0.6
			c0.8,0,1.4-0.2,2-0.6c0.6-0.4,1.1-1,1.5-1.9l-0.1,2h5.8v-24.7h-4.6V638c0,1-0.9,1.9-1.9,1.9s-1.9-0.9-1.9-1.9v-19.2h-4.8v16.7
			c0,2.1,0,3.5,0.1,4.3C-541.6,640.4-541.4,641.1-541.2,641.7z M-558.8,627.8c0-2.4,0.2-4.2,0.6-5.6c0.4-1.3,1.1-2.4,2.1-3.2
			c1-0.8,2.3-1.2,3.9-1.2c1.3,0,2.5,0.3,3.5,0.8s1.7,1.2,2.2,2c0.5,0.8,0.9,1.7,1.1,2.6s0.3,2.2,0.3,4v6.3c0,2.3-0.1,4-0.3,5.1
			c-0.2,1.1-0.6,2.1-1.1,3c-0.6,0.9-1.3,1.6-2.2,2.1c-0.9,0.4-2,0.7-3.2,0.7c-1.3,0-2.4-0.2-3.4-0.6c-0.9-0.4-1.6-1-2.1-1.7
			c-0.5-0.8-0.9-1.7-1.1-2.8s-0.3-2.7-0.3-4.9V627.8L-558.8,627.8z M-554.2,637.6c0,1.4,1,2.5,2.3,2.5s2.3-1.1,2.3-2.5v-13.2
			c0-1.4-1-2.5-2.3-2.5s-2.3,1.1-2.3,2.5V637.6z M-570.3,644.2h5.5v-19l6.5-16.2h-6l-3.4,12.1l-3.5-12.1h-5.9l6.9,16.3L-570.3,644.2
			z"/>
	</g>
</g>
<g>
	<path class="st3" d="M-214.7,373.1c0.9-1.4,2.3-2.7,4.2-3.8c2-1.1,4.8-1.7,8.4-1.7h10.4V379h-7.6c-0.8,0-1.7,0-2.3,0.5
		c-0.6,0.5-0.7,1.4-0.7,1.9v7h10.6c-0.1,1.4-0.2,2.7-0.4,4l-0.5,3.4c-0.2,1.1-0.3,2.2-0.5,3.2h-9.4v31.3h-14V399h-6.8v-10.6h6.8
		v-8.7C-216.4,378.4-215.8,375-214.7,373.1z"/>
</g>
</svg>
