<?xml version="1.0" encoding="utf-8"?>
<!-- Generator: Adobe Illustrator 19.0.0, SVG Export Plug-In . SVG Version: 6.00 Build 0)  -->
<svg version="1.1" id="Layer_1" xmlns="http://www.w3.org/2000/svg" xmlns:xlink="http://www.w3.org/1999/xlink" x="0px" y="0px"
	 viewBox="-79 69 100 100" style="enable-background:new -79 69 100 100;" xml:space="preserve">
<style type="text/css">
	.st0{display:none;}
	.st1{display:inline;}
	.st2{fill:#010002;}
	.st3{fill:#FFFFFF;}
</style>
<g id="Layer_1_1_" class="st0">
	<g class="st1">
		<path id="Facebook" d="M-387.1,347.8c0,2.3,0,12.7,0,12.7h-9.3V376h9.3v46.1h19.1V376h12.8c0,0,1.2-7.4,1.8-15.6
			c-1.7,0-14.5,0-14.5,0s0-9,0-10.6s2.1-3.7,4.1-3.7c2.1,0,6.4,0,10.4,0c0-2.1,0-9.4,0-16.1c-5.4,0-11.5,0-14.1,0
			C-387.6,330-387.1,345.5-387.1,347.8z"/>
	</g>
</g>
<g id="Layer_3" class="st0">
	<g class="st1">
		<g>
			<path class="st2" d="M-330.5,348.4c-3.3,1.5-6.8,2.4-10.5,2.9c3.8-2.3,6.7-5.8,8-10.1c-3.5,2.1-7.4,3.6-11.6,4.4
				c-3.3-3.6-8.1-5.8-13.3-5.8c-10.1,0-18.3,8.2-18.3,18.3c0,1.4,0.2,2.8,0.5,4.2c-15.2-0.8-28.6-8-37.6-19.1
				c-1.6,2.7-2.5,5.8-2.5,9.2c0,6.3,3.2,11.9,8.1,15.2c-3-0.1-5.8-0.9-8.3-2.3v0.2c0,8.8,6.3,16.2,14.6,17.9
				c-1.5,0.4-3.1,0.6-4.8,0.6c-1.2,0-2.3-0.1-3.4-0.3c2.3,7.3,9.1,12.5,17.1,12.7c-6.2,4.9-14.1,7.8-22.7,7.8
				c-1.5,0-2.9-0.1-4.4-0.2c8.1,5.2,17.7,8.2,28,8.2c33.6,0,52-27.8,52-52l-0.1-2.4C-336,355.3-332.9,352.1-330.5,348.4z"/>
		</g>
	</g>
</g>
<g id="Layer_4" class="st0">
	<g class="st1">
		<path id="YouTube" d="M-349.1,396.8h-4.9v-2.9c0-1.3,1-2.3,2.3-2.3h0.3c1.3,0,2.3,1,2.3,2.3L-349.1,396.8z M-367.6,390.7
			c-1.3,0-2.3,0.8-2.3,1.9v14c0,1,1,1.9,2.3,1.9s2.3-0.8,2.3-1.9v-14C-365.3,391.5-366.3,390.7-367.6,390.7z M-337.5,382.9v26.5
			c0,6.4-5.5,11.6-12.3,11.6h-50.5c-6.8,0-12.3-5.2-12.3-11.6v-26.5c0-6.4,5.5-11.6,12.3-11.6h50.5
			C-343,371.3-337.5,376.5-337.5,382.9z M-396.9,412.3v-28h6.3v-4.1h-16.7v4.1h5.2v28H-396.9z M-378.1,388.5h-5.2v14.9
			c0,2.2,0.1,3.2,0,3.6c-0.4,1.2-2.3,2.4-3.1,0.1c-0.1-0.4,0-1.6,0-3.6v-15h-5.2v14.8c0,2.3-0.1,4,0,4.7c0.1,1.4,0.1,2.9,1.3,3.8
			c2.3,1.7,6.8-0.3,8-2.7v3.1h4.2L-378.1,388.5L-378.1,388.5z M-361.4,405.6v-12.4c0-4.7-3.5-7.6-8.4-3.7v-9.2h-5.2v31.9l4.3-0.1
			l0.4-2C-364.9,415.1-361.4,411.6-361.4,405.6z M-345.1,404h-3.9c0,0.2,0,0.3,0,0.5v2.2c0,1.2-1,2.1-2.1,2.1h-0.8
			c-1.2,0-2.1-1-2.1-2.1v-0.2V404v-3h9v-3.4c0-2.5-0.1-4.9-0.3-6.3c-0.6-4.5-6.9-5.2-10.1-2.9c-1,0.7-1.7,1.7-2.2,2.9
			c-0.4,1.3-0.7,3-0.7,5.3v7.4C-358.3,416.3-343.3,414.6-345.1,404z M-365.2,363.7c0.3,0.7,0.7,1.2,1.3,1.6c0.6,0.4,1.3,0.6,2.1,0.6
			c0.8,0,1.4-0.2,2-0.6s1.1-1,1.5-1.9l-0.1,2h5.8v-24.7h-4.6V360c0,1-0.9,1.9-1.9,1.9s-1.9-0.9-1.9-1.9v-19.2h-4.8v16.7
			c0,2.1,0,3.5,0.1,4.3C-365.6,362.4-365.4,363.1-365.2,363.7z M-382.8,349.8c0-2.4,0.2-4.2,0.6-5.6c0.4-1.3,1.1-2.4,2.1-3.2
			c1-0.8,2.3-1.2,3.9-1.2c1.3,0,2.5,0.3,3.5,0.8s1.7,1.2,2.2,2s0.9,1.7,1.1,2.6s0.3,2.2,0.3,4v6.3c0,2.3-0.1,4-0.3,5.1
			c-0.2,1.1-0.6,2.1-1.1,3c-0.6,0.9-1.3,1.6-2.2,2.1c-0.9,0.4-2,0.7-3.2,0.7c-1.3,0-2.4-0.2-3.4-0.6c-0.9-0.4-1.6-1-2.1-1.7
			c-0.5-0.8-0.9-1.7-1.1-2.8c-0.2-1.1-0.3-2.7-0.3-4.9V349.8L-382.8,349.8z M-378.2,359.6c0,1.4,1,2.5,2.3,2.5s2.3-1.1,2.3-2.5
			v-13.2c0-1.4-1-2.5-2.3-2.5s-2.3,1.1-2.3,2.5V359.6z M-394.3,366.2h5.5v-19l6.5-16.2h-6l-3.4,12.1l-3.5-12.1h-5.9l6.9,16.3
			L-394.3,366.2z"/>
	</g>
</g>
<g>
	<path class="st3" d="M-29.5,87.9c10.6,0,11.9,0,16.1,0.2c3.9,0.2,6,0.8,7.4,1.4c1.9,0.7,3.2,1.6,4.6,3c1.4,1.4,2.3,2.7,3,4.6
		c0.5,1.4,1.2,3.5,1.4,7.4c0.2,4.2,0.2,5.5,0.2,16.1s0,11.9-0.2,16.1c-0.2,3.9-0.8,6-1.4,7.4c-0.7,1.9-1.6,3.2-3,4.6
		c-1.4,1.4-2.7,2.3-4.6,3c-1.4,0.5-3.5,1.2-7.4,1.4c-4.2,0.2-5.5,0.2-16.1,0.2s-11.9,0-16.1-0.2c-3.9-0.2-6-0.8-7.4-1.4
		c-1.9-0.7-3.2-1.6-4.6-3c-1.4-1.4-2.3-2.7-3-4.6c-0.5-1.4-1.2-3.5-1.4-7.4c-0.2-4.2-0.2-5.5-0.2-16.1s0-11.9,0.2-16.1
		c0.2-3.9,0.8-6,1.4-7.4c0.7-1.9,1.6-3.2,3-4.6c1.4-1.4,2.7-2.3,4.6-3c1.4-0.5,3.5-1.2,7.4-1.4C-41.4,87.9-40.1,87.9-29.5,87.9
		 M-29.5,80.7c-10.8,0-12.2,0-16.4,0.2c-4.2,0.2-7.1,0.9-9.7,1.8c-2.6,1-4.8,2.4-7,4.6c-2.2,2.2-3.6,4.4-4.6,7
		c-1,2.5-1.7,5.4-1.8,9.7c-0.2,4.2-0.2,5.6-0.2,16.4c0,10.8,0,12.2,0.2,16.4c0.2,4.2,0.9,7.1,1.8,9.7c1,2.6,2.4,4.8,4.6,7
		c2.2,2.2,4.4,3.6,7,4.6c2.5,1,5.4,1.7,9.7,1.8c4.2,0.2,5.6,0.2,16.4,0.2s12.2,0,16.4-0.2c4.2-0.2,7.1-0.9,9.7-1.8
		c2.6-1,4.8-2.4,7-4.6c2.2-2.2,3.6-4.4,4.6-7c1-2.5,1.7-5.4,1.8-9.7c0.2-4.2,0.2-5.6,0.2-16.4s0-12.2-0.2-16.4
		c-0.2-4.2-0.9-7.1-1.8-9.7c-1-2.6-2.4-4.8-4.6-7c-2.2-2.2-4.4-3.6-7-4.6c-2.5-1-5.4-1.7-9.7-1.8C-17.3,80.7-18.7,80.7-29.5,80.7
		L-29.5,80.7z"/>
	<path class="st3" d="M-29.5,100.1c-11.3,0-20.4,9.2-20.4,20.4s9.2,20.4,20.4,20.4s20.4-9.2,20.4-20.4S-18.2,100.1-29.5,100.1z
		 M-29.5,133.8c-7.3,0-13.3-5.9-13.3-13.3s5.9-13.3,13.3-13.3s13.3,5.9,13.3,13.3S-22.2,133.8-29.5,133.8z"/>
	<circle class="st3" cx="-8.3" cy="99.3" r="4.8"/>
</g>
</svg>
