<?xml version="1.0" encoding="utf-8"?>
<!-- Generator: Adobe Illustrator 19.0.0, SVG Export Plug-In . SVG Version: 6.00 Build 0)  -->
<svg version="1.1" id="Layer_1" xmlns="http://www.w3.org/2000/svg" xmlns:xlink="http://www.w3.org/1999/xlink" x="0px" y="0px"
	 viewBox="-230 372 50 50" style="enable-background:new -230 372 50 50;" xml:space="preserve">
<style type="text/css">
	.st0{fill:#EF3A3A;}
</style>
<g>
	<path class="st0" d="M-196.1,375.9h-18.4c-1.8,0-3.2,1.4-3.2,3.2v37.4c0,1.8,1.4,3.2,3.2,3.2h18.4c1.8,0,3.2-1.4,3.2-3.2V379
		C-192.9,377.3-194.3,375.9-196.1,375.9z M-209.8,377.8h9.1c0.2,0,0.4,0.3,0.4,0.8s-0.2,0.8-0.4,0.8h-9.1c-0.2,0-0.4-0.3-0.4-0.8
		S-210.1,377.8-209.8,377.8z M-205.3,416.4c-1.1,0-2-0.9-2-2s0.9-2,2-2c1.1,0,2,0.9,2,2S-204.2,416.4-205.3,416.4z M-195.3,409.5
		h-20v-28.2h20C-195.3,381.2-195.3,409.5-195.3,409.5z"/>
</g>
</svg>
