<?xml version="1.0" encoding="utf-8"?>
<!-- Generator: Adobe Illustrator 16.0.0, SVG Export Plug-In . SVG Version: 6.00 Build 0)  -->
<!DOCTYPE svg PUBLIC "-//W3C//DTD SVG 1.1//EN" "http://www.w3.org/Graphics/SVG/1.1/DTD/svg11.dtd">
<svg version="1.1" id="Layer_1" xmlns="http://www.w3.org/2000/svg" xmlns:xlink="http://www.w3.org/1999/xlink" x="0px" y="0px"
	 width="100px" height="100px" viewBox="0 0 100 100" enable-background="new 0 0 100 100" xml:space="preserve">
<g id="Layer_1_1_" display="none">
	<g display="inline">
		<path id="Facebook" d="M36.856,21.844c0,2.321,0,12.681,0,12.681h-9.29V50.03h9.29v46.077h19.083V50.031h12.807
			c0,0,1.199-7.436,1.781-15.564c-1.668,0-14.517,0-14.517,0s0-9.021,0-10.602c0-1.584,2.081-3.716,4.138-3.716
			c2.054,0,6.387,0,10.397,0c0-2.111,0-9.405,0-16.142c-5.356,0-11.45,0-14.138,0C36.385,4.006,36.856,19.527,36.856,21.844z"/>
	</g>
</g>
<g id="Layer_2" display="none">
	<g display="inline">
		<path d="M16.173,4.595h67.05c6.366,0,11.576,4.714,11.576,11.577v67.051c0,6.863-5.21,11.577-11.576,11.577h-67.05
			c-6.37,0-11.579-4.714-11.579-11.577V16.172C4.594,9.309,9.803,4.595,16.173,4.595L16.173,4.595z M70.307,14.616
			c-2.233,0-4.062,1.827-4.062,4.062v9.72c0,2.233,1.825,4.061,4.062,4.061h10.194c2.233,0,4.062-1.828,4.062-4.061v-9.72
			c0-2.235-1.826-4.062-4.062-4.062H70.307L70.307,14.616z M84.604,42.742h-7.938c0.752,2.453,1.158,5.051,1.158,7.739
			c0,15.005-12.557,27.167-28.04,27.167c-15.485,0-28.038-12.162-28.038-27.167c0-2.69,0.406-5.287,1.158-7.739H14.62v38.105
			c0,1.971,1.613,3.586,3.585,3.586H81.02c1.975,0,3.586-1.613,3.586-3.586V42.742H84.604z M49.782,31.948
			c-10.005,0-18.117,7.858-18.117,17.553c0,9.696,8.111,17.554,18.117,17.554c10.006,0,18.116-7.855,18.116-17.554
			C67.898,39.806,59.788,31.948,49.782,31.948z"/>
	</g>
</g>
<g id="Layer_3">
	<g>
		<g>
			<g>
				<g>
					<path fill="#FFFFFF" d="M87.269,31.635c-0.561,0.579-1.146,1.14-1.777,1.661l-0.142,0.102
						c-0.045,0.034-0.016,0.115-0.026,0.171l0.008,1.131c-0.028,7.309-1.658,14.601-4.582,21.392
						c-2.934,6.787-7.204,13.118-12.758,18.354c-5.535,5.237-12.401,9.316-20.006,11.56c-3.796,1.13-7.758,1.812-11.777,2.051
						c-4.008,0.233-8.114,0.085-12.215-0.688c-3.201-0.614-6.397-1.631-9.452-2.999c-3.06-1.364-5.976-3.06-8.779-4.902
						l-4.704-3.094l5.598,0.047c4.584,0.039,9.292-0.688,13.76-2.08c1.117-0.352,2.219-0.746,3.297-1.188
						c0.265-0.106,0.552-0.229,0.792-0.335l0.421-0.195c0.28-0.132,0.554-0.273,0.826-0.42c0.542-0.293,1.065-0.619,1.563-0.976
						l0.368-0.273c0.02-0.02,0.085-0.054,0.067-0.062l-0.116-0.004l-0.23-0.009c-0.308-0.021-0.612-0.048-0.916-0.099
						c-0.41-0.066-0.816-0.161-1.209-0.289c-0.196-0.065-0.39-0.138-0.58-0.217l-0.348-0.158l-0.559-0.291
						c-1.557-0.848-2.946-1.963-4.111-3.237c-1.167-1.275-2.122-2.698-2.88-4.184c-0.198-0.39-0.352-0.702-0.559-1.165
						c-0.241-0.544-0.427-1.079-0.622-1.609c-0.189-0.529-0.359-1.051-0.522-1.567c-0.135-0.505-0.435-1.115-0.224-1.354
						c1.475,0.041,2.838,0.069,4.12,0.058c-0.652,0.007-1.316,0.003-2.008-0.013c-0.707-0.018-1.414-0.036-2.125-0.054
						c-0.216,0.243,0.102,0.88,0.234,1.391c0.163,0.528,0.339,1.062,0.53,1.604c0.202,0.541,0.386,1.092,0.639,1.645
						c0.184,0.415,0.357,0.771,0.554,1.153c0.768,1.501,1.728,2.935,2.901,4.208c1.171,1.273,2.56,2.382,4.108,3.223l0.292,0.155
						c0.107,0.057,0.194,0.102,0.235,0.119l0.325,0.149c0.176,0.075,0.355,0.142,0.536,0.204c0.362,0.119,0.733,0.208,1.104,0.271
						c0.28,0.049,0.56,0.075,0.84,0.095l0.21,0.009l0.104,0.004c0.014,0.008-0.046,0.039-0.065,0.058l-0.349,0.255
						c-0.47,0.329-0.958,0.627-1.459,0.894c-0.251,0.132-0.503,0.26-0.759,0.379l-0.384,0.174l-0.777,0.326
						c-1.072,0.435-2.167,0.823-3.277,1.169c-4.441,1.371-9.129,2.092-13.746,2.052l-6.214-0.053l5.22,3.442
						c3.906,2.575,8.124,4.898,12.709,6.415c4.573,1.541,9.424,2.202,14.173,2.207c9.486,0.068,19.089-2.384,27.173-7.331
						c8.114-4.902,14.609-12.075,18.984-20.142c4.379-8.073,6.784-17.075,6.797-25.954c0.164,5.24-0.427,11.653-2.86,18.675
						c-2.974,8.403-7.916,16.148-14.499,22.253c-6.561,6.117-14.817,10.451-23.553,12.36c-0.03-0.141-0.09-0.414-0.12-0.553
						c-3.381,0.793-6.823,1.226-10.25,1.35c-3.417,0.121-6.885-0.059-10.3-0.668c-3.414-0.605-6.75-1.661-9.869-3.059
						c-3.125-1.394-6.034-3.103-8.787-4.928l-7.35-4.873l8.746,0.114c4.535,0.06,9.162-0.623,13.54-1.944
						c1.095-0.333,2.174-0.708,3.23-1.129l0.758-0.312l0.212-0.092l0.423-0.204c0.282-0.145,0.562-0.309,0.836-0.494l0.205-0.145
						c0.012-0.011,0.044-0.027,0.041-0.033l-0.057-0.003l-0.115-0.005c-0.154-0.012-0.308-0.028-0.466-0.057
						c-0.204-0.036-0.413-0.088-0.618-0.158c-0.102-0.037-0.204-0.076-0.306-0.12l-0.234-0.111l-0.21-0.108l-0.3-0.161
						c-1.593-0.875-3.022-2.025-4.221-3.342c-1.204-1.316-2.18-2.794-2.958-4.336c-0.199-0.39-0.375-0.764-0.558-1.179
						c-0.289-0.63-0.484-1.255-0.708-1.867c-0.208-0.61-0.399-1.212-0.576-1.804c-0.161-0.587-0.433-1.24-0.379-1.647l2.891,0.098
						l1.362,0.019l1.12-0.014c0.975-0.027,2.019-0.081,2.793-0.244l0.085,2.631c-4.411-1.005-8.366-3.607-11.069-7.137
						c-1.357-1.76-2.415-3.747-3.111-5.852c-0.348-1.053-0.607-2.134-0.771-3.23c-0.149-0.772-0.277-3.027-0.181-4.456
						c0.563,0.314,1.153,0.645,1.71,0.933c0.278,0.141,0.56,0.298,0.832,0.41l0.315,0.138l0.234,0.094
						c0.625,0.247,1.268,0.456,1.922,0.626c1.31,0.339,2.666,0.526,4.033,0.577c-0.142,0.44-0.285,0.884-0.427,1.328
						c-3.715-2.487-6.541-6.316-7.806-10.683c0.505,1.697,0.163,0.706,0.02,0.362c-0.035-0.118-0.068-0.23-0.101-0.34
						c0.033,0.109,0.066,0.222,0.101,0.34c-0.062-0.155-0.082-0.183,0.032,0.2c0.118,0.379,0.353,1.183,1.023,2.589
						c-0.671-1.406-0.905-2.209-1.023-2.589c-0.114-0.382-0.094-0.354-0.032-0.2c1.311,4.287,4.144,8.01,7.721,10.418
						c0.167-0.52,0.334-1.04,0.497-1.543c-1.37-0.054-2.726-0.248-4.027-0.591c-0.65-0.173-1.286-0.383-1.901-0.63l-0.23-0.094
						l-0.34-0.151c-0.29-0.12-0.592-0.295-0.888-0.445c-0.597-0.314-1.228-0.671-1.83-1.008c-0.06,1.59,0.037,4,0.193,4.744
						c0.162,1.107,0.42,2.2,0.767,3.264c0.696,2.128,1.757,4.139,3.123,5.923c2.718,3.575,6.708,6.22,11.165,7.251
						c-0.034-1.045-0.067-2.09-0.101-3.125c-0.732,0.149-1.78,0.203-2.747,0.225l-1.188,0.011l-1.467-0.025
						c-1.042-0.038-2.083-0.077-3.121-0.115c0.053,0.512,0.292,1.172,0.473,1.807c0.185,0.631,0.387,1.272,0.606,1.925
						c0.236,0.655,0.44,1.326,0.75,2.002c0.184,0.421,0.362,0.8,0.563,1.195c0.787,1.563,1.775,3.064,2.999,4.403
						c1.219,1.339,2.674,2.51,4.296,3.4l0.305,0.164l0.2,0.104l0.188,0.088l0.188,0.072c0.125,0.043,0.256,0.073,0.381,0.096
						c0.1,0.018,0.195,0.027,0.292,0.034l0.072,0.003c0.033-0.002,0.048,0.002,0.011,0.022l-0.125,0.089
						c-0.167,0.114-0.339,0.217-0.513,0.308l-0.263,0.128l-0.132,0.059l-0.749,0.309c-1.048,0.418-2.119,0.792-3.206,1.123
						c-4.348,1.315-8.952,1.993-13.452,1.925l-9.737-0.146l8.186,5.436c2.627,1.744,5.391,3.396,8.361,4.768
						c2.963,1.376,6.13,2.462,9.388,3.143c3.257,0.684,6.583,0.979,9.868,0.975c3.28,0.001,6.587-0.275,9.864-0.864
						c-3.247,0.591-6.534,0.876-9.802,0.887c-3.273,0.016-6.597-0.266-9.862-0.935c-3.265-0.67-6.45-1.743-9.435-3.118
						c-2.993-1.369-5.78-3.025-8.432-4.777l-8.453-5.587l10.054,0.129c4.478,0.058,9.07-0.625,13.405-1.944
						c1.084-0.332,2.152-0.706,3.197-1.124l0.75-0.311l0.097-0.045l0.19-0.095c0.125-0.067,0.246-0.142,0.362-0.224l0.086-0.063
						c0.052-0.028-0.046-0.011-0.062-0.018c-0.071-0.005-0.139-0.012-0.212-0.023c-0.089-0.016-0.184-0.036-0.272-0.065l-0.132-0.05
						l-0.168-0.078l-0.2-0.104l-0.309-0.165c-1.638-0.899-3.105-2.082-4.333-3.433c-1.232-1.35-2.226-2.861-3.015-4.435
						c-0.203-0.399-0.378-0.772-0.567-1.206c-0.319-0.697-0.526-1.388-0.768-2.062c-0.224-0.672-0.43-1.331-0.619-1.979
						c-0.19-0.656-0.414-1.317-0.517-1.878l3.245,0.125l1.52,0.027l1.212-0.01c0.492-0.01,0.979-0.028,1.449-0.062
						c0.463-0.032,0.935-0.084,1.268-0.153l0.108,3.361c-4.515-1.051-8.528-3.745-11.244-7.348c-1.365-1.798-2.42-3.818-3.11-5.951
						c-0.344-1.066-0.599-2.16-0.758-3.266C7.1,41.81,7.022,39.314,7.061,37.662c0.637,0.356,1.304,0.737,1.928,1.066
						c0.311,0.16,0.627,0.34,0.93,0.466l0.333,0.148l0.231,0.094c0.616,0.247,1.25,0.456,1.896,0.627
						c1.294,0.341,2.635,0.532,3.988,0.586l-0.536,1.666c-3.974-2.68-6.9-6.858-8.046-11.541c-0.581-2.339-0.726-4.785-0.437-7.195
						c0.144-1.206,0.406-2.4,0.769-3.567c0.097-0.289,0.188-0.582,0.298-0.867l0.08-0.215c0.021-0.062,0.054-0.145,0.111-0.274
						l0.293-0.686c0.447-1,0.957-1.918,1.493-2.993l1.586,1.756l1.362,1.449c0.602,0.603,1.219,1.189,1.854,1.755
						c1.271,1.13,2.616,2.172,4.017,3.127c2.806,1.909,5.844,3.45,9.011,4.655c3.169,1.202,6.465,2.075,9.821,2.678
						c1.678,0.304,3.373,0.537,5.078,0.716l2.219,0.197l0.225,0.015c-0.005-0.046-0.001-0.082,0-0.122l0.028-0.243
						c0.146-1.046,0.363-2.083,0.647-3.099c0.569-2.031,1.406-3.979,2.472-5.8c2.13-3.626,5.212-6.806,9.133-8.79
						c1.62-0.839,4.302-1.796,7.111-1.917c2.782-0.141,5.43,0.398,7.149,0.968c1.962,0.68,3.806,1.657,5.455,2.872
						c0.824,0.609,1.602,1.276,2.323,1.995l0.169,0.175l0.034,0.041c0.024,0.024,0.044,0.065,0.072,0.081
						c0.089-0.011,0.104-0.008,0.248-0.033c1.708-0.329,3.399-0.783,5.05-1.37c0.078-0.023,0.248-0.091,0.427-0.163l0.511-0.203
						c0.324-0.124,0.716-0.296,1.086-0.454c0.754-0.327,1.467-0.628,2.207-1.008c1.449-0.727,2.943-1.527,4.058-2.061
						c0.063-0.024-0.043,0.171-0.073,0.269l-0.139,0.355l-0.278,0.708l-0.515,1.294c-0.328,0.82-0.655,1.613-1,2.407
						c-0.192,0.406-0.434,0.829-0.646,1.241c-0.239,0.415-0.514,0.829-0.769,1.242l-0.817,1.22
						c-0.182,0.186-0.229,0.244-0.335,0.375l-0.281,0.339c-1.532,1.78-3.379,3.266-5.416,4.362l-0.544-1.592
						c0.96-0.067,1.919-0.169,2.874-0.312c-1.135,0.232-0.126,0.204,0.315,0.21c0.221,0.007,0.3,0.034-0.104,0.146
						c-0.403,0.109-1.289,0.317-3.018,0.53c0.059,0.171,0.117,0.342,0.179,0.523c1.04-0.635,2.406-1.557,3.922-3.099
						c0.373-0.39,0.757-0.815,1.141-1.287c0.193-0.25,0.392-0.506,0.597-0.77c0.215-0.318,0.448-0.639,0.658-0.986
						c0.9-1.402,1.546-2.871,2.259-4.801c-0.138,0.146-0.412,0.437-0.55,0.582c-0.908,2.573-2.223,4.679-3.651,6.277
						c-1.437,1.625-3.034,2.848-4.574,3.751l0.066,0.194c3.496-0.371,6.216-1.174,8.068-1.843c1.854-0.683,2.864-1.214,3.041-1.236
						c0.083-0.024-0.053,0.048-0.424,0.225c-0.37,0.18-0.958,0.513-1.821,0.911c-1.722,0.79-4.521,2.002-8.764,2.794l-0.607-1.78
						c0.786-0.548,1.644-1.236,2.463-2.068c0.525-0.523,1.01-1.091,1.473-1.68c0.223-0.302,0.45-0.6,0.654-0.916l0.194-0.291
						l0.032-0.054c0.04-0.072,0.071-0.14,0.097-0.204l0.03-0.094l0.013-0.045l0.005-0.022l0.002-0.011
						c0-0.002-0.009,0.005,0.051-0.062c-0.103,0.093-0.151,0.126-0.187,0.144l-0.121,0.071l-0.057,0.031l-0.126,0.062l-0.503,0.226
						l-0.811,0.346c-1.089,0.452-2.21,0.853-3.357,1.206l-0.866,0.255l-0.615,0.16c-0.271,0.065-0.547,0.148-0.816,0.199
						l-0.805,0.126l-0.402,0.063c-0.065,0.006-0.138,0.031-0.198,0.022l-0.146-0.142l-1.198-1.137l-0.401-0.36l-0.292-0.243
						c-0.198-0.159-0.398-0.314-0.603-0.465c-0.408-0.301-0.832-0.583-1.269-0.845c-0.873-0.524-1.797-0.969-2.758-1.319
						c-1.917-0.708-3.994-1.042-6.058-0.972c-3.989,0.107-7.862,2.328-10.599,5.681c-1.376,1.667-2.488,3.596-3.262,5.649
						c-0.389,1.026-0.692,2.084-0.905,3.155l-0.142,0.806l-0.102,0.753l-0.072,0.91l-0.11,3.748l-4.231-0.304l-1.052-0.08
						c-0.337-0.013-0.749-0.097-0.875-0.101L43.49,36.51c-1.499-0.193-2.993-0.442-4.479-0.739c-2.97-0.603-5.904-1.429-8.739-2.508
						c-5.674-2.144-10.938-5.338-15.284-9.352c-0.992-0.915-1.934-1.878-2.841-2.869l-0.668-0.753l-0.548-0.647
						c-0.017-0.004-0.035-0.062-0.043-0.019c-0.016-0.018-0.015,0.011-0.031,0.04l-0.17,0.381c-0.111,0.242-0.204,0.492-0.304,0.739
						c-0.376,0.998-0.66,2.034-0.839,3.092c-0.357,2.115-0.312,4.314,0.153,6.423c0.914,4.229,3.577,8.053,7.203,10.415l3.007,1.959
						l-3.605-0.098c-1.475-0.04-2.957-0.217-4.409-0.564c-0.726-0.172-1.445-0.386-2.15-0.646l-0.409-0.156h0l0.004,0.005
						c0.021,0.111-0.085-0.456,0.148,0.952c0.184,0.969,0.45,1.92,0.8,2.837c0.696,1.837,1.717,3.54,2.988,5.011
						c2.538,2.953,6.086,4.943,9.813,5.525l0.12,3.704c-1.324,0.358-2.344,0.438-3.44,0.55c-0.38,0.034-0.279,0.022-0.303,0.022
						l-0.031-0.003c-0.02-0.002-0.049-0.008-0.068-0.006c-0.038-0.015-0.018,0.013-0.02,0.024c0.002,0.027,0.012,0.067,0.02,0.098
						c0.011,0.023-0.022-0.041,0.026,0.055l0.115,0.223l0.239,0.438c0.167,0.286,0.333,0.574,0.513,0.85
						c0.709,1.11,1.53,2.123,2.465,2.981c0.932,0.861,1.97,1.576,3.101,2.103c0.071,0.048,0.441,0.182,0.731,0.292l0.452,0.17
						l0.558,0.163c0.373,0.107,0.719,0.229,1.194,0.28l0.666,0.103c0.214,0.037,0.436,0.071,0.752,0.073
						c2.068,0.105,5.296,0.122,8.541,0.187c-1.116,0.921-1.515,1.283-1.875,1.611l-0.169,0.166l-0.084,0.083
						c-0.021,0.022-0.171,0.136-0.25,0.198l-1.137,0.886c-1.503,1.146-2.843,2.257-4.551,3.395
						c-0.896,0.545-1.815,1.095-2.804,1.608c-0.5,0.25-0.987,0.517-1.504,0.754l-0.951,0.422c-1.18,0.51-2.379,0.966-3.593,1.372
						c-4.859,1.614-9.932,2.524-15.143,2.593C7.171,79.18,7.685,77.427,8.2,75.67c4.229,2.669,8.604,4.883,13.224,6.137
						c4.606,1.284,9.474,1.62,14.355,1.388c4.857-0.238,9.643-1.129,14.161-2.712c4.52-1.576,8.764-3.841,12.565-6.656
						c2.44-1.816,5.142-4.269,7.629-7.188c2.498-2.908,4.778-6.268,6.605-9.667c1.835-3.396,3.223-6.819,4.184-9.771
						c0.968-2.952,1.522-5.428,1.853-6.954c0.441-2.199,0.596-3.362,0.714-3.875c0.108-0.515,0.159-0.385,0.198-0.036
						c-0.983,10.298-4.935,20.211-11.052,28.344C66.536,72.83,58.043,79.064,48.51,82.07c-6.797,2.149-14.115,2.78-21.166,2.023
						c-3.519-0.397-6.95-1.264-10.231-2.574c-3.283-1.311-6.417-3.05-9.458-4.998l-0.998,3.4c5.051-0.026,10.024-0.868,14.801-2.405
						c1.193-0.388,2.374-0.824,3.536-1.313l0.883-0.383c0.444-0.194,0.866-0.418,1.295-0.629c0.857-0.428,1.661-0.892,2.45-1.355
						c1.535-0.958,2.783-1.928,4.146-2.941l1.025-0.784c0.078-0.062,0.192-0.143,0.239-0.189l-0.008-0.061l-0.014-0.123
						c0.07-0.238,0.177-0.511,0.796-1.194c-2.935-0.112-5.708-0.144-7.441-0.412c1.721,0.27,4.459,0.305,7.406,0.421
						c-0.616,0.677-0.722,0.945-0.798,1.187l0.015,0.121l0.008,0.061c0.009,0.017-0.145,0.117-0.209,0.172l-1.02,0.776
						c-1.352,1.006-2.604,1.961-4.109,2.91c-0.781,0.458-1.578,0.914-2.421,1.339c-0.426,0.208-0.842,0.428-1.279,0.624
						l-0.913,0.396c-1.159,0.486-2.337,0.921-3.529,1.309c-4.772,1.535-9.765,2.382-14.86,2.406
						c0.319-1.087,0.638-2.174,0.959-3.271c3.006,1.93,6.116,3.66,9.386,4.971c3.267,1.314,6.695,2.183,10.219,2.588
						c7.06,0.764,14.43,0.125,21.289-2.068c9.521-2.969,17.981-9.129,24.076-17.164c6.111-8.019,10.08-17.776,11.153-27.916
						c0.043,0.75,0.103,1.483,0.347,0.249c0,0,0.16-1.58,0.198-3.563l0.007-0.402l0.004-0.209c0.002-0.034-0.003-0.072,0.005-0.104
						l0.083-0.064c0.22-0.167,0.443-0.337,0.667-0.508c0.413-0.324,0.817-0.669,1.2-1.021c0.767-0.702,1.45-1.422,1.979-2.013
						c2.141-2.352,3.385-4.168,4.202-5.292c0.331-0.471,0.614-0.874,0.873-1.242c0.186-0.265,0.274-0.385,0.283-0.379
						c0.008,0.006-0.063,0.137-0.201,0.375c-0.187,0.316-0.384,0.651-0.596,1.008c-0.514,0.854-1.237,2.05-2.128,3.384
						C89.744,28.566,88.671,30.073,87.269,31.635z"/>
				</g>
			</g>
		</g>
	</g>
</g>
<g id="Layer_4" display="none">
	<g display="inline">
		<path id="YouTube" d="M74.939,70.832H70l0.023-2.869c0-1.275,1.047-2.318,2.326-2.318h0.312c1.279,0,2.332,1.043,2.332,2.318
			L74.939,70.832z M56.413,64.684c-1.253,0-2.278,0.842-2.278,1.873V80.51c0,1.029,1.025,1.869,2.278,1.869
			c1.258,0,2.284-0.84,2.284-1.869V66.557C58.697,65.525,57.671,64.684,56.413,64.684z M86.5,56.879v26.544
			C86.5,89.79,80.979,95,74.23,95H23.771C17.02,95,11.5,89.79,11.5,83.423V56.879c0-6.367,5.52-11.578,12.271-11.578H74.23
			C80.979,45.301,86.5,50.512,86.5,56.879z M27.137,86.305l-0.004-27.961l6.255,0.002v-4.143l-16.674-0.025v4.073l5.205,0.015
			v28.039H27.137z M45.887,62.509h-5.215v14.931c0,2.16,0.131,3.24-0.008,3.621c-0.424,1.158-2.33,2.391-3.073,0.125
			c-0.126-0.396-0.015-1.59-0.017-3.643l-0.021-15.034h-5.186l0.016,14.798c0.004,2.271-0.051,3.959,0.018,4.729
			c0.127,1.356,0.082,2.938,1.341,3.843c2.346,1.689,6.843-0.252,7.968-2.668l-0.01,3.083l4.188,0.005L45.887,62.509L45.887,62.509z
			 M62.57,79.607L62.559,67.18c-0.004-4.736-3.547-7.572-8.354-3.74l0.021-9.236l-5.208,0.008L48.99,86.1l4.283-0.062l0.391-1.986
			C59.137,89.072,62.578,85.631,62.57,79.607z M78.891,77.96l-3.91,0.021c-0.002,0.155-0.008,0.334-0.01,0.529v2.182
			c0,1.168-0.965,2.119-2.137,2.119h-0.766c-1.174,0-2.139-0.951-2.139-2.119V80.45v-2.4v-3.097h8.951v-3.37
			c0-2.463-0.062-4.925-0.267-6.333c-0.644-4.454-6.896-5.161-10.054-2.881c-0.988,0.712-1.748,1.665-2.188,2.945
			c-0.443,1.28-0.665,3.03-0.665,5.254v7.41C65.714,90.296,80.676,88.555,78.891,77.96z M58.833,37.732
			c0.269,0.654,0.687,1.184,1.254,1.584c0.56,0.394,1.276,0.592,2.134,0.592c0.752,0,1.418-0.203,1.998-0.622
			c0.578-0.417,1.065-1.04,1.463-1.871l-0.099,2.046h5.813V14.74H66.82v19.24c0,1.042-0.858,1.895-1.907,1.895
			c-1.043,0-1.904-0.853-1.904-1.895V14.74h-4.776v16.674c0,2.124,0.039,3.54,0.104,4.258C58.4,36.385,58.564,37.069,58.833,37.732z
			 M41.217,23.77c0-2.373,0.198-4.226,0.591-5.562c0.396-1.331,1.107-2.401,2.137-3.208c1.027-0.811,2.342-1.217,3.941-1.217
			c1.345,0,2.497,0.264,3.459,0.781c0.968,0.52,1.714,1.195,2.229,2.028c0.525,0.836,0.885,1.695,1.074,2.574
			c0.194,0.891,0.291,2.235,0.291,4.048v6.252c0,2.293-0.092,3.98-0.271,5.051c-0.177,1.074-0.559,2.07-1.146,3.004
			c-0.58,0.924-1.33,1.615-2.236,2.056c-0.918,0.445-1.968,0.663-3.154,0.663c-1.325,0-2.441-0.183-3.361-0.565
			c-0.923-0.38-1.636-0.953-2.144-1.714c-0.513-0.762-0.874-1.69-1.092-2.772c-0.219-1.081-0.323-2.707-0.323-4.874L41.217,23.77
			L41.217,23.77z M45.77,33.59c0,1.4,1.042,2.543,2.311,2.543c1.27,0,2.308-1.143,2.308-2.543V20.43
			c0-1.398-1.038-2.541-2.308-2.541c-1.269,0-2.311,1.143-2.311,2.541V33.59z M29.682,40.235h5.484l0.006-18.96l6.48-16.242h-5.998
			l-3.445,12.064L28.715,5h-5.936l6.894,16.284L29.682,40.235z"/>
	</g>
</g>
</svg>
