<?xml version="1.0" encoding="utf-8"?>
<!-- Generator: Adobe Illustrator 19.0.0, SVG Export Plug-In . SVG Version: 6.00 Build 0)  -->
<svg version="1.1" id="Layer_1" xmlns="http://www.w3.org/2000/svg" xmlns:xlink="http://www.w3.org/1999/xlink" x="0px" y="0px"
	 viewBox="-230 372 50 50" style="enable-background:new -230 372 50 50;" xml:space="preserve">
<style type="text/css">
	.st0{fill:#EF3A3A;}
</style>
<g>
	<path id="WhatsApp" class="st0" d="M-185.8,396.5c0,10.3-8.4,18.7-18.8,18.7c-3.3,0-6.4-0.8-9.1-2.3l-10.4,3.3l3.4-10
		c-1.7-2.8-2.7-6.1-2.7-9.7c0-10.3,8.4-18.7,18.8-18.7C-194.2,377.8-185.8,386.2-185.8,396.5z M-204.7,380.8
		c-8.7,0-15.8,7.1-15.8,15.7c0,3.4,1.1,6.6,3,9.2l-2,5.8l6.1-1.9c2.5,1.6,5.5,2.6,8.7,2.6c8.7,0,15.8-7.1,15.8-15.7
		S-195.9,380.8-204.7,380.8z M-195.1,400.8c-0.1-0.2-0.4-0.3-0.9-0.5c-0.5-0.2-2.7-1.3-3.2-1.5c-0.4-0.2-0.7-0.2-1,0.2
		c-0.3,0.5-1.2,1.5-1.5,1.8c-0.3,0.3-0.5,0.3-1,0.1c-0.5-0.2-1.9-0.7-3.7-2.3c-1.4-1.2-2.3-2.7-2.6-3.2c-0.3-0.5,0-0.7,0.2-0.9
		c0.2-0.2,0.5-0.5,0.7-0.8c0.2-0.3,0.3-0.5,0.5-0.8c0.2-0.3,0.1-0.6,0-0.8c-0.1-0.2-1-2.5-1.4-3.4c-0.4-0.9-0.8-0.8-1-0.8
		c-0.3,0-0.6,0-0.9,0c-0.3,0-0.8,0.1-1.2,0.6c-0.4,0.5-1.6,1.6-1.6,3.8c0,2.3,1.7,4.4,1.9,4.7c0.2,0.3,3.2,5.1,7.9,6.9
		c4.7,1.8,4.7,1.2,5.5,1.1c0.8-0.1,2.7-1.1,3.1-2.2C-195,401.9-195,401-195.1,400.8z"/>
</g>
</svg>
