<?xml version="1.0" encoding="utf-8"?>
<!-- Generator: Adobe Illustrator 16.0.0, SVG Export Plug-In . SVG Version: 6.00 Build 0)  -->
<!DOCTYPE svg PUBLIC "-//W3C//DTD SVG 1.1//EN" "http://www.w3.org/Graphics/SVG/1.1/DTD/svg11.dtd">
<svg version="1.1" id="Layer_1" xmlns="http://www.w3.org/2000/svg" xmlns:xlink="http://www.w3.org/1999/xlink" x="0px" y="0px"
	 width="100px" height="100px" viewBox="0 0 100 100" enable-background="new 0 0 100 100" xml:space="preserve">
<g>
	<path fill="#A01C1C" d="M74.863,2.261c0.271,0.776,0.408,1.587,0.445,2.406l0.293-0.219c0.093,0.417,0.189,0.828,0.297,1.244
		c0.049-0.537,0.096-1.072,0.146-1.604l-0.496,0.308c0.02-0.345,0.062-1.036,0.088-1.384c0.387-0.314,0.775-0.638,1.158-0.967
		l0.372,0.389c0.076-0.125,0.232-0.372,0.312-0.495c0.519,0.851,1.144,0.199,1.712-0.108c0.854,1.218,0.695,2.795,0.954,4.189
		c-0.247-0.12-0.747-0.359-0.994-0.48c0.044-0.35,0.131-1.055,0.175-1.407l-0.293-0.083C79,4.943,78.945,5.868,79.437,6.659
		l0.208-0.036c0.984-0.32,0.447,1.235,0.591,1.745c-0.163-0.014-0.487-0.047-0.65-0.063c-0.028,0.2-0.085,0.601-0.111,0.801
		l0.435-0.008c1.116,2.845,0.552,5.935,0.812,8.911l0.562-0.276c-0.038,1.409-0.763,2.861-0.03,4.208
		c-0.172-0.008-0.508-0.023-0.677-0.031l0.013,0.604l0.643-0.472c-0.583,3.614,0.469,7.224,0.249,10.852
		c-0.064,5.169-0.036,10.331,0.527,15.48c0.349,2.282-0.388,4.546-0.235,6.833c0.146,2.387,0.344,4.796-0.012,7.175
		c-0.276,3.82,0.532,7.779-0.827,11.471c-0.304,0.298-0.604,0.603-0.898,0.91c-2.704,1.299-5.755,0.76-8.51-0.051
		c-0.362-0.354-0.727-0.705-1.088-1.053c-0.931-0.305-1.741-0.836-2.469-1.483c-0.89-1.076-1.92-2.023-2.835-3.072
		c0.487,0.131,0.967,0.282,1.447,0.451c0.016-1.472,0.177-2.979-0.54-4.326c0.212-1.496,0.529-2.976,0.709-4.478
		c-0.249-0.896-0.324-1.824-0.485-2.735c0.346-0.245,0.691-0.487,1.045-0.722c-0.4-2.007-0.505-4.048-0.508-6.086
		c0.804-2.841,0.287-5.844,0.791-8.729c0.288-1.596,0.147-3.22,0.008-4.82c0.032-2.049,0.507-4.056,0.804-6.08
		c-0.691-0.191-0.995-0.811-1.256-1.415c-1.398,3.893-2.998,7.736-3.827,11.809c-0.97,2.403-1.608,4.934-2.647,7.308
		c-1.268,1.919-1.765,4.188-2.632,6.292c-0.76,3.321-1.694,6.604-2.268,9.967l-0.592-0.235c0.038,0.334,0.11,1.009,0.145,1.351
		c-0.172-0.228-0.506-0.681-0.678-0.903c-0.425,0.358-0.841,0.729-1.261,1.095c0.484-1.158,0.772-2.464,0.423-3.702
		c-0.191,0.513-0.371,1.029-0.53,1.552c-0.232-0.224-0.695-0.676-0.928-0.902l-0.096,1.142c-0.172-0.688-0.072-1.379,0.104-2.055
		c-0.12-0.831,0.029-1.67,0.2-2.487l-0.208,0.013c-0.116,0.778-0.276,1.552-0.419,2.326c-0.509-0.055-1.004,0.008-1.468,0.231
		c-0.039-0.263-0.124-0.787-0.164-1.052c0.843-0.186,0.867-0.387,0.072-0.594c0.092-0.344,0.276-1.035,0.367-1.381
		c-0.38,0.54-0.623,1.155-0.896,1.751c0.056,0.521,0.1,1.044,0.141,1.567c-0.284,0.05-0.853,0.14-1.135,0.188
		c-0.145,0.504-0.284,1.012-0.424,1.521c-0.056-0.203-0.164-0.594-0.219-0.792c-1.083-0.529-2.754-0.812-3.155,0.718
		c-0.203-0.285-0.409-0.563-0.607-0.848c-0.132,0.208-0.396,0.621-0.528,0.823c-0.131-0.199-0.396-0.606-0.528-0.807l-0.942,0.31
		l0.428-0.877c-0.436,0.281-0.872,0.559-1.304,0.844c0.18-1.308,0.691-2.567,0.715-3.894c-0.299-0.633-0.698-1.208-1.062-1.8
		c-0.844-2.149-1.915-4.203-2.935-6.271c-0.835-2.651-2.398-4.99-3.206-7.653c-1.323-3.897-2.811-7.731-4.01-11.672
		c-0.256,1.923,0.271,3.838,0.012,5.757c-0.476,3.222,0.255,6.436,0.137,9.667c0.659,3.957,0.062,7.941,0.167,11.923
		c0.028,5.321-0.064,10.642-0.232,15.965c-0.016,0.534-0.304,1.002-0.579,1.445c-0.152,0.327-0.304,0.66-0.453,0.992
		c-0.103-0.133-0.314-0.392-0.419-0.523c-1.386,0.101-2.807,0.095-4.114,0.66c-0.956-0.394-1.959-0.647-2.945-0.933l-0.061,0.312
		c-1.042-0.023-2.087,0.02-3.106,0.268c-0.823-2.23-0.883-4.577-0.722-6.925c-0.797-2.893-0.362-5.903-0.513-8.865
		c0.228-3.534-1.57-6.969-0.688-10.496c-0.023-3,0.417-5.992,0.839-8.962l0.66,0.341c-0.188-0.456-0.363-0.917-0.528-1.38
		c0.224,0.276,0.668,0.832,0.892,1.108c-0.083-2.066,0.188-4.144-0.076-6.205c-0.211-1.803-0.267-3.622-0.223-5.433
		c-0.18,0.057-0.544,0.169-0.725,0.224c0.093-2.178,0.272-4.349,0.416-6.527c0.168,1.109,0.292,2.234,0.244,3.36l0.304-0.02
		c0.16-3.741,0.188-7.508-0.432-11.208c-0.551-2.632,0.009-5.326-0.547-7.96c-0.355-1.404,0.147-2.763,0.728-4.027
		c0.523,0.176,1.042,0.354,1.562,0.53c0.127-0.188,0.384-0.564,0.512-0.749c0.528-0.028,1.056-0.055,1.584-0.089
		c0.979-0.73,2.303-0.562,3.449-0.739c3.179-0.626,6.8,0.459,8.64,3.247c2.57,4.132,4.563,8.686,5.451,13.487
		c0.281,1.044,0.937,1.936,1.375,2.915c1.532,3.851,3.363,7.572,4.995,11.381c0.854,2.07,1.981,4.01,3.022,5.994
		c1.786-5.241,3.609-10.474,5.723-15.6c0.925-2.703,1.91-5.38,3.104-7.979c1.502-3.138,2.203-6.62,4.024-9.615
		c0.509-0.727,0.805-1.566,1.091-2.397c0.538-0.316,0.978-0.751,1.261-1.312c0.998-0.98,2.354-0.928,3.645-1.03l0.044-0.333
		c0.957,0.486,1.948-0.1,2.896-0.295C72.641,2.953,73.836,2.845,74.863,2.261z M73.784,8.793c0.008,0.203,0.026,0.616,0.035,0.819
		c0.548,0.449,1.344-0.435,1.089-0.97C74.543,8.618,74.107,8.602,73.784,8.793z M72.845,14.798
		c-0.104,0.788-0.208,1.575-0.292,2.363c0.147,0.1,0.447,0.298,0.6,0.4l-0.123-1.064c0.295,0.26,0.886,0.771,1.183,1.031
		c0.02-0.699,0.049-1.396,0.045-2.095c-0.249,0.288-0.754,0.86-1,1.149C73.12,15.986,72.984,15.39,72.845,14.798z M77.901,21.801
		c0.008,0.196,0.029,0.595,0.036,0.797c0.364,0.022,0.729,0.047,1.092,0.071c-0.169-0.117-0.508-0.344-0.68-0.456
		c0.191-0.14,0.572-0.42,0.764-0.56C78.809,21.69,78.201,21.762,77.901,21.801z M72.281,24.956c-0.735-0.32-0.875-1.138-1.199-1.775
		c-0.021,0.332-0.036,0.664-0.05,0.996c0.345,0.356,0.681,0.724,1.013,1.095c1.107-0.674,1.144-1.942,0.892-3.097
		C72.489,23.036,72.456,24.021,72.281,24.956z M73.815,24.533c0.145-0.772,0.213-1.555,0.204-2.344
		C73.385,22.868,73.352,23.757,73.815,24.533z"/>
</g>
<g>
	<path fill="#A01C1C" d="M83.398,1.855c-0.889,0.133-1.634,0.789-1.766,1.719c-0.163,1.18,0.588,2.047,1.293,2.327
		c1.292,0.521,2.488-0.383,2.799-1.161c0.101-0.246,0.155-0.483,0.175-0.708c0-0.116,0-0.227,0-0.341
		C85.794,2.469,84.574,1.675,83.398,1.855z M85.426,4.265c-0.119,0.693-0.835,1.253-1.337,1.337
		c-1.274,0.215-2.22-0.863-2.023-2.028c0.107-0.644,0.661-1.163,1.333-1.292C84.569,2.064,85.645,2.961,85.426,4.265z"/>
	<path fill="#A01C1C" d="M84.133,3.922c0.4-0.02,0.48-0.613,0.3-0.952c-0.32-0.274-0.998-0.208-1.593-0.211
		c-0.1,0.646-0.017,1.479-0.045,2.197c0.123,0.066,0.482,0.066,0.604,0c0.028-0.26-0.056-0.63,0.046-0.819
		c0.579-0.039,0.531,0.559,0.773,0.862c0.187,0,0.373,0,0.56,0C84.637,4.565,84.468,4.161,84.133,3.922z M83.961,3.619
		c-0.108,0.123-0.309,0.148-0.562,0.129c0-0.184,0-0.375,0-0.557c0.246-0.019,0.474-0.015,0.562,0.128
		C83.961,3.417,83.961,3.519,83.961,3.619z"/>
</g>
<g>
	<g>
		<g>
			<g>
				<g>
					<path fill="#A01C1C" d="M25.7,80.724c0.046,0.113,0.071,0.231,0.082,0.353l0.042-0.033c0.017,0.061,0.034,0.121,0.052,0.181
						c0.004-0.08,0.007-0.158,0.011-0.237l-0.071,0.048c0-0.051,0.002-0.153,0.004-0.205c0.055-0.049,0.11-0.099,0.165-0.149
						l0.058,0.054c0.01-0.017,0.031-0.055,0.042-0.074c0.083,0.123,0.171,0.022,0.253-0.027c0.134,0.174,0.121,0.408,0.169,0.613
						c-0.038-0.016-0.114-0.048-0.151-0.063c0.004-0.053,0.013-0.158,0.017-0.211l-0.043-0.01c0.001,0.131-0.001,0.269,0.077,0.382
						l0.031-0.006c0.143-0.053,0.074,0.181,0.099,0.254c-0.025,0-0.072-0.004-0.098-0.005c-0.001,0.029-0.008,0.089-0.01,0.118
						l0.064-0.004c0.184,0.414,0.121,0.874,0.178,1.313l0.083-0.045c0.003,0.208-0.095,0.429,0.022,0.623c-0.025,0-0.076,0-0.1,0
						l0.005,0.088l0.093-0.073c-0.063,0.538,0.117,1.063,0.108,1.604c0.025,0.763,0.062,1.523,0.18,2.284
						c0.067,0.334-0.027,0.673,0.011,1.012c0.038,0.351,0.083,0.705,0.045,1.061c-0.016,0.564,0.13,1.144-0.046,1.699
						c-0.043,0.046-0.085,0.093-0.127,0.14c-0.392,0.212-0.846,0.153-1.258,0.05c-0.056-0.05-0.112-0.101-0.167-0.147
						c-0.14-0.039-0.264-0.113-0.375-0.202c-0.139-0.154-0.298-0.287-0.44-0.438c0.074,0.018,0.145,0.037,0.218,0.059
						c-0.009-0.217,0.005-0.441-0.11-0.636c0.022-0.222,0.059-0.441,0.076-0.666c-0.042-0.132-0.06-0.269-0.089-0.401
						c0.049-0.04,0.1-0.077,0.15-0.114c-0.073-0.293-0.103-0.594-0.116-0.896c0.101-0.426,0.004-0.866,0.059-1.296
						c0.032-0.238,0.001-0.478-0.03-0.714c-0.009-0.301,0.048-0.603,0.079-0.903c-0.104-0.023-0.152-0.112-0.196-0.201
						c-0.181,0.587-0.391,1.164-0.487,1.771c-0.128,0.362-0.205,0.741-0.343,1.099c-0.175,0.292-0.233,0.632-0.348,0.948
						c-0.089,0.494-0.207,0.986-0.268,1.488l-0.09-0.032c0.008,0.049,0.023,0.149,0.031,0.199c-0.028-0.032-0.08-0.099-0.106-0.129
						c-0.062,0.056-0.121,0.112-0.179,0.17c0.063-0.173,0.097-0.37,0.037-0.551c-0.025,0.077-0.047,0.154-0.068,0.234
						c-0.036-0.032-0.106-0.096-0.143-0.128l-0.007,0.171c-0.029-0.103-0.02-0.206,0.001-0.305
						c-0.022-0.123-0.006-0.248,0.013-0.369l-0.03,0.003c-0.013,0.115-0.031,0.23-0.047,0.345c-0.075-0.004-0.147,0.011-0.215,0.045
						c-0.007-0.039-0.024-0.115-0.031-0.155c0.123-0.032,0.126-0.062,0.007-0.087c0.011-0.053,0.032-0.156,0.044-0.207
						c-0.053,0.083-0.084,0.175-0.12,0.265c0.011,0.077,0.021,0.153,0.031,0.231c-0.042,0.009-0.125,0.025-0.167,0.034
						c-0.017,0.076-0.036,0.152-0.053,0.229c-0.009-0.029-0.028-0.087-0.038-0.116c-0.164-0.072-0.412-0.103-0.461,0.126
						c-0.033-0.039-0.064-0.081-0.095-0.12c-0.018,0.03-0.054,0.095-0.074,0.126c-0.021-0.029-0.062-0.088-0.083-0.117l-0.138,0.051
						l0.058-0.132c-0.062,0.045-0.125,0.09-0.187,0.135c0.018-0.197,0.085-0.385,0.08-0.582c-0.048-0.092-0.111-0.172-0.169-0.258
						c-0.139-0.312-0.311-0.609-0.476-0.908c-0.141-0.387-0.388-0.723-0.524-1.11c-0.221-0.567-0.466-1.125-0.67-1.698
						c-0.025,0.285,0.066,0.564,0.04,0.85c-0.049,0.481,0.08,0.949,0.083,1.429c0.124,0.581,0.062,1.172,0.104,1.763
						c0.04,0.786,0.061,1.573,0.071,2.359c0,0.079-0.038,0.151-0.076,0.22c-0.02,0.047-0.041,0.099-0.06,0.149
						c-0.016-0.021-0.049-0.057-0.066-0.075c-0.204,0.024-0.414,0.033-0.603,0.124c-0.145-0.052-0.294-0.083-0.442-0.117
						l-0.007,0.047c-0.154,0.003-0.307,0.016-0.457,0.059c-0.136-0.324-0.161-0.669-0.152-1.019
						c-0.137-0.422-0.092-0.871-0.135-1.307c0.01-0.524-0.278-1.02-0.171-1.548c-0.023-0.443,0.022-0.888,0.065-1.329l0.1,0.045
						c-0.031-0.065-0.06-0.131-0.087-0.2c0.034,0.039,0.104,0.12,0.139,0.158c-0.026-0.307,0-0.614-0.052-0.917
						c-0.043-0.264-0.064-0.534-0.07-0.801c-0.027,0.009-0.079,0.026-0.104,0.035c-0.001-0.322,0.011-0.643,0.018-0.966
						c0.032,0.163,0.058,0.328,0.059,0.496l0.044-0.006c-0.001-0.555-0.022-1.111-0.139-1.655c-0.099-0.386-0.033-0.787-0.133-1.172
						c-0.062-0.206,0.003-0.41,0.081-0.601c0.079,0.023,0.157,0.046,0.234,0.068c0.018-0.029,0.053-0.086,0.071-0.112
						c0.078-0.009,0.156-0.017,0.233-0.025c0.141-0.114,0.337-0.101,0.505-0.134c0.466-0.112,1.008,0.024,1.298,0.425
						c0.408,0.594,0.732,1.254,0.896,1.958c0.047,0.152,0.151,0.277,0.222,0.422c0.252,0.559,0.547,1.098,0.813,1.647
						c0.14,0.303,0.32,0.582,0.486,0.867c0.229-0.787,0.464-1.573,0.743-2.345c0.119-0.405,0.248-0.807,0.407-1.199
						c0.201-0.475,0.282-0.993,0.531-1.447c0.069-0.112,0.108-0.238,0.146-0.362c0.078-0.05,0.14-0.119,0.177-0.203
						c0.141-0.15,0.342-0.151,0.533-0.176l0.004-0.051c0.145,0.066,0.287-0.027,0.425-0.062
						C25.376,80.843,25.552,80.816,25.7,80.724z M25.584,81.697c0.002,0.03,0.008,0.089,0.01,0.121
						c0.084,0.062,0.196-0.075,0.154-0.15C25.696,81.666,25.631,81.666,25.584,81.697z M25.484,82.59
						c-0.01,0.117-0.02,0.236-0.027,0.352c0.023,0.015,0.068,0.042,0.092,0.057l-0.025-0.159c0.045,0.038,0.136,0.108,0.182,0.147
						c-0.001-0.105-0.002-0.208-0.008-0.31c-0.035,0.041-0.105,0.131-0.14,0.176C25.534,82.765,25.51,82.678,25.484,82.59z
						 M26.278,83.592c0.003,0.029,0.009,0.09,0.011,0.118c0.054,0,0.108,0,0.163,0.003c-0.027-0.015-0.079-0.048-0.104-0.061
						c0.027-0.024,0.082-0.067,0.11-0.09C26.413,83.57,26.323,83.585,26.278,83.592z M25.469,84.095
						c-0.111-0.04-0.138-0.161-0.19-0.253c0,0.047,0,0.097,0,0.146c0.054,0.051,0.105,0.104,0.157,0.156
						c0.159-0.108,0.157-0.296,0.112-0.463C25.488,83.811,25.489,83.956,25.469,84.095z M25.693,84.023
						c0.015-0.116,0.021-0.231,0.015-0.349C25.617,83.78,25.619,83.91,25.693,84.023z"/>
				</g>
				<g>
					<path fill="#A01C1C" d="M30.9,80.75c0.15-0.068,0.309-0.116,0.466-0.161c0.043,0.024,0.087,0.047,0.13,0.071l-0.052,0.038
						l0.085,0.058l-0.053,0.048c0.086,0.002,0.173-0.006,0.259,0.002c0.015,0.055,0.039,0.103,0.076,0.142
						c0.017-0.024,0.052-0.071,0.07-0.095c0.022,0.04,0.043,0.08,0.066,0.122c-0.07,0.012-0.14,0.016-0.209,0.015
						c-0.003-0.137-0.115-0.188-0.218-0.097c0.029,0.01,0.089,0.03,0.118,0.042c0.037,0.189,0.071,0.387,0.196,0.544
						c-0.006-0.154-0.094-0.306-0.051-0.46c0.053,0.107,0.082,0.222,0.088,0.343c0.022-0.048,0.065-0.142,0.088-0.19
						c-0.003,0.059-0.014,0.174-0.018,0.235l0.055-0.03c0.014,0.104,0.012,0.213,0.055,0.312c0.186,0.434,0.25,0.915,0.49,1.326
						c0.176,0.28,0.239,0.612,0.395,0.902c0.117,0.218,0.171,0.462,0.223,0.699c0.049,0.238,0.187,0.44,0.29,0.657
						c-0.008,0.223,0.119,0.406,0.221,0.589c0.088,0.223,0.145,0.453,0.198,0.685c0.15,0.427,0.339,0.837,0.468,1.271
						c0.156,0.469,0.283,0.945,0.435,1.417c0.02,0.241,0.097,0.472,0.121,0.713c-0.146,0.147-0.187,0.363-0.323,0.519
						c-0.024-0.003-0.071-0.009-0.095-0.009c-0.172,0.095-0.362,0.147-0.555,0.178c-0.022,0.022-0.067,0.067-0.089,0.088
						c-0.067-0.021-0.134-0.045-0.2-0.066l-0.017,0.096c-0.02-0.021-0.059-0.066-0.078-0.089l-0.079,0.057
						c-0.01-0.027-0.03-0.087-0.04-0.115c-0.074,0.07-0.163,0.116-0.265,0.137c0.028-0.029,0.086-0.083,0.114-0.11
						c-0.018-0.018-0.053-0.053-0.071-0.07c-0.076,0.199-0.212-0.053-0.288-0.127c-0.071-0.346-0.107-0.697-0.244-1.023
						c-0.206-0.803-0.502-1.574-0.718-2.37c-0.395,0.055-0.801,0.032-1.187,0.148c-0.289,0.097-0.582,0.182-0.876,0.263
						c0.007,0.045,0.018,0.089,0.029,0.133c-0.062,0.24-0.037,0.488-0.088,0.729c-0.063,0.521-0.152,1.038-0.192,1.562
						c-0.015,0.185-0.095,0.354-0.176,0.518c-0.101,0.206-0.36,0.226-0.546,0.316c0-0.143,0.011-0.286,0.015-0.427
						c-0.096,0.138-0.148,0.301-0.256,0.433c-0.017-0.129-0.019-0.259-0.015-0.387c-0.039,0.123-0.066,0.249-0.115,0.367
						c-0.103,0.014-0.192-0.045-0.281-0.083c-0.038,0.05-0.076,0.101-0.112,0.154c-0.076-0.022-0.146-0.056-0.213-0.095
						c-0.004,0.03-0.016,0.087-0.021,0.119l-0.023-0.135c-0.051,0.035-0.103,0.07-0.153,0.107c-0.006-0.09-0.017-0.18-0.031-0.268
						c-0.032,0.029-0.096,0.083-0.129,0.109c0.007-0.135,0.02-0.271,0.037-0.404c-0.102,0.163-0.208,0.326-0.34,0.466
						c0.291-0.85,0.384-1.751,0.639-2.612c0.111-0.351,0.104-0.728,0.22-1.076c0.042-0.118-0.066-0.222-0.103-0.324l0.072,0.006
						c-0.02-0.024-0.059-0.072-0.08-0.097c0.067-0.193,0.262-0.275,0.366-0.439c0.008-0.583,0.184-1.152,0.305-1.722
						c0.026-0.214,0.094-0.42,0.174-0.616c0.102-0.418,0.214-0.833,0.357-1.238c0.129-0.595,0.395-1.145,0.669-1.685
						c0.12-0.062,0.235-0.185,0.383-0.152C30.48,80.731,30.69,80.806,30.9,80.75z M31.926,81.432 M30.425,83.072
						c-0.141,0.339-0.234,0.695-0.306,1.055c0.01,0.022,0.032,0.064,0.044,0.085C30.268,83.836,30.385,83.462,30.425,83.072z
						 M30.67,83.061c-0.108,0.41-0.091,0.847-0.249,1.245c-0.091,0.303,0.001,0.618-0.079,0.919
						c-0.035,0.141-0.02,0.319-0.151,0.412c-0.015-0.005-0.043-0.014-0.059-0.02c0-0.379,0.134-0.744,0.127-1.123
						c-0.156,0.395-0.114,0.829-0.238,1.231c0.171-0.051,0.35-0.028,0.524-0.053c0.308-0.056,0.618-0.098,0.922-0.178
						c-0.208-0.504-0.431-1.004-0.551-1.539C30.852,83.655,30.787,83.351,30.67,83.061z"/>
				</g>
				<g>
					<path fill="#A01C1C" d="M44.493,80.14c0.15-0.065,0.311-0.113,0.47-0.16c0.022,0.015,0.067,0.044,0.091,0.058
						c-0.003,0.153,0.158,0.155,0.273,0.18c0.017,0.111,0.092,0.14,0.135,0.023c0.006,0.012,0.019,0.041,0.025,0.054
						c0.01,0.023,0.034,0.074,0.045,0.099c-0.083-0.012-0.165-0.009-0.246-0.003c0.125-0.165-0.077-0.182-0.188-0.197
						c0.035,0.058,0.079,0.11,0.132,0.152c0.042,0.188,0.079,0.381,0.202,0.533c-0.022-0.129-0.053-0.259-0.088-0.388
						c0.015-0.012,0.047-0.032,0.061-0.042c0.021,0.084,0.041,0.168,0.059,0.254c0.023-0.033,0.069-0.101,0.093-0.134
						c-0.007,0.058-0.021,0.17-0.029,0.228l0.062-0.027c0.014,0.103,0.012,0.214,0.055,0.311c0.186,0.434,0.251,0.914,0.49,1.329
						c0.182,0.288,0.247,0.633,0.411,0.934c0.178,0.323,0.165,0.716,0.349,1.037c0.055,0.126,0.161,0.239,0.159,0.383
						c0.005,0.204,0.155,0.356,0.23,0.537c0.118,0.324,0.163,0.672,0.31,0.987c0.318,0.759,0.526,1.555,0.771,2.339
						c0.021,0.242,0.098,0.475,0.123,0.712c-0.147,0.147-0.187,0.363-0.324,0.52c-0.023-0.003-0.071-0.007-0.095-0.008
						c-0.192,0.107-0.408,0.156-0.624,0.195c0,0.021,0,0.064,0,0.085c-0.068-0.027-0.139-0.058-0.207-0.085
						c-0.009,0.022-0.024,0.071-0.033,0.097c-0.019-0.021-0.057-0.065-0.076-0.087l-0.079,0.058c-0.01-0.028-0.029-0.087-0.04-0.115
						c-0.075,0.07-0.164,0.115-0.263,0.136c0.028-0.027,0.086-0.084,0.114-0.111c-0.025-0.023-0.051-0.045-0.075-0.066
						c-0.09,0.202-0.194-0.059-0.284-0.129c-0.064-0.253-0.073-0.517-0.158-0.765c-0.171-0.487-0.278-0.996-0.454-1.484
						c-0.122-0.381-0.25-0.759-0.351-1.146c-0.222,0.027-0.447,0.042-0.671,0.058c-0.447,0.027-0.858,0.22-1.287,0.327
						c-0.112-0.006-0.124,0.078-0.074,0.154c-0.038,0.165-0.054,0.328-0.055,0.495c-0.088,0.636-0.18,1.274-0.243,1.914
						c-0.077,0.222-0.136,0.518-0.391,0.598c-0.104,0.046-0.21,0.086-0.315,0.122c-0.001-0.142,0.01-0.284,0.014-0.426
						c-0.095,0.139-0.147,0.303-0.258,0.433c-0.016-0.129-0.017-0.257-0.016-0.386c-0.037,0.122-0.063,0.247-0.112,0.367
						c-0.103,0.018-0.192-0.044-0.28-0.085c-0.039,0.052-0.077,0.104-0.115,0.154c-0.076-0.019-0.147-0.052-0.212-0.094l0.004,0.118
						c-0.014-0.032-0.039-0.098-0.052-0.13c-0.05,0.033-0.101,0.068-0.151,0.105c-0.007-0.09-0.019-0.18-0.031-0.268
						c-0.033,0.028-0.097,0.083-0.13,0.108c0.007-0.135,0.022-0.269,0.037-0.403c-0.101,0.16-0.204,0.323-0.336,0.46
						c0.042-0.205,0.131-0.397,0.181-0.603c0.11-0.526,0.222-1.05,0.338-1.574c0.12-0.412,0.221-0.832,0.268-1.259
						c0.073-0.193,0.108-0.399-0.035-0.575l0.074,0.012c-0.02-0.023-0.062-0.074-0.081-0.1c0.066-0.192,0.263-0.274,0.365-0.44
						c0-0.441,0.122-0.876,0.208-1.31c0.1-0.323,0.112-0.671,0.254-0.983c0.181-0.692,0.387-1.378,0.609-2.058
						c0.147-0.302,0.275-0.613,0.435-0.908c0.12-0.065,0.237-0.189,0.386-0.153C44.075,80.127,44.284,80.197,44.493,80.14z
						 M45.518,80.821 M43.737,83.621c0.136-0.373,0.228-0.763,0.287-1.157C43.881,82.832,43.72,83.222,43.737,83.621z
						 M44.264,82.451c-0.109,0.41-0.092,0.848-0.25,1.247c-0.09,0.302,0.002,0.62-0.079,0.922c-0.033,0.14-0.019,0.316-0.151,0.409
						c-0.014-0.006-0.042-0.015-0.058-0.019c0-0.381,0.135-0.745,0.125-1.124c-0.139,0.344-0.11,0.725-0.202,1.08
						c-0.01,0.055-0.045,0.128,0.005,0.172c0.019-0.012,0.055-0.034,0.072-0.046c0.451-0.016,0.896-0.104,1.334-0.204
						c-0.108-0.305-0.267-0.59-0.359-0.9C44.504,83.49,44.462,82.947,44.264,82.451z"/>
				</g>
				<g>
					<path fill="#A01C1C" d="M36.5,80.979c0.052,0.027,0.106,0.058,0.161,0.086c0.053,0.171,0.113,0.338,0.191,0.495
						c0.066-0.153,0.123-0.312,0.209-0.452c0.23,0.22,0.214,0.563,0.305,0.847c0.103,0.481,0.046,0.985-0.025,1.469
						c-0.026,0.328,0.019,0.659-0.045,0.985c-0.047,0.802-0.114,1.604-0.096,2.408c0.065,0.467,0.065,0.939,0.121,1.408
						c0.006,0.281,0.027,0.562,0.14,0.826c0.528,0.076,1.058-0.024,1.585-0.066c0.342-0.048,0.709-0.173,1.044-0.023
						c0.194,0.123,0.383,0.278,0.492,0.483c0.043,0.176,0.01,0.366,0.084,0.536c0.039,0.093-0.029,0.18-0.054,0.264
						c-0.051,0.13-0.051,0.271-0.096,0.401c-0.14,0.263-0.316,0.567-0.645,0.605c-0.357,0.009-0.714,0.021-1.064,0.094
						c-0.554-0.005-1.106,0.085-1.661,0.061c-0.199-0.008-0.394-0.061-0.593-0.069c-0.171,0.14-0.415,0.276-0.636,0.173
						c0.047-0.019,0.141-0.058,0.188-0.077c-0.107,0.005-0.213,0.005-0.32,0.005c0.189-0.334,0.025-0.716-0.019-1.064l-0.056,0.022
						c0.002-0.025,0.006-0.079,0.009-0.106c-0.08-0.055-0.165-0.104-0.25-0.148c-0.025,0.295-0.023,0.594-0.035,0.891
						c-0.179-0.285-0.084-0.623-0.117-0.938c-0.044-0.771-0.12-1.538-0.182-2.31c-0.018-0.854-0.163-1.707-0.058-2.562
						c0.052-0.325,0.027-0.652,0.073-0.978c0.105-0.589,0.082-1.191,0.058-1.786c-0.012-0.31,0.099-0.609,0.06-0.915
						c0.07-0.033,0.139-0.069,0.201-0.115c0.129,0.158,0.11,0.373,0.171,0.56c0.018-0.148,0.015-0.296,0.032-0.443l-0.07,0.05
						c0.003-0.123-0.022-0.254,0.043-0.366c0.064,0.086,0.124,0.179,0.179,0.271c0.029-0.098,0.045-0.197,0.052-0.297
						c0.06-0.03,0.119-0.062,0.178-0.091c0.033,0.121,0.061,0.248,0.098,0.37c0.152-0.09,0.136-0.312,0.209-0.457
						c0.052,0.192,0.069,0.392,0.086,0.589C36.481,81.403,36.474,81.188,36.5,80.979z M35.377,81.519
						c0.02,0.209,0.074,0.409,0.101,0.615c0.06-0.18,0.004-0.367-0.001-0.552C35.452,81.566,35.402,81.536,35.377,81.519z
						 M35.956,91.304c0.02-0.001,0.062-0.003,0.084-0.003c0.048-0.04,0.121-0.173,0.033-0.204
						C36.006,91.127,35.899,91.225,35.956,91.304z"/>
				</g>
			</g>
			<g>
				<path fill="#A01C1C" d="M64.069,79.121c0.782-0.07,1.579,0.323,2.019,0.972c0.467,0.523,0.619,1.229,0.786,1.892
					c-0.077,0.329-0.405,0.519-0.527,0.827c-0.139-0.001-0.278,0.004-0.417,0.002c-0.152,0.078-0.325,0.073-0.487,0.117
					c-0.064-0.064-0.131-0.129-0.196-0.19l0.015,0.151c-0.076-0.12-0.129-0.248-0.173-0.383c-0.032,0.03-0.093,0.089-0.123,0.12
					c-0.076-0.245-0.115-0.5-0.175-0.75c-0.054-0.287-0.252-0.53-0.494-0.688c-0.286-0.192-0.584-0.421-0.939-0.433
					c-0.275-0.033-0.497,0.179-0.693,0.343c-0.114,0.219-0.167,0.48-0.143,0.729c0.027,0.353-0.005,0.709,0.041,1.062
					c0.065,0.361,0.08,0.731,0.129,1.097c0.079,0.278,0.052,0.569,0.091,0.854c0.058,0.419,0.022,0.853,0.146,1.262
					c0.154,0.557,0.364,1.105,0.695,1.583c0.257,0.399,0.826,0.558,1.253,0.342c0.16-0.121,0.226-0.332,0.294-0.514
					c0.056-0.255,0.154-0.509,0.125-0.774c-0.032-0.274,0.022-0.552-0.034-0.825c-0.065-0.232,0.104-0.427,0.185-0.629
					c0.163-0.21,0.413-0.337,0.566-0.561c0.16-0.223,0.467-0.241,0.714-0.195c0.254-0.019,0.441,0.171,0.598,0.343
					c0.156,0.332,0.048,0.71,0.08,1.062c0.064,0.39-0.16,0.735-0.244,1.102c-0.134,0.141-0.208,0.32-0.271,0.501
					c0.055-0.035,0.109-0.07,0.164-0.106c-0.042,0.108-0.087,0.216-0.136,0.32c-0.032-0.053-0.066-0.104-0.1-0.16
					c-0.004,0.214-0.317,0.339-0.172,0.568c-0.136,0.135-0.143,0.34-0.264,0.484c-0.306,0.437-0.837,0.61-1.29,0.853
					c-0.344,0.149-0.714,0.25-1.088,0.266c-0.381,0.034-0.752-0.077-1.13-0.105c-0.168-0.002-0.269-0.154-0.376-0.258
					c-0.024,0.012-0.072,0.034-0.095,0.046c-0.517-0.366-0.853-0.927-1.108-1.494c-0.18-0.32-0.224-0.688-0.344-1.03
					c-0.165-0.771-0.211-1.57-0.094-2.349c0.034-0.449,0.104-0.893,0.211-1.326c0.058-0.585,0.105-1.174,0.311-1.727
					c0.117-0.224,0.203-0.462,0.297-0.695c0.143-0.149,0.189-0.371,0.361-0.495l-0.129-0.05c0.042-0.005,0.127-0.018,0.169-0.021
					c0.215-0.19,0.392-0.428,0.653-0.558c0.221-0.101,0.453-0.181,0.694-0.211c0.207-0.078,0.411-0.161,0.618-0.234
					c-0.008-0.039-0.025-0.114-0.033-0.153c0.074,0.063,0.147,0.123,0.226,0.182C64.191,79.243,64.109,79.161,64.069,79.121z"/>
				<g>
					<path fill="#A01C1C" d="M73.389,78.835c0.08,0.296,0.145,0.596,0.172,0.9c0.018,0.259,0.113,0.519,0.041,0.778
						c0.03-0.071,0.064-0.143,0.1-0.211c0.002,0.138,0,0.277,0.005,0.414c-0.058-0.012-0.115-0.021-0.17-0.03
						c-0.056-0.044-0.09-0.146-0.165-0.15c-0.102,0.111-0.032,0.298-0.158,0.407c-0.005-0.193-0.005-0.388-0.014-0.584
						c-0.035,0.174-0.099,0.36-0.026,0.533c-0.05,0.075-0.1,0.148-0.152,0.221c-0.025-0.2,0.009-0.402,0.009-0.603
						c-0.052,0.069-0.093,0.145-0.125,0.223c-0.014,0.005-0.041,0.011-0.055,0.014c0.011,0.049,0.028,0.146,0.039,0.193
						l-0.004-0.006c-0.05-0.068-0.103-0.133-0.158-0.197c0.022-0.124,0.045-0.244,0.073-0.369l-0.078,0.036
						c-0.028-0.337-0.056-0.672-0.102-1.008c-0.039,0.205-0.069,0.412-0.093,0.619l-0.097-0.05c0.019,0.298,0.005,0.596-0.049,0.891
						c-0.262-0.136-0.065-0.431-0.067-0.647c-0.016-0.301-0.088-0.592-0.091-0.894c0.151-0.072,0.329-0.109,0.442-0.244
						C72.898,78.971,73.17,78.974,73.389,78.835z M73.086,80.008c-0.025-0.03-0.078-0.084-0.104-0.112
						c-0.007,0.016-0.018,0.047-0.022,0.063c-0.003,0.069-0.014,0.14-0.033,0.207l-0.025,0.035
						c-0.005,0.012-0.013,0.034-0.018,0.046c0.023,0.014,0.069,0.043,0.094,0.058c0.014,0.017,0.042,0.05,0.055,0.066
						c0.024-0.09-0.052-0.242,0.069-0.278c0.08,0.028,0.111,0.098,0.092,0.207c0.021-0.059,0.042-0.119,0.065-0.176
						c-0.016-0.019-0.048-0.053-0.064-0.072c0.059-0.03,0.115-0.062,0.171-0.095c-0.036,0.003-0.106,0.009-0.145,0.012
						c-0.01-0.063-0.032-0.188-0.044-0.251C73.132,79.8,73.175,79.984,73.086,80.008z M72.758,80.227
						c0.094-0.049,0.046-0.225,0.004-0.307C72.684,79.975,72.714,80.147,72.758,80.227z M72.769,80.314"/>
				</g>
				<g>
					<path fill="#A01C1C" d="M56.812,79.658c0.095-0.053,0.201-0.074,0.311-0.053c0.132,0.076,0.272,0.144,0.426,0.158
						c0.025,0.014,0.073,0.039,0.096,0.051c-0.024-0.089-0.053-0.177-0.079-0.267c0.202,0.098,0.328,0.308,0.545,0.376
						c0.17,0.266,0.372,0.512,0.491,0.805c0.232,0.391,0.524,0.75,0.689,1.175c0.196,0.662,0.355,1.336,0.585,1.988
						c0.093,0.46,0.213,0.913,0.332,1.366c0.103,0.314,0.221,0.628,0.272,0.958c0.058,0.381,0.178,0.751,0.282,1.123
						c0.15,0.466,0.236,0.946,0.306,1.429c0.025,0.22,0.159,0.436,0.083,0.657c-0.06,0.154-0.168,0.289-0.313,0.371
						c-0.089,0.021-0.178,0.04-0.268,0.049l-0.017,0.06c-0.072-0.016-0.144-0.032-0.212-0.061c-0.063,0.04-0.125,0.076-0.188,0.113
						c-0.012-0.043-0.038-0.136-0.051-0.182c-0.083,0.032-0.183,0.179-0.249,0.011c-0.005,0.035-0.014,0.109-0.017,0.146
						c-0.126-0.049-0.188-0.004-0.173,0.133c-0.099-0.093-0.194-0.185-0.277-0.291c-0.006,0.046-0.017,0.14-0.022,0.188
						c-0.06-0.097-0.182-0.394-0.25-0.113c-0.136-0.284-0.21-0.592-0.261-0.9c-0.142-0.702-0.349-1.392-0.509-2.088
						c-0.301,0.112-0.59,0.266-0.91,0.315c-0.373,0.093-0.761,0.036-1.136,0.115c-0.143,0.029-0.286,0.029-0.431,0.035
						c-0.081,0.419-0.075,0.86-0.235,1.263c-0.07,0.236-0.059,0.486-0.135,0.723c-0.065,0.224-0.053,0.46-0.102,0.686
						c-0.112,0.219-0.337,0.347-0.573,0.389c-0.115-0.081-0.252-0.045-0.38-0.074c-0.125-0.081-0.237-0.183-0.354-0.276
						c-0.01,0.042-0.028,0.13-0.038,0.174c-0.075-0.061-0.154-0.115-0.224-0.183c-0.112-0.118-0.287-0.125-0.426-0.199
						c-0.022,0.036-0.07,0.11-0.095,0.146c-0.01-0.189-0.007-0.381,0.02-0.571c0.032,0.05,0.062,0.101,0.094,0.154l-0.018-0.071
						c0.031,0.006,0.094,0.018,0.125,0.021c0.068-0.228-0.037-0.502,0.155-0.687c0,0.062,0.004,0.189,0.006,0.25
						c0.062-0.154,0.071-0.329,0.032-0.492l0.101,0.112l0.007-0.122l0.066,0.007l0.016,0.114c0.033-0.099,0.065-0.196,0.097-0.294
						c-0.048,0.033-0.141,0.104-0.188,0.137c-0.005-0.124,0.098-0.267,0.001-0.377c0.019-0.132,0.039-0.263,0.081-0.392
						c-0.012-0.064-0.023-0.13-0.036-0.193c-0.024,0.121-0.003,0.281-0.169,0.301c0.005-0.138,0.011-0.274,0.021-0.412
						c0.019,0.04,0.055,0.12,0.073,0.159c0.055-0.155,0.183-0.26,0.283-0.382c-0.028-0.062-0.06-0.123-0.097-0.185
						c0.066-0.248,0.121-0.506,0.267-0.726c0.099-0.303,0.263-0.584,0.341-0.895c-0.052,0.047-0.154,0.144-0.205,0.192
						c0.029-0.128,0.061-0.255,0.094-0.382c-0.021,0.006-0.064,0.017-0.086,0.021c0.042-0.121,0.076-0.254,0.19-0.328
						c0.104-0.079,0.102-0.266,0.267-0.258c-0.026-0.034-0.053-0.07-0.08-0.104c0.048-0.06,0.095-0.12,0.141-0.181
						c-0.037,0.005-0.111,0.012-0.149,0.015c0.064-0.154,0.14-0.309,0.259-0.429c-0.011-0.085-0.023-0.17-0.027-0.257
						c0.074-0.075,0.162-0.135,0.236-0.208c-0.105,0.119,0.034,0.186,0.124,0.256c-0.006-0.058-0.021-0.174-0.025-0.23
						c0.04,0.08,0.047,0.17,0.062,0.258c-0.084,0.218-0.134,0.447-0.215,0.665c-0.037-0.006-0.113-0.016-0.151-0.021
						c0.071-0.106,0.142-0.251-0.008-0.326c-0.033,0.021-0.1,0.061-0.132,0.082c0.037,0.014,0.111,0.042,0.149,0.057
						c-0.067,0.127-0.091,0.268-0.022,0.402c0.028-0.032,0.086-0.093,0.114-0.124c0.007,0.05,0.02,0.149,0.027,0.2
						c0.088-0.109,0.162-0.229,0.238-0.345c-0.206-0.197,0.186-0.307,0.096-0.521c0.043-0.078,0.088-0.157,0.14-0.23
						c-0.02,0.107-0.045,0.21-0.062,0.317c0.138-0.174,0.17-0.397,0.272-0.589c-0.086,0.108-0.17,0.217-0.255,0.325
						c0.051-0.141,0.132-0.277,0.14-0.431c0.031-0.326,0.166-0.626,0.256-0.934c-0.097,0.121-0.146,0.27-0.211,0.406
						c-0.071,0.167-0.203,0.299-0.271,0.469c-0.003-0.017-0.01-0.051-0.012-0.068c0.112-0.128,0.088-0.308,0.128-0.462l-0.151,0.146
						c0.018-0.046,0.049-0.132,0.065-0.179c-0.073,0.002-0.145,0.004-0.217,0.01c0.051-0.136,0.092-0.273,0.131-0.413
						c-0.042-0.054-0.083-0.108-0.12-0.165c0.014-0.157,0.086-0.306,0.121-0.461c0.021,0.038,0.062,0.112,0.083,0.148
						c-0.015-0.048-0.043-0.141-0.059-0.188c0.034-0.006,0.104-0.02,0.138-0.023c-0.033-0.003-0.101-0.006-0.133-0.006
						c0.094-0.23,0.186-0.466,0.22-0.714c0.057-0.336,0.217-0.639,0.394-0.926c0.075-0.04,0.153-0.08,0.23-0.122
						c0.114-0.04,0.283,0.036,0.346-0.102C56.692,79.672,56.771,79.661,56.812,79.658z M57.18,82.499
						c-0.111,0.306-0.228,0.607-0.384,0.893c-0.22,0.352-0.178,0.79-0.326,1.166c-0.123,0.323-0.185,0.665-0.263,1.005
						c0.579-0.113,1.074-0.441,1.632-0.611c-0.097-0.424-0.287-0.829-0.298-1.266C57.341,83.314,57.446,82.837,57.18,82.499z
						 M55.195,83.848c0.03,0.002,0.09,0.01,0.119,0.012C55.369,83.704,55.102,83.67,55.195,83.848z M57.59,85.071
						c-0.156,0.131-0.374,0.151-0.521,0.291c0.068-0.007,0.206-0.02,0.275-0.024l-0.004,0.016c-0.099,0.048-0.195,0.099-0.295,0.142
						c0.06,0.04,0.12,0.08,0.178,0.122l-0.111,0.072c0.206-0.069,0.399-0.169,0.601-0.251c0.031,0.034,0.062,0.071,0.091,0.103
						h-0.101l0.037,0.082c-0.051,0.056-0.1,0.109-0.149,0.163c0.137-0.061,0.27-0.129,0.405-0.191
						c-0.015-0.061-0.028-0.122-0.042-0.182l-0.116,0.029c0.031-0.048,0.064-0.097,0.097-0.143c-0.03-0.107-0.061-0.215-0.091-0.321
						C57.758,85.011,57.674,85.041,57.59,85.071z M53.864,89.281"/>
				</g>
				<g>
					<path fill="#A01C1C" d="M68.828,79.095c0.13-0.013,0.26-0.033,0.385-0.078c0.357,0.426,0.433,1.004,0.48,1.539
						c0.027,0.494,0.045,0.99,0.055,1.486c0.026,0.548,0.103,1.096,0.152,1.642c0.414-0.054,0.793-0.256,1.213-0.276
						c0.229-0.021,0.454,0.024,0.682,0.047c0.035-0.446,0.047-0.902,0.218-1.321c0.03,0.018,0.093,0.06,0.123,0.079
						c0.03-0.094,0.058-0.188,0.083-0.284c-0.046-0.128-0.044-0.27-0.041-0.405c-0.024-0.005-0.074-0.019-0.098-0.024
						c0.209,0.038,0.144-0.176,0.146-0.304c0.023,0.058,0.047,0.116,0.069,0.176c0.018-0.084,0.039-0.164,0.064-0.244
						c0.015,0.127,0.017,0.256,0.021,0.384c0.032,0.023,0.094,0.069,0.126,0.092c-0.073,0.093-0.141,0.189-0.124,0.315
						c-0.053,0.025-0.107,0.049-0.161,0.074c0.005,0.074,0.011,0.146,0.018,0.221c0.106,0.001,0.178,0.073,0.245,0.146
						c0.021-0.081,0.041-0.164,0.062-0.244l0.064,0.066c0.034-0.005,0.103-0.02,0.138-0.025c-0.005-0.05-0.016-0.146-0.02-0.193
						c0.026,0.029,0.077,0.092,0.103,0.123c0.04-0.093,0.079-0.186,0.116-0.278c-0.032-0.009-0.096-0.024-0.128-0.032
						c0.002,0.032,0.004,0.1,0.006,0.133l-0.085-0.024l0.043-0.137c-0.053,0.028-0.104,0.058-0.154,0.087
						c-0.021-0.074-0.039-0.148-0.051-0.225l0.083,0.183c0.064-0.139,0.071-0.292,0.083-0.441c0.13-0.006,0.234-0.083,0.33-0.163
						c0.03,0.023,0.093,0.063,0.124,0.086c-0.02,0.031-0.056,0.095-0.074,0.128c0.02,0.001,0.059,0.004,0.079,0.007
						c-0.001-0.108,0-0.217,0.001-0.321c0.022,0.02,0.064,0.065,0.089,0.089c0.02-0.024,0.062-0.072,0.083-0.097
						c0.008,0.042,0.021,0.126,0.03,0.168c0.079-0.096,0.116-0.216,0.168-0.322c0.027-0.027,0.086-0.08,0.113-0.106
						c0.023,0.445-0.01,0.893,0.062,1.334c0.057,0.452,0.029,0.909,0.07,1.362c0.04,0.926,0.156,1.85,0.093,2.778
						c-0.037,0.554,0.046,1.103,0.076,1.655c0.002,0.348,0.054,0.702-0.077,1.036c-0.093,0.005-0.187,0.009-0.275-0.021
						c-0.205-0.058-0.352,0.093-0.492,0.216c-0.033-0.047-0.066-0.094-0.098-0.139c-0.096,0.007-0.19-0.001-0.281-0.026
						c-0.011,0.021-0.032,0.061-0.043,0.084c-0.137-0.051-0.223,0.075-0.328,0.133c-0.01-0.023-0.028-0.066-0.038-0.088
						c-0.188,0.036-0.175-0.215-0.258-0.325l-0.053,0.032c-0.014-0.131-0.042-0.26-0.074-0.384l-0.082,0.023
						c0.007-0.036,0.024-0.108,0.032-0.143l-0.079,0.037c-0.001-0.092-0.001-0.186-0.003-0.279h0.09c0,0.042,0,0.128,0,0.173
						c0.02-0.009,0.058-0.024,0.076-0.03c-0.042-0.14-0.076-0.279-0.09-0.423c-0.007,0.005-0.022,0.012-0.029,0.018
						c-0.015-0.045-0.042-0.133-0.055-0.176c0.034,0,0.104-0.003,0.14-0.003c-0.039-0.009-0.118-0.025-0.158-0.033
						c0.04-0.035,0.078-0.072,0.119-0.108c-0.057-0.118-0.081-0.246-0.065-0.377c-0.129-0.834-0.146-1.685-0.19-2.528
						c-0.072,0.05-0.132,0.116-0.207,0.16c-0.295,0.035-0.598,0.019-0.884,0.106c-0.198,0.057-0.383,0.148-0.568,0.233
						c-0.09,0.588-0.033,1.182,0.03,1.767c0.017,0.669,0.017,1.341,0.029,2.009c-0.089,0.016-0.163,0.061-0.238,0.11
						c-0.06-0.065-0.121-0.131-0.178-0.196c-0.011,0.086-0.021,0.172-0.031,0.258c-0.046-0.107-0.092-0.217-0.136-0.325
						c-0.026,0.016-0.076,0.053-0.101,0.072c-0.003,0.136-0.015,0.271-0.032,0.407c-0.067-0.021-0.134-0.042-0.201-0.061
						c-0.059,0.066-0.117,0.127-0.176,0.191c-0.036-0.162-0.063-0.327-0.074-0.493c-0.02,0.107-0.034,0.216-0.052,0.325
						c-0.054,0.012-0.157,0.035-0.21,0.048c-0.014-0.116-0.025-0.229-0.044-0.342c-0.001,0.142,0.007,0.284,0.015,0.426
						c-0.086-0.001-0.17-0.003-0.256,0c-0.091-0.174-0.171-0.353-0.259-0.528c-0.005,0.107-0.005,0.213-0.001,0.319L68.065,89.1
						c0.019-0.399-0.084-0.784-0.127-1.18c-0.028-0.711-0.024-1.424-0.127-2.128c0.006-0.493-0.088-0.984-0.055-1.479
						c-0.013-0.457-0.028-0.918,0.051-1.371c-0.075-0.566,0.018-1.141-0.082-1.702c0.001-0.514-0.199-1.026-0.02-1.53
						c0.136-0.056,0.146-0.207,0.204-0.321c0.168-0.156,0.421-0.134,0.606-0.261C68.62,79.124,68.727,79.12,68.828,79.095z
						 M73.294,81.479 M73.155,82.51c0.003-0.062,0.01-0.188,0.013-0.252c0.016,0.047,0.048,0.14,0.063,0.187
						c0.004-0.09,0.002-0.182,0.016-0.271l0.015-0.044c0.019-0.078,0.033-0.16,0.045-0.242c0.027,0.034,0.085,0.102,0.113,0.134
						l-0.037-0.138l0.127,0.006l-0.031,0.117l0.059-0.021c-0.009-0.04-0.028-0.122-0.039-0.163l-0.062,0.054
						c-0.008-0.024-0.023-0.075-0.03-0.099c-0.044,0.009-0.128,0.031-0.171,0.041c0,0.079-0.004,0.154-0.015,0.232
						c-0.035-0.124-0.047-0.251-0.064-0.377C72.98,81.921,73.058,82.25,73.155,82.51z M69.658,88.611
						c0.054,0.074,0.037,0.259,0.157,0.243c0.042-0.079,0.05-0.166,0.022-0.255C69.777,88.599,69.718,88.606,69.658,88.611z"/>
				</g>
				<g>
					<path fill="#A01C1C" d="M77.673,78.726c0.095-0.055,0.202-0.072,0.31-0.055c0.133,0.078,0.274,0.145,0.428,0.16
						c0.025,0.014,0.074,0.038,0.099,0.051c-0.028-0.088-0.055-0.178-0.081-0.268c0.202,0.096,0.328,0.308,0.547,0.376
						c0.125,0.197,0.264,0.386,0.384,0.586c0.139,0.342,0.39,0.618,0.563,0.941c0.251,0.343,0.311,0.773,0.434,1.169
						c0.121,0.429,0.232,0.858,0.384,1.276c0.091,0.459,0.212,0.909,0.329,1.358c0.104,0.317,0.222,0.63,0.273,0.96
						c0.098,0.625,0.346,1.215,0.466,1.834c0.082,0.356,0.098,0.726,0.21,1.075c0.103,0.354-0.202,0.697-0.546,0.734
						c-0.072,0.019-0.147,0.032-0.218,0.047v-0.081c-0.078,0.042-0.155,0.083-0.233,0.119c-0.018-0.042-0.051-0.13-0.067-0.173
						c-0.049,0.04-0.098,0.078-0.147,0.115l-0.064-0.119c-0.013,0.043-0.036,0.124-0.049,0.163
						c-0.124-0.041-0.182,0.007-0.167,0.135c-0.098-0.092-0.194-0.185-0.277-0.291c-0.005,0.046-0.016,0.141-0.021,0.188
						c-0.069-0.07-0.074-0.229-0.19-0.229c-0.016,0.03-0.048,0.09-0.063,0.121c-0.21-0.439-0.239-0.93-0.367-1.391
						c-0.123-0.537-0.278-1.066-0.398-1.601c-0.461,0.198-0.939,0.382-1.45,0.378c-0.346-0.013-0.682,0.093-1.028,0.088
						c-0.08,0.422-0.076,0.86-0.234,1.263c-0.07,0.236-0.059,0.488-0.134,0.724c-0.066,0.222-0.054,0.457-0.102,0.684
						c-0.109,0.219-0.336,0.34-0.567,0.388c-0.102-0.044-0.209-0.1-0.321-0.042c-0.155-0.08-0.284-0.199-0.42-0.307
						c-0.009,0.044-0.027,0.131-0.036,0.173c-0.148-0.096-0.26-0.245-0.429-0.307c-0.072-0.016-0.142-0.042-0.213-0.06
						c-0.027,0.028-0.084,0.085-0.111,0.115c0.003-0.188,0.003-0.373,0.027-0.558c0.032,0.051,0.064,0.104,0.096,0.155l-0.019-0.067
						c0.031,0.004,0.092,0.011,0.124,0.018c0.022-0.165,0.057-0.332,0.029-0.499c0.032-0.045,0.097-0.136,0.128-0.182
						c0.001,0.062,0.003,0.184,0.004,0.248c0.066-0.159,0.069-0.341,0.032-0.504l0.1,0.12l0.015-0.147
						c0.024,0.032,0.072,0.093,0.097,0.124c0.022-0.092,0.046-0.18,0.069-0.269c-0.047,0.036-0.139,0.112-0.184,0.147
						c-0.002-0.129,0.096-0.275,0.003-0.391c0.017-0.132,0.039-0.264,0.08-0.391c-0.011-0.063-0.022-0.128-0.034-0.194
						c-0.025,0.123-0.005,0.281-0.17,0.301c0.004-0.137,0.011-0.274,0.021-0.409c0.021,0.043,0.063,0.124,0.085,0.166
						c0.015-0.045,0.043-0.131,0.057-0.175c0.043-0.032,0.086-0.067,0.127-0.101c0.125-0.093,0.044-0.216-0.005-0.328
						c0.069-0.237,0.121-0.485,0.262-0.696c0.099-0.306,0.262-0.586,0.344-0.896c-0.053,0.046-0.156,0.142-0.208,0.189
						c0.03-0.126,0.062-0.253,0.096-0.378c-0.022,0.004-0.065,0.017-0.088,0.023c0.045-0.105,0.06-0.235,0.16-0.305
						c0.126-0.075,0.123-0.286,0.298-0.284c-0.025-0.036-0.053-0.07-0.078-0.106c0.046-0.058,0.094-0.118,0.141-0.176
						c-0.039,0.003-0.114,0.008-0.15,0.011c0.063-0.157,0.139-0.308,0.258-0.43c-0.012-0.083-0.024-0.165-0.029-0.253
						c0.075-0.077,0.166-0.143,0.244-0.218c-0.127,0.118,0.026,0.188,0.116,0.263c-0.006-0.059-0.017-0.174-0.022-0.229
						c0.139,0.308-0.088,0.621-0.153,0.921c-0.037-0.006-0.113-0.014-0.15-0.021c0.036-0.081,0.071-0.163,0.104-0.244
						c-0.08-0.054-0.168-0.102-0.251-0.004c0.04,0.015,0.117,0.044,0.155,0.058c-0.068,0.131-0.095,0.272-0.017,0.401
						c0.027-0.03,0.081-0.093,0.108-0.124c0.006,0.053,0.021,0.154,0.027,0.205c0.088-0.109,0.162-0.229,0.237-0.347
						c-0.203-0.193,0.18-0.303,0.096-0.515c0.045-0.055,0.042-0.161,0.121-0.183c-0.004,0.088-0.028,0.173-0.036,0.262
						c0.126-0.176,0.166-0.391,0.263-0.58c-0.069,0.078-0.119,0.178-0.202,0.242c-0.013-0.091,0.052-0.167,0.079-0.247
						c0.012-0.363,0.167-0.697,0.267-1.041c-0.087,0.106-0.134,0.237-0.19,0.359c-0.08,0.194-0.215,0.354-0.319,0.534
						c0.076-0.178,0.124-0.358,0.145-0.549l-0.148,0.146c0.015-0.045,0.045-0.134,0.059-0.179c-0.071,0.004-0.143,0.012-0.218,0.016
						c0.053-0.137,0.094-0.276,0.133-0.416c-0.041-0.063-0.101-0.117-0.123-0.189c0.036-0.148,0.087-0.291,0.125-0.437
						c0.021,0.037,0.064,0.111,0.085,0.149c-0.014-0.047-0.045-0.142-0.06-0.189c0.034-0.006,0.104-0.021,0.14-0.026
						c-0.035-0.002-0.101-0.003-0.135-0.003c0.196-0.387,0.2-0.834,0.38-1.223c0.055-0.15,0.171-0.269,0.23-0.418
						c0.078-0.039,0.156-0.08,0.232-0.121c0.115-0.04,0.286,0.037,0.349-0.103C77.557,78.737,77.635,78.729,77.673,78.726z
						 M77.658,82.46c-0.219,0.351-0.178,0.786-0.326,1.161c-0.123,0.325-0.186,0.669-0.264,1.008
						c0.579-0.113,1.077-0.438,1.632-0.613c-0.096-0.422-0.286-0.823-0.298-1.263c-0.192-0.373-0.109-0.835-0.347-1.189
						C77.92,81.859,77.82,82.173,77.658,82.46z M76.057,82.911c0.029,0.008,0.09,0.013,0.12,0.018
						c0.013-0.082-0.021-0.132-0.098-0.145C76.073,82.814,76.062,82.878,76.057,82.911z M78.449,84.141
						c-0.158,0.126-0.374,0.151-0.521,0.288c0.076-0.007,0.228-0.022,0.303-0.029c-0.104,0.058-0.206,0.115-0.316,0.155
						c0.064,0.046,0.126,0.096,0.149,0.175c0.208-0.097,0.418-0.193,0.638-0.262c-0.031,0.051-0.095,0.145-0.127,0.192l0.035,0.021
						c-0.053,0.056-0.106,0.115-0.156,0.173c0.136-0.06,0.268-0.128,0.402-0.191c-0.011-0.051-0.021-0.102-0.03-0.155
						c-0.043-0.028-0.086-0.061-0.128-0.09l0.107-0.012c-0.033-0.121-0.066-0.243-0.104-0.363
						C78.617,84.074,78.533,84.108,78.449,84.141z M74.727,88.339"/>
				</g>
				<path fill="#A01C1C" d="M49.453,80.293c0.331-0.13,0.685-0.164,1.028-0.256c0.152-0.029,0.172,0.18,0.242,0.271
					c0.005-0.089,0.005-0.182,0.013-0.271c0.087-0.009,0.175-0.011,0.264-0.009c0.038,0.092,0.08,0.18,0.109,0.274
					c0.032-0.024,0.064-0.046,0.097-0.068c0.137-0.009,0.277-0.021,0.392,0.073c-0.121,0.037-0.244,0.066-0.364,0.113
					c0.132,0.004,0.26-0.008,0.387-0.017c0.067,0.04,0.142,0.064,0.22,0.071c-0.002,0.018-0.008,0.054-0.011,0.071
					c0.345-0.023,0.691-0.042,1.031-0.102c0.119-0.011,0.178-0.132,0.264-0.198c0.198-0.084,0.413-0.118,0.625-0.152
					c-0.076,0.04-0.153,0.08-0.23,0.122c0.127,0.035,0.256,0.067,0.384,0.105c0.025,0.067,0.05,0.13,0.076,0.195
					c0.036-0.021,0.104-0.067,0.14-0.089c0.032,0.037,0.095,0.112,0.127,0.148c-0.068-0.016-0.135-0.041-0.205-0.056
					c0.157,0.328,0.202,0.691,0.2,1.052c-0.035,0.088-0.09,0.188-0.187,0.22c-0.311,0.104-0.64,0.141-0.944,0.263
					c-0.196,0.011-0.388-0.052-0.584-0.05c-0.381,0.007-0.763,0.039-1.145,0.045c0.055,0.143,0.048,0.297,0.039,0.449
					c0.013,0.453-0.024,0.907,0.03,1.359c0.493-0.113,1.005-0.06,1.506-0.099c0.306-0.001,0.61-0.062,0.917-0.047
					c-0.005,0.021-0.017,0.062-0.022,0.079c-0.046,0.032-0.139,0.099-0.185,0.133c0.087,0.064,0.187,0.098,0.295,0.101
					c0.028,0.088-0.004,0.179-0.02,0.266c0.026,0.211,0.07,0.419,0.126,0.624c-0.045,0.054-0.09,0.108-0.139,0.161
					c-0.019,0.113-0.053,0.225-0.088,0.334c-0.038,0.004-0.114,0.015-0.152,0.021c0.018,0.027,0.054,0.087,0.071,0.115
					c-0.129-0.006-0.256-0.017-0.383-0.035c-0.188,0.066-0.386,0.102-0.579,0.146c-0.478,0.093-1.015-0.116-1.451,0.158
					c-0.004,0.376,0.021,0.755,0.045,1.131c0.071,0.367,0.093,0.742,0.074,1.118c0.042,0.704-0.008,1.408-0.098,2.107
					c-0.027,0.196,0.001,0.397-0.045,0.59c-0.029-0.047-0.086-0.142-0.114-0.189c-0.017,0.084-0.035,0.165-0.058,0.244
					c-0.034-0.02-0.102-0.065-0.136-0.09l0.005,0.096c-0.098-0.085-0.221-0.082-0.342-0.079c0.034-0.042,0.069-0.086,0.105-0.129
					l0.108,0.077c-0.007-0.032-0.021-0.094-0.026-0.125c0.083-0.033,0.164-0.071,0.243-0.11c-0.017-0.03-0.05-0.088-0.066-0.116
					c-0.03,0.053-0.059,0.109-0.089,0.164c0.001-0.151-0.137-0.115-0.226-0.14c-0.143-0.063-0.291-0.009-0.425,0.048
					c0.032,0.113,0.064,0.226,0.096,0.339c-0.023-0.008-0.072-0.024-0.097-0.035C50.3,90.625,50.3,90.534,50.3,90.443
					c-0.13-0.062-0.24-0.147-0.225-0.306c-0.027,0.063-0.056,0.124-0.086,0.186c-0.086-0.056-0.229-0.089-0.23-0.214
					c0.002-0.234-0.041-0.464-0.095-0.687c-0.167,0.169-0.063,0.431-0.123,0.646c-0.017-0.102-0.034-0.202-0.055-0.301
					c-0.009-0.062-0.029-0.18-0.038-0.239c-0.065,0.218-0.003,0.444-0.019,0.668c-0.075-0.435-0.065-0.883-0.077-1.323
					c0.051-0.669-0.01-1.336,0.038-2.007c0.022,0.012,0.067,0.037,0.09,0.048c-0.032,0.148-0.056,0.298,0.098,0.384
					c0.12-0.086,0.256-0.191,0.415-0.148c0.02-0.422-0.009-0.841-0.028-1.264c-0.061,0.098-0.11,0.199-0.16,0.303
					c-0.028-0.205-0.045-0.411-0.054-0.617c-0.081,0.018-0.145-0.004-0.194-0.067c-0.021,0.006-0.062,0.02-0.083,0.024
					c-0.008-0.056-0.023-0.163-0.031-0.217l-0.071,0.061c-0.017-0.391-0.039-0.8,0.081-1.178c-0.041-0.277,0.007-0.563-0.074-0.833
					c-0.125-0.483-0.183-0.987-0.104-1.482c0.09-0.479,0.007-0.974,0.12-1.45C49.41,80.396,49.438,80.328,49.453,80.293z"/>
				<path fill="#A01C1C" d="M57.308,85.446l0.031-0.031l0.049,0.023l-0.001,0.052l-0.05,0.028
					C57.33,85.499,57.314,85.465,57.308,85.446z"/>
				<path fill="#A01C1C" d="M78.168,84.513l0.033-0.031l0.049,0.023v0.056l-0.051,0.023C78.19,84.567,78.176,84.53,78.168,84.513z"
					/>
				<path fill="#A01C1C" d="M53.452,88.945c0.107,0.111,0.072,0.294-0.001,0.412c-0.046,0.094-0.198-0.067-0.071-0.124
					C53.401,89.136,53.427,89.041,53.452,88.945z"/>
				<path fill="#A01C1C" d="M74.314,88.011c0.106,0.114,0.07,0.294,0,0.414c-0.047,0.093-0.199-0.072-0.073-0.127
					C74.264,88.204,74.288,88.106,74.314,88.011z"/>
			</g>
		</g>
	</g>
</g>
<g>
	<path fill="#A01C1C" d="M20.01,93.332l0.582,0.035l0.293,0.072l0.231,0.152l0.179,0.195l0.085,0.167l0.061,0.297l-0.018,0.265
		l-0.047,0.196l-0.077,0.172l-0.286,0.341l-0.045,0.076l-0.005,0.112l0.115,0.27l0.408,0.616l0.114,0.262l0.011,0.089l-0.062,0.1
		l-0.103,0.028l-0.164-0.082l-0.066-0.064l-0.11-0.141l-0.188-0.317L20.85,96.11l-0.393-0.623l-0.067-0.055l-0.09-0.036
		l-0.201-0.043l-0.114-0.004l-0.216,0.042l-0.174,0.078l-0.035,0.213l-0.002,0.119l0.018,0.105l0.025,0.711l-0.037,0.09
		l-0.055,0.063l-0.096,0.044l-0.089-0.028l-0.073-0.055l-0.064-0.193l-0.055-0.431l0.012-0.137l0.029-0.099l0.004-0.115
		l-0.048-0.215l0.015-0.227l-0.03-0.36l0.028-0.431l-0.022-0.121l-0.021-0.354l0.019-0.351l0.068-0.178l0.061-0.073l0.072-0.052
		l0.216-0.042l0.371-0.005C19.937,93.35,19.973,93.344,20.01,93.332z M19.869,93.709l-0.144,0.045l-0.1,0.075l-0.07,0.107
		l-0.032,0.492l0.028,0.316l0.062,0.126l0.101,0.077l0.337-0.012l0.163,0.02l0.314-0.011l0.143-0.046l0.221-0.139l0.076-0.105
		l0.094-0.32l-0.04-0.256l-0.07-0.11l-0.183-0.171l-0.122-0.054l-0.373-0.05l-0.082,0.018L19.869,93.709z"/>
	<path fill="#A01C1C" d="M22.783,93.235l0.411-0.009l0.186,0.026l0.29-0.044l0.549,0.023l0.108,0.028l0.098,0.054l0.051,0.086
		l-0.012,0.113l-0.079,0.068l-0.223,0.047l-0.679,0.015l-0.12,0.031l-0.034-0.007l-0.337,0.027l-0.086,0.052l-0.062,0.092
		l-0.027,0.104l-0.017,0.251l0.02,0.097l-0.016,0.023l0.026,0.234l0.043,0.103l0.074,0.064l0.318,0.06l0.314-0.011l0.129,0.012
		l0.121-0.021l0.129,0.014l0.1,0.044l0.066,0.068c0.02,0.032,0.033,0.072,0.038,0.114l-0.063,0.091l-0.095,0.043l-0.12-0.005
		l-0.128,0.022l-0.678,0.047l-0.104,0.037l-0.045,0.101l-0.05,0.363l0.005,0.388l0.047,0.225l0.074,0.06l0.222,0.05l0.159-0.028
		l0.083,0.011l0.273,0.008l0.226-0.024l0.404,0.025l0.107,0.062l0.035,0.113l-0.044,0.099l-0.101,0.042l-1.022,0.101l-0.284-0.021
		l-0.17,0.015l-0.201-0.032l-0.099-0.055l-0.069-0.072l-0.043-0.101l-0.036-0.776l-0.021-0.118l0.041-0.228l-0.027-0.104
		l0.028-0.364l-0.046-0.388l0.047-0.228l-0.011-0.136l0.025-0.156l-0.045-0.571l0.054-0.113l0.08-0.068l0.11-0.026L22.783,93.235z"
		/>
	<path fill="#A01C1C" d="M26.51,93.104l0.203,0.023l0.081,0.037l0.06,0.046l0.11,0.125l0.157,0.312l0.051,0.304l0.034,0.079
		l0.046,0.185l0.079,0.15l0.003,0.088l0.065,0.264l0.071,0.161l0.274,0.896l0.029,0.184l0.063,0.175l0.032,0.185l-0.005,0.081
		l0.018,0.07l-0.06,0.107l-0.073,0.051l-0.062,0.011l-0.099-0.054l-0.068-0.054l-0.086-0.14l-0.074-0.28l-0.229-0.584l-0.127-0.101
		l-0.509-0.027l-0.217,0.014l-0.078,0.036l-0.064,0.051l-0.047,0.065l-0.042,0.186L26,95.817L25.934,96.2l-0.037,0.072l-0.014,0.098
		l-0.091,0.131l-0.022,0.098l-0.052,0.06l-0.098,0.012l-0.075-0.037l-0.056-0.055l-0.037-0.079l-0.018-0.104l0.122-0.441
		l0.001-0.089l0.042-0.178l0.018-0.213l0.286-1.058l0.013-0.097l0.057-0.172l0.098-0.458l0.06-0.171l0.149-0.304l0.064-0.051
		L26.51,93.104z M26.562,93.689l-0.052,0.073l-0.252,1.108l0.024,0.056l0.098,0.021l0.468-0.017l0.087-0.034l0.014-0.107
		l-0.012-0.11l-0.035-0.096l-0.021-0.104l-0.137-0.48l-0.08-0.174l-0.019-0.105C26.62,93.705,26.594,93.697,26.562,93.689z"/>
	<path fill="#A01C1C" d="M28.881,93.061l0.139,0.042l0.083,0.11l0.053,0.135l0.015,0.169l-0.026,0.162l0.027,1.011l0.047,0.232
		l-0.043,0.629l0.072,0.417c0.013,0.043,0.037,0.079,0.07,0.111l0.139,0.044l0.928-0.001l0.244,0.023
		c0.037,0.005,0.081,0.024,0.13,0.061l0.045,0.136l-0.085,0.107l-0.136,0.046l-0.161,0.028l-0.651,0.062l-0.161-0.008l-0.08,0.008
		l-0.269-0.005l-0.291-0.069l-0.095-0.094l-0.067-0.12l-0.046-0.837l0.02-0.161l-0.053-0.775l0.015-0.104l-0.022-0.131l0.02-0.19
		l-0.052-0.484l-0.005-0.38l0.077-0.108L28.881,93.061z"/>
	<path fill="#A01C1C" d="M35.332,92.792l0.41-0.01l0.187,0.029l0.289-0.045l0.549,0.023l0.107,0.027l0.098,0.055l0.052,0.086
		l-0.012,0.111l-0.079,0.068l-0.224,0.048l-0.679,0.017l-0.119,0.029l-0.034-0.007l-0.336,0.028l-0.087,0.053l-0.062,0.09
		l-0.027,0.104l-0.017,0.252l0.02,0.097l-0.016,0.022l0.026,0.234l0.043,0.104l0.074,0.064l0.318,0.059l0.314-0.011l0.129,0.012
		l0.122-0.021l0.128,0.012l0.099,0.046l0.065,0.068c0.021,0.03,0.034,0.072,0.038,0.113l-0.062,0.091l-0.095,0.044l-0.12-0.005
		l-0.128,0.021l-0.678,0.048l-0.104,0.038l-0.045,0.099l-0.05,0.364l0.005,0.389l0.048,0.224l0.072,0.061l0.223,0.05l0.159-0.029
		l0.082,0.011l0.274,0.009l0.225-0.026l0.404,0.027l0.107,0.061l0.035,0.112l-0.045,0.1l-0.101,0.043l-1.021,0.1l-0.284-0.021
		l-0.17,0.015l-0.202-0.033l-0.099-0.054l-0.068-0.072l-0.043-0.101l-0.036-0.775l-0.021-0.12l0.041-0.227l-0.026-0.105l0.028-0.363
		l-0.045-0.387l0.046-0.228l-0.011-0.136l0.026-0.156l-0.046-0.571l0.053-0.114l0.081-0.067l0.11-0.028L35.332,92.792z"/>
	<path fill="#A01C1C" d="M42.178,92.612l0.112,0.022l0.128,0.141L42.467,93l0.009,1.404l0.019,0.12l0.038,0.096l-0.022,0.105
		l0.022,0.12l-0.025,0.172l0.006,0.022l-0.009,0.163l0.03,0.199l0.002,0.459l-0.044,0.125l-0.064,0.064l-0.12-0.009l-0.084-0.046
		l-0.051-0.087l-0.027-0.104l-0.042-0.467l-0.012-0.574l0.026-0.226l-0.091-0.947l0.004-0.283l-0.012-0.35l0.026-0.209l0.045-0.093
		L42.178,92.612z"/>
	<path fill="#A01C1C" d="M44.484,92.483l0.117,0.053l0.492,0.668l0.053,0.121l0.126,0.195l0.053,0.112l0.65,1.02l0.083,0.077
		l0.087-0.06l-0.011-0.296l0.022-0.126l0.002-0.312l-0.033-0.305l0.026-0.132l-0.033-0.274l0.017-0.169l-0.01-0.283l0.02-0.176
		l0.068-0.092l0.047-0.027l0.09,0.006c0.038,0.013,0.067,0.041,0.09,0.077l0.045,0.121l0.063,0.423l0.003,0.326l-0.027,0.138
		l-0.001,0.434l0.03,0.137l-0.012,0.494l0.019,0.145l0.034,0.733l-0.06,0.292l-0.113,0.055l-0.113-0.055l-0.1-0.07l-0.085-0.076
		l-0.052-0.11l-0.333-0.499l-0.044-0.128l-0.144-0.188l-0.053-0.109l-0.356-0.474l-0.053-0.117l-0.119-0.207l-0.099-0.068
		c-0.026-0.024-0.062-0.038-0.107-0.036l-0.026,0.13l-0.007,0.283l0.01,0.021l-0.019,0.138l0.006,0.163l-0.021,0.146l0.008,0.45
		l-0.009,0.147l0.036,0.135l0.004,0.129l-0.02,0.178l-0.035,0.133l-0.06,0.099l-0.047,0.033l-0.083-0.006l-0.083-0.077l-0.051-0.113
		l-0.035-0.312l0.018-0.139l0.002-0.46l-0.072-0.677l0.017-0.178l-0.045-0.612l0.017-0.179l-0.049-0.248l0.017-0.015l0.056-0.268
		l0.077-0.095L44.484,92.483z"/>
	<path fill="#A01C1C" d="M48.229,92.337l0.349,0.02l0.317,0.068l0.124,0.07l0.107,0.085l0.279,0.312l0.076,0.116l0.133,0.271
		l0.149,0.852l-0.006,0.322l-0.085,0.519l-0.122,0.264l-0.151,0.238l-0.093,0.109L49.1,95.767l-0.243,0.146l-0.354,0.053
		l-0.169-0.018l-0.518-0.006l-0.195-0.025l-0.123-0.077l-0.062-0.134l-0.015-0.186l0.012-0.162l-0.034-0.481l0.016-0.906
		l-0.022-0.159l-0.026-0.088l0.021-0.066l-0.059-0.498l0.038-0.558c0.012-0.046,0.034-0.087,0.067-0.125l0.138-0.068l0.312-0.053
		c0.062,0,0.116-0.001,0.165-0.003C48.128,92.35,48.189,92.345,48.229,92.337z M48.368,92.815l-0.379,0.03l-0.087,0.051
		l-0.062,0.074l-0.034,0.181l0.011,0.023l-0.011,1.331l0.041,0.248l0.008,0.623l0.043,0.097l0.082,0.05l0.124,0.022l0.48-0.026
		l0.123-0.021l0.197-0.079l0.167-0.12l0.069-0.073l0.118-0.286l0.014-0.122l0.106-0.448l0.007-0.219L49.355,94l0.008-0.13
		l-0.03-0.241l-0.16-0.383l-0.06-0.087l-0.21-0.208l-0.18-0.092L48.368,92.815z"/>
	<path fill="#A01C1C" d="M51.019,92.238l0.41-0.009l0.186,0.028l0.291-0.045l0.549,0.022l0.106,0.028l0.1,0.055l0.051,0.086
		l-0.014,0.111l-0.077,0.069l-0.223,0.048l-0.68,0.016l-0.119,0.03l-0.034-0.008l-0.336,0.028l-0.087,0.053l-0.062,0.09
		l-0.029,0.104l-0.016,0.252l0.02,0.096l-0.016,0.025l0.025,0.231l0.043,0.105l0.074,0.062l0.319,0.061l0.313-0.012l0.129,0.013
		l0.121-0.021l0.13,0.014l0.099,0.045l0.066,0.068c0.02,0.03,0.032,0.071,0.037,0.113l-0.062,0.09l-0.097,0.044l-0.119-0.004
		l-0.127,0.021l-0.679,0.047l-0.104,0.039l-0.045,0.097l-0.05,0.365l0.005,0.389l0.048,0.224l0.074,0.061l0.22,0.049l0.161-0.028
		l0.082,0.011l0.274,0.009l0.226-0.026l0.402,0.026l0.108,0.062l0.036,0.112l-0.046,0.099l-0.102,0.045l-1.021,0.098l-0.283-0.021
		l-0.171,0.015l-0.201-0.033l-0.099-0.054l-0.068-0.072l-0.043-0.101l-0.036-0.774l-0.021-0.121l0.04-0.228l-0.026-0.104
		l0.027-0.363l-0.045-0.386l0.046-0.228l-0.011-0.137l0.026-0.156L50.67,92.49l0.053-0.113l0.081-0.067l0.109-0.028L51.019,92.238z"
		/>
	<path fill="#A01C1C" d="M54.205,92.012l0.081,0.015l0.26-0.01l0.096-0.021l0.056,0.025l0.17-0.031l0.354,0.012l0.147,0.044
		l0.13,0.058l0.118,0.076l0.2,0.188l0.199,0.382l-0.016,0.549l-0.05,0.138l-0.154,0.226l-0.107,0.092l-0.248,0.138L55.3,93.943
		l-0.178,0.007l-0.171,0.029l-0.143-0.002l-0.2,0.03l-0.147-0.003l-0.192,0.048c-0.046,0.002-0.093,0.016-0.144,0.044l-0.03,0.05
		l0.013,0.105l-0.062,0.129l0.023,0.164l-0.003,0.146l0.036,0.295l-0.026,0.26L54.042,95.4l-0.084,0.107L53.87,95.52l-0.06-0.038
		l-0.084-0.111l-0.028-0.327l0.007-0.034l-0.047-0.468l0.012-0.058l-0.044-0.829l0.013-0.062l-0.004-0.124l-0.037-0.148l0.015-0.067
		l-0.018-0.517l-0.023-0.152l0.024-0.227l0.043-0.147l0.087-0.106l0.142-0.053l0.178-0.023l0.081,0.006L54.205,92.012z
		 M54.445,92.432l-0.312,0.043l-0.086,0.091l-0.021,0.155l0.045,0.299l-0.022,0.314l0.055,0.175l0.1,0.071l0.154,0.024l0.226-0.023
		l0.168,0.02l0.074-0.028l0.312-0.02l0.162-0.047l0.117-0.062l0.085-0.09l0.071-0.106l0.037-0.317l-0.015-0.151l-0.045-0.136
		l-0.077-0.11l-0.1-0.068l-0.21-0.059l-0.396,0.045L54.445,92.432z"/>
	<path fill="#A01C1C" d="M57.292,92.017l0.411-0.009l0.188,0.029l0.29-0.045l0.548,0.022l0.106,0.028l0.1,0.054l0.052,0.087
		l-0.014,0.112l-0.078,0.066l-0.224,0.049l-0.679,0.016l-0.118,0.029l-0.035-0.007l-0.335,0.028l-0.088,0.053l-0.062,0.09
		l-0.029,0.104l-0.016,0.251l0.02,0.097l-0.015,0.023l0.024,0.233l0.043,0.104l0.074,0.064l0.319,0.059l0.313-0.01l0.129,0.012
		l0.121-0.021l0.129,0.013l0.1,0.044l0.066,0.069c0.02,0.031,0.032,0.07,0.037,0.113l-0.062,0.092l-0.096,0.043l-0.12-0.006
		l-0.127,0.021l-0.678,0.048l-0.104,0.036l-0.046,0.101l-0.05,0.363l0.006,0.39l0.047,0.224l0.074,0.061l0.221,0.05l0.16-0.029
		l0.082,0.012l0.275,0.007l0.224-0.025l0.404,0.025l0.108,0.062l0.035,0.113l-0.046,0.1l-0.102,0.044l-1.021,0.099l-0.284-0.021
		l-0.17,0.014l-0.201-0.032l-0.1-0.054l-0.068-0.072l-0.043-0.101l-0.037-0.775l-0.021-0.12l0.04-0.227l-0.025-0.104l0.026-0.364
		L56.93,93.36l0.046-0.227l-0.012-0.137l0.027-0.155l-0.046-0.572l0.053-0.113l0.08-0.069l0.11-0.026L57.292,92.017z"/>
	<path fill="#A01C1C" d="M60.17,91.93l0.117,0.054l0.491,0.667l0.054,0.121l0.127,0.195l0.052,0.113l0.65,1.02l0.082,0.076
		l0.087-0.061l-0.011-0.295l0.021-0.125l0.003-0.313l-0.033-0.305l0.026-0.132l-0.031-0.272l0.016-0.17l-0.01-0.282l0.021-0.178
		l0.068-0.092l0.047-0.026l0.088,0.005c0.038,0.013,0.067,0.04,0.092,0.076l0.044,0.122l0.063,0.423l0.004,0.325l-0.027,0.139
		l-0.001,0.435l0.029,0.135l-0.015,0.495l0.021,0.146l0.034,0.731l-0.061,0.294l-0.112,0.053l-0.114-0.054l-0.099-0.07l-0.086-0.076
		l-0.052-0.11l-0.333-0.5l-0.044-0.126l-0.143-0.189l-0.054-0.109l-0.355-0.472l-0.053-0.119l-0.119-0.208l-0.101-0.067
		c-0.026-0.024-0.061-0.037-0.106-0.036l-0.026,0.129l-0.008,0.283l0.01,0.022l-0.019,0.138l0.006,0.163l-0.02,0.146l0.007,0.451
		l-0.01,0.146l0.037,0.135l0.005,0.129l-0.02,0.177l-0.036,0.133l-0.06,0.1l-0.047,0.032l-0.083-0.005l-0.083-0.077l-0.053-0.112
		l-0.032-0.313l0.017-0.138v-0.459l-0.071-0.678l0.016-0.179l-0.044-0.611l0.018-0.178l-0.05-0.25l0.018-0.014l0.056-0.268
		l0.077-0.095L60.17,91.93z"/>
	<path fill="#A01C1C" d="M63.916,91.783l0.349,0.019l0.315,0.069l0.126,0.07l0.105,0.085l0.279,0.312l0.075,0.117l0.133,0.269
		l0.149,0.853L65.443,93.9l-0.084,0.52l-0.123,0.262l-0.151,0.24l-0.093,0.107l-0.205,0.185l-0.242,0.146l-0.355,0.054l-0.17-0.018
		l-0.518-0.008l-0.194-0.025l-0.123-0.075l-0.062-0.135l-0.016-0.185l0.013-0.165l-0.035-0.48l0.017-0.905l-0.022-0.158
		l-0.026-0.089l0.021-0.065l-0.058-0.498l0.036-0.559c0.013-0.046,0.035-0.088,0.068-0.125l0.138-0.068l0.312-0.053
		c0.062,0,0.117-0.002,0.165-0.004C63.815,91.796,63.875,91.791,63.916,91.783z M64.055,92.262l-0.378,0.03l-0.087,0.051
		l-0.062,0.074l-0.034,0.181l0.009,0.022l-0.01,1.332l0.04,0.249l0.008,0.623l0.043,0.095l0.082,0.052l0.123,0.021l0.482-0.024
		l0.122-0.022l0.196-0.078l0.167-0.119l0.07-0.075l0.117-0.286l0.014-0.12l0.105-0.449l0.007-0.218l-0.027-0.152l0.01-0.129
		l-0.032-0.241l-0.158-0.383l-0.061-0.087l-0.21-0.209l-0.18-0.092L64.055,92.262z"/>
	<path fill="#A01C1C" d="M67.277,91.728l0.111,0.021l0.128,0.142l0.049,0.225l0.01,1.403l0.018,0.121l0.037,0.094l-0.021,0.106
		l0.021,0.12l-0.024,0.172l0.007,0.022l-0.009,0.163l0.03,0.198l0.001,0.46l-0.044,0.125l-0.063,0.064l-0.12-0.01l-0.084-0.047
		l-0.052-0.085l-0.026-0.104l-0.042-0.467l-0.012-0.574l0.025-0.228l-0.09-0.946l0.004-0.283l-0.012-0.348l0.026-0.21l0.046-0.093
		L67.277,91.728z"/>
	<path fill="#A01C1C" d="M69.842,91.575l0.41-0.009l0.188,0.026l0.29-0.044l0.549,0.023l0.106,0.027l0.099,0.053l0.052,0.088
		l-0.014,0.112l-0.077,0.068l-0.225,0.047l-0.678,0.017l-0.12,0.029l-0.034-0.008l-0.335,0.029l-0.088,0.052l-0.062,0.091
		l-0.028,0.104l-0.017,0.253l0.02,0.096l-0.015,0.022l0.024,0.233l0.043,0.105l0.075,0.062l0.319,0.06l0.313-0.01l0.129,0.013
		l0.121-0.022l0.128,0.014l0.1,0.045l0.066,0.068c0.021,0.031,0.033,0.07,0.037,0.114l-0.062,0.09l-0.095,0.043l-0.121-0.004
		l-0.127,0.022l-0.678,0.046l-0.104,0.037l-0.045,0.1l-0.05,0.365l0.005,0.387l0.048,0.225l0.072,0.06l0.222,0.05l0.16-0.028
		l0.082,0.012l0.275,0.007l0.225-0.024l0.403,0.025l0.107,0.062l0.036,0.114l-0.046,0.098l-0.1,0.042l-1.022,0.1l-0.284-0.02
		l-0.17,0.013l-0.201-0.032l-0.1-0.054l-0.067-0.071l-0.044-0.102l-0.036-0.775L69.481,94l0.04-0.227l-0.025-0.105l0.027-0.362
		l-0.046-0.388l0.046-0.228l-0.011-0.137l0.027-0.154l-0.046-0.573l0.053-0.112l0.08-0.069l0.109-0.026L69.842,91.575z"/>
	<path fill="#A01C1C" d="M72.72,91.488l0.117,0.051l0.491,0.669l0.054,0.12l0.126,0.196l0.053,0.112l0.649,1.02l0.082,0.076
		l0.087-0.059l-0.011-0.298l0.022-0.123l0.003-0.314l-0.034-0.305l0.026-0.132l-0.031-0.272l0.016-0.17l-0.01-0.282l0.021-0.178
		l0.067-0.091l0.048-0.027l0.089,0.006c0.037,0.014,0.067,0.04,0.091,0.075l0.045,0.122l0.062,0.423l0.004,0.325l-0.026,0.139
		l-0.003,0.435l0.03,0.136l-0.014,0.495l0.02,0.145l0.035,0.732l-0.062,0.294l-0.112,0.052l-0.112-0.053l-0.101-0.07l-0.085-0.077
		l-0.052-0.109l-0.333-0.5l-0.045-0.127l-0.143-0.189l-0.054-0.108l-0.356-0.474l-0.053-0.118l-0.117-0.207l-0.101-0.067
		c-0.026-0.025-0.062-0.038-0.106-0.036l-0.027,0.13l-0.007,0.282l0.01,0.021l-0.019,0.138l0.005,0.164l-0.02,0.146l0.008,0.451
		L72.939,94.2l0.035,0.136l0.005,0.129l-0.02,0.178l-0.035,0.133l-0.06,0.1l-0.048,0.033l-0.083-0.007l-0.083-0.076L72.6,94.712
		l-0.033-0.313l0.016-0.137l0.002-0.46l-0.072-0.677l0.017-0.178l-0.044-0.612l0.016-0.177l-0.048-0.251l0.017-0.015l0.057-0.268
		l0.076-0.094L72.72,91.488z"/>
	<path fill="#A01C1C" d="M75.988,91.38l0.178,0.013l0.636-0.032l0.243,0.014l0.168-0.028l0.123,0.013l0.045-0.019l0.367,0.044
		c0.044,0.001,0.092,0.011,0.146,0.035c0.032,0.03,0.055,0.069,0.067,0.116c-0.016,0.045-0.042,0.083-0.084,0.119l-0.159,0.037
		l-0.556,0.044c-0.048,0.011-0.097,0.035-0.138,0.068l-0.058,0.134l-0.02,0.168l0.069,1.442l0.019,0.08l-0.014,0.088l0.013,0.849
		l0.009,0.031l-0.033,0.163l-0.116,0.083L76.745,94.8c-0.032-0.033-0.058-0.074-0.077-0.125l-0.021-0.185l0.009-0.139l-0.027-0.396
		l0.019-0.151l-0.013-0.089l0.014-0.088l-0.076-0.532l0.032-0.235l-0.035-0.096l0.011-0.177l-0.035-0.534l-0.054-0.143l-0.109-0.095
		l-0.161-0.025l-0.362-0.004l-0.164-0.034l-0.122-0.075L75.528,91.6l0.013-0.06c0.018-0.036,0.055-0.071,0.102-0.099L75.988,91.38z"
		/>
	<path fill="#A01C1C" d="M79.254,91.242l0.41-0.009l0.188,0.027l0.289-0.044l0.549,0.023l0.107,0.026l0.099,0.055l0.052,0.086
		l-0.014,0.112l-0.077,0.068l-0.224,0.048l-0.68,0.016l-0.118,0.03l-0.034-0.008l-0.336,0.029l-0.087,0.051l-0.063,0.092
		l-0.027,0.103l-0.018,0.253l0.021,0.097l-0.018,0.022l0.026,0.233l0.044,0.104l0.073,0.063l0.319,0.061l0.313-0.011l0.128,0.012
		l0.123-0.02l0.129,0.011l0.099,0.046l0.065,0.068c0.021,0.031,0.034,0.07,0.039,0.112l-0.062,0.092l-0.097,0.044l-0.118-0.004
		l-0.13,0.02l-0.678,0.048l-0.104,0.037l-0.045,0.1L79.35,93.7l0.004,0.388l0.047,0.225l0.075,0.062l0.222,0.048l0.158-0.028
		l0.085,0.011l0.273,0.009l0.225-0.026l0.403,0.026l0.109,0.062l0.034,0.113l-0.045,0.1l-0.103,0.042l-1.021,0.1l-0.284-0.021
		l-0.171,0.015l-0.2-0.033l-0.099-0.054l-0.069-0.071l-0.043-0.102l-0.036-0.775l-0.021-0.119l0.041-0.227l-0.027-0.105l0.027-0.363
		l-0.046-0.387l0.047-0.228l-0.01-0.137l0.024-0.155l-0.047-0.572l0.054-0.112l0.081-0.07l0.111-0.025L79.254,91.242z"/>
</g>
</svg>
