<?xml version="1.0" encoding="utf-8"?>
<!-- Generator: Adobe Illustrator 16.0.0, SVG Export Plug-In . SVG Version: 6.00 Build 0)  -->
<!DOCTYPE svg PUBLIC "-//W3C//DTD SVG 1.1//EN" "http://www.w3.org/Graphics/SVG/1.1/DTD/svg11.dtd">
<svg version="1.1" id="Layer_1" xmlns="http://www.w3.org/2000/svg" xmlns:xlink="http://www.w3.org/1999/xlink" x="0px" y="0px"
	 width="100px" height="100px" viewBox="0 0 100 100" enable-background="new 0 0 100 100" xml:space="preserve">
<path fill="#7F1818" d="M19.218,85.73c-0.224-0.247-0.554-0.459-0.99-0.636c-0.437-0.177-0.878-0.273-1.326-0.291
	c-0.58-0.016-1.068,0.116-1.465,0.39c-0.398,0.274-0.601,0.687-0.607,1.243c0,0.164,0.02,0.312,0.058,0.451
	c0.038,0.14,0.086,0.258,0.144,0.353c0.058,0.097,0.148,0.185,0.272,0.265c0.123,0.081,0.232,0.148,0.324,0.199
	c0.093,0.051,0.23,0.104,0.411,0.157c0.182,0.055,0.328,0.092,0.434,0.117c0.108,0.022,0.27,0.055,0.487,0.104
	c0.085,0.016,0.146,0.025,0.186,0.031c0.302,0.069,0.561,0.137,0.776,0.199s0.445,0.146,0.689,0.249
	c0.243,0.105,0.451,0.234,0.625,0.39c0.173,0.154,0.314,0.333,0.422,0.532c0.132,0.309,0.197,0.613,0.197,0.915
	c0,0.303-0.072,0.586-0.214,0.852c-0.143,0.267-0.329,0.502-0.557,0.706c-0.229,0.206-0.507,0.366-0.839,0.487
	c-0.332,0.12-0.684,0.181-1.054,0.181c-0.363,0-0.695-0.026-0.996-0.082c-0.301-0.055-0.576-0.141-0.822-0.259
	c-0.246-0.119-0.438-0.216-0.574-0.296c-0.135-0.077-0.31-0.201-0.527-0.364c-0.216-0.164-0.347-0.263-0.393-0.296l0.428-0.451
	c0.802,0.795,1.702,1.188,2.699,1.17c0.324,0.029,0.643,0.003,0.956-0.079c0.312-0.086,0.553-0.225,0.725-0.418
	c0.563-0.633,0.695-1.208,0.393-1.725c-0.301-0.519-0.954-0.869-1.957-1.056c-0.997-0.186-1.734-0.469-2.213-0.851
	c-0.479-0.382-0.719-0.873-0.719-1.478c0-0.617,0.229-1.123,0.689-1.518c0.46-0.394,1.11-0.613,1.952-0.659
	c0.231-0.016,0.455-0.014,0.671,0.005c0.216,0.021,0.412,0.058,0.585,0.11c0.174,0.057,0.326,0.111,0.458,0.164
	c0.131,0.055,0.261,0.122,0.388,0.21c0.127,0.086,0.222,0.149,0.284,0.198c0.062,0.046,0.137,0.108,0.226,0.184
	c0.089,0.077,0.137,0.119,0.144,0.128L19.218,85.73z"/>
<polygon fill="#7F1818" points="21.998,91.916 26.062,91.916 27.163,91.916 27.163,92.483 21.43,92.483 21.453,84.352 
	27.163,84.352 27.163,84.931 21.998,84.931 21.998,87.316 21.998,87.676 21.998,88.116 26.062,88.116 26.653,88.116 26.653,88.684 
	22.322,88.684 21.998,88.684 "/>
<polygon fill="#7F1818" points="36.44,92.483 35.874,92.483 35.874,85.348 32.733,90.097 32.653,90.097 29.398,85.359 
	29.398,92.483 28.831,92.483 28.831,84.352 29.398,84.352 32.7,89.146 35.954,84.352 36.44,84.352 "/>
<rect x="38.177" y="84.351" fill="#7F1818" width="0.567" height="8.133"/>
<path fill="#7F1818" d="M54.482,85.73c-0.225-0.247-0.554-0.459-0.99-0.636c-0.438-0.177-0.879-0.273-1.328-0.291
	c-0.579-0.016-1.065,0.116-1.463,0.39c-0.399,0.274-0.6,0.687-0.609,1.243c0,0.164,0.021,0.312,0.058,0.451
	c0.039,0.14,0.088,0.258,0.145,0.353c0.059,0.097,0.149,0.185,0.272,0.265c0.122,0.081,0.233,0.148,0.325,0.199
	c0.093,0.051,0.229,0.104,0.409,0.157c0.18,0.055,0.326,0.092,0.435,0.117c0.11,0.022,0.271,0.055,0.489,0.104
	c0.082,0.016,0.146,0.025,0.185,0.031c0.3,0.069,0.56,0.137,0.776,0.199c0.214,0.062,0.445,0.146,0.688,0.249
	c0.242,0.105,0.449,0.234,0.627,0.39c0.171,0.154,0.313,0.333,0.422,0.532c0.13,0.309,0.195,0.613,0.195,0.915
	c0,0.303-0.07,0.586-0.212,0.852c-0.143,0.267-0.328,0.502-0.556,0.706c-0.228,0.206-0.507,0.366-0.839,0.487
	c-0.334,0.12-0.686,0.181-1.055,0.181c-0.362,0-0.695-0.026-0.997-0.082c-0.301-0.055-0.576-0.141-0.82-0.259
	c-0.245-0.119-0.441-0.216-0.574-0.296c-0.135-0.077-0.311-0.201-0.528-0.364c-0.215-0.164-0.347-0.263-0.394-0.296l0.428-0.451
	c0.803,0.795,1.704,1.188,2.698,1.17c0.324,0.029,0.643,0.003,0.956-0.079c0.312-0.086,0.554-0.225,0.724-0.418
	c0.564-0.633,0.696-1.208,0.396-1.725c-0.303-0.519-0.956-0.869-1.955-1.056c-0.998-0.186-1.734-0.469-2.213-0.851
	c-0.479-0.382-0.717-0.873-0.717-1.478c0-0.617,0.228-1.123,0.687-1.518c0.459-0.394,1.109-0.614,1.95-0.659
	c0.232-0.016,0.456-0.014,0.674,0.005c0.214,0.021,0.41,0.058,0.586,0.11c0.172,0.057,0.326,0.111,0.455,0.164
	c0.132,0.055,0.261,0.122,0.391,0.21c0.124,0.083,0.221,0.151,0.283,0.198c0.062,0.046,0.138,0.108,0.227,0.184
	c0.087,0.077,0.136,0.119,0.144,0.128L54.482,85.73z"/>
<polygon fill="#7F1818" points="56.694,92.483 56.717,84.352 62.428,84.352 62.428,84.931 57.262,84.931 57.262,87.316 
	57.262,87.676 57.262,88.115 61.328,88.115 61.685,88.115 61.685,88.684 57.586,88.684 57.262,88.684 57.262,92.483 "/>
<polygon fill="#7F1818" points="64.57,91.916 68.636,91.916 69.738,91.916 69.738,92.482 64.003,92.483 64.025,84.352 
	69.738,84.352 69.738,84.931 64.57,84.931 64.57,87.316 64.57,87.676 64.57,88.116 68.636,88.116 69.227,88.116 69.227,88.684 
	64.895,88.684 64.57,88.684 "/>
<path fill="#7F1818" d="M76.262,89.014c0.205,0.081,0.398,0.193,0.586,0.336c0.185,0.143,0.331,0.332,0.44,0.57
	c0.108,0.235,0.162,0.5,0.162,0.804c0,0.518,0.07,1.103,0.209,1.759h-0.625l-0.046-0.265c-0.039-0.17-0.074-0.399-0.104-0.689
	c-0.032-0.289-0.048-0.544-0.048-0.772c0-0.161-0.021-0.309-0.064-0.449c-0.042-0.139-0.09-0.258-0.149-0.357
	c-0.06-0.102-0.146-0.192-0.256-0.272c-0.115-0.08-0.212-0.149-0.302-0.204c-0.091-0.054-0.211-0.1-0.365-0.139
	c-0.156-0.037-0.281-0.066-0.378-0.086s-0.23-0.035-0.403-0.054c-0.172-0.015-0.3-0.022-0.376-0.027
	c-0.075-0.004-0.196-0.007-0.356-0.011c-0.165-0.004-0.264-0.008-0.304-0.008h-0.173h-1.715v3.337h-0.588v-8.131h0.463h0.104h2.757
	c0.215,0,0.443,0.021,0.679,0.057c0.235,0.04,0.492,0.111,0.771,0.216c0.277,0.103,0.524,0.234,0.74,0.393
	c0.216,0.159,0.396,0.373,0.538,0.643c0.142,0.271,0.211,0.575,0.211,0.914c0,0.703-0.214,1.26-0.646,1.668
	c-0.101,0.101-0.296,0.211-0.579,0.331c-0.288,0.117-0.565,0.21-0.835,0.271C75.84,88.877,76.06,88.932,76.262,89.014
	 M71.994,88.578h2.443c0.921-0.008,1.589-0.18,2.011-0.52c0.42-0.341,0.631-0.835,0.631-1.484c0-0.508-0.213-0.912-0.642-1.208
	c-0.43-0.299-0.948-0.445-1.559-0.445h-2.885v1.726V88.578L71.994,88.578z"/>
<path fill="#7F1818" d="M78.839,92.482l3.729-8.132h0.58l3.867,8.132h-0.673l-1.041-2.293h-4.771l-1.067,2.293H78.839z
	 M85.049,89.656l-2.188-4.668l-2.074,4.668H85.049z"/>
<rect x="44.003" y="84.027" fill="#7F1818" width="0.548" height="4.188"/>
<path fill="#B52323" d="M60.217,8.163v10.425c9.831,4.062,16.75,13.706,16.75,24.958c0,14.922-12.05,27.017-26.971,27.017
	c-14.917,0-26.943-12.095-26.943-27.017c0-11.252,6.642-20.896,16.731-24.958V8.163c-15.263,4.475-26.551,18.622-26.551,35.383
	c0,20.359,16.478,36.86,36.832,36.86c20.357,0,36.758-16.501,36.758-36.86C86.822,26.784,75.997,12.637,60.217,8.163"/>
<rect x="44.551" y="3.001" fill="#A01C1C" width="10.568" height="34.359"/>
<path fill="#C62A2A" d="M60.217,24.971v6.779c3.363,2.879,5.422,7.099,5.422,11.803c0,8.679-6.995,15.715-15.673,15.715
	c-8.675,0-15.657-7.036-15.657-15.715c0-4.743,1.853-8.994,5.476-11.876v-6.751c-6.727,3.627-11.02,10.609-11.02,18.628
	c0,11.752,9.511,21.278,21.257,21.278c11.75,0,21.191-9.524,21.191-21.278C71.213,35.568,66.684,28.611,60.217,24.971"/>
<path fill="#7F1818" d="M45.465,84.48v0.559c1.276,0.538,2.18,1.847,2.18,3.379c0,2.011-1.55,3.644-3.462,3.644
	c-1.913,0-3.464-1.633-3.464-3.644c0-1.537,0.91-2.847,2.191-3.382v-0.558c-1.67,0.538-2.887,2.087-2.887,3.939
	c0,2.296,1.862,4.159,4.16,4.159c2.297,0,4.159-1.863,4.159-4.159C48.342,86.572,47.13,85.025,45.465,84.48z"/>
</svg>
