<?xml version="1.0" encoding="utf-8"?>
<!-- Generator: Adobe Illustrator 16.0.0, SVG Export Plug-In . SVG Version: 6.00 Build 0)  -->
<!DOCTYPE svg PUBLIC "-//W3C//DTD SVG 1.1//EN" "http://www.w3.org/Graphics/SVG/1.1/DTD/svg11.dtd">
<svg version="1.1" id="Layer_1" xmlns="http://www.w3.org/2000/svg" xmlns:xlink="http://www.w3.org/1999/xlink" x="0px" y="0px"
	 width="100px" height="100px" viewBox="0 0 100 100" enable-background="new 0 0 100 100" xml:space="preserve">
<g>
	<g>
		<path fill="#90181A" d="M2.134,60.207c1.384,1.125,2.413,1.544,3.891,1.544c1.898,0,3.12-0.935,3.12-2.414
			c0-0.869-0.354-1.511-1.191-2.121c-0.386-0.289-0.994-0.61-2.218-1.224c-1.318-0.643-1.961-1.061-2.509-1.606
			c-0.707-0.706-1.093-1.64-1.093-2.67c0-2.535,2.155-4.336,5.21-4.336c1.35,0,2.345,0.255,3.601,0.899v2.379
			c-1.093-0.933-2.154-1.351-3.442-1.351c-1.798,0-3.084,0.931-3.084,2.25c0,1.156,0.515,1.674,2.861,2.797
			c1.544,0.739,2.219,1.19,2.86,1.77c0.839,0.773,1.288,1.865,1.288,3.059c0,2.666-2.218,4.5-5.466,4.5
			c-1.445,0-2.635-0.32-3.826-0.998v-2.475H2.134V60.207z"/>
		<path fill="#90181A" d="M15.999,48.15c2.188-0.545,3.44-0.707,4.985-0.707c5.271,0,8.166,2.701,8.166,7.62
			c0,5.078-3.249,8.295-8.391,8.295c-0.805,0-1.608-0.099-2.411-0.228v6.534h-2.349V48.15z M18.347,61.17
			c0.964,0.191,1.512,0.258,2.346,0.258c3.891,0,6.173-2.248,6.173-6.173c0-3.762-2.153-5.882-5.82-5.882
			c-0.897,0-1.542,0.065-2.699,0.353V61.17z"/>
	</g>
	<g>
		<path fill="#90181A" d="M52.948,48.566c1.606-0.706,3.793-1.123,5.593-1.123c0.995,0,1.641,0.096,2.477,0.388v2.055
			c-0.898-0.354-1.574-0.514-2.539-0.514c-1.127,0-2.153,0.224-3.186,0.675v13.15h-2.345V48.566z"/>
		<path fill="#90181A" d="M64.206,49.21c1.964-1.218,3.698-1.8,5.563-1.8c1.861,0,3.182,0.708,3.76,1.995
			c0.354,0.739,0.451,1.604,0.451,3.663v9.84c-2.283,0.385-4.113,0.576-5.725,0.576c-3.248,0-4.888-1.383-4.888-4.053
			c0-3.406,2.411-5.014,8.134-5.464l0.354-0.032v-0.449c0-2.09-0.031-2.478-0.258-2.989c-0.289-0.772-1.062-1.157-2.219-1.157
			c-1.673,0-3.247,0.671-5.177,2.152V49.21H64.206z M71.826,55.736c-4.502,0.354-6.174,1.254-6.174,3.441
			c0,1.604,0.933,2.375,2.926,2.375c0.997,0,2.025-0.093,3.248-0.224V55.736z"/>
		<path fill="#90181A" d="M79.518,39.085h2.349v9.065c1.382-0.482,2.538-0.707,3.89-0.707c2.061,0,3.729,0.548,4.664,1.511
			c0.934,0.932,1.252,2.088,1.252,4.208v10.033h-2.346v-9.805c0-1.608-0.227-2.441-0.838-3.054c-0.61-0.641-1.639-0.963-2.895-0.963
			c-1.221,0-2.377,0.257-3.729,0.867V63.2h-2.348V39.085L79.518,39.085z"/>
		<g>
			<path fill="#90181A" d="M96.283,59.241c1.053,0,1.91,0.853,1.91,1.907c0,1.051-0.857,1.902-1.918,1.902
				c-1.055,0-1.912-0.853-1.912-1.902C94.363,60.093,95.221,59.241,96.283,59.241z M96.283,62.865c0.922,0,1.673-0.77,1.673-1.721
				s-0.751-1.719-1.673-1.719c-0.93,0-1.684,0.77-1.684,1.721S95.354,62.865,96.283,62.865z M95.578,60.02h0.039
				c0.222-0.018,0.395-0.025,0.542-0.025c0.296,0,0.478,0.044,0.623,0.154c0.157,0.111,0.243,0.279,0.243,0.48
				c0,0.305-0.176,0.518-0.512,0.605l0.047,0.051l0.144,0.172c0.103,0.115,0.351,0.391,0.468,0.518
				c0.09,0.092,0.178,0.172,0.239,0.23h-0.452l-0.042-0.049l-0.088-0.1c-0.19-0.212-0.437-0.508-0.615-0.742l-0.022-0.029
				c-0.055,0.003-0.094,0.003-0.102,0.003l-0.176-0.003c-0.016,0-0.023,0-0.049,0v0.914h-0.287V60.02L95.578,60.02z M95.865,61.044
				l0.049,0.003c0.064,0,0.117,0,0.165-0.014c0.413,0,0.608-0.119,0.608-0.391c0-0.262-0.195-0.399-0.547-0.399
				c-0.039,0-0.137,0-0.225,0.006l-0.055,0.002v0.793H95.865z"/>
		</g>
		<path fill="#90181A" d="M40.308,41.333c0,0-4.264-1.97,0.961-11.848c0,0,7.822,8.34,2.463,11.769
			C43.731,41.254,40.035,32.068,40.308,41.333z"/>
		<path fill="#90181A" d="M41.789,28.56l1.513-2.907c0,0,7.071,8.237,2.794,11.262C46.096,36.915,46.417,33.907,41.789,28.56z"/>
		<path fill="#90181A" d="M41.003,64.705c-4.702,0-8.527-3.825-8.527-8.528c0-4.702,3.825-8.525,8.527-8.525
			c4.704,0,8.529,3.823,8.529,8.525C49.532,60.88,45.707,64.705,41.003,64.705L41.003,64.705z M41.003,49.923
			c-3.449,0-6.255,2.806-6.255,6.253c0,3.449,2.806,6.256,6.255,6.256c3.45,0,6.257-2.807,6.257-6.256
			C47.26,52.729,44.453,49.923,41.003,49.923L41.003,49.923z"/>
	</g>
	<g>
		<path fill="#A01C1C" d="M44.629,41.918c0,0,1.151-3.987,9.551-0.568c0,0-4.893,7.198-8.654,4.051
			C45.527,45.4,53.193,43.05,44.629,41.918z"/>
		<path fill="#A01C1C" d="M46.61,39.336c0,0,1.148-3.584,9.348-0.508l-1.062,1.525C54.896,40.354,49.591,38.175,46.61,39.336z"/>
		<ellipse fill="#A01C1C" cx="41.004" cy="56.176" rx="1.214" ry="1.19"/>
	</g>
</g>
</svg>
