<?xml version="1.0" encoding="utf-8"?>
<!-- Generator: Adobe Illustrator 19.0.0, SVG Export Plug-In . SVG Version: 6.00 Build 0)  -->
<svg version="1.1" id="Layer_1" xmlns="http://www.w3.org/2000/svg" xmlns:xlink="http://www.w3.org/1999/xlink" x="0px" y="0px"
	 viewBox="-255 347 100 100" style="enable-background:new -255 347 100 100;" xml:space="preserve">
<style type="text/css">
	.st0{fill:#EF3A3A;}
</style>
<g>
	<path class="st0" d="M-191.5,396.6l29.6-29.6c0.7-0.7,0.7-1.9,0-2.6l-10.9-10.9c-0.3-0.3-0.8-0.5-1.3-0.5s-0.9,0.2-1.3,0.5
		l-29.6,29.6l-29.6-29.6c-0.7-0.7-1.9-0.7-2.6,0l-10.9,10.9c-0.7,0.7-0.7,1.9,0,2.6l29.6,29.6l-29.6,29.6c-0.7,0.7-0.7,1.9,0,2.6
		l10.9,10.9c0.3,0.3,0.8,0.5,1.3,0.5s0.9-0.2,1.3-0.5l29.6-29.6l29.6,29.6c0.3,0.3,0.8,0.5,1.3,0.5s0.9-0.2,1.3-0.5l10.9-10.9
		c0.7-0.7,0.7-1.9,0-2.6L-191.5,396.6z"/>
</g>
</svg>
