<?xml version="1.0" encoding="utf-8"?>
<!-- Generator: Adobe Illustrator 19.0.0, SVG Export Plug-In . SVG Version: 6.00 Build 0)  -->
<svg version="1.1" id="Layer_1" xmlns="http://www.w3.org/2000/svg" xmlns:xlink="http://www.w3.org/1999/xlink" x="0px" y="0px"
	 viewBox="-255 347 100 100" style="enable-background:new -255 347 100 100;" xml:space="preserve">
<style type="text/css">
	.st0{fill:#F9F9F9;}
</style>
<g>
	<g id="Shape_17">
		<g>
			<g>
				<path class="st0" d="M-166,376.5c0-1.8-0.7-3.4-1.8-4.7c0,0,0-0.1,0-0.1c0,0,0,0-0.1-0.1c-1.3-1.3-3.1-2.2-5.1-2.2h-63.8
					c-2,0-3.8,0.9-5.1,2.2c0,0,0,0-0.1,0.1c0,0,0,0.1,0,0.1c-1.1,1.2-1.8,2.9-1.8,4.6v41.1c0,1.8,0.7,3.5,1.9,4.7c0,0,0,0.1,0.1,0.1
					c0,0,0,0,0,0c1.3,1.3,3.1,2.1,5.1,2.1h63.8c2,0,3.8-0.8,5.1-2.1c0,0,0,0,0,0c0,0,0-0.1,0.1-0.1c1.2-1.2,1.9-2.9,1.9-4.7
					L-166,376.5L-166,376.5z M-192.6,395.7l23.3-21c0.2,0.5,0.4,1.1,0.4,1.7v41.1c0,0.5-0.1,1.1-0.3,1.5L-192.6,395.7z
					 M-173.1,372.4c0.6,0,1.2,0.1,1.7,0.4l-33.6,30.4l-33.6-30.4c0.5-0.2,1.1-0.4,1.7-0.4H-173.1z M-240.8,419.1
					c-0.2-0.5-0.3-1-0.3-1.5v-41.1c0-0.6,0.1-1.2,0.4-1.7l23.1,21.2L-240.8,419.1z M-236.9,421.6c-0.7,0-1.3-0.2-1.9-0.5l23.2-23.2
					l9.6,8.1c0.3,0.2,0.6,0.3,0.9,0.3s0.7-0.1,0.9-0.3l9.2-8.5l23.7,23.6c-0.6,0.3-1.2,0.5-1.9,0.5H-236.9L-236.9,421.6z"/>
				<path class="st0" d="M-173.1,425.5h-63.8c-2.2,0-4.2-0.8-5.7-2.4l-0.2-0.2c-1.4-1.5-2.1-3.4-2.1-5.4v-41.1c0-1.9,0.7-3.7,2-5.2
					l0.1-0.2c0.1-0.1,0.1-0.1,0.2-0.2c1.6-1.6,3.6-2.4,5.8-2.4h63.8c2.2,0,4.2,0.9,5.8,2.4l0.2,0.2c0,0.1,0.1,0.1,0.1,0.2
					c1.3,1.4,2,3.3,2,5.2l0,41.1c0,2-0.7,3.9-2.1,5.3l-0.2,0.3c0,0,0,0,0,0C-168.9,424.7-170.9,425.5-173.1,425.5z M-241.2,421.7
					L-241.2,421.7c1.1,1.1,2.7,1.8,4.3,1.8h63.8c1.6,0,3.2-0.6,4.3-1.8c0,0,0.1-0.1,0.1-0.1c1.1-1.1,1.6-2.6,1.6-4.1l0-41.1
					c0-1.5-0.6-2.9-1.6-4l-0.1-0.1c-1.2-1.2-2.7-1.9-4.4-1.9h-63.8c-1.7,0-3.2,0.7-4.4,1.9l-0.1,0.1c-1,1.1-1.6,2.5-1.6,4v41.1
					c0,1.5,0.6,2.9,1.6,4.1L-241.2,421.7z M-173.1,422.6h-63.8c-0.8,0-1.6-0.2-2.3-0.6l-1.2-0.6l24.8-24.8l10.3,8.7
					c0.2,0.1,0.4,0.1,0.6,0l9.9-9.2l25.3,25.3l-1.2,0.6C-171.5,422.5-172.3,422.6-173.1,422.6z M-236.8,420.6h63.6l-21.7-21.7
					l-8.5,7.9c-1,0.8-2.3,0.8-3.2,0l-8.9-7.5L-236.8,420.6z M-168.9,420.9l-25.2-25.1l25.1-22.6l0.6,1.2c0.3,0.7,0.5,1.4,0.5,2.1
					v41.1c0,0.7-0.1,1.3-0.4,1.9L-168.9,420.9z M-191.1,395.8l21.2,21.2v-40.3L-191.1,395.8z M-241.1,420.8l-0.6-1.4
					c-0.3-0.6-0.4-1.3-0.4-1.9v-41.1c0-0.7,0.2-1.4,0.5-2.1l0.6-1.2l24.9,22.8L-241.1,420.8z M-240.1,376.7V417l21-21L-240.1,376.7z
					 M-205,404.4l-35.4-32l1.4-0.6c0.7-0.3,1.4-0.5,2.1-0.5h63.8c0.7,0,1.4,0.2,2.1,0.5l1.4,0.6L-205,404.4z M-236.4,373.4
					l31.4,28.4l31.4-28.4H-236.4z"/>
			</g>
		</g>
	</g>
</g>
</svg>
