<?xml version="1.0" encoding="utf-8"?>
<!-- Generator: Adobe Illustrator 16.0.0, SVG Export Plug-In . SVG Version: 6.00 Build 0)  -->
<!DOCTYPE svg PUBLIC "-//W3C//DTD SVG 1.1//EN" "http://www.w3.org/Graphics/SVG/1.1/DTD/svg11.dtd">
<svg version="1.1" id="Layer_1" xmlns="http://www.w3.org/2000/svg" xmlns:xlink="http://www.w3.org/1999/xlink" x="0px" y="0px"
	 width="100px" height="100px" viewBox="0 0 100 100" enable-background="new 0 0 100 100" xml:space="preserve">
<g>
	<g id="Shape_17">
		<g>
			<path fill="#FFFFFF" d="M84.362,33.184c0-1.467-0.58-2.794-1.504-3.806c-0.016-0.02-0.02-0.043-0.035-0.064
				c-0.016-0.018-0.037-0.025-0.054-0.042c-1.051-1.099-2.532-1.794-4.181-1.794H21.425c-1.649,0-3.13,0.696-4.184,1.795
				c-0.015,0.017-0.038,0.023-0.053,0.042c-0.017,0.02-0.021,0.044-0.036,0.064c-0.922,1.012-1.502,2.338-1.502,3.805v33.632
				c0,1.502,0.604,2.861,1.568,3.882c0.019,0.021,0.025,0.047,0.046,0.067c0.007,0.007,0.015,0.008,0.022,0.016
				c1.051,1.07,2.515,1.741,4.139,1.741h57.164c1.624,0,3.088-0.671,4.138-1.742c0.007-0.007,0.016-0.009,0.023-0.015
				c0.02-0.02,0.025-0.045,0.044-0.065c0.966-1.02,1.569-2.38,1.569-3.884L84.362,33.184L84.362,33.184z M61.872,48.222
				l19.802-16.418c0.194,0.422,0.309,0.887,0.309,1.38v33.632c0,0.445-0.092,0.868-0.253,1.258L61.872,48.222z M78.589,29.83
				c0.498,0,0.969,0.113,1.396,0.305L50.006,54.99L20.027,30.135c0.428-0.191,0.899-0.305,1.397-0.305H78.589z M18.282,68.072
				c-0.16-0.389-0.252-0.812-0.252-1.258V33.184c0-0.493,0.115-0.958,0.309-1.38l19.802,16.418L18.282,68.072z M21.425,70.169
				c-0.549,0-1.062-0.143-1.521-0.372L39.97,49.738l9.272,7.688c0.22,0.184,0.493,0.276,0.764,0.276s0.544-0.093,0.764-0.276
				l9.271-7.688l20.067,20.059c-0.459,0.229-0.972,0.372-1.521,0.372H21.425L21.425,70.169z"/>
		</g>
	</g>
</g>
</svg>
