<?xml version="1.0" encoding="utf-8"?>
<!-- Generator: Adobe Illustrator 19.0.0, SVG Export Plug-In . SVG Version: 6.00 Build 0)  -->
<svg version="1.1" id="Layer_1" xmlns="http://www.w3.org/2000/svg" xmlns:xlink="http://www.w3.org/1999/xlink" x="0px" y="0px"
	 viewBox="-255 347 100 100" style="enable-background:new -255 347 100 100;" xml:space="preserve">
<style type="text/css">
	.st0{fill:#EF3A3A;}
</style>
<g>
	<g id="Shape_17">
		<g>
			<g>
				<path class="st0" d="M-171.4,382.3c0-1.5-0.6-2.9-1.6-4c0,0,0,0,0-0.1c0,0,0,0-0.1,0c-1.1-1.2-2.7-1.9-4.4-1.9h-55
					c-1.7,0-3.3,0.7-4.4,1.9c0,0,0,0-0.1,0c0,0,0,0,0,0.1c-1,1.1-1.6,2.5-1.6,4v35.4c0,1.6,0.6,3,1.7,4.1c0,0,0,0,0,0.1c0,0,0,0,0,0
					c1.1,1.1,2.6,1.8,4.4,1.8h55c1.7,0,3.3-0.7,4.4-1.8c0,0,0,0,0,0c0,0,0,0,0-0.1c1-1.1,1.7-2.5,1.7-4.1L-171.4,382.3L-171.4,382.3
					z M-194.3,398.9l20.1-18.1c0.2,0.4,0.3,0.9,0.3,1.5v35.4c0,0.5-0.1,0.9-0.3,1.3L-194.3,398.9z M-177.5,378.8
					c0.5,0,1,0.1,1.5,0.3l-29,26.2l-29-26.2c0.5-0.2,0.9-0.3,1.5-0.3H-177.5z M-235.8,419c-0.2-0.4-0.3-0.9-0.3-1.3v-35.4
					c0-0.5,0.1-1,0.3-1.5l19.9,18.2L-235.8,419z M-232.5,421.2c-0.6,0-1.1-0.2-1.6-0.4l20-20l8.3,7c0.2,0.2,0.5,0.3,0.8,0.3
					c0.3,0,0.6-0.1,0.8-0.3l7.9-7.4l20.4,20.4c-0.5,0.2-1,0.4-1.6,0.4H-232.5L-232.5,421.2z"/>
				<path class="st0" d="M-177.5,424.6h-55c-1.9,0-3.6-0.7-4.9-2l-0.2-0.2c-1.2-1.3-1.8-2.9-1.8-4.6v-35.4c0-1.6,0.6-3.2,1.7-4.5
					l0.1-0.1c0-0.1,0.1-0.1,0.1-0.1c1.3-1.4,3.1-2.1,5-2.1h55c1.9,0,3.6,0.7,5,2.1l0.1,0.1c0,0.1,0.1,0.1,0.1,0.1
					c1.1,1.2,1.7,2.8,1.7,4.5l0,35.4c0,1.7-0.6,3.3-1.8,4.6l-0.2,0.2c0,0,0,0,0,0C-173.8,423.9-175.6,424.6-177.5,424.6z
					 M-236.2,421.3L-236.2,421.3c1,1,2.3,1.5,3.7,1.5h55c1.4,0,2.7-0.6,3.7-1.6c0,0,0-0.1,0.1-0.1c0.9-1,1.4-2.2,1.4-3.5l0-35.4
					c0-1.3-0.5-2.5-1.4-3.4l-0.1-0.1c-1-1-2.3-1.6-3.8-1.6h-55c-1.4,0-2.8,0.6-3.8,1.6l-0.1,0.1c-0.9,1-1.4,2.2-1.4,3.4v35.4
					c0,1.3,0.5,2.5,1.4,3.5L-236.2,421.3z M-177.5,422.1h-55c-0.7,0-1.3-0.2-2-0.5l-1.1-0.5l21.4-21.4l8.9,7.5
					c0.1,0.1,0.4,0.1,0.5,0l8.5-7.9l21.8,21.8l-1.1,0.5C-176.1,421.9-176.8,422.1-177.5,422.1z M-232.4,420.4h54.9l-18.7-18.7
					l-7.3,6.8c-0.8,0.7-2,0.7-2.7,0l-7.7-6.5L-232.4,420.4z M-173.9,420.6l-21.7-21.7l21.6-19.5l0.5,1.1c0.3,0.6,0.4,1.2,0.4,1.8
					v35.4c0,0.6-0.1,1.1-0.3,1.7L-173.9,420.6z M-193,399l18.3,18.3v-34.7L-193,399z M-236.1,420.6l-0.5-1.2
					c-0.2-0.5-0.3-1.1-0.3-1.7v-35.4c0-0.6,0.1-1.2,0.4-1.8l0.5-1.1l21.5,19.6L-236.1,420.6z M-235.2,382.5v34.7l18.1-18.1
					L-235.2,382.5z M-205,406.4l-30.6-27.6l1.2-0.5c0.6-0.3,1.2-0.4,1.8-0.4h55c0.6,0,1.2,0.1,1.8,0.4l1.2,0.5L-205,406.4z
					 M-232.1,379.6l27.1,24.5l27.1-24.5H-232.1z"/>
			</g>
		</g>
	</g>
</g>
</svg>
