<?xml version="1.0" encoding="utf-8"?>
<!-- Generator: Adobe Illustrator 16.0.0, SVG Export Plug-In . SVG Version: 6.00 Build 0)  -->
<!DOCTYPE svg PUBLIC "-//W3C//DTD SVG 1.1//EN" "http://www.w3.org/Graphics/SVG/1.1/DTD/svg11.dtd">
<svg version="1.1" id="Layer_1" xmlns="http://www.w3.org/2000/svg" xmlns:xlink="http://www.w3.org/1999/xlink" x="0px" y="0px"
	 width="100px" height="100px" viewBox="0 0 100 100" enable-background="new 0 0 100 100" xml:space="preserve">
<g id="Layer_1_1_">
	<g>
		<g id="Facebook">
			<g>
				<g>
					<path fill="#FFFFFF" d="M36.304,12.31c0.624-1.283,1.402-2.51,2.322-3.601c1.968-2.346,4.577-4.146,7.349-5.137
						c2.765-0.975,5.626-1.541,8.43-1.59l2.104-0.08L58.5,1.917c1.33,0.009,2.661,0.019,3.996,0.027
						c3.34,0.014,6.694,0.028,10.069,0.043C72.543,8.596,72.52,15.289,72.497,22.1c-2.487-0.009-4.99-0.019-7.51-0.028
						c-0.933-0.005-1.868-0.011-2.808-0.016l-1.41-0.009c-0.213,0.003-0.522-0.013-0.657,0.005
						c-0.099,0.026-0.192,0.027-0.298,0.032c-0.451,0.103-1.023,0.468-1.423,0.913c-0.428,0.538-0.54,0.641-0.536,1.361
						c-0.019,1.917-0.037,3.85-0.056,5.798c-0.02,0.849-0.038,1.707-0.058,2.58c0.412,0.009,0.825,0.019,1.241,0.028
						c0.754,0.007,1.511,0.015,2.271,0.023c1.766,0.011,3.546,0.022,5.335,0.033c1.294,0.004,2.592,0.008,3.892,0.011l1.007,0.002
						l0.504,0.001c0.14,0.025,0.427-0.082,0.325,0.161L72.109,35c-0.225,2.163-0.449,4.332-0.674,6.504
						c-0.208,1.82-0.325,3.648-0.616,5.46l-0.537,3.799l-0.071,0.501l-0.035,0.25l-0.018,0.126c-0.016,0.03-0.077,0.008-0.113,0.016
						l-1.009,0.001l-2.018,0.002c-3.181,0.006-6.336,0.012-9.433,0.019c0.002,2.243,0.005,4.442,0.007,6.596
						c0.016-2.175,0.03-4.355,0.045-6.544c3.121,0.017,6.253,0.032,9.392,0.049l2.05,0.005l1.027,0.003
						c0.237,0.077,0.166-0.202,0.213-0.345l0.073-0.507l0.562-3.875c0.295-1.79,0.427-3.593,0.635-5.392l0.683-6.469l0.217-2.068
						c-0.001-0.156,0.079-0.384,0.012-0.479l-0.521-0.001l-1.041-0.002l-4.143-0.011l-8.908-0.046l0.033-4.896l0.018-3.384
						l0.003-0.281l0.027-0.174c0.006-0.12,0.08-0.22,0.118-0.33l0.237-0.352c0.131-0.119,0.233-0.262,0.367-0.377
						c0.273-0.23,0.57-0.427,0.854-0.537c0.133-0.021,0.283-0.136,0.389-0.107c0.122,0.001,0.155-0.05,0.511-0.034l3.373,0.023
						c2.928,0.017,5.852,0.034,8.771,0.051c0.054-6.827,0.107-13.626,0.16-20.386C69.32,1.77,65.902,1.735,62.496,1.7
						c-1.336-0.02-2.67-0.04-4.001-0.059l-1.993-0.032l-2.123,0.065c-2.828,0.03-5.726,0.582-8.529,1.551
						c-2.811,0.988-5.469,2.793-7.479,5.143c1.366-2.025,3.507-3.831,6.055-5.137c2.556-1.391,5.535-2.038,8.651-2.378
						c3.276-0.202,6.023-0.099,8.904-0.089c3.925,0.021,7.838,0.043,11.739,0.065c-0.033,7.505-0.066,14.968-0.1,22.395
						c-3.41-0.012-6.784-0.023-10.152-0.035c0-0.136,0-0.402,0-0.536l-2.515,0.025l-0.628,0.005l-0.157,0.001
						c-0.045,0.002-0.032,0.012-0.051,0.016c-0.022,0.01-0.045,0.017-0.067,0.019s-0.046,0.001-0.07-0.004l-0.103,0.05
						c-0.071,0.043-0.142,0.022-0.225,0.091c-0.336,0.15-0.693,0.517-0.901,0.804c-0.097,0.13-0.12,0.187-0.148,0.284
						c-0.017,0.128-0.018,0.042-0.013,0.6c0.006,2.453,0.012,4.892,0.019,7.321c2.749,0.01,5.486,0.02,8.217,0.029l4.748,0.014
						l1.188,0.003l0.589,0.005l-0.062,0.591l-0.249,2.359c-0.246,2.297-0.492,4.593-0.738,6.886c-0.214,1.8-0.352,3.602-0.653,5.395
						l-0.637,4.337l-0.084,0.574l-0.042,0.286c-0.012,0.042-0.002,0.109-0.032,0.13l-0.146-0.001l-1.165-0.005l-2.325-0.01
						l-5.924-0.04l-2.22-0.019l-0.781-0.018l-0.019,0.824l-0.016,2.519c-0.008,1.9-0.017,3.802-0.025,5.705
						c-0.005,3.81-0.009,7.626-0.014,11.458c0.017,3.83,0.034,7.676,0.051,11.547c0.046,4.678,0.093,9.385,0.14,14.141
						c-1.204,0.012-2.42,0.023-3.639,0.035c2.402,0.072,1.083,0.182,0.593,0.27c-0.171,0-0.335,0-0.493,0c0.158,0,0.322,0,0.493,0
						c-0.4,0.071-0.173,0.127,3.485,0.135c0-0.223,0-0.509,0.001-0.815c-0.001,0.307-0.001,0.593-0.001,0.815
						c-3.658-0.008-3.886-0.063-3.485-0.135c1.13-0.002,2.259-0.005,3.344-0.007c-0.009-15.677-0.018-30.926-0.026-46.103
						l8.618,0.027l2.458,0.004l1.23,0.002h0.154c0.028-0.025,0.021-0.094,0.032-0.14l0.044-0.304l0.088-0.607l0.658-4.563
						c0.295-1.798,0.427-3.603,0.636-5.406c0.248-2.352,0.497-4.706,0.746-7.062l0.259-2.473l0.064-0.619l-0.617-0.006l-1.246-0.003
						l-4.979-0.014c-1.797-0.009-3.596-0.019-5.398-0.028l-2.178-0.015l-0.325-0.016l0.014-0.28l0.007-0.229l0.007-1.145
						c0.01-1.527,0.02-3.058,0.029-4.592l0.008-1.151c0.002-0.079,0.009-0.089,0.026-0.132c0.008-0.045,0.048-0.034,0.116-0.172
						c0.122-0.098,0.2-0.249,0.351-0.332c0.251-0.237,0.552-0.316,0.628-0.323c0.037,0.01-0.026-0.01,0.092-0.021l0.58,0.004
						l1.162,0.008l-1.155-0.005l-0.577-0.002c-0.021-0.021-0.054,0.046-0.066-0.047c-0.002,0.017-0.003,0.061-0.005,0.055
						l-0.009,0.011c-0.007,0.005-0.013,0.006-0.02,0.004c-0.07,0.004-0.366,0.087-0.614,0.32c-0.149,0.083-0.224,0.231-0.351,0.33
						c-0.062,0.137-0.108,0.134-0.112,0.174c-0.018,0.032-0.021,0.069-0.022,0.105l-0.005,1.145l-0.015,4.6l-0.007,1.38
						l-0.006,0.241l0.279,0.007l2.143,0.006l5.387,0.011l5.021,0.004l1.268,0.001l0.634,0.001c0.022,0.003,0.062-0.008,0.07,0.008
						l-0.008,0.079l-0.017,0.157l-0.032,0.314l-0.259,2.512l-0.739,7.169c-0.205,1.808-0.329,3.617-0.62,5.421l-0.663,4.655
						l-0.089,0.625l-0.044,0.312l-0.022,0.156c-0.01,0.05-0.094,0.014-0.136,0.024h-1.263h-2.524h-8.501
						c0.017,15.343,0.033,30.682,0.05,46.126c-8.324,0.01-16.678,0.02-25.065,0.029c-0.013-15.166-0.027-30.48-0.041-46.037h-0.004
						H24.52v-1.653c0.098-5.704,0.18-6.881,0.248-9.576c0.031-1.224,0.062-2.444,0.092-3.661c0.024-2.103,0.049-4.2,0.073-6.293
						c2.431,0.022,4.856,0.044,7.278,0.067l1.56,0.023L34.331,32l0.014-0.759l0.005-3.079c0.295,1.102,0.719-0.208,1.081-0.344
						c0.181-0.068,0.346,0.158,0.471,1.126c0.062,0.484,0.115,1.154,0.155,2.065c0.04,0.784,0.067,1.625,0.078,2.794
						c-0.652,0.001-1.379,0.002-2.194,0.003c-1.024-0.01-2.157-0.021-3.411-0.032c0.012,0.135,0.035,0.405,0.047,0.54
						c2.331,0.076,4.291,0.167,6.337,0.269c0.406-7.761,0.996-12.492,1.543-13.178c0.273-0.331,0.537,0.378,0.762,2.291
						c0.112,0.956,0.215,2.213,0.305,3.792c0.038,0.805,0.08,1.672,0.124,2.612c0.009,0.239,0.019,0.482,0.028,0.73
						c0.009,0.357,0.018,0.72,0.026,1.09c0.015,0.977,0.031,1.988,0.048,3.036c0.01,0.816,0.02,1.635,0.029,2.493
						c-2.45,0.028-4.944,0.056-7.481,0.085l-1.167,0.017l-0.252,0.004l-0.025,0.004l-0.048,0.008l-0.17,0.028l0.018,0.147
						l0.008,0.066l0.004,0.032l0.003,0.441c0.008,1.267,0.015,2.548,0.023,3.841c0.006,1.559,0.013,3.148,0.02,4.763
						c3.045,0.002,6.144,0.005,9.282,0.008c-0.017,8.429-0.035,17.101-0.052,25.789c0.003,3.815,0.006,7.634,0.009,11.433
						c0.008,1.899,0.017,3.793,0.025,5.679c0.006,0.942,0.013,1.884,0.02,2.822l0.001,0.175l0.001,0.01l0.003,0.018l0.006,0.034
						l0.013,0.061l0.004,0.026l0.111-0.016l0.024-0.004l0.012-0.002l0.262-0.002l1.193-0.008l4.771-0.03l4.771-0.027l1.192-0.007
						l0.262-0.001l0.004-0.002l0.009-0.003l0.021-0.012l-0.011-0.029l-0.002-0.005l-0.003-0.512l-0.005-1.276l-0.013-5.104
						l0.001-10.208c0.015-6.805,0.06-13.608,0.15-20.412c0.023-2.754,0.046-5.521,0.069-8.341c4.328,0.036,8.693,0.072,13.088,0.109
						l0.141,0.011c0.043-0.001,0.115,0.028,0.107-0.037l0.03-0.137l0.015-0.072l0.008-0.037l0.038-0.25
						c0.292-1.729,0.434-3.495,0.638-5.252l0.288-2.643l0.096-0.848l0.027-0.192c0.163-0.38-0.24-0.237-0.464-0.281
						c-4.539-0.021-9.084-0.042-13.623-0.063c0.015-3.199,0.03-6.396,0.046-9.586l0.025-3.395c0.006-0.088-0.008-0.425,0.041-0.658
						l0.115-0.757c0.051-0.509,0.315-0.969,0.504-1.438c0.513-0.909,1.033-1.515,1.68-2.092c0.644-0.551,1.359-1.029,2.222-1.362
						c0.447-0.153,0.859-0.326,1.391-0.371c0.253-0.033,0.508-0.059,0.761-0.077c0.257-0.018,0.313-0.003,0.479-0.006
						c1.123,0.012,2.245,0.023,3.364,0.035c1.119,0.013,2.235,0.026,3.351,0.039l0.806,0.043l0.038-0.627l0.011-0.177l0.01-0.664
						l0.021-1.326c0.031-1.763,0.062-3.519,0.094-5.267c0.009-0.974,0.019-2.062,0.029-3.228c-1.773,0.011-3.678,0.022-5.585,0.033
						c-1.35,0.008-2.699,0.017-4.026,0.025c-0.664,0.003-1.322,0.007-1.972,0.01c-0.636,0.013-1.206,0.062-1.798,0.088
						c-0.584,0.03-1.158,0.059-1.718,0.087c-0.542,0.088-1.071,0.174-1.585,0.258c-0.506,0.098-1.029,0.117-1.479,0.266
						c-0.456,0.129-0.896,0.252-1.317,0.372c-0.873,0.18-1.535,0.566-2.177,0.795c-0.656,0.212-1.105,0.551-1.521,0.741
						c-2.627,1.62-2.764,1.782-2.703,1.131c1.619-1.644,3.714-2.767,5.95-3.517l1.712-0.498c0.583-0.128,1.188-0.196,1.779-0.299
						c1.176-0.25,2.407-0.246,3.621-0.312c1.188-0.09,2.511-0.03,3.766-0.044l3.803,0.008c2.035,0.005,4.065,0.011,6.089,0.016
						c-0.015,4.434-0.029,8.79-0.043,13.127c-0.526-0.003-1.04-0.006-1.554-0.01l-5.831-0.046l-1.521-0.009
						c-0.372,0.03-0.748,0.073-1.115,0.133c-0.335,0.105-0.669,0.22-0.998,0.344c-1.245,0.591-2.21,1.422-2.962,2.645
						c-0.207,0.303-0.319,0.674-0.463,1.017c-0.112,0.355-0.128,0.736-0.199,1.103l-0.021,1.619l-0.025,3.017l-0.052,7.768
						l10.756,0.083l3.001,0.045l0.241,0.006l0.12,0.003c0.02,0.001,0.042,0,0.059,0.003l-0.008,0.063l-0.063,0.501l-0.125,0.98
						l-0.496,4.354c-0.169,1.478-0.318,2.959-0.569,4.421l-0.169,1l-0.037,0.208l-0.019,0.104c-0.022,0.015-0.069,0.002-0.103,0.005
						l-0.437-0.014c-0.151-0.019-2.185-0.039-3.579-0.059l2.224,0.041l0.914,0.02l0.429,0.019l0.442,0.019l0.112,0.005
						c0.041,0.004,0.022-0.058,0.036-0.084l0.039-0.21l0.171-0.953c0.254-1.451,0.415-2.923,0.584-4.396
						c0.171-1.471,0.342-2.944,0.513-4.419l0.132-1.023l0.067-0.525c0.002-0.041,0.019-0.095,0.01-0.126l-0.126-0.003l-0.253-0.006
						l-3.016-0.047c-3.585-0.026-7.18-0.053-10.786-0.079c0.014-2.55,0.028-5.106,0.042-7.667l0.019-3.009l0.015-1.592
						c0.048-0.367,0.095-0.738,0.174-1.098c0.138-0.342,0.257-0.704,0.446-1.016c0.738-1.235,1.688-2.069,2.922-2.671
						c0.324-0.127,0.659-0.241,0.991-0.349c0.354-0.077,0.737-0.111,1.105-0.147c0.563-0.014,1.025,0,1.544-0.001
						c1.951,0.008,3.906,0.016,5.864,0.024l1.565,0.021l0.119-13.228l-6.097-0.056c-2.482,0-5.029-0.08-7.461-0.016
						c-1.193,0.083-2.419,0.016-3.581,0.261l-1.766,0.269c-0.577,0.124-1.134,0.313-1.703,0.464
						c-2.241,0.667-4.382,1.705-6.036,3.307c0.222-0.553,0.472-1.149-0.441-0.714c0.012,0.013-0.261,0.174-0.585,0.556
						c-0.312,0.39-0.818,0.874-1.255,1.508c-0.921,1.243-1.69,2.944-2.081,4.118c-0.936,2.308-1.219,4.056-1.478,5.152
						c-0.238,1.11-0.421,1.589-0.628,1.588c-0.375,0.025-0.934-1.942-0.758-4.747C35.381,15.676,35.691,14.068,36.304,12.31z"/>
				</g>
			</g>
		</g>
	</g>
</g>
<g id="Layer_2" display="none">
	<g display="inline">
		<path d="M16.173,4.595h67.05c6.366,0,11.576,4.714,11.576,11.577v67.051c0,6.863-5.21,11.577-11.576,11.577h-67.05
			c-6.37,0-11.579-4.714-11.579-11.577V16.172C4.594,9.309,9.803,4.595,16.173,4.595L16.173,4.595z M70.307,14.616
			c-2.233,0-4.062,1.827-4.062,4.062v9.72c0,2.233,1.825,4.061,4.062,4.061h10.194c2.233,0,4.062-1.828,4.062-4.061v-9.72
			c0-2.235-1.826-4.062-4.062-4.062H70.307L70.307,14.616z M84.604,42.742h-7.938c0.752,2.453,1.158,5.051,1.158,7.739
			c0,15.005-12.557,27.167-28.04,27.167c-15.485,0-28.038-12.162-28.038-27.167c0-2.69,0.406-5.287,1.158-7.739H14.62v38.105
			c0,1.971,1.613,3.586,3.585,3.586H81.02c1.975,0,3.586-1.613,3.586-3.586V42.742H84.604z M49.782,31.948
			c-10.005,0-18.117,7.858-18.117,17.553c0,9.696,8.111,17.554,18.117,17.554c10.006,0,18.116-7.855,18.116-17.554
			C67.898,39.806,59.788,31.948,49.782,31.948z"/>
	</g>
</g>
<g id="Layer_3" display="none">
	<g display="inline">
		<g>
			<path fill="#010002" d="M93.521,22.394c-3.277,1.452-6.795,2.437-10.488,2.876c3.771-2.259,6.66-5.842,8.029-10.099
				c-3.539,2.092-7.445,3.611-11.606,4.435c-3.333-3.555-8.074-5.77-13.333-5.77c-10.087,0-18.267,8.18-18.267,18.262
				c0,1.43,0.161,2.827,0.473,4.163C33.15,35.498,19.69,28.226,10.682,17.175c-1.574,2.693-2.47,5.832-2.47,9.181
				c0,6.337,3.227,11.93,8.124,15.202c-2.993-0.101-5.809-0.924-8.274-2.293v0.229c0,8.847,6.299,16.23,14.65,17.91
				c-1.53,0.412-3.144,0.642-4.813,0.642c-1.179,0-2.32-0.118-3.438-0.341c2.326,7.262,9.069,12.542,17.06,12.688
				C25.272,75.289,17.393,78.2,8.835,78.2c-1.474,0-2.927-0.091-4.357-0.25c8.085,5.19,17.683,8.218,28,8.218
				c33.602,0,51.97-27.832,51.97-51.969l-0.062-2.365C87.975,29.271,91.079,26.055,93.521,22.394z"/>
		</g>
	</g>
</g>
<g id="Layer_4" display="none">
	<g display="inline">
		<path id="YouTube" d="M74.939,70.832H70l0.023-2.869c0-1.275,1.047-2.318,2.326-2.318h0.312c1.279,0,2.332,1.043,2.332,2.318
			L74.939,70.832z M56.413,64.684c-1.253,0-2.278,0.842-2.278,1.873V80.51c0,1.029,1.025,1.869,2.278,1.869
			c1.258,0,2.284-0.84,2.284-1.869V66.557C58.697,65.525,57.671,64.684,56.413,64.684z M86.5,56.879v26.544
			C86.5,89.79,80.979,95,74.23,95H23.771C17.02,95,11.5,89.79,11.5,83.423V56.879c0-6.367,5.52-11.578,12.271-11.578H74.23
			C80.979,45.301,86.5,50.512,86.5,56.879z M27.137,86.305l-0.004-27.961l6.255,0.002v-4.143l-16.674-0.025v4.073l5.205,0.015
			v28.039H27.137z M45.887,62.509h-5.215v14.931c0,2.16,0.131,3.24-0.008,3.621c-0.424,1.158-2.33,2.391-3.073,0.125
			c-0.126-0.396-0.015-1.59-0.017-3.643l-0.021-15.034h-5.186l0.016,14.798c0.004,2.271-0.051,3.959,0.018,4.729
			c0.127,1.356,0.082,2.938,1.341,3.843c2.346,1.689,6.843-0.252,7.968-2.668l-0.01,3.083l4.188,0.005L45.887,62.509L45.887,62.509z
			 M62.57,79.607L62.559,67.18c-0.004-4.736-3.547-7.572-8.354-3.74l0.021-9.236l-5.208,0.008L48.99,86.1l4.283-0.062l0.391-1.986
			C59.137,89.072,62.578,85.631,62.57,79.607z M78.891,77.96l-3.91,0.021c-0.002,0.155-0.008,0.334-0.01,0.529v2.182
			c0,1.168-0.965,2.119-2.137,2.119h-0.766c-1.174,0-2.139-0.951-2.139-2.119V80.45v-2.4v-3.097h8.951v-3.37
			c0-2.463-0.062-4.925-0.267-6.333c-0.644-4.454-6.896-5.161-10.054-2.881c-0.988,0.712-1.748,1.665-2.188,2.945
			c-0.443,1.28-0.665,3.03-0.665,5.254v7.41C65.714,90.296,80.676,88.555,78.891,77.96z M58.833,37.732
			c0.269,0.654,0.687,1.184,1.254,1.584c0.56,0.394,1.276,0.592,2.134,0.592c0.752,0,1.418-0.203,1.998-0.622
			c0.578-0.417,1.065-1.04,1.463-1.871l-0.099,2.046h5.813V14.74H66.82v19.24c0,1.042-0.858,1.895-1.907,1.895
			c-1.043,0-1.904-0.853-1.904-1.895V14.74h-4.776v16.674c0,2.124,0.039,3.54,0.104,4.258C58.4,36.385,58.564,37.069,58.833,37.732z
			 M41.217,23.77c0-2.373,0.198-4.226,0.591-5.562c0.396-1.331,1.107-2.401,2.137-3.208c1.027-0.811,2.342-1.217,3.941-1.217
			c1.345,0,2.497,0.264,3.459,0.781c0.968,0.52,1.714,1.195,2.229,2.028c0.525,0.836,0.885,1.695,1.074,2.574
			c0.194,0.891,0.291,2.235,0.291,4.048v6.252c0,2.293-0.092,3.98-0.271,5.051c-0.177,1.074-0.559,2.07-1.146,3.004
			c-0.58,0.924-1.33,1.615-2.236,2.056c-0.918,0.445-1.968,0.663-3.154,0.663c-1.325,0-2.441-0.183-3.361-0.565
			c-0.923-0.38-1.636-0.953-2.144-1.714c-0.513-0.762-0.874-1.69-1.092-2.772c-0.219-1.081-0.323-2.707-0.323-4.874L41.217,23.77
			L41.217,23.77z M45.77,33.59c0,1.4,1.042,2.543,2.311,2.543c1.27,0,2.308-1.143,2.308-2.543V20.43
			c0-1.398-1.038-2.541-2.308-2.541c-1.269,0-2.311,1.143-2.311,2.541V33.59z M29.682,40.235h5.484l0.006-18.96l6.48-16.242h-5.998
			l-3.445,12.064L28.715,5h-5.936l6.894,16.284L29.682,40.235z"/>
	</g>
</g>
</svg>
