<?xml version="1.0" encoding="utf-8"?>
<!-- Generator: Adobe Illustrator 19.0.0, SVG Export Plug-In . SVG Version: 6.00 Build 0)  -->
<svg version="1.1" id="Layer_1" xmlns="http://www.w3.org/2000/svg" xmlns:xlink="http://www.w3.org/1999/xlink" x="0px" y="0px"
	 viewBox="-345 257 100 100" style="enable-background:new -345 257 100 100;" xml:space="preserve">
<style type="text/css">
	.st0{display:none;}
	.st1{display:inline;}
	.st2{fill:#010002;}
	.st3{fill:#FFFFFF;}
</style>
<g id="Layer_2" class="st0">
	<g class="st1">
		<path d="M-328.8,261.6h67.1c6.4,0,11.6,4.7,11.6,11.6v67.1c0,6.9-5.2,11.6-11.6,11.6h-67.1c-6.4,0-11.6-4.7-11.6-11.6v-67.1
			C-340.4,266.3-335.2,261.6-328.8,261.6L-328.8,261.6z M-274.7,271.6c-2.2,0-4.1,1.8-4.1,4.1v9.7c0,2.2,1.8,4.1,4.1,4.1h10.2
			c2.2,0,4.1-1.8,4.1-4.1v-9.7c0-2.2-1.8-4.1-4.1-4.1H-274.7L-274.7,271.6z M-260.4,299.7h-7.9c0.8,2.5,1.2,5.1,1.2,7.7
			c0,15-12.6,27.2-28,27.2c-15.5,0-28-12.2-28-27.2c0-2.7,0.4-5.3,1.2-7.7h-8.3v38.1c0,2,1.6,3.6,3.6,3.6h62.8c2,0,3.6-1.6,3.6-3.6
			L-260.4,299.7L-260.4,299.7z M-295.2,288.9c-10,0-18.1,7.9-18.1,17.6c0,9.7,8.1,17.6,18.1,17.6c10,0,18.1-7.9,18.1-17.6
			C-277.1,296.8-285.2,288.9-295.2,288.9z"/>
	</g>
</g>
<g id="Layer_3" class="st0">
	<g class="st1">
		<g>
			<path class="st2" d="M-251.5,279.4c-3.3,1.5-6.8,2.4-10.5,2.9c3.8-2.3,6.7-5.8,8-10.1c-3.5,2.1-7.4,3.6-11.6,4.4
				c-3.3-3.6-8.1-5.8-13.3-5.8c-10.1,0-18.3,8.2-18.3,18.3c0,1.4,0.2,2.8,0.5,4.2c-15.2-0.8-28.6-8-37.6-19.1
				c-1.6,2.7-2.5,5.8-2.5,9.2c0,6.3,3.2,11.9,8.1,15.2c-3-0.1-5.8-0.9-8.3-2.3v0.2c0,8.8,6.3,16.2,14.6,17.9
				c-1.5,0.4-3.1,0.6-4.8,0.6c-1.2,0-2.3-0.1-3.4-0.3c2.3,7.3,9.1,12.5,17.1,12.7c-6.2,4.9-14.1,7.8-22.7,7.8
				c-1.5,0-2.9-0.1-4.4-0.2c8.1,5.2,17.7,8.2,28,8.2c33.6,0,52-27.8,52-52l-0.1-2.4C-257,286.3-253.9,283.1-251.5,279.4z"/>
		</g>
	</g>
</g>
<g id="Layer_4" class="st0">
	<g class="st1">
		<path id="YouTube" d="M-270.1,327.8h-4.9l0-2.9c0-1.3,1-2.3,2.3-2.3h0.3c1.3,0,2.3,1,2.3,2.3L-270.1,327.8z M-288.6,321.7
			c-1.3,0-2.3,0.8-2.3,1.9v14c0,1,1,1.9,2.3,1.9c1.3,0,2.3-0.8,2.3-1.9v-14C-286.3,322.5-287.3,321.7-288.6,321.7z M-258.5,313.9
			v26.5c0,6.4-5.5,11.6-12.3,11.6h-50.5c-6.8,0-12.3-5.2-12.3-11.6v-26.5c0-6.4,5.5-11.6,12.3-11.6h50.5
			C-264,302.3-258.5,307.5-258.5,313.9z M-317.9,343.3l0-28l6.3,0v-4.1l-16.7,0v4.1l5.2,0v28H-317.9z M-299.1,319.5h-5.2v14.9
			c0,2.2,0.1,3.2,0,3.6c-0.4,1.2-2.3,2.4-3.1,0.1c-0.1-0.4,0-1.6,0-3.6l0-15h-5.2l0,14.8c0,2.3-0.1,4,0,4.7c0.1,1.4,0.1,2.9,1.3,3.8
			c2.3,1.7,6.8-0.3,8-2.7l0,3.1l4.2,0L-299.1,319.5L-299.1,319.5z M-282.4,336.6l0-12.4c0-4.7-3.5-7.6-8.4-3.7l0-9.2l-5.2,0l0,31.9
			l4.3-0.1l0.4-2C-285.9,346.1-282.4,342.6-282.4,336.6z M-266.1,335l-3.9,0c0,0.2,0,0.3,0,0.5v2.2c0,1.2-1,2.1-2.1,2.1h-0.8
			c-1.2,0-2.1-1-2.1-2.1v-0.2V335V332h9v-3.4c0-2.5-0.1-4.9-0.3-6.3c-0.6-4.5-6.9-5.2-10.1-2.9c-1,0.7-1.7,1.7-2.2,2.9
			c-0.4,1.3-0.7,3-0.7,5.3v7.4C-279.3,347.3-264.3,345.6-266.1,335z M-286.2,294.7c0.3,0.7,0.7,1.2,1.3,1.6c0.6,0.4,1.3,0.6,2.1,0.6
			c0.8,0,1.4-0.2,2-0.6c0.6-0.4,1.1-1,1.5-1.9l-0.1,2h5.8v-24.7h-4.6V291c0,1-0.9,1.9-1.9,1.9c-1,0-1.9-0.9-1.9-1.9v-19.2h-4.8v16.7
			c0,2.1,0,3.5,0.1,4.3C-286.6,293.4-286.4,294.1-286.2,294.7z M-303.8,280.8c0-2.4,0.2-4.2,0.6-5.6c0.4-1.3,1.1-2.4,2.1-3.2
			c1-0.8,2.3-1.2,3.9-1.2c1.3,0,2.5,0.3,3.5,0.8c1,0.5,1.7,1.2,2.2,2c0.5,0.8,0.9,1.7,1.1,2.6c0.2,0.9,0.3,2.2,0.3,4v6.3
			c0,2.3-0.1,4-0.3,5.1c-0.2,1.1-0.6,2.1-1.1,3c-0.6,0.9-1.3,1.6-2.2,2.1c-0.9,0.4-2,0.7-3.2,0.7c-1.3,0-2.4-0.2-3.4-0.6
			c-0.9-0.4-1.6-1-2.1-1.7c-0.5-0.8-0.9-1.7-1.1-2.8c-0.2-1.1-0.3-2.7-0.3-4.9L-303.8,280.8L-303.8,280.8z M-299.2,290.6
			c0,1.4,1,2.5,2.3,2.5c1.3,0,2.3-1.1,2.3-2.5v-13.2c0-1.4-1-2.5-2.3-2.5c-1.3,0-2.3,1.1-2.3,2.5V290.6z M-315.3,297.2h5.5l0-19
			l6.5-16.2h-6l-3.4,12.1l-3.5-12.1h-5.9l6.9,16.3L-315.3,297.2z"/>
	</g>
</g>
<g>
	<path class="st3" d="M-306.2,282.2c0-0.5,0.1-1.6,0.2-3.3c0.2-1.7,0.8-3.5,2-5.4c1.1-1.9,3-3.5,5.6-5c2.6-1.5,6.3-2.2,11.1-2.2
		h13.7v14.9h-10c-1,0-1.9,0.4-2.7,1.1c-0.8,0.7-1.3,1.4-1.3,2.1v9.3h14c-0.1,1.8-0.3,3.6-0.5,5.3l-0.6,4.5c-0.2,1.5-0.4,2.9-0.7,4.2
		h-12.4v41.3h-18.5v-41.3h-9v-14h9V282.2z"/>
</g>
</svg>
