<?xml version="1.0" encoding="utf-8"?>
<!-- Generator: Adobe Illustrator 16.0.0, SVG Export Plug-In . SVG Version: 6.00 Build 0)  -->
<!DOCTYPE svg PUBLIC "-//W3C//DTD SVG 1.1//EN" "http://www.w3.org/Graphics/SVG/1.1/DTD/svg11.dtd">
<svg version="1.1" id="Layer_1" xmlns="http://www.w3.org/2000/svg" xmlns:xlink="http://www.w3.org/1999/xlink" x="0px" y="0px"
	 width="100px" height="100px" viewBox="0 0 100 100" enable-background="new 0 0 100 100" xml:space="preserve">
<path fill="#EF3A3A" d="M44.938,49.991c-0.187-0.25-0.499-0.624-0.624-0.935c0.187-0.25,0.312-0.5,0.499-0.749
	c0.187,0.25,0.499,0.624,0.686,0.873C45.312,49.492,45.125,49.742,44.938,49.991z M40.449,42.944
	c-0.125-0.188,0.062-0.312,0.249-0.063c1.185,1.622,2.494,3.181,3.804,4.928c-0.187,0.249-0.374,0.561-0.561,0.811
	C42.818,46.624,41.696,45.001,40.449,42.944z M17.251,97.819c4.926-7.108,11.225-16.275,14.592-21.139
	c0.062-0.125-0.125-0.25-0.187-0.125c-3.305,4.739-10.476,15.028-12.285,17.585c-0.312,0.499-0.499,0.25-0.312-0.124
	c0,0.062,8.668-13.221,12.222-18.458c0.063-0.063,0.25,0.373,0.312,0.312c5.924-9.167,11.661-17.647,17.46-26.44
	c-5.612-9.229-12.285-18.895-17.148-27.126c-2.681-4.49-3.492-5.737-6.797-12.035c-0.499-0.998-3.804,1.684-2.993,3.118
	c0.873,1.559,4.053,7.296,6.984,12.035c5.238,8.48,9.603,15.652,14.592,23.635c-5.114,7.919-9.541,14.217-14.405,21.7
	c-0.062,0.126,0,0.25,0.125,0.126c5.3-7.671,9.479-13.72,14.529-21.39c0.187,0.312,0.312,0.561,0.499,0.811
	c-5.363,7.732-11.911,16.524-15.964,22.823c-0.125,0.25-0.873,0-1.123,0.374C24.422,77.928,21.18,82.043,18,86.657
	c-1.247,1.809-2.931,6.61-2.308,6.299c0.562-0.312,19.83-27.563,29.184-41.406c0.125-0.124,0.374-0.062,0.249,0.062
	c-7.732,11.536-27.063,39.66-29.62,42.217C14.882,94.453,16.378,98.257,17.251,97.819z M71.877,75.059
	c-4.178-8.169-9.291-16.774-13.469-25.067c-4.989,8.293,17.397-26.939,21.575-34.547c0.25-0.436-0.249-0.499-0.062-0.873
	c0.437-0.873,3.742-5.737,4.49-7.857c0.623-1.746-1.934-3.056-2.12-2.931c-0.998,0.499-18.521,28.186-20.018,30.68
	c-3.117,4.926-6.36,9.852-9.603,14.779C52.358,48.681,67.2,73.812,68.696,76.493c1.247,2.12,6.673,10.851,7.172,11.661
	c0.312,0.499,0.623-0.811,0.436-1.186c-1.246-2.307-3.492-6.11-5.487-9.79c-0.125-0.187,0.062-0.374,0.188-0.187
	c2.058,3.616,4.116,7.046,5.55,9.416c0.187,0.312,0.562-1.247,0.312-1.934C76.18,82.542,73.436,78.114,71.877,75.059z
	 M74.309,91.709c-0.124-0.25-2.868-5.113-4.115-7.109c-2.37-3.991-4.677-7.919-6.984-11.786c0-0.062,0.188-0.062,0.188-0.124
	C56.911,62.4,62.835,72.19,50.737,52.111c-0.561,0.873-1.185,1.746-1.746,2.618c-6.298,9.168-12.846,19.332-19.207,28.436
	c-2.245,3.368-8.792,13.595-9.479,14.966c-0.25,0.499,1.497,0.25,1.746-0.124c0.374-0.562,6.298-9.354,10.102-14.779
	c0.125-0.187,0.312,0,0.187,0.188c-3.742,5.487-8.979,13.781-8.979,14.093c0,0.686,3.679-1.621,4.49-2.557
	c0.624-0.748,22.885-33.861,22.885-33.861c2.806,4.615,4.178,7.109,7.108,12.098c0.063,0.125,0.312,0.25,0.063-0.187
	c-2.495-4.552-4.49-7.856-6.923-12.223c0.125-0.187,0.312-0.374,0.437-0.561c2.683,4.988,5.488,10.04,8.855,14.904
	c-0.188,0.124-0.687,0.437-0.936,0.623c2.245,3.928,4.489,7.92,6.673,11.973c0.997,1.684,3.928,4.364,3.679,3.616
	C68.884,88.84,56.6,66.827,52.358,59.033c0-0.125,0.062-0.125,0.125-0.249c1.871,2.992,17.336,30.929,18.271,33.298
	C70.941,92.52,75.12,93.081,74.309,91.709z M53.48,36.396c0.062-0.125,0.312-0.187,0.188,0.062
	c-0.249,0.562-1.185,2.557-1.372,2.993c-0.124-0.187-0.312-0.374-0.436-0.623C52.172,38.392,53.231,36.771,53.48,36.396z
	 M27.229,9.271c0.561,0.749,15.091,22.511,23.696,36.916c6.173-9.416,12.347-18.895,18.77-28.685
	c0.997-1.622,8.543-12.971,8.917-13.719c0.437-0.873-3.117-0.437-4.053,0.686c-1.56,1.808-5.675,8.106-8.855,12.846
	c-4.739,7.046-14.28,21.514-14.03,21.077c-4.365-6.485-11.349-18.271-18.957-28.996C31.656,7.836,26.48,8.273,27.229,9.271z"/>
</svg>
