<?xml version="1.0" encoding="utf-8"?>
<!-- Generator: Adobe Illustrator 16.0.0, SVG Export Plug-In . SVG Version: 6.00 Build 0)  -->
<!DOCTYPE svg PUBLIC "-//W3C//DTD SVG 1.1//EN" "http://www.w3.org/Graphics/SVG/1.1/DTD/svg11.dtd">
<svg version="1.1" id="Layer_1" xmlns="http://www.w3.org/2000/svg" xmlns:xlink="http://www.w3.org/1999/xlink" x="0px" y="0px"
	 width="100px" height="100px" viewBox="0 0 100 100" enable-background="new 0 0 100 100" xml:space="preserve">
<g id="Layer_1_1_" display="none">
	<g display="inline">
		<path id="Facebook" d="M36.856,21.844c0,2.321,0,12.681,0,12.681h-9.29V50.03h9.29v46.077h19.083V50.031h12.807
			c0,0,1.199-7.436,1.781-15.564c-1.668,0-14.517,0-14.517,0s0-9.021,0-10.602c0-1.584,2.081-3.716,4.138-3.716
			c2.054,0,6.387,0,10.397,0c0-2.111,0-9.405,0-16.142c-5.356,0-11.45,0-14.138,0C36.385,4.006,36.856,19.527,36.856,21.844z"/>
	</g>
</g>
<g id="Layer_2">
	<g>
		<g>
			<g>
				<path fill="none" d="M16.173,4.595h67.05c6.366,0,11.576,4.714,11.576,11.577v67.051c0,6.863-5.21,11.577-11.576,11.577h-67.05
					c-6.37,0-11.579-4.714-11.579-11.577V16.172C4.594,9.309,9.803,4.595,16.173,4.595L16.173,4.595z M70.307,14.616
					c-2.233,0-4.062,1.827-4.062,4.062v9.72c0,2.233,1.825,4.061,4.062,4.061h10.194c2.233,0,4.062-1.828,4.062-4.061v-9.72
					c0-2.235-1.826-4.062-4.062-4.062H70.307L70.307,14.616z M84.604,42.742h-7.938c0.752,2.453,1.158,5.051,1.158,7.739
					c0,15.005-12.557,27.167-28.04,27.167c-15.485,0-28.038-12.162-28.038-27.167c0-2.69,0.406-5.287,1.158-7.739H14.62v38.105
					c0,1.971,1.613,3.586,3.585,3.586H81.02c1.975,0,3.586-1.613,3.586-3.586V42.742H84.604z M49.782,31.948
					c-10.005,0-18.117,7.858-18.117,17.553c0,9.696,8.111,17.554,18.117,17.554c10.006,0,18.116-7.855,18.116-17.554
					C67.898,39.806,59.788,31.948,49.782,31.948z"/>
				<g>
					<path fill="#FFFFFF" d="M53.601,29.893c0.533,0.104,1.048,0.299,1.563,0.444c4.742,1.463,8.968,4.52,11.67,8.808
						c2.719,4.253,3.734,9.813,2.242,15.045c-0.51,1.827-1.338,3.623-2.416,5.281c-1.069,1.661-2.384,3.209-3.933,4.482
						c-1.537,1.279-3.24,2.371-5.058,3.138c-1.819,0.747-3.701,1.272-5.561,1.474c4.414-0.419,8.731-2.428,11.977-5.616
						c3.282-3.16,5.339-7.612,5.69-12.194c0.423-4.588-0.982-9.287-3.651-12.979c-1.329-1.853-2.952-3.487-4.793-4.808
						c-1.846-1.312-3.889-2.325-6.023-3.022c1.818,0.17,4.062,0.696,6.25,2.125c5.209,3.462,8.713,9.239,9.273,15.342
						c-0.136,0.014-0.4,0.042-0.533,0.055c0.24,2.095,0.145,4.208-0.269,6.257c-0.44,2.046-1.243,3.985-2.284,5.759
						c-2.126,3.527-5.316,6.315-8.989,7.948c-7.343,3.343-16.369,2.222-22.861-3.126c0.4,0.448,0.064,0.299-0.088,0.281
						l-0.091-0.079l0.091,0.079c-0.134-0.02-0.127,0.078,0.681,0.769c-0.808-0.69-0.814-0.788-0.681-0.769
						c1.576,1.364,3.33,2.501,5.213,3.312c1.872,0.824,3.842,1.424,5.852,1.661c0.5,0.085,1,0.141,1.504,0.151
						c0.503,0.022,1.006,0.059,1.508,0.062c1.004-0.052,2.011-0.054,3.003-0.235c1.993-0.258,3.942-0.841,5.772-1.673
						c1.846-0.805,3.56-1.912,5.089-3.235c0.791-0.637,1.471-1.396,2.173-2.132c0.633-0.799,1.292-1.583,1.817-2.469
						c1.1-1.729,1.979-3.636,2.484-5.666c0.521-2.019,0.79-4.135,0.641-6.257c0.186,3.287-0.4,6.618-1.761,9.59
						c-1.367,2.966-3.422,5.569-5.922,7.599c-5.043,4.02-11.875,5.618-18.139,4.166c-3.135-0.701-6.125-2.106-8.672-4.115
						c-2.523-2.037-4.599-4.665-5.971-7.667c-1.356-3.011-1.927-6.386-1.694-9.708c0.204-3.338,1.362-6.62,3.189-9.451
						c0.283-0.503,0.824-1.176,1.352-1.858c0.535-0.675,1.16-1.272,1.544-1.698c3.585-2.871,7.792-4.786,12.22-5.323
						c-0.496,0.414,0.383,0.797,0.291,1.203c-0.041,0.202-0.311,0.407-1.067,0.621c-0.75,0.252-1.988,0.535-3.911,1.225
						c0.052,0.124,0.156,0.374,0.208,0.498c1.912-0.573,3.587-0.723,4.839-0.578c0.622,0.026,1.144,0.178,1.548,0.308
						c0.404,0.133,0.692,0.276,0.862,0.423c0.387,0.319,0.199,0.603-0.404,0.906c-0.306,0.153-0.734,0.28-1.285,0.428
						c-0.54,0.217-1.228,0.317-2.005,0.624c-1.774,0.561-3.597,1.42-5.267,2.662c-1.665,1.238-3.187,2.85-4.274,4.777
						c-1.071,1.932-1.711,4.147-1.776,6.413c-0.092,2.268,0.46,4.529,1.497,6.47c1.442,2.869,3.928,5.163,6.81,6.559
						c1.436,0.719,2.994,1.187,4.59,1.414c1.592,0.221,3.243,0.298,4.852,0.044c4.44-0.533,8.839-3.458,11.004-7.675
						c1.099-2.084,1.725-4.429,1.704-6.795c0.008-2.361-0.534-4.691-1.53-6.803c-0.755-1.521-2.275-3.375-4.004-4.629
						c-1.695-1.302-3.464-2.064-4.206-2.53c-1.096-0.611-1.097-0.866-0.809-1.13c2.828,0.9,5.461,2.47,7.437,4.66
						c2.031,2.137,3.36,4.861,3.932,7.686c0.592,3.493,0.042,7.178-1.715,10.211c-1.716,3.041-4.46,5.488-7.662,6.775
						c3.157-1.204,5.923-3.606,7.675-6.649c1.768-3.044,2.355-6.785,1.702-10.337c-0.54-2.823-1.819-5.557-3.804-7.721
						c-1.93-2.216-4.508-3.843-7.311-4.818c0.284-0.19,0.584-0.389,0.307-0.77c0,0-0.109-0.052-0.301-0.092
						c-0.19-0.047-0.453-0.113-0.745-0.186c-0.293-0.068-0.611-0.163-0.921-0.22c-0.313-0.046-0.611-0.09-0.85-0.125
						c-0.926-0.342-1.594-0.499-2.02-0.729c-0.427-0.215-0.619-0.426-0.619-0.629c-0.003-0.404,0.777-0.776,1.891-1.056
						C52.235,29.988,52.873,29.944,53.601,29.893z"/>
				</g>
				<g>
					<path fill="#FFFFFF" d="M87.017,50.91c-0.027,1.155-0.056,2.312-0.083,3.455c-0.072,5.316-0.145,10.606-0.217,15.927
						c-0.021,2.669-0.04,5.344-0.061,8.033l-0.012,2.02l-0.003,0.508c-0.014,0.264-0.015,0.528-0.063,0.79
						c-0.069,0.526-0.232,1.039-0.45,1.521c-0.864,1.937-2.904,3.284-5.053,3.275c-10.928-0.047-22.08-0.083-33.859-0.217
						c-8.239-0.136-17.066-0.169-25.894-0.169h-1.655l-0.827,0.001h-0.414h-0.207l-0.293-0.012c-1.614-0.068-3.137-0.958-4.03-2.271
						c-0.448-0.658-0.743-1.425-0.853-2.217c-0.036-0.197-0.037-0.396-0.048-0.596l-0.005-0.445l-0.001-0.82
						c-0.002-1.093-0.004-2.183-0.006-3.268c-0.006-4.34-0.012-8.605-0.017-12.725c-0.026,4.883-0.053,9.795-0.08,14.728
						l-0.009,1.851l-0.002,0.463c-0.004,0.127,0.012,0.431,0.025,0.637c0.055,0.456,0.145,0.913,0.314,1.343
						c0.634,1.735,2.21,3.066,4.049,3.392c1.051,0.152,1.52,0.067,2.166,0.095l1.858,0.008l3.72,0.015
						c9.924,0.049,19.886,0.097,29.806,0.145c4.956,0.037,9.901,0.074,14.827,0.111c2.461,0.025,4.917,0.049,7.367,0.073
						l3.668,0.042l0.229,0.003l0.114,0.001l0.184-0.006c0.245-0.005,0.489-0.022,0.732-0.064c0.487-0.069,0.963-0.215,1.415-0.406
						c0.899-0.396,1.699-1.01,2.291-1.792c0.603-0.773,1.001-1.714,1.143-2.694c0.045-0.244,0.048-0.491,0.062-0.737l0.008-0.478
						l0.013-0.909c0.019-1.212,0.036-2.423,0.054-3.631c0.041-2.413,0.081-4.818,0.121-7.216c0.103-4.776,0.204-9.519,0.305-14.225
						c0.318,3.793,0.573,8.325,0.573,13.602c-0.029,3.176-0.058,6.34-0.087,9.494l-0.02,2.364l-0.005,0.591l-0.003,0.295
						l-0.021,0.509c-0.054,0.742-0.229,1.481-0.52,2.168c-0.592,1.368-1.614,2.522-2.906,3.247c-0.644,0.362-1.351,0.62-2.08,0.759
						c-0.365,0.066-0.733,0.106-1.102,0.111l-0.662,0.001C74.239,87.551,68,87.513,61.787,87.476c0-0.136,0-0.402,0-0.536
						c-7.459,0.086-14.813,0.104-22.106,0.089c-3.646-0.017-7.277-0.032-10.9-0.048c-1.811-0.013-3.619-0.024-5.427-0.037
						l-2.709-0.021l-1.354-0.01l-0.677-0.006l-0.338-0.003c-0.093,0.002-0.354-0.012-0.522-0.022
						c-1.528-0.116-2.987-0.849-3.992-1.969c-1.02-1.095-1.595-2.673-1.565-4.117l0.042-5.408c0.024-3.607,0.047-7.215,0.071-10.828
						c0.011-3.616,0.022-7.237,0.033-10.871c-0.009-4.399-0.019-8.812-0.028-13.253c2.176-0.01,4.358-0.021,6.547-0.031
						c1.2-0.007,2.402-0.014,3.605-0.021l1.817-0.011l0.913-0.006l0.458-0.003l0.228-0.001l0.175,0.034
						c-0.308,1.122-0.616,2.245-0.924,3.371c-0.136,0.564-0.314,1.142-0.418,1.701l-0.156,0.839
						c-0.048,0.268-0.118,0.615-0.121,0.71c-0.157,1.218-0.211,2.379-0.183,3.58c0.086-1.137,0.188-0.458,0.27-0.226
						c0,0.078,0,0.153,0,0.224c0-0.071,0-0.146,0-0.224c0.094,0.211,0.086,0.077,0.22-1.872c-0.134,1.949-0.125,2.083-0.22,1.872
						c0.002-1.162,0.078-2.27,0.253-3.447l0.331-1.706c0.155-0.585,0.31-1.168,0.463-1.75c0.328-1.159,0.654-2.311,0.977-3.454
						c-4.941-0.001-9.859-0.002-14.659-0.004c0.001,8.149,0.002,16.211,0.003,24.237c-0.007,3.561-0.014,7.112-0.021,10.663
						l-0.016,5.323l0.001,0.704c0.005,0.393,0.049,0.785,0.122,1.174c0.157,0.775,0.462,1.519,0.887,2.178
						c0.846,1.319,2.186,2.309,3.724,2.715c0.381,0.106,0.776,0.168,1.169,0.196l0.295,0.016l0.233,0.006l0.333,0.001l1.332,0.006
						l2.664,0.011c1.777,0.009,3.556,0.017,5.336,0.025c3.561,0.019,7.129,0.038,10.712,0.058
						c7.164,0.049,14.384,0.098,21.705,0.146c-7.23-0.025-14.424-0.05-21.596-0.075c-3.586-0.007-7.167-0.014-10.743-0.021
						l-5.362-0.007l-2.68-0.002l-1.339-0.001c-0.282,0.008-1.311,0.008-2.059-0.21c-1.585-0.404-2.971-1.416-3.847-2.772
						c-0.44-0.677-0.756-1.441-0.918-2.24c-0.077-0.401-0.122-0.806-0.127-1.211l-0.002-0.706l0-5.352L11.69,64.171
						c-0.008-8.119-0.016-16.241-0.024-24.383c5.048,0,10.106,0,15.171,0.001l-1.116,3.94c-0.169,0.656-0.387,1.327-0.489,1.962
						l-0.19,0.965l-0.047,0.241l-0.021,0.137l-0.031,0.234c-0.17,1.243-0.23,2.435-0.211,3.663c0.05,2.44,0.48,4.867,1.279,7.175
						c1.587,4.622,4.684,8.732,8.692,11.644c4.003,2.927,8.904,4.627,13.921,4.833c5.023,0.229,10.111-1.03,14.435-3.663
						c0.9-0.535,2.2-1.432,3.389-2.464c1.194-1.025,2.265-2.184,2.925-2.995c2.602-2.861,4.474-6.417,5.33-10.231
						c0.432-1.905,0.614-3.876,0.545-5.839c-0.016-0.49-0.049-0.98-0.097-1.469c-0.019-0.244-0.06-0.499-0.088-0.748l-0.023-0.188
						c-0.007-0.057-0.014-0.117-0.042-0.257l-0.136-0.709c-0.364-1.875-1-3.892-1.516-5.755c1.182-0.061,2.529-0.015,3.784-0.029
						c-1.341,0.251,0.257,0.595,0.874,0.915c0.331,0.16,0.465,0.313,0.124,0.446c-0.17,0.066-0.455,0.127-0.888,0.181
						c-0.239,0.024-0.489,0.049-0.763,0.076c-0.151,0.01-0.309,0.021-0.472,0.033c-0.085,0.005-0.172,0.01-0.261,0.016
						c-0.039,0.007-0.103-0.005-0.123,0.017L75.6,42.014c0.375,1.128,0.86,2.611,1.19,4.491c0.254,1.567,0.411,3.432,0.218,5.79
						c0.135,0.009,0.404,0.028,0.539,0.037c0.405-3.595-0.024-7.106-0.465-9.167l-0.019-0.096c0.013-0.018,0.072,0,0.106-0.001
						l0.236,0.019l0.457,0.038c0.288,0.026,0.571,0.053,0.85,0.078c0.502,0.056,0.985,0.109,1.45,0.162
						c0.443,0.058,0.868,0.114,1.276,0.167c0.419,0.06,0.82,0.118,1.204,0.172c1.453,0.232,2.292,0.473,2.419,0.704
						c0.128,0.231-0.456,0.454-1.846,0.649c-0.348,0.049-0.745,0.096-1.195,0.142c-0.229,0.021-0.467,0.043-0.713,0.066
						c-0.242,0.022-0.591,0.043-0.562,0.063c-0.227,0.091-0.464,0.137-0.568,0.239c0.072,0.142,0.138,0.276,0.188,0.397l0.047,0.124
						c0.005,0.021,0.004-0.005,0.014,0.053l0.042,0.27l0.083,0.541c0.104,0.732,0.179,1.496,0.227,2.258
						c0.092,1.53,0.064,3.093-0.101,4.675c-0.326,3.162-1.2,6.386-2.655,9.427c-2.876,6.1-8.11,11.397-14.638,14.437
						c-6.514,3.082-14.203,3.825-21.321,2.045c-7.132-1.753-13.583-6.082-17.845-11.922c-2.675-3.648-4.525-7.937-5.302-12.427
						c-0.394-2.245-0.525-4.529-0.39-6.803c0.024-0.567,0.086-1.142,0.145-1.697l0.105-0.823c0.015-0.118,0.002-0.036,0.005-0.063
						c-0.003-0.006-0.006-0.009-0.009-0.009c-0.009,0.003-0.014,0.008-0.014,0.01l-0.821,0.001l0,0.001l0.002,0.001l-0.002-0.002
						l-0.006,2.621l-0.027,5.938c-0.04,3.952-0.08,7.907-0.12,11.874c-0.042,3.242-0.085,6.515-0.129,9.812
						c-0.015,1.532-0.029,3.07-0.043,4.613c0.001,0.254,0.278,0.565,0.559,0.567c6.645,0.046,13.357,0.092,20.071,0.139
						c13.536,0.084,27.07,0.186,40.015,0.455c0.59,0.007,1.206,0.013,1.844,0.02c0.308,0.001,0.621,0.002,0.938,0.003
						c0.118,0,0.231-0.021,0.345-0.049c0.455-0.125,0.863-0.597,0.882-1.102c-0.016-2.878-0.032-5.903-0.048-8.783
						c-0.034-5.886-0.034-11.184,0.168-13.538c0.194-3.382,0.481-3.517,0.802-2.999c-0.019,7.739-0.037,15.466-0.056,23.165
						l-0.003,1.443c-0.003,0.22,0.004,0.527-0.007,0.675c-0.004,0.142-0.023,0.281-0.057,0.417c-0.129,0.543-0.497,1.036-0.985,1.32
						c-0.525,0.312-0.898,0.303-2.029,0.288l-2.877-0.007c-3.834-0.013-7.659-0.025-11.474-0.037
						c-9.356-0.084-18.713-0.167-28.075-0.25c-4.677-0.052-9.355-0.103-14.035-0.154l-3.508-0.043l-1.754-0.022
						c-0.186,0.002-0.176-0.014-0.261-0.014l-0.187-0.033c-0.12-0.038-0.242-0.069-0.351-0.137
						c-0.454-0.232-0.774-0.715-0.815-1.191c-0.016-0.059-0.001-0.122-0.009-0.183l0.003-0.41l0.013-0.877l0.024-1.753l-0.054,3.195
						c0.029,0.479,0.325,0.96,0.77,1.224c0.223,0.126,0.466,0.2,0.727,0.216l1.71,0.03l3.469,0.052
						c4.639,0.056,9.296,0.111,13.974,0.168c9.377,0.06,18.833,0.121,28.358,0.183l11.418,0.091l2.854,0.022l0.714,0.006
						l0.348,0.001l0.216-0.009c0.286-0.026,0.565-0.11,0.82-0.249c0.513-0.274,0.914-0.769,1.072-1.326
						c0.152-0.404,0.074-1.564,0.106-2.475l0.197-22.841c0.275,0.557,0.562,1.092,0.829,0.163c0,0,0-4.706,0-7.06
						c0.675-9.42,1.62-7.06,2.295-2.36C86.705,48.076,86.855,49.442,87.017,50.91z"/>
				</g>
				<g>
					<path fill="#FFFFFF" d="M72.29,12.204c0.281,0.028,0.564,0.056,0.839,0.083c1.285,0.101,2.571,0.168,3.866,0.217
						c0.653,0.02,1.302,0.04,1.95,0.061l0.982,0.022l0.493,0.011c0.167,0.003,0.47,0.037,0.698,0.062
						c0.991,0.077,1.93,0.497,2.764,1.026c0.782,0.605,1.51,1.329,1.928,2.257c0.259,0.435,0.362,0.942,0.505,1.428
						c0.06,0.246,0.063,0.503,0.09,0.756c0.017,0.234,0.045,0.559,0.03,0.695c-0.027,0.69-0.056,1.393-0.084,2.117
						c-0.136,2-0.169,4.144-0.169,6.287l0.001,0.803l-0.002,0.415l-0.047,0.56c-0.021,0.186-0.037,0.373-0.066,0.556L85.911,30.1
						c-0.056,0.178-0.11,0.357-0.174,0.53l-0.257,0.493c-0.7,1.301-1.903,2.275-3.248,2.7c1.6-0.478,2.993-1.681,3.641-3.274
						c0.127-0.406,0.309-0.808,0.353-1.235c0.052-0.397,0.114-0.936,0.104-1.175l0.03-1.805c0.048-2.404,0.096-4.814,0.145-7.236
						l0.008-0.467l-0.047-0.668c-0.015-0.45-0.146-0.879-0.277-1.31c-0.271-0.858-0.771-1.622-1.363-2.293
						c-0.333-0.296-0.657-0.616-1.033-0.862c-0.393-0.218-0.763-0.498-1.201-0.626c-0.429-0.151-0.857-0.315-1.313-0.354
						l-0.68-0.084c-0.215-0.021-0.314-0.019-0.477-0.03c-2.363-0.126-4.694-0.296-6.972-0.53c0.921-0.318,2.021-0.573,3.303-0.573
						c0.773,0.029,1.542,0.058,2.305,0.087l1.146,0.039l0.573,0.018c0.298,0.019,0.666,0.058,0.993,0.102
						c1.337,0.2,2.625,0.777,3.612,1.665c0.528,0.409,0.921,0.954,1.321,1.476c0.322,0.579,0.671,1.148,0.834,1.796
						c-0.13,0.042-0.383,0.125-0.51,0.167c0.152,0.411,0.274,0.827,0.311,1.263l0.071,0.648c0.02,0.223,0.013,0.291,0.02,0.444
						c0.01,0.537,0.02,1.064,0.029,1.589c0.011,1.056,0.004,2.105-0.013,3.15c-0.025,1.037-0.051,2.077-0.076,3.123l-0.053,1.571
						c-0.035,0.415-0.087,0.831-0.152,1.238c-0.109,0.399-0.246,0.795-0.389,1.182c-0.664,1.519-1.901,2.732-3.408,3.37
						c-0.376,0.153-0.776,0.258-1.168,0.368c-0.396,0.085-0.81,0.104-1.214,0.138c-0.237,0.02-0.312,0.007-0.457,0.009l-0.391-0.003
						l-0.782-0.002c-2.09,0-4.197,0.059-6.341,0.228c0.305,0.072,0.124,0.182,0.061,0.27l-0.061,0l0.061,0
						c-0.057,0.076-0.021,0.136,0.512,0.136c-0.533,0-0.568-0.06-0.512-0.136c2.117-0.018,4.187-0.035,6.24-0.052l1.574-0.005
						c0.428-0.027,0.856-0.071,1.279-0.131c0.414-0.11,0.827-0.237,1.23-0.378c1.588-0.655,2.889-1.904,3.606-3.465
						c0.349-0.784,0.57-1.627,0.614-2.49l0.024-0.319l0.003-0.191l0.006-0.383l0.014-0.766c0.021-1.019,0.041-2.042,0.062-3.073
						c0.025-1.025,0.052-2.057,0.077-3.098c0.016-0.519,0.03-1.039,0.045-1.562l0.012-0.392c0.002-0.135,0.014-0.228-0.005-0.497
						c-0.034-0.455-0.048-0.92-0.155-1.367c0.095,0.345,0.104,0.706,0.143,1.061l0.035,0.533l-0.004,0.314l-0.02,1.222
						c-0.01,0.815-0.021,1.627-0.03,2.438c-0.012,1.625-0.022,3.241-0.033,4.855l-0.002,0.605l-0.001,0.303l-0.039,0.519
						c-0.039,0.346-0.058,0.697-0.145,1.033c-0.093,0.335-0.197,0.67-0.312,0.999c-0.528,1.287-1.407,2.409-2.543,3.207
						c-1.152,0.773-2.529,1.208-3.926,1.238l-2.433,0.013c-1.615,0.01-3.233,0.02-4.856,0.03l-2.438,0.017l-0.306,0.002
						c-0.099,0.001-0.186,0.005-0.394-0.011c-0.354-0.023-0.708-0.059-1.061-0.105c-0.686-0.157-1.396-0.336-2.01-0.698
						c-0.648-0.308-1.193-0.77-1.726-1.241c-0.475-0.529-0.941-1.073-1.256-1.725c-0.179-0.312-0.329-0.636-0.429-0.985
						c-0.104-0.345-0.235-0.687-0.283-1.043c-0.05-0.356-0.087-0.717-0.112-1.077c-0.018-0.215-0.01-0.267-0.013-0.382l-0.001-0.31
						c-0.004-1.653-0.007-3.316-0.011-4.992c0-0.571,0-1.714,0-2.286c0.102-0.571,0.186-1.143,0.255-1.715
						c0.026-0.196,0.052-0.389,0.076-0.578c0.04-0.241,0.08-0.477,0.118-0.709c0.076-0.469,0.284-0.91,0.442-1.352
						c0.756-1.736,2.206-3.076,3.946-3.713c-0.297,0.456,0.506,0.72,0.519,1.126c0.022,0.205-0.135,0.385-0.542,0.74
						c-0.104,0.084-0.226,0.175-0.368,0.274c-0.145,0.13-0.286,0.258-0.44,0.396c-0.174,0.138-0.351,0.308-0.521,0.527
						c-0.182,0.208-0.391,0.432-0.552,0.732c0.117,0.066,0.353,0.2,0.47,0.266c0.748-0.978,1.779-1.287,2.46-1.253
						c0.708,0.03,1.111,0.405,1.244,0.67c0.106,0.156,0.143,0.311,0.101,0.46c-0.062,0.144-0.151,0.298-0.217,0.446
						c-0.165,0.272-0.375,0.534-0.562,0.833c-0.044,0.096-0.117,0.152-0.137,0.258c-0.059,0.073-0.059,0.175-0.091,0.253
						c-0.029,0.082-0.012,0.171-0.037,0.248c0.036,0.13-0.015,0.025,0.007,0.52c0.029,1.464,0.021,3,0.004,4.572
						c-0.015,1.572-0.03,3.182-0.046,4.786c0.031,0.212,0.073,0.37,0.176,0.542c0.139,0.144,0.305,0.244,0.467,0.3
						c0.071-0.017,0.12,0.019,0.181,0.022c0.032-0.01,0.062-0.014,0.092-0.013c0.057-0.002-0.014,0.02,0.184,0.01l1.715-0.045
						c1.15-0.02,2.292-0.038,3.43-0.057c1.143-0.008,2.286-0.004,3.429,0.019l0.857,0.021l0.428,0.013l0.215,0.008l0.041-0.009
						c0.11,0.011,0.231,0.027,0.353-0.014c0.188-0.011,0.364-0.146,0.488-0.302c0.093-0.07,0.094-0.174,0.169-0.261
						c0.008-0.052,0.007-0.104,0.028-0.156c0.007-0.046,0.028-0.007,0.029-0.125l0.011-0.305c0.044-1.636,0.088-3.271,0.133-4.911
						c0.043-1.526,0.085-3.054,0.129-4.602c0.007-0.276-0.051-0.576-0.235-0.829c-0.167-0.252-0.394-0.519-0.698-0.641
						c-0.101-0.084-0.242-0.054-0.378-0.092c-0.025-0.022-0.25-0.015-0.412-0.015c-0.173,0.002-0.349,0.004-0.528,0.007
						c-0.709,0.018-1.466,0.037-2.179,0.055c-1.43,0.034-2.716,0.034-3.287-0.168c-0.821-0.194-0.854-0.481-0.729-0.802
						c1.882,0.019,3.756,0.038,5.624,0.057l1.401,0.013c0.322,0.042,0.596,0.051,0.873,0.173c0.544,0.203,1.016,0.602,1.308,1.097
						c0.352,0.663,0.319,1.163,0.265,2.489c-0.044,1.131-0.088,2.267-0.132,3.408c-0.052,1.129-0.103,2.263-0.154,3.408
						c-0.029,0.565-0.059,1.133-0.088,1.704c-0.042,0.158-0.07,0.28-0.09,0.42c-0.076,0.123-0.111,0.251-0.176,0.37
						c0.069-0.113,0.11-0.238,0.189-0.358c0.032-0.132,0.057-0.268,0.107-0.407c0.037-0.564,0.074-1.122,0.11-1.674
						c0.057-1.149,0.112-2.274,0.168-3.393c0.037-1.15,0.074-2.29,0.111-3.427l0.021-0.862c0-0.133,0.012-0.312,0.003-0.408
						l-0.022-0.262c-0.012-0.353-0.144-0.692-0.313-1.006c-0.278-0.503-0.737-0.918-1.282-1.146
						c-0.273-0.132-0.562-0.155-0.874-0.209l-1.387-0.046c-1.842-0.065-3.687-0.131-5.545-0.198c0.135-0.275,0.265-0.563,0.04-0.83
						c0,0-1.143,0-1.715,0c-2.287-0.675-1.714-1.62-0.572-2.295C71.598,12.513,71.925,12.358,72.29,12.204z"/>
				</g>
				<g>
					<path fill="#FFFFFF" d="M8.969,10.331c-0.737,0.872-1.297,1.899-1.65,3.007c-0.189,0.646-0.329,1.314-0.392,2.002
						c-0.015,0.366-0.056,0.649-0.058,1.083l-0.017,1.261l-0.059,5.047c-0.029,3.37-0.059,6.742-0.089,10.124
						c-0.034,6.773-0.068,13.586-0.103,20.493c-0.026,6.909-0.052,13.91-0.078,21.053c-0.009,1.785-0.018,3.58-0.026,5.384
						c-0.005,0.901-0.01,1.806-0.015,2.713l-0.004,0.68l0.024,0.59c0,0.393,0.046,0.776,0.108,1.158
						c0.405,3.062,2.378,5.834,5.258,7.153c0.995,0.474,2.086,0.797,3.224,0.922c1.059,0.101,2.524,0.072,3.842,0.094
						c2.697,0.017,5.428,0.034,8.181,0.052c5.51,0.011,11.109,0.022,16.71,0.033c11.202-0.012,22.404-0.022,32.858-0.033
						c-12.394-0.048-24.939-0.096-37.535-0.145C32.85,92.981,26.54,92.96,20.23,92.938l-2.366-0.009
						c-0.76-0.011-1.65,0.015-2.265-0.037c-1.34-0.076-2.65-0.406-3.833-0.979c-2.385-1.128-4.168-3.292-4.84-5.83
						c-0.173-0.634-0.279-1.287-0.336-1.95l-0.039-1.019l0.006-1.179l0.027-4.709c0.021-3.137,0.041-6.269,0.061-9.393
						c0.054-6.245,0.107-12.464,0.16-18.645c0.076-6.171,0.15-12.304,0.225-18.39c0.047-3.037,0.095-6.062,0.142-9.074
						c0.026-1.504,0.053-3.004,0.079-4.502l0.024-1.107l0.063-0.889c0.084-0.581,0.188-1.152,0.359-1.696
						c-0.038,0.229-0.076,0.459-0.114,0.692c-0.016,0.239-0.032,0.48-0.048,0.723c-0.032,0.239-0.005,0.494-0.003,0.744
						c0.007,0.254,0.003,0.48,0.026,0.841c0.059,1.342,0.12,2.72,0.182,4.139c0.104,2.877,0.167,5.989,0.167,9.337
						C7.817,46.134,7.726,62.035,7.636,77.803c-0.136,0-0.402,0-0.536,0c0.011,1.4,0.022,2.798,0.034,4.192l0.007,1.046
						c0.002,0.351,0.032,0.58,0.042,0.875c0,0.283,0.053,0.555,0.096,0.827c0.035,0.274,0.079,0.546,0.16,0.805
						c0.5,2.12,1.769,3.958,3.546,5.122c0.882,0.586,1.877,1.01,2.925,1.257c0.26,0.07,0.524,0.127,0.795,0.152
						c0.269,0.035,0.534,0.091,0.81,0.088c0.292,0.008,0.504,0.036,0.859,0.033l1.029,0.001c2.744,0.006,5.48,0.012,8.211,0.017
						c10.918,0.06,21.751,0.118,32.583,0.178c5.416,0.029,10.831,0.059,16.257,0.088c2.714,0.01,5.43,0.019,8.15,0.028
						c0.735,0.005,1.205-0.016,1.78-0.07c0.273-0.044,0.552-0.066,0.822-0.121l0.805-0.189c1.057-0.311,2.05-0.799,2.919-1.447
						c1.748-1.294,2.946-3.236,3.379-5.416c0.081-0.553,0.171-1.104,0.172-1.676c0.019-0.26,0.02-0.599,0.016-0.952l-0.005-1.031
						c-0.008-1.376-0.016-2.753-0.023-4.134c-0.059-5.511-0.117-11.061-0.177-16.676c-0.072,1.593-0.182,0.648-0.27,0.317
						c0-0.11,0-0.216,0-0.317c0,0.102,0,0.207,0,0.317c-0.076-0.298-0.136-0.115-0.136,2.673c0-2.788,0.06-2.971,0.136-2.673
						c0.013,5.512,0.025,10.978,0.037,16.409c0.002,1.357,0.004,2.714,0.006,4.067l0.002,1.016c0.001,0.342,0.003,0.692-0.018,0.931
						c-0.002,0.54-0.082,1.061-0.159,1.581c-0.404,2.05-1.49,3.87-3.097,5.114c-0.796,0.629-1.722,1.098-2.706,1.401
						c-1.012,0.312-1.973,0.433-3.146,0.439c-2.678-0.002-5.352-0.004-8.022-0.006c-5.342-0.009-10.672-0.019-16.002-0.027
						c-10.658-0.036-21.315-0.072-32.062-0.108c-2.686-0.012-5.377-0.024-8.076-0.037c-1.332-0.014-2.817,0.019-3.715-0.092
						c-1.029-0.114-2.021-0.408-2.918-0.866c-1.804-0.902-3.209-2.441-3.935-4.314c-0.376-0.933-0.56-1.958-0.585-3.016L7.608,83.21
						l0.003-0.514l0.006-1.03l0.012-2.062l-0.012,3.203l-0.001,0.399l0.016,0.312l0.024,0.615c0.062,0.398,0.086,0.808,0.188,1.191
						c0.151,0.787,0.463,1.508,0.802,2.206c0.388,0.671,0.839,1.301,1.385,1.85c1.104,1.081,2.518,1.865,4.083,2.206
						c0.382,0.117,0.793,0.126,1.188,0.198c0.437,0.008,0.734,0.055,1.324,0.045l3.182,0.006c8.481,0.012,16.937,0.022,25.38,0.033
						c8.444,0.001,16.874,0.002,25.305,0.003l12.648-0.007c3.303,0.029,6.346-1.702,7.745-4.492
						c0.369-0.684,0.589-1.445,0.773-2.217c0.047-0.399,0.143-0.789,0.151-1.199l0.029-0.614c0.014-0.193,0.003-0.509,0.006-0.757
						l-0.007-6.343c-0.005-4.23-0.011-8.467-0.016-12.709c-0.011-8.484-0.022-16.996-0.033-25.546
						c-0.005-4.275-0.01-8.56-0.015-12.856c-0.002-2.148-0.004-4.299-0.006-6.453l-0.002-1.616v-0.809l-0.031-0.64
						c-0.029-0.831-0.196-1.626-0.441-2.382c-0.96-3.039-3.786-5.241-7.08-5.538c-0.202-0.029-0.412-0.02-0.617-0.035
						c-0.203-0.01-0.398-0.025-0.697-0.021l-1.632,0L77.998,7.64c-2.182,0-4.367,0.001-6.557,0.001c-2.982,0-8.96,0-11.947,0
						c-11.95-0.405-23.904-0.54-35.846-0.54c2.982-0.675-8.968-2.025,14.937-1.755c0-0.135,0-0.405,0-0.54
						C14.68,4.131,5.716,2.241,29.621,1.701c13.442-0.27,29.125-0.27,45.556-0.236c2.054,0.004,4.119,0.009,6.193,0.014l1.558,0.004
						c0.233-0.004,0.573,0.011,0.897,0.026c0.324,0.019,0.647,0.024,0.971,0.059c1.293,0.152,2.584,0.426,3.821,0.901
						c2.466,0.939,4.738,2.569,6.341,4.736c1.655,2.135,2.561,4.769,2.843,7.357l0.055,0.972c0.014,0.318,0.032,0.673,0.026,0.908
						v1.575l0.002,3.148c0.004,2.097,0.008,4.192,0.012,6.28c0.022,4.176,0.045,8.328,0.067,12.438
						c0.051,11.956,0.102,23.909,0.152,35.854l0.003,4.481c-0.024,1.539,0.072,2.814-0.113,4.853
						c-0.375,3.754-2.355,7.513-5.454,9.871c-1.53,1.192-3.293,2.056-5.13,2.559c-0.463,0.108-0.925,0.229-1.391,0.313
						c-0.467,0.064-0.936,0.136-1.404,0.183l-1.405,0.057L82.1,98.047c-2.984-0.027-5.97-0.056-8.959-0.083
						c-16.431-0.202-33.609-0.271-50.787-0.354l-6.496-0.045c-1.307-0.019-2.612-0.251-3.885-0.594
						c-1.261-0.398-2.488-0.926-3.615-1.643c-2.247-1.432-4.085-3.534-5.155-5.962c-0.541-1.207-0.917-2.481-1.091-3.764
						c-0.11-0.642-0.149-1.281-0.164-1.92l-0.016-0.476l0.003-0.399l0.007-0.796c0.069-8.495,0.162-16.896,0.297-25.11
						c0.135-11.955-0.27-32.87,0.135-38.847C2.45,16,2.641,14.537,2.896,14.033c0.218-0.545,0.346-0.372,0.451,0.013
						c-0.126,0.676-0.138,1.355-0.171,2.035l-0.008,1.85L3.16,21.611l-0.015,7.355c-0.008,4.901-0.017,9.795-0.025,14.681
						c-0.021,9.771-0.043,19.507-0.065,29.19l-0.058,8.907c-0.024,1.401-0.032,3.18,0.371,4.806c0.381,1.643,1.086,3.23,2.089,4.615
						c1.994,2.794,5.175,4.651,8.515,5.174c0.818,0.149,1.718,0.18,2.483,0.197l2.227,0.018l4.454,0.034
						c11.869,0.113,23.739,0.226,35.619,0.338c-11.609-0.185-23.374-0.313-35.261-0.405c-1.486-0.011-2.974-0.021-4.463-0.032
						c-1.496-0.035-2.917,0.055-4.681-0.158c-3.355-0.426-6.601-2.197-8.678-4.958C4.63,90.005,3.88,88.42,3.462,86.768
						c-0.224-0.823-0.339-1.669-0.399-2.509c-0.015-0.41-0.046-0.866-0.043-1.239l0.004-1.129c0.01-3.013,0.021-6.031,0.031-9.054
						c0.061-9.66,0.121-19.322,0.182-28.985l0.095-14.494l0.05-7.247l0.026-3.623c0.015-1.211-0.011-2.38,0.099-3.736
						c0.226,0.804,0.489,1.487,0.811,0.295c0,0,0.083-1.55,0.759-3.354c0.622-1.834,2.105-3.687,3.296-4.652
						c2.512-1.834,4.705-2.061,5.969-2.077c0.648-0.013,1.107,0.082,1.402,0.168c0.294,0.086,0.425,0.181,0.425,0.282
						c0.013,0.447-2.126,0.701-4.239,2.069C10.852,8.14,9.764,9.059,8.969,10.331z"/>
				</g>
			</g>
		</g>
	</g>
</g>
<g id="Layer_3" display="none">
	<g display="inline">
		<g>
			<path fill="#010002" d="M93.521,22.394c-3.277,1.452-6.795,2.437-10.488,2.876c3.771-2.259,6.66-5.842,8.029-10.099
				c-3.539,2.092-7.445,3.611-11.606,4.435c-3.333-3.555-8.074-5.77-13.333-5.77c-10.087,0-18.267,8.18-18.267,18.262
				c0,1.43,0.161,2.827,0.473,4.163C33.15,35.498,19.69,28.226,10.682,17.175c-1.574,2.693-2.47,5.832-2.47,9.181
				c0,6.337,3.227,11.93,8.124,15.202c-2.993-0.101-5.809-0.924-8.274-2.293v0.229c0,8.847,6.299,16.23,14.65,17.91
				c-1.53,0.412-3.144,0.642-4.813,0.642c-1.179,0-2.32-0.118-3.438-0.341c2.326,7.262,9.069,12.542,17.06,12.688
				C25.272,75.289,17.393,78.2,8.835,78.2c-1.474,0-2.927-0.091-4.357-0.25c8.085,5.19,17.683,8.218,28,8.218
				c33.602,0,51.97-27.832,51.97-51.969l-0.062-2.365C87.975,29.271,91.079,26.055,93.521,22.394z"/>
		</g>
	</g>
</g>
<g id="Layer_4" display="none">
	<g display="inline">
		<path id="YouTube" d="M74.939,70.832H70l0.023-2.869c0-1.275,1.047-2.318,2.326-2.318h0.312c1.279,0,2.332,1.043,2.332,2.318
			L74.939,70.832z M56.413,64.684c-1.253,0-2.278,0.842-2.278,1.873V80.51c0,1.029,1.025,1.869,2.278,1.869
			c1.258,0,2.284-0.84,2.284-1.869V66.557C58.697,65.525,57.671,64.684,56.413,64.684z M86.5,56.879v26.544
			C86.5,89.79,80.979,95,74.23,95H23.771C17.02,95,11.5,89.79,11.5,83.423V56.879c0-6.367,5.52-11.578,12.271-11.578H74.23
			C80.979,45.301,86.5,50.512,86.5,56.879z M27.137,86.305l-0.004-27.961l6.255,0.002v-4.143l-16.674-0.025v4.073l5.205,0.015
			v28.039H27.137z M45.887,62.509h-5.215v14.931c0,2.16,0.131,3.24-0.008,3.621c-0.424,1.158-2.33,2.391-3.073,0.125
			c-0.126-0.396-0.015-1.59-0.017-3.643l-0.021-15.034h-5.186l0.016,14.798c0.004,2.271-0.051,3.959,0.018,4.729
			c0.127,1.356,0.082,2.938,1.341,3.843c2.346,1.689,6.843-0.252,7.968-2.668l-0.01,3.083l4.188,0.005L45.887,62.509L45.887,62.509z
			 M62.57,79.607L62.559,67.18c-0.004-4.736-3.547-7.572-8.354-3.74l0.021-9.236l-5.208,0.008L48.99,86.1l4.283-0.062l0.391-1.986
			C59.137,89.072,62.578,85.631,62.57,79.607z M78.891,77.96l-3.91,0.021c-0.002,0.155-0.008,0.334-0.01,0.529v2.182
			c0,1.168-0.965,2.119-2.137,2.119h-0.766c-1.174,0-2.139-0.951-2.139-2.119V80.45v-2.4v-3.097h8.951v-3.37
			c0-2.463-0.062-4.925-0.267-6.333c-0.644-4.454-6.896-5.161-10.054-2.881c-0.988,0.712-1.748,1.665-2.188,2.945
			c-0.443,1.28-0.665,3.03-0.665,5.254v7.41C65.714,90.296,80.676,88.555,78.891,77.96z M58.833,37.732
			c0.269,0.654,0.687,1.184,1.254,1.584c0.56,0.394,1.276,0.592,2.134,0.592c0.752,0,1.418-0.203,1.998-0.622
			c0.578-0.417,1.065-1.04,1.463-1.871l-0.099,2.046h5.813V14.74H66.82v19.24c0,1.042-0.858,1.895-1.907,1.895
			c-1.043,0-1.904-0.853-1.904-1.895V14.74h-4.776v16.674c0,2.124,0.039,3.54,0.104,4.258C58.4,36.385,58.564,37.069,58.833,37.732z
			 M41.217,23.77c0-2.373,0.198-4.226,0.591-5.562c0.396-1.331,1.107-2.401,2.137-3.208c1.027-0.811,2.342-1.217,3.941-1.217
			c1.345,0,2.497,0.264,3.459,0.781c0.968,0.52,1.714,1.195,2.229,2.028c0.525,0.836,0.885,1.695,1.074,2.574
			c0.194,0.891,0.291,2.235,0.291,4.048v6.252c0,2.293-0.092,3.98-0.271,5.051c-0.177,1.074-0.559,2.07-1.146,3.004
			c-0.58,0.924-1.33,1.615-2.236,2.056c-0.918,0.445-1.968,0.663-3.154,0.663c-1.325,0-2.441-0.183-3.361-0.565
			c-0.923-0.38-1.636-0.953-2.144-1.714c-0.513-0.762-0.874-1.69-1.092-2.772c-0.219-1.081-0.323-2.707-0.323-4.874L41.217,23.77
			L41.217,23.77z M45.77,33.59c0,1.4,1.042,2.543,2.311,2.543c1.27,0,2.308-1.143,2.308-2.543V20.43
			c0-1.398-1.038-2.541-2.308-2.541c-1.269,0-2.311,1.143-2.311,2.541V33.59z M29.682,40.235h5.484l0.006-18.96l6.48-16.242h-5.998
			l-3.445,12.064L28.715,5h-5.936l6.894,16.284L29.682,40.235z"/>
	</g>
</g>
</svg>
