<?xml version="1.0" encoding="utf-8"?>
<!-- Generator: Adobe Illustrator 16.0.0, SVG Export Plug-In . SVG Version: 6.00 Build 0)  -->
<!DOCTYPE svg PUBLIC "-//W3C//DTD SVG 1.1//EN" "http://www.w3.org/Graphics/SVG/1.1/DTD/svg11.dtd">
<svg version="1.1" id="Layer_1" xmlns="http://www.w3.org/2000/svg" xmlns:xlink="http://www.w3.org/1999/xlink" x="0px" y="0px"
	 width="695px" height="245px" viewBox="0 0 695 245" enable-background="new 0 0 695 245" xml:space="preserve">
<g>
	<path fill="#EF3A3A" d="M25.638,96.962c0.421-0.141,0.281-0.281,0-0.281c-2.951,0.562-5.339,1.967-5.902,2.53
		c-0.421,0.421-0.281,0.562-0.14,1.124c0.14,0.562,0.422,1.124,0.562,0.843C20.58,100.616,23.108,98.086,25.638,96.962z
		 M11.867,197.57c0.703,0.141,0.421-1.266,0.844-4.075c0.984-6.886,2.107-13.067,3.653-19.953
		c3.935-17.283,9.977-56.346,12.225-68.149c0.281-1.687,0.703-3.232,0.281-3.232c-1.124,0-3.793,0.422-7.167,0.984
		c-1.124,0.141-1.826,0.844-2.81,2.389c-1.124,1.826-1.827,3.793-2.529,7.307c-4.215,20.937-7.166,39.483-10.257,58.876
		c0,0.279,0.843,0.421,0.983-0.143c3.091-12.785,3.935-25.572,6.183-36.673c0-0.28,0.843-0.28,0.843,0
		c-0.562,8.853-5.34,37.657-6.323,38.501c-0.562,0.562-1.967-0.844-2.248,0.14c-1.125,3.795-2.107,8.994-3.091,12.928
		c-0.843,2.107,0.141,4.075,0.984,5.902c0.983,2.107,7.728-16.582,10.397-31.476c0.281-1.827,0.703-1.125,0.562,0
		c-2.389,13.349-7.026,27.82-9.134,31.193C3.999,193.917,7.792,197.009,11.867,197.57z M73.131,204.314
		c-7.448-1.825-17.564-1.968-25.995-1.968c-0.422,0-0.422-0.702,0-0.842c5.059-0.983,26.979,0.562,27.26,0
		c0.843-1.968,0.421-6.323-0.141-6.604c-0.703-0.281-4.356,0.281-18.266,1.124c-10.539,0.702-36.112,3.654-36.534,4.356
		c-0.421,0.703,0.703,1.966,0,1.966c-3.091-0.14-2.389,4.497-2.108,7.448c0.141,0.982,3.935,0.843,4.356,1.545
		c0.281,0.562,3.232,0.141,4.778,0c11.943-0.983,24.449-3.793,33.583-3.793c0.28,0,0.28-0.703,0-0.703
		c-9.133-0.14-14.192-0.14-21.218,0.844c-0.421,0-0.703-0.562,0.281-0.703c4.918-0.983,15.737-1.265,23.044-0.702
		c0.281,0-0.562,1.124,0,1.124c3.092,0,6.042,0,8.853,0C72.007,207.406,73.693,204.454,73.131,204.314z M33.225,192.372
		c6.323-0.563,22.764-1.827,30.772-1.827c3.794,0,8.853-0.281,8.993-0.702c0.141-0.563-0.141-1.266-0.562-1.266
		c-2.951-0.141-7.448,0.282-11.242-0.281c-0.562-0.14-0.421-0.702,0.141-0.562c3.794,0.562,8.853-0.14,10.82-0.842
		c0.421-0.141-1.546-4.216-4.075-4.918c-2.67-0.702-15.175-0.422-20.796,0c-6.183,0.421-11.944,0.983-16.581,1.545
		c1.967-8.009,2.669-15.314,4.777-23.324c6.183-0.984,10.398-1.547,16.159-2.25c0.421,0,0.421-0.702,0-0.702
		c0.281,0-10.96,0-11.382,0s-0.421-0.702,0-0.702c4.215,0,13.349-1.124,13.489-0.843c0.422,0.702-0.422,1.827,0.14,1.827
		c0.422,0,3.092-0.282,5.48-0.703c0.843-0.14,1.826-1.405,1.405-1.826c-0.703-0.703-4.075-2.671-12.927-2.389
		c-0.422,0-0.422-0.562,0-0.562c10.679-0.14,11.802,1.405,13.348,1.686c0.703,0.142,1.405-2.81,1.125-6.041
		c-0.281-2.67-0.984-2.248-5.62-1.687c-1.968,0.281-25.433,2.67-28.946,2.67c-0.281,3.372-5.059,24.168-6.745,32.88
		c-0.842,3.935-1.967,10.117-2.529,11.381c-0.14,0.281-0.281,0.422-0.702,0.702c-0.422,0.282-0.141,0.703,0.141,0.562
		C23.108,192.933,27.324,192.933,33.225,192.372z M91.397,93.027c-1.264,0-2.951,0.844-7.025,1.546
		c-18.547,3.232-24.168,3.092-27.541,3.654c-0.703,0.14-0.28,0.843,0.422,0.843c3.09-0.281,22.481-2.529,32.037-4.075
		c0.281,0,0.281,0.984,0,0.984c-12.505,1.546-36.815,4.075-49.882,5.62c-1.265,0.141-2.249,0.141-3.513,0.282
		c-0.702,0.141-0.702,2.248-0.984,4.074c-1.405,10.82-4.917,30.632-5.901,35.692c4.637,0,8.15-0.142,14.614-0.702
		c3.793-0.282,13.208-0.845,17.143-1.828c0.562-0.14,0-2.387-0.422-2.387c-1.826,0-10.679-0.563-12.787-1.405
		c-0.982-0.423-0.702-0.562-0.14-0.423c3.513,0.844,6.604,0.844,12.646,0.844c0.421,0-1.265-3.373-2.53-3.794
		c-1.405-0.422-5.199,0-9.133,0.281c-2.529,0.14-6.885,0.562-7.307,0.421c0.843-4.778,2.389-11.946,3.513-17.284
		c0.14-1.265,0.421-2.529,0.281-3.513c11.101-1.828,25.151-3.232,30.21-3.794c0.843-0.141,0.421-0.843,0.141-0.843
		c-5.199,0.281-22.482,1.827-26.698,2.67c-0.562,0.14-0.843-0.562-0.281-0.703c10.258-1.968,28.103-3.935,28.525-3.373
		c0.562,0.703-0.141,2.107,0.28,2.107c3.935-0.562,6.464-0.562,10.398-1.265c2.108-0.421,3.793-3.231,3.091-3.372
		c-10.257-2.39-21.64-1.125-32.458,0.281c-0.421,0-0.562-0.281-0.14-0.422c4.496-0.843,10.538-1.405,15.035-1.686
		c5.901-0.421,11.381-0.562,17.423,0.702c0.984,0.141,1.406-0.842,1.687-2.107C92.802,97.102,92.381,93.027,91.397,93.027z
		 M23.108,96.541c4.778-1.826,12.225-1.686,19.11-2.669c4.918-0.703,9.977-0.984,15.878-1.687c7.167-0.843,15.035-1.545,21.92-2.248
		c-0.141,0,10.679-0.422,10.82-0.843c0.14-0.422-0.422-2.108-0.703-2.108c-4.075,0.843-10.258,1.124-14.333,0.983
		c-0.703,0-0.703-0.421,0-0.421c4.075,0.141,9.274-0.422,13.208-1.265c2.109-0.562-1.124-3.794-4.215-4.075
		c-6.745-0.562-17.423,1.265-22.482,1.968c-9.696,1.405-15.597,1.545-21.077,2.389c-8.853,1.265-12.505,1.405-17.705,3.373
		c-3.231,1.264-4.777,4.075-4.355,8.149C19.315,98.93,20.298,97.524,23.108,96.541z"/>
</g>
<path fill="#EF3A3A" d="M138.678,135.896c-0.421-0.562-1.124-1.405-1.405-2.107c0.422-0.563,0.703-1.125,1.125-1.688
	c0.421,0.562,1.124,1.405,1.546,1.968C139.521,134.771,139.1,135.333,138.678,135.896z M128.562,120.016
	c-0.281-0.423,0.14-0.702,0.562-0.142c2.67,3.653,5.621,7.168,8.571,11.104c-0.422,0.561-0.843,1.263-1.264,1.826
	C133.9,128.307,131.372,124.652,128.562,120.016z M76.291,243.668c11.1-16.019,25.292-36.675,32.88-47.633
	c0.14-0.282-0.281-0.563-0.421-0.282c-7.447,10.68-23.606,33.864-27.681,39.625c-0.703,1.125-1.124,0.562-0.703-0.28
	c0,0.14,19.532-29.79,27.54-41.592c0.141-0.142,0.562,0.842,0.703,0.702c13.349-20.655,26.276-39.766,39.344-59.578
	c-12.646-20.796-27.682-42.576-38.642-61.123c-6.042-10.117-7.869-12.928-15.315-27.119c-1.125-2.249-8.571,3.794-6.745,7.025
	c1.967,3.513,9.134,16.44,15.737,27.119c11.803,19.11,21.639,35.269,32.88,53.256c-11.522,17.845-21.499,32.037-32.458,48.897
	c-0.14,0.282,0,0.562,0.281,0.282c11.944-17.284,21.358-30.914,32.74-48.197c0.421,0.703,0.703,1.265,1.124,1.827
	c-12.084,17.424-26.838,37.235-35.972,51.428c-0.281,0.562-1.967,0-2.529,0.842c-6.604,9.978-13.911,19.251-21.077,29.648
	c-2.81,4.075-6.604,14.896-5.199,14.192c1.265-0.702,44.683-62.107,65.76-93.3c0.281-0.281,0.843-0.141,0.562,0.14
	c-17.424,25.995-60.983,89.367-66.743,95.128C70.951,236.081,74.323,244.652,76.291,243.668z M199.379,192.381
	c-9.414-18.407-20.937-37.798-30.351-56.485c-11.241,18.688,39.203-60.704,48.617-77.846c0.563-0.982-0.562-1.124-0.14-1.966
	c0.983-1.967,8.431-12.927,10.117-17.705c1.405-3.935-4.356-6.885-4.777-6.604c-2.249,1.124-41.732,63.512-45.104,69.132
	c-7.025,11.1-14.333,22.199-21.639,33.301c-0.703-1.265,32.74,55.362,36.112,61.405c2.811,4.776,15.035,24.449,16.159,26.275
	c0.702,1.124,1.405-1.826,0.984-2.671c-2.81-5.198-7.869-13.77-12.365-22.06c-0.281-0.421,0.141-0.843,0.422-0.421
	c4.637,8.148,9.274,15.877,12.505,21.218c0.421,0.702,1.265-2.811,0.703-4.357C209.074,209.243,202.893,199.266,199.379,192.381z
	 M204.859,229.898c-0.28-0.563-6.464-11.522-9.274-16.019c-5.339-8.994-10.539-17.845-15.737-26.558c0-0.14,0.421-0.14,0.421-0.281
	c-14.613-23.184-1.264-1.123-28.524-46.368c-1.264,1.967-2.67,3.935-3.934,5.9c-14.191,20.657-28.946,43.56-43.278,64.074
	c-5.058,7.588-19.812,30.632-21.358,33.723c-0.562,1.124,3.373,0.562,3.935-0.28c0.843-1.265,14.192-21.077,22.763-33.302
	c0.281-0.421,0.703,0,0.421,0.422c-8.431,12.365-20.234,31.053-20.234,31.755c0,1.546,8.291-3.652,10.117-5.76
	c1.405-1.687,51.568-76.3,51.568-76.3c6.323,10.398,9.415,16.02,16.019,27.26c0.141,0.281,0.703,0.562,0.141-0.422
	c-5.621-10.256-10.117-17.703-15.598-27.54c0.281-0.421,0.703-0.843,0.984-1.264c6.042,11.24,12.365,22.623,19.953,33.583
	c-0.421,0.28-1.546,0.983-2.108,1.404c5.059,8.852,10.117,17.846,15.035,26.979c2.248,3.793,8.853,9.835,8.291,8.149
	c-1.827-5.62-29.508-55.222-39.063-72.785c0-0.282,0.141-0.282,0.281-0.562c4.215,6.744,39.062,69.693,41.17,75.032
	C197.272,231.725,206.687,232.99,204.859,229.898z M157.928,105.263c0.141-0.282,0.703-0.422,0.422,0.14
	c-0.562,1.265-2.67,5.761-3.092,6.744c-0.281-0.421-0.703-0.843-0.983-1.405C154.978,109.758,157.366,106.105,157.928,105.263z
	 M98.772,44.139c1.264,1.687,34.004,50.725,53.395,83.183c13.91-21.217,27.821-42.575,42.294-64.635
	c2.248-3.654,19.25-29.227,20.093-30.913c0.983-1.967-7.026-0.984-9.134,1.545c-3.513,4.075-12.787,18.267-19.953,28.946
	c-10.679,15.878-32.177,48.477-31.616,47.493c-9.835-14.613-25.573-41.17-42.715-65.337C108.749,40.907,97.086,41.891,98.772,44.139
	z"/>
<path fill="#EF3A3A" d="M280.589,87.394c1.405,1.125,2.81,1.827,3.934,1.686c1.968-0.141,6.604-2.389,6.042-3.372
	c-3.372-5.62-7.447-9.555-13.489-12.224c-7.026-3.092-14.473-2.951-22.201-0.282c-10.398,3.653-20.375,16.299-25.434,25.573
	c-3.653,6.886-6.042,13.067-8.43,22.762c-2.389,9.837-3.372,17.145-1.124,27.684c1.405,6.604,4.356,12.927,9.133,15.877
	c5.199,3.092,12.927,2.811,19.812,1.687c3.653-0.562,5.761-1.265,8.993-2.952c1.686-0.842,3.372-1.825,5.059-3.23
	c0.843-0.702,3.934-3.652,5.621-5.48c-1.265,1.266,4.355-3.935,4.497-4.354c0.28-0.704-1.265-2.109-1.687-1.688
	s-3.653,3.232-5.48,5.06c-3.373,3.371-6.885,5.479-9.696,7.165c-1.687,0.983-2.669,1.546-5.199,2.528
	c-1.967,0.703-3.653,0.845-0.983,0c2.108-0.702,3.793-1.545,8.29-4.354c1.827-1.266,6.604-5.339,7.728-6.464
	c0.984-0.982,2.951-2.951,3.513-3.513c0.422-0.422,1.125-0.983,1.125-1.264c0-0.845-1.546-1.547-2.389-1.266
	c-1.405,0.421-3.373,1.827-5.339,3.795c-1.968,2.107-6.042,4.917-8.853,6.462c-3.794,2.108-7.025,2.249-10.96,2.249
	c-10.679,0-13.489-6.604-13.91-18.688c-0.141-4.355,1.405-13.351,2.669-17.566c5.34-16.719,11.943-32.317,26.417-38.499
	C266.397,81.211,274.266,81.07,280.589,87.394z M299.277,79.244c0.702-2.107-0.422-5.058-1.125-6.463
	c-2.248-4.356-5.339-8.431-10.116-11.522c-10.257-6.604-22.201-8.291-36.252-4.215c-11.382,3.372-22.061,11.522-30.772,21.779
	c-5.059,6.323-12.927,22.341-15.175,29.93c-1.405,4.917-2.67,9.133-3.513,13.91c-0.843,4.777-1.264,9.556-1.405,14.193
	c-0.14,5.902,0.703,11.522,1.828,17.284c0.983,4.495,2.81,10.819,5.761,14.894c2.247,3.231,4.074,4.638,1.966,1.968
	c-2.389-2.951-3.653-5.48-4.497-8.15c-1.545-4.777-2.669-9.273-3.794-16.58c-0.562-3.092-0.702-6.042-0.562-9.133
	c0.141-4.497,0.703-9.276,1.687-14.055c0.562-2.669,3.092-13.488,5.339-19.108c0.843-2.107,4.497-9.835,5.48-11.803
	c0.281-0.562,0.702-0.421,0.421,0.281c0,0.14-4.636,11.241-6.041,15.877c-0.844,2.951-3.092,11.1-3.795,14.752
	c-0.702,3.937-1.264,7.31-1.686,11.244c-0.421,4.075-0.421,7.025,0.281,11.803c0.281,1.967,0.703,3.794,1.405,7.447
	c0.703,3.934,2.951,10.256,4.075,12.365c1.546,2.81,4.356,6.604,7.025,9.273c2.529,2.81,4.075,4.497,6.464,5.902
	c2.67,1.545,6.323,3.091,11.101,3.652c2.107,0.281,4.497,0.422,6.885,0.422c0.422,0-0.983,0.983,0.281,0.843
	c5.199-0.562,6.464-0.702,7.728-0.843c7.026-0.703,11.663-2.529,18.126-5.34c3.231-1.405,5.199-2.81,6.885-3.935
	c1.686-1.123,4.356-3.793,5.34-4.917c1.124-1.266,2.388-2.671,3.231-4.075c0.422-0.703,1.405-2.108,1.827-2.67
	c0.14-0.28,0.703-0.983,1.545-2.67c0.843-1.546,1.265-2.951,1.265-3.373c0-0.28,0-0.421-0.141-0.28s-1.405,1.686-2.951,3.232
	c-1.687,1.686-2.529,2.528-3.231,3.231c-0.984,0.983-2.811,2.529-3.794,3.513c-4.075,3.513-5.621,4.496-7.166,5.621
	c-3.373,2.248-4.497,2.67-5.761,3.372c-2.53,1.545-5.48,2.811-6.745,3.091c-2.669,0.703-5.48,1.545-11.241,1.967
	c-7.307,0.562-8.993,0.422-11.943,0.281c-4.497-0.281-9.134-2.95-12.787-5.901c-2.248-1.826-4.355-4.637-7.026-8.149
	c-0.983-1.265-1.827-2.67-2.529-4.075c-1.827-3.652-2.529-6.323-3.653-10.819c-1.265-4.918-1.827-10.679-1.827-16.019
	c0-1.405,0.141-5.902,1.406-10.118c0-0.14,0.28-0.14,0.28,0c-0.421,2.389-1.124,7.168-1.124,10.118
	c0,3.513,0.983,11.101,2.107,15.737c1.686,7.306,3.231,10.258,6.323,14.474c2.108,2.81,3.794,5.62,6.604,8.149
	c1.826,1.686,4.496,2.81,6.183,3.653c4.215,2.107,9.695,2.107,14.473,1.827c6.042-0.282,8.571-0.845,10.538-1.266
	c2.529-0.562,5.199-1.124,8.712-2.81c2.53-1.265,4.777-2.67,6.323-3.653c2.107-1.404,3.794-2.81,6.042-4.777
	c0.983-0.844,2.388-2.108,5.339-5.059c1.265-1.266,2.529-2.53,3.794-3.653c1.546-1.266,3.232-3.935,3.794-5.2
	c0.421-0.983,0.703-2.247,0.141-3.933c-0.844-2.671-2.951-4.779-4.638-5.762c-1.265-0.703-1.265,0.422-1.546,1.265
	c-0.562,1.968-3.513,6.604-4.636,7.869c-5.902,6.884-14.473,13.77-21.92,16.58c-1.265,0.421-0.983,0.983,0,0.562
	c4.075-1.687,7.025-3.232,10.96-6.043c4.075-2.811,8.15-6.884,11.522-10.819c0.703-0.703,1.687-1.967,1.826-1.827
	c0.141,0-0.281,0.984-0.843,1.688c-0.983,1.265-4.778,5.338-6.745,7.306c-9.274,8.712-19.672,12.787-31.896,13.349
	c-5.901,0.281-12.787-2.67-14.472-4.075c-3.374-2.81-6.604-6.463-8.571-9.555c-1.968-3.231-2.811-6.744-3.514-9.976
	c-0.14-0.562-0.703-0.562-0.562,0c0.703,3.231,1.686,7.306,3.794,10.539c0.281,0.42-0.141,0.561-0.422,0.14
	c-1.967-2.95-3.794-9.695-4.216-13.067c-0.702-5.06-1.124-7.307-1.265-12.085c-0.28-7.589,2.811-16.862,5.199-25.292
	c1.967-6.183,10.117-21.92,13.911-26.557c11.522-14.473,25.714-24.449,43.277-20.937c7.167,1.405,14.052,5.339,19.391,13.068
	c1.264,1.826,2.669,4.356,3.513,5.339C295.765,83.74,298.855,80.508,299.277,79.244z M274.266,151.328c0,0.28,0.421,0.422,0.702,0
	c1.967-3.091,3.232-5.199,3.794-5.762C276.936,146.832,274.266,150.062,274.266,151.328z"/>
<path fill="#EF3A3A" d="M334.356,145.896c-4.215,0.421-6.182,0.279-6.463-0.845c-0.14-0.562,0.562-1.264,0.984-1.686
	c0.281-0.281,0.562-1.124-0.703-0.422c-1.265,0.702-0.984-2.95-0.141-3.231c3.513-1.123,8.431-1.123,12.928-1.968
	c3.231-0.561,6.463-0.982,9.694-1.264c2.108-0.142,16.02-0.844,19.953-0.984c0.141,0-0.14,0.562-0.421,0.562
	c-2.811,0.281-5.621,0.281-8.572,0.423c-0.421,0-0.421,0.281-0.141,0.281c2.108-0.141,8.149-0.281,9.274-0.281
	c1.686,0.561,0.562,3.794,0.28,3.794c-1.825,0.279-4.496,0.422-6.885,0.562c-0.422,0-0.28,0.141,0.141,0.141
	c1.405-0.141,4.776-0.141,6.744-0.28c0.845,0-1.263,0.983-2.247,1.123C357.26,142.663,344.052,144.911,334.356,145.896z
	 M324.1,149.688c0.14-0.28,0.28,0.562,0.14,0.843c-3.091,7.728-8.853,18.829-9.134,20.374c-0.28,1.266,2.951-0.281,5.2-2.247
	c2.81-2.529,6.182-9.837,8.009-13.771c6.042-0.843,25.572-0.843,33.16-1.686c0.562,0,0.562-0.702,0-0.702
	c-7.869,0.843-9.414,0.562-15.737,0.14c-0.421,0-0.421-0.562-0.14-0.562c6.884-0.14,9.273,0,16.298-0.561
	c1.123-0.142,0.983,1.826,1.826,1.966c0.984,0.142,1.968,0,2.952,0.142c0.279,2.389,0.42,4.918,0.702,7.307
	c0.28,2.529,3.795,7.587,3.935,6.182c0.28-3.091,0.14-10.117-0.282-14.753c0-0.703,0.282-0.984,0.422-0.282
	c0.702,6.323,1.405,11.664,1.266,14.896c-0.141,1.687,10.116,6.462,9.413,3.372c-3.934-17.423-19.25-97.376-20.515-116.486
	c-3.794,9.555-8.852,20.796-13.066,31.475c-3.794,9.274-7.448,18.548-11.663,27.54c-5.62,12.504-11.381,26.418-17.142,38.783
	c-2.108,4.637-9.133,17.705-10.258,19.953c-0.703,1.405,2.67,1.123,4.075-0.422C314.966,169.642,320.867,157.417,324.1,149.688z
	 M370.046,133.95h-0.562c-0.562-3.792-2.53-17.565-3.653-24.027c-0.141-0.844,0.281-1.125,0.421,0
	C367.095,114.98,369.624,129.453,370.046,133.95z M302.742,171.749c1.405-0.844,5.621-9.836,6.744-12.506
	c2.67-6.183,5.34-12.225,8.01-18.267c0.14-0.141,0.28,0.703,0.562,0.14c3.372-7.024,27.119-64.636,40.327-96.392
	c1.405-3.372-8.291-1.827-9.415,0.703c-2.809,6.324-36.953,82.341-36.532,81.356c-0.141,0.422,0.562,0.282,0.703,0
	c3.091-7.588,13.629-29.367,17.563-38.781c0.141-0.421,1.265-0.421,0.843,0.421c-3.793,8.853-14.473,31.193-21.357,48.478
	c-0.421,0.984-2.107,0.562-2.248,0.843c-2.951,5.901-6.042,11.944-8.852,17.845c-1.265,2.53-0.843,8.433-0.281,7.729
	c8.29-10.818,18.688-33.864,22.482-42.577c0.14-0.422,0.842-0.562,0.562,0c-3.653,8.712-18.829,39.767-22.201,45.107
	C298.807,167.111,300.915,172.873,302.742,171.749z M350.937,148.986c-0.702,0-0.562-0.423,0-0.423
	c5.901-0.561,13.488-1.123,15.315-1.123c0.142,0,0.281,0.844,0,0.844C360.632,148.143,355.854,148.706,350.937,148.986z
	 M364.145,128.471c-1.405-11.804-3.793-23.467-6.183-35.41c-0.141-0.422,0.703-1.546,0.843-0.984
	c2.249,11.663,5.06,24.871,6.465,36.533L364.145,128.471z M349.11,126.924c-2.389-0.141-4.777-0.141-7.025,0.281
	c5.199-10.959,8.289-16.861,15.314-33.441c2.952,15.175,4.216,22.622,6.042,34.565C358.103,126.924,353.887,127.205,349.11,126.924z
	 M377.774,109.22c1.686,10.677,9.977,59.156,10.117,59.859c0.141,0.562,1.827-0.983,1.686-1.687
	c-1.405-7.307-2.95-18.829-4.215-26.136c-0.141-0.843,0.14-0.561,0.281,0c1.686,7.307,3.513,18.829,5.198,25.996
	c0.141,0.843,2.39-1.547,2.811-3.092c0.843-3.231-0.702-12.506-1.405-17.143c-2.389-16.158-7.306-49.602-10.117-65.901
	c-2.248-12.787-4.496-24.59-6.743-34.426c-1.405-6.042-8.572-2.389-8.572-1.124c0,2.107,4.777,25.292,6.322,36.533
	C374.402,91.094,376.369,100.086,377.774,109.22z"/>
<path fill="#EF3A3A" d="M444.022,80.954l4.496-25.011c5.762-2.388,21.64-4.918,28.805-3.232c2.25,0.562,5.62,2.951,6.465,5.761
	c1.686,6.042-2.529,14.191-9.415,18.688c-3.231,2.107-9.695,3.372-11.101,3.653c-0.842,0.141-0.702-0.421-0.446-0.429
	c2.554-0.695,8.596-2.241,11.547-4.208c6.745-4.497,9.133-9.555,8.712-16.862c0-0.562-0.983-0.562-0.983,0
	c0.421,4.497-0.563,9.696-5.199,13.771c-5.339,4.637-12.927,6.463-21.92,7.447C450.485,80.954,444.585,81.095,444.022,80.954z
	 M431.517,93.741c3.092,0,9.977-0.14,13.209-0.562c17.143-2.248,17.282-5.339,18.968-3.794c0.845,0.844,1.687,0.422,2.811,0.141
	c7.026-2.108,14.895-6.604,18.829-11.522c2.389-2.951,4.497-5.62,5.902-8.852c3.091-7.307,2.95-18.126-3.935-22.903
	c-5.763-3.935-16.159-3.232-24.87-2.529c-6.465,0.562-12.226,1.546-15.598,2.249c-0.562,0.14,0.562,0.702,0.14,0.702
	c-1.827,0-1.827-0.702-3.513-0.421c-1.545,0.281-3.231,0.703-4.776,0.983c-1.405,8.431-2.671,18.126-3.513,23.466
	C433.905,78.706,431.938,90.368,431.517,93.741z M417.185,166.246c-0.562,1.124,4.075-0.281,4.636-1.545
	c0.703-1.546,4.218-15.879,5.2-23.747c0.141-0.703,0.422-0.421,0.422,0c-0.984,8.01-4.356,23.747-4.356,24.449
	c0,0.562,2.529-1.123,3.654-2.528c1.826-2.249,4.215-15.739,12.364-54.521c17.002-0.562,40.889-4.637,53.114-13.348
	c9.695-6.886,15.456-16.16,17.845-27.4c1.687-7.728,1.968-15.597-1.123-23.326c-3.514-8.571-12.646-15.035-23.607-16.158
	c-14.332-1.406-41.592,0.983-47.915,6.463c-3.091,2.669-3.091,7.307-1.826,7.025c3.794-0.843,18.969-3.793,23.044-4.215
	c20.374-2.108,34.848-1.406,40.607,12.505c2.248,5.62,1.688,12.084-0.28,18.126c-3.935,11.944-16.02,23.606-30.07,27.4
	c-18.407,4.918-27.117,3.373-34.284,3.373c-0.703,0-0.703-0.562-0.141-0.562c4.777,0,7.166-0.281,11.522-0.702
	c0.421,0,0.702-0.562,0.28-0.562c-2.67,0.282-8.29,0.422-11.662,0.282c-1.827-0.141-2.811,0-3.795,0.14
	c-0.702,4.075-1.405,8.149-2.107,12.224c-2.528,11.521-4.636,24.311-6.886,35.973C420.979,149.947,418.168,164.139,417.185,166.246z
	 M463.133,100.064c0.14,0,0.14,0.421,0,0.421c-7.167,1.545-15.737,2.389-22.763,2.529l0.28-1.124
	C447.675,102.172,456.106,101.469,463.133,100.064z M409.878,164.982c1.827-3.092,2.388-5.901,3.513-10.54
	c0-0.279-0.422-0.279-0.422,0c-0.561,2.249-1.123,4.075-1.687,5.763c-0.14,0.28-0.562,0.14-0.421-0.143
	c0.562-1.685,1.124-3.652,1.687-5.76c1.405-4.918,2.95-12.085,4.215-17.143c0.141-0.281,0.422-0.422,0.562-0.843
	c3.513-14.195,6.183-29.509,9.273-45.809c0-0.281-0.703-0.141-0.703,0.141c-3.091,15.738-6.041,31.473-9.272,45.526
	c-0.142,0.282-0.423,0.142-0.423,0c4.216-24.168,6.886-37.096,8.572-47.494c2.389-15.457,6.041-35.409,6.604-41.873
	c0.141-1.405-4.075,0-6.183,2.389c-2.247,2.67-2.811,7.869-3.373,11.381c-4.215,24.871-9.133,48.899-14.33,73.068
	c0,0.141,0.561,0.141,0.702-0.281c3.793-15.457,6.323-27.682,9.413-43.278c0.141-0.422,0.562-0.282,0.562,0.14
	c-2.529,16.58-7.447,40.61-9.695,46.23c-0.28,0.702-1.827,0.28-1.967,0.702c-0.562,1.826-3.232,10.398-4.075,16.158
	c-0.702,4.778,1.545,8.01,1.827,7.308c5.62-14.613,9.976-38.785,13.067-52.131c0.141-0.562,0.982-0.281,0.843,0.141
	c-1.265,6.884-10.538,46.65-12.506,52.271C405.241,162.03,409.316,165.965,409.878,164.982z"/>
<path fill="#EF3A3A" d="M521.943,129.505c0.702-0.14,1.687-0.983,2.389-3.795c1.826-6.884,2.811-12.645,4.355-19.53
	c3.934-17.283,9.835-56.346,12.085-68.148c0.28-1.687,0.702-3.232,0.28-3.232c-1.125,0-3.372-0.14-6.323,1.265
	c-2.951,1.405-5.34,5.059-6.182,9.414c-4.216,20.936-7.167,39.484-10.259,58.875c0,0.282,0.844,0.422,0.983-0.14
	c3.092-12.788,3.935-25.574,6.184-36.674c0-0.281,0.842-0.281,0.842,0c-0.561,8.852-5.338,37.657-6.322,38.5
	c-0.562,0.562-1.967-0.843-2.248,0.141c-1.124,3.794-2.107,8.853-3.092,12.925c-0.562,2.249,0.141,4.074,0.984,5.902
	c0.983,2.108,7.587-16.158,10.257-31.052c0.281-1.827,0.844-1.546,0.703-0.422c-2.39,13.349-6.886,27.539-8.993,30.912
	C516.323,126.272,518.711,129.926,521.943,129.505z M585.314,136.952c-7.447-1.825-17.564-1.966-25.994-1.966
	c-0.422,0-0.422-0.702,0-0.844c5.058-0.982,26.978,0.562,27.259,0c0.843-1.966,0.421-6.324-0.142-6.604
	c-0.702-0.282-4.354,0.279-18.266,1.124c-10.539,0.702-36.956,2.669-37.799,4.216c0,0-0.42,9.836,6.464,11.101
	c0.562,0.14,3.233,0.702,8.993-0.281c7.728-1.405,17.283-3.513,26.417-3.513c0.281,0,0.281-0.844,0-0.844
	c-9.134-0.14-14.192,0-21.219,0.983c-0.421,0-0.702-0.561,0.282-0.703c4.917-0.982,15.737-1.404,23.044-0.842
	c0.281,0-0.562,1.264,0,1.264c3.091,0,6.041,0,8.852,0C584.19,140.044,585.876,137.094,585.314,136.952z M545.408,125.008
	c6.323-0.562,22.764-1.828,30.772-1.828c3.794,0,8.852-0.281,8.993-0.702c0.141-0.563-0.142-1.266-0.562-1.266
	c-2.95-0.14-7.446,0.282-11.241-0.28c-0.562-0.141-0.42-0.702,0.141-0.562c3.794,0.562,8.853-0.14,10.819-0.841
	c0.423-0.142-1.545-4.215-4.074-4.917c-2.67-0.703-15.176-0.421-20.796,0c-6.183,0.422-11.944,0.984-16.58,1.545
	c1.405-8.009,2.668-15.315,4.776-23.325c6.184-0.983,10.398-1.545,16.159-2.248c0.422,0,0.422-0.703,0-0.703
	c0.28,0-10.96,0-11.382,0c-0.421,0-0.421-0.703,0-0.703c4.216,0,13.349-1.125,13.49-0.843c0.421,0.703-0.423,1.827,0.14,1.827
	c0.422,0,3.092-0.281,5.48-0.703c0.843-0.141,1.826-1.405,1.406-1.827c-0.703-0.703-4.076-2.67-12.928-2.389
	c-0.422,0-0.422-0.562,0-0.562c10.678-0.141,11.803,1.405,13.348,1.685c0.703,0.141,1.405-2.81,1.125-6.042
	c-0.282-2.669-0.984-2.249-5.621-1.686c-1.966,0.281-25.434,2.669-28.946,2.669c-0.279,3.374-4.917,24.169-5.9,30.071
	c-1.125,6.182-2.249,10.958-2.812,14.191c-0.14,1.125,0,1.125,0.282,1.125C536.697,125.991,539.507,125.57,545.408,125.008z
	 M603.58,25.666c-1.264,0-2.95,0.844-7.025,1.546c-18.547,3.232-24.168,3.092-27.539,3.654c-0.703,0.14-0.282,0.843,0.421,0.843
	c3.092-0.281,22.481-2.53,32.036-4.075c0.281,0,0.281,0.984,0,0.984c-12.505,1.546-36.814,4.075-49.882,5.62
	c-1.265,0.141-2.248,0.141-3.513,0.281c-0.702,0.141-0.702,2.249-0.983,4.075c-1.404,10.82-4.917,30.631-5.901,35.69
	c4.637,0,8.149-0.14,14.614-0.702c3.793-0.281,13.208-0.843,17.143-1.827c0.561-0.141,0-2.389-0.422-2.389
	c-1.828,0-10.68-0.562-12.788-1.405c-0.983-0.421-0.702-0.562-0.14-0.421c3.513,0.843,6.604,0.843,12.646,0.843
	c0.421,0-1.265-3.373-2.529-3.794c-1.405-0.422-5.199,0-9.135,0.281c-2.528,0.141-6.885,0.562-7.306,0.422
	c0.843-4.777,1.968-11.943,3.091-17.283c0.142-1.265,0.844-2.529,0.702-3.513c11.102-1.827,25.152-3.232,30.211-3.794
	c0.844-0.141,0.422-0.843,0.141-0.843c-5.199,0.281-22.481,1.827-26.697,2.67c-0.562,0.14-0.844-0.562-0.281-0.703
	c10.257-1.968,28.102-3.935,28.524-3.373c0.562,0.703-0.141,2.108,0.28,2.108c3.936-0.562,6.465-0.562,10.397-1.265
	c2.108-0.421,3.795-3.231,3.092-3.372c-10.257-2.389-21.639-1.125-32.458,0.281c-0.422,0-0.562-0.281-0.141-0.421
	c4.497-0.843,10.539-1.405,15.035-1.687c5.901-0.421,11.381-0.562,17.424,0.703c0.982,0.141,1.405-0.842,1.686-2.107
	C604.985,29.741,604.564,25.666,603.58,25.666z M548.078,27.353c0,0.421,16.58-1.967,22.201-2.529
	c7.307-0.703,15.176-1.546,21.921-2.249c0.14,0,10.678-0.421,10.818-0.842c0.14-0.422-0.421-2.108-0.702-2.108
	c-4.075,0.843-10.259,1.124-14.332,0.983c-0.703,0-0.703-0.421,0-0.421c4.073,0.141,9.273-0.422,13.208-1.265
	c2.108-0.562-0.562-3.935-5.62-3.794c-5.48,0.141-15.598,1.405-22.342,2.389C560.583,19.343,547.938,19.484,548.078,27.353z"/>
<path fill="#EF3A3A" d="M690.98,11.795c-5.62-6.604-23.747-9.274-42.013-5.48c-13.069,2.67-27.962,9.414-33.864,23.325
	c-5.059,11.943-3.373,23.466,2.95,32.74c4.777,7.025,12.646,10.96,19.25,13.067c8.291,2.67,17.424,3.091,25.996,5.902
	c4.355,1.405,6.463,4.917,4.495,10.116c-0.982,2.67-4.074,5.48-6.042,7.167c-0.28,0.28,0,0.562,0.282,0.421
	c2.67-2.108,5.058-4.497,6.322-6.745c2.389-4.075,2.249-8.009-1.826-10.959c-4.356-3.091-8.993-3.091-13.911-4.075
	c-12.507-2.529-24.449-5.48-30.069-12.646c-0.141-0.141,0.28-0.562,0.421-0.422c7.448,7.307,17.846,9.977,29.93,12.225
	c5.199,0.984,10.117,1.405,14.472,4.778c3.655,2.81,4.216,7.025,1.405,11.803c-1.405,2.249-4.496,5.34-7.446,7.166
	c-6.463,3.794-22.202,5.761-30.069,2.81c-1.968-0.702-4.637,0.844-4.215,0.984c8.008,3.513,14.331,3.373,24.167,1.826
	c9.696-1.545,16.301-6.323,18.969-10.959c1.827-3.091,2.53-6.323,2.107-9.555c-0.702-4.637-2.95-6.323-6.884-7.447
	c-0.422-0.141,0-0.421,0.421-0.281c4.075,1.265,5.761,2.669,6.745,6.885c0.702,3.091,0.28,7.166-1.688,10.398
	c-3.091,5.2-9.554,9.836-19.25,11.522c-11.38,1.967-16.298,1.967-26.415-1.405c-1.266-0.422-7.588,3.091-6.465,3.653
	c14.896,6.885,34.987,5.059,47.494-2.389c7.166-4.216,12.225-9.836,12.225-22.201c0-5.62-3.231-10.679-12.646-13.911
	c-15.034-5.198-25.151-4.356-32.88-10.117c-5.198-3.934-9.273-9.555-9.835-16.44c-0.703-9.555,4.776-17.002,12.364-21.779
	c15.035-9.274,40.468-12.505,56.205-2.389C693.649,20.647,693.369,14.605,690.98,11.795z M694.071,76.853
	c-5.34-17.283-14.613-20.796-38.5-26.276c-1.266-0.281-6.604-1.406-9.836-2.389c-4.356-1.264-5.622-7.167-4.356-9.274
	c3.653-6.323,15.176-9.695,25.714-9.977c6.043-0.14,11.663,1.546,13.489,1.967c5.059,1.124,12.787-4.777,9.554-6.745
	c-14.893-8.711-38.218-6.744-51.988,2.67c-6.322,4.356-10.96,11.803-7.588,20.515c2.95,7.448,10.819,10.679,25.854,13.63
	c17.563,3.513,26.696,8.149,28.102,21.077c1.405,12.927-6.603,23.746-14.332,28.243c-17.563,10.396-36.532,9.695-55.08,3.513
	c-0.983-0.281-0.421,4.636,0.281,5.059c5.058,2.949,25.713,8.009,41.029,4.073c18.267-4.775,24.589-10.958,30.772-20.654
	c3.372-5.339,4.354-12.084,5.479-18.407c0-0.141,0.562-0.141,0.562,0c-0.982,6.463-2.529,13.77-5.62,18.828
	c-5.62,9.133-11.803,15.878-31.193,21.077c-14.191,3.795-34.145-0.703-39.766-3.233c-1.123-0.561,0.142,2.248,1.405,2.811
	c24.449,10.118,53.395,2.67,65.62-10.538C692.245,103.55,697.162,86.97,694.071,76.853z"/>
</svg>
