<?xml version="1.0" encoding="utf-8"?>
<!-- Generator: Adobe Illustrator 16.0.0, SVG Export Plug-In . SVG Version: 6.00 Build 0)  -->
<!DOCTYPE svg PUBLIC "-//W3C//DTD SVG 1.1//EN" "http://www.w3.org/Graphics/SVG/1.1/DTD/svg11.dtd">
<svg version="1.1" id="Layer_1" xmlns="http://www.w3.org/2000/svg" xmlns:xlink="http://www.w3.org/1999/xlink" x="0px" y="0px"
	 width="100px" height="100px" viewBox="0 0 100 100" enable-background="new 0 0 100 100" xml:space="preserve">
<g id="Layer_1_1_" display="none">
	<g display="inline">
		<path id="Facebook" d="M36.856,21.844c0,2.321,0,12.681,0,12.681h-9.29V50.03h9.29v46.077h19.083V50.031h12.807
			c0,0,1.199-7.436,1.781-15.564c-1.668,0-14.517,0-14.517,0s0-9.021,0-10.602c0-1.584,2.081-3.716,4.138-3.716
			c2.054,0,6.387,0,10.397,0c0-2.111,0-9.405,0-16.142c-5.356,0-11.45,0-14.138,0C36.385,4.006,36.856,19.527,36.856,21.844z"/>
	</g>
</g>
<g id="Layer_2" display="none">
	<g display="inline">
		<path d="M16.173,4.595h67.05c6.366,0,11.576,4.714,11.576,11.577v67.051c0,6.863-5.21,11.577-11.576,11.577h-67.05
			c-6.37,0-11.579-4.714-11.579-11.577V16.172C4.594,9.309,9.803,4.595,16.173,4.595L16.173,4.595z M70.307,14.616
			c-2.233,0-4.062,1.827-4.062,4.062v9.72c0,2.233,1.825,4.061,4.062,4.061h10.194c2.233,0,4.062-1.828,4.062-4.061v-9.72
			c0-2.235-1.826-4.062-4.062-4.062H70.307L70.307,14.616z M84.604,42.742h-7.938c0.752,2.453,1.158,5.051,1.158,7.739
			c0,15.005-12.557,27.167-28.04,27.167c-15.485,0-28.038-12.162-28.038-27.167c0-2.69,0.406-5.287,1.158-7.739H14.62v38.105
			c0,1.971,1.613,3.586,3.585,3.586H81.02c1.975,0,3.586-1.613,3.586-3.586V42.742H84.604z M49.782,31.948
			c-10.005,0-18.117,7.858-18.117,17.553c0,9.696,8.111,17.554,18.117,17.554c10.006,0,18.116-7.855,18.116-17.554
			C67.898,39.806,59.788,31.948,49.782,31.948z"/>
	</g>
</g>
<g id="Layer_3" display="none">
	<g display="inline">
		<g>
			<path fill="#010002" d="M93.521,22.394c-3.277,1.452-6.795,2.437-10.488,2.876c3.771-2.259,6.66-5.842,8.029-10.099
				c-3.539,2.092-7.445,3.611-11.606,4.435c-3.333-3.555-8.074-5.77-13.333-5.77c-10.087,0-18.267,8.18-18.267,18.262
				c0,1.43,0.161,2.827,0.473,4.163C33.15,35.498,19.69,28.226,10.682,17.175c-1.574,2.693-2.47,5.832-2.47,9.181
				c0,6.337,3.227,11.93,8.124,15.202c-2.993-0.101-5.809-0.924-8.274-2.293v0.229c0,8.847,6.299,16.23,14.65,17.91
				c-1.53,0.412-3.144,0.642-4.813,0.642c-1.179,0-2.32-0.118-3.438-0.341c2.326,7.262,9.069,12.542,17.06,12.688
				C25.272,75.289,17.393,78.2,8.835,78.2c-1.474,0-2.927-0.091-4.357-0.25c8.085,5.19,17.683,8.218,28,8.218
				c33.602,0,51.97-27.832,51.97-51.969l-0.062-2.365C87.975,29.271,91.079,26.055,93.521,22.394z"/>
		</g>
	</g>
</g>
<g id="Layer_4">
	<g>
		<g id="YouTube">
			<g>
				<path fill="none" d="M74.939,70.832H70l0.023-2.869c0-1.275,1.047-2.318,2.326-2.318h0.312c1.279,0,2.332,1.043,2.332,2.318
					L74.939,70.832z M56.413,64.684c-1.253,0-2.278,0.842-2.278,1.873V80.51c0,1.029,1.025,1.869,2.278,1.869
					c1.258,0,2.284-0.84,2.284-1.869V66.557C58.697,65.525,57.671,64.684,56.413,64.684z M27.137,86.305l-0.004-27.961l6.255,0.002
					v-4.143l-16.674-0.025v4.073l5.205,0.015v28.039H27.137z M45.887,62.509h-5.215v14.931c0,2.16,0.131,3.24-0.008,3.621
					c-0.424,1.158-2.33,2.391-3.073,0.125c-0.126-0.396-0.015-1.59-0.017-3.643l-0.021-15.034h-5.186l0.016,14.798
					c0.004,2.271-0.051,3.959,0.018,4.729c0.127,1.356,0.082,2.938,1.341,3.843c2.346,1.689,6.843-0.252,7.968-2.668l-0.01,3.083
					l4.188,0.005L45.887,62.509L45.887,62.509z M62.57,79.607L62.559,67.18c-0.004-4.736-3.547-7.572-8.354-3.74l0.021-9.236
					l-5.208,0.008L48.99,86.1l4.283-0.062l0.391-1.986C59.137,89.072,62.578,85.631,62.57,79.607z M78.891,77.96l-3.91,0.021
					c-0.002,0.155-0.008,0.334-0.01,0.529v2.182c0,1.168-0.965,2.119-2.137,2.119h-0.766c-1.174,0-2.139-0.951-2.139-2.119V80.45
					v-2.4v-3.097h8.951v-3.37c0-2.463-0.062-4.925-0.267-6.333c-0.644-4.454-6.896-5.161-10.054-2.881
					c-0.988,0.712-1.748,1.665-2.188,2.945c-0.443,1.28-0.665,3.03-0.665,5.254v7.41C65.714,90.296,80.676,88.555,78.891,77.96z
					 M58.833,37.732c0.269,0.654,0.687,1.184,1.254,1.584c0.56,0.394,1.276,0.592,2.134,0.592c0.752,0,1.418-0.203,1.998-0.622
					c0.578-0.417,1.065-1.04,1.463-1.871l-0.099,2.046h5.813V14.74H66.82v19.24c0,1.042-0.858,1.895-1.907,1.895
					c-1.043,0-1.904-0.853-1.904-1.895V14.74h-4.776v16.674c0,2.124,0.039,3.54,0.104,4.258
					C58.4,36.385,58.564,37.069,58.833,37.732z M41.217,23.77c0-2.373,0.198-4.226,0.591-5.562c0.396-1.331,1.107-2.401,2.137-3.208
					c1.027-0.811,2.342-1.217,3.941-1.217c1.345,0,2.497,0.264,3.459,0.781c0.968,0.52,1.714,1.195,2.229,2.028
					c0.525,0.836,0.885,1.695,1.074,2.574c0.194,0.891,0.291,2.235,0.291,4.048v6.252c0,2.293-0.092,3.98-0.271,5.051
					c-0.177,1.074-0.559,2.07-1.146,3.004c-0.58,0.924-1.33,1.615-2.236,2.056c-0.918,0.445-1.968,0.663-3.154,0.663
					c-1.325,0-2.441-0.183-3.361-0.565c-0.923-0.38-1.636-0.953-2.144-1.714c-0.513-0.762-0.874-1.69-1.092-2.772
					c-0.219-1.081-0.323-2.707-0.323-4.874L41.217,23.77L41.217,23.77z M45.77,33.59c0,1.4,1.042,2.543,2.311,2.543
					c1.27,0,2.308-1.143,2.308-2.543V20.43c0-1.398-1.038-2.541-2.308-2.541c-1.269,0-2.311,1.143-2.311,2.541V33.59z
					 M29.682,40.235h5.484l0.006-18.96l6.48-16.242h-5.998l-3.445,12.064L28.715,5h-5.936l6.894,16.284L29.682,40.235z"/>
				<g>
					<path fill="#FFFFFF" d="M28.876,36.723c0.009-0.498,0.018-0.996,0.027-1.485c0.024-2.349,0.047-4.637,0.07-6.927
						c0.01-2.286,0.021-4.572,0.031-6.891c-1.761-4.219-3.562-8.533-5.489-13.152C22.989,7,22.461,5.724,21.928,4.436
						c2.369,0.007,4.774,0.015,7.194,0.023c1.045,3.604,2.103,7.254,3.084,10.642c0.021-0.073,0.041-0.144,0.061-0.213l-0.061,0.205
						C31.2,11.555,30.186,7.984,29.166,4.4c-2.438-0.006-4.88-0.013-7.323-0.02c2.373,5.692,4.744,11.381,7.107,17.051
						c-0.062,4.576-0.123,9.139-0.185,13.771c-0.107-1.631-0.192-3.58-0.194-5.849c0.017-2.643,0.033-5.259,0.05-7.856
						c-1.023-2.45-2.039-4.881-3.049-7.299c0.042-0.018,0.124-0.052,0.165-0.069c-1.456-3.413-2.861-6.708-4.263-9.995
						c2.631,0.007,5.252,0.015,7.875,0.022c0.954,3.388,1.906,6.771,2.856,10.147c0.329-1.138,0.657-2.273,0.987-3.417
						c0.615-2.19,1.234-4.392,1.867-6.645c1.472-0.015,2.965-0.03,4.497-0.046c-0.54-0.024-0.22-0.061-0.108-0.089l0.108,0l-0.108,0
						c0.101-0.026,0.039-0.045-0.905-0.045c0.944,0,1.006,0.02,0.905,0.045c-1.516,0.003-3.022,0.006-4.484,0.009
						c-0.933,3.273-1.849,6.487-2.759,9.683c-0.929-3.25-1.852-6.482-2.782-9.74c-2.687-0.008-5.383-0.017-8.099-0.025
						c1.323,3.164,2.659,6.36,4.014,9.601c-1.356-3.225-2.705-6.43-4.048-9.624c2.727,0.003,5.447,0.006,8.163,0.009
						c0.919,3.185,1.835,6.36,2.752,9.538c0.9-3.166,1.8-6.333,2.705-9.514c2.731-0.002,5.469-0.005,8.213-0.008
						c-2.29,5.755-4.597,11.556-6.936,17.433c0,1.825,0,3.67,0,5.524c0,1.011-0.001,3.036-0.001,4.048
						c-0.042,1.637-0.081,3.148-0.119,4.597c-0.012,0.781-0.023,1.544-0.035,2.298c-0.007,1.06-0.014,2.103-0.021,3.142
						c-1.272-0.002-2.533-0.005-3.795-0.008c0.454-0.101-0.113-0.248-0.141-0.37c-0.014-0.062,0.107-0.117,0.557-0.157
						c0.491-0.041,1.101-0.066,2.773-0.069c0.003-0.646,0.007-1.415,0.012-2.348c-0.045,0-0.135,0-0.18,0
						c-0.024,0.708-0.049,1.413-0.073,2.107c-3.225-0.133-5.296-0.333-5.638-0.52c-0.171-0.094,0.088-0.184,0.851-0.261
						c0.381-0.039,0.887-0.074,1.528-0.104c0.688-0.024,1.401-0.05,2.179-0.078l0.102-0.017l-0.016-0.12L34.155,38.1
						c-0.006-0.733-0.013-1.473-0.019-2.223c-0.005-1.519-0.01-3.072-0.016-4.667c0.006-3.259,0.012-6.675,0.018-10.135
						c1.561-3.93,3.133-7.892,4.686-11.801l0.912-2.321l0.228-0.581l0.088-0.225l0.001-0.008l0.004-0.026l-0.034,0.007l-1.37,0.006
						l-1.5,0.005l-0.666,0.002l-0.001,0.002c-1.419,4.92-2.826,9.798-4.271,14.811l-0.411-1.453
						c-1.26-4.473-2.53-8.979-3.812-13.532l-0.758-0.007L25.75,5.948l-1.33-0.007l-0.232-0.007
						c1.938,4.705,3.862,9.378,5.801,14.086c0.146,0.352,0.299,0.719,0.46,1.106c0.007,2.108,0.017,4.731,0.025,7.064
						c0.009,2.282,0.005,4.282-0.056,5.213c-0.064,1.454-0.16,1.512-0.267,1.29c0.006-4.531,0.012-9.049,0.019-13.51
						c-0.856-2.036-1.697-4.036-2.536-6.03c-1.32-3.183-2.641-6.369-3.965-9.563c1.519,0.016,3.04,0.033,4.565,0.049
						c0.575,2.074,1.151,4.154,1.731,6.244C29.39,9.782,28.82,7.701,28.25,5.619c-1.539-0.017-3.074-0.035-4.615-0.052
						c1.328,3.183,2.66,6.375,4,9.586l2.512,6.035c-0.027,4.427-0.054,8.855-0.081,13.296c-0.092-0.239-0.188-0.469-0.276-0.07
						c0,0,0.001,2.023,0.001,3.036c-0.223,4.05-0.539,3.036-0.765,1.015C28.98,37.935,28.929,37.337,28.876,36.723z"/>
				</g>
				<g>
					<path fill="#FFFFFF" d="M46.027,33.719c-0.004-0.173-0.009-0.347-0.013-0.513c-0.116-3.141-0.412-6.267-0.6-9.751
						c-0.038-0.679-0.072-1.288-0.105-1.883c-0.023-0.327-0.046-0.648-0.069-0.969c-0.076-0.468,0.183-0.995,0.448-1.288
						c0.547-0.611,1.179-0.932,1.799-1.224c0.312-0.141,0.627-0.262,0.943-0.366c0.174-0.055,0.28-0.091,0.511-0.152
						c0.208-0.058,0.444-0.108,0.661-0.148c-0.258,0.044-0.535,0.105-0.774,0.17c-0.203,0.055-0.375,0.106-0.562,0.168
						c-0.366,0.121-0.726,0.264-1.081,0.433c-0.355,0.172-0.706,0.366-1.044,0.625c-0.33,0.265-0.684,0.565-0.891,1.133
						c-0.046,0.134-0.072,0.274-0.079,0.416c-0.005,0.154,0.013,0.281,0.016,0.355l0.039,0.551l0.077,1.103
						c0.049,0.73,0.099,1.463,0.149,2.203c0.193,2.933,0.356,5.84,0.422,8.624c-0.15-0.552-0.289-1.214-0.351-1.994
						c-0.124-1.952-0.241-3.784-0.354-5.57c0.045-0.004,0.134-0.011,0.178-0.015c-0.138-1.301-0.244-2.583-0.334-3.855
						c-0.022-0.315-0.043-0.632-0.065-0.953l-0.018-0.265c-0.011-0.139,0-0.279,0.023-0.417c0.045-0.27,0.171-0.546,0.314-0.754
						c0.566-0.773,1.215-1.083,1.841-1.399c0.317-0.147,0.637-0.274,0.96-0.385c0.35-0.116,0.568-0.188,1.146-0.321
						c0.529-0.127,1.02-0.144,1.504-0.157l0.186-0.005l0.095-0.002l0.048-0.001l0.002,0.047l0.018,0.382l0.037,0.763l0.038,0.764
						c0.013,0.255,0.005,0.347,0.009,0.528c0.004,0.314,0.009,0.633,0.013,0.966c0.019,0.586,0.037,1.216,0.06,1.952
						c0.023-0.186,0.061-0.075,0.09-0.037v0.038v-0.038c0.025,0.035,0.045,0.014,0.045-0.312c0,0.327-0.02,0.348-0.045,0.312
						c-0.005-0.648-0.009-1.287-0.013-1.92l-0.003-0.951c-0.004-0.178,0.005-0.271-0.007-0.519l-0.045-0.807l-0.044-0.805
						l-0.021-0.402l-0.005-0.101c-0.013-0.022-0.062-0.004-0.09-0.009l-0.198,0.005c-0.513,0.016-1.021,0.019-1.581,0.146
						c-0.26,0.055-0.586,0.14-0.722,0.182l-0.487,0.156c-0.322,0.111-0.64,0.238-0.955,0.385c-0.626,0.311-1.263,0.624-1.855,1.346
						c-0.137,0.176-0.299,0.443-0.378,0.719c-0.039,0.139-0.069,0.28-0.075,0.425c-0.015,0.132,0.009,0.323,0.01,0.37l0.064,0.938
						c0.081,1.237,0.163,2.498,0.247,3.797c-0.072-1.004-0.144-1.992-0.214-2.974c-0.038-0.495-0.075-0.988-0.112-1.479L44.8,20.592
						c-0.024-0.231,0.007-0.465,0.068-0.688c0.142-0.466,0.41-0.809,0.641-1.041c0.979-0.915,1.972-1.267,3.007-1.613
						c0.208-0.065,0.781-0.22,1.194-0.277c0.447-0.069,0.846-0.059,1.27-0.078l0.162-0.004c0.061-0.008,0.116-0.011,0.1,0.065
						l0.019,0.326l0.038,0.652l0.073,1.287c0.011,3.955,0.021,7.941,0.032,12.036c0,0.349,0,1.049,0,1.398
						c-0.035,0.423-0.066,0.789-0.094,1.112c-0.062,0.644-0.475,1.204-1.029,1.494c-0.987,0.465-1.729,0.398-2.473,0.437
						c0.18-0.114-0.095-0.28-0.05-0.41c0.021-0.065,0.121-0.119,0.393-0.161c0.274-0.057,0.716-0.042,1.453-0.244
						c-0.015-0.042-0.044-0.127-0.059-0.17c-0.703,0.163-1.296,0.067-1.738-0.011c-0.443-0.09-0.747-0.202-0.881-0.305
						c-0.29-0.222,0.248-0.38,1.494-0.524c0.333-0.047,0.676-0.123,0.855-0.221c0.108-0.066,0.06-0.058,0.072-0.108
						c0-0.909-0.001-1.825-0.001-2.784c0.011-1.913,0.034-3.914-0.011-5.828c-0.017-1.418-0.034-2.822-0.051-4.176l0-1.044
						l0.002-0.519l0.004-0.003c0.008-0.01,0.028-0.038-0.022-0.046c-0.02,0.004-0.011-0.001-0.056,0.01l-0.156,0.04l-0.311,0.091
						c-0.207,0.065-0.411,0.139-0.61,0.22c-0.396,0.162-0.781,0.362-1.065,0.581c-0.142,0.107-0.25,0.223-0.299,0.295
						c-0.029,0.047-0.035,0.029-0.034,0.125l0.1,1.5c0.132,2.001,0.258,4.004,0.322,5.923c0.066,1.396,0.396,3.819,0.317,4.525
						c-0.024,0.505-0.119,0.532-0.231,0.465c-0.17-2.293-0.337-4.55-0.506-6.823c-0.082-1.368-0.165-2.742-0.249-4.154
						c-0.02-0.344-0.039-0.689-0.059-1.038l-0.023-0.455c0.004-0.074,0.031-0.145,0.07-0.205c0.2-0.322,0.785-0.693,1.348-0.929
						c-0.556,0.225-1.131,0.574-1.356,0.907c-0.099,0.134-0.09,0.219-0.063,0.643c0.02,0.352,0.039,0.697,0.058,1.037
						c0.095,1.45,0.185,2.823,0.275,4.194c0.138,2.244,0.273,4.464,0.414,6.758c-0.098-0.075-0.2-0.146-0.277-0.002
						c0,0,0.056,0.695,0.083,1.043c-0.113,1.41-0.455,1.086-0.735,0.41C46.164,34.125,46.096,33.922,46.027,33.719z"/>
				</g>
				<g>
					<path fill="#FFFFFF" d="M42.019,25.858c-0.01,0.296-0.02,0.594-0.029,0.883c-0.032,2.699-0.222,5.45,0.154,8.069
						c0.11,0.64,0.276,1.277,0.529,1.865c0.128,0.293,0.27,0.581,0.443,0.846c0.116,0.208,0.333,0.391,0.596,0.6
						c0.521,0.4,1.131,0.768,1.751,1.104c0.28,0.151,0.714,0.37,0.818,0.402l0.431-0.003l0.55-0.019
						c1.027-0.042,2.117-0.122,3.141-0.329c0.554-0.109,0.808-0.231,1.22-0.619c0.384-0.346,0.75-0.76,1.101-1.178
						c0.35-0.42,0.687-0.864,0.991-1.304c0.195-0.28,0.163-0.202,0.207-0.535l0.103-0.816c0.125-1.09,0.22-2.17,0.286-3.209
						c-0.09,1.23-0.215,2.474-0.38,3.706l-0.065,0.452c-0.011,0.106-0.025,0.156-0.078,0.221c-0.147,0.218-0.342,0.485-0.523,0.724
						c-0.373,0.488-0.77,0.963-1.184,1.405c-0.413,0.422-0.867,0.883-1.248,0.979c-0.511,0.159-1.146,0.247-1.751,0.319
						c-0.615,0.07-1.238,0.119-1.858,0.15l-0.88,0.028c-0.087,0.002-0.087-0.01-0.229-0.075l-0.394-0.193
						c-0.54-0.278-1.073-0.588-1.565-0.922c-0.244-0.167-0.481-0.343-0.681-0.521c-0.216-0.19-0.282-0.296-0.447-0.572
						c-0.552-0.978-0.825-2.125-0.923-3.301c-0.198-2.383-0.031-4.854,0.024-7.252c0.105,0.969,0.189,2.127,0.188,3.476
						c-0.016,1.586-0.007,3.2,0.227,4.628c0.127,0.71,0.332,1.392,0.63,1.994c0.078,0.148,0.156,0.296,0.245,0.434l0.064,0.102
						l0.028,0.037c0.036,0.037,0.067,0.08,0.124,0.129c0.209,0.198,0.503,0.415,0.804,0.614c-0.025,0.038-0.073,0.112-0.098,0.149
						c0.444,0.28,0.918,0.541,1.392,0.778c0.211,0.109,0.55,0.262,0.577,0.27c-0.028,0.009,0.329-0.006,0.584-0.018
						c1.072-0.057,2.167-0.149,3.174-0.327c0.248-0.045,0.495-0.099,0.688-0.162c0.104-0.034,0.154-0.054,0.214-0.092
						c0.063-0.036,0.149-0.093,0.235-0.164c0.351-0.276,0.715-0.662,1.057-1.045c0.345-0.388,0.677-0.8,0.989-1.217l0.368-0.512
						c0.011,0.014,0.059-0.334,0.095-0.585c0.281-2.13,0.49-4.279,0.466-6.439c-0.005-2.19-0.007-4.438-0.088-6.652
						c-0.018,0.314-0.058,0.128-0.088,0.064l-0.002-0.062l0.002,0.062c-0.028-0.058-0.044-0.022-0.037,0.526
						c-0.007-0.549,0.009-0.584,0.037-0.526c0.032,2.176,0.022,4.391,0.027,6.546c0.028,2.122-0.16,4.228-0.416,6.326l-0.095,0.671
						c-0.011,0.039,0.005,0.004-0.054,0.092l-0.207,0.294c-0.298,0.411-0.62,0.817-0.951,1.205c-0.33,0.386-0.68,0.76-1.024,1.062
						c-0.167,0.146-0.347,0.274-0.43,0.309c-0.112,0.05-0.355,0.116-0.583,0.162c-0.958,0.189-2.039,0.279-3.089,0.333l-0.784,0.024
						c-0.063,0-0.043,0-0.066-0.008l-0.257-0.125c-0.457-0.226-0.918-0.486-1.355-0.759c0.34,0.211,0.695,0.414,1.052,0.599
						l0.509,0.251c0.092,0.043,0.041,0.022,0.069,0.031l0.136-0.001c0.815-0.021,1.656-0.08,2.469-0.172
						c0.406-0.046,0.81-0.103,1.188-0.177c0.188-0.037,0.37-0.079,0.523-0.125c0.172-0.054,0.195-0.069,0.311-0.145
						c0.494-0.352,1.079-1.01,1.576-1.621c0.254-0.314,0.501-0.639,0.731-0.964l0.156-0.226c0.026-0.042,0.022-0.028,0.028-0.048
						l0.064-0.46c0.106-0.821,0.191-1.657,0.262-2.489c0.158-1.683,0.182-3.284,0.162-5.008c-0.004-1.696-0.008-3.396-0.013-5.101
						c-0.012-0.833-0.044-1.667-0.134-2.461c-0.047-0.372-0.111-0.83-0.198-1.062c-0.106-0.32-0.281-0.703-0.456-1.066
						c-0.178-0.369-0.37-0.739-0.569-1.105l-0.305-0.546l-0.203-0.346c0.096,0.036-0.446-0.217-0.792-0.357
						c-0.38-0.158-0.769-0.306-1.158-0.44c-0.761-0.26-1.614-0.5-2.224-0.518c-0.545-0.003-1.372,0.285-2.1,0.611
						c-0.513,0.216-1.522,0.76-1.993,1.068c-0.124,0.071-0.246,0.14-0.364,0.208l-0.162,0.098l-0.033,0.01
						c-0.024,0.003-0.034,0.021-0.045,0.039c-0.013,0.024-0.061,0.184-0.101,0.324c-0.16,0.558-0.3,1.133-0.426,1.709
						c-0.25,1.153-0.445,2.323-0.555,3.479c-0.084-0.3-0.294,0.12-0.416,0.037c-0.108-0.082-0.204-0.693,0.248-3.047
						c-0.044-0.008-0.133-0.024-0.177-0.032c-0.543,2.342-0.832,3.989-1.029,4.467c-0.18,0.478-0.509-0.345-0.277-2.825
						c0.145-1.387,0.382-2.851,0.753-4.409c0.048-0.131,0.111-0.606,0.299-0.898c0.186-0.27,0.648-0.537,0.75-0.622
						c0.354-0.241,0.713-0.462,1.083-0.672c0.739-0.42,1.509-0.805,2.358-1.125c0.426-0.157,0.87-0.3,1.373-0.394
						c0.493-0.109,1.15-0.09,1.604-0.001c0.96,0.166,1.792,0.448,2.629,0.756c0.415,0.157,0.824,0.323,1.234,0.506
						c0.195,0.099,0.428,0.171,0.783,0.405c0.338,0.222,0.507,0.637,0.616,0.793c0.442,0.759,0.848,1.507,1.226,2.303
						c0.135,0.294,0.266,0.589,0.386,0.938c0.136,0.397,0.189,0.74,0.241,1.06c0.1,0.652,0.148,1.281,0.181,1.905
						c0.063,1.256,0.045,2.458,0.054,3.657c-0.002,1.202-0.004,2.398-0.007,3.609c0.009,1.202-0.059,2.482-0.176,3.685
						c-0.081,0.838-0.176,1.681-0.287,2.533l-0.089,0.644c-0.04,0.216-0.039,0.391-0.154,0.847c-0.208,0.406-0.356,0.571-0.48,0.753
						l-0.406,0.539c-0.558,0.706-1.123,1.384-1.85,2.042c-0.183,0.165-0.39,0.329-0.643,0.492c-0.29,0.185-0.611,0.29-0.846,0.354
						c-0.495,0.131-0.944,0.201-1.396,0.264c-0.899,0.118-1.779,0.185-2.668,0.221l-0.702,0.016
						c-0.396,0.045-0.788-0.184-0.979-0.268c-0.414-0.202-0.807-0.416-1.195-0.644c-0.387-0.229-0.767-0.471-1.143-0.747
						c-0.369-0.283-0.762-0.562-1.125-1.099c-0.522-0.816-0.833-1.705-1.029-2.576c-0.586-2.581-0.483-6.781-0.397-7.982
						c0.065-0.864,0.161-0.898,0.268-0.766c0.005,1.977-0.06,3.947,0.048,5.948c0.059,0.992,0.152,2.017,0.432,3.014
						c0.137,0.498,0.316,0.99,0.548,1.462c0.115,0.236,0.247,0.466,0.39,0.689c0.157,0.253,0.389,0.48,0.584,0.649
						c0.501,0.426,1.02,0.758,1.55,1.075c0.265,0.158,0.535,0.306,0.808,0.45c0.298,0.144,0.483,0.275,0.959,0.433
						c0.11,0.011,0.222,0.011,0.334,0.009l0.232-0.003l0.458-0.014l0.912-0.048c0.607-0.041,1.214-0.096,1.827-0.18
						c0.624-0.115,1.205-0.126,1.96-0.542c0.617-0.407,1.028-0.855,1.461-1.312c0.418-0.46,0.812-0.933,1.186-1.426l0.278-0.376
						l0.145-0.205c0.062-0.093,0.128-0.202,0.186-0.305c0.038-0.113,0.061-0.232,0.078-0.353l0.04-0.244l0.068-0.453l-0.07,0.442
						l-0.039,0.233c-0.018,0.114-0.04,0.233-0.073,0.344c-0.048,0.106-0.116,0.205-0.179,0.304l-0.146,0.207l-0.276,0.371
						c-0.37,0.483-0.758,0.949-1.172,1.404c-0.426,0.453-0.835,0.897-1.428,1.303c-0.725,0.443-1.334,0.456-1.949,0.574
						c-0.613,0.087-1.221,0.144-1.832,0.188l-0.917,0.053l-0.462,0.016c-0.152,0.002-0.295,0.011-0.545,0.002
						c-0.481-0.108-0.703-0.286-0.994-0.414c-0.278-0.144-0.551-0.292-0.821-0.451c-0.54-0.318-1.069-0.651-1.581-1.083
						c-0.195-0.17-0.423-0.396-0.58-0.649c-0.142-0.223-0.271-0.452-0.385-0.687c-0.229-0.47-0.403-0.959-0.537-1.454
						c-0.272-0.99-0.36-2.004-0.412-2.984c-0.095-1.977-0.015-3.919-0.003-5.863c0.092,0.142,0.187,0.279,0.276,0.042
						c0,0,0.001-1.203,0.001-1.804c0.228-2.407,0.542-1.804,0.766-0.603C41.917,25.14,41.967,25.497,42.019,25.858z"/>
				</g>
				<g>
					<path fill="#FFFFFF" d="M57.59,35.366c-0.057-0.286-0.13-0.462-0.147-0.935c0.005-0.25,0.009-0.499,0.014-0.746
						c0.03-3.176,0.059-6.247,0.088-9.351c0.012-3.367,0.024-6.76,0.037-10.247c1.986,0.007,4.005,0.014,6.058,0.021
						c-0.011,1.766-0.022,3.569-0.033,5.414c-0.046,3.563-0.057,7.381-0.057,11.198c0,0.954,0.001,1.908,0.002,2.859
						c-0.02,0.503,0.018,0.515,0.334,0.779c0.313,0.226,0.716,0.412,1.123,0.562c0.19,0.071,0.448,0.151,0.592,0.19
						c0.114,0.031,0.229,0.058,0.344,0.078c0.106,0.012,0.251,0.055,0.328,0.015l-0.001-0.349c0-0.821-0.001-1.631-0.001-2.427
						c-0.006,0.909-0.011,1.82-0.016,2.733c-0.057,0.083-0.253,0.002-0.369-0.006l-0.199-0.047l-0.269-0.079
						c-0.498-0.157-0.997-0.361-1.394-0.62c-0.097-0.064-0.189-0.133-0.26-0.199c-0.054-0.05-0.095-0.098-0.128-0.158
						c-0.032-0.059-0.048-0.126-0.043-0.193l0.001-0.38l0.006-1.699l0.011-3.405c0.018-4.758,0.035-9.53,0.053-14.292
						c-2.04-0.01-4.078-0.02-6.114-0.029c-0.029,3.422-0.059,6.836-0.088,10.254c-0.048,3.101-0.095,6.204-0.143,9.34
						c-0.106-1.641-0.191-3.601-0.191-5.883c0.026-4.753,0.053-9.431,0.078-14.055c1.44,0.004,2.864,0.009,4.286,0.013
						c0,0.045,0,0.134,0,0.179c0.794-0.004,1.583-0.008,2.364-0.012c0.004,3.99,0.007,7.86,0.01,11.735l-0.026,5.373l-0.017,2.678
						l-0.001,0.193c0,0.03,0.011,0.059,0.024,0.085c0.028,0.05,0.055,0.082,0.204,0.197c0.262,0.193,0.624,0.369,0.995,0.512
						c0.187,0.072,0.379,0.137,0.572,0.194l0.192,0.051c0.063,0.014,0.128,0.025,0.193,0.03c0.064,0.002,0.02-0.108,0.035-0.158
						l0.013-2.149c0.003-1.792,0.007-3.583,0.01-5.381c-0.001-3.601-0.021-7.231-0.075-10.922c-0.024,0.543-0.061,0.221-0.09,0.108
						v-0.108v0.108c-0.025-0.102-0.046-0.039-0.046,0.911c0-0.95,0.021-1.012,0.046-0.911c0.006,3.684,0.011,7.302,0.017,10.891
						c0,1.795-0.001,3.583-0.002,5.367l-0.003,2.007c0.031,0.11-0.068,0.086-0.145,0.067l-0.154-0.042
						c-0.19-0.057-0.379-0.121-0.562-0.191c-0.36-0.14-0.717-0.314-0.953-0.495c-0.139-0.112-0.123-0.104-0.148-0.144
						c-0.006-0.017-0.014-0.034-0.013-0.053l0.001-0.209l0.008-2.672c0.007-1.781,0.014-3.567,0.02-5.36
						c0.019-3.912,0.036-7.858,0.055-11.872c-0.561-0.001-1.143-0.003-1.726-0.005c0.577,0.001,1.154,0.002,1.728,0.003
						c-0.009,4.115-0.018,8.2-0.026,12.271c-0.002,1.87-0.004,3.736-0.006,5.602l-0.001,1.398v0.699l0.001,0.147
						c0.002,0.013,0.008,0.026,0.015,0.038c0.009,0.013,0.014,0.019,0.029,0.034c0.044,0.037,0.099,0.084,0.166,0.129
						c0.132,0.091,0.297,0.183,0.472,0.265c0.177,0.083,0.364,0.16,0.557,0.228l0.293,0.098l0.18,0.053
						c0.047,0.007,0.122,0.039,0.148,0.01v-0.346l-0.002-2.794c-0.001-1.863-0.003-3.728-0.005-5.594
						c-0.004-4.062-0.009-8.134-0.013-12.225c2.183-0.002,4.375-0.004,6.572-0.006c0.005,6.68,0.01,13.426,0.015,20.284
						c0,1.016,0,3.053,0,4.071c-0.015,0.797-0.028,1.576-0.042,2.34c-2.597-0.04-4.976-0.076-7.288-0.112l-0.557-0.991l0.158,0.268
						l-0.177,0.124l-0.225,0.153l-0.43,0.275c-0.301,0.178-0.609,0.354-1.03,0.492c-0.209,0.066-0.512,0.124-0.781,0.091
						c-0.253-0.021-0.459-0.078-0.649-0.141c0.62,0.076-0.135-0.311-0.031-0.421c0.053-0.08,0.206,0.035,0.927,0.023
						c0.379-0.046,0.749-0.238,1.201-0.514c0.213-0.131,0.494-0.323,0.708-0.478c0.204-0.15,0.428-0.315,0.679-0.5
						c0.168,0.302,0.355,0.635,0.562,1.007l0.068,0c0.023-0.045,0.071-0.135,0.095-0.18l-0.058-0.001
						c-0.202-0.382-0.402-0.761-0.602-1.138c-0.684,0.469-1.392,0.967-2.047,1.236c-0.672,0.347-1.242,0.019-1.696-0.249
						c-0.896-0.577-1.38-1.111-1.54-1.327c-0.153-0.229,0.091-0.169,0.737,0.182c0.318,0.166,0.752,0.416,1.262,0.617
						c0.229,0.096,0.568,0.162,0.569,0.124c0.082-0.019,0.469-0.202,0.806-0.44l0.317-0.221l0.589-0.435l1.323-0.991
						c0.289,0.502,0.579,1.005,0.871,1.511l0.037,0.05c1.354-0.012,2.742-0.023,4.181-0.036c0.004-3.403,0.009-7.015,0.014-10.677
						c-0.008-3.967-0.015-7.958-0.022-11.898L70.337,15.8c1.076,0.008-3.546,0.017-2.433,0.024c0.007,2.796,0.015,5.582,0.022,8.366
						c-0.018,3.125-0.034,6.247-0.052,9.447l-0.009,0.787c0.005,0.085-0.018,0.367-0.033,0.6l-0.048,0.713l-0.047,0.712
						c-0.042,0.208,0.069,0.586-0.267,0.47c-0.465-0.021-0.9-0.005-1.398-0.095c-1.176-0.236-1.474-0.389-2.097-0.645
						c-0.282-0.128-0.564-0.275-0.854-0.468c-0.146-0.1-0.291-0.209-0.442-0.349c-0.184-0.174-0.347-0.375-0.465-0.599
						c-0.121-0.223-0.184-0.473-0.195-0.727l-0.001-0.505l0.005-0.81l0.01-1.624c0.006-1.086,0.012-2.174,0.017-3.265
						c0.024-4.062,0.049-8.146,0.073-12.208c0.538-0.013-3.545-0.028-3.054-0.047l-0.012,0.234l-0.013,0.869l-0.028,1.923
						c-0.046,4.074,0.09,11.201-0.046,13.237c-0.064,1.463-0.16,1.521-0.267,1.297c0.012-6,0.023-11.975,0.036-17.89
						c0.357,0.001,0.708,0.003,1.058,0.004l2.677,0.021c-0.025,3.328-0.051,6.66-0.075,10.003c-0.016,1.752-0.031,3.507-0.047,5.267
						l-0.025,2.633l-0.007,0.666c-0.02,0.356,0.079,0.712,0.297,0.997c0.478,0.588,0.889,0.761,1.339,1.002
						c-0.44-0.237-0.843-0.412-1.311-0.974c-0.217-0.275-0.332-0.619-0.317-0.969l0.009-0.678c0.011-0.869,0.021-1.736,0.032-2.602
						c0.018-1.752,0.035-3.498,0.053-5.245c0.021-3.363,0.041-6.728,0.062-10.11c-0.892-0.004-1.788-0.007-2.687-0.011l-1.063-0.01
						c-0.039,5.89-0.078,11.777-0.117,17.686c-0.092-0.241-0.188-0.472-0.276-0.07c0,0,0,0.509,0,1.145
						c-0.075,0.639,0.203,1.337,0.329,1.835c0.487,1.976,0.661,2.729,0.536,2.787c-0.132,0.046-0.536-0.636-0.96-1.578
						C58.042,36.558,57.813,36.017,57.59,35.366z"/>
				</g>
				<g>
					<path fill="#FFFFFF" d="M77.88,80.653c-0.039,0.402-0.099,0.806-0.19,1.2c-0.381,1.818-1.438,3.616-3.145,4.617
						c-1.677,1.023-3.941,1.062-5.659,0.035c-1.745-1.004-2.812-2.813-3.319-4.652c-0.261-0.929-0.4-1.887-0.45-2.85
						c-0.046-0.979-0.008-1.9-0.005-2.852c0.016-1.369,0.03-2.731,0.046-4.107c0.012-0.706-0.012-1.389,0.029-2.146
						c0.047-0.736,0.145-1.458,0.262-2.174c0.118-0.715,0.26-1.424,0.42-2.125l0.256-1.048l0.143-0.521l0.075-0.261l0.112-0.349
						c0.064-0.261,0.274-0.414,0.497-0.553c0.201-0.132,0.352-0.217,0.518-0.307c0.327-0.176,0.662-0.327,0.999-0.459
						c0.674-0.264,1.357-0.452,2.038-0.586c-0.808,0.153-1.606,0.382-2.381,0.709c-0.398,0.173-0.742,0.34-1.161,0.604
						c-0.265,0.154-0.494,0.341-0.561,0.648l-0.202,0.662c-0.438,1.567-0.776,3.146-0.983,4.78c-0.11,0.808-0.125,1.688-0.119,2.469
						l-0.011,2.406l-0.014,4.832c0.057,1.658,0.342,3.354,1.097,4.91c0.736,1.542,2.049,2.947,3.79,3.513
						c1.721,0.592,3.707,0.238,5.142-0.824c1.462-1.049,2.354-2.683,2.717-4.317c-0.161,1.327-0.736,3.079-2.351,4.403
						c-0.964,0.773-2.179,1.253-3.423,1.328c-1.244,0.076-2.504-0.259-3.529-0.911c-2.095-1.323-3.118-3.591-3.53-5.69
						c0.045-0.01,0.132-0.027,0.176-0.036c-0.338-1.485-0.32-3.021-0.319-4.39c0.002-1.403,0.003-2.795,0.005-4.187l0.014-2.099
						c0.024-0.747,0.111-1.46,0.219-2.164c0.224-1.407,0.528-2.77,0.92-4.137l0.185-0.598c0.045-0.143,0.099-0.277,0.174-0.396
						c0.1-0.1,0.197-0.202,0.324-0.281c0.274-0.188,0.406-0.254,0.584-0.354c0.168-0.09,0.337-0.177,0.508-0.254
						c0.684-0.315,1.388-0.541,2.101-0.714c1.428-0.335,2.898-0.46,4.389-0.299c1.458,0.179,3.086,0.616,4.232,1.962
						c0.561,0.65,0.877,1.56,0.947,2.341c0.088,0.746,0.13,1.456,0.175,2.178c0.007-0.411,0.054-0.17,0.087-0.086l0.003,0.082
						l-0.003-0.082c0.027,0.075,0.049,0.029,0.013-0.691c0.036,0.721,0.015,0.767-0.013,0.691c-0.034-0.712-0.067-1.41-0.15-2.155
						c-0.07-0.793-0.395-1.713-0.963-2.376c-1.164-1.369-2.799-1.818-4.253-2.005c-1.488-0.168-2.952-0.049-4.373,0.277
						c-0.71,0.165-1.41,0.388-2.095,0.691c-0.352,0.157-0.655,0.312-1.032,0.543c-0.222,0.15-0.529,0.32-0.65,0.586
						c-0.124,0.275-0.207,0.6-0.249,0.726c-0.393,1.355-0.689,2.696-0.918,4.083c-0.111,0.693-0.203,1.394-0.243,2.125
						c-0.032,0.771-0.016,1.388-0.025,2.091c-0.009,1.364-0.018,2.735-0.026,4.117c-0.003,0.695-0.006,1.395-0.009,2.096
						c0.01,0.735,0.063,1.479,0.182,2.227c-0.18-1.053-0.201-2.162-0.19-3.146c0.003-0.996,0.007-1.99,0.01-2.981
						c0.002-0.993,0.005-1.983,0.007-2.974c0.006-0.487-0.011-0.987,0.022-1.538c0.031-0.531,0.09-1.046,0.16-1.555
						c0.145-1.017,0.34-2.009,0.57-2.996c0.115-0.494,0.24-0.984,0.383-1.48l0.136-0.446c0.065-0.207,0.133-0.444,0.296-0.592
						c0.143-0.155,0.374-0.299,0.524-0.396l0.389-0.228c1.972-1.028,4.074-1.413,6.222-1.368c1.072,0.039,2.171,0.207,3.242,0.661
						c1.055,0.437,2.133,1.291,2.625,2.51c0.256,0.594,0.332,1.252,0.371,1.742c0.045,0.519,0.073,1.022,0.097,1.527
						c0.046,1.007,0.071,2.007,0.091,3.009l0.021,1.504l0.006,0.946l0.002,0.714l0.001,0.356v0.179v0.09
						c-0.009,0.021-0.053,0.016-0.077,0.024c-1.242,0.236-2.487,0.473-3.735,0.71c-1.7,0.322-3.409,0.646-5.128,0.972
						c0.001,1.128,0.001,2.27,0.002,3.416c0.001,0.36,0.003,0.901,0.005,1.443c0.017,0.303,0.188,0.607,0.334,0.763
						c0.135,0.173,0.311,0.311,0.496,0.38c0.093,0.042,0.188,0.053,0.287,0.067c0.196,0.006,0.389,0.013,0.579,0.019
						c0.398,0.011,0.784,0.021,1.162,0.031c0.099,0.009,0.194,0.017,0.289,0.024l0.018-0.244c0.004-0.376,0.008-0.747,0.012-1.116
						c0.002-0.375,0.004-0.746,0.006-1.117l0.002-0.144l0.028-0.225l0.055-0.449l0.056-0.449c0.018-0.071,0-0.159,0.046-0.216
						c0.046-0.059,0.098-0.104,0.151-0.147c-0.167,0.229-0.051,0.223,0.087,0.188c0.144-0.027,0.339-0.03,0.329,0.045
						c-0.002,0.042-0.06,0.085-0.16,0.204c-0.039,0.161,0.001,0.429-0.013,0.776c-0.014,0.385,0.019,0.699,0.017,1.221
						c-0.003,0.474-0.006,1.038-0.01,1.778c0.045,0.018,0.135,0.053,0.18,0.071c0.033-0.667,0.066-1.355,0.102-2.064
						c0.021-0.29,0.041-0.584,0.062-0.882l0.033-0.355c0.02-0.1-0.018-0.244,0.128-0.255c0.442-0.089,0.738-0.064,1.103-0.089
						l0.446-0.015c0.068-0.004,0.129-0.006,0.203-0.019c0.036-0.006,0.072-0.012,0.132-0.036c0.033-0.017,0.049-0.015,0.118-0.071
						c0.032-0.031,0.042-0.031,0.086-0.092c0.051-0.073,0.082-0.172,0.086-0.255c0.054-0.152,0.106-0.191,0.155-0.137
						c0.012,0.015,0.024,0.035,0.036,0.062l0.018,0.046c0.002,0.021,0.007-0.013,0.007,0.057c-0.005,0.128-0.057,0.278-0.136,0.385
						c-0.037,0.05-0.068,0.084-0.11,0.123c-0.253,0.197-0.273,0.171-0.368,0.227l-0.222,0.092c-0.148,0.057-0.314,0.109-0.504,0.165
						c-0.076,0.024-0.236,0.063-0.259,0.077l-0.065,0.041c-0.043,0.022-0.09,0.054-0.055,0.125l0.021,0.081
						c0.006,0.178,0.013,0.356,0.019,0.537c0.011,0.485,0.021,0.964,0.032,1.443c0.008,0.841,0.016,1.68,0.023,2.525
						c-1.265,0.007-2.536,0.015-3.837,0.022c-0.276,0.006-0.722-0.037-1.053-0.158c-0.351-0.121-0.673-0.303-0.954-0.527
						c-0.565-0.449-0.973-1.07-1.158-1.782c-0.05-0.177-0.077-0.361-0.095-0.547l-0.013-0.277v-0.189l0.001-0.761
						c0.002-0.509,0.003-1.021,0.004-1.537c0.003-1.314,0.006-2.643,0.009-3.979c1.825-0.342,3.66-0.686,5.49-1.028l2.313-0.443
						l1.088-0.212c0.016-0.012,0.051-0.004,0.036-0.032c-0.032-1.316-0.065-2.632-0.099-3.942c-0.028-0.75-0.062-1.502-0.117-2.229
						c-0.059-0.783-0.125-1.259-0.399-1.688c-0.51-0.86-1.764-1.378-3.09-1.535c-1.334-0.163-2.765-0.043-4.104,0.297
						c-0.461,0.117-0.913,0.266-1.342,0.449c-0.215,0.092-0.423,0.192-0.621,0.303c-0.229,0.136-0.171,0.086-0.198,0.118
						c0.012-0.049-0.096,0.295-0.16,0.522l-0.203,0.75c-0.13,0.504-0.249,1.016-0.355,1.529c-0.211,1.026-0.388,2.073-0.453,3.083
						c-0.039,0.983-0.022,2.151-0.037,3.22l-0.022,3.272c-0.003,1.108-0.048,2.153,0.067,3.147c0.203,1.996,0.908,3.941,2.284,5.129
						c0.493,0.427,1.189,0.8,1.977,0.935c0.787,0.139,1.645,0.017,2.371-0.317c1.495-0.674,2.238-2.093,2.531-2.682
						c0.396-0.895,0.448-0.945,0.528-0.76c-0.287,1.135-0.873,2.186-1.725,2.939c-0.845,0.758-1.961,1.193-3.078,1.165
						c-1.119-0.017-2.206-0.492-3.025-1.271c-0.829-0.774-1.405-1.812-1.764-2.919c-0.438-1.371-0.561-2.824-0.529-4.31
						c0.015-1.506,0.029-3.016,0.044-4.529l0.025-2.265c-0.002-0.729,0.074-1.436,0.184-2.168c0.224-1.45,0.558-2.915,0.979-4.316
						c-0.421,1.368-0.757,2.808-0.987,4.245c-0.11,0.723-0.194,1.436-0.197,2.152c-0.008,0.755-0.017,1.508-0.025,2.261
						c-0.012,1.521-0.024,3.037-0.037,4.556c-0.031,1.504,0.092,2.979,0.545,4.374c0.353,1.105,0.921,2.142,1.739,2.922
						c0.811,0.78,1.885,1.271,3.002,1.306c1.113,0.044,2.236-0.36,3.1-1.095c0.873-0.729,1.474-1.766,1.798-2.882
						c0.04,0.187,0.079,0.38,0.252,0.124c0,0,0.104-0.36,0.186-0.821c0.085-0.461,0.124-1.024,0.125-1.4
						c0.108-1.505,0.059-2.101,0.215-2.123c0.127-0.022,0.373,0.53,0.533,1.327C77.806,79.659,77.869,80.124,77.88,80.653z"/>
				</g>
				<g>
					<path fill="#FFFFFF" d="M63.099,82.453c-0.095,0.399-0.21,0.798-0.355,1.188c-0.33,0.89-0.808,1.78-1.58,2.486
						c-0.757,0.717-1.88,1.118-2.918,1.041c-1.044-0.058-1.971-0.448-2.791-0.922c-0.771-0.433-1.75-1.244-1.805-1.322
						c-0.083,0.056-0.166,0.127-0.251,0.19l-0.804,0.636c-0.675,0.534-1.353,1.071-2.033,1.611c-0.178-2.966-0.36-6.005-0.554-9.228
						c-0.271-5.435-0.727-11.634-1.087-17.061c0.53,8.686,1.07,17.522,1.609,26.356l2.071-1.628l0.823-0.645
						c0.076-0.055,0.15-0.116,0.223-0.161c0.137,0.127,0.116,0.131,0.595,0.509c0.371,0.289,0.76,0.562,1.173,0.807
						c0.823,0.485,1.761,0.89,2.828,0.956c1.062,0.086,2.222-0.322,3-1.051c0.795-0.716,1.282-1.615,1.62-2.503
						c-0.184,0.674-0.47,1.429-1.036,2.17c-0.548,0.731-1.494,1.455-2.672,1.633c-1.36,0.2-2.58-0.227-3.572-0.751
						c-0.5-0.27-0.965-0.573-1.397-0.9l-0.32-0.248l-0.204-0.168l-0.024-0.028l-0.033,0.019l-0.92,0.726
						c-0.819,0.648-1.636,1.294-2.45,1.938c-0.109-1.729-0.217-3.438-0.324-5.144c0.045-0.003,0.134-0.009,0.179-0.012
						c-0.382-4.896-0.667-9.661-0.944-14.405c-0.14-2.377-0.28-4.752-0.419-7.115c-0.175-2.654-0.35-5.288-0.527-7.984
						c2.215-0.023,4.472-0.047,6.862-0.072l0.003,0.415c0.026-0.75,0.062-0.36,0.091-0.223c0,0.053,0,0.103,0,0.151
						c0-0.049,0-0.099,0-0.151c0.016,0.077,0.03,0.064,0.039-0.325c-0.248-0.001-0.547-0.003-1.005-0.006
						c0.458,0.003,0.757,0.005,1.005,0.006c-0.009,0.39-0.023,0.402-0.039,0.325c0-0.097,0-0.193,0-0.286
						c-2.405,0.008-4.782,0.017-7.108,0.024c0.331,5.071,0.654,10.032,0.98,15.029c0.281,4.647,0.563,9.329,0.855,14.161
						c-0.646-9.887-1.277-19.517-1.914-29.265c2.413-0.006,4.831-0.013,7.255-0.019c-0.002,1.877-0.004,3.76-0.006,5.648
						l-0.001,2.337l0.001,0.282c0.003,0.029-0.006,0.083,0.008,0.089l0.094-0.066l0.153-0.085c0.136-0.063,0.41-0.202,0.622-0.282
						c0.904-0.37,1.956-0.596,3.048-0.438c1.092,0.148,2.134,0.756,2.828,1.571c0.71,0.814,1.119,1.782,1.354,2.745
						c0.109,0.431,0.216,1.083,0.24,1.73c0.021,0.669,0.007,1.189,0.012,1.598c-0.132,3.108-0.175,6.218-0.171,9.324
						c-0.227-0.775-0.674,2.333-0.589-3.885c-0.045,0-0.136,0-0.181,0c-0.219,6.219-0.847,8.551-1.032,2.333
						c-0.04-1.502-0.063-3.11-0.077-4.797c-0.004-0.848-0.009-1.707-0.013-2.582c-0.001-0.439-0.002-0.882-0.003-1.327
						c0.001-0.446-0.009-0.811-0.062-1.211c-0.172-1.557-0.983-3.056-2.271-3.4c-0.633-0.19-1.38-0.116-2.119,0.15
						c-0.186,0.069-0.369,0.145-0.552,0.235c-0.06,0.019-0.258,0.137-0.423,0.231c-0.176,0.108-0.316,0.163-0.529,0.327
						c-0.78,0.546-1.626,1.214-2.378,1.781c-0.006-1.882-0.011-3.756-0.017-5.639c-0.009-1.53-0.018-3.061-0.026-4.583L53.123,55.3
						l-0.004,0.002c-0.014,0,0.028,0-0.03,0.001h-0.163l-1.302,0.007l-1.302,0.005c-0.154,0.001-0.122,0.001-0.122,0.001l0,0h0
						c0.127,2.164,0.252,4.318,0.384,6.571c0.229,4.012,0.457,7.996,0.688,12.024c0.12,2.03,0.24,4.062,0.36,6.096
						c0.057,1.007,0.113,2.013,0.17,3.021l0.04,0.751l0.007,0.182l0.001,0.088l0.003,0.389l0.222-0.151l0.123-0.083l0.063-0.044
						l0.146-0.108c0.411-0.323,0.836-0.657,1.29-1.014c0.253,0.227,0.512,0.459,0.776,0.695l0.384,0.325l0.236,0.187
						c0.319,0.245,0.659,0.479,1.012,0.684c0.7,0.412,1.465,0.699,2.142,0.736c1.378,0.113,2.188-0.916,2.541-1.394
						c0.53-0.815,0.584-0.877,0.639-0.674c-0.303,0.727-0.735,1.395-1.318,1.834c-0.578,0.447-1.305,0.621-2.042,0.531
						c-0.739-0.085-1.472-0.401-2.149-0.808c-0.699-0.43-1.199-0.808-2.229-1.75c-0.715,0.563-1.416,1.115-2.114,1.666
						c-0.021-0.347-0.041-0.686-0.062-1.024c-0.339-6.079-0.678-12.16-1.025-18.403c0.161,3.121,0.317,6.146,0.472,9.161
						c0.185,3.083,0.368,6.154,0.553,9.242l0.054,1.042l2.121-1.65l0.663,0.598l0.318,0.271l0.234,0.188
						c0.313,0.246,0.638,0.478,0.974,0.683c0.67,0.409,1.392,0.731,2.13,0.834c0.735,0.105,1.472-0.045,2.068-0.467
						c0.599-0.42,1.053-1.065,1.372-1.775c0.013,0.193,0.024,0.396,0.231,0.159c0,0,0.161-0.347,0.304-0.805
						c0.146-0.457,0.266-1.022,0.324-1.402c0.324-1.511,0.384-2.116,0.537-2.113c0.131,0,0.282,0.596,0.319,1.418
						C63.168,81.444,63.159,81.919,63.099,82.453z"/>
				</g>
				<g>
					<path fill="#FFFFFF" d="M46.39,65.975c-0.052,0.479-0.104,0.961-0.154,1.434c-0.31,3.178-0.609,6.24-0.912,9.339
						c-0.342,3.749-0.688,7.531-1.043,11.428c-0.573-0.854-1.15-1.713-1.731-2.579l-0.868-1.294l-0.434-0.647l-0.054-0.081
						l-0.003-0.005l-0.001-0.003c-0.979,0.076,1.332-0.107,1.093-0.087l-0.005,0.009l-0.009,0.019l-0.02,0.037l-0.078,0.146
						c-0.05,0.1-0.117,0.184-0.175,0.275c-1.055,1.37-2.569,1.924-4.049,2.28c-0.892,0.19-1.82,0.278-2.771,0.213
						c-0.475-0.034-0.956-0.108-1.433-0.246c-0.252-0.077-0.449-0.138-0.74-0.276c-0.272-0.124-0.583-0.319-0.795-0.537
						c-0.118-0.265-0.098-0.68-0.123-0.938l-0.034-0.686l-0.061-1.375c-0.033-0.919-0.066-1.841-0.1-2.764
						c-0.09-3.713-0.043-7.374-0.065-10.817c-0.002,4.934-0.114,9.982,0.168,15.029l0.059,1.084
						c-0.044,0.531,0.405,0.785,0.822,1.009c0.754,0.362,1.377,0.477,2.077,0.553c1.361,0.122,2.701-0.066,3.98-0.482
						c0.639-0.213,1.263-0.494,1.851-0.877c0.577-0.393,1.148-0.885,1.505-1.61l0.018-0.033c-2.271,0.176-0.626,0.054-1.132,0.096
						l0.006,0.009l0.012,0.019l0.049,0.073l0.098,0.146l0.196,0.293l0.393,0.587l0.789,1.177l1.588,2.372
						c0.367-3.828,0.732-7.648,1.099-11.476c0.321-3.093,0.643-6.191,0.969-9.33c-0.033,1.586-0.114,3.477-0.308,5.67
						c-0.508,5.463-1.007,10.83-1.501,16.137c-0.798-1.188-1.587-2.361-2.375-3.533c0.012-0.063,0.036-0.188,0.047-0.249
						c-0.335-0.49-0.668-0.979-1-1.465l-0.125-0.184l-0.063-0.092l-0.031-0.046c-1.314,0.101,1.782-0.152,1.461-0.12l-0.005,0.01
						l-0.01,0.021c-0.057,0.106-0.109,0.219-0.174,0.318c-0.125,0.202-0.266,0.387-0.416,0.554
						c-0.606,0.669-1.323,1.095-2.047,1.427c-1.459,0.644-2.998,0.927-4.574,0.857c-0.811-0.06-1.542-0.155-2.435-0.574
						c-0.524-0.264-1.088-0.618-1.015-1.304l-0.062-1.205c-0.063-1.418-0.112-2.828-0.145-4.242c-0.06-2.857,0.011-5.63,0.005-8.452
						c0.003-3.075,0.005-6.141,0.008-9.233c2.22-0.009,4.455-0.018,6.733-0.026c0.018,1.577,0.036,3.178,0.055,4.824
						c0.023-0.524,0.061-0.213,0.09-0.104l0,0.104l0-0.104c0.025,0.098,0.045,0.037,0.044-0.879
						c0.001,0.916-0.019,0.977-0.044,0.879c-0.006-1.639-0.011-3.268-0.017-4.848c-2.362,0.002-4.707,0.004-7.009,0.007
						c0.008,5.909,0.017,11.716,0.024,17.562c0.048,1.387,0.096,2.775,0.144,4.169l0.049,1.047c0.008,0.117,0.021,0.504,0.055,0.808
						c0.012,0.16,0.065,0.302,0.132,0.422l0.319,0.313c0.267,0.178,0.545,0.34,0.78,0.438c0.236,0.1,0.407,0.162,0.614,0.222
						c0.397,0.117,0.795,0.196,1.189,0.239c1.577,0.166,3.108-0.056,4.583-0.587c0.734-0.279,1.462-0.631,2.133-1.183
						c0.333-0.276,0.653-0.604,0.918-1.015c0.069-0.098,0.125-0.214,0.184-0.322l0.021-0.042l0.011-0.021l0.005-0.011
						c0.381-0.036-3.306,0.26-1.741,0.142l0.065,0.097l0.131,0.195l0.525,0.783l-0.52-0.772l-0.13-0.193l-0.064-0.096l-0.008-0.013
						c-1.567,0.121,2.126-0.18,1.744-0.143l-0.011,0.021l-0.021,0.041c-0.059,0.107-0.112,0.225-0.181,0.321
						c-0.259,0.408-0.575,0.736-0.904,1.014c-0.664,0.55-1.384,0.91-2.114,1.19c-1.466,0.54-2.994,0.771-4.573,0.621
						c-0.396-0.043-0.794-0.114-1.194-0.228c-0.202-0.056-0.395-0.125-0.604-0.207l-0.375-0.175l-0.415-0.247
						c-0.233-0.205-0.487-0.384-0.517-0.711c-0.044-0.291-0.055-0.724-0.066-0.855l-0.052-1.051l-0.156-4.188
						c-0.062-2.827-0.021-5.565-0.039-8.35c-0.005-3.102-0.01-6.204-0.016-9.312c2.381-0.002,4.766-0.004,7.155-0.006
						c0.013,5.023,0.026,10.07,0.04,15.16c0.013,1.174-0.013,2.435-0.038,3.588l0.003,0.406c0.003,0.123,0.017,0.235,0.017,0.22
						c0.034,0.121,0.144,0.362,0.216,0.44c0.088,0.107,0.086,0.083,0.115,0.097c0.005,0.004,0.084,0.006,0.219-0.065
						c0.128-0.068,0.277-0.187,0.394-0.326c0.057-0.067,0.112-0.146,0.147-0.209c-0.005,0.01,0.011-0.016,0.006-0.024l-0.001-1.708
						c0-1.208,0-2.419,0-3.635c0-0.98,0-2.945,0-3.928c0.042-1.613,0.081-3.096,0.118-4.514c0.012-0.769,0.023-1.517,0.034-2.257
						c0.007-1.046,0.014-2.075,0.02-3.1c1.207,0.002,2.403,0.005,3.601,0.008c-0.437,0.1,0.102,0.245,0.135,0.367
						c0.017,0.061-0.092,0.116-0.513,0.157c-0.445,0.041-1.049,0.067-2.62,0.071c-0.003,0.65-0.006,1.431-0.011,2.393
						c0.045,0,0.135,0,0.18,0c0.026-0.72,0.052-1.438,0.077-2.146c3.077,0.134,5.057,0.333,5.366,0.519
						c0.156,0.093-0.103,0.183-0.843,0.259c-0.371,0.038-0.861,0.073-1.481,0.104c-0.629,0.024-1.278,0.05-1.982,0.077l-0.086,0.015
						c0.02-0.311,0.034,1.348,0.044,2.415c0.007,1.179,0.014,2.378,0.021,3.603c0,2.466-0.001,5.034-0.002,7.664
						c-0.001,0.656-0.003,1.317-0.004,1.98l-0.002,0.996l-0.001,0.499l-0.004,0.341c0.004,0.162,0,0.322-0.083,0.466
						c-0.054,0.14-0.138,0.311-0.211,0.434c-0.063,0.104-0.13,0.204-0.2,0.299c-0.142,0.189-0.299,0.361-0.475,0.52
						c-0.352,0.311-0.772,0.586-1.341,0.717c-0.58,0.143-1.312,0.008-1.805-0.405c-0.479-0.391-0.71-0.844-0.879-1.25
						c-0.042-0.121-0.08-0.206-0.121-0.357c-0.042-0.159-0.058-0.322-0.067-0.425c-0.017-0.224-0.017-0.405-0.018-0.587l0.018-1.025
						c0.016-0.668,0.024-1.318,0.02-1.979c-0.009-1.327-0.018-2.647-0.027-3.968c-0.021-3.278-0.042-6.553-0.063-9.812h-2.979
						c-0.014,2.104-0.028,4.212-0.042,6.368c-0.02,2.361-0.039,4.729-0.059,7.113c-0.004,2.361,0.091,4.802,0.202,7.213l0.009,0.193
						c0.002,0.021-0.004,0.049,0.021,0.058c0.038,0.021,0.048,0.044,0.336,0.146c0.459,0.16,0.985,0.246,1.522,0.267
						c1.078,0.043,2.207-0.145,3.226-0.515c0.507-0.188,0.99-0.426,1.394-0.717c0.2-0.146,0.381-0.303,0.531-0.468
						c0.068-0.084,0.138-0.167,0.191-0.252c0.033-0.042,0.05-0.086,0.075-0.127l0.018-0.032l0.009-0.016l0.002-0.004
						c-1.369,0.108,1.868-0.152,1.535-0.124l0.002,0.004l0.02,0.032l0.695,1.091l0.073-0.5l0.021-0.142l0.037-0.332l0.115-1.104
						c0.389-3.911,0.857-10.772,1.164-12.719c0.188-1.399,0.289-1.447,0.376-1.223c-0.514,5.699-1.026,11.373-1.534,16.994
						c-0.089-0.133-0.175-0.263-0.262-0.393l-0.987-1.496l-0.008-0.011l-0.003-0.006c-1.847,0.147-0.513,0.043-0.926,0.077
						l-0.002,0.004l-0.018,0.031l-0.034,0.062c-0.022,0.043-0.044,0.085-0.074,0.125c-0.052,0.083-0.112,0.162-0.179,0.239
						c-0.13,0.156-0.283,0.302-0.451,0.436c-0.336,0.269-0.723,0.497-1.134,0.684c-1.645,0.723-3.639,0.989-5.315,0.518
						c-0.207-0.059-0.416-0.147-0.537-0.206c-0.081-0.067-0.246-0.082-0.227-0.209l-0.053-1.215l-0.096-2.918
						c-0.064-1.947-0.042-3.871-0.017-5.831c-0.032,1.917-0.063,3.812-0.004,5.74l0.089,2.897l0.055,1.281
						c-0.029,0.134,0.084,0.193,0.188,0.246c0.096,0.056,0.282,0.134,0.495,0.205c1.668,0.508,3.684,0.258,5.355-0.463
						c0.827-0.366,1.618-0.914,1.962-1.618l0.004-0.008c-0.197,0.014,1.721-0.136,0.91-0.071l0.001,0.003l0.008,0.012l0.016,0.023
						l0.031,0.047l0.062,0.094l0.125,0.188l0.252,0.378l0.509,0.762l0.264,0.399c0.533-5.592,1.065-11.181,1.6-16.792
						c0.071,0.24,0.146,0.471,0.269,0.093c0,0,0.172-1.956,0.258-2.935c0.569-3.896,0.796-2.887,0.849-0.914
						C46.39,64.795,46.39,65.377,46.39,65.975z"/>
				</g>
				<g>
					<path fill="#FFFFFF" d="M24.286,87.108c-0.404-0.009-0.81-0.019-1.206-0.027c-0.644-0.007-1.282-0.014-1.917-0.02
						c0.053-7.517,0.103-14.459,0.16-22.607c0.017-1.868,0.035-3.744,0.052-5.646c-1.729-0.005-3.473-0.011-5.203-0.017
						c-0.002-1.767-0.004-3.521-0.007-5.235c1.091,0.137,2.161,0.271,3.209,0.401c-1.073-0.141-2.148-0.28-3.226-0.421
						c-0.006,1.761-0.012,3.526-0.019,5.298c1.724,0.012,3.453,0.023,5.184,0.035c-0.027,4.524-0.054,9.061-0.081,13.598
						c-0.067,4.859-0.133,9.709-0.202,14.727l2.02,0.025c-0.733,0.028-1.446,0.055-2.126,0.08c-0.065-2.471-0.111-3.175-0.111-4.611
						c0.031-4.467,0.062-8.832,0.091-13.146c0.045,0,0.134,0,0.179,0c-0.01-1.941-0.021-3.815-0.031-5.679
						c0.005-1.589,0.011-3.167,0.016-4.749L15.9,59.062c0.01-1.927,0.02-3.852,0.03-5.773c2.856,0.367,5.693,0.731,8.557,1.1
						c3.418,0.405,6.864,0.814,10.584,1.256c-0.685-0.11-0.119-0.076,0.149-0.072c0.056,0.007,0.109,0.014,0.16,0.021
						c-0.051-0.007-0.104-0.014-0.16-0.021c0.236,0.004,0.214-0.019-1.217-0.198c1.432,0.18,1.454,0.202,1.217,0.198
						c-6.623-0.828-13.03-1.631-19.421-2.431l-0.011,6.031c1.722,0.013,3.447,0.024,5.184,0.036
						c-0.021,3.23-0.043,6.496-0.065,9.836c0.01-3.294,0.021-6.554,0.031-9.802c-1.736-0.006-3.469-0.013-5.2-0.02v-6.151
						c7.358,0.918,14.717,1.837,22.142,2.764c-3.233,1.073-6.48,2.151-9.742,3.234c0.004,3.966,0.008,7.972,0.012,12.03
						c0,0.821,0,2.465,0,3.287c-0.134,3.287-0.179,6.575-0.178,9.86c-0.225-0.82-0.675,2.467-0.585-4.108c-0.045,0-0.135,0-0.18,0
						c-0.224,6.575-0.854,9.042-1.035,2.466c-0.084-3.422-0.091-7.372-0.083-11.524c0.002-4.396,0.003-8.983,0.005-13.487
						l2.333-0.789c0.061-0.031,0.078-0.048,0.066-0.053c-0.058,0-0.084,0.003-0.093,0.006l-0.004,0.002l-0.791-0.098l-1.881-0.236
						c-2.477-0.329-4.95-0.656-7.518-0.997l-0.381-0.054l-0.022-0.009l-0.057-0.019l-0.012,0.064l-0.003,0.028l-0.003,0.254
						l-0.005,0.509l-0.01,0.952l-0.009,0.108l0.065,0.005l0.035,0.003l0.206,0.003l1.299,0.013c1.186,0.009,2.374,0.018,3.563,0.026
						c-0.019,3.177-0.038,6.364-0.057,9.553c-0.038,2.79-0.075,5.573-0.113,8.424c-0.022,1.645,0,3.905,0.011,5.96
						c0,1.03,0.001,1.994,0.001,2.825c-0.007,0.394-0.013,0.755-0.019,1.104c-0.009,0.122-0.021,0.19-0.039,0.276l-0.021,0.13
						c0.241,0.063,0.298,0.15,0.166,0.246l-0.41-0.002c0.013-5.007,0.025-9.983,0.038-14.923c0.037-4.406,0.075-8.815,0.112-13.265
						c-1.073-0.013-2.148-0.025-3.226-0.038c-0.638-0.013-1.277-0.024-1.918-0.037l0.023-1.069l-0.017,0.733l-0.016,0.345
						l0.619,0.022l1.298,0.023c1.074,0.015,2.144,0.028,3.213,0.043c-0.03,4.424-0.06,8.814-0.09,13.242
						c-0.041,4.997-0.081,9.987-0.122,15.007l0.353,0.005c-0.164,0.092-0.424,0.188-0.19,0.276c0,0,1.602,0,2.404,0
						c3.289,0.225,2.464,0.54,0.824,0.765C25.268,87.006,24.782,87.057,24.286,87.108z"/>
				</g>
				<g>
					<path fill="#FFFFFF" d="M56.504,64.821c0.185,0.019,0.37,0.037,0.547,0.056c0.212,0.024,0.43,0.056,0.654,0.103
						c0.113,0.024,0.228,0.051,0.347,0.086c0.138,0.039,0.306,0.101,0.446,0.168c0.292,0.138,0.547,0.342,0.713,0.61
						c0.177,0.271,0.191,0.594,0.187,0.915c-0.011,0.83-0.021,1.623-0.031,2.424c-0.022,1.572-0.045,3.129-0.072,5.002
						c-0.046,1.218-0.057,2.522-0.057,3.827c0.002,0.651,0.004,1.303,0.006,1.946c0.001,0.32,0.002,0.639,0.004,0.952v0.241
						l-0.01,0.337c-0.007,0.225-0.013,0.447-0.02,0.668c0.056-1.189,0.046-1.725,0.058-2.494l0.021-2.195
						c0.016-1.458,0.031-2.917,0.048-4.405c0.028-1.402,0.059-2.827,0.091-4.363c0.011-0.351,0.022-0.708,0.034-1.075
						c0.006-0.176,0.013-0.354,0.02-0.534l0.008-0.29l-0.006-0.457c-0.06-0.609-0.547-1.084-1.122-1.298
						c-0.329-0.125-0.485-0.156-0.704-0.206c-0.204-0.043-0.399-0.073-0.591-0.098c0.323-0.024,0.656-0.047,1.144,0.054
						c0.632,0.134,1.32,0.551,1.522,1.298c0.063,0.215,0.032,0.459,0.052,0.686l-0.005,0.39l-0.014,0.701
						c-0.008,0.471-0.017,0.935-0.024,1.395c-0.013,0.941-0.025,1.86-0.038,2.769c-0.045,0-0.134,0-0.179,0
						c0.067,2.609,0.012,5.132-0.033,7.654c-0.006,0.316-0.011,0.633-0.017,0.946l-0.007,0.474l-0.033,0.755l-0.034,0.77
						l-0.017,0.384l-0.004,0.096l-0.003,0.047l-0.048-0.001l-0.192-0.005c-0.502-0.017-0.999-0.024-1.532-0.12l-0.394-0.072
						l-0.249-0.052l-0.496-0.119c-0.329-0.085-0.657-0.182-0.989-0.297c-0.331-0.12-0.663-0.248-1.009-0.436
						c-0.29-0.144-0.882-0.544-1.082-1.055c0.112,0.3,0.001,0.146-0.057,0.093l-0.027-0.061l0.027,0.061
						c-0.031-0.059-0.103,0.022,0.269,0.496c-0.371-0.474-0.3-0.555-0.269-0.496c0.219,0.525,0.819,0.929,1.103,1.077
						c0.345,0.192,0.675,0.327,1.004,0.45c0.329,0.119,0.656,0.219,0.983,0.306l0.492,0.121l0.248,0.053l0.403,0.074
						c0.568,0.106,1.097,0.109,1.62,0.122l0.201,0.005c0.07,0.004,0.151,0.02,0.128-0.076l0.018-0.406l0.034-0.812l0.035-0.812
						l0.005-0.493l0.005-0.931c0.03-2.428,0.061-4.903,0.093-7.528c-0.012,2.018-0.023,3.977-0.035,5.929l-0.001,2.947l-0.055,1.312
						l-0.027,0.662l-0.007,0.166c-0.014,0.043,0.025,0.143-0.054,0.115l-0.327-0.006c-0.428-0.013-0.849-0.007-1.307-0.071
						c-0.226-0.029-0.455-0.069-0.682-0.112l-0.407-0.087c-0.519-0.121-1.028-0.268-1.546-0.467c-0.26-0.101-0.52-0.214-0.788-0.358
						c-0.135-0.074-0.271-0.154-0.411-0.254c-0.174-0.118-0.363-0.285-0.511-0.457c-0.308-0.351-0.452-0.814-0.39-1.281
						c0.002-0.138,0.007-0.194,0.011-0.251l0.014-0.186l0.027-0.371l0.108-1.486c0.147-1.989,0.297-3.992,0.448-6.024
						c0.026-0.347,0.08-1.041,0.106-1.388c0.24-1.377,0.392-2.762,0.498-4.148c0.197,0.363,0.752-0.99,0.45,1.778
						c0.045,0.004,0.135,0.011,0.18,0.015c0.437-2.759,1.145-3.752,1.111-0.963c-0.06,3.136-0.558,7.285-0.76,11.107
						c-0.039,0.649-0.077,1.298-0.116,1.937c0.01,0.011-0.002-0.003,0.029,0.015c0.169,0.115,0.432,0.242,0.705,0.349
						c0.277,0.108,0.574,0.206,0.877,0.291l0.458,0.119l0.23,0.053c0.1,0.021,0.029,0.007,0.052,0.013
						c0.003,0.008,0.034,0.039,0.051,0.007l0.006-0.008c0.002-0.005,0.004,0.014,0.006-0.071l0.012-0.361
						c0.007-0.247,0.013-0.489,0.02-0.729c0.011-0.502,0.021-0.99,0.031-1.475c0.015-1.007,0.029-1.994,0.044-2.99
						c0.028-2,0.062-4.001,0.151-5.914c0.023-0.696,0-1.653-0.011-2.523c-0.004-0.285-0.002-0.26-0.009-0.331
						c-0.009-0.056-0.046-0.098-0.084-0.126c-0.038-0.029-0.077-0.05-0.112-0.07c-0.04-0.022-0.161-0.063-0.217-0.09
						c-0.403-0.133-0.438-0.216-0.35-0.319c0.249,0.025,0.554,0.082,0.703,0.137c0.149,0.053,0.309,0.138,0.361,0.296
						c0.028,0.077,0.017,0.159,0.019,0.239l-0.003,0.391l-0.004,0.854c-0.007,1.135-0.015,2.265-0.021,3.399
						c-0.051,2.767-0.106,5.533-0.196,8.298c0.124-2.703,0.172-5.48,0.196-8.298c0.021-1.127,0.04-2.248,0.061-3.375l0.016-0.845
						l0.008-0.404c0-0.086,0.013-0.174-0.005-0.261c-0.121-0.355-0.504-0.415-1.059-0.509c0.087-0.083,0.178-0.168,0.055-0.272
						c0,0.001-0.683-0.061-1.03-0.057c-1.388-0.227-1.046-0.538-0.348-0.767C56.062,64.917,56.268,64.866,56.504,64.821z"/>
				</g>
				<g>
					<path fill="#FFFFFF" d="M74.146,70.278c0.011-0.077,0.022-0.155,0.032-0.228c0.081-0.697,0.117-1.396,0.147-2.114
						c0.016-0.358,0.03-0.708,0.047-1.094c0.016-0.252,0.031-0.348,0.058-0.568l0.007-0.039c-0.249-0.042-0.38-0.052-1.072-0.051
						l-0.849,0.006c-0.17,0.001-0.216,0.003-0.284,0.02c-0.062,0.016-0.138,0.052-0.212,0.096c0.079-0.043,0.156-0.072,0.219-0.083
						c0.065-0.012,0.117-0.007,0.285-0.004c0.282,0.007,0.56,0.013,0.836,0.019c0.695,0.012,0.775,0.023,1.036,0.038
						c-0.015,0.153-0.029,0.311-0.045,0.482c-0.022,0.339-0.048,0.701-0.075,1.112c-0.058,0.738-0.133,1.465-0.235,2.173
						c-0.102-0.253-0.181-0.554-0.174-0.901c0.053-0.918,0.097-1.689,0.137-2.397c0.046-0.003,0.135-0.009,0.179-0.012
						c-0.018-0.083-0.026-0.149-0.026-0.222c-0.532-0.021-1.222-0.051-1.854-0.076c-0.127-0.008-0.441,0.214-0.657,0.535
						c-0.227,0.321-0.406,0.721-0.513,1.141c0.048-0.059,0.067-0.006,0.089,0.019l-0.005,0.013l0.005-0.013
						c0.019,0.021,0.041,0.021,0.085-0.094c-0.044,0.114-0.066,0.115-0.085,0.094c0.141-0.397,0.33-0.776,0.548-1.078
						c0.207-0.305,0.497-0.501,0.56-0.488c0.407,0.007,0.825,0.013,1.264,0.02l0.326,0.009l0.049,0.01
						c0.03,0.007,0.056,0.014,0.075,0.022c-0.011,0.046-0.022,0.084-0.035,0.113l0.02-0.099l-0.057-0.008l-0.032-0.003l-0.104-0.003
						c-0.403-0.001-0.802-0.003-1.2-0.004l-0.273,0.001c-0.012,0.003-0.024,0-0.035,0.007c-0.025,0.005-0.1,0.043-0.182,0.114
						c-0.169,0.141-0.361,0.391-0.519,0.67c-0.161,0.282-0.297,0.599-0.402,0.921l-0.073,0.242l-0.006,0.03l-0.003,0.056
						c-0.008,0.023,0.022,0.02,0.038,0.025l0.098,0.024c0.396,0.114,0.791,0.229,1.189,0.343c0.148,0.044,0.447,0.131,0.596,0.174
						c0.559,0.304,1.144,0.521,1.739,0.694c-0.212,0.172,0.259,0.778-0.909,0.344c-0.013,0.044-0.038,0.13-0.05,0.173
						c1.13,0.563,1.401,1.299,0.157,1.124c-0.695-0.108-1.479-0.337-2.296-0.586c-0.202-0.062-0.411-0.126-0.618-0.189
						c-0.235-0.076-0.328-0.09-0.786-0.257c-0.377-0.131-0.744-0.259-1.143-0.396c-0.277-0.005-0.174-0.277-0.191-0.456
						c0.003-0.178,0.005-0.367,0.007-0.579c0.018-0.287,0.066-0.583,0.134-0.883l0.088-0.347l0.077-0.263
						c0.112-0.346,0.247-0.684,0.419-1.014c0.363-0.642,0.766-1.342,1.771-1.806c0.209-0.085,0.467-0.147,0.712-0.16l0.188-0.004
						l0.099,0.006c0.066,0.004,0.132,0.007,0.195,0.011c0.284,0.012,0.541,0.023,0.788,0.034c0.867,0.018,1.66,0.033,2.534,0.052
						c-0.026,0.594-0.055,1.222-0.088,1.964c-0.029,0.44-0.062,0.728-0.105,1.09c-0.057,0.621,0.058,1.711-0.083,2.019
						c-0.069,0.222-0.165,0.229-0.271,0.193c0.033-1.033,0.064-2.001,0.099-3.045c0.03-0.608,0.061-1.226,0.092-1.87
						c-0.567-0.021-1.156-0.041-1.786-0.062c-0.374-0.024-0.771-0.05-1.205-0.078c0.396,0.041,0.794,0.073,1.196,0.099
						c0.675,0.023,1.251,0.044,1.774,0.062c-0.025,0.669-0.049,1.27-0.071,1.851c-0.061,0.991-0.119,1.945-0.184,3.011
						c-0.092-0.038-0.187-0.075-0.276-0.016c0,0-0.006,0.311-0.009,0.466c-0.237,0.616-0.549,0.455-0.769,0.141
						C74.245,70.465,74.195,70.371,74.146,70.278z"/>
				</g>
			</g>
		</g>
	</g>
</g>
<g>
	<g>
		<g>
			<path fill="#FFFFFF" d="M82.413,51.794c-0.46-0.627-0.942-1.262-1.55-1.768c-0.681-0.606-1.448-1.133-2.288-1.52
				c-0.827-0.415-1.725-0.694-2.644-0.856l-0.693-0.113l-0.703-0.044c-0.217-0.021-0.496-0.027-0.786-0.028L72.9,47.452l-3.398-0.04
				c-4.545-0.034-9.112-0.068-13.742-0.103c-9.266-0.051-18.782-0.084-28.798-0.22c-0.878-0.015-1.762-0.03-2.652-0.046
				c-0.47-0.016-0.85,0.002-1.235,0.016c-0.391-0.007-0.775,0.068-1.165,0.113c-1.551,0.225-3.071,0.809-4.391,1.715
				c-2.685,1.771-4.444,4.867-4.4,8.119c0.011,7.511,0.023,15.023,0.034,22.033c0.026-4.155,0.053-8.336,0.08-12.533
				c0.011-2.099,0.022-4.202,0.033-6.309l0.016-3.162c0.035-0.932,0.098-1.782,0.374-2.636c0.959-3.411,4.02-6.159,7.554-6.923
				c0.885-0.227,1.764-0.28,2.71-0.296l3.171,0.019c2.113,0.015,4.226,0.029,6.336,0.043c8.426,0.091,16.817,0.183,25.121,0.272
				c4.134,0.075,8.244,0.15,12.332,0.225l3.05,0.068c0.525,0.008,0.848,0.063,1.279,0.083c0.398,0.08,0.803,0.12,1.19,0.229
				c1.553,0.406,3.017,1.13,4.155,2.188c-1.065-0.67-2.324-1.241-3.759-1.506c-0.36-0.054-0.718-0.145-1.098-0.157
				c-0.373-0.05-0.756-0.061-1.148-0.054c-1.02,0.008-2.061,0.017-3.141,0.026c-10.821-0.092-21.481-0.184-32.049-0.274
				c0-0.136,0-0.402,0-0.536c-3.766,0.03-7.485,0.06-11.182,0.089L25.407,47.9h-1.383c-0.47-0.001-0.764,0.035-1.154,0.043
				c-1.467,0.111-2.887,0.576-4.15,1.286c-2.557,1.406-4.339,3.997-4.667,6.774c-0.012,0.374-0.055,0.647-0.06,1.103l-0.013,1.363
				l-0.025,2.726l-0.051,5.448c-0.03,3.633-0.059,7.265-0.089,10.901c-0.009,1.82-0.018,3.642-0.027,5.465
				c-0.013,0.501,0.029,0.788,0.038,1.168c0.016,0.361,0.108,0.713,0.15,1.071c0.18,0.699,0.388,1.397,0.731,2.045
				c1.282,2.643,3.976,4.589,6.942,5.158c0.372,0.067,0.75,0.104,1.125,0.156l1.171,0.032c0.927-0.014,1.857-0.026,2.79-0.04
				c1.858-0.035,3.728-0.07,5.612-0.106c-1.068-0.072-0.435-0.182-0.213-0.27c0.074,0,0.145,0,0.213,0c-0.069,0-0.139,0-0.213,0
				c0.2-0.076,0.077-0.136-1.792-0.136c1.869,0,1.992,0.06,1.792,0.136c-1.848,0.008-3.688,0.015-5.521,0.021l-2.746,0.009
				l-1.1-0.046c-0.354-0.062-0.712-0.09-1.062-0.164c-2.793-0.573-5.327-2.394-6.551-4.855c-0.624-1.235-0.958-2.507-0.931-3.953
				c0.002-1.796,0.004-3.589,0.006-5.38c0.009-3.582,0.019-7.156,0.027-10.73l0.021-5.361l0.012-2.683l0.006-1.342
				c0.002-0.442-0.002-0.936,0.03-1.219c0.071-1.326,0.454-2.632,1.151-3.79c0.703-1.153,1.682-2.159,2.837-2.922
				c1.151-0.774,2.493-1.261,3.874-1.467c0.346-0.05,0.692-0.104,1.045-0.1l0.527-0.023l0.677,0.004l2.725,0.021
				c3.638,0.03,7.299,0.061,10.99,0.092c-2.865-0.014-5.724-0.028-8.577-0.042l-4.275-0.017l-1.068-0.004l-0.518,0.002l-0.411,0.021
				c-0.55,0.003-1.091,0.098-1.626,0.199c-2.144,0.423-4.098,1.653-5.422,3.312c-0.662,0.831-1.163,1.771-1.467,2.762
				c-0.158,0.495-0.244,1.005-0.312,1.518l-0.044,0.776l-0.002,1.056c-0.001,5.661-0.002,11.314-0.003,16.969l0.007,8.481
				c0.005,2.101,0.832,4.114,2.301,5.678c1.453,1.568,3.504,2.613,5.668,2.885c0.269,0.051,0.541,0.075,0.815,0.076
				c0.284,0.01,0.509,0.036,0.9,0.028l2.13-0.004l4.264-0.008c5.689-0.012,11.397-0.022,17.13-0.033
				c5.733-0.009,11.493-0.018,17.288-0.026c2.897-0.003,5.804-0.005,8.72-0.008h0.547l0.426-0.023
				c0.278-0.019,0.561-0.009,0.833-0.065c0.556-0.062,1.096-0.194,1.632-0.341c1.066-0.315,2.068-0.838,2.948-1.504
				c0.595-0.456,1.432-1.229,2.038-2.158c0.619-0.92,1.013-1.949,1.165-2.653c0.1-0.346,0.185-0.7,0.245-1.06
				c0.033-0.377,0.099-0.667,0.108-1.229c0.039-1.008,0.077-2.009,0.115-3.005c0.057-2.022,0.111-4.021,0.167-6.011
				c0.084-4.007,0.118-8.013,0.118-12.017c0.675,2,2.025-6.014,1.755,10.017c0.135,0,0.405,0,0.54,0
				c0.675-16.03,2.565-22.042,3.105-6.012c0.135,4.507,0.202,9.39,0.231,14.522c0.003,0.642,0.007,1.288,0.01,1.937l0.003,0.977
				c-0.006,0.368-0.033,0.826-0.056,1.237c-0.139,1.685-0.586,3.363-1.319,4.912c-1.455,3.118-4.081,5.609-7.177,7.091
				c-1.55,0.742-3.231,1.236-4.95,1.421c-0.428,0.074-0.86,0.066-1.291,0.094l-0.642,0.024l-0.523-0.002l-2.098-0.007
				c-2.802-0.006-5.618-0.013-8.436-0.019c-5.634-0.004-11.268,0.013-16.775,0.08L34.35,98.259l-6.01,0.036l-3.005,0.013
				l-1.502,0.005c-0.596-0.024-1.249-0.032-1.867-0.104c-5.01-0.532-9.785-3.565-12.138-8.214c-0.615-1.14-1.011-2.395-1.297-3.662
				c-0.095-0.644-0.237-1.284-0.244-1.936l-0.041-0.974l0.008-0.751c0.027-2,0.055-4.002,0.083-6.009
				c0.073-5.529,0.146-11.154,0.222-16.84l0.019-2.14l0.004-0.535l0.002-0.268l0.018-0.339c0.032-0.452,0.037-0.906,0.104-1.354
				c0.223-1.802,0.822-3.554,1.72-5.112c1.789-3.131,4.719-5.475,8.034-6.646c1.657-0.585,3.411-0.906,5.156-0.9l4.34,0.03
				c2.87,0.03,5.733,0.06,8.584,0.089c5.697,0.069,11.33,0.162,16.839,0.297c4.008,0.067,9.519,0,14.527-0.034
				c1.253-0.006,2.474-0.011,3.632-0.017c0.579,0,1.143,0.001,1.687,0.001c0.545,0.003,1.04-0.004,1.673,0.04
				c2.379,0.118,4.23,0.819,5.265,1.371c0.762,0.375,1.292,0.741,1.67,1.037c0.388,0.278,0.595,0.532,0.716,0.693
				c0.235,0.333,0.064,0.398-0.228,0.388c-1.498-1.058-3.206-1.811-4.991-2.211c-0.892-0.201-1.803-0.314-2.716-0.339
				c-0.897-0.037-1.664-0.014-2.503-0.024c-3.286-0.008-6.568-0.017-9.844-0.025c-6.552-0.021-13.08-0.043-19.574-0.065
				l-11.947-0.118l-5.973-0.064c-0.506-0.002-0.965-0.023-1.559,0.008l-0.846,0.034l-0.841,0.11
				c-1.124,0.143-2.219,0.465-3.282,0.864c-2.099,0.861-4.043,2.178-5.529,3.943c-1.49,1.751-2.578,3.904-2.968,6.226
				c-0.122,0.576-0.163,1.16-0.194,1.747c-0.042,0.608-0.024,1.026-0.039,1.548L9.47,61.047l-0.096,5.971
				c0.042-1.95,0.085-3.902,0.128-5.857l0.057-2.943l0.034-1.499c0.048-0.576,0.047-1.156,0.172-1.724
				c0.71-4.624,4.085-8.506,8.256-10.222c0.512-0.243,1.065-0.382,1.597-0.573c0.551-0.126,1.097-0.286,1.656-0.363
				c0.56-0.075,1.119-0.169,1.685-0.171l0.842-0.03l0.751,0.007c2.003,0.017,4.01,0.033,6.021,0.05
				c4.024,0.023,8.064,0.047,12.119,0.071l19.436,0.182l9.72,0.095l2.434,0.027l1.328,0.078l1.314,0.204
				c1.739,0.354,3.406,1.047,4.878,2.032c-0.592-0.05-1.138-0.014-0.571,0.615c0,0,0.211,0.146,0.553,0.387
				c0.354,0.225,0.789,0.606,1.275,1.027c0.95,0.871,1.872,2.125,2.359,3.032c0.829,1.908,0.857,3.35,0.789,4.212
				c-0.133,0.878-0.326,1.225-0.525,1.225c-0.43-0.004-0.769-1.372-1.605-2.822C83.658,53.309,83.125,52.533,82.413,51.794z"/>
		</g>
	</g>
</g>
</svg>
