<?xml version="1.0" encoding="utf-8"?>
<!-- Generator: Adobe Illustrator 19.0.0, SVG Export Plug-In . SVG Version: 6.00 Build 0)  -->
<svg version="1.1" id="Layer_1" xmlns="http://www.w3.org/2000/svg" xmlns:xlink="http://www.w3.org/1999/xlink" x="0px" y="0px"
	 viewBox="-345 257 100 100" style="enable-background:new -345 257 100 100;" xml:space="preserve">
<style type="text/css">
	.st0{display:none;}
	.st1{display:inline;}
	.st2{fill:#010002;}
	.st3{fill:#FFFFFF;}
</style>
<g id="Layer_1_1_" class="st0">
	<g class="st1">
		<path id="Facebook" d="M-308.1,278.8c0,2.3,0,12.7,0,12.7h-9.3V307h9.3v46.1h19.1V307h12.8c0,0,1.2-7.4,1.8-15.6
			c-1.7,0-14.5,0-14.5,0s0-9,0-10.6c0-1.6,2.1-3.7,4.1-3.7c2.1,0,6.4,0,10.4,0c0-2.1,0-9.4,0-16.1c-5.4,0-11.5,0-14.1,0
			C-308.6,261-308.1,276.5-308.1,278.8z"/>
	</g>
</g>
<g id="Layer_2" class="st0">
	<g class="st1">
		<path d="M-328.8,261.6h67.1c6.4,0,11.6,4.7,11.6,11.6v67.1c0,6.9-5.2,11.6-11.6,11.6h-67.1c-6.4,0-11.6-4.7-11.6-11.6v-67.1
			C-340.4,266.3-335.2,261.6-328.8,261.6L-328.8,261.6z M-274.7,271.6c-2.2,0-4.1,1.8-4.1,4.1v9.7c0,2.2,1.8,4.1,4.1,4.1h10.2
			c2.2,0,4.1-1.8,4.1-4.1v-9.7c0-2.2-1.8-4.1-4.1-4.1H-274.7L-274.7,271.6z M-260.4,299.7h-7.9c0.8,2.5,1.2,5.1,1.2,7.7
			c0,15-12.6,27.2-28,27.2c-15.5,0-28-12.2-28-27.2c0-2.7,0.4-5.3,1.2-7.7h-8.3v38.1c0,2,1.6,3.6,3.6,3.6h62.8c2,0,3.6-1.6,3.6-3.6
			L-260.4,299.7L-260.4,299.7z M-295.2,288.9c-10,0-18.1,7.9-18.1,17.6c0,9.7,8.1,17.6,18.1,17.6c10,0,18.1-7.9,18.1-17.6
			C-277.1,296.8-285.2,288.9-295.2,288.9z"/>
	</g>
</g>
<g id="Layer_3" class="st0">
	<g class="st1">
		<g>
			<path class="st2" d="M-251.5,279.4c-3.3,1.5-6.8,2.4-10.5,2.9c3.8-2.3,6.7-5.8,8-10.1c-3.5,2.1-7.4,3.6-11.6,4.4
				c-3.3-3.6-8.1-5.8-13.3-5.8c-10.1,0-18.3,8.2-18.3,18.3c0,1.4,0.2,2.8,0.5,4.2c-15.2-0.8-28.6-8-37.6-19.1
				c-1.6,2.7-2.5,5.8-2.5,9.2c0,6.3,3.2,11.9,8.1,15.2c-3-0.1-5.8-0.9-8.3-2.3v0.2c0,8.8,6.3,16.2,14.6,17.9
				c-1.5,0.4-3.1,0.6-4.8,0.6c-1.2,0-2.3-0.1-3.4-0.3c2.3,7.3,9.1,12.5,17.1,12.7c-6.2,4.9-14.1,7.8-22.7,7.8
				c-1.5,0-2.9-0.1-4.4-0.2c8.1,5.2,17.7,8.2,28,8.2c33.6,0,52-27.8,52-52l-0.1-2.4C-257,286.3-253.9,283.1-251.5,279.4z"/>
		</g>
	</g>
</g>
<g>
	<path class="st3" d="M-256.6,313.7V338c0,1.5-0.3,2.9-1,4.2c-0.6,1.3-1.5,2.4-2.6,3.4c-1.1,1-2.4,1.7-3.8,2.3
		c-1.5,0.5-3,0.8-4.7,0.8h-49.6c-1.7,0-3.2-0.3-4.7-0.8c-1.5-0.6-2.7-1.3-3.8-2.3c-1.1-1-2-2.1-2.6-3.4c-0.6-1.3-1-2.7-1-4.2v-24.3
		c0-1.4,0.3-2.8,1-4.1c0.6-1.3,1.5-2.4,2.6-3.4c1.1-0.9,2.4-1.7,3.8-2.3c1.5-0.6,3-0.9,4.7-0.9h49.6c1.7,0,3.2,0.3,4.7,0.9
		c1.5,0.6,2.8,1.3,3.9,2.3c1.1,0.9,2,2.1,2.6,3.4C-256.9,310.9-256.6,312.3-256.6,313.7z M-315.1,340.7v-25.6h6.1v-3.9h-16.4v3.8
		h5.3v25.7H-315.1z M-312.6,281.1l-6.8-14.9h5.9l3.4,11.1l3.4-11.1h5.9l-6.4,14.9v17.3h-5.4V281.1z M-296.6,318.9h-5.1v13.7
		c0,1,0,1.8,0,2.3c0,0.5,0,0.9-0.2,1c-0.2,0.6-0.6,1-1.3,1.3c-0.7,0.3-1.2-0.1-1.6-1.2c-0.1-0.1-0.1-0.5,0-1.1c0-0.6,0-1.3,0-2.2
		l-0.1-13.8h-5.1l0.1,13.6c0,1.1,0,2-0.1,2.7c0,0.7,0,1.3,0.1,1.6c0.1,0.6,0.1,1.2,0.2,1.9c0.1,0.7,0.4,1.2,1.1,1.6
		c0.6,0.4,1.3,0.6,2.1,0.6c0.8,0,1.6-0.1,2.3-0.4c0.8-0.3,1.5-0.6,2.1-1.1c0.6-0.5,1.1-1,1.4-1.5l-0.1,2.7l4.2,0.1V318.9z
		 M-301.3,283.4c0-2,0.2-3.7,0.6-5c0.5-1.4,1.2-2.3,2.2-2.9c1-0.7,2.3-1.1,3.8-1.1c1.4,0,2.5,0.2,3.4,0.7c0.9,0.4,1.7,1,2.3,1.9
		c0.4,0.7,0.8,1.4,1,2.3c0.2,0.9,0.3,2.2,0.3,3.7v5.8c0,2.1-0.1,3.6-0.3,4.5c-0.1,0.8-0.4,1.8-1.1,2.8c-0.7,0.9-1.4,1.5-2.1,1.8
		c-0.9,0.4-2,0.7-3.2,0.7c-1.2,0-2.3-0.2-3.3-0.6c-0.9-0.3-1.6-0.8-2-1.6c-0.4-0.6-0.8-1.4-1.1-2.5c-0.2-1-0.3-2.5-0.3-4.5
		C-301.3,289.4-301.3,283.4-301.3,283.4z M-296.7,292.4c0,0.6,0.2,1.1,0.7,1.6c0.4,0.5,1,0.7,1.6,0.7c0.6,0,1.1-0.2,1.6-0.7
		c0.5-0.4,0.7-1,0.7-1.6v-12c0-0.7-0.2-1.2-0.7-1.7c-0.5-0.5-1-0.7-1.6-0.7c-0.6,0-1.1,0.2-1.6,0.7c-0.5,0.5-0.7,1-0.7,1.7V292.4z
		 M-280.2,334.5v-11.3c0-2.2-0.8-3.7-2.3-4.6c-0.5-0.3-1.1-0.4-1.8-0.4c-1.2,0-2.6,0.6-4.2,1.7v-8.5h-5.1v29.3l4.2-0.1l0.3-1.8
		c1.4,1.1,2.6,1.8,3.7,2.1c1.1,0.3,2,0.2,2.8-0.3c0.8-0.5,1.3-1.2,1.8-2.3C-280.4,337-280.2,335.8-280.2,334.5z M-286.3,321.2
		c0.6,0,0.9,0.2,1.4,0.5c0.5,0.3,0.7,0.7,0.7,1.2v12.4c0,0.4-0.2,0.8-0.7,1.2c-0.5,0.3-0.8,0.5-1.4,0.5c-0.6,0-1.1-0.2-1.6-0.5
		c-0.5-0.3-0.7-0.7-0.7-1.2V323c0-0.4,0.2-0.8,0.7-1.2C-287.4,321.4-286.9,321.2-286.3,321.2z M-283.9,296.2
		c-0.1-0.3-0.2-0.6-0.3-0.9c0-0.3-0.1-0.6-0.2-0.9c-0.1-0.4-0.1-0.9-0.1-1.5v-2.4v-15.2h4.8v17.6c0,0.4,0.2,0.8,0.5,1.2
		c0.3,0.3,0.8,0.5,1.3,0.5c0.5,0,1-0.2,1.3-0.5c0.4-0.3,0.6-0.7,0.6-1.2v-17.6h4.4v22.6h-5.6l0.1-1.8c-0.5,0.7-1,1.3-1.5,1.7
		c-0.6,0.4-1.2,0.6-1.9,0.6c-0.8,0-1.5-0.2-2.1-0.6C-283.1,297.4-283.6,296.9-283.9,296.2z M-264.1,333h-3.8v0.5v1.9
		c0,0.6-0.2,1-0.6,1.4c-0.4,0.3-0.9,0.5-1.5,0.5h-0.8c-0.6,0-1.1-0.2-1.5-0.5c-0.4-0.3-0.6-0.8-0.6-1.4v-0.2v-2.2v-2.9h8.8v-3
		c0-1.1,0-2.2-0.1-3.3c0-1.1-0.1-1.9-0.3-2.5c-0.1-1-0.6-1.8-1.4-2.4c-0.8-0.6-1.6-1-2.6-1.2c-1-0.2-2-0.3-3.1-0.1
		c-1,0.1-2,0.5-2.7,1c-1,0.7-1.7,1.6-2.2,2.7c-0.4,1.1-0.7,2.7-0.7,4.8v6.8c0,2.9,0.8,4.9,2.3,6.1c1.4,1.1,2.9,1.7,4.4,1.7
		c0.2,0,0.3,0,0.5,0c1.7-0.1,3.3-0.8,4.6-2.2c1-1,1.5-2.3,1.5-3.9C-264,334.2-264,333.6-264.1,333z M-268.1,326.5h-4.9l0.1-2.7
		c0-0.6,0.2-1.1,0.7-1.5c0.4-0.4,1-0.6,1.6-0.6h0.2c0.7,0,1.2,0.2,1.7,0.6c0.5,0.4,0.7,0.9,0.7,1.5L-268.1,326.5z"/>
</g>
</svg>
