<?xml version="1.0" encoding="utf-8"?>
<!-- Generator: Adobe Illustrator 19.0.0, SVG Export Plug-In . SVG Version: 6.00 Build 0)  -->
<svg version="1.1" id="Layer_1" xmlns="http://www.w3.org/2000/svg" xmlns:xlink="http://www.w3.org/1999/xlink" x="0px" y="0px"
	 viewBox="-345 563 100 100" style="enable-background:new -345 563 100 100;" xml:space="preserve">
<style type="text/css">
	.st0{fill-rule:evenodd;clip-rule:evenodd;fill:#A01C1C;}
</style>
<g>
	<path class="st0" d="M-277.2,607.2c0-1.2,0.1-2.4,0.1-3.6c0-1.2,0.1-2.4,0.1-3.6c-0.8-0.2-1.7-0.4-2.5-0.5c0,1.2-0.1,2.4-0.1,3.6
		c0,1.2-0.1,2.4-0.1,3.6C-278.8,606.8-278,607-277.2,607.2L-277.2,607.2z M-273.4,609.3c-3.3-0.9-6.7-1.7-10-2.3
		c0-1.5,0.1-3.1,0.1-4.6c0-1.5,0.1-3.1,0.1-4.6c3.3,0.6,6.7,1.2,10,2.1c0,1.6-0.1,3.2-0.1,4.7C-273.3,606.1-273.4,607.7-273.4,609.3
		L-273.4,609.3z M-283.9,601.2c-1.3-0.2-2.5-0.3-3.8-0.4c0-0.8,0.1-1.7,0.1-2.5c-0.8-0.1-1.7-0.1-2.5-0.2c0,1.4-0.1,2.7-0.1,4.1
		c0,1.4-0.1,2.7-0.1,4.1c-1.3-0.1-2.5-0.1-3.8-0.1c0-1.5,0.1-3,0.1-4.6c0-1.5,0.1-3,0.1-4.6c3.3,0.1,6.7,0.4,10,0.8
		c0,0.6,0,1.2-0.1,1.8C-283.9,600-283.9,600.6-283.9,601.2L-283.9,601.2z M-295.6,606c-3.3,0.1-6.7,0.4-10,0.8
		c0-1.2,0.1-2.4,0.1-3.6c0-1.2,0.1-2.4,0.1-3.6c1.9-0.2,3.8-0.4,5.7-0.5c0,0.3,0,0.7,0,1c-0.6,0-1.3,0.1-1.9,0.1
		c0,0.9-0.1,1.7-0.1,2.6c0,0.9-0.1,1.7-0.1,2.6c0.8-0.1,1.7-0.1,2.5-0.2c0-1.2,0.1-2.4,0.1-3.6c0-1.2,0.1-2.4,0.1-3.6
		c-2.1,0.1-4.2,0.3-6.3,0.5c0-0.3,0-0.7,0-1c3.3-0.3,6.7-0.6,10-0.6c0,1.5-0.1,3.1-0.1,4.6C-295.5,603-295.5,604.5-295.6,606
		L-295.6,606z M-307.2,607c-3.3,0.6-6.7,1.4-10,2.3c0.1-2,0.1-3.9,0.2-5.9c0.1-2,0.1-3.9,0.2-5.9c1.3-0.3,2.5-0.6,3.8-0.9
		c-0.1,1.8-0.1,3.5-0.2,5.3c-0.1,1.8-0.1,3.5-0.2,5.3c0.8-0.2,1.7-0.4,2.5-0.6c0-1.2,0.1-2.4,0.1-3.7c0-1.2,0.1-2.4,0.1-3.7
		c-0.6,0.1-1.3,0.2-1.9,0.4c0-0.3,0-0.7,0-1.1c1.9-0.4,3.8-0.7,5.7-1c-0.1,1.6-0.1,3.1-0.1,4.7C-307.1,603.9-307.2,605.5-307.2,607
		L-307.2,607z M-314.4,594.9l-2.8-1.8l-3.8-8l0.1,0l13.5,8.2C-309.9,593.7-312.2,594.3-314.4,594.9L-314.4,594.9z M-276,594.9
		l2.7-1.7l3.8-8l-0.1,0l-13.5,8.1C-280.6,593.7-278.2,594.2-276,594.9L-276,594.9z M-319.7,598.5c10.9-7.3,38.2-7.3,49.1,0v13.2
		c-21-5.8-28.3-5.7-49.1,0V598.5L-319.7,598.5z M-270.6,612.7c-3.8-1.1-7.2-1.9-10.3-2.6v38.4l10.3-6.7V612.7L-270.6,612.7z
		 M-284.8,609.4c-7.4-1.3-13.3-1.3-20.7,0V651l10.3,6.7l10.3-6.7V609.4L-284.8,609.4z M-309.3,610.1c-3.1,0.7-6.5,1.5-10.3,2.6v29.1
		l10.3,6.7V610.1L-309.3,610.1z M-329.6,571.8l4.2,9.1l19.8,12.1c6.7-0.9,14.2-0.9,20.9,0c6.6-3.9,12.5-7.3,19.1-11.2
		c1.7-3.2,3.2-6.6,4.7-10l-28.3,15.2l-0.2-0.1l-3.4-7.8l0.7-1.6l-6.4-1.2l-2.3,1.2l-2.8,0l-1,0.4l-2.8,1.8l3.6,0.5l4.4,3.4l-0.9,1.7
		l-1,1.7h0L-329.6,571.8L-329.6,571.8z M-267.7,615.4l-0.1,27.9l-27.3,17.8l-27.3-17.8l-0.1-27.9l0,0V597l1.3-0.8
		c0.6-0.4,1.2-0.7,1.8-1.1l-4.7-10l-3.5-2.1l-8.1-17.6l24.8,13.3l5-3.3l1.7-0.7l2.6,0l2.6-1.3l10.9,2l-1.7,3.8l1.7,3.9l32.8-17.6
		l-3.2,7.5c-1.5,3.5-3,6.9-4.8,10.2l-0.4,0.7l-0.7,0.4c-0.9,0.5-1.7,1-2.6,1.5l-4.3,9.1c0.7,0.4,1.4,0.8,2.1,1.2l1.3,0.8V615.4
		L-267.7,615.4z"/>
</g>
</svg>
