<?xml version="1.0" encoding="utf-8"?>
<!-- Generator: Adobe Illustrator 16.0.0, SVG Export Plug-In . SVG Version: 6.00 Build 0)  -->
<!DOCTYPE svg PUBLIC "-//W3C//DTD SVG 1.1//EN" "http://www.w3.org/Graphics/SVG/1.1/DTD/svg11.dtd">
<svg version="1.1" id="Layer_1" xmlns="http://www.w3.org/2000/svg" xmlns:xlink="http://www.w3.org/1999/xlink" x="0px" y="0px"
	 width="100px" height="100px" viewBox="0 0 100 100" enable-background="new 0 0 100 100" xml:space="preserve">
<g>
	<g>
		<path fill="#90181A" d="M18.532,35.283c-0.723,0-1.301-0.577-1.301-1.3V12.238c0-0.723,0.578-1.301,1.301-1.301h3.576
			c4.226,0,6.104,2.311,6.104,6.972c0,3.359-1.553,5.201-1.553,5.201c0.938,1.156,1.553,2.999,1.553,5.202
			c0,4.66-1.878,6.972-6.104,6.972L18.532,35.283L18.532,35.283z M20.843,14.513v6.792h1.265c1.77,0,2.492-0.975,2.492-3.396
			c0-2.421-0.722-3.396-2.492-3.396H20.843z M20.843,24.88v6.827h1.265c1.77,0,2.492-0.975,2.492-3.395
			c0-2.456-0.722-3.432-2.492-3.432H20.843z"/>
		<path fill="#90181A" d="M40.024,10.937c0.723,0,1.299,0.579,1.299,1.301v0.975c0,0.722-0.576,1.3-1.299,1.3h-5.527v6.792h4.552
			c0.722,0,1.3,0.579,1.3,1.3v0.975c0,0.723-0.578,1.301-1.3,1.301h-4.552v6.827h5.527c0.723,0,1.299,0.578,1.299,1.3v0.977
			c0,0.723-0.576,1.3-1.299,1.3h-7.803c-0.723,0-1.301-0.577-1.301-1.3V12.238c0-0.723,0.578-1.301,1.301-1.301H40.024z"/>
		<path fill="#90181A" d="M50.859,28.637h-3.685l-1.264,5.635c-0.145,0.542-0.723,1.012-1.265,1.012h-1.048
			c-0.866,0-1.445-0.722-1.264-1.553l1.734-7.659l3.287-14.124c0.145-0.542,0.723-1.012,1.264-1.012h0.795
			c0.543,0,1.156,0.47,1.264,1.012l4.985,21.745c0.179,0.832-0.397,1.59-1.267,1.59H53.35c-0.541,0-1.119-0.47-1.265-1.012
			L50.859,28.637z M48.006,25.061h2.023c-0.398-1.733-0.326-2.709-1.012-5.78L48.006,25.061z"/>
		<path fill="#90181A" d="M56.206,17.98c0-2.745,0.795-4.551,1.95-5.635c1.191-1.083,2.638-1.409,4.009-1.409
			c1.338,0,2.782,0.326,3.976,1.409c1.154,1.084,1.914,2.89,1.914,5.635v0.505c0,0.723-0.578,1.303-1.265,1.303h-1.049
			c-0.722,0-1.3-0.58-1.3-1.303V17.98c0-2.419-0.795-3.468-2.276-3.468c-1.517,0-2.312,1.048-2.312,3.468v10.222
			c0,2.421,0.76,3.504,2.312,3.504c0.687,0,1.338-0.29,1.662-0.65c0.433-0.577,0.614-1.553,0.614-2.854v-0.504
			c0-0.723,0.578-1.301,1.3-1.301h1.049c0.687,0,1.265,0.578,1.265,1.301v0.504c0,2.854-0.76,4.516-1.879,5.637
			c-1.191,1.156-2.708,1.444-4.011,1.444c-1.371,0-2.854-0.288-4.045-1.444c-1.119-1.121-1.914-2.782-1.914-5.637V17.98z"/>
		<path fill="#90181A" d="M78.131,21.34v-9.103c0-0.723,0.578-1.301,1.303-1.301h1.01c0.724,0,1.302,0.579,1.302,1.301v21.745
			c0,0.723-0.578,1.3-1.302,1.3h-1.01c-0.725,0-1.303-0.577-1.303-1.3v-9.067h-4.01v9.067c0,0.723-0.577,1.3-1.301,1.3h-1.01
			c-0.724,0-1.302-0.577-1.302-1.3V12.238c0-0.723,0.578-1.301,1.302-1.301h1.01c0.724,0,1.301,0.579,1.301,1.301v9.103
			L78.131,21.34L78.131,21.34z"/>
	</g>
	<g>
		<path fill="#90181A" d="M16.942,44.499c0-2.745,0.794-4.552,1.951-5.635c1.192-1.084,2.636-1.41,4.009-1.41
			c1.336,0,2.781,0.325,3.973,1.41c1.156,1.083,1.916,2.89,1.916,5.635v0.506c0,0.723-0.579,1.3-1.265,1.3h-1.047
			c-0.722,0-1.3-0.577-1.3-1.3v-0.506c0-2.421-0.795-3.468-2.276-3.468c-1.517,0-2.312,1.047-2.312,3.468v10.226
			c0,2.42,0.759,3.504,2.312,3.504c0.687,0,1.336-0.291,1.662-0.651c0.433-0.577,0.614-1.554,0.614-2.853v-0.507
			c0-0.725,0.578-1.302,1.3-1.302h1.047c0.687,0,1.265,0.577,1.265,1.302v0.507c0,2.853-0.759,4.515-1.879,5.633
			c-1.192,1.156-2.709,1.447-4.009,1.447c-1.373,0-2.854-0.291-4.046-1.447c-1.12-1.118-1.914-2.78-1.914-5.633L16.942,44.499
			L16.942,44.499z"/>
		<path fill="#90181A" d="M41.289,60.503c0,0.722-0.579,1.302-1.301,1.302h-7.694c-0.723,0-1.301-0.58-1.301-1.302V38.755
			c0-0.723,0.579-1.301,1.301-1.301h1.047c0.686,0,1.264,0.578,1.264,1.301v19.472h5.382c0.722,0,1.301,0.578,1.301,1.301
			L41.289,60.503L41.289,60.503z"/>
		<path fill="#90181A" d="M43.094,38.719c0-0.723,0.578-1.3,1.265-1.3h1.011c0.722,0,1.3,0.578,1.3,1.3v16.438
			c0,1.915,0.578,3.034,2.347,3.034c1.842,0,2.348-1.301,2.348-3.034V38.719c0-0.723,0.578-1.3,1.264-1.3h1.014
			c0.721,0,1.299,0.578,1.299,1.3v16.438c0,4.045-1.732,6.61-5.923,6.61c-4.333,0-5.923-2.781-5.923-6.61L43.094,38.719
			L43.094,38.719z"/>
		<path fill="#90181A" d="M59.637,61.805c-0.722,0-1.3-0.58-1.3-1.302V38.755c0-0.723,0.578-1.301,1.3-1.301h3.576
			c4.225,0,6.104,2.313,6.104,6.972c0,3.359-1.553,5.201-1.553,5.201c0.938,1.155,1.553,2.998,1.553,5.204
			c0,4.658-1.879,6.972-6.104,6.972h-3.576V61.805z M61.949,41.031v6.79h1.264c1.771,0,2.494-0.974,2.494-3.395
			c0-2.42-0.725-3.396-2.494-3.396h-1.264V41.031z M61.949,51.398v6.828h1.264c1.771,0,2.494-0.976,2.494-3.396
			c0-2.457-0.725-3.435-2.494-3.435h-1.264V51.398z"/>
	</g>
	<g>
		<path fill="#C0262B" d="M63.639,71.039h-0.771v2.347h0.549c0.686,0,1.04-0.343,1.04-1.174
			C64.456,71.38,64.273,71.039,63.639,71.039z"/>
		<path fill="#C0262B" d="M37.094,72.652l-0.343,1.955h0.685C37.302,74.023,37.326,73.691,37.094,72.652z"/>
		<path fill="#C0262B" d="M86.396,4.002H12.329c-0.758,0-1.372,0.614-1.372,1.371v74.072c0,0.758,0.614,1.369,1.372,1.369h74.069
			c0.756,0,1.371-0.611,1.371-1.369V5.373C87.77,4.616,87.152,4.002,86.396,4.002z M85.025,6.746v59.406H13.701V6.746H85.025z
			 M27.459,77.716c-0.049,0.194-0.244,0.354-0.428,0.354h-0.269c-0.183,0-0.379-0.159-0.417-0.342l-0.416-2.752v2.653
			c0,0.244-0.208,0.438-0.44,0.438h-0.343c-0.245,0-0.439-0.194-0.439-0.438v-7.36c0-0.246,0.195-0.44,0.439-0.44h0.367
			c0.183,0,0.378,0.159,0.416,0.342l0.966,4.929l0.954-4.929c0.037-0.183,0.245-0.342,0.429-0.342h0.366
			c0.246,0,0.441,0.194,0.441,0.44v7.36c0,0.244-0.195,0.438-0.441,0.438h-0.342c-0.244,0-0.439-0.194-0.439-0.438v-2.631
			L27.459,77.716z M34.832,77.544l0.586-2.593l1.113-4.781c0.05-0.184,0.245-0.342,0.429-0.342h0.269
			c0.184,0,0.391,0.158,0.428,0.342l1.688,7.362c0.061,0.28-0.134,0.536-0.429,0.536h-0.354c-0.184,0-0.38-0.158-0.429-0.342
			l-0.415-1.908h-1.247l-0.429,1.908c-0.049,0.184-0.245,0.342-0.428,0.342H35.26C34.966,78.068,34.77,77.824,34.832,77.544z
			 M44.515,69.816h0.344c0.181,0,0.377,0.158,0.427,0.341l1.087,4.659l1.089-4.659c0.037-0.183,0.245-0.341,0.428-0.341h0.354
			c0.293,0,0.489,0.257,0.429,0.537l-1.736,7.361c-0.05,0.194-0.246,0.342-0.429,0.342h-0.257c-0.195,0-0.391-0.146-0.428-0.342
			l-1.737-7.361C44.013,70.073,44.209,69.816,44.515,69.816z M54.455,77.63v-7.36c0-0.246,0.193-0.44,0.439-0.44h0.342
			c0.231,0,0.439,0.194,0.439,0.44v7.36c0,0.244-0.208,0.438-0.439,0.438h-0.342C54.648,78.068,54.455,77.874,54.455,77.63z
			 M65.581,75.574v2.042c0,0.245-0.196,0.44-0.44,0.44h-0.343c-0.245,0-0.438-0.195-0.438-0.44v-2.042
			c0-0.61-0.344-0.953-0.942-0.953h-0.549v2.995c0,0.245-0.197,0.44-0.429,0.44h-0.344c-0.244,0-0.438-0.195-0.438-0.44v-7.361
			c0-0.243,0.194-0.438,0.438-0.438h1.543c1.502,0,2.027,0.759,2.027,2.396c0,0.76-0.135,1.37-0.514,1.749
			c-0.037,0.037-0.062,0.062-0.1,0.099C65.408,74.438,65.581,74.939,65.581,75.574z M71.596,77.63v-7.36
			c0-0.246,0.194-0.44,0.44-0.44h0.342c0.231,0,0.44,0.194,0.44,0.44v7.36c0,0.244-0.209,0.438-0.44,0.438h-0.342
			C71.79,78.068,71.596,77.874,71.596,77.63z"/>
	</g>
</g>
</svg>
