<?xml version="1.0" encoding="utf-8"?>
<!-- Generator: Adobe Illustrator 16.0.0, SVG Export Plug-In . SVG Version: 6.00 Build 0)  -->
<!DOCTYPE svg PUBLIC "-//W3C//DTD SVG 1.1//EN" "http://www.w3.org/Graphics/SVG/1.1/DTD/svg11.dtd">
<svg version="1.1" id="Layer_1" xmlns="http://www.w3.org/2000/svg" xmlns:xlink="http://www.w3.org/1999/xlink" x="0px" y="0px"
	 width="100px" height="100px" viewBox="0 0 100 100" enable-background="new 0 0 100 100" xml:space="preserve">
<g>
	<g>
		<g>
			<path fill="#A01C1C" d="M68.58,49.673c0.023-2.799-0.004-3.291,1.098-4.317c-3.785,0.622-4.119,1.788-6.289,1.947
				c1.085,0.212,1.229,1.024,1.15,2.39c0.503,5.301,0.596,9.925,0.453,14.049c-0.083,2.134-1.544,2.287-2.214,1.466
				c-0.83-1.135-0.734-3.485-0.353-4.289c-2.232,0.372-2.747,1.098-3.985,0.737c-0.15-0.045,0.266,0.648,0.304,0.881
				c0.572,3.38,0.105,0.603,0.458,2.519c0.529,5.979,5.332,5.072,7.553,3.378c1.655-1.325,1.987-2.263,1.987-4.314
				C68.874,59.655,68.502,54.12,68.58,49.673z"/>
			<path fill="#A01C1C" d="M98.601,54.976c-1.425,2.329-3.698,4.408-7.198,5.246c-1.462,0.531-2.832,0.807-2.755-0.555
				c-0.09-4.698,0.001-9.433,0.094-14.15c0.028-1.685,1.639-2.974,2.882-4.181c-1.991,0.151-3.91,0.771-5.882,1.161
				c-1.863,0.159-3.678,0.021-5.516,0.115c2.672,2.299,1.718,6.085,1.82,9.339c-0.064,3.353,0.026,6.674-0.129,10.043
				c-0.011,0.254-0.136,0.498-0.339,0.736c-1.767-4.97-2.703-12.577-3.915-17.149c-0.319-2.168-0.181-1.879,0.361-2.672
				c-3.448,0.454-3.313,1.417-6.679,2.079c1.027,2.269,0.179,5.605-0.133,8.4c-1.158,5.401-0.255,10.32-3.358,15.426
				c2.131-1.69,2.918-0.431,5.996-1.749c-0.543-1.14-1.406-1.819-1.126-3.486c1.372-0.789,2.762-1.271,4.149-1.811
				c-0.114,1.337-0.384,3.327-0.563,4.686c1.728-0.763,4.096-0.767,6.49-1.101c1.598-0.223,3.097-0.596,4.075-0.486
				c3.885,0.414,7.852-1.772,11.725-0.689C97.422,61.184,98.247,58.087,98.601,54.976z M73.349,60.233
				c0.485-2.552,0.96-5.1,1.604-7.661c0.308,2.225,0.769,4.352,1.194,6.487C75.212,59.452,74.278,59.844,73.349,60.233z"/>
			<path fill="#A01C1C" d="M36.115,76.006c0.171-2.396-0.698-4.283-2.258-5.348c2.148-2.298,2.762-5.078,1.992-7.358
				c-0.589-2.851-3.411-3.772-6.245-2.19c-2.437,1.354-3.956,2.006-6.409,2.368c0.507,0.98,1.068,1.633,0.996,2.984
				c-0.04,4.602,0.271,8.987,0.179,13.607c-0.001,0.157-0.027,0.304-0.066,0.445c-1.449-4.087-1.582-9.782-2.598-13.791
				c-0.473-1.396,0.219-1.652,0.61-3.271c-2.159,1.243-4.362,1.665-6.524,1.64c0.941,2.297-0.456,5.119-0.735,7.688
				C14,77.634,14.024,82.884,11.387,87.414c0,0.076,0,0.151-0.001,0.226c2.544-0.748,3.652-1.734,5.581-1.733
				c-0.497-1.156-0.778-1.765-0.523-3.285c1.254-0.518,2.525-0.779,3.792-1.129c-0.105,1.246-0.257,2.5-0.419,3.758
				c0.243-0.099,0.486-0.189,0.727-0.28c2.597-0.681,6.101-1.354,8.547-1.919c-1.502-2.251-0.691-5.854-0.838-8.862
				c0.865-0.143,1.946-0.627,2.523,0.002c1.374,1.85,0.578,4.654,0.258,8.105c1.817-0.071,4.673-1.838,6.598-2.319
				C36.941,78.794,35.935,77.776,36.115,76.006z M17.009,79.573c0.443-2.326,0.876-4.654,1.461-6.977
				c0.285,2.134,0.706,4.196,1.097,6.259C18.712,79.111,17.862,79.351,17.009,79.573z M31.519,69.044
				c-0.686,1.05-1.755,1.437-2.699,1.848c-0.014-2.005,0.022-4.032-0.005-6.037c0.848-0.506,1.808-0.99,2.538-0.617
				C32.571,65.049,32.642,67.294,31.519,69.044z"/>
			<path fill="#A01C1C" d="M44.161,74.13c0.812-5.068,2.167-10.961,3.092-16c0.258-1.724,1.186-3.403,1.902-5.066
				c-1.876,1.142-3.762,2.129-5.646,2.728c0.278,1.007,0.742,1.955,0.417,3.294c-0.558,3.295-1.094,6.596-1.654,9.906
				c-0.756-2.435-1.059-5.22-1.539-7.87c-0.292-1.407,0.145-3.107,0.554-4.726c-2.115,1.59-4.254,2.326-6.392,2.979
				c0.53,0.78,1.467,0.567,1.643,1.693c0.891,4.681,1.882,9.543,2.761,14.168c0.223,0.982-0.803,2.565-0.935,3.704
				c2.085-1.466,4.506-2.026,6.588-2.622C44.681,75.418,43.874,75.36,44.161,74.13z"/>
			<path fill="#A01C1C" d="M56.07,49.91c-2.871,0.277-3.938,2.193-6.244,2.643c1.001,2.181,0.032,5.005-0.271,7.731
				c-1.124,5.262-1.106,10.642-3.894,16.034c-0.016,0.028-0.028,0.05-0.028,0.058c2.076-1.693,3.497-1.482,6.496-2.844
				c-0.528-1.097-1.369-1.735-1.099-3.365c1.339-0.806,2.693-1.314,4.047-1.883c-0.111,1.305-0.277,2.63-0.449,3.958
				c2.188-1.208,3.584-1.372,5.742-1.934c-3.018-3.86-3.369-12.43-4.763-17.621C55.458,50.967,55.652,51.645,56.07,49.91z
				 M51.638,66.892c0.474-2.499,0.934-4.991,1.561-7.507c0.301,2.158,0.749,4.216,1.168,6.282
				C53.453,66.078,52.544,66.486,51.638,66.892z"/>
			<path fill="#A01C1C" d="M12.077,82.385c-1.226,1.29-2.081,1.48-3.78,2.031c-1.57,0.566-2.395-0.701-2.266-2.188
				c-0.038-1.696-0.044-2.604-0.098-4.281c0-1.67-0.074-3.497-0.091-5.181c-0.176-1.387,0.969-3.237,2.21-3.161
				c1.849,0.107,4.075,0.161,4.879,1.476c0.112-3.393,1.188-2.991,0.391-6.149c-2.859,1.825-5.902,0.557-8.775,1.964
				c-2.484,1.613-3.039,3.143-2.845,5.882c0.021,1.667,0.027,2.813,0.053,4.479c0.092,1.025,0.186,2.051,0.279,3.074
				c-0.03,9.948,3.267,7.474,8.144,7.154C11.104,84.568,12.178,84.911,12.077,82.385z"/>
			<path fill="#A01C1C" d="M64.575,45.501c0,0.053,0.002,0.106,0.002,0.16c2.054-1.022,4.612-2.053,6.668-2.021
				c-0.551-0.826-1.61-0.77-1.363-1.847c1.327-0.375,2.678-0.513,4.026-0.656c-0.091,0.87-0.195,1.007-0.348,1.885
				c2.176-0.418,1.175-1.348,5.899-1.117c-3.238-2.279-2.769-6.058-4.254-9.899c-0.528-1.042-0.389-3.121,0-4.218
				c-3.581,1.314-4.418,0.75-6.723,0.767c1.043,1.612,0.005,4.479-0.253,6.312C67.192,38.361,67.309,42.019,64.575,45.501z
				 M72.143,34.729c0.34,1.521,0.825,2.999,1.278,4.482c-0.908,0.125-1.811,0.261-2.714,0.413
				C71.137,37.984,71.559,36.347,72.143,34.729z"/>
			<path fill="#A01C1C" d="M40.671,55.011c1.548-0.826,3.84-2.052,5.389-2.355c1.949-0.379,4.091-1.894,6.038-2.729
				c1.165-0.314,3.182-1.498,4.308-1.629c-1.564-2.215-2.59-3.592-2.525-6.188c-1.237,1.565-1.941,3.374-3.285,4.917
				c-1.015,1.192-2.368,1.497-3.556,1.807c-0.199-1.667-0.163-3.44-0.106-5.211c1.443-0.301,2.743-0.166,4.037-0.044
				c-0.396-1.641-0.375-3.481,0-5.417c-1.243,1.183-2.55,2.359-4.046,3.014c-0.042-1.674-0.078-3.36,0.087-5.113
				c1.021-0.52,2.117-1.227,3.104-1.161c1.806,0.075,2.665,1.532,3.924,2.378c-0.187-2.245-1.017-4.14-0.567-6.571
				c-1.711,0.783-2.267,1.011-3.978,1.385c-2.738,0.644-5.442,2.753-8.17,3.21C42.887,40.898,42.691,48.029,40.671,55.011z"/>
			<path fill="#A01C1C" d="M26.8,39.481c0.331,0.759,0.875,1.397,0.91,2.345c0.096,5.021-0.087,10.154,0.07,15.148
				c0.486,3.178,5.034,2.816,8.014,1.235c2.601-1.191,4.614-3.534,4.714-6.487c0.08-4.474,0-8.882,0.025-13.336
				c-0.07-1.443,0.794-3.051,1.337-4.561c-2.147,1.113-4.302,2.106-6.447,2.664c1.618,1.953,0.995,5.308,1.096,8.164
				c-0.031,2.604,0.064,5.156-0.037,7.784c0.062,2.245-4.074,3.986-3.85,1.515c-0.042-4.111-0.003-8.253-0.013-12.375
				c-0.072-1.409,0.541-2.945,1.18-4.413C31.474,38.511,29.106,39.183,26.8,39.481z"/>
			<path fill="#A01C1C" d="M57.655,45.227c0.264,0.781-0.409,1.77-0.548,2.674c2.366-1.167,4.924-1.899,7.297-2.181
				c-0.318-0.739-0.977-1.076-0.656-2.029c0.88-3.949,1.522-8.297,2.532-12.188c0.279-1.338,0.771-1.877,1.574-3.088
				c-2.133,0.619-3.637,0.63-5.783,0.971c0.327,0.819,1.171,1.918,0.809,2.957c-0.604,2.577-1.188,5.167-1.8,7.77
				c-0.884-1.972-1.254-4.197-1.827-6.32c-0.346-1.127,0.113-3.019,0.566-4.289c-2.4,1.185-3.739,0.595-6.175,1.191
				c0.61,0.599,1.428,2.063,1.638,2.954C56.34,37.342,56.611,41.542,57.655,45.227z"/>
			<path fill="#A01C1C" d="M10.534,51.285c0.002,0,0.002,0,0.003,0c0.053,1.909,0.109,3.818,0.167,5.724
				c-0.118,3.355,2.28,5.671,5.852,6.096c4.114,0.074,7.374-1.771,11.642-2.522c-1.894-1.995-1.414-1.912-1.584-4.924
				c-1.055,1.956-2.099,1.907-4.502,2.57c-2.222,0.688-5.382,0.007-5.213-1.784c-0.071-2.039-0.183-4.058-0.276-6.077
				c-0.017-2.009-0.017-4.025-0.059-6.051c-0.266-1.672,3.283-3.915,5.044-3.812c2.621,0.144,3.285,0.449,4.44,2.036
				c0.12-4.667-0.576-3.746,0.842-7.516c-4.036,2.131-6.219,0.539-10.28,2.182c-3.504,1.889-6.527,4.724-6.226,8.04
				C10.432,47.259,10.481,49.273,10.534,51.285z"/>
		</g>
		<g>
			<path fill="#A01C1C" d="M93.011,41.665c-0.611,0.09-1.121,0.528-1.21,1.148c-0.111,0.787,0.402,1.364,0.885,1.552
				c0.885,0.348,1.704-0.254,1.916-0.774c0.07-0.164,0.106-0.322,0.12-0.473c0-0.077,0-0.152,0-0.227
				C94.649,42.075,93.813,41.546,93.011,41.665z M94.397,43.274c-0.081,0.462-0.572,0.835-0.916,0.892
				c-0.872,0.144-1.52-0.576-1.386-1.353c0.072-0.43,0.453-0.777,0.915-0.861C93.811,41.807,94.547,42.404,94.397,43.274z"/>
			<path fill="#A01C1C" d="M93.512,43.044c0.273-0.012,0.327-0.408,0.205-0.633c-0.22-0.184-0.684-0.139-1.09-0.141
				c-0.067,0.431-0.011,0.985-0.031,1.464c0.085,0.046,0.331,0.046,0.415,0c0.019-0.172-0.039-0.42,0.029-0.545
				c0.396-0.025,0.364,0.373,0.53,0.575c0.129,0,0.255,0,0.383,0C93.856,43.475,93.74,43.205,93.512,43.044z M93.394,42.843
				c-0.074,0.083-0.211,0.099-0.383,0.086c0-0.123,0-0.25,0-0.373c0.168-0.011,0.322-0.008,0.383,0.086
				C93.394,42.709,93.394,42.777,93.394,42.843z"/>
		</g>
		<g>
			<path fill="#A01C1C" d="M54.685,77.28c0.174,0.086,0.312,0.217,0.419,0.392c0.104,0.175,0.157,0.377,0.158,0.606
				c0,0.174-0.035,0.341-0.103,0.499c-0.067,0.157-0.158,0.298-0.272,0.422c-0.114,0.122-0.249,0.222-0.405,0.296
				c-0.153,0.072-0.318,0.114-0.493,0.119c-0.565,0.02-1.131,0.028-1.694,0.028c0-1.451,0-2.904,0-4.356
				c0.555,0,1.11-0.009,1.664-0.027c0.159-0.006,0.31,0.02,0.452,0.073c0.142,0.056,0.267,0.136,0.375,0.235
				c0.106,0.104,0.191,0.224,0.252,0.362c0.062,0.14,0.093,0.292,0.093,0.453c0,0.1-0.014,0.191-0.039,0.278
				c-0.025,0.088-0.059,0.166-0.101,0.241c-0.042,0.074-0.091,0.143-0.143,0.206C54.794,77.173,54.738,77.23,54.685,77.28z
				 M52.931,77.084c0.307-0.006,0.614-0.012,0.921-0.021c0.088-0.003,0.168-0.021,0.244-0.057c0.074-0.034,0.141-0.081,0.196-0.14
				c0.055-0.06,0.1-0.128,0.131-0.205c0.03-0.076,0.047-0.157,0.047-0.239c0-0.179-0.06-0.324-0.178-0.438
				c-0.12-0.114-0.266-0.168-0.44-0.164c-0.307,0.011-0.614,0.019-0.921,0.022C52.931,76.255,52.931,76.669,52.931,77.084z
				 M53.882,79.059c0.1-0.004,0.192-0.025,0.278-0.068c0.089-0.043,0.164-0.1,0.229-0.167c0.064-0.068,0.117-0.146,0.154-0.235
				c0.038-0.089,0.056-0.181,0.056-0.277c0.002-0.097-0.018-0.19-0.056-0.275c-0.037-0.086-0.09-0.159-0.154-0.222
				c-0.065-0.063-0.141-0.112-0.229-0.146c-0.086-0.035-0.179-0.052-0.278-0.047c-0.316,0.009-0.634,0.016-0.951,0.02
				c0,0.48,0,0.961,0,1.438C53.248,79.075,53.565,79.068,53.882,79.059z"/>
			<path fill="#A01C1C" d="M62.167,75.796c-0.055,0.188-0.137,0.361-0.246,0.521c-0.108,0.159-0.243,0.301-0.4,0.425
				c-0.009,0.01-0.018,0.017-0.028,0.021c-0.014,0.006-0.023,0.015-0.032,0.022c0.257,0.465,0.511,0.929,0.768,1.39
				c-0.223,0.036-0.447,0.072-0.671,0.106c-0.225-0.403-0.449-0.809-0.673-1.213c-0.048,0.015-0.096,0.028-0.144,0.039
				c-0.046,0.009-0.099,0.019-0.153,0.026c-0.26,0.038-0.519,0.071-0.778,0.106c0,0.431,0,0.861,0,1.29
				c-0.212,0.028-0.424,0.055-0.637,0.081c0-1.456,0-2.914,0-4.37c0.472-0.058,0.942-0.119,1.415-0.187
				c0.179-0.024,0.347-0.025,0.502-0.003c0.158,0.021,0.301,0.062,0.432,0.121c0.321,0.152,0.538,0.401,0.646,0.748
				c0.006,0.019,0.009,0.035,0.013,0.053c0.005,0.015,0.011,0.031,0.019,0.051c0,0.01,0,0.019,0,0.028
				c0.008,0.018,0.012,0.04,0.015,0.063c0.002,0.022,0.004,0.047,0.009,0.069c0,0.002,0,0.005,0,0.006
				c0.004,0.024,0.006,0.047,0.006,0.07c0,0.025,0,0.05,0,0.079c0,0.001,0,0.002,0,0.005c0,0.004,0,0.007,0,0.011
				c0,0.024,0,0.049,0,0.071c-0.001,0.024-0.002,0.049-0.006,0.073c0,0.004,0,0.008,0,0.011c-0.005,0.025-0.007,0.048-0.009,0.071
				c-0.003,0.021-0.007,0.044-0.015,0.071c0,0.007,0,0.015,0,0.022C62.184,75.724,62.172,75.763,62.167,75.796z M60.663,76.566
				c0.131-0.02,0.252-0.065,0.36-0.137c0.11-0.071,0.203-0.158,0.283-0.262c0.079-0.104,0.144-0.218,0.19-0.343
				c0.046-0.124,0.071-0.251,0.071-0.377c0-0.124-0.025-0.242-0.071-0.353c-0.047-0.112-0.111-0.209-0.19-0.285
				c-0.08-0.077-0.173-0.136-0.283-0.177c-0.108-0.038-0.229-0.049-0.36-0.029c-0.282,0.039-0.566,0.078-0.849,0.115
				c0,0.654,0,1.31,0,1.963C60.097,76.646,60.381,76.606,60.663,76.566z"/>
			<path fill="#A01C1C" d="M66.769,76.094c0.646-0.134,1.293-0.273,1.938-0.414c0,0.207,0,0.417,0,0.624
				c-0.857,0.189-1.712,0.371-2.568,0.545c0-1.448,0-2.896,0-4.342c0.843-0.17,1.685-0.349,2.526-0.534c0,0.205,0,0.409,0,0.613
				c-0.632,0.139-1.265,0.274-1.896,0.405c0,0.229,0,0.458,0,0.687c0,0.118,0,0.237,0,0.356c0,0.144,0,0.288,0,0.432
				c0.569-0.117,1.137-0.239,1.706-0.363c0,0.198,0,0.396,0,0.594c-0.569,0.125-1.137,0.246-1.706,0.364
				C66.769,75.404,66.769,75.749,66.769,76.094z"/>
			<path fill="#A01C1C" d="M77.268,69.938c0.219-0.054,0.439-0.105,0.66-0.157c-0.592,1.599-1.182,3.199-1.773,4.798
				c-0.291-0.658-0.585-1.317-0.878-1.974c-0.296,0.8-0.591,1.6-0.887,2.398c-0.591-1.315-1.182-2.633-1.771-3.951
				c0.22-0.051,0.439-0.104,0.659-0.157c0.37,0.824,0.741,1.646,1.111,2.469c0.185-0.498,0.368-0.996,0.554-1.495
				c-0.186-0.413-0.369-0.826-0.554-1.24c0.218-0.051,0.436-0.103,0.654-0.156c0.077,0.167,0.154,0.335,0.232,0.503
				c0.108,0.245,0.218,0.491,0.325,0.736c0.186,0.409,0.369,0.817,0.553,1.227C76.526,71.938,76.897,70.938,77.268,69.938z"/>
			<path fill="#A01C1C" d="M84.889,69.613c0.004,0.022,0.007,0.047,0.008,0.07c0.002,0.022,0.003,0.048,0.004,0.075
				c0,0.003,0,0.004,0,0.005c0,0.003,0,0.005,0,0.007c0,0.028-0.001,0.054-0.004,0.078c-0.001,0.024-0.004,0.05-0.008,0.074
				c0,0.001,0,0.003,0,0.005c-0.007,0.049-0.013,0.099-0.018,0.146c-0.006,0.006-0.008,0.015-0.008,0.025
				c-0.004,0.021-0.008,0.039-0.011,0.057c-0.004,0.017-0.01,0.035-0.018,0.058c-0.056,0.194-0.138,0.37-0.248,0.537
				c-0.108,0.164-0.24,0.312-0.394,0.442c-0.131,0.106-0.277,0.199-0.435,0.278c-0.159,0.08-0.326,0.138-0.505,0.176
				c-0.26,0.055-0.521,0.111-0.78,0.168c0,0.431,0,0.86,0,1.29c-0.21,0.047-0.423,0.093-0.635,0.14c0-1.456,0-2.912,0-4.368
				c0.472-0.106,0.943-0.209,1.415-0.31c0.355-0.075,0.67-0.057,0.939,0.06c0.153,0.065,0.285,0.161,0.394,0.281
				c0.11,0.121,0.192,0.265,0.248,0.432c0.015,0.039,0.024,0.075,0.028,0.106c0,0.011,0.004,0.02,0.008,0.022
				c0.004,0.023,0.007,0.046,0.008,0.07c0.003,0.022,0.006,0.043,0.01,0.062C84.889,69.605,84.889,69.609,84.889,69.613z
				 M83.331,71.07c0.13-0.027,0.251-0.079,0.36-0.159c0.107-0.077,0.203-0.171,0.284-0.279s0.145-0.225,0.189-0.352
				c0.047-0.126,0.068-0.253,0.068-0.379c0-0.127-0.021-0.244-0.068-0.353c-0.045-0.107-0.108-0.198-0.189-0.272
				c-0.081-0.073-0.177-0.128-0.284-0.159c-0.11-0.034-0.23-0.036-0.36-0.009c-0.284,0.061-0.566,0.123-0.851,0.185
				c0,0.652,0,1.308,0,1.962C82.765,71.192,83.047,71.131,83.331,71.07z"/>
			<path fill="#A01C1C" d="M91.124,67.183c0.207-0.027,0.415-0.054,0.624-0.08c0,0.971,0,1.943,0,2.913
				c0,0.203-0.039,0.396-0.117,0.579c-0.076,0.185-0.183,0.349-0.317,0.495c-0.135,0.146-0.292,0.269-0.469,0.366
				c-0.179,0.102-0.372,0.164-0.577,0.195c-0.202,0.027-0.391,0.018-0.568-0.032c-0.176-0.049-0.331-0.127-0.463-0.235
				c-0.133-0.106-0.236-0.243-0.312-0.403c-0.074-0.164-0.112-0.346-0.112-0.548c0-0.971,0-1.942,0-2.912
				c0.207-0.034,0.416-0.067,0.624-0.099c0,0.97,0,1.942,0,2.914c0,0.113,0.021,0.218,0.066,0.313
				c0.042,0.094,0.101,0.174,0.177,0.239c0.076,0.066,0.165,0.114,0.269,0.143s0.21,0.033,0.327,0.019
				c0.118-0.018,0.229-0.055,0.331-0.112c0.104-0.059,0.193-0.131,0.271-0.219c0.076-0.089,0.139-0.185,0.182-0.292
				c0.043-0.105,0.064-0.218,0.065-0.332C91.124,69.124,91.124,68.153,91.124,67.183z"/>
			<path fill="#A01C1C" d="M98.049,68.715c0.175,0.093,0.314,0.229,0.418,0.41c0.106,0.179,0.159,0.385,0.159,0.614
				c0,0.175-0.035,0.338-0.103,0.493c-0.065,0.154-0.157,0.291-0.271,0.409c-0.116,0.116-0.251,0.212-0.406,0.28
				c-0.153,0.07-0.319,0.107-0.492,0.112c-0.566,0.015-1.131,0.037-1.694,0.071c0-1.452,0-2.906,0-4.357
				c0.555-0.033,1.108-0.057,1.664-0.07c0.159-0.004,0.309,0.023,0.451,0.082c0.143,0.058,0.268,0.141,0.375,0.248
				c0.107,0.105,0.191,0.229,0.253,0.372c0.062,0.142,0.092,0.295,0.092,0.459c0,0.097-0.012,0.189-0.039,0.274
				c-0.026,0.086-0.06,0.164-0.101,0.236c-0.042,0.071-0.089,0.139-0.144,0.199C98.159,68.611,98.104,68.666,98.049,68.715z
				 M96.295,68.516c0.308-0.014,0.614-0.025,0.921-0.034c0.089-0.002,0.17-0.021,0.245-0.054c0.074-0.034,0.14-0.079,0.195-0.139
				c0.055-0.058,0.099-0.125,0.132-0.2c0.03-0.078,0.047-0.156,0.047-0.239c0-0.178-0.061-0.326-0.179-0.442
				c-0.119-0.116-0.266-0.173-0.44-0.169c-0.307,0.01-0.613,0.021-0.921,0.034C96.295,67.688,96.295,68.103,96.295,68.516z
				 M97.247,70.479c0.098-0.003,0.19-0.025,0.278-0.066c0.087-0.043,0.164-0.097,0.229-0.162c0.065-0.067,0.116-0.145,0.154-0.233
				c0.038-0.087,0.056-0.178,0.056-0.272c0-0.1-0.019-0.192-0.056-0.279c-0.038-0.087-0.089-0.161-0.154-0.226
				s-0.143-0.114-0.229-0.149c-0.086-0.036-0.182-0.054-0.278-0.05c-0.318,0.008-0.634,0.021-0.952,0.034c0,0.479,0,0.96,0,1.438
				C96.613,70.498,96.929,70.486,97.247,70.479z"/>
		</g>
	</g>
	<g>
		<path fill="#A01C1C" d="M42.185,20.342c0.43-0.344,0.875-0.656,1.303-1c0.275,0.096,0.55,0.192,0.824,0.289
			c0.411-0.314,0.815-0.641,1.229-0.95c-0.272-0.101-0.548-0.194-0.826-0.278c0.435-0.347,0.882-0.668,1.316-1.013
			c0.268,0.1,0.535,0.203,0.802,0.308c0.435-0.335,0.87-0.669,1.305-1c-0.345-0.268-0.694-0.527-1.043-0.789
			c-0.269,0.096-0.535,0.196-0.802,0.302c-0.434-0.337-0.87-0.674-1.307-1.007c0.269-0.101,0.541-0.196,0.814-0.285
			c-0.405-0.315-0.82-0.615-1.224-0.935c-0.28,0.084-0.559,0.182-0.837,0.283c-0.438-0.331-0.867-0.687-1.314-0.999
			c0.281-0.094,0.565-0.183,0.85-0.266c-0.393-0.307-0.785-0.61-1.18-0.905v8.759c0,0-0.011,0.179-0.006,0.468
			c0.31-0.24,0.621-0.479,0.931-0.718C42.743,20.514,42.464,20.427,42.185,20.342z"/>
		<path fill="#A01C1C" d="M56.16,19.631c0.276-0.096,0.549-0.193,0.824-0.289c0.423,0.338,0.86,0.652,1.285,0.99v-8.154
			c-0.361,0.272-0.721,0.551-1.076,0.832c0.281,0.083,0.565,0.165,0.847,0.253c-0.442,0.323-0.873,0.673-1.311,1.005
			c-0.278-0.104-0.56-0.201-0.842-0.282c-0.402,0.319-0.815,0.613-1.218,0.932c0.275,0.093,0.55,0.192,0.823,0.296
			c-0.446,0.316-0.878,0.664-1.318,0.998c-0.265-0.107-0.533-0.209-0.802-0.302c-0.349,0.264-0.697,0.523-1.043,0.789
			c0.44,0.328,0.875,0.664,1.311,0.998c0.267-0.104,0.531-0.207,0.801-0.309c0.435,0.347,0.881,0.667,1.315,1.015
			c-0.278,0.084-0.553,0.178-0.826,0.278C55.344,18.991,55.751,19.315,56.16,19.631z"/>
		<path fill="#A01C1C" d="M56.074,22.733c0.06,0.35,0.122,0.7,0.185,1.051c-0.43-0.329-0.859-0.653-1.29-0.98
			c-0.07-0.362-0.145-0.72-0.221-1.08c-0.41-0.311-0.816-0.627-1.229-0.934c0.067,0.357,0.136,0.711,0.203,1.066
			c-0.444-0.333-0.883-0.675-1.328-1.006c-0.074-0.359-0.146-0.719-0.22-1.078c-0.644-0.497-1.289-0.995-1.941-1.476
			c-0.654,0.479-1.301,0.976-1.946,1.476c-0.074,0.358-0.146,0.715-0.217,1.075c-0.445,0.334-0.887,0.674-1.331,1.012
			c0.066-0.357,0.135-0.711,0.203-1.068c-0.415,0.306-0.823,0.624-1.231,0.941c-0.075,0.358-0.148,0.716-0.219,1.076
			c-0.431,0.324-0.859,0.648-1.286,0.978c0.06-0.35,0.123-0.701,0.184-1.051c-0.41,0.299-0.809,0.615-1.213,0.926
			c-0.072,0.324-0.141,0.65-0.209,0.975c0.337,0.505,0.801,0.935,1.439,1.18c0,0,0.859,0.419,1.983,0.507
			c0,0,2.954,0.624,3.792,1.572c0.835-0.948,3.789-1.572,3.789-1.572c1.125-0.088,1.984-0.507,1.984-0.507
			c0.688-0.265,1.172-0.741,1.514-1.296c-0.061-0.287-0.121-0.574-0.186-0.859C56.882,23.349,56.48,23.031,56.074,22.733z"/>
		<path fill="#A01C1C" d="M43.458,9.917c0.407,0.303,0.812,0.613,1.213,0.93c-0.062-0.35-0.125-0.699-0.186-1.049
			c0.428,0.319,0.862,0.626,1.281,0.965c0.073,0.368,0.146,0.736,0.23,1.1c0.412,0.3,0.819,0.61,1.223,0.927
			c-0.067-0.356-0.136-0.711-0.207-1.066c0.444,0.342,0.9,0.662,1.333,1.027c0.068,0.357,0.142,0.714,0.215,1.07
			c0.561,0.415,1.117,0.841,1.672,1.269c0.562-0.421,1.116-0.855,1.68-1.269c0.076-0.348,0.131-0.704,0.221-1.049
			c0.407-0.41,0.889-0.69,1.326-1.048c-0.068,0.354-0.138,0.71-0.206,1.066c0.395-0.323,0.812-0.601,1.204-0.929
			c0.132-0.342,0.16-0.735,0.252-1.099c0.417-0.339,0.852-0.648,1.278-0.965c-0.063,0.351-0.125,0.7-0.185,1.049
			c0.399-0.319,0.806-0.625,1.213-0.93c0.077-0.363,0.154-0.725,0.23-1.087c0.339-0.267,0.681-0.526,1.023-0.783v-0.06h-7.8h-0.574
			h-7.773c0.369,0.276,0.737,0.556,1.102,0.843C43.302,9.192,43.378,9.554,43.458,9.917z"/>
		<path fill="#A01C1C" d="M58.27,20.856v-0.51c-0.272,0.082-0.547,0.169-0.819,0.26c0.275,0.213,0.552,0.426,0.826,0.639
			C58.279,21.003,58.27,20.856,58.27,20.856z"/>
	</g>
</g>
</svg>
