<?xml version="1.0" encoding="utf-8"?>
<!-- Generator: Adobe Illustrator 16.0.0, SVG Export Plug-In . SVG Version: 6.00 Build 0)  -->
<!DOCTYPE svg PUBLIC "-//W3C//DTD SVG 1.1//EN" "http://www.w3.org/Graphics/SVG/1.1/DTD/svg11.dtd">
<svg version="1.1" id="Layer_1" xmlns="http://www.w3.org/2000/svg" xmlns:xlink="http://www.w3.org/1999/xlink" x="0px" y="0px"
	 width="100px" height="100px" viewBox="0 0 100 100" enable-background="new 0 0 100 100" xml:space="preserve">
<g>
	<path fill-rule="evenodd" clip-rule="evenodd" fill="#A01C1C" d="M34.151,40.418c2.945,1.037,5.966,2.1,8.988,3.164
		c1.582,0.557,3.157,1.134,4.75,1.658c0.378,0.125,0.836,0.177,1.221,0.093c6.139-1.339,12.271-2.709,18.408-4.059
		c0.429-0.094,0.532-0.284,0.602-0.716c0.158-0.995,0.356-2.001,0.707-2.941c0.307-0.826,1.013-1.302,1.957-1.249
		c0.613,0.034,1.231,0.063,1.834,0.165c0.692,0.116,1.079,0.591,1.122,1.282c0.037,0.57,0.006,1.145-0.018,1.716
		c-0.026,0.677,0.186,0.936,0.867,0.958c0.912,0.03,1.83-0.026,2.562,0.703c0.749,0.744,1.257,1.607,1.426,2.645
		c0.339,2.091-1.449,4.672-3.545,5.064c-0.422,0.079-0.974,0.011-1.328-0.21c-0.843-0.523-1.613-1.168-2.397-1.783
		c-0.719-0.563-1.402-1.174-2.136-1.716c-0.207-0.153-0.561-0.237-0.811-0.183c-4.252,0.924-8.498,1.875-12.884,2.852
		c0.237,0.116,0.365,0.196,0.503,0.245c3.041,1.076,6.086,2.145,9.124,3.229c0.318,0.113,0.479,0.025,0.758-0.171
		c0.557-0.395,1.195-0.828,1.842-0.909c1.299-0.164,2.626-0.143,3.94-0.118c0.812,0.015,1.498,0.421,2.085,0.988
		c0.665,0.643,0.714,0.773,0.296,1.592c-0.309,0.604-0.671,1.18-1.019,1.782c0.167,0.287,0.299,0.614,0.517,0.867
		c0.544,0.634,0.393,1.15-0.075,1.774c-1.19,1.591-1.166,1.627-3.112,1.231c-1.061-0.215-2.117-0.463-3.154-0.765
		c-0.3-0.087-0.673-0.364-0.766-0.638c-0.556-1.623-1.678-2.405-3.312-2.917c-4.516-1.41-8.968-3.022-13.456-4.524
		c-0.414-0.139-0.92-0.158-1.348-0.066c-4.463,0.96-8.917,1.956-13.375,2.942c-0.142,0.032-0.278,0.09-0.452,0.147
		c0.24,1.857-0.137,3.569-1.213,5.089c-1.31,1.852-3.043,2.882-5.39,2.555c-1.901-0.266-2.862-1.547-2.459-3.437
		c0.185-0.873,0.614-1.702,1.002-2.519c0.179-0.377,0.204-0.562-0.217-0.719c-1.42-0.532-2.031-1.696-2.24-3.083
		c-0.228-1.514,0.781-2.68,2.444-2.625c1.229,0.041,2.507,0.282,3.652,0.724c1.339,0.516,2.566,0.533,3.932,0.184
		c2.568-0.655,5.173-1.168,7.799-1.888c-2.926-1.001-5.853-2.003-8.623-2.951c-0.858,0.645-1.621,1.226-2.395,1.793
		c-0.131,0.096-0.303,0.17-0.463,0.19c-1.761,0.221-4.354-1.169-5.214-2.783c-0.432-0.811-0.293-1.174,0.592-1.476
		c0.476-0.162,0.963-0.292,1.633-0.492c-0.374-0.281-0.601-0.45-0.825-0.622c-1.45-1.11-1.799-2.381-1.123-4.084
		c0.614-1.548,2.368-2.782,4.033-2.772c0.376,0.002,0.811,0.125,1.115,0.338c1.644,1.155,2.767,2.762,3.601,4.546
		C34.347,39.013,34.151,39.705,34.151,40.418z M69.231,42.034c-1.093,0.242-2.128,0.471-3.163,0.701
		c-11.418,2.538-22.837,5.073-34.252,7.625c-0.412,0.092-0.716,0.035-1.066-0.177c-1.236-0.75-2.539-1.288-4.036-1.118
		c-0.969,0.111-1.506,0.549-1.558,1.294c-0.067,0.98,0.442,1.811,1.39,1.897c0.751,0.069,1.545-0.104,2.29-0.288
		c0.411-0.102,0.719-0.148,0.921,0.238c0.245,0.469-0.177,0.554-0.469,0.712c-1.157,0.622-2.12,1.428-2.471,2.766
		c-0.549,2.085,0.805,3.648,2.792,3.152c1.955-0.487,3.391-1.718,3.868-3.673c0.28-1.146,0.051-2.417,0.051-3.685
		c0.076-0.021,0.235-0.075,0.396-0.11c3.07-0.665,6.142-1.326,9.212-1.99c8.34-1.803,16.681-3.604,25.018-5.417
		c0.391-0.084,0.669,0.001,0.982,0.241c1.197,0.917,2.385,1.854,3.642,2.685c1.562,1.033,4.038-0.047,4.46-1.885
		c0.316-1.375-0.601-3.089-1.92-3.589c-1.346-0.51-2.089-0.129-2.414,1.262c-0.119-0.05-0.237-0.092-0.349-0.149
		c-0.758-0.393-0.806-0.503-0.357-1.225c0.438-0.703,0.528-1.468,0.516-2.264c-0.016-0.901-0.502-1.622-1.187-1.759
		c-0.888-0.178-1.536,0.209-1.912,1.175C69.177,39.581,69.078,40.756,69.231,42.034z M46.712,45.849
		c-0.37-0.138-0.586-0.223-0.806-0.299c-3.99-1.383-7.98-2.766-11.971-4.148C32.99,41.073,32.933,41.07,33,40.049
		c0.126-1.934-0.754-3.373-2.192-4.492c-1.575-1.227-3.464-0.747-4.416,0.997c-0.44,0.808-0.416,1.56,0.033,2.351
		c0.425,0.749,0.904,1.277,1.893,1.107c0.483-0.083,1.121-0.055,1.231,0.606c0.116,0.694-0.546,0.756-0.996,0.943
		c-0.664,0.276-1.368,0.472-1.997,0.808c-0.599,0.32-0.624,0.777-0.045,1.125c0.793,0.478,1.656,0.843,2.498,1.237
		c0.989,0.463,1.775,0.118,2.411-0.676c0.421-0.526,0.807-1.08,1.226-1.644c3.351,1.175,6.726,2.268,10.021,3.559
		C44.057,46.516,45.258,46.211,46.712,45.849z M69.808,54.07c0.052-0.05,0.105-0.146,0.171-0.156
		c0.555-0.079,1.109-0.177,1.666-0.201c0.533-0.022,0.882-0.235,1.084-0.725c0.205-0.493-0.024-0.889-0.4-1.089
		c-0.585-0.312-1.225-0.65-1.866-0.711c-1.639-0.152-3.433-0.635-4.427,1.343c-3.766-1.304-7.498-2.522-11.169-3.906
		c-1.337-0.504-2.441-0.027-3.819,0.22c0.407,0.154,0.643,0.25,0.88,0.333c4.524,1.585,9.049,3.176,13.578,4.747
		c0.499,0.172,0.799,0.424,0.996,0.938c0.761,1.98,2.446,3.017,4.585,2.89c0.753-0.044,1.372-0.622,1.555-1.448
		c0.143-0.647-0.153-1.281-0.868-1.595C71.16,54.438,70.494,54.288,69.808,54.07z"/>
	<path fill-rule="evenodd" clip-rule="evenodd" fill="#A01C1C" d="M50.497,40.76c-2.907-0.071-5.763-0.484-8.602-1.062
		c-0.44-0.09-0.623-0.304-0.756-0.713c-0.686-2.115-0.966-4.266-0.606-6.471c0.072-0.437-0.16-0.59-0.437-0.805
		c-6.911-5.357-6.68-13.588-3.232-18.65c1.031-1.515,2.385-2.711,4.004-3.583c0.337-0.181,0.414-0.4,0.427-0.753
		c0.068-1.777,0.441-3.456,1.683-4.828c0.404-0.446,0.877-0.714,1.507-0.686c0.453,0.021,0.723,0.208,0.791,0.661
		c0.082,0.546,0.142,1.096,0.242,1.638c0.078,0.416,0.164,0.838,0.314,1.231c0.328,0.861,0.458,0.877,1.366,0.796
		c3.01-0.272,5.993-0.108,8.904,0.75c0.466,0.138,0.69,0.056,0.803-0.363c0.174-0.651,0.285-1.32,0.478-1.966
		c0.108-0.365,0.251-0.89,0.517-0.995c0.311-0.124,0.856,0.019,1.15,0.242c1.298,0.985,1.837,2.397,2.035,3.967
		c0.008,0.063,0.021,0.13,0.011,0.191c-0.163,0.963,0.22,1.59,1.13,1.947c0.181,0.071,0.34,0.318,0.413,0.52
		c1.205,3.314,2.303,6.655,2.872,10.154c0.438,2.685-0.059,5.067-1.962,7.083c-0.613,0.649-1.199,1.326-1.851,1.935
		c-0.383,0.357-0.51,0.703-0.424,1.218c0.309,1.865,0.552,3.741,0.879,5.603c0.081,0.47-0.049,0.632-0.445,0.792
		c-2.522,1.017-5.152,1.584-7.842,1.89C52.747,40.632,51.62,40.678,50.497,40.76z M58.804,38.611
		c0.514-0.158,0.954-0.314,1.406-0.426c0.385-0.096,0.538-0.263,0.513-0.699c-0.113-1.91-0.17-3.822-0.28-5.731
		c-0.024-0.415,0.132-0.644,0.42-0.91c0.703-0.646,1.431-1.287,2.011-2.037c1.26-1.627,2.171-3.386,1.836-5.577
		c-0.543-3.556-1.394-7.035-2.406-10.482c-0.212-0.725-0.572-1.134-1.339-1.257c-0.069,0.209-0.104,0.451-0.226,0.635
		c-0.11,0.171-0.305,0.388-0.477,0.402c-1.798,0.143-3.402-0.4-4.804-1.509c-0.531-0.421-0.495-0.933,0.005-1.417
		c0.087-0.084,0.233-0.105,0.354-0.155c-2.85-1.094-5.641-1.035-8.616-0.911c0.332,0.299,0.517,0.467,0.702,0.633
		c-0.054,0.138-0.09,0.262-0.148,0.374c-0.977,1.909-3.521,3.086-5.693,2.611c-0.154-0.034-0.329-0.241-0.385-0.405
		c-0.153-0.447-0.247-0.914-0.378-1.43c-1.825,1.103-3.22,2.482-4.114,4.344c-0.787,1.64-1.39,3.343-1.556,5.16
		c-0.233,2.53-0.133,5.026,1.232,7.289c1.132,1.876,2.724,3.306,4.537,4.498c0.325,0.213,0.437,0.432,0.43,0.818
		c-0.021,1.297-0.035,2.596,0.022,3.891c0.096,2.168,0.113,2.191,2.226,2.815c0.817,0.241,1.675,0.344,2.533,0.514
		c0.408-1.777,0.288-3.378-0.012-4.973c-0.098-0.521,0.062-0.88,0.532-1.09c0.179-0.08,0.388-0.091,0.583-0.134
		c0.003,0.216,0.09,0.482-0.005,0.639c-0.335,0.551-0.212,1.068-0.072,1.644c0.275,1.132,0.456,2.288,0.697,3.429
		c0.036,0.171,0.182,0.451,0.284,0.455c1.003,0.034,2.008,0.021,2.984,0.021c0-0.929-0.017-1.798,0.003-2.667
		c0.028-1.188,0.063-2.376,0.146-3.561c0.013-0.191,0.28-0.365,0.431-0.547c0.124,0.194,0.347,0.385,0.355,0.585
		c0.056,1.209,0.069,2.421,0.084,3.632c0.012,0.842,0.002,1.685,0.002,2.575c1.786-0.175,3.572-0.315,5.236-0.905
		c-0.314-1.876-0.625-3.652-0.896-5.435c-0.032-0.21,0.159-0.455,0.247-0.683c0.196,0.173,0.508,0.312,0.567,0.524
		c0.217,0.753,0.366,1.527,0.507,2.3C58.473,36.496,58.628,37.541,58.804,38.611z M46.679,9.521
		c-1.256-1.387-1.955-3.025-1.95-4.949c0-0.473-0.354-0.652-0.754-0.451c-0.367,0.186-0.764,0.434-0.989,0.763
		c-1.306,1.915-1.47,3.977-0.646,6.125c0.059,0.152,0.234,0.342,0.379,0.365C44.364,11.628,46.03,10.98,46.679,9.521z M56.229,10.16
		c0.966,1.066,2.128,1.392,3.444,1.255c0.142-0.014,0.354-0.1,0.396-0.207c0.691-1.766,0.646-3.926-0.89-5.361
		c-0.239-0.224-0.683-0.294-1.03-0.292c-0.091,0-0.249,0.532-0.26,0.824c-0.047,1.335-0.302,2.571-1.411,3.471
		C56.384,9.927,56.321,10.043,56.229,10.16z"/>
	<path fill-rule="evenodd" clip-rule="evenodd" fill="#A01C1C" d="M27.702,79.371c2.302-0.231,4.611-0.411,6.904-0.707
		c3.163-0.409,6.288-1.02,9.281-2.164c1.434-0.549,2.822-1.203,3.871-2.379c1.428-1.602,1.335-3.458-0.249-4.908
		c-1.345-1.23-2.99-1.931-4.685-2.509c-3.233-1.104-6.592-1.6-9.959-2.079c-4.059-0.578-8.138-0.564-12.219-0.555
		c-0.955,0.002-1.91,0.086-2.864,0.132c-0.361,0.019-0.723,0.062-1.082,0.041c-0.399-0.024-0.872-0.043-0.953-0.56
		c-0.089-0.562,0.354-0.787,0.785-0.929c0.408-0.133,0.861-0.345,1.142,0.27c0.058,0.128,0.367,0.201,0.558,0.199
		c1.807-0.02,3.612-0.079,5.419-0.092c5.524-0.04,10.988,0.508,16.373,1.763c2.384,0.555,4.739,1.226,6.817,2.573
		c0.702,0.455,1.373,1.022,1.906,1.665c1.344,1.621,1.283,3.705-0.076,5.313c-1.25,1.478-2.937,2.284-4.692,2.959
		c-3.233,1.245-6.612,1.906-10.038,2.271c-2.892,0.307-5.802,0.441-8.705,0.634c-0.354,0.022-0.728-0.031-1.068-0.132
		c-0.192-0.057-0.446-0.265-0.471-0.434c-0.03-0.205,0.088-0.551,0.253-0.647c1.042-0.617,2.185-0.8,3.367-0.536
		c0.182,0.041,0.294,0.394,0.439,0.602C27.738,79.232,27.72,79.302,27.702,79.371z"/>
	<path fill-rule="evenodd" clip-rule="evenodd" fill="#A01C1C" d="M54.741,80.117c-1.604,0.135-3.197,0.185-4.766,0.417
		c-5.668,0.836-11.329,1.729-16.99,2.611c-0.922,0.144-1.833,0.362-2.757,0.486c-0.239,0.032-0.509-0.161-0.765-0.25
		c0.142-0.229,0.231-0.551,0.437-0.669c0.547-0.312,1.13-0.583,1.73-0.77c0.241-0.075,0.562,0.111,0.848,0.179
		c-0.011,0.069-0.022,0.139-0.033,0.209c2.571-0.426,5.134-0.906,7.715-1.266c4.393-0.611,8.793-1.167,13.197-1.697
		c0.791-0.096,1.609,0.03,2.414,0.073c0.208,0.011,0.463,0.036,0.604,0.16c0.235,0.208,0.396,0.502,0.589,0.758
		c-0.251,0.155-0.487,0.343-0.756,0.454c-0.208,0.086-0.461,0.058-0.687,0.113C54.798,81.103,54.654,80.983,54.741,80.117z"/>
	<path fill-rule="evenodd" clip-rule="evenodd" fill="#A01C1C" d="M62.892,93.441c-0.584-0.699-1.347-1.024-2.15-1.209
		c-0.99-0.229-2.006-0.347-3.004-0.546c-0.474-0.095-0.963-0.205-1.39-0.418c-0.594-0.297-0.682-0.973-0.202-1.438
		c0.265-0.257,0.61-0.474,0.959-0.593c1.868-0.637,3.776-0.781,5.708-0.328c0.32,0.075,0.64,0.236,0.901,0.434
		c0.107,0.082,0.097,0.375,0.061,0.557c-0.012,0.058-0.327,0.138-0.431,0.079c-1.543-0.879-3.167-0.593-4.782-0.341
		c-0.458,0.07-0.909,0.211-1.348,0.362c-0.223,0.077-0.413,0.248-0.618,0.377c-0.001,0.077-0.003,0.155-0.004,0.232
		c0.381,0.109,0.756,0.251,1.143,0.319c1.064,0.189,2.168,0.239,3.191,0.554c0.846,0.26,1.616,0.792,2.384,1.261
		c0.354,0.217,0.424,0.608,0.239,1.02c-0.456,1.019-2.48,1.797-3.48,1.331c-0.587-0.273-0.762-0.859-0.366-1.36
		c0.105-0.133,0.348-0.158,0.527-0.233c0.037,0.146,0.131,0.303,0.104,0.436c-0.09,0.446,0.129,0.613,0.515,0.579
		C61.658,94.442,62.341,94.107,62.892,93.441z"/>
	<path fill-rule="evenodd" clip-rule="evenodd" fill="#A01C1C" d="M65.317,91.94c0.456-0.605,0.805-1.138,1.225-1.609
		c0.783-0.881,1.391-0.785,1.862,0.282c0.365,0.826,0.744,1.625,1.693,2.019c-0.068-0.756-0.151-1.479-0.182-2.206
		c-0.008-0.18,0.161-0.367,0.25-0.552c0.16,0.16,0.356,0.298,0.469,0.486c0.077,0.132,0.019,0.336,0.056,0.5
		c0.079,0.355,0.204,0.702,0.265,1.06c0.056,0.327,0.07,0.666,0.062,0.998c-0.003,0.095-0.157,0.27-0.232,0.265
		c-0.714-0.047-1.531,0.297-2.059-0.506c-0.242-0.369-0.512-0.724-0.729-1.107c-0.175-0.309-0.291-0.651-0.503-1.135
		c-0.316,0.426-0.562,0.747-0.801,1.075c-0.311,0.429-0.578,0.896-0.934,1.284c-0.354,0.387-0.771,0.296-0.941-0.196
		c-0.144-0.415-0.24-0.868-0.246-1.306c-0.048-3.254-0.067-6.506-0.096-9.76c-0.001-0.063-0.019-0.137,0.006-0.189
		c0.094-0.207,0.202-0.407,0.305-0.61c0.095,0.209,0.268,0.417,0.271,0.629c0.074,3.23,0.125,6.46,0.185,9.69
		C65.247,91.305,65.284,91.557,65.317,91.94z"/>
	<path fill-rule="evenodd" clip-rule="evenodd" fill="#A01C1C" d="M45.447,86.847c0.376,2.013,0.743,3.908,1.071,5.809
		c0.039,0.229-0.066,0.644-0.22,0.712c-0.405,0.181-0.558-0.186-0.618-0.509c-0.317-1.712-0.619-3.426-0.925-5.139
		c-0.029-0.163-0.062-0.326-0.103-0.542c-0.401,0.093-0.764,0.222-1.133,0.243c-0.175,0.01-0.362-0.185-0.544-0.286
		c0.126-0.183,0.214-0.47,0.384-0.53c1.139-0.412,1.148-0.396,1.014-1.604c-0.073-0.654-0.162-1.307-0.241-1.96
		c-0.041-0.334,0.033-0.661,0.426-0.605c0.172,0.023,0.401,0.333,0.436,0.542c0.162,0.979,0.267,1.968,0.378,2.85
		c1.408-0.22,2.741-0.444,4.08-0.623c0.325-0.043,0.696,0.012,0.998,0.137c0.191,0.08,0.292,0.375,0.433,0.573
		c-0.203,0.092-0.43,0.297-0.604,0.26C48.608,85.814,47.104,86.453,45.447,86.847z"/>
	<path fill-rule="evenodd" clip-rule="evenodd" fill="#A01C1C" d="M60.971,73.725c0.943,0,1.791-0.013,2.639,0.004
		c0.931,0.019,1.604,0.394,1.672,0.896c0.06,0.434-0.459,0.921-1.311,1.22c-0.239,0.085-0.481,0.168-0.73,0.218
		c-0.653,0.129-1.302,0.228-1.26,1.146c0.006,0.141-0.238,0.399-0.384,0.411c-0.152,0.012-0.38-0.173-0.473-0.331
		c-0.137-0.231-0.204-0.512-0.266-0.778c-0.78-3.368-1.552-6.739-2.333-10.106c-0.101-0.433-0.28-0.849-0.362-1.284
		c-0.045-0.227,0.044-0.478,0.071-0.719c0.194,0.176,0.498,0.317,0.563,0.532c0.33,1.073,0.619,2.16,0.883,3.252
		C60.129,70.037,60.547,71.896,60.971,73.725z M61.134,74.559c0.093,0.382,0.174,0.72,0.263,1.089
		c1.158-0.083,2.221-0.23,3.119-0.902c-0.009-0.062-0.019-0.125-0.029-0.187C63.398,74.559,62.31,74.559,61.134,74.559z"/>
	<path fill-rule="evenodd" clip-rule="evenodd" fill="#A01C1C" d="M53.557,74.778c0.8-0.037,1.498-0.001,2.171-0.117
		c0.895-0.156,1.766-0.445,2.654-0.646c0.214-0.048,0.456,0.029,0.685,0.049c-0.145,0.198-0.26,0.539-0.437,0.574
		c-1.511,0.308-3.027,0.595-4.555,0.802c-0.428,0.059-0.995-0.054-1.132-0.624c-0.15-0.626,0.174-1.161,0.726-1.336
		c1.061-0.337,2.165-0.533,3.254-0.78c0.163-0.037,0.335-0.027,0.508-0.142c-0.819-0.044-1.636-0.097-2.455-0.13
		c-0.467-0.02-0.938,0.023-1.401-0.02c-0.17-0.015-0.325-0.193-0.486-0.297c0.153-0.14,0.308-0.281,0.463-0.419
		c0.013-0.012,0.041-0.009,0.062-0.007c1.564,0.104,3.131,0.176,4.69,0.329c0.478,0.048,1.178,0.19,1.114,0.814
		c-0.063,0.608-0.764,0.452-1.218,0.496c-1.077,0.105-2.163,0.129-3.235,0.264C54.383,73.663,53.8,73.868,53.557,74.778z"/>
	<path fill-rule="evenodd" clip-rule="evenodd" fill="#A01C1C" d="M52.994,89.466c-0.994,0-1.988,0-2.983,0
		c-0.191,0-0.398,0.041-0.569-0.02c-0.167-0.059-0.297-0.222-0.443-0.339c0.147-0.119,0.297-0.345,0.439-0.339
		c1.607,0.069,3.215,0.142,4.817,0.29c0.448,0.041,1.11,0.184,1.073,0.789c-0.038,0.624-0.716,0.472-1.131,0.517
		c-0.97,0.105-1.949,0.103-2.92,0.194c-0.723,0.069-1.431,0.229-1.833,1.13c0.378,0.053,0.708,0.178,1.005,0.125
		c1.291-0.227,2.57-0.515,3.857-0.758c0.213-0.04,0.446,0.03,0.67,0.048c-0.145,0.2-0.248,0.513-0.439,0.581
		c-1.55,0.552-3.146,0.902-4.8,0.755c-0.306-0.026-0.774-0.293-0.833-0.53c-0.08-0.326,0.047-0.922,0.287-1.064
		c0.673-0.403,1.434-0.683,2.189-0.916c0.512-0.157,1.073-0.154,1.612-0.223C52.993,89.626,52.994,89.546,52.994,89.466z"/>
	<path fill-rule="evenodd" clip-rule="evenodd" fill="#A01C1C" d="M79.212,91.183c0.306-0.417,0.544-0.825,0.859-1.158
		c0.621-0.656,1.311-0.663,1.947-0.031c0.375,0.373,0.729,0.776,1.034,1.208c0.514,0.725,1.222,1.07,2.061,1.265
		c0.221,0.052,0.39,0.324,0.582,0.496c-0.24,0.105-0.484,0.311-0.722,0.302c-0.974-0.037-1.712-0.57-2.338-1.269
		c-0.34-0.379-0.646-0.788-0.979-1.175c-0.502-0.585-0.899-0.592-1.278,0.083c-0.327,0.584-0.524,1.241-0.765,1.872
		c-0.082,0.217-0.071,0.48-0.189,0.669c-0.119,0.188-0.346,0.308-0.525,0.457c-0.109-0.183-0.284-0.355-0.314-0.552
		c-0.111-0.689-0.146-1.392-0.264-2.079c-0.07-0.412-0.274-0.802-0.351-1.214c-0.035-0.189,0.092-0.408,0.146-0.613
		c0.19,0.092,0.477,0.137,0.551,0.285C78.888,90.175,79.025,90.663,79.212,91.183z"/>
	<path fill-rule="evenodd" clip-rule="evenodd" fill="#A01C1C" d="M66.198,70.478c0-1.679,0-3.357,0.001-5.035
		c0-0.063-0.021-0.138,0.003-0.189c0.121-0.258,0.254-0.51,0.384-0.764c0.119,0.261,0.344,0.523,0.343,0.785
		c-0.004,2.995-0.056,5.989-0.06,8.984c-0.001,0.689,0.168,1.38,0.188,2.072c0.007,0.253-0.191,0.513-0.295,0.769
		c-0.149-0.192-0.388-0.367-0.429-0.58c-0.101-0.517-0.144-1.052-0.15-1.58c-0.018-1.487-0.006-2.975-0.006-4.462
		C66.185,70.478,66.191,70.478,66.198,70.478z"/>
	<path fill-rule="evenodd" clip-rule="evenodd" fill="#A01C1C" d="M70.776,75.75c-0.907-0.16-1.74-0.597-2.238-1.488
		c-0.149-0.268-0.195-0.683-0.108-0.976c0.284-0.947,0.926-1.631,1.867-1.94c0.308-0.103,0.75-0.064,1.036,0.088
		c0.534,0.285,1.041,0.656,1.485,1.071c0.686,0.645,0.71,1.301,0.122,2.031C72.408,75.198,71.771,75.714,70.776,75.75z
		 M70.792,74.996c0.689,0.002,1.613-0.668,1.76-1.236c0.182-0.705-0.397-0.953-0.824-1.281c-0.117-0.09-0.253-0.158-0.386-0.221
		c-0.827-0.392-2.188,0.442-2.218,1.362c-0.004,0.12,0.021,0.266,0.089,0.36C69.628,74.56,70.201,74.887,70.792,74.996z"/>
	<path fill-rule="evenodd" clip-rule="evenodd" fill="#A01C1C" d="M32.709,67.669c0.114,0.233,0.303,0.459,0.33,0.702
		c0.102,0.947,0.114,1.905,0.23,2.85c0.218,1.77,0.519,3.521,1.266,5.167c0.088,0.195-0.036,0.486-0.062,0.732
		c-0.271-0.097-0.694-0.119-0.786-0.306c-0.307-0.62-0.602-1.281-0.708-1.957c-0.335-2.132-0.596-4.277-0.848-6.421
		c-0.028-0.241,0.18-0.51,0.278-0.767C32.51,67.67,32.61,67.669,32.709,67.669z"/>
	<path fill-rule="evenodd" clip-rule="evenodd" fill="#A01C1C" d="M74.58,92.774c-0.918-0.103-1.694-0.6-2.256-1.441
		c-0.067-0.102-0.11-0.232-0.126-0.356c-0.136-1.087,0.533-1.738,1.295-2.317c0.68-0.518,1.39-0.451,2.064,0.021
		c0.363,0.256,0.722,0.529,1.036,0.841c0.693,0.686,0.715,1.325,0.117,2.088C76.149,92.324,75.353,92.781,74.58,92.774z
		 M74.633,92.232c0.507-0.319,0.934-0.494,1.227-0.8c0.252-0.265,0.505-0.685,0.487-1.021c-0.031-0.594-1.436-1.417-2.021-1.243
		c-0.695,0.208-1.142,0.718-1.383,1.39c-0.049,0.136-0.021,0.395,0.073,0.473C73.527,91.445,74.07,91.821,74.633,92.232z"/>
	<path fill-rule="evenodd" clip-rule="evenodd" fill="#A01C1C" d="M50.371,73.982c-0.018-0.272-0.062-0.548-0.044-0.818
		c0.008-0.117,0.144-0.322,0.216-0.32c0.142,0.004,0.304,0.103,0.408,0.209c0.077,0.079,0.08,0.234,0.108,0.356
		c0.134,0.579,0.271,1.158,0.395,1.74c0.034,0.162,0.073,0.349,0.025,0.497c-0.058,0.182-0.205,0.334-0.313,0.499
		c-0.177-0.12-0.465-0.209-0.509-0.365c-0.163-0.582-0.245-1.188-0.357-1.783C50.323,73.992,50.347,73.987,50.371,73.982z"/>
	<path fill-rule="evenodd" clip-rule="evenodd" fill="#A01C1C" d="M74.504,32.539c0.826,0,1.496,0.667,1.502,1.494
		c0.004,0.832-0.65,1.492-1.488,1.5c-0.877,0.009-1.546-0.655-1.531-1.519C73.001,33.181,73.662,32.539,74.504,32.539z
		 M73.199,34.025c-0.006,0.732,0.537,1.296,1.267,1.313c0.724,0.017,1.306-0.535,1.326-1.257c0.021-0.743-0.569-1.357-1.304-1.355
		C73.782,32.728,73.204,33.31,73.199,34.025z"/>
	<path fill-rule="evenodd" clip-rule="evenodd" fill="#A01C1C" d="M70.602,87.473c-0.593-0.05-1.03-0.495-0.933-0.854
		c0.039-0.139,0.379-0.343,0.414-0.313c0.301,0.247,0.571,0.534,0.815,0.838C70.917,87.166,70.659,87.409,70.602,87.473z"/>
	<path fill-rule="evenodd" clip-rule="evenodd" fill="#A01C1C" d="M51.042,70.396c-0.661,0.02-0.902-0.296-0.952-0.727
		c-0.015-0.128,0.25-0.288,0.387-0.433c0.277,0.28,0.564,0.551,0.815,0.852C51.312,70.113,51.087,70.342,51.042,70.396z"/>
	<path fill-rule="evenodd" clip-rule="evenodd" fill="#A01C1C" d="M52.827,22.652c-0.07,1.706-0.411,3.342-1.13,4.879
		c-2.119,4.538-6.854,3.905-8.983,1.215c-1.392-1.758-2.071-3.774-2.075-6.021c-0.005-2.62,0.394-5.156,1.533-7.541
		c0.145-0.305,0.329-0.595,0.523-0.872c1.727-2.454,4.088-2.809,6.481-0.983c2.036,1.553,2.98,3.708,3.351,6.157
		C52.686,20.532,52.731,21.596,52.827,22.652z"/>
	<path fill-rule="evenodd" clip-rule="evenodd" fill="#A01C1C" d="M60.842,24.652c-0.275,0.926-0.454,1.896-0.85,2.766
		c-0.487,1.071-1.479,1.424-2.619,1.139c-1.936-0.485-2.969-2.087-2.405-3.99c0.346-1.166,0.849-2.313,1.463-3.362
		c0.715-1.22,2.155-1.194,3.006-0.069C60.215,22.162,60.679,23.302,60.842,24.652z"/>
	<path fill-rule="evenodd" clip-rule="evenodd" fill="#A01C1C" d="M74.309,34.012c-0.078,0.36-0.12,0.551-0.163,0.743
		c-0.038-0.004-0.078-0.007-0.116-0.011c0-0.479,0-0.958,0-1.437c0.84-0.087,0.862-0.046,0.773,0.695
		c-0.029,0.24,0.106,0.5,0.08,0.803C74.717,34.576,74.552,34.348,74.309,34.012z"/>
</g>
</svg>
