<?xml version="1.0" encoding="utf-8"?>
<!-- Generator: Adobe Illustrator 16.0.0, SVG Export Plug-In . SVG Version: 6.00 Build 0)  -->
<!DOCTYPE svg PUBLIC "-//W3C//DTD SVG 1.1//EN" "http://www.w3.org/Graphics/SVG/1.1/DTD/svg11.dtd">
<svg version="1.1" id="Layer_1" xmlns="http://www.w3.org/2000/svg" xmlns:xlink="http://www.w3.org/1999/xlink" x="0px" y="0px"
	 width="100px" height="100px" viewBox="0 0 100 100" enable-background="new 0 0 100 100" xml:space="preserve">
<g>
	<path fill="#A01C1C" d="M11.601,40.363c1.119,0.943,1.855,1.679,2.209,2.209c0.471,0.737,0.708,1.709,0.708,2.917
		c0,0.383,0.014,0.649,0.044,0.795l7.732-6.451l4.595,4.551l2.917-2.828l0.928,0.972c-1.385,1.297-2.269,2.446-2.651,3.447
		c-0.383,0.943-0.575,2.504-0.575,4.684v10.648c0,0.795,0,1.443,0,1.944c0,0.472,0.014,0.78,0.044,0.928
		c0.177,1.355,0.663,2.032,1.458,2.032c0.293,0,0.78-0.234,1.458-0.707c0.059-0.059,0.125-0.117,0.199-0.176
		c0.073-0.06,0.169-0.133,0.287-0.222l0.751,1.237l-6.583,5.258c-0.148-0.117-0.28-0.229-0.398-0.331
		c-0.118-0.104-0.207-0.185-0.266-0.243c-1.443-1.266-2.327-2.356-2.651-3.27c-0.325-0.912-0.486-2.695-0.486-5.347v-15.73
		l-2.43-2.518l-4.33,3.579v17.233l2.121,2.297l-5.391,4.33l-5.346-4.463l2.43-2.297v-16.04c0-0.824-0.015-1.502-0.044-2.033
		c-0.03-0.53-0.096-0.935-0.199-1.215c-0.104-0.279-0.243-0.47-0.42-0.574c-0.177-0.103-0.413-0.155-0.707-0.155
		c-0.236,0-0.751,0.221-1.546,0.663l-0.708-0.972l6.187-4.684C11.115,39.98,11.335,40.157,11.601,40.363z"/>
	<path fill="#A01C1C" d="M40.064,41.401c0.471,0.457,0.81,0.876,1.017,1.259c0.441,0.707,0.663,1.767,0.663,3.181v1.149l8.439-7.158
		c0.735,0.589,1.376,1.156,1.922,1.701c0.545,0.545,0.986,1.098,1.326,1.657c0.338,0.56,0.596,1.149,0.773,1.768
		c0.176,0.619,0.293,1.297,0.353,2.033l8.351-7.158l4.419,4.86l2.475-2.386l0.796,0.839c-1.121,1.09-1.886,2.062-2.298,2.916
		c-0.384,0.796-0.575,1.988-0.575,3.579v12.682c0,0.678,0.007,1.23,0.022,1.656c0.015,0.428,0.037,0.715,0.066,0.862
		c0.177,1.119,0.633,1.679,1.369,1.679c0.324,0,0.869-0.294,1.636-0.884l0.706,1.017l-5.965,4.948
		c-1.738-1.207-2.857-2.356-3.357-3.446c-0.472-1.061-0.708-2.916-0.708-5.567V46.991l-2.253-2.519l-4.507,3.888v16.835l2.209,2.253
		l-5.08,4.153l-5.348-4.153l2.033-2.253V49.818c0-1.119-0.118-1.958-0.354-2.519c-0.207-0.559-0.766-1.266-1.679-2.121l-0.441-0.486
		l-4.331,3.667v16.835l2.165,2.253l-4.993,4.153l-5.479-4.374l2.165-2.253V48.802c0-0.559-0.007-1.023-0.022-1.392
		c-0.015-0.368-0.037-0.641-0.066-0.817c-0.177-0.913-0.619-1.37-1.326-1.37c-0.235,0-0.692,0.207-1.369,0.619
		c-0.03,0.03-0.067,0.06-0.111,0.089s-0.11,0.074-0.198,0.132l-0.751-1.06l6.495-5.169C38.988,40.422,39.592,40.945,40.064,41.401z"
		/>
	<path fill="#A01C1C" d="M73.363,39.921c1.68-1.266,2.519-2.474,2.519-3.623c0-1.237-0.707-2.475-2.121-3.712l-0.397-0.353
		l3.933-4.065l4.065,3.977c-1.148,4.536-3.667,7.527-7.556,8.97L73.363,39.921z"/>
	<path fill="#A01C1C" d="M73.125,56.49V45.356c2.004-0.619,3.608-1.326,4.816-2.121c0.589-0.412,1.172-0.898,1.745-1.458
		c0.575-0.559,1.112-1.208,1.614-1.944c2.944,1.532,5.64,2.297,8.085,2.297c2.091,0,3.138-0.677,3.138-2.033
		c0-0.324-0.082-0.619-0.243-0.883c-0.163-0.266-0.331-0.523-0.508-0.773s-0.332-0.501-0.464-0.751
		c-0.133-0.25-0.185-0.522-0.155-0.817c0-1.178,0.619-1.768,1.856-1.768c1.442,0,2.164,0.825,2.164,2.474
		c0,1.591-0.854,3.55-2.562,5.877l-5.346,7.335l6.45,3.756v12.238c-3.24,0.943-6.127,2.549-8.66,4.816
		c-2.534-1.59-4.904-2.386-7.114-2.386c-2.12,0-4.168,0.796-6.141,2.386l-0.841-0.707l7.998-11.223L73.125,56.49z M77.014,65.283
		c1.532-0.53,2.931-0.795,4.198-0.795c1.825,0,3.888,0.618,6.186,1.855v-8.439l-3.667-2.033L77.014,65.283z M88.237,46.637
		c-0.413,0.03-0.811,0.052-1.193,0.066c-0.384,0.015-0.751,0.022-1.104,0.022c-2.474,0-4.699-0.663-6.672-1.988v8.396l3.093,1.812
		L88.237,46.637z"/>
</g>
</svg>
