<?xml version="1.0" encoding="utf-8"?>
<!-- Generator: Adobe Illustrator 16.0.0, SVG Export Plug-In . SVG Version: 6.00 Build 0)  -->
<!DOCTYPE svg PUBLIC "-//W3C//DTD SVG 1.1//EN" "http://www.w3.org/Graphics/SVG/1.1/DTD/svg11.dtd">
<svg version="1.1" id="Layer_1" xmlns="http://www.w3.org/2000/svg" xmlns:xlink="http://www.w3.org/1999/xlink" x="0px" y="0px"
	 width="100px" height="100px" viewBox="0 0 100 100" enable-background="new 0 0 100 100" xml:space="preserve">
<polygon fill="#A01C1C" points="0.381,44.7 5.605,41.967 6.51,46.415 "/>
<polygon fill="#BC2626" points="13.088,47.153 5.605,41.967 8.263,55.019 "/>
<polygon fill="#D12F2F" points="16.53,41.541 8.263,55.019 21.381,64.092 "/>
<polygon fill="#BC2626" points="26.206,38.962 16.53,41.541 18.598,51.15 "/>
<polygon fill="#BC2626" points="20.217,58.681 27.833,59.757 21.381,64.092 "/>
<polygon fill="#A01C1C" points="28.373,64.854 27.833,59.756 24.849,61.762 "/>
<polygon fill="#E23737" points="24.834,31.947 41.36,25.458 38.544,40.14 "/>
<polygon fill="#BC2626" points="18.074,25.188 24.834,31.947 41.359,25.458 "/>
<polygon fill="#D12F2F" points="57.924,38.99 41.36,25.458 38.544,40.14 "/>
<polygon fill="#A01C1C" points="56.773,43.635 41.953,40.916 42.214,39.922 57.924,38.99 "/>
<polygon fill="#D12F2F" points="39.336,49.136 41.953,40.916 56.773,43.635 "/>
<polygon fill="#A01C1C" points="27.07,53.135 41.953,40.916 38.417,52.731 "/>
<polygon fill="#BC2626" points="57.924,38.99 60.214,33.543 62.089,29.081 50.563,32.977 "/>
<polygon fill="#A01C1C" points="65.766,32.522 62.089,29.081 60.214,33.542 "/>
<polygon fill="#A01C1C" points="52.006,20.234 55.522,31.301 50.563,32.977 45.228,28.618 "/>
<polygon fill="#D12F2F" points="35.548,19.858 52.006,20.234 45.228,28.618 41.359,25.458 38.51,25.425 "/>
<polygon fill="#BC2626" points="33.646,10.869 52.006,20.234 35.548,19.858 "/>
<polygon fill="#D12F2F" points="74.474,45.978 55.672,47.179 81.441,67.341 "/>
<polygon fill="#BC2626" points="89.697,57.55 74.474,45.978 81.441,67.341 87.902,63.598 "/>
<polygon fill="#D12F2F" points="93.738,46.228 82.437,52.029 89.697,57.55 "/>
<polygon fill="#A01C1C" points="100,50.736 93.738,46.228 91.879,51.44 "/>
<polygon fill="#A01C1C" points="53.962,51.753 59.942,50.519 81.441,67.341 "/>
<polygon fill="#D12F2F" points="68.525,76.675 73.749,62.979 81.441,67.341 "/>
<polygon fill="#BC2626" points="74.744,81.502 72.842,73.555 68.525,76.675 "/>
<polygon fill="#A01C1C" points="69.625,81.197 72.051,79.411 74.744,81.502 "/>
<path fill="#A01C1C" d="M32.533,61.243c0.297,0.128,0.562,0.302,0.798,0.521c0.235,0.217,0.428,0.471,0.579,0.764
	c0.15,0.289,0.226,0.599,0.226,0.926c0,0.663-0.243,1.23-0.729,1.7c-0.482,0.466-1.066,0.699-1.752,0.699s-1.269-0.233-1.747-0.699
	c-0.482-0.47-0.723-1.037-0.723-1.7c0-0.323,0.073-0.633,0.22-0.926c0.146-0.289,0.337-0.543,0.573-0.764
	c0.239-0.219,0.505-0.393,0.798-0.521c0.297-0.126,0.592-0.189,0.885-0.189C31.948,61.054,32.239,61.117,32.533,61.243
	 M31.671,61.411c-0.44,0-0.816,0.202-1.128,0.608c-0.312,0.404-0.469,0.89-0.469,1.457c0,0.566,0.156,1.053,0.469,1.458
	c0.312,0.404,0.688,0.605,1.128,0.605c0.439,0,0.81-0.181,1.11-0.542c0.305-0.367,0.465-0.871,0.48-1.516
	c0-0.348-0.037-0.643-0.109-0.888c-0.073-0.245-0.188-0.457-0.342-0.633c-0.324-0.367-0.706-0.551-1.145-0.551H31.671z"/>
<path fill="#A01C1C" d="M34.632,62.573c0.085,0.008,0.154,0.013,0.208,0.013h0.214h0.191c0.042,0,0.106-0.005,0.191-0.013
	c0.046,0,0.069,0.019,0.069,0.053c0,0.055-0.001,0.092-0.005,0.116c-0.012,0.022-0.018,0.054-0.018,0.093
	c-0.004,0.062-0.01,0.198-0.018,0.41c-0.004,0.209-0.009,0.568-0.017,1.081l0.006,0.069c0.015,0.448,0.027,0.726,0.035,0.834
	c0.012,0.143,0.021,0.24,0.029,0.294c0,0.015,0.003,0.026,0.012,0.034c0.004,0,0.006-0.003,0.006-0.012
	c0.012,0.016,0.017,0.044,0.017,0.087c0,0.031,0.002,0.058,0.006,0.081c0,0.043-0.004,0.067-0.011,0.074
	c-0.028,0.035-0.046,0.054-0.058,0.054c-0.177,0.096-0.318,0.24-0.422,0.434c-0.104,0.189-0.258,0.334-0.463,0.434
	c-0.023,0.008-0.042,0.014-0.058,0.018c-0.004,0.003-0.014,0.005-0.029,0.005c-0.101,0-0.151-0.048-0.151-0.145
	c0-0.022,0.01-0.048,0.03-0.075l0.029-0.034c0.262-0.302,0.393-0.63,0.393-0.988c0-0.417,0.016-0.794,0.047-1.134
	c0-0.058,0.001-0.121,0.005-0.191v-0.161c0-0.312-0.011-0.549-0.035-0.712c-0.035-0.219-0.071-0.362-0.11-0.428
	c-0.038-0.069-0.079-0.104-0.122-0.104c-0.038,0-0.062-0.035-0.069-0.104c0-0.051,0.037-0.076,0.11-0.076L34.632,62.573z
	 M35.436,61.302c0.077,0.076,0.116,0.169,0.116,0.278c0,0.107-0.039,0.2-0.116,0.276c-0.077,0.077-0.167,0.116-0.271,0.116
	c-0.108,0-0.201-0.039-0.278-0.116c-0.073-0.073-0.11-0.165-0.11-0.276c0-0.113,0.037-0.206,0.11-0.278
	c0.077-0.077,0.169-0.116,0.278-0.116C35.269,61.186,35.359,61.225,35.436,61.302"/>
<path fill="#A01C1C" d="M38.664,63.037c0.328,0.327,0.492,0.723,0.492,1.186c0,0.458-0.164,0.85-0.492,1.174
	c-0.328,0.323-0.727,0.484-1.197,0.484c-0.459,0-0.854-0.161-1.186-0.484c-0.327-0.324-0.491-0.716-0.491-1.174
	c0-0.463,0.164-0.858,0.491-1.186c0.328-0.328,0.723-0.491,1.186-0.491C37.937,62.546,38.336,62.709,38.664,63.037 M37.455,62.84
	c-0.362,0-0.611,0.138-0.746,0.41c-0.135,0.274-0.202,0.599-0.202,0.973c0,0.366,0.092,0.681,0.277,0.942
	c0.185,0.259,0.415,0.396,0.688,0.416c0.146,0,0.274-0.031,0.385-0.092c0.11-0.062,0.211-0.156,0.304-0.283
	c0.088-0.123,0.154-0.263,0.196-0.42c0.043-0.156,0.064-0.342,0.064-0.558c-0.02-0.394-0.091-0.721-0.214-0.983
	c-0.128-0.266-0.376-0.399-0.747-0.399L37.455,62.84z"/>
<path fill="#A01C1C" d="M41.596,63.407c-0.108-0.155-0.284-0.283-0.526-0.388c-0.224-0.101-0.415-0.151-0.573-0.151
	c-0.12,0.013-0.229,0.033-0.33,0.064c-0.092,0.026-0.138,0.085-0.138,0.173c0,0.066,0.044,0.128,0.133,0.186
	c0.093,0.062,0.18,0.105,0.26,0.133c0.169,0.039,0.355,0.08,0.555,0.122c0.201,0.038,0.388,0.103,0.562,0.191
	c0.177,0.088,0.326,0.204,0.445,0.347c0.124,0.146,0.191,0.347,0.203,0.601c0,0.348-0.145,0.625-0.434,0.833
	c-0.305,0.215-0.607,0.324-0.908,0.324c-0.282,0-0.547-0.041-0.798-0.122c-0.247-0.081-0.443-0.186-0.59-0.312
	c-0.046-0.019-0.069-0.088-0.069-0.208v-0.243v-0.254v-0.202c0-0.089,0.036-0.134,0.109-0.134c0.093,0,0.151,0.043,0.174,0.127
	c0.019,0.073,0.04,0.137,0.063,0.19c0.066,0.182,0.187,0.365,0.365,0.55c0.17,0.174,0.422,0.261,0.757,0.261h0.029
	c0.151,0,0.293-0.054,0.428-0.162c0.143-0.116,0.214-0.271,0.214-0.463c-0.004-0.15-0.041-0.264-0.11-0.341
	c-0.069-0.081-0.172-0.16-0.307-0.237c-0.173-0.058-0.359-0.107-0.555-0.15c-0.22-0.046-0.399-0.106-0.538-0.18
	c-0.158-0.039-0.293-0.119-0.405-0.243c-0.092-0.104-0.138-0.242-0.138-0.415c0-0.302,0.111-0.504,0.335-0.608
	c0.186-0.081,0.39-0.122,0.613-0.122h0.087c0.05,0.004,0.079,0.007,0.086,0.007v-0.007c0.197,0.024,0.348,0.043,0.451,0.058
	c0.146,0.024,0.274,0.06,0.382,0.105c0.054,0.022,0.11,0.044,0.168,0.063c0.069,0.022,0.11,0.06,0.121,0.109
	c0.023,0.108,0.052,0.196,0.087,0.267c0.03,0.062,0.056,0.135,0.075,0.219l0.006,0.019v0.022c0,0.066-0.035,0.099-0.104,0.099
	c-0.035,0-0.068-0.016-0.098-0.047c-0.023-0.022-0.046-0.05-0.069-0.08H41.596z"/>
<path fill="#A01C1C" d="M46.674,62.771c0.062,0.031,0.114,0.046,0.157,0.046c0.023,0,0.038-0.004,0.046-0.011
	c0.027-0.027,0.04-0.073,0.04-0.14c0-0.062,0.001-0.157,0.006-0.289c0.003-0.093,0.005-0.163,0.005-0.214
	c0-0.242-0.008-0.399-0.023-0.468c-0.031-0.189-0.068-0.31-0.11-0.359c-0.046-0.05-0.096-0.075-0.15-0.075
	c-0.058,0-0.104-0.044-0.139-0.133c0-0.031,0.012-0.054,0.035-0.069c0.03-0.023,0.058-0.035,0.081-0.035
	c0.104,0.012,0.189,0.023,0.255,0.035c0.077,0.012,0.162,0.018,0.254,0.018c0.089,0,0.146-0.006,0.173-0.018
	c0.031-0.012,0.089-0.023,0.174-0.035c0.004,0,0.01-0.002,0.017-0.005h0.018c0.054,0,0.082,0.033,0.082,0.098
	c-0.008,0.073-0.016,0.127-0.023,0.162V61.4c0,0.185-0.002,0.376-0.006,0.572c-0.004,0.293-0.01,0.796-0.017,1.509v0.272
	c-0.004,0.132-0.006,0.208-0.006,0.231c0,0.408,0.012,0.718,0.035,0.926c0.027,0.285,0.065,0.479,0.116,0.584
	c0.046,0.091,0.098,0.138,0.156,0.138c0.054,0,0.093,0.027,0.116,0.081l0.006,0.018c0,0.02-0.011,0.046-0.035,0.081
	c-0.035,0.043-0.063,0.063-0.087,0.063c-0.02,0-0.046-0.003-0.081-0.006c-0.069-0.004-0.133-0.006-0.191-0.006
	c-0.062,0.004-0.155,0.006-0.278,0.006c-0.089,0-0.133-0.002-0.133-0.006c-0.046,0-0.093,0.004-0.139,0.012
	c-0.031,0-0.063-0.018-0.098-0.053c-0.035-0.034-0.052-0.062-0.052-0.087c-0.012-0.104-0.037-0.155-0.076-0.155
	c-0.008,0-0.015,0.003-0.023,0.011c-0.038,0.021-0.105,0.059-0.202,0.116c-0.216,0.123-0.409,0.186-0.578,0.186
	c-0.335,0-0.631-0.149-0.885-0.445c-0.254-0.297-0.382-0.673-0.382-1.127c0-0.452,0.127-0.856,0.382-1.216
	c0.243-0.347,0.586-0.52,1.03-0.52c0.124,0.008,0.225,0.032,0.307,0.075c0.058,0.031,0.136,0.071,0.237,0.121L46.674,62.771z
	 M46.894,64.646c0-0.077,0.006-0.263,0.018-0.556c0.004-0.239,0.007-0.413,0.012-0.521c0-0.097-0.012-0.17-0.035-0.221
	c-0.023-0.054-0.071-0.117-0.145-0.19c-0.143-0.144-0.318-0.214-0.526-0.214c-0.239,0-0.451,0.109-0.637,0.33
	c-0.15,0.178-0.225,0.412-0.225,0.706c0,0.088,0.004,0.157,0.011,0.208c0.042,0.389,0.137,0.678,0.284,0.867
	c0.15,0.188,0.333,0.298,0.549,0.329h0.058c0.031,0.005,0.048,0.006,0.052,0.006c0.189,0,0.347-0.077,0.475-0.231
	c0.07-0.093,0.104-0.175,0.104-0.248v-0.278L46.894,64.646z"/>
<path fill="#A01C1C" d="M49.196,64.842c-0.039,0.034-0.058,0.069-0.058,0.104c0,0.039,0.023,0.079,0.069,0.121
	c0.212,0.205,0.46,0.308,0.747,0.308c0.146-0.013,0.273-0.056,0.381-0.134c0.101-0.073,0.183-0.17,0.25-0.289
	c0.019-0.046,0.058-0.09,0.115-0.133c0.046-0.026,0.085-0.041,0.115-0.041c0.028,0,0.046,0.004,0.059,0.013
	c0.062,0.026,0.093,0.074,0.093,0.145c0,0.038-0.004,0.066-0.013,0.086c-0.003,0.016-0.011,0.035-0.022,0.059l-0.034,0.052
	c-0.14,0.227-0.323,0.411-0.55,0.554c-0.223,0.139-0.442,0.211-0.66,0.215c-0.412,0-0.765-0.153-1.058-0.457
	c-0.146-0.15-0.255-0.323-0.324-0.518c-0.07-0.194-0.104-0.424-0.104-0.69c0.011-0.502,0.189-0.908,0.532-1.222
	c0.324-0.296,0.642-0.444,0.954-0.444c0.217,0.004,0.413,0.062,0.59,0.174c0.178,0.107,0.33,0.252,0.458,0.434
	c0.035,0.05,0.052,0.097,0.052,0.139v0.018c-0.004,0.007-0.006,0.013-0.006,0.017c-0.016,0.039-0.033,0.068-0.052,0.087
	l-0.376,0.354v0.006l-0.59,0.503c-0.197,0.166-0.388,0.339-0.573,0.521L49.196,64.842z M49.965,63.65
	c0.023-0.031,0.047-0.058,0.069-0.082c0.016-0.015,0.024-0.038,0.024-0.068c0-0.035-0.006-0.064-0.018-0.087
	c-0.054-0.128-0.108-0.226-0.162-0.295c-0.058-0.074-0.162-0.11-0.313-0.11c-0.324,0-0.538,0.133-0.642,0.399
	c-0.104,0.266-0.156,0.54-0.156,0.821c0,0.119,0.029,0.214,0.086,0.283c0.035,0.034,0.068,0.052,0.099,0.052s0.06-0.013,0.086-0.04
	c0.12-0.12,0.273-0.26,0.463-0.423c0.155-0.131,0.304-0.279,0.452-0.445L49.965,63.65z"/>
<path fill="#A01C1C" d="M54.737,62.822c0.062-0.015,0.145-0.067,0.249-0.156s0.236-0.141,0.399-0.155c0.4,0,0.721,0.111,0.96,0.335
	c0.247,0.224,0.37,0.571,0.37,1.041s-0.205,0.898-0.613,1.284c-0.413,0.389-0.895,0.617-1.445,0.688
	c-0.078,0.012-0.116,0.052-0.116,0.121l0.018,0.157c0.004,0.042,0.015,0.084,0.034,0.126c0.02,0.043,0.031,0.095,0.035,0.157v0.15
	c-0.008,0.062-0.031,0.095-0.069,0.098c-0.104,0.02-0.199,0.067-0.283,0.146c-0.085,0.08-0.184,0.12-0.295,0.12
	c-0.062,0-0.1-0.013-0.111-0.04c-0.007-0.023-0.015-0.069-0.022-0.139v-0.087c-0.003-0.038-0.005-0.077-0.005-0.115
	c0-0.201,0.007-0.364,0.022-0.492c0.019-0.265,0.033-0.623,0.04-1.074c0-0.44-0.002-0.772-0.008-1.001
	c-0.006-0.228-0.016-0.403-0.027-0.526c-0.033-0.289-0.074-0.475-0.12-0.556c-0.039-0.068-0.085-0.104-0.14-0.104
	c-0.05,0-0.083-0.06-0.098-0.18c0-0.054,0.021-0.08,0.063-0.08c0.007,0.004,0.015,0.006,0.023,0.006c0.019,0,0.05,0.001,0.092,0.005
	c0.059,0.004,0.11,0.006,0.156,0.006c0.051-0.004,0.134-0.006,0.249-0.006c0.089,0,0.145-0.005,0.167-0.018
	c0.023-0.012,0.081-0.022,0.174-0.034c0.077,0,0.115,0.03,0.115,0.093c-0.004,0.046-0.01,0.08-0.017,0.104
	c-0.004,0.016-0.006,0.028-0.006,0.041c0,0.058,0.021,0.093,0.063,0.104c0.081,0,0.131-0.003,0.15-0.011L54.737,62.822z
	 M54.703,63.089c-0.031,0.019-0.066,0.052-0.104,0.099c-0.034,0.038-0.053,0.102-0.053,0.19v0.619v0.954v0.214v0.19
	c0,0.062,0.024,0.111,0.07,0.145c0.03,0.016,0.058,0.023,0.08,0.023c0.031,0,0.078-0.014,0.139-0.04
	c0.113-0.054,0.229-0.117,0.349-0.191c0.126-0.081,0.237-0.163,0.328-0.248c0.163-0.158,0.28-0.336,0.354-0.532
	c0.069-0.192,0.104-0.358,0.104-0.498c0-0.276-0.067-0.522-0.202-0.734c-0.124-0.204-0.338-0.306-0.643-0.306
	c-0.166,0.004-0.311,0.044-0.435,0.121L54.703,63.089z"/>
<path fill="#A01C1C" d="M57.213,63.025c0.413-0.32,0.829-0.479,1.25-0.479c0.211,0,0.442,0.031,0.694,0.098
	c0.239,0.062,0.472,0.165,0.699,0.312c0,0.004,0.002,0.006,0.006,0.006c0.012,0.013,0.018,0.037,0.018,0.076v0.052v0.035
	c-0.004,0.033-0.011,0.074-0.018,0.12c-0.004,0.062-0.006,0.209-0.006,0.439c0,0.097-0.002,0.298-0.006,0.603l-0.006,0.237
	c0.008,0.358,0.021,0.604,0.041,0.734c0.022,0.139,0.05,0.233,0.08,0.282c0.027,0.046,0.061,0.075,0.1,0.087
	c0.034,0.012,0.06,0.058,0.074,0.139c0.012,0.022,0.018,0.041,0.018,0.052c0,0.031-0.032,0.047-0.099,0.047l-0.04-0.006
	c-0.093-0.011-0.158-0.02-0.197-0.023c-0.046-0.004-0.127-0.006-0.243-0.006h-0.19c-0.08,0-0.146,0.004-0.196,0.013
	c-0.03,0-0.053-0.013-0.063-0.035c-0.012-0.023-0.018-0.048-0.018-0.075l0.012-0.11c0-0.004,0.002-0.009,0.006-0.017v-0.019
	c0-0.022-0.008-0.034-0.022-0.034c-0.017,0.005-0.039,0.016-0.07,0.034c-0.05,0.028-0.095,0.057-0.134,0.087
	c-0.033,0.031-0.078,0.057-0.133,0.076c-0.219,0.084-0.441,0.127-0.664,0.127c-0.193,0-0.386-0.034-0.578-0.104
	c-0.387-0.15-0.58-0.445-0.58-0.89c0-0.575,0.172-0.942,0.516-1.105c0.355-0.161,0.778-0.242,1.272-0.242
	c0.054,0,0.095,0.002,0.121,0.005l0.122,0.019c0.146,0,0.219-0.068,0.219-0.202c-0.003-0.07-0.024-0.145-0.062-0.227
	c-0.035-0.073-0.132-0.125-0.29-0.155c-0.161-0.031-0.3-0.048-0.416-0.052c-0.408,0-0.73,0.119-0.966,0.357
	c0,0.012-0.014,0.018-0.041,0.018c-0.019,0-0.036-0.004-0.052-0.012c-0.047-0.019-0.087-0.042-0.121-0.068
	c-0.043-0.043-0.064-0.084-0.064-0.122c0-0.026,0.006-0.048,0.019-0.063L57.213,63.025z M59.041,63.801
	c-0.49,0.004-0.831,0.102-1.023,0.294c-0.189,0.189-0.284,0.417-0.284,0.683c0,0.274,0.106,0.482,0.319,0.625
	c0.1,0.062,0.203,0.093,0.312,0.093c0.15,0,0.326-0.057,0.526-0.168c0.019-0.007,0.044-0.025,0.075-0.052l0.018-0.013
	c0.026-0.022,0.044-0.037,0.052-0.046c0.058-0.042,0.093-0.095,0.104-0.156c0.008-0.042,0.017-0.102,0.024-0.179
	c0.003-0.051,0.005-0.135,0.005-0.255c0-0.131,0.002-0.233,0.006-0.306l0.018-0.174c0.003-0.039,0.005-0.093,0.005-0.162
	c0-0.108-0.019-0.168-0.058-0.18c-0.033-0.015-0.066-0.023-0.098-0.023V63.801z"/>
<path fill="#A01C1C" d="M61.615,62.822c0.062-0.015,0.145-0.067,0.248-0.156c0.104-0.089,0.237-0.141,0.399-0.155
	c0.401,0,0.721,0.111,0.96,0.335c0.247,0.224,0.37,0.571,0.37,1.041s-0.204,0.898-0.613,1.284c-0.412,0.389-0.895,0.617-1.446,0.688
	c-0.076,0.012-0.115,0.052-0.115,0.121l0.018,0.157c0.004,0.042,0.015,0.084,0.034,0.126c0.02,0.043,0.03,0.095,0.035,0.157v0.15
	c-0.008,0.062-0.031,0.095-0.069,0.098c-0.104,0.02-0.199,0.067-0.284,0.146c-0.085,0.08-0.183,0.12-0.294,0.12
	c-0.062,0-0.099-0.013-0.11-0.04c-0.008-0.023-0.016-0.069-0.023-0.139v-0.087c-0.004-0.038-0.006-0.077-0.006-0.115
	c0-0.201,0.008-0.364,0.023-0.492c0.02-0.265,0.032-0.623,0.04-1.074c0-0.44-0.003-0.772-0.009-1.001
	c-0.006-0.228-0.014-0.403-0.025-0.526c-0.035-0.289-0.075-0.475-0.122-0.556c-0.038-0.068-0.085-0.104-0.139-0.104
	c-0.05,0-0.082-0.06-0.099-0.18c0-0.054,0.022-0.08,0.064-0.08c0.008,0.004,0.016,0.006,0.022,0.006c0.02,0,0.051,0.001,0.093,0.005
	c0.058,0.004,0.11,0.006,0.156,0.006c0.05-0.004,0.134-0.006,0.249-0.006c0.088,0,0.144-0.005,0.168-0.018
	c0.022-0.012,0.081-0.022,0.174-0.034c0.076,0,0.115,0.03,0.115,0.093c-0.004,0.046-0.01,0.08-0.017,0.104
	c-0.004,0.016-0.006,0.028-0.006,0.041c0,0.058,0.021,0.093,0.062,0.104c0.082,0,0.132-0.003,0.15-0.011L61.615,62.822z
	 M61.58,63.089c-0.031,0.019-0.065,0.052-0.104,0.099c-0.034,0.038-0.052,0.102-0.052,0.19v0.619v0.954v0.214v0.19
	c0,0.062,0.022,0.111,0.069,0.145c0.031,0.016,0.059,0.023,0.081,0.023c0.031,0,0.077-0.014,0.139-0.04
	c0.111-0.054,0.228-0.117,0.347-0.191c0.128-0.081,0.237-0.163,0.33-0.248c0.162-0.158,0.28-0.336,0.353-0.532
	c0.07-0.192,0.104-0.358,0.104-0.498c0-0.276-0.067-0.522-0.203-0.734c-0.122-0.204-0.337-0.306-0.642-0.306
	c-0.166,0.004-0.311,0.044-0.434,0.121L61.58,63.089z"/>
<path fill="#A01C1C" d="M64.819,64.842c-0.039,0.034-0.058,0.069-0.058,0.104c0,0.039,0.022,0.079,0.069,0.121
	c0.211,0.205,0.461,0.308,0.746,0.308c0.146-0.013,0.273-0.056,0.382-0.134c0.101-0.073,0.183-0.17,0.249-0.289
	c0.019-0.046,0.058-0.09,0.115-0.133c0.046-0.026,0.085-0.041,0.116-0.041c0.026,0,0.045,0.004,0.058,0.013
	c0.062,0.026,0.093,0.074,0.093,0.145c0,0.038-0.004,0.066-0.013,0.086c-0.004,0.016-0.012,0.035-0.022,0.059l-0.035,0.052
	c-0.139,0.227-0.321,0.411-0.549,0.554c-0.225,0.139-0.443,0.211-0.66,0.215c-0.413,0-0.766-0.153-1.058-0.457
	c-0.147-0.15-0.255-0.323-0.324-0.518s-0.104-0.424-0.104-0.69c0.012-0.502,0.189-0.908,0.532-1.222
	c0.324-0.296,0.642-0.444,0.954-0.444c0.217,0.004,0.413,0.062,0.59,0.174c0.178,0.107,0.33,0.252,0.458,0.434
	c0.034,0.05,0.052,0.097,0.052,0.139v0.018c-0.004,0.007-0.006,0.013-0.006,0.017c-0.016,0.039-0.033,0.068-0.052,0.087
	l-0.376,0.354v0.006l-0.59,0.503c-0.197,0.166-0.389,0.339-0.573,0.521L64.819,64.842z M65.589,63.65
	c0.022-0.031,0.046-0.058,0.068-0.082c0.017-0.015,0.024-0.038,0.024-0.068c0-0.035-0.006-0.064-0.019-0.087
	c-0.054-0.128-0.107-0.226-0.161-0.295c-0.058-0.074-0.162-0.11-0.312-0.11c-0.323,0-0.538,0.133-0.642,0.399
	c-0.104,0.266-0.156,0.54-0.156,0.821c0,0.119,0.028,0.214,0.087,0.283c0.034,0.034,0.066,0.052,0.098,0.052
	c0.03,0,0.06-0.013,0.088-0.04c0.118-0.12,0.272-0.26,0.461-0.423c0.154-0.131,0.305-0.279,0.452-0.445L65.589,63.65z"/>
<path fill="#A01C1C" d="M66.896,61.023c0.093,0.012,0.192,0.018,0.301,0.018h0.296c0.058,0,0.102-0.002,0.132-0.006
	c0.031-0.007,0.075-0.015,0.133-0.022c0.004,0,0.01-0.002,0.018-0.006h0.018c0.054,0,0.081,0.032,0.081,0.099
	c-0.008,0.076-0.014,0.131-0.018,0.161v0.122v0.573c0,0.292-0.006,0.795-0.017,1.509c0,0.101-0.002,0.256-0.006,0.469
	c-0.004,0.15-0.006,0.266-0.006,0.347c0,0.312,0.004,0.522,0.012,0.63c0.019,0.297,0.042,0.502,0.068,0.612
	c0.031,0.112,0.066,0.168,0.104,0.168c0.039,0,0.073,0.033,0.104,0.099c0,0.004,0.002,0.01,0.006,0.018s0.006,0.013,0.006,0.017
	c0,0.027-0.035,0.041-0.104,0.041c-0.02,0-0.046-0.002-0.081-0.006c-0.069-0.004-0.133-0.006-0.19-0.006
	c-0.062,0.004-0.152,0.006-0.272,0.006c-0.119,0-0.21-0.002-0.271-0.006c-0.081,0-0.139,0.001-0.174,0.003s-0.068,0.005-0.104,0.009
	c-0.058,0-0.087-0.024-0.087-0.075c0.015-0.092,0.038-0.141,0.068-0.145c0.031-0.008,0.064-0.06,0.1-0.155
	c0.03-0.093,0.062-0.284,0.092-0.573c0.031-0.304,0.053-0.772,0.064-1.405c0-0.096,0.002-0.2,0.006-0.312v-0.26
	c0-0.428-0.012-0.753-0.035-0.972c-0.027-0.306-0.062-0.504-0.104-0.597c-0.031-0.08-0.071-0.12-0.122-0.12
	c-0.041,0-0.072-0.045-0.092-0.134c0-0.054,0.028-0.081,0.086-0.081L66.896,61.023z"/>
<path fill="#A01C1C" d="M32.673,75.525c-0.086,0.204-0.194,0.307-0.327,0.307c-0.198,0-0.327-0.103-0.386-0.307
	c-0.139-0.37-0.297-0.759-0.475-1.168c-0.165-0.39-0.333-0.785-0.504-1.188c-0.363-0.864-0.64-1.478-0.832-1.841
	c-0.185-0.369-0.323-0.606-0.415-0.712c-0.086-0.105-0.146-0.158-0.179-0.158c-0.026,0-0.073-0.053-0.138-0.158
	c0-0.039,0.036-0.089,0.108-0.149c0.093-0.071,0.155-0.108,0.188-0.108c0.158,0.027,0.277,0.05,0.356,0.07
	c0.099,0.025,0.218,0.038,0.356,0.038c0.191,0,0.346-0.003,0.465-0.009c0.178-0.014,0.327-0.022,0.445-0.029
	c0.139,0,0.221,0.049,0.247,0.148c0.014,0.032,0.02,0.078,0.02,0.139c0,0.065-0.02,0.108-0.059,0.128
	c-0.073,0.033-0.129,0.095-0.168,0.188c-0.014,0.027-0.02,0.076-0.02,0.148c0,0.106,0.02,0.237,0.059,0.396
	c0.06,0.257,0.244,0.702,0.554,1.335c0.099,0.185,0.178,0.383,0.237,0.594c0.06,0.205,0.119,0.374,0.179,0.505
	c0.052,0.106,0.092,0.165,0.118,0.178c0.033,0,0.076-0.056,0.129-0.167c0.059-0.119,0.122-0.277,0.188-0.476
	c0.059-0.178,0.139-0.366,0.237-0.564c0.271-0.548,0.445-0.943,0.524-1.187c0.092-0.278,0.138-0.466,0.138-0.564
	c0-0.184-0.065-0.276-0.198-0.276c-0.105,0-0.158-0.083-0.158-0.248c0-0.007,0.003-0.029,0.01-0.069v-0.089
	c0.02-0.072,0.076-0.108,0.168-0.108c0.191,0.02,0.422,0.028,0.692,0.028c0.178,0,0.317-0.003,0.416-0.009
	c0.151-0.014,0.29-0.022,0.416-0.029c0.033,0,0.069,0.019,0.109,0.059c0.02,0.02,0.029,0.04,0.029,0.06l-0.01,0.04
	c-0.106,0.225-0.182,0.336-0.228,0.336c-0.033,0-0.085,0.04-0.158,0.118c-0.066,0.08-0.175,0.268-0.327,0.564
	c-0.172,0.351-0.416,0.907-0.732,1.672c-0.178,0.416-0.356,0.842-0.535,1.277c-0.146,0.355-0.33,0.781-0.554,1.275L32.673,75.525z"
	/>
<path fill="#A01C1C" d="M40.519,70.943c0.56,0.562,0.841,1.237,0.841,2.028c0,0.786-0.281,1.455-0.841,2.009
	c-0.561,0.555-1.244,0.832-2.048,0.832c-0.785,0-1.461-0.277-2.029-0.832c-0.561-0.554-0.841-1.223-0.841-2.009
	c0-0.791,0.28-1.467,0.841-2.028c0.561-0.561,1.237-0.841,2.029-0.841C39.275,70.103,39.958,70.383,40.519,70.943 M38.451,70.607
	c-0.62,0-1.046,0.234-1.276,0.703c-0.231,0.468-0.346,1.022-0.346,1.661c0,0.627,0.158,1.165,0.475,1.613
	c0.316,0.441,0.709,0.679,1.177,0.713c0.251,0,0.47-0.053,0.658-0.158c0.188-0.106,0.361-0.268,0.52-0.486
	c0.151-0.21,0.264-0.449,0.336-0.717c0.072-0.267,0.109-0.585,0.109-0.954c-0.033-0.674-0.155-1.233-0.366-1.683
	c-0.218-0.455-0.643-0.683-1.277-0.683L38.451,70.607z"/>
<path fill="#A01C1C" d="M41.884,67.5c0.159,0.021,0.33,0.03,0.515,0.03h0.504c0.099,0,0.174-0.003,0.228-0.01
	c0.052-0.014,0.128-0.026,0.228-0.04c0.006,0,0.016-0.003,0.029-0.01h0.03c0.092,0,0.139,0.057,0.139,0.168
	c-0.014,0.133-0.023,0.225-0.03,0.277v0.208v0.979c0,0.501-0.01,1.362-0.03,2.582c0,0.172-0.003,0.439-0.01,0.802
	c-0.006,0.258-0.01,0.455-0.01,0.594c0,0.534,0.006,0.894,0.02,1.078c0.033,0.509,0.072,0.857,0.119,1.049
	c0.053,0.191,0.112,0.287,0.178,0.287c0.066,0,0.125,0.056,0.178,0.169c0,0.006,0.003,0.016,0.01,0.028
	c0.006,0.014,0.009,0.024,0.009,0.031c0,0.046-0.059,0.068-0.178,0.068c-0.033,0-0.08-0.004-0.139-0.01
	c-0.119-0.007-0.228-0.01-0.327-0.01c-0.105,0.007-0.261,0.01-0.465,0.01c-0.205,0-0.359-0.003-0.465-0.01
	c-0.138,0-0.237,0.002-0.297,0.005c-0.059,0.003-0.118,0.008-0.178,0.015c-0.099,0-0.149-0.043-0.149-0.128
	c0.026-0.159,0.066-0.242,0.119-0.248c0.053-0.014,0.109-0.103,0.168-0.267c0.053-0.159,0.106-0.485,0.159-0.98
	c0.053-0.521,0.089-1.322,0.109-2.404c0-0.164,0.003-0.343,0.01-0.534v-0.444c0-0.733-0.02-1.286-0.06-1.663
	c-0.046-0.521-0.105-0.86-0.178-1.019c-0.052-0.139-0.122-0.209-0.208-0.209c-0.073,0-0.125-0.075-0.158-0.227
	c0-0.092,0.049-0.139,0.148-0.139L41.884,67.5z"/>
<path fill="#A01C1C" d="M44.843,70.925c0.706-0.548,1.418-0.822,2.137-0.822c0.363,0,0.758,0.057,1.187,0.168
	c0.409,0.106,0.808,0.284,1.197,0.535c0,0.006,0.003,0.009,0.01,0.009c0.02,0.021,0.029,0.063,0.029,0.129v0.09v0.059
	c-0.006,0.06-0.017,0.129-0.029,0.208c-0.007,0.106-0.01,0.356-0.01,0.752c0,0.166-0.003,0.509-0.01,1.029l-0.01,0.405
	c0.013,0.614,0.036,1.033,0.069,1.257c0.04,0.237,0.086,0.399,0.138,0.484c0.047,0.079,0.104,0.129,0.169,0.149
	c0.059,0.02,0.102,0.099,0.128,0.236c0.02,0.04,0.03,0.07,0.03,0.09c0,0.053-0.056,0.079-0.167,0.079l-0.07-0.01
	c-0.159-0.021-0.271-0.033-0.336-0.04c-0.079-0.006-0.217-0.009-0.416-0.009h-0.327c-0.139,0-0.251,0.006-0.336,0.019
	c-0.053,0-0.089-0.019-0.109-0.059s-0.029-0.083-0.029-0.129l0.02-0.188c0-0.006,0.003-0.016,0.01-0.029v-0.03
	c0-0.039-0.013-0.059-0.04-0.059c-0.026,0.007-0.066,0.026-0.119,0.059c-0.086,0.047-0.162,0.096-0.228,0.149
	c-0.06,0.052-0.135,0.095-0.228,0.129c-0.376,0.145-0.755,0.217-1.138,0.217c-0.33,0-0.659-0.06-0.989-0.178
	c-0.66-0.258-0.99-0.765-0.99-1.523c0-0.983,0.293-1.613,0.88-1.891c0.607-0.276,1.333-0.415,2.177-0.415
	c0.092,0,0.162,0.003,0.208,0.01l0.208,0.03c0.25,0,0.375-0.116,0.375-0.348c-0.006-0.118-0.043-0.247-0.108-0.386
	c-0.06-0.124-0.225-0.214-0.495-0.267c-0.277-0.053-0.514-0.082-0.712-0.089c-0.699,0-1.25,0.204-1.652,0.613
	c0,0.02-0.023,0.029-0.069,0.029c-0.034,0-0.063-0.006-0.089-0.02c-0.079-0.033-0.148-0.072-0.208-0.119
	c-0.072-0.072-0.108-0.142-0.108-0.207c0-0.046,0.01-0.083,0.029-0.108L44.843,70.925z M47.969,72.25
	c-0.837,0.006-1.421,0.175-1.751,0.505c-0.323,0.323-0.485,0.712-0.485,1.167c0,0.469,0.181,0.824,0.544,1.068
	c0.171,0.106,0.35,0.159,0.535,0.159c0.257,0,0.557-0.096,0.9-0.287c0.033-0.013,0.076-0.043,0.129-0.089l0.03-0.02
	c0.046-0.04,0.076-0.066,0.089-0.08c0.099-0.073,0.158-0.162,0.178-0.268c0.013-0.071,0.026-0.174,0.04-0.306
	c0.006-0.086,0.01-0.231,0.01-0.436c0-0.225,0.003-0.399,0.01-0.524l0.03-0.297c0.006-0.066,0.009-0.159,0.009-0.277
	c0-0.185-0.033-0.287-0.099-0.308c-0.06-0.025-0.116-0.038-0.168-0.038V72.25z"/>
<path fill="#A01C1C" d="M54.242,73.131v0.01V73.131V73.12v-0.01v-0.029v-0.079v-0.09c0-0.092,0.004-0.19,0.01-0.296v-0.237
	c0-0.746-0.096-1.185-0.287-1.317c-0.111-0.091-0.283-0.137-0.515-0.137c-0.204,0-0.451,0.038-0.741,0.118
	c-0.093,0.026-0.158,0.046-0.198,0.059c-0.079,0.027-0.142,0.05-0.188,0.07c-0.244,0.099-0.373,0.28-0.386,0.543
	c0,0.205,0.001,0.354,0.004,0.45c0.004,0.096,0.009,0.2,0.016,0.312c0.013,0.118,0.02,0.242,0.02,0.371v0.697
	c0.013,0.588,0.032,0.999,0.06,1.237c0.026,0.23,0.062,0.389,0.108,0.475c0.04,0.079,0.08,0.129,0.119,0.148
	c0.046,0.02,0.082,0.099,0.108,0.237c0.02,0.027,0.03,0.056,0.03,0.089c0,0.053-0.057,0.08-0.168,0.08
	c-0.1-0.015-0.241-0.027-0.427-0.04c-0.092-0.006-0.24-0.01-0.444-0.01h-0.466c-0.151,0-0.306,0.01-0.464,0.029
	c-0.053,0-0.093-0.022-0.12-0.069c-0.019-0.039-0.029-0.082-0.029-0.129c0.033-0.139,0.076-0.217,0.128-0.237
	c0.06-0.02,0.119-0.082,0.179-0.188c0.059-0.112,0.108-0.312,0.148-0.604c0.039-0.298,0.059-0.788,0.059-1.475
	c0.039-0.527,0.059-0.95,0.059-1.267c0-0.218-0.006-0.365-0.02-0.445c-0.026-0.33-0.076-0.547-0.147-0.653
	c-0.066-0.105-0.142-0.164-0.228-0.178c-0.074-0.006-0.135-0.095-0.188-0.268c0-0.092,0.053-0.139,0.159-0.139
	c0.026,0,0.072,0.004,0.137,0.01c0.067,0.008,0.116,0.012,0.149,0.012c0.014,0,0.051-0.004,0.109-0.012h0.099h0.029
	c0.225-0.013,0.383-0.02,0.475-0.02h0.209c0.046,0,0.118-0.006,0.217-0.019c0.132,0,0.198,0.05,0.198,0.148v0.118v0.069
	c0,0.118,0.014,0.191,0.039,0.217c0.021,0.021,0.043,0.03,0.07,0.03c0.06,0,0.134-0.023,0.227-0.069
	c0.073-0.026,0.182-0.072,0.327-0.139c0.112-0.053,0.221-0.092,0.326-0.118c0.317-0.086,0.627-0.148,0.93-0.188
	c0.152-0.019,0.287-0.03,0.406-0.03c0.145,0,0.247,0.008,0.307,0.021c0.132,0.026,0.273,0.083,0.426,0.168
	c0.139,0.079,0.233,0.225,0.286,0.436c0.027,0.086,0.04,0.212,0.04,0.376c0,0.112-0.007,0.202-0.02,0.268
	c-0.021,0.264-0.029,0.573-0.029,0.93v0.178v0.169v0.178c0,0.099,0.003,0.162,0.009,0.188v0.029v0.029v0.011
	c0,0.475,0.002,0.803,0.005,0.984c0.004,0.181,0.012,0.328,0.025,0.439c0.032,0.305,0.072,0.521,0.118,0.653
	c0.046,0.126,0.096,0.208,0.148,0.247c0.046,0.04,0.09,0.103,0.129,0.188c0,0.086-0.053,0.129-0.158,0.129
	c-0.159-0.021-0.296-0.03-0.415-0.03h-0.416c-0.158,0-0.297,0.01-0.415,0.03c-0.119,0.02-0.258,0.04-0.416,0.06
	c-0.053,0-0.108-0.02-0.168-0.06c-0.073-0.04-0.109-0.083-0.109-0.129c0.033-0.111,0.083-0.171,0.148-0.179
	c0.073-0.013,0.142-0.071,0.208-0.177c0.072-0.113,0.132-0.32,0.178-0.624c0.021-0.145,0.035-0.336,0.044-0.573
	c0.012-0.237,0.017-0.555,0.017-0.95L54.242,73.131z"/>
<path fill="#A01C1C" d="M59.546,70.488c0.105,0.054,0.194,0.079,0.267,0.079c0.04,0,0.066-0.006,0.08-0.02
	c0.046-0.046,0.068-0.125,0.068-0.237c0-0.104,0.003-0.271,0.011-0.495c0.006-0.158,0.01-0.279,0.01-0.365
	c0-0.416-0.013-0.683-0.04-0.802c-0.053-0.323-0.115-0.528-0.188-0.614c-0.08-0.085-0.165-0.128-0.258-0.128
	c-0.099,0-0.178-0.076-0.237-0.228c0-0.053,0.02-0.092,0.06-0.119c0.053-0.039,0.099-0.06,0.139-0.06
	c0.178,0.021,0.323,0.04,0.436,0.06c0.132,0.021,0.277,0.03,0.435,0.03c0.151,0,0.25-0.01,0.297-0.03
	c0.053-0.02,0.151-0.039,0.297-0.06c0.007,0,0.017-0.003,0.03-0.009h0.029c0.093,0,0.139,0.056,0.139,0.167
	c-0.014,0.126-0.026,0.219-0.04,0.277v0.209c0,0.315-0.003,0.643-0.009,0.979c-0.008,0.501-0.018,1.362-0.03,2.583v0.465
	c-0.007,0.224-0.01,0.355-0.01,0.396c0,0.699,0.02,1.227,0.06,1.583c0.046,0.488,0.111,0.821,0.197,1
	c0.079,0.158,0.169,0.237,0.268,0.237c0.093,0,0.158,0.046,0.198,0.139l0.009,0.029c0,0.033-0.019,0.079-0.059,0.139
	c-0.061,0.073-0.109,0.108-0.148,0.108c-0.033,0-0.079-0.004-0.139-0.01c-0.119-0.007-0.228-0.01-0.326-0.01
	c-0.105,0.006-0.265,0.01-0.476,0.01c-0.151,0-0.228-0.004-0.228-0.01c-0.079,0-0.158,0.006-0.237,0.02
	c-0.054,0-0.109-0.029-0.168-0.089c-0.06-0.06-0.089-0.109-0.089-0.148c-0.02-0.178-0.063-0.267-0.13-0.267
	c-0.013,0-0.025,0.006-0.039,0.02c-0.065,0.033-0.181,0.099-0.347,0.197c-0.369,0.212-0.698,0.317-0.988,0.317
	c-0.574,0-1.079-0.254-1.515-0.763c-0.435-0.507-0.653-1.15-0.653-1.929c0-0.771,0.219-1.465,0.653-2.079
	c0.416-0.593,1.003-0.89,1.762-0.89c0.211,0.014,0.386,0.057,0.524,0.129c0.099,0.053,0.234,0.122,0.405,0.208L59.546,70.488z
	 M59.922,73.694c0-0.132,0.01-0.448,0.029-0.949c0.006-0.409,0.013-0.706,0.021-0.891c0-0.165-0.021-0.29-0.061-0.377
	c-0.038-0.092-0.121-0.2-0.247-0.326c-0.244-0.244-0.544-0.365-0.9-0.365c-0.408,0-0.771,0.188-1.088,0.562
	c-0.258,0.305-0.386,0.707-0.386,1.208c0,0.152,0.007,0.271,0.02,0.355c0.073,0.667,0.234,1.161,0.484,1.484
	c0.257,0.324,0.571,0.512,0.94,0.564h0.099c0.053,0.007,0.083,0.01,0.09,0.01c0.322,0,0.593-0.132,0.812-0.396
	c0.118-0.159,0.177-0.3,0.177-0.426v-0.475L59.922,73.694z"/>
<path fill="#A01C1C" d="M67.075,70.943c0.561,0.562,0.841,1.237,0.841,2.028c0,0.786-0.28,1.455-0.841,2.009
	c-0.561,0.555-1.243,0.832-2.048,0.832c-0.785,0-1.461-0.277-2.028-0.832c-0.561-0.554-0.842-1.223-0.842-2.009
	c0-0.791,0.281-1.467,0.842-2.028c0.56-0.561,1.236-0.841,2.028-0.841C65.832,70.103,66.515,70.383,67.075,70.943 M65.008,70.607
	c-0.62,0-1.046,0.234-1.277,0.703c-0.23,0.468-0.346,1.022-0.346,1.661c0,0.627,0.158,1.165,0.475,1.613
	c0.316,0.441,0.71,0.679,1.177,0.713c0.252,0,0.471-0.053,0.659-0.158c0.188-0.106,0.361-0.268,0.52-0.486
	c0.151-0.21,0.263-0.449,0.336-0.717c0.072-0.267,0.108-0.585,0.108-0.954c-0.033-0.674-0.154-1.233-0.365-1.683
	c-0.218-0.455-0.644-0.683-1.276-0.683L65.008,70.607z"/>
<polygon fill="#A01C1C" points="33.114,80.649 33.114,81.163 31.02,81.163 31.02,78.265 33.045,78.265 33.045,78.779 31.638,78.779 
	31.638,79.4 32.79,79.4 32.79,79.918 31.638,79.918 31.638,80.649 "/>
<path fill="#A01C1C" d="M34.389,79.227c0.124,0,0.367,0.065,0.433,0.158v-1.027h0.576v2.806h-0.576v-0.127
	c-0.07,0.088-0.267,0.158-0.394,0.158c-0.561,0-0.97-0.418-0.97-0.982C33.458,79.648,33.829,79.227,34.389,79.227 M34.467,80.761
	c0.262,0,0.433-0.293,0.433-0.549c0-0.255-0.167-0.552-0.433-0.552c-0.24,0-0.434,0.247-0.434,0.552
	C34.033,80.514,34.227,80.761,34.467,80.761"/>
<path fill="#A01C1C" d="M36.081,78.995c-0.166,0-0.301-0.128-0.301-0.29c0-0.158,0.136-0.282,0.301-0.282
	c0.174,0,0.306,0.124,0.306,0.282C36.387,78.867,36.255,78.995,36.081,78.995 M36.371,81.163h-0.572v-1.91h0.572V81.163z"/>
<path fill="#A01C1C" d="M38.554,80.843c-0.216,0.239-0.499,0.352-0.8,0.352c-0.556,0-1.004-0.418-1.004-0.982
	c0-0.563,0.448-0.985,1.004-0.985c0.301,0,0.583,0.112,0.8,0.352l-0.402,0.363c-0.085-0.196-0.271-0.243-0.398-0.243
	c-0.236,0-0.433,0.209-0.433,0.514c0,0.302,0.197,0.511,0.433,0.511c0.127,0,0.317-0.035,0.398-0.244L38.554,80.843z"/>
<path fill="#A01C1C" d="M39.195,78.995c-0.166,0-0.301-0.128-0.301-0.29c0-0.158,0.135-0.282,0.301-0.282
	c0.174,0,0.306,0.124,0.306,0.282C39.501,78.867,39.369,78.995,39.195,78.995 M39.485,81.163h-0.572v-1.91h0.572V81.163z"/>
<path fill="#A01C1C" d="M41.842,80.212c0,0.564-0.448,0.982-1.009,0.982c-0.556,0-1.005-0.418-1.005-0.982
	c0-0.563,0.449-0.985,1.005-0.985C41.395,79.227,41.842,79.648,41.842,80.212 M40.401,80.212c0,0.302,0.197,0.511,0.433,0.511
	c0.24,0,0.437-0.209,0.437-0.511c0-0.305-0.197-0.514-0.437-0.514C40.598,79.698,40.401,79.907,40.401,80.212"/>
<path fill="#A01C1C" d="M43.975,81.163h-0.571v-1.091c0-0.289-0.078-0.416-0.302-0.416c-0.232,0-0.367,0.127-0.367,0.416v1.091
	h-0.572v-1.91h0.572v0.183c0.147-0.144,0.348-0.209,0.514-0.209c0.538,0,0.727,0.259,0.727,0.846V81.163z"/>
<path fill="#A01C1C" d="M46.297,80.34h-1.36c0,0.225,0.228,0.383,0.417,0.383c0.186,0,0.355-0.073,0.444-0.236l0.383,0.352
	c-0.155,0.209-0.391,0.356-0.827,0.356c-0.626,0-1.009-0.418-1.009-0.982c0-0.563,0.371-0.985,0.974-0.985
	c0.604,0,0.978,0.413,0.978,0.985V80.34z M45.698,79.977c-0.031-0.182-0.162-0.278-0.379-0.278c-0.208,0-0.336,0.112-0.371,0.278
	H45.698z"/>
<path fill="#A01C1C" d="M48.098,80.579c0,0.395-0.348,0.615-0.78,0.615c-0.275,0-0.549-0.136-0.765-0.352l0.375-0.375
	c0.108,0.132,0.263,0.231,0.391,0.243s0.236-0.043,0.255-0.101c0.047-0.146-0.22-0.155-0.301-0.178
	c-0.306-0.093-0.661-0.221-0.661-0.599c0-0.452,0.472-0.607,0.708-0.607c0.27,0,0.545,0.124,0.765,0.348l-0.371,0.371
	c-0.101-0.131-0.274-0.235-0.394-0.235c-0.062,0-0.186,0.022-0.186,0.146C47.132,80.085,48.098,79.977,48.098,80.579"/>
<polygon fill="#A01C1C" points="51.784,80.649 51.784,81.163 49.689,81.163 49.689,78.265 51.714,78.265 51.714,78.779 
	50.308,78.779 50.308,79.4 51.459,79.4 51.459,79.918 50.308,79.918 50.308,80.649 "/>
<path fill="#A01C1C" d="M53.229,80.208l0.676,0.955h-0.657l-0.325-0.526L52.6,81.163h-0.661l0.68-0.955l-0.68-0.954h0.657
	l0.323,0.521c0.117-0.17,0.218-0.355,0.329-0.521h0.657L53.229,80.208z"/>
<path fill="#A01C1C" d="M54.021,80.212c0-0.563,0.41-0.985,0.971-0.985c0.131,0,0.336,0.065,0.394,0.158v-0.132h0.576v2.807h-0.576
	v-1.023c-0.062,0.088-0.306,0.158-0.433,0.158C54.392,81.194,54.021,80.776,54.021,80.212 M54.592,80.212
	c0,0.302,0.197,0.549,0.438,0.549c0.259,0,0.433-0.293,0.433-0.549c0-0.251-0.174-0.552-0.433-0.552
	C54.789,79.66,54.592,79.907,54.592,80.212"/>
<path fill="#A01C1C" d="M56.493,79.253h0.572v1.091c0,0.293,0.082,0.417,0.301,0.417c0.232,0,0.368-0.124,0.368-0.417v-1.091h0.571
	v1.91h-0.571v-0.174c-0.108,0.135-0.344,0.205-0.511,0.205c-0.537,0-0.73-0.255-0.73-0.851V79.253z"/>
<path fill="#A01C1C" d="M59.043,78.995c-0.165,0-0.301-0.128-0.301-0.29c0-0.158,0.136-0.282,0.301-0.282
	c0.175,0,0.306,0.124,0.306,0.282C59.349,78.867,59.218,78.995,59.043,78.995 M59.333,81.163h-0.572v-1.91h0.572V81.163z"/>
<path fill="#A01C1C" d="M61.227,80.579c0,0.395-0.347,0.615-0.781,0.615c-0.273,0-0.548-0.136-0.764-0.352l0.374-0.375
	c0.108,0.132,0.263,0.231,0.39,0.243c0.128,0.012,0.236-0.043,0.256-0.101c0.047-0.146-0.221-0.155-0.301-0.178
	c-0.307-0.093-0.661-0.221-0.661-0.599c0-0.452,0.472-0.607,0.706-0.607c0.271,0,0.546,0.124,0.766,0.348l-0.37,0.371
	c-0.101-0.131-0.274-0.235-0.396-0.235c-0.062,0-0.185,0.022-0.185,0.146C60.261,80.085,61.227,79.977,61.227,80.579"/>
<path fill="#A01C1C" d="M61.864,78.995c-0.166,0-0.302-0.128-0.302-0.29c0-0.158,0.136-0.282,0.302-0.282
	c0.174,0,0.305,0.124,0.305,0.282C62.169,78.867,62.038,78.995,61.864,78.995 M62.153,81.163h-0.571v-1.91h0.571V81.163z"/>
<path fill="#A01C1C" d="M63.483,80.723c0.104,0,0.169-0.043,0.243-0.097v0.472c-0.089,0.05-0.197,0.097-0.313,0.097
	c-0.49,0-0.71-0.209-0.71-0.844v-0.626h-0.214v-0.472h0.214v-0.548h0.57v0.548h0.453v0.472h-0.453v0.626
	C63.273,80.49,63.27,80.723,63.483,80.723"/>
<path fill="#A01C1C" d="M64.221,79.574c0.213-0.239,0.499-0.351,0.796-0.351c0.572,0,0.805,0.312,0.805,0.605v1.334h-0.572v-0.136
	c-0.089,0.093-0.247,0.163-0.425,0.163c-0.522,0-0.723-0.232-0.723-0.588c0-0.402,0.324-0.672,0.85-0.672h0.298
	c0-0.143-0.108-0.236-0.271-0.236c-0.166,0-0.247,0.03-0.333,0.123L64.221,79.574z M65.249,80.363h-0.336
	c-0.15,0-0.264,0.104-0.24,0.251c0.016,0.104,0.108,0.147,0.24,0.147c0.251,0,0.336-0.144,0.336-0.229V80.363z"/>
<path fill="#A01C1C" d="M67.733,80.579c0,0.395-0.349,0.615-0.781,0.615c-0.273,0-0.548-0.136-0.765-0.352l0.375-0.375
	c0.107,0.132,0.263,0.231,0.39,0.243c0.128,0.012,0.236-0.043,0.256-0.101c0.047-0.146-0.221-0.155-0.302-0.178
	c-0.306-0.093-0.66-0.221-0.66-0.599c0-0.452,0.471-0.607,0.706-0.607c0.271,0,0.546,0.124,0.766,0.348l-0.37,0.371
	c-0.102-0.131-0.275-0.235-0.396-0.235c-0.062,0-0.186,0.022-0.186,0.146C66.767,80.085,67.733,79.977,67.733,80.579"/>
</svg>
