<?xml version="1.0" encoding="utf-8"?>
<!-- Generator: Adobe Illustrator 16.0.0, SVG Export Plug-In . SVG Version: 6.00 Build 0)  -->
<!DOCTYPE svg PUBLIC "-//W3C//DTD SVG 1.1//EN" "http://www.w3.org/Graphics/SVG/1.1/DTD/svg11.dtd">
<svg version="1.1" id="Layer_1" xmlns="http://www.w3.org/2000/svg" xmlns:xlink="http://www.w3.org/1999/xlink" x="0px" y="0px"
	 width="100px" height="100px" viewBox="0 0 100 100" enable-background="new 0 0 100 100" xml:space="preserve">
<g>
	<defs>
		<rect id="SVGID_1_" x="13.28" y="3.087" width="73.603" height="93.398"/>
	</defs>
	<clipPath id="SVGID_2_">
		<use xlink:href="#SVGID_1_"  overflow="visible"/>
	</clipPath>
</g>
<path fill="#C12929" d="M13.28,3.087h73.603v56.378H13.28V3.087z M50.199,43.89c0.337-0.187,0.449-0.674,0.225-1.011l-6.741-11.236
	c1.46-0.299,2.883-1.011,4.007-2.097c1.311-1.273,2.809-3.52,2.809-7.34c0-1.835-0.861-3.82-2.209-5.281
	c-1.236-1.348-3.521-2.847-7.341-2.847H28.44c-0.375,0-0.749,0.337-0.749,0.712v28.538c0,0.299,0.188,0.524,0.412,0.637
	c0.112,0.037,0.225,0.075,0.337,0.075c0.225,0,0.375-0.075,0.524-0.187l4.27-3.82l0.075-0.074c0.113-0.113,0.188-0.3,0.188-0.487
	v-7.715h8.501l7.153,11.91c0.15,0.188,0.375,0.337,0.637,0.337C49.937,44.002,50.05,43.965,50.199,43.89 M29.189,15.577h2.771
	v14.681h-2.771V15.577z M31.96,31.756v7.378l-2.771,2.472v-9.85H31.96z M41.099,30.257h-7.603V17.562L41.099,30.257z M46.679,28.423
	c-1.273,1.199-2.733,1.686-3.819,1.798l-8.764-14.643h6.854c3.258,0,5.206,1.273,6.254,2.396c1.311,1.386,1.835,3.109,1.835,4.232
	C49.039,25.501,47.728,27.374,46.679,28.423 M73.379,43.965c0.3-0.262,0.412-0.711,0.188-1.049l-8.839-13.745l8.839-14.044
	c0.225-0.375,0.112-0.824-0.188-1.049c-0.374-0.225-0.824-0.112-1.05,0.263L63.417,28.46h-3.371V14.715
	c0-0.412-0.337-0.749-0.786-0.749c-0.412,0-0.749,0.337-0.749,0.749V28.46h-2.847V14.715c0-0.412-0.336-0.749-0.786-0.749
	c-0.374,0-0.749,0.337-0.749,0.749v28.576l0.037,0.188c0.038,0.187,0.15,0.375,0.338,0.487l0.149,0.037
	c0.074,0.038,0.149,0.038,0.225,0.038c0.263,0,0.524-0.075,0.675-0.337l8.276-13.108l8.5,13.146c0.15,0.225,0.376,0.299,0.601,0.299
	C73.079,44.04,73.229,44.002,73.379,43.965 M55.664,40.707V29.958h6.816L55.664,40.707z"/>
<path fill="#A01C1C" d="M74.396,52.661l12.487,4.491v39.333H13.28V57.152l12.771-4.491H74.396z M33.431,70.593l-2.375-4.544
	c1.381-0.234,2.265-1.188,2.265-2.651c0-1.712-1.215-2.638-2.817-2.638h-3.742v9.833h0.746v-4.53h2.706l2.348,4.53H33.431z
	 M30.407,61.423c1.257,0,2.168,0.636,2.168,1.988c0,1.354-0.911,1.988-2.168,1.988h-2.899v-3.977H30.407 M40.601,67.417v-0.318
	c0-2.029-1.009-3.245-2.666-3.245c-1.671,0-2.665,1.271-2.665,3.411c0,2.224,0.994,3.411,2.831,3.411
	c1.105,0,1.726-0.346,2.403-1.022l-0.525-0.414c-0.566,0.566-1.05,0.801-1.836,0.801c-1.409,0-2.168-0.938-2.168-2.623H40.601z
	 M39.662,65.594c0.166,0.414,0.207,0.621,0.235,1.257h-3.922c0.027-0.636,0.069-0.843,0.234-1.257
	c0.29-0.69,0.967-1.118,1.727-1.118S39.371,64.903,39.662,65.594 M45.297,64.462v-0.525h-1.505v-1.45
	c0-0.69,0.318-1.104,1.022-1.104h0.483V60.76H44.69c-1.05,0-1.602,0.732-1.602,1.74v1.437h-0.911v0.525h0.911v6.131h0.704v-6.131
	H45.297z M49.261,70.593v-0.622h-0.483c-0.787,0-1.022-0.373-1.022-1.118V60.76h-0.704v8.106c0,1.035,0.524,1.727,1.602,1.727
	H49.261z M55.643,67.417v-0.318c0-2.029-1.009-3.245-2.666-3.245c-1.671,0-2.665,1.271-2.665,3.411c0,2.224,0.994,3.411,2.831,3.411
	c1.104,0,1.726-0.346,2.402-1.022l-0.524-0.414c-0.566,0.566-1.05,0.801-1.837,0.801c-1.408,0-2.168-0.938-2.168-2.623H55.643z
	 M54.702,65.594c0.166,0.414,0.208,0.621,0.235,1.257h-3.922c0.027-0.636,0.069-0.843,0.234-1.257
	c0.291-0.69,0.967-1.118,1.727-1.118S54.412,64.903,54.702,65.594 M63.308,70.593l-2.679-4.171l2.195-2.485h-0.897l-3.301,3.756
	V60.76h-0.704v9.833h0.704v-1.906l1.519-1.754l2.293,3.66H63.308z M67.576,70.593v-0.622h-0.483c-0.704,0-1.021-0.414-1.021-1.104
	v-4.404h1.505v-0.525h-1.505V61.81h-0.705v2.127h-0.911v0.525h0.911v4.391c0,1.008,0.553,1.74,1.603,1.74H67.576z M73.694,69.943
	c0.704-0.704,0.829-1.726,0.829-2.679s-0.125-1.975-0.829-2.68c-0.47-0.469-1.104-0.731-1.851-0.731
	c-0.745,0-1.381,0.263-1.851,0.731c-0.703,0.705-0.828,1.727-0.828,2.68s0.125,1.975,0.828,2.679c0.47,0.47,1.105,0.732,1.851,0.732
	C72.59,70.676,73.225,70.413,73.694,69.943 M73.225,65.041c0.553,0.553,0.594,1.45,0.594,2.224s-0.041,1.671-0.594,2.224
	c-0.358,0.358-0.842,0.565-1.381,0.565c-0.538,0-1.021-0.207-1.381-0.565c-0.552-0.553-0.594-1.45-0.594-2.224
	s0.042-1.671,0.594-2.224c0.359-0.358,0.843-0.565,1.381-0.565C72.383,64.476,72.866,64.683,73.225,65.041 M33.901,87.167
	l-3.548-6.076l3.038-3.756h-0.898l-4.984,6.146v-6.146h-0.746v9.832h0.746v-2.665l2.347-2.845l3.163,5.51H33.901z M39.744,81.063
	c-0.469-0.47-0.966-0.636-1.602-0.636c-0.787,0-1.561,0.346-1.947,0.967v-0.884h-0.704v6.656h0.704v-4.102
	c0-1.077,0.635-2.016,1.781-2.016c0.553,0,0.856,0.124,1.257,0.524L39.744,81.063z M45.601,83.991v-0.318
	c0-2.029-1.009-3.245-2.666-3.245c-1.671,0-2.665,1.271-2.665,3.411c0,2.224,0.994,3.412,2.831,3.412
	c1.105,0,1.726-0.347,2.403-1.023l-0.525-0.414c-0.566,0.566-1.05,0.801-1.836,0.801c-1.409,0-2.168-0.938-2.168-2.623H45.601z
	 M44.662,82.168c0.166,0.415,0.207,0.621,0.235,1.257h-3.922c0.027-0.636,0.069-0.842,0.234-1.257
	c0.29-0.69,0.967-1.118,1.727-1.118S44.371,81.478,44.662,82.168 M52.493,87.167V82.61c0-1.395-0.829-2.183-2.583-2.183
	c-1.078,0-1.782,0.235-2.348,1.022l0.511,0.441c0.415-0.607,0.898-0.842,1.837-0.842c1.353,0,1.877,0.565,1.877,1.63v0.745h-2.154
	c-1.45,0-2.32,0.704-2.32,1.92c0,0.497,0.18,0.979,0.483,1.298c0.428,0.441,0.98,0.607,1.96,0.607c0.94,0,1.464-0.18,2.03-0.746
	v0.663H52.493z M51.788,84.848c0,0.621-0.124,1.035-0.372,1.271c-0.47,0.455-1.05,0.51-1.658,0.51c-1.201,0-1.74-0.414-1.74-1.298
	s0.553-1.339,1.699-1.339h2.071V84.848z M57.493,87.167v-0.621H57.01c-0.704,0-1.021-0.414-1.021-1.105v-4.404h1.505v-0.525h-1.505
	v-2.126h-0.705v2.126h-0.911v0.525h0.911v4.391c0,1.009,0.553,1.74,1.603,1.74H57.493z M59.524,78.205h0.87v-0.87h-0.87V78.205z
	 M59.607,87.167h0.704v-6.656h-0.704V87.167z M67.396,80.511h-0.773l-2.003,5.828l-2.002-5.828h-0.773l2.431,6.656h0.69
	L67.396,80.511z M72.935,86.519c0.704-0.705,0.829-1.727,0.829-2.68c0-0.952-0.125-1.974-0.829-2.679
	c-0.47-0.47-1.104-0.732-1.851-0.732c-0.745,0-1.381,0.263-1.851,0.732c-0.704,0.705-0.828,1.727-0.828,2.679
	c0,0.953,0.124,1.975,0.828,2.68c0.47,0.469,1.105,0.731,1.851,0.731C71.83,87.25,72.465,86.987,72.935,86.519 M72.465,81.615
	c0.553,0.553,0.594,1.45,0.594,2.224s-0.041,1.671-0.594,2.224c-0.358,0.359-0.842,0.565-1.381,0.565
	c-0.538,0-1.021-0.206-1.381-0.565c-0.552-0.553-0.594-1.45-0.594-2.224s0.042-1.671,0.594-2.224
	c0.359-0.358,0.843-0.565,1.381-0.565C71.623,81.05,72.106,81.257,72.465,81.615"/>
</svg>
