<?xml version="1.0" encoding="utf-8"?>
<!-- Generator: Adobe Illustrator 16.0.0, SVG Export Plug-In . SVG Version: 6.00 Build 0)  -->
<!DOCTYPE svg PUBLIC "-//W3C//DTD SVG 1.1//EN" "http://www.w3.org/Graphics/SVG/1.1/DTD/svg11.dtd">
<svg version="1.1" id="Layer_1" xmlns="http://www.w3.org/2000/svg" xmlns:xlink="http://www.w3.org/1999/xlink" x="0px" y="0px"
	 width="100px" height="100px" viewBox="0 0 100 100" enable-background="new 0 0 100 100" xml:space="preserve">
<g>
	<g>
		<path fill="#6F1100" d="M56.715,39.229c-1.56-0.046-3.123-0.08-4.667-0.103l-0.105,8.394l-0.006,0.49
			c0.245,0.147,0.479,0.288,0.71,0.43c0.035-2.874,0.073-5.747,0.108-8.62c1.313,0.017,2.627,0.043,3.939,0.077
			C56.702,39.674,56.709,39.451,56.715,39.229z"/>
	</g>
	<g>
		<path fill="#6F1100" d="M53.596,26.486l-0.247,0.17c-0.386,0.27-0.771,0.538-1.155,0.806l-0.054,4.307l-0.05,4.016
			c0.236,0.003,0.478,0.009,0.715,0.013c0.029-2.451,0.062-4.903,0.093-7.354c0.466-0.326,0.935-0.654,1.402-0.981
			c0.008-0.358,0.012-0.721,0.02-1.08c-0.241-0.003-0.48-0.005-0.724-0.007V26.486z"/>
	</g>
	<g>
		<path fill="#6F1100" d="M6.883,31.884c-0.423,3.601-0.818,7.221-1.182,10.805c0.28-0.038,0.562-0.073,0.842-0.112
			c0.31-2.999,0.639-5.999,0.989-8.999C7.315,33.011,7.1,32.446,6.883,31.884z"/>
	</g>
	<g>
		<path fill="#6F1100" d="M69.251,45.917c0.277-4.185,0.554-8.368,0.832-12.551c0.181-2.797,1.399-4.127,3.912-3.935
			c0.193,0.015,0.377,0.045,0.552,0.081c-0.464-0.457-1.097-0.721-1.887-0.783c-0.145-0.011-0.284-0.015-0.416-0.015
			c-1.23,0-2.668,0.385-2.863,3.402l-0.428,6.461l-0.402,6.088c-0.109,1.675,0.245,2.613,0.796,3.144
			C69.236,47.263,69.204,46.633,69.251,45.917z"/>
	</g>
	<g>
		<path fill="#6F1100" d="M63.848,26.835l-0.255,0.166c-0.393,0.255-0.787,0.512-1.179,0.769
			c-0.299,6.845-0.602,13.688-0.901,20.533c0.245,0.163,0.488,0.325,0.734,0.49c0.294-6.688,0.586-13.375,0.881-20.061
			c0.477-0.313,0.954-0.626,1.434-0.936c0.018-0.361,0.036-0.722,0.053-1.08c-0.254-0.013-0.505-0.023-0.761-0.034L63.848,26.835z"
			/>
	</g>
	<g>
		<path fill="#6F1100" d="M80.433,30.017c0.312,0.946,0.415,1.98,0.302,3.075l-0.721,7.062l-0.556,5.45
			c-0.43,4.073-3.383,6.603-7.712,6.603c-0.293,0-0.599-0.013-0.901-0.035c-0.994-0.077-1.908-0.271-2.731-0.569
			c1.095,0.704,2.47,1.147,4.066,1.27c4.44,0.349,7.553-1.971,7.98-6.04c0.426-4.17,0.85-8.342,1.275-12.513
			C81.609,32.673,81.247,31.206,80.433,30.017z"/>
	</g>
	<g>
		<path fill="#6F1100" d="M62.939,50.712l-0.03,0.59l-0.588-0.029c-1.84-0.09-3.699-0.164-5.548-0.22
			c-0.005,0.22-0.012,0.441-0.018,0.66c2.294,0.061,4.591,0.147,6.885,0.26c0.017-0.359,0.035-0.721,0.053-1.08
			c-0.246-0.165-0.493-0.328-0.739-0.49C62.95,50.504,62.946,50.608,62.939,50.712z"/>
	</g>
	<g>
		<path fill="#6F1100" d="M53.479,50.378l-0.01,0.589l-0.59-0.01c-1.776-0.031-3.569-0.046-5.328-0.046c-0.114,0-0.229,0-0.345,0
			c0.002,0.235,0.003,0.47,0.004,0.704c2.323-0.013,4.646,0.002,6.969,0.043c0.007-0.362,0.013-0.721,0.02-1.082
			c-0.237-0.145-0.478-0.288-0.715-0.432L53.479,50.378z"/>
	</g>
	<g>
		<path fill="#6F1100" d="M37.231,33.154c-0.048-1.469-0.443-2.65-1.091-3.574c0.231,0.691,0.364,1.448,0.391,2.263l0.218,6.03
			l0.217,5.981c0.075,2.299-0.635,4.214-2.055,5.535c-1.306,1.213-3.208,1.928-5.502,2.063c-2.278,0.141-4.494,0.299-6.734,0.483
			l0.069,0.801c2.651-0.229,5.264-0.421,7.919-0.581c4.21-0.253,7.15-2.507,7.003-6.993C37.521,41.159,37.376,37.157,37.231,33.154z
			"/>
	</g>
	<g>
		<path fill="#6F1100" d="M11.975,45.391c-2.197,0.254-4.419,0.535-6.617,0.837C5.2,47.8,5.043,49.412,4.892,51.037
			c0.266,0.086,0.531,0.174,0.796,0.261c0.135-1.434,0.275-2.866,0.419-4.3c2.052-0.286,4.107-0.549,6.163-0.794
			C12.171,45.935,12.073,45.662,11.975,45.391z"/>
	</g>
	<g>
		<path fill="#6F1100" d="M20.918,52.087l-0.051-0.588l-0.015-0.17c-0.012-0.005-0.023-0.009-0.034-0.015l0.017,0.187l0.053,0.588
			L20.3,52.142c-1.991,0.182-4.003,0.386-5.998,0.605c0.031,0.276,0.062,0.555,0.094,0.831c2.378-0.273,4.758-0.518,7.141-0.733
			c-0.025-0.27-0.048-0.537-0.074-0.806L20.918,52.087z"/>
	</g>
	<g>
		<path fill="#6F1100" d="M99.128,27.312l-1.051,6.712l-0.092,0.582l-0.582-0.093c-0.9-0.14-1.812-0.277-2.728-0.411
			c-0.021,0.164-0.045,0.328-0.067,0.492c1.392,0.2,2.783,0.408,4.173,0.627c0.409-2.593,0.814-5.183,1.219-7.775
			C99.711,27.401,99.418,27.358,99.128,27.312z"/>
	</g>
	<g>
		<path fill="#6F1100" d="M96.214,47.505c-0.352,2.205-1.238,3.896-2.624,5.028c-1.265,1.028-2.883,1.552-4.813,1.552
			c-0.486,0-0.991-0.035-1.51-0.104c-0.767-0.1-1.481-0.277-2.145-0.519c1.001,0.646,2.2,1.051,3.515,1.225
			c4.021,0.534,7.496-1.066,8.285-5.985c0.081-0.513,0.162-1.024,0.242-1.537c-0.291-0.046-0.582-0.09-0.874-0.135L96.214,47.505z"
			/>
	</g>
	<g>
		<path fill="#6F1100" d="M6.559,53.072l0.004,0.036l0.082,0.584l-0.583,0.083c-1.462,0.201-2.937,0.42-4.402,0.646
			C1.705,54.712,1.75,55,1.796,55.289c1.823-0.287,3.647-0.556,5.473-0.81c-0.057-0.411-0.113-0.82-0.169-1.229
			C6.919,53.189,6.739,53.131,6.559,53.072z"/>
	</g>
	<g>
		<path fill="#6F1100" d="M27.221,48.047c0.245-0.017,0.489-0.033,0.734-0.048c-0.291-4.264-1.021-14.973-1.267-18.585
			c0.864-0.059,1.73-0.115,2.595-0.168c0.382-0.021,0.727-0.005,1.038,0.044c-0.46-0.508-1.115-0.753-1.991-0.753
			c-0.097,0-0.199,0.003-0.3,0.009c-0.673,0.04-1.344,0.083-2.004,0.126l1.269,18.595C27.314,47.562,27.29,47.822,27.221,48.047z"/>
	</g>
	<g>
		<path fill="#6F1100" d="M19.076,49.151c0.081,0.038,0.163,0.079,0.244,0.117c-2.829-7.923-5.817-15.807-8.97-23.651
			c-0.045,0.005-0.09,0.011-0.135,0.017C13.314,33.403,16.293,41.305,19.076,49.151z"/>
	</g>
	<g>
		<path fill="#6F1100" d="M46.465,19.684c-0.245,0.578-0.521,1.052-0.834,1.417c-0.313,0.367-0.633,0.635-0.968,0.806
			c-0.335,0.17-0.668,0.246-1.007,0.227C43.315,22.115,43,22.008,42.7,21.812c-0.297-0.197-0.561-0.482-0.785-0.859
			c-0.226-0.374-0.385-0.84-0.473-1.394c-0.125-0.794-0.141-1.544-0.031-2.245c0.111-0.7,0.316-1.32,0.62-1.85
			c0.304-0.532,0.689-0.963,1.15-1.288c0.46-0.327,0.964-0.51,1.5-0.551c0.382-0.03,0.667,0.045,0.852,0.223
			c0.186,0.174,0.301,0.402,0.349,0.68c0.047,0.279,0.033,0.583-0.039,0.914c-0.072,0.33-0.175,0.638-0.312,0.929
			c-0.136,0.291-0.289,0.534-0.46,0.734c-0.172,0.2-0.342,0.308-0.516,0.323c-0.105,0.01-0.189,0.006-0.25-0.011
			c-0.062-0.017-0.11-0.042-0.144-0.075c-0.034-0.032-0.052-0.064-0.055-0.101c-0.003-0.036,0.001-0.068,0.013-0.094
			c0.084-0.157,0.174-0.345,0.271-0.56s0.184-0.438,0.264-0.668c0.078-0.229,0.143-0.455,0.194-0.678
			c0.049-0.223,0.071-0.422,0.062-0.597c-0.009-0.173-0.052-0.312-0.127-0.414c-0.076-0.1-0.203-0.144-0.38-0.128
			c-0.257,0.021-0.493,0.119-0.702,0.291c-0.209,0.173-0.391,0.395-0.546,0.66c-0.155,0.267-0.281,0.57-0.376,0.909
			c-0.098,0.34-0.172,0.685-0.224,1.04s-0.078,0.706-0.081,1.054c-0.004,0.349,0.013,0.667,0.052,0.956
			c0.056,0.42,0.153,0.804,0.289,1.149c0.135,0.347,0.295,0.631,0.476,0.852c0.183,0.223,0.383,0.375,0.601,0.462
			c0.219,0.085,0.443,0.081,0.677-0.015c0.234-0.096,0.475-0.294,0.729-0.597c0.254-0.3,0.506-0.725,0.762-1.276
			c0.127-0.053,0.235-0.071,0.327-0.06C46.478,19.538,46.503,19.589,46.465,19.684z"/>
		<path fill="#6F1100" d="M49.174,20.503c0.112,0.002,0.232-0.047,0.362-0.144c0.128-0.098,0.27-0.31,0.431-0.634
			c0.079-0.049,0.169-0.059,0.268-0.03c0.101,0.03,0.132,0.09,0.101,0.177c-0.111,0.301-0.292,0.555-0.544,0.772
			c-0.25,0.217-0.53,0.325-0.842,0.33c-0.064,0-0.131-0.009-0.206-0.026c-0.072-0.015-0.143-0.047-0.212-0.09
			c-0.071-0.045-0.136-0.108-0.195-0.187c-0.06-0.081-0.109-0.185-0.145-0.313c-0.16,0.245-0.312,0.412-0.461,0.495
			c-0.148,0.083-0.305,0.128-0.472,0.134c-0.188,0.006-0.351-0.028-0.491-0.107c-0.14-0.078-0.254-0.184-0.346-0.319
			c-0.091-0.134-0.163-0.293-0.216-0.481c-0.052-0.187-0.085-0.387-0.098-0.601c-0.016-0.275,0.012-0.562,0.084-0.861
			c0.072-0.298,0.189-0.572,0.354-0.821c0.165-0.249,0.378-0.455,0.643-0.614c0.263-0.16,0.579-0.243,0.943-0.247
			c0.122,0,0.247,0.017,0.376,0.051c0.128,0.034,0.242,0.089,0.34,0.159c0.098,0.071,0.172,0.164,0.22,0.277
			c0.046,0.113,0.05,0.247,0.012,0.402c0.061,0.034,0.1,0.096,0.121,0.191c0.022,0.092,0.001,0.232-0.061,0.417
			c-0.097,0.291-0.174,0.562-0.229,0.815c-0.055,0.255-0.084,0.474-0.085,0.657c0,0.185,0.029,0.331,0.083,0.437
			C48.967,20.446,49.054,20.501,49.174,20.503z M47.992,18.231c0.065-0.059,0.122-0.136,0.169-0.234
			c0.047-0.096,0.072-0.188,0.075-0.275c0.002-0.087-0.016-0.162-0.058-0.227c-0.042-0.064-0.119-0.096-0.232-0.094
			c-0.158,0.003-0.293,0.078-0.407,0.225c-0.112,0.149-0.206,0.334-0.28,0.555s-0.128,0.462-0.158,0.721
			c-0.032,0.258-0.043,0.504-0.035,0.736c0.009,0.256,0.045,0.47,0.107,0.64c0.062,0.168,0.148,0.251,0.262,0.247
			c0.076-0.002,0.152-0.038,0.228-0.107c0.076-0.068,0.149-0.181,0.222-0.338c0.072-0.154,0.135-0.362,0.189-0.619
			c0.054-0.26,0.098-0.582,0.13-0.97C48.058,18.46,47.987,18.375,47.992,18.231z"/>
		<path fill="#6F1100" d="M49.866,19.878c-0.012-0.11,0.005-0.212,0.055-0.304c0.05-0.09,0.115-0.166,0.196-0.221
			c0.146-0.957,0.311-1.854,0.494-2.692c0.183-0.836,0.372-1.622,0.569-2.354c0.108-0.092,0.241-0.157,0.398-0.198
			c0.154-0.038,0.295-0.045,0.424-0.021c0.128,0.025,0.227,0.08,0.297,0.167c0.07,0.085,0.08,0.204,0.029,0.355
			c-0.192,0.549-0.36,1.066-0.507,1.55c-0.149,0.485-0.277,0.954-0.391,1.405c-0.113,0.452-0.216,0.895-0.309,1.33
			c-0.092,0.434-0.181,0.874-0.268,1.321c0.186,0.281,0.392,0.374,0.628,0.278c0.233-0.095,0.454-0.376,0.663-0.844
			c0.106-0.043,0.204-0.051,0.3-0.021c0.096,0.03,0.124,0.087,0.088,0.168c-0.182,0.43-0.388,0.738-0.623,0.925
			c-0.234,0.185-0.471,0.28-0.706,0.278c0.146,0.487,0.213,0.923,0.21,1.312c-0.006,0.387-0.072,0.714-0.195,0.985
			c-0.122,0.27-0.289,0.472-0.501,0.612c-0.212,0.137-0.455,0.2-0.733,0.19c-0.05,0-0.104-0.014-0.159-0.034
			c-0.054-0.019-0.109-0.064-0.167-0.13c0.036-0.663,0.083-1.301,0.144-1.92c0.061-0.617,0.128-1.217,0.203-1.803
			c-0.035-0.053-0.062-0.107-0.083-0.162C49.906,19.993,49.885,19.936,49.866,19.878z M50.582,23.562
			c0.099-0.106,0.172-0.257,0.22-0.452c0.051-0.192,0.066-0.426,0.049-0.698c-0.022-0.272-0.093-0.583-0.224-0.931
			c-0.119,0.748-0.234,1.494-0.345,2.241C50.386,23.72,50.486,23.665,50.582,23.562z"/>
		<path fill="#6F1100" d="M55.191,18.09c-0.035,0.261-0.116,0.506-0.24,0.733c-0.123,0.226-0.271,0.436-0.441,0.628
			c-0.173,0.192-0.364,0.368-0.574,0.53c-0.209,0.159-0.417,0.3-0.621,0.422c0.048,0.231,0.13,0.409,0.251,0.532
			c0.119,0.125,0.263,0.196,0.429,0.216c0.243,0.03,0.488-0.066,0.733-0.286c0.247-0.219,0.47-0.502,0.667-0.852
			c0.146-0.049,0.253-0.045,0.315,0.016c0.063,0.056,0.083,0.111,0.062,0.16c-0.062,0.153-0.161,0.315-0.299,0.481
			c-0.136,0.168-0.299,0.317-0.482,0.451c-0.186,0.132-0.388,0.238-0.605,0.317c-0.217,0.079-0.432,0.104-0.645,0.081
			c-0.198-0.024-0.388-0.081-0.564-0.175c-0.182-0.093-0.335-0.221-0.463-0.383c-0.129-0.164-0.227-0.363-0.293-0.595
			c-0.064-0.232-0.087-0.499-0.062-0.801c0.044-0.547,0.146-0.988,0.309-1.323c0.162-0.334,0.347-0.591,0.554-0.769
			c0.208-0.178,0.418-0.291,0.629-0.34c0.213-0.049,0.388-0.064,0.525-0.047c0.339,0.04,0.571,0.159,0.691,0.351
			C55.187,17.629,55.228,17.847,55.191,18.09z M53.381,16.532c0.274-0.2,0.563-0.404,0.865-0.613c0.301-0.21,0.592-0.412,0.864-0.61
			c0.08-0.056,0.163-0.079,0.251-0.07c0.086,0.007,0.165,0.036,0.234,0.08c0.07,0.045,0.123,0.109,0.16,0.189
			c0.037,0.081,0.048,0.166,0.034,0.255c-0.34,0.159-0.678,0.319-1.012,0.479c-0.333,0.159-0.666,0.325-1.003,0.497
			c-0.113,0.059-0.212,0.061-0.3,0.003C53.389,16.684,53.356,16.614,53.381,16.532z M53.288,19.7
			c-0.005,0.051-0.009,0.099-0.013,0.14s-0.004,0.081-0.002,0.121c0.254-0.219,0.486-0.504,0.704-0.852
			c0.216-0.347,0.357-0.755,0.413-1.222c0.023-0.204-0.021-0.315-0.143-0.33c-0.052-0.006-0.125,0.03-0.216,0.104
			c-0.093,0.072-0.189,0.196-0.285,0.366c-0.096,0.172-0.188,0.395-0.273,0.673C53.391,18.976,53.328,19.31,53.288,19.7z"/>
	</g>
	<g>
		<path fill="#6F1100" d="M78.754,21.998c-0.022,0-0.045-0.002-0.07-0.006c-7.184-1.138-14.506-1.944-21.762-2.397
			c-0.241-0.015-0.428-0.225-0.412-0.469c0.017-0.243,0.225-0.428,0.468-0.413c7.285,0.455,14.634,1.263,21.846,2.407
			c0.24,0.038,0.405,0.265,0.367,0.504C79.154,21.843,78.968,21.998,78.754,21.998z"/>
	</g>
	<g>
		<path fill="#6F1100" d="M18.051,21.949c-0.212,0-0.401-0.156-0.436-0.374c-0.038-0.242,0.126-0.468,0.368-0.506
			c6.955-1.101,14.041-1.894,21.062-2.356c0.247-0.019,0.454,0.168,0.47,0.412c0.016,0.243-0.168,0.455-0.412,0.47
			c-6.995,0.461-14.054,1.25-20.983,2.347C18.098,21.945,18.075,21.949,18.051,21.949z"/>
	</g>
	<path fill="#6F1100" d="M38.782,57.676c-0.047-0.006-0.089,0.025-0.125,0.092c-0.037,0.068-0.051,0.162-0.044,0.284
		c0.001,0.156,0.038,0.284,0.11,0.379c0.073,0.099,0.163,0.162,0.269,0.196c0.013-0.155,0.016-0.301,0.008-0.436
		c-0.009-0.177-0.036-0.305-0.081-0.386C38.875,57.723,38.83,57.681,38.782,57.676z M66.691,56.776
		c-0.09,0.247-0.166,0.487-0.229,0.717s-0.111,0.444-0.146,0.646c0.135-0.235,0.236-0.47,0.307-0.704
		C66.695,57.203,66.719,56.982,66.691,56.776z M38.32,58.348c-0.024,0.15-0.029,0.298-0.018,0.438
		c0.012,0.142,0.034,0.267,0.067,0.374s0.074,0.192,0.123,0.257c0.048,0.062,0.098,0.095,0.148,0.088
		c0.042,0,0.082-0.019,0.119-0.056c0.036-0.036,0.066-0.081,0.091-0.14c0.026-0.057,0.048-0.123,0.067-0.2
		c0.02-0.076,0.036-0.157,0.049-0.244c-0.185-0.019-0.332-0.079-0.441-0.179C38.418,58.584,38.349,58.47,38.32,58.348z
		 M82.846,56.301c-21.647-3.431-43.699-3.431-65.346,0c0.102,0.643,0.203,1.284,0.305,1.928c0.624,0.438,1.242,0.878,1.857,1.321
		c-0.458,0.604-0.911,1.211-1.36,1.817c0.113,0.711,0.226,1.425,0.338,2.137c20.891-3.309,42.173-3.309,63.064,0
		c0.113-0.722,0.228-1.441,0.341-2.162c-0.441-0.598-0.887-1.192-1.338-1.788c0.605-0.438,1.215-0.872,1.829-1.301
		C82.639,57.602,82.744,56.951,82.846,56.301z M34.106,58.229c-0.057,0.062-0.126,0.098-0.209,0.104
		c-0.098,0.008-0.183-0.011-0.255-0.06c-0.074-0.048-0.113-0.119-0.12-0.212c-0.007-0.092,0.014-0.177,0.064-0.258
		c0.049-0.08,0.123-0.124,0.216-0.129c0.105-0.01,0.192,0.015,0.262,0.073c0.071,0.057,0.11,0.144,0.119,0.263
		C34.188,58.093,34.163,58.164,34.106,58.229z M37.43,57.895c-0.067,0.506-0.155,0.931-0.263,1.272
		c-0.108,0.341-0.234,0.603-0.376,0.777c-0.143,0.174-0.295,0.269-0.457,0.28c-0.118,0.008-0.245-0.125-0.38-0.396
		c-0.135-0.272-0.259-0.684-0.37-1.237c0.033-0.038,0.074-0.073,0.12-0.111c0.046-0.035,0.093-0.06,0.138-0.079
		c0.046-0.018,0.087-0.022,0.122-0.012c0.035,0.008,0.058,0.035,0.068,0.079c0.031,0.174,0.062,0.351,0.096,0.527
		c0.034,0.177,0.067,0.336,0.103,0.478c0.035,0.142,0.067,0.255,0.098,0.344c0.031,0.087,0.06,0.13,0.084,0.128
		c0.094-0.005,0.176-0.098,0.246-0.278c0.072-0.182,0.13-0.433,0.176-0.758c0.046-0.322,0.081-0.713,0.105-1.168
		c0.023-0.455,0.034-0.96,0.032-1.517c-0.231,0.04-0.447,0.073-0.646,0.106c-0.199,0.029-0.361,0.05-0.489,0.058
		c-0.062,0.005-0.111-0.012-0.146-0.051c-0.036-0.04-0.061-0.085-0.075-0.14c-0.016-0.054-0.022-0.109-0.02-0.162
		c0.001-0.056,0.01-0.095,0.022-0.121c0.23-0.016,0.476-0.036,0.738-0.061c0.262-0.022,0.528-0.047,0.797-0.072
		c0.269-0.024,0.534-0.047,0.797-0.069c0.262-0.023,0.508-0.04,0.738-0.053c0.059-0.004,0.105-0.004,0.141,0
		c0.035,0.004,0.06,0.015,0.076,0.035c0.016,0.021,0.021,0.054,0.017,0.098c-0.005,0.042-0.019,0.103-0.041,0.179
		c-0.186,0.004-0.394,0.021-0.624,0.053c-0.23,0.03-0.468,0.064-0.715,0.105C37.534,56.8,37.497,57.388,37.43,57.895z
		 M39.579,58.756c-0.067,0.039-0.155,0.069-0.266,0.09c-0.043,0.149-0.096,0.28-0.16,0.391c-0.065,0.109-0.134,0.205-0.209,0.28
		c-0.075,0.075-0.15,0.132-0.225,0.174c-0.076,0.039-0.142,0.062-0.199,0.065c-0.046,0.002-0.106-0.005-0.18-0.02
		c-0.073-0.017-0.144-0.052-0.214-0.11c-0.069-0.061-0.132-0.147-0.186-0.263s-0.086-0.269-0.099-0.462
		c-0.013-0.216-0.002-0.401,0.033-0.55c0.035-0.149,0.079-0.271,0.137-0.36c0.056-0.091,0.119-0.159,0.189-0.199
		c0.07-0.041,0.134-0.063,0.192-0.067c0.088-0.186,0.211-0.281,0.371-0.289c0.075-0.006,0.148,0.006,0.219,0.03
		c0.07,0.024,0.133,0.066,0.192,0.127c0.057,0.061,0.105,0.136,0.142,0.227c0.037,0.09,0.06,0.199,0.066,0.328
		c0.004,0.087,0.004,0.172,0,0.251c-0.005,0.081-0.013,0.158-0.023,0.229c0.064-0.017,0.124-0.039,0.178-0.07
		c0.055-0.029,0.108-0.066,0.16-0.107c0.032,0.012,0.053,0.036,0.058,0.07c0.005,0.031-0.007,0.071-0.035,0.114
		C39.693,58.676,39.645,58.717,39.579,58.756z M40.896,59.388c-0.045,0.111-0.105,0.206-0.181,0.283
		c-0.076,0.078-0.161,0.138-0.256,0.182c-0.094,0.044-0.187,0.067-0.275,0.071c-0.119,0.008-0.206-0.013-0.258-0.061
		c-0.055-0.049-0.083-0.092-0.085-0.132c-0.007-0.128,0.05-0.2,0.172-0.219c0.028,0.045,0.068,0.087,0.122,0.12
		c0.054,0.037,0.112,0.052,0.172,0.05c0.075-0.004,0.143-0.034,0.201-0.091c0.058-0.059,0.084-0.162,0.076-0.314
		c-0.009-0.191-0.053-0.361-0.132-0.511c-0.079-0.151-0.162-0.295-0.248-0.429c-0.018,0.151-0.047,0.302-0.086,0.455
		c-0.04,0.153-0.082,0.276-0.127,0.368c-0.033,0.061-0.074,0.093-0.123,0.091c-0.048,0-0.086-0.03-0.115-0.085
		c0.026-0.059,0.054-0.137,0.083-0.232c0.03-0.098,0.055-0.202,0.077-0.315c0.021-0.114,0.038-0.236,0.052-0.364
		c0.013-0.126,0.016-0.251,0.011-0.371c0-0.005,0-0.011,0-0.015c-0.018-0.052-0.028-0.112-0.031-0.179
		c-0.008-0.162,0.036-0.289,0.131-0.384c0.095-0.094,0.228-0.146,0.398-0.154c0.183,0.189,0.186,0.378,0.01,0.564
		c0.004,0.075,0.03,0.162,0.078,0.261c0.048,0.098,0.101,0.201,0.156,0.312c0.055,0.111,0.107,0.227,0.157,0.347
		c0.049,0.121,0.075,0.247,0.082,0.376C40.96,59.15,40.941,59.277,40.896,59.388z M48.486,58.354
		c-0.029,0.041-0.079,0.081-0.147,0.116c-0.068,0.037-0.157,0.062-0.269,0.079c-0.048,0.148-0.106,0.276-0.175,0.384
		c-0.068,0.108-0.141,0.2-0.219,0.272c-0.078,0.073-0.156,0.128-0.232,0.166c-0.077,0.035-0.144,0.057-0.2,0.057
		c-0.047,0-0.107-0.008-0.179-0.026c-0.072-0.02-0.141-0.06-0.21-0.119c-0.067-0.062-0.125-0.151-0.175-0.269
		c-0.009-0.022-0.013-0.051-0.021-0.075c-0.016,0.036-0.026,0.073-0.046,0.109c-0.043,0.076-0.095,0.144-0.155,0.202
		c-0.06,0.057-0.126,0.104-0.199,0.142c-0.073,0.036-0.148,0.053-0.228,0.055c-0.082,0.002-0.149-0.034-0.199-0.109
		c-0.05-0.078-0.089-0.185-0.119-0.327c-0.086,0.141-0.18,0.251-0.282,0.332c-0.102,0.078-0.21,0.121-0.326,0.127
		c-0.078,0.004-0.15-0.021-0.218-0.069c-0.065-0.052-0.123-0.121-0.173-0.21c-0.04-0.074-0.068-0.161-0.094-0.253
		c-0.048,0.138-0.117,0.263-0.22,0.37c-0.121,0.127-0.263,0.195-0.424,0.204c-0.032,0-0.068-0.003-0.106-0.012
		c-0.037-0.006-0.075-0.022-0.112-0.047c-0.037-0.022-0.071-0.057-0.103-0.101c-0.032-0.045-0.059-0.1-0.078-0.172
		c-0.078,0.139-0.154,0.232-0.23,0.28c-0.076,0.046-0.156,0.073-0.243,0.075c-0.097,0.004-0.181-0.015-0.253-0.061
		c-0.072-0.043-0.13-0.104-0.177-0.179c-0.037-0.061-0.064-0.141-0.087-0.222c-0.045,0.085-0.093,0.168-0.156,0.247
		c-0.077,0.095-0.164,0.176-0.26,0.242c-0.097,0.065-0.196,0.103-0.299,0.106c-0.162,0.007-0.287-0.042-0.375-0.147
		c-0.09-0.106-0.151-0.268-0.183-0.481c-0.034-0.216-0.043-0.486-0.029-0.811s0.045-0.704,0.091-1.135
		c-0.097,0.012-0.195,0.023-0.292,0.034c-0.04,0.006-0.07,0-0.091-0.017c-0.021-0.018-0.034-0.04-0.041-0.068
		c-0.007-0.029-0.008-0.059-0.004-0.094c0.004-0.035,0.013-0.064,0.026-0.092c0.144-0.006,0.286-0.012,0.431-0.019
		c0.029-0.253,0.058-0.508,0.086-0.761c0.057-0.038,0.12-0.072,0.187-0.101c0.069-0.027,0.13-0.044,0.188-0.051
		c0.055-0.006,0.101,0.007,0.132,0.03c0.032,0.026,0.04,0.072,0.024,0.137c-0.02,0.122-0.04,0.245-0.059,0.361
		c-0.019,0.12-0.036,0.238-0.054,0.357c0.122-0.006,0.244-0.013,0.365-0.021c0.116-0.004,0.184,0.013,0.206,0.048
		c0.021,0.034,0.013,0.089-0.024,0.162c-0.193,0.013-0.387,0.029-0.581,0.046c-0.047,0.334-0.085,0.647-0.113,0.942
		c-0.026,0.291-0.042,0.547-0.044,0.766c-0.005,0.22,0.008,0.392,0.038,0.517c0.028,0.124,0.078,0.185,0.15,0.179
		c0.079-0.002,0.15-0.031,0.215-0.083c0.064-0.053,0.121-0.117,0.17-0.195c0.049-0.077,0.091-0.158,0.125-0.243
		c0.035-0.087,0.062-0.164,0.085-0.232c0.007-0.005,0.015-0.001,0.022-0.005c0,0,0,0,0-0.002c-0.005-0.153,0.009-0.313,0.047-0.476
		c0.037-0.164,0.094-0.315,0.175-0.454c0.08-0.138,0.182-0.25,0.307-0.339s0.275-0.137,0.45-0.142
		c0.058-0.002,0.117,0.005,0.181,0.023c0.061,0.018,0.116,0.044,0.165,0.082c0.048,0.04,0.084,0.086,0.111,0.15
		c0.025,0.061,0.03,0.137,0.015,0.224c0.029,0.015,0.05,0.049,0.062,0.102c0.013,0.051,0.006,0.129-0.02,0.233
		c-0.042,0.164-0.073,0.315-0.097,0.457c-0.021,0.143-0.031,0.266-0.027,0.365c0.004,0.104,0.02,0.183,0.051,0.241
		s0.076,0.085,0.137,0.083c0.058,0,0.119-0.029,0.181-0.087c0.061-0.059,0.129-0.179,0.198-0.364
		c0.037-0.026,0.079-0.032,0.124-0.022c-0.015-0.087-0.033-0.174-0.035-0.271c-0.005-0.154,0.009-0.307,0.041-0.456
		c0.032-0.151,0.078-0.291,0.14-0.414c0.062-0.122,0.136-0.225,0.225-0.302c0.088-0.078,0.187-0.117,0.295-0.121
		c0.105-0.002,0.192,0.008,0.26,0.03c0.067,0.025,0.129,0.053,0.184,0.087c0.012-0.236,0.03-0.489,0.052-0.761
		c0.023-0.271,0.046-0.552,0.072-0.842c0.1-0.077,0.184-0.131,0.25-0.158c0.068-0.029,0.119-0.039,0.156-0.029
		c0.036,0.011,0.063,0.038,0.079,0.085c0.015,0.046,0.023,0.104,0.025,0.176c0.005,0.219,0,0.439-0.01,0.664
		c-0.012,0.225-0.03,0.444-0.059,0.662c-0.027,0.217-0.063,0.43-0.104,0.634c-0.043,0.206-0.092,0.398-0.149,0.577
		c0.003,0.297,0.016,0.514,0.037,0.652c0.021,0.137,0.053,0.205,0.097,0.203c0.057,0,0.117-0.03,0.181-0.087
		c0.063-0.056,0.13-0.177,0.202-0.359c0.027-0.022,0.06-0.019,0.092-0.019c-0.007-0.054-0.014-0.108-0.016-0.173
		c-0.004-0.218,0.014-0.402,0.054-0.55c0.041-0.147,0.091-0.264,0.151-0.354c0.06-0.089,0.125-0.151,0.196-0.192
		c0.073-0.037,0.137-0.059,0.195-0.061c0.095-0.179,0.222-0.271,0.381-0.272c0.076-0.002,0.148,0.011,0.219,0.037
		c0.068,0.028,0.131,0.073,0.186,0.134c0.055,0.062,0.099,0.14,0.133,0.234c0.034,0.093,0.052,0.202,0.053,0.33
		c0.002,0.085-0.002,0.17-0.01,0.251c-0.008,0.082-0.019,0.156-0.032,0.227c0.065-0.013,0.125-0.035,0.181-0.064
		c0.054-0.026,0.109-0.06,0.163-0.1c0.034,0.014,0.051,0.036,0.056,0.07C48.529,58.274,48.516,58.312,48.486,58.354z M53.478,57.965
		c-0.009,0.026-0.02,0.06-0.036,0.098c-0.115,0-0.233-0.002-0.349-0.004c-0.013,0.216-0.025,0.425-0.034,0.633
		c-0.008,0.204-0.018,0.401-0.024,0.593c-0.052,0.022-0.104,0.043-0.165,0.058c-0.059,0.012-0.115,0.02-0.164,0.019
		c-0.05-0.004-0.093-0.015-0.125-0.037c-0.031-0.022-0.047-0.059-0.043-0.107c0.007-0.057,0.016-0.188,0.03-0.394
		c0.015-0.207,0.033-0.454,0.053-0.745c-0.136,0.008-0.272,0.016-0.406,0.024c-0.134,0.013-0.261,0.021-0.385,0.033
		c-0.115,0.225-0.234,0.434-0.356,0.624c-0.123,0.19-0.249,0.354-0.38,0.493c-0.132,0.136-0.265,0.241-0.402,0.318
		c-0.139,0.078-0.283,0.118-0.433,0.118c-0.062,0-0.134-0.01-0.218-0.028c-0.085-0.021-0.166-0.057-0.243-0.11
		c-0.077-0.053-0.142-0.126-0.198-0.217c-0.054-0.095-0.082-0.216-0.083-0.366c0-0.117,0.019-0.219,0.06-0.304
		c0.04-0.083,0.091-0.147,0.149-0.193c0.058-0.045,0.122-0.067,0.186-0.065c0.065,0,0.119,0.028,0.163,0.081
		c-0.058,0.104-0.091,0.212-0.101,0.323s0,0.211,0.032,0.302c0.031,0.093,0.081,0.168,0.146,0.227
		c0.066,0.059,0.146,0.087,0.247,0.087c0.091,0,0.185-0.032,0.281-0.095c0.094-0.064,0.188-0.151,0.278-0.26
		c0.091-0.112,0.184-0.244,0.275-0.398c0.092-0.153,0.182-0.323,0.267-0.505c-0.111,0.01-0.211,0.02-0.298,0.027
		c-0.086,0.007-0.15,0.011-0.194,0.011c-0.061,0-0.105-0.017-0.13-0.047c-0.024-0.028-0.04-0.064-0.045-0.105
		c-0.008-0.042-0.004-0.083,0.007-0.127c0.012-0.041,0.023-0.078,0.038-0.102h0.408c0.13,0,0.254,0.002,0.378,0.005
		c0.083-0.188,0.164-0.381,0.244-0.585s0.159-0.408,0.236-0.614c0.077-0.207,0.151-0.411,0.224-0.617
		c0.072-0.203,0.14-0.402,0.209-0.593c0.124-0.045,0.23-0.069,0.319-0.075c0.089-0.004,0.162,0.006,0.218,0.028
		c0.055,0.024,0.094,0.061,0.118,0.109c0.026,0.047,0.034,0.103,0.03,0.157c-0.007,0.128-0.017,0.277-0.03,0.441
		c-0.013,0.164-0.024,0.342-0.039,0.534c-0.014,0.191-0.03,0.389-0.046,0.599c-0.017,0.208-0.029,0.417-0.043,0.632
		c0.057,0,0.111,0,0.168,0c0.065,0.002,0.114,0.006,0.146,0.014c0.034,0.008,0.052,0.021,0.061,0.038
		C53.485,57.913,53.485,57.936,53.478,57.965z M59.356,59.288c-0.053,0.107-0.121,0.196-0.202,0.268
		c-0.082,0.07-0.171,0.123-0.27,0.158c-0.099,0.037-0.192,0.054-0.281,0.052c-0.118-0.006-0.204-0.031-0.254-0.083
		c-0.048-0.054-0.075-0.099-0.073-0.138c0.002-0.129,0.066-0.197,0.19-0.203c0.022,0.046,0.06,0.09,0.11,0.127
		c0.052,0.042,0.105,0.062,0.167,0.064c0.076,0.002,0.146-0.022,0.208-0.073c0.062-0.052,0.097-0.155,0.102-0.31
		c0.009-0.189-0.023-0.361-0.088-0.519c-0.07-0.154-0.142-0.306-0.213-0.446c-0.031,0.146-0.074,0.298-0.124,0.446
		c-0.055,0.149-0.103,0.268-0.158,0.356c-0.037,0.059-0.079,0.086-0.128,0.081c-0.02-0.002-0.034-0.012-0.049-0.021
		c-0.059,0.101-0.129,0.19-0.212,0.273c-0.089,0.085-0.185,0.155-0.293,0.212c-0.107,0.055-0.215,0.083-0.327,0.079
		c-0.104-0.003-0.203-0.026-0.3-0.069c-0.096-0.044-0.181-0.107-0.251-0.195c-0.071-0.085-0.129-0.19-0.167-0.319
		c-0.012-0.037-0.008-0.094-0.018-0.135c-0.004,0.01-0.003,0.017-0.01,0.026c-0.054,0.1-0.122,0.195-0.205,0.285
		c-0.083,0.091-0.176,0.164-0.274,0.225c-0.1,0.06-0.201,0.091-0.307,0.087c-0.161-0.004-0.282-0.059-0.364-0.171
		c-0.076-0.102-0.122-0.251-0.145-0.44c-0.021,0.042-0.034,0.088-0.061,0.127c-0.047,0.076-0.1,0.142-0.162,0.197
		c-0.062,0.057-0.131,0.1-0.205,0.134c-0.073,0.034-0.15,0.049-0.229,0.047c-0.065,0-0.13-0.022-0.197-0.068
		c-0.069-0.043-0.125-0.12-0.173-0.231c-0.047-0.111-0.075-0.265-0.085-0.458c-0.012-0.193,0.013-0.438,0.071-0.735
		c-0.04,0.004-0.079,0.006-0.118,0.008c-0.04,0-0.077,0-0.114,0c-0.013,0.162-0.04,0.322-0.083,0.479
		c-0.044,0.16-0.108,0.32-0.191,0.485c-0.038,0.065-0.081,0.093-0.133,0.081c-0.05-0.014-0.084-0.046-0.101-0.095
		c0.061-0.128,0.114-0.283,0.154-0.458c0.037-0.177,0.068-0.355,0.083-0.539c-0.081-0.03-0.146-0.076-0.188-0.146
		c-0.042-0.068-0.062-0.17-0.061-0.306c0.002-0.056,0.01-0.12,0.032-0.191c0.018-0.073,0.05-0.14,0.09-0.194
		c0.042-0.057,0.092-0.098,0.152-0.125c0.06-0.026,0.132-0.021,0.214,0.021c0.01,0.104,0.019,0.206,0.026,0.305
		s0.013,0.196,0.02,0.296c0.065,0.002,0.132,0,0.199,0c0.066-0.003,0.13-0.011,0.192-0.021c0.062-0.009,0.117-0.021,0.167-0.036
		c0.047-0.013,0.089-0.028,0.116-0.045c0.041,0.004,0.075,0.017,0.103,0.037c0.03,0.023,0.032,0.07,0.01,0.143
		c-0.085,0.273-0.142,0.508-0.176,0.704c-0.036,0.192-0.049,0.354-0.045,0.476c0.004,0.123,0.02,0.215,0.048,0.272
		c0.031,0.059,0.065,0.086,0.104,0.088c0.059,0,0.121-0.027,0.185-0.081c0.066-0.055,0.138-0.173,0.216-0.354
		c0.037-0.025,0.081-0.029,0.126-0.019c-0.008-0.188-0.002-0.401,0.029-0.658c0.033-0.323,0.086-0.698,0.16-1.128
		c-0.098,0.006-0.197,0.012-0.295,0.017c-0.041,0.002-0.07-0.005-0.089-0.021c-0.021-0.02-0.031-0.044-0.036-0.07
		c-0.007-0.03-0.004-0.061,0-0.094c0.009-0.034,0.017-0.065,0.033-0.089c0.142,0.002,0.286,0.004,0.428,0.007
		c0.046-0.25,0.091-0.504,0.136-0.753c0.059-0.036,0.125-0.064,0.194-0.089c0.071-0.022,0.132-0.035,0.189-0.04
		c0.057-0.002,0.098,0.012,0.131,0.04c0.029,0.026,0.034,0.071,0.016,0.136c-0.028,0.121-0.057,0.24-0.083,0.358
		c-0.024,0.116-0.051,0.235-0.074,0.354c0.121,0,0.243,0.002,0.364,0.002c0.115,0.002,0.183,0.022,0.203,0.059
		c0.02,0.035,0.008,0.091-0.033,0.16c-0.193,0.002-0.39,0.006-0.582,0.008c-0.07,0.332-0.127,0.644-0.174,0.933
		c-0.045,0.291-0.076,0.546-0.093,0.767c-0.017,0.218-0.015,0.39,0.008,0.513c0.019,0.127,0.065,0.189,0.138,0.191
		c0.08,0.002,0.151-0.021,0.22-0.069c0.068-0.05,0.128-0.109,0.181-0.186c0.056-0.073,0.102-0.152,0.142-0.233
		c0.038-0.086,0.073-0.16,0.1-0.227c0.023-0.016,0.047-0.01,0.07-0.012c0.009-0.298,0.048-0.543,0.113-0.731
		c0.07-0.191,0.151-0.341,0.246-0.447c0.092-0.107,0.188-0.179,0.288-0.215c0.099-0.038,0.18-0.055,0.246-0.053
		c0.162,0.004,0.277,0.055,0.345,0.155c0.063,0.098,0.097,0.215,0.092,0.351c-0.005,0.147-0.03,0.287-0.08,0.419
		c-0.05,0.133-0.11,0.257-0.187,0.374c-0.075,0.115-0.162,0.224-0.26,0.323c-0.099,0.1-0.198,0.187-0.295,0.264
		c0.031,0.125,0.08,0.22,0.148,0.283c0.064,0.062,0.142,0.095,0.228,0.097c0.124,0.004,0.245-0.062,0.358-0.2
		c0.113-0.134,0.21-0.306,0.288-0.512c0.062-0.031,0.106-0.035,0.143-0.017c0.025-0.074,0.051-0.144,0.073-0.225
		c0.03-0.114,0.058-0.232,0.083-0.359c0.022-0.126,0.036-0.251,0.041-0.37V57.7c-0.012-0.054-0.019-0.115-0.016-0.184
		c0.004-0.16,0.059-0.283,0.161-0.37s0.239-0.127,0.408-0.121c0.167,0.204,0.156,0.392-0.033,0.563
		c-0.005,0.075,0.014,0.164,0.055,0.264c0.04,0.103,0.084,0.212,0.129,0.324c0.047,0.116,0.091,0.236,0.129,0.361
		c0.039,0.123,0.057,0.251,0.051,0.38C59.44,59.058,59.411,59.18,59.356,59.288z M67.046,59.309
		c-0.036,0.079-0.083,0.154-0.134,0.225c-0.053,0.07-0.11,0.135-0.175,0.187c-0.061,0.057-0.131,0.099-0.201,0.127
		c-0.073,0.028-0.147,0.041-0.227,0.035c-0.207-0.013-0.353-0.112-0.435-0.296c-0.028-0.065-0.042-0.154-0.058-0.24
		c-0.061,0.114-0.133,0.218-0.232,0.303c-0.132,0.117-0.28,0.172-0.441,0.164c-0.032-0.002-0.068-0.008-0.103-0.019
		c-0.038-0.012-0.075-0.03-0.109-0.06c-0.033-0.025-0.065-0.062-0.093-0.108c-0.026-0.048-0.049-0.105-0.062-0.18
		c-0.09,0.132-0.176,0.216-0.255,0.257c-0.078,0.039-0.162,0.057-0.248,0.053c-0.099-0.005-0.179-0.034-0.245-0.083
		c-0.068-0.051-0.122-0.115-0.159-0.194c-0.031-0.066-0.051-0.146-0.066-0.23c-0.018,0.03-0.029,0.062-0.048,0.092
		c-0.05,0.072-0.105,0.137-0.171,0.189c-0.063,0.055-0.134,0.097-0.209,0.124c-0.074,0.031-0.152,0.044-0.231,0.04
		c-0.103-0.005-0.189-0.049-0.256-0.128c-0.068-0.081-0.118-0.19-0.143-0.332c-0.027-0.143-0.038-0.311-0.027-0.505
		c0.007-0.196,0.034-0.409,0.083-0.644c-0.116,0.212-0.232,0.44-0.352,0.688c-0.119,0.243-0.245,0.518-0.378,0.819
		c-0.142,0.043-0.243,0.045-0.303,0.008c-0.058-0.04-0.087-0.096-0.083-0.164c0-0.038,0.008-0.094,0.012-0.137
		c-0.034,0.047-0.069,0.093-0.114,0.133c-0.132,0.118-0.276,0.176-0.44,0.172c-0.029-0.002-0.064-0.008-0.104-0.018
		c-0.036-0.012-0.073-0.03-0.106-0.057c-0.035-0.025-0.067-0.062-0.098-0.109c-0.025-0.043-0.049-0.104-0.062-0.178
		c-0.089,0.135-0.172,0.221-0.251,0.262c-0.08,0.042-0.163,0.062-0.248,0.058c-0.097-0.004-0.179-0.03-0.248-0.079
		c-0.066-0.049-0.122-0.113-0.162-0.192c-0.039-0.077-0.067-0.171-0.086-0.276c-0.017-0.107-0.024-0.219-0.021-0.338
		c0.007-0.152,0.035-0.31,0.084-0.472c0.049-0.16,0.119-0.308,0.209-0.438c0.09-0.13,0.201-0.235,0.332-0.314
		c0.133-0.078,0.284-0.113,0.459-0.105c0.058,0.001,0.118,0.013,0.179,0.035s0.112,0.055,0.158,0.096
		c0.046,0.042,0.08,0.096,0.1,0.157c0.021,0.064,0.019,0.138-0.002,0.223c0.028,0.019,0.047,0.055,0.056,0.108
		c0.008,0.05-0.003,0.129-0.038,0.232c-0.054,0.158-0.098,0.308-0.13,0.448c-0.034,0.14-0.053,0.261-0.058,0.362
		c-0.004,0.103,0.007,0.184,0.034,0.244c0.026,0.059,0.068,0.09,0.13,0.094c0.059,0.002,0.12-0.022,0.188-0.074
		c0.065-0.054,0.141-0.169,0.226-0.349c0.019-0.011,0.039-0.001,0.056-0.007c0.015-0.1,0.026-0.199,0.044-0.313
		c0.023-0.172,0.05-0.354,0.082-0.544c0.028-0.191,0.061-0.38,0.097-0.568c0.065-0.024,0.133-0.051,0.198-0.078
		c0.097-0.033,0.174-0.035,0.231-0.006c0.06,0.029,0.083,0.078,0.067,0.146c-0.023,0.103-0.053,0.219-0.087,0.348
		s-0.07,0.262-0.106,0.4c-0.036,0.138-0.073,0.277-0.105,0.418c-0.037,0.143-0.065,0.28-0.087,0.411
		c0.087-0.201,0.164-0.378,0.237-0.529c0.072-0.152,0.141-0.293,0.205-0.417c0.062-0.125,0.126-0.244,0.187-0.354
		c0.062-0.111,0.128-0.223,0.194-0.337c0.045-0.076,0.115-0.112,0.214-0.11c0.098,0.004,0.195,0.069,0.294,0.202
		c-0.101,0.358-0.17,0.658-0.207,0.895c-0.039,0.235-0.061,0.426-0.062,0.568c-0.002,0.144,0.01,0.244,0.037,0.304
		c0.028,0.059,0.062,0.09,0.101,0.09c0.058,0.005,0.118-0.021,0.187-0.072c0.068-0.051,0.146-0.166,0.23-0.344
		c0.027-0.02,0.061-0.012,0.092-0.01c-0.002-0.053-0.011-0.1-0.008-0.152c0.009-0.155,0.04-0.312,0.092-0.473
		c0.053-0.158,0.125-0.304,0.217-0.434c0.093-0.129,0.206-0.232,0.34-0.311c0.132-0.074,0.285-0.109,0.459-0.098
		c0.057,0.004,0.117,0.018,0.178,0.04c0.061,0.024,0.111,0.058,0.158,0.098c0.043,0.044,0.076,0.097,0.096,0.16
		c0.02,0.062,0.017,0.139-0.006,0.224c0.029,0.019,0.046,0.057,0.054,0.106c0.008,0.054-0.007,0.131-0.042,0.232
		c-0.057,0.157-0.104,0.306-0.138,0.444c-0.036,0.142-0.057,0.262-0.063,0.364c-0.007,0.102,0.004,0.182,0.028,0.244
		c0.024,0.061,0.067,0.092,0.129,0.096c0.058,0.004,0.121-0.021,0.188-0.072c0.068-0.05,0.147-0.166,0.233-0.343
		c0.029-0.019,0.063-0.013,0.099-0.01c-0.005-0.104-0.011-0.208-0.003-0.335c0.026-0.337,0.098-0.748,0.213-1.231
		c0.117-0.486,0.271-1.033,0.461-1.646c0.032-0.026,0.064-0.039,0.098-0.041c0.037-0.002,0.068,0.002,0.097,0.012
		c0.111,0.04,0.198,0.11,0.258,0.211s0.1,0.226,0.113,0.37c0.017,0.144,0.013,0.304-0.014,0.482
		c-0.022,0.177-0.069,0.359-0.138,0.545c-0.067,0.185-0.153,0.369-0.258,0.557c-0.104,0.187-0.226,0.365-0.364,0.531
		c-0.031,0.313-0.029,0.564,0.004,0.752c0.034,0.189,0.095,0.288,0.18,0.291c0.059,0.006,0.121-0.017,0.188-0.069
		c0.068-0.051,0.146-0.164,0.236-0.342c0.063-0.024,0.113-0.028,0.154-0.011C67.059,59.228,67.067,59.259,67.046,59.309z
		 M69.056,58.264c-0.065,0.056-0.14,0.078-0.224,0.072c-0.096-0.008-0.179-0.039-0.243-0.1c-0.063-0.06-0.093-0.135-0.085-0.227
		c0.006-0.093,0.041-0.174,0.102-0.246c0.062-0.069,0.14-0.102,0.236-0.094c0.104,0.008,0.186,0.045,0.246,0.113
		c0.061,0.067,0.087,0.16,0.076,0.277C69.158,58.144,69.121,58.212,69.056,58.264z M60.736,57.598
		c-0.074-0.003-0.143,0.034-0.201,0.113c-0.06,0.077-0.112,0.176-0.156,0.297s-0.082,0.252-0.105,0.393
		c-0.025,0.144-0.04,0.279-0.044,0.408c-0.007,0.141,0.002,0.262,0.027,0.358c0.024,0.094,0.065,0.144,0.123,0.146
		c0.04,0.002,0.08-0.016,0.12-0.052c0.043-0.035,0.084-0.094,0.126-0.179c0.039-0.085,0.079-0.199,0.112-0.34
		c0.034-0.142,0.065-0.318,0.093-0.534c-0.071-0.021-0.104-0.07-0.097-0.149c0.033-0.029,0.064-0.071,0.089-0.125
		c0.026-0.05,0.04-0.102,0.044-0.15c0.005-0.049-0.003-0.089-0.021-0.128C60.829,57.618,60.791,57.6,60.736,57.598z M57.625,57.572
		c0.004-0.116-0.022-0.175-0.081-0.177c-0.026,0-0.059,0.023-0.1,0.068c-0.042,0.046-0.082,0.117-0.123,0.217
		c-0.04,0.099-0.076,0.228-0.107,0.384c-0.032,0.156-0.051,0.345-0.055,0.562c0,0.03-0.002,0.055-0.002,0.077
		c0,0.024,0.002,0.046,0.004,0.068c0.117-0.133,0.223-0.301,0.314-0.505C57.568,58.064,57.619,57.832,57.625,57.572z M47.584,57.358
		c-0.046-0.006-0.088,0.024-0.127,0.089c-0.039,0.065-0.056,0.158-0.054,0.281c-0.006,0.157,0.027,0.284,0.096,0.383
		c0.068,0.101,0.155,0.169,0.261,0.208c0.019-0.155,0.027-0.301,0.025-0.436c-0.003-0.179-0.024-0.307-0.065-0.39
		C47.677,57.41,47.633,57.366,47.584,57.358z M51.976,57.832c0.109,0.002,0.218,0.002,0.323,0.004c0.107,0,0.217,0.002,0.334,0.006
		c0.016-0.268,0.03-0.552,0.046-0.85c0.015-0.301,0.026-0.592,0.034-0.874c-0.119,0.3-0.237,0.595-0.361,0.881
		C52.229,57.288,52.104,57.566,51.976,57.832z M64.9,57.989c0.005-0.05-0.003-0.093-0.021-0.127
		c-0.019-0.037-0.053-0.059-0.105-0.06c-0.078-0.006-0.147,0.029-0.207,0.106c-0.06,0.078-0.114,0.176-0.16,0.295
		c-0.047,0.119-0.085,0.251-0.111,0.393c-0.028,0.141-0.047,0.275-0.054,0.404c-0.008,0.144-0.001,0.262,0.023,0.359
		c0.021,0.098,0.062,0.144,0.119,0.15c0.04,0.002,0.08-0.016,0.123-0.049c0.04-0.038,0.083-0.095,0.125-0.18
		c0.043-0.083,0.082-0.196,0.121-0.336c0.037-0.142,0.071-0.319,0.104-0.533c-0.073-0.022-0.104-0.071-0.097-0.151
		c0.035-0.029,0.066-0.07,0.092-0.122C64.879,58.087,64.895,58.036,64.9,57.989z M45.24,57.622
		c-0.052,0.085-0.094,0.193-0.124,0.317c-0.031,0.127-0.052,0.263-0.062,0.408c-0.01,0.143-0.01,0.279,0,0.404
		c0.011,0.126,0.031,0.23,0.06,0.312c0.029,0.085,0.069,0.126,0.12,0.124c0.104-0.002,0.191-0.097,0.259-0.281
		c0.069-0.184,0.125-0.435,0.168-0.749c0.001-0.095,0.004-0.192,0.009-0.295c0.003-0.105,0.009-0.216,0.013-0.33
		c-0.087-0.028-0.175-0.044-0.261-0.042C45.352,57.493,45.292,57.537,45.24,57.622z M47.098,58.011
		c-0.029,0.153-0.041,0.297-0.035,0.438c0.007,0.144,0.025,0.266,0.053,0.376c0.029,0.109,0.067,0.194,0.113,0.261
		s0.094,0.098,0.144,0.096c0.044,0,0.084-0.017,0.121-0.051c0.037-0.036,0.069-0.081,0.097-0.138
		c0.027-0.055,0.053-0.121,0.074-0.196c0.023-0.076,0.042-0.157,0.059-0.244c-0.184-0.023-0.329-0.088-0.433-0.195
		C47.187,58.251,47.122,58.136,47.098,58.011z M43.564,57.717c0-0.047-0.011-0.091-0.032-0.126c-0.022-0.035-0.06-0.052-0.113-0.05
		c-0.076,0.002-0.141,0.046-0.194,0.129c-0.053,0.081-0.097,0.185-0.133,0.308c-0.036,0.122-0.06,0.257-0.074,0.4
		c-0.016,0.144-0.02,0.279-0.016,0.409c0.005,0.142,0.025,0.261,0.057,0.355c0.032,0.093,0.077,0.14,0.134,0.138
		c0.039-0.002,0.079-0.023,0.116-0.061c0.039-0.04,0.075-0.104,0.109-0.191c0.035-0.086,0.064-0.201,0.088-0.347
		c0.024-0.144,0.041-0.322,0.052-0.538c-0.073-0.015-0.109-0.062-0.108-0.142c0.032-0.032,0.058-0.077,0.079-0.133
		C43.553,57.815,43.562,57.764,43.564,57.717z"/>
	<g>
		<path fill="#6F1100" d="M62.404,49.603c-0.497-0.33-0.995-0.661-1.496-0.991c0.31-7.056,0.62-14.113,0.931-21.168
			c0.476-0.313,0.954-0.625,1.435-0.937c0.018-0.361,0.033-0.722,0.05-1.08c-2.325-0.113-4.649-0.198-6.978-0.263
			c-0.01,0.361-0.02,0.722-0.029,1.082c0.455,0.346,0.908,0.693,1.36,1.041l-0.286,9.208c-1.967-0.061-3.932-0.102-5.899-0.128
			c0.041-3.07,0.077-6.14,0.116-9.212c0.468-0.328,0.937-0.655,1.405-0.979c0.004-0.36,0.012-0.721,0.018-1.082
			c-1.822-0.032-3.645-0.047-5.466-0.047c-0.491,0-0.982,0.004-1.474,0.004c0.002,0.361,0.003,0.721,0.005,1.082
			c0.465,0.332,0.929,0.665,1.392,0.999c0.001,7.063,0.002,14.125,0.004,21.188c-0.527,0.308-1.052,0.615-1.577,0.925
			c0.002,0.361,0.005,0.722,0.007,1.082c0.543-0.002,1.087-0.004,1.63-0.004c1.78,0,3.56,0.015,5.339,0.048
			c0.006-0.361,0.013-0.721,0.018-1.082c-0.519-0.317-1.04-0.631-1.563-0.944c0.04-3.272,0.081-6.544,0.123-9.813
			c1.952,0.025,3.904,0.068,5.856,0.129c-0.102,3.268-0.203,6.537-0.305,9.808c-0.509,0.291-1.018,0.583-1.522,0.878
			c-0.012,0.36-0.021,0.72-0.029,1.082c2.296,0.06,4.591,0.145,6.884,0.257C62.368,50.323,62.386,49.963,62.404,49.603z"/>
		<path fill="#6F1100" d="M80.147,33.032c0.429-4.06-2.395-7.027-7.246-7.407c-0.317-0.023-0.627-0.036-0.929-0.036
			c-4.335,0-7.183,2.465-7.369,6.238c-0.223,4.201-0.444,8.359-0.668,12.559c-0.198,4.046,2.515,6.857,6.955,7.198
			c0.291,0.023,0.577,0.033,0.855,0.033c3.982,0,6.727-2.273,7.125-6.072C79.297,41.372,79.722,37.202,80.147,33.032z
			 M76.009,32.637c-0.37,4.189-0.74,8.339-1.111,12.527c-0.197,2.171-1.354,3.917-3.489,3.917c-0.106,0-0.215-0.006-0.324-0.013
			c-2.344-0.18-3.301-1.683-3.122-4.44c0.276-4.185,0.554-8.366,0.83-12.552c0.171-2.619,1.251-3.952,3.452-3.952
			c0.148,0,0.302,0.005,0.46,0.018C75.22,28.338,76.219,30.324,76.009,32.637z"/>
		<path fill="#6F1100" d="M93.316,33.308c1.396,0.198,2.786,0.407,4.178,0.626c0.405-2.594,0.812-5.184,1.218-7.776
			c-0.946-0.147-1.892-0.293-2.837-0.433c-0.184,0.424-0.363,0.846-0.545,1.269c-0.03-0.004-0.056-0.009-0.086-0.013
			c-1.043-1.367-2.755-1.92-4.373-2.133c-0.498-0.066-0.982-0.099-1.446-0.099c-3.905,0-6.527,2.298-6.978,6.563
			c-0.182,1.681-1.318,12.157-1.496,13.792c-0.539,5.129,2.412,7.763,6.394,8.294c0.486,0.066,0.965,0.098,1.432,0.098
			c3.392,0,6.164-1.76,6.857-6.083c0.08-0.514,0.161-1.025,0.242-1.536c-1.354-0.214-2.707-0.415-4.061-0.612
			c-0.072,0.498-0.144,0.997-0.215,1.495c-0.359,2.474-1.18,3.948-3.246,3.948c-0.216,0-0.444-0.016-0.686-0.047
			c-2.053-0.272-3.099-1.782-2.698-5.095c0.199-1.633,1.471-12.094,1.675-13.771c0.382-3.167,1.968-4.231,3.523-4.231
			c0.158,0,0.316,0.011,0.472,0.032c2.738,0.366,3.14,2.5,2.783,4.961C93.389,32.807,93.354,33.059,93.316,33.308z"/>
		<path fill="#6F1100" d="M20.136,50.319c-0.51-0.249-1.021-0.498-1.536-0.743c-2.996-8.458-6.176-16.877-9.541-25.246
			c-1.504,0.175-3.007,0.362-4.509,0.559c-1.168,8.475-2.156,18.406-2.909,26.909c-0.444,0.324-0.886,0.65-1.328,0.977
			c0.063,0.407,0.128,0.817,0.193,1.228c1.823-0.287,3.646-0.558,5.473-0.812c-0.058-0.409-0.113-0.819-0.171-1.231
			c-0.515-0.17-1.03-0.339-1.547-0.507c0.177-1.915,0.362-3.828,0.555-5.741c2.514-0.351,5.032-0.669,7.552-0.958
			c0.666,1.818,1.322,3.64,1.971,5.462c-0.452,0.346-0.902,0.693-1.352,1.038c0.04,0.349,0.079,0.691,0.119,1.035
			c2.378-0.271,4.758-0.516,7.141-0.732C20.21,51.144,20.174,50.729,20.136,50.319z M5.04,43.374
			c0.461-4.606,0.97-9.211,1.526-13.818l0.043-0.005c1.687,4.324,3.327,8.656,4.921,13C9.364,42.802,7.201,43.075,5.04,43.374z"/>
		<path fill="#6F1100" d="M36.377,43.874c-0.146-4.002-0.29-8.005-0.435-12.009c-0.145-4.427-3.439-6.251-7.306-6.251
			c-0.259,0-0.518,0.009-0.781,0.024c-2.79,0.167-5.577,0.372-8.363,0.612c0.031,0.358,0.062,0.719,0.092,1.076
			c0.511,0.346,1.019,0.691,1.525,1.038c0.563,6.906,1.129,13.854,1.692,20.761c-0.482,0.413-0.962,0.83-1.44,1.246l0.093,1.078
			c2.651-0.23,5.265-0.422,7.918-0.582C33.585,50.614,36.524,48.36,36.377,43.874z M25.989,48.721
			c-0.021-0.078-0.039-0.158-0.058-0.236c0.638-0.205,0.819-0.539,0.775-1.179c-0.256-3.756-1.049-15.386-1.308-19.181
			c0.865-0.058,1.729-0.115,2.595-0.168c0.115-0.005,0.227-0.009,0.335-0.009c2.548,0,3.316,1.832,3.421,4.016
			c0.074,1.521,0.522,10.603,0.595,12.083c0.112,2.324-0.484,4.309-3.115,4.463C28.137,48.575,27.043,48.647,25.989,48.721z"/>
	</g>
	<path fill="#6F1100" d="M46.471,37.029c-0.281-0.625-0.822-0.616-1.115-0.674c-0.88-0.969-2.994-1.459-4.708-0.674
		c-2.604,1.189-2.915,3.508-2.1,4.576c1.247,1.632,2.465,1.467,4.02,0.908C44.786,40.37,47.115,38.467,46.471,37.029z M38.72,38.577
		c-0.117-0.352,0.084-0.861,0.225-1.101c1.738-2.949,5.457-2.202,6.146-1.122c-2.357-0.68-1.639,0.757-4.592,2.29
		c-0.396,0.204-0.573,0.388-1.071,0.416C38.959,39.075,38.79,38.786,38.72,38.577z M39.034,39.298
		c0.011,0.076,0.081,0.381,0.505,0.402C39.539,39.7,39.045,39.891,39.034,39.298z M46.2,37.809
		c-0.674,0.774-1.713,0.919-2.463,1.418c-1.418,0.943-2.828,1.127-3.649,0.759c-0.739-0.431,0.034-0.58,0.286-0.668
		c2.77-0.956,3.192-2.812,4.805-2.756C46.294,36.441,46.756,37.168,46.2,37.809z"/>
</g>
</svg>
