<?xml version="1.0" encoding="utf-8"?>
<!-- Generator: Adobe Illustrator 16.0.0, SVG Export Plug-In . SVG Version: 6.00 Build 0)  -->
<!DOCTYPE svg PUBLIC "-//W3C//DTD SVG 1.1//EN" "http://www.w3.org/Graphics/SVG/1.1/DTD/svg11.dtd">
<svg version="1.1" id="Layer_1" xmlns="http://www.w3.org/2000/svg" xmlns:xlink="http://www.w3.org/1999/xlink" x="0px" y="0px"
	 width="100px" height="100px" viewBox="0 0 100 100" enable-background="new 0 0 100 100" xml:space="preserve">
<g>
	<path d="M34.883,36.567c2.815,0.991,5.703,2.007,8.591,3.024c1.512,0.533,3.017,1.084,4.54,1.585
		c0.361,0.12,0.799,0.169,1.167,0.089c5.868-1.28,11.729-2.589,17.595-3.88c0.41-0.089,0.508-0.271,0.575-0.684
		c0.15-0.951,0.341-1.913,0.676-2.811c0.293-0.79,0.968-1.245,1.871-1.194c0.585,0.032,1.177,0.061,1.753,0.158
		c0.661,0.111,1.031,0.565,1.072,1.225c0.035,0.545,0.006,1.095-0.017,1.641c-0.026,0.647,0.177,0.894,0.828,0.916
		c0.871,0.029,1.749-0.025,2.448,0.672c0.717,0.711,1.202,1.536,1.363,2.528c0.324,1.999-1.385,4.465-3.389,4.84
		c-0.403,0.076-0.93,0.011-1.269-0.201c-0.806-0.5-1.542-1.116-2.292-1.704c-0.687-0.538-1.34-1.122-2.041-1.64
		c-0.198-0.146-0.537-0.227-0.776-0.175c-4.063,0.883-8.122,1.792-12.312,2.726c0.226,0.111,0.348,0.188,0.479,0.234
		c2.906,1.028,5.816,2.05,8.722,3.086c0.303,0.108,0.457,0.023,0.725-0.164c0.531-0.377,1.142-0.792,1.76-0.869
		c1.241-0.157,2.51-0.137,3.766-0.112c0.776,0.014,1.432,0.403,1.993,0.944c0.635,0.613,0.682,0.739,0.282,1.521
		c-0.295,0.576-0.641,1.126-0.974,1.703c0.16,0.274,0.287,0.586,0.494,0.829c0.521,0.605,0.376,1.1-0.071,1.697
		c-1.138,1.52-1.114,1.555-2.975,1.176c-1.015-0.205-2.023-0.443-3.014-0.732c-0.288-0.082-0.645-0.348-0.733-0.609
		c-0.53-1.551-1.604-2.299-3.165-2.789c-4.316-1.347-8.572-2.886-12.861-4.322c-0.396-0.132-0.879-0.151-1.289-0.063
		c-4.266,0.917-8.523,1.87-12.784,2.811c-0.135,0.032-0.265,0.087-0.432,0.141c0.229,1.774-0.131,3.412-1.16,4.863
		c-1.251,1.771-2.908,2.756-5.151,2.441c-1.817-0.254-2.736-1.479-2.35-3.283c0.177-0.836,0.586-1.628,0.958-2.408
		c0.171-0.36,0.195-0.538-0.208-0.687c-1.357-0.509-1.941-1.621-2.141-2.946c-0.218-1.447,0.747-2.562,2.336-2.509
		c1.175,0.04,2.396,0.27,3.49,0.692c1.28,0.493,2.453,0.509,3.759,0.175c2.454-0.625,4.944-1.116,7.455-1.804
		c-2.797-0.957-5.595-1.915-8.242-2.821c-0.82,0.617-1.549,1.172-2.289,1.714c-0.125,0.092-0.29,0.163-0.443,0.182
		c-1.683,0.211-4.162-1.117-4.983-2.66c-0.413-0.775-0.28-1.122,0.566-1.411c0.455-0.155,0.92-0.279,1.561-0.47
		c-0.357-0.269-0.574-0.43-0.789-0.594c-1.386-1.061-1.719-2.276-1.073-3.904c0.586-1.479,2.263-2.659,3.854-2.649
		c0.359,0.002,0.775,0.119,1.066,0.323c1.571,1.104,2.644,2.64,3.441,4.345C35.071,35.224,34.883,35.885,34.883,36.567z
		 M68.412,38.111c-1.044,0.231-2.033,0.45-3.022,0.67c-10.913,2.426-21.828,4.849-32.738,7.288
		c-0.394,0.088-0.685,0.034-1.019-0.169c-1.181-0.717-2.427-1.231-3.857-1.069c-0.926,0.106-1.439,0.525-1.489,1.237
		c-0.064,0.937,0.422,1.73,1.329,1.812c0.718,0.066,1.477-0.099,2.188-0.275c0.393-0.097,0.688-0.141,0.88,0.228
		c0.234,0.448-0.169,0.529-0.448,0.68c-1.106,0.595-2.027,1.364-2.362,2.643c-0.524,1.993,0.77,3.487,2.668,3.013
		c1.869-0.465,3.242-1.641,3.697-3.511c0.268-1.094,0.049-2.31,0.049-3.52c0.073-0.021,0.225-0.073,0.378-0.105
		c2.935-0.636,5.871-1.268,8.805-1.902c7.972-1.723,15.943-3.445,23.913-5.178c0.373-0.08,0.639,0.001,0.938,0.23
		c1.144,0.876,2.279,1.772,3.48,2.566c1.493,0.987,3.86-0.045,4.264-1.802c0.302-1.314-0.575-2.953-1.835-3.43
		c-1.287-0.488-1.998-0.124-2.308,1.206c-0.114-0.047-0.227-0.087-0.334-0.142c-0.725-0.376-0.771-0.481-0.341-1.171
		c0.419-0.672,0.505-1.403,0.492-2.164c-0.015-0.861-0.479-1.551-1.134-1.682c-0.85-0.17-1.468,0.2-1.827,1.124
		C68.36,35.767,68.267,36.89,68.412,38.111z M46.889,41.758c-0.354-0.132-0.56-0.213-0.77-0.286
		c-3.814-1.322-7.627-2.644-11.442-3.964c-0.903-0.314-0.958-0.317-0.894-1.293c0.12-1.848-0.721-3.224-2.095-4.293
		c-1.506-1.173-3.312-0.714-4.221,0.953c-0.421,0.772-0.398,1.491,0.031,2.247c0.406,0.716,0.864,1.221,1.809,1.058
		c0.462-0.079,1.072-0.053,1.177,0.58c0.111,0.663-0.522,0.722-0.952,0.901c-0.635,0.264-1.308,0.451-1.909,0.772
		c-0.573,0.306-0.597,0.743-0.043,1.075c0.758,0.457,1.583,0.806,2.387,1.182c0.945,0.442,1.697,0.113,2.305-0.646
		c0.402-0.503,0.771-1.032,1.172-1.571c3.203,1.123,6.429,2.168,9.578,3.402C44.352,42.396,45.499,42.104,46.889,41.758z
		 M68.965,49.615c0.049-0.049,0.1-0.141,0.162-0.149c0.531-0.076,1.061-0.17,1.593-0.192c0.51-0.02,0.844-0.224,1.036-0.693
		c0.195-0.47-0.022-0.849-0.382-1.041c-0.56-0.298-1.172-0.621-1.784-0.679c-1.566-0.145-3.281-0.607-4.23,1.283
		c-3.601-1.246-7.167-2.41-10.676-3.732c-1.278-0.482-2.333-0.026-3.65,0.21c0.39,0.147,0.615,0.239,0.841,0.318
		c4.324,1.515,8.649,3.034,12.979,4.535c0.477,0.165,0.763,0.406,0.952,0.897c0.728,1.893,2.338,2.883,4.382,2.762
		c0.72-0.041,1.312-0.594,1.487-1.385c0.136-0.617-0.147-1.225-0.831-1.523C70.257,49.965,69.62,49.823,68.965,49.615z"/>
	<path d="M50.507,36.894c-2.779-0.068-5.509-0.462-8.222-1.015c-0.42-0.086-0.595-0.291-0.722-0.682
		c-0.656-2.021-0.924-4.077-0.579-6.185c0.068-0.417-0.153-0.564-0.418-0.77c-6.605-5.12-6.385-12.987-3.089-17.826
		c0.985-1.448,2.28-2.591,3.827-3.425c0.322-0.173,0.396-0.382,0.408-0.719c0.065-1.699,0.421-3.304,1.608-4.615
		c0.386-0.426,0.838-0.683,1.44-0.656c0.433,0.02,0.691,0.199,0.756,0.632c0.079,0.521,0.136,1.047,0.231,1.565
		c0.075,0.397,0.157,0.801,0.3,1.176c0.313,0.823,0.438,0.839,1.306,0.761c2.877-0.26,5.729-0.104,8.51,0.717
		c0.446,0.132,0.66,0.053,0.768-0.347c0.167-0.622,0.272-1.261,0.457-1.879c0.104-0.349,0.24-0.851,0.495-0.951
		c0.297-0.119,0.817,0.018,1.099,0.231c1.24,0.941,1.756,2.291,1.945,3.792c0.007,0.06,0.02,0.124,0.01,0.183
		c-0.154,0.921,0.211,1.52,1.081,1.861c0.173,0.067,0.325,0.304,0.394,0.497c1.152,3.168,2.201,6.361,2.746,9.705
		c0.419,2.566-0.057,4.843-1.876,6.77c-0.586,0.621-1.146,1.268-1.769,1.85c-0.367,0.341-0.488,0.672-0.406,1.164
		c0.296,1.783,0.528,3.576,0.84,5.355c0.079,0.449-0.046,0.604-0.424,0.757c-2.411,0.972-4.924,1.514-7.496,1.807
		C52.657,36.771,51.58,36.815,50.507,36.894z M58.447,34.839c0.491-0.15,0.911-0.3,1.343-0.407c0.369-0.092,0.515-0.251,0.49-0.668
		c-0.108-1.825-0.162-3.653-0.267-5.478c-0.023-0.397,0.126-0.616,0.401-0.87c0.672-0.617,1.367-1.23,1.922-1.947
		c1.204-1.555,2.074-3.237,1.755-5.331c-0.52-3.399-1.332-6.724-2.299-10.019c-0.204-0.693-0.548-1.083-1.281-1.201
		c-0.065,0.2-0.099,0.431-0.217,0.606C60.19,9.689,60.004,9.897,59.84,9.91c-1.719,0.137-3.252-0.382-4.592-1.442
		c-0.508-0.402-0.473-0.892,0.005-1.354c0.083-0.081,0.223-0.101,0.338-0.148C52.867,5.92,50.2,5.977,47.356,6.095
		C47.674,6.38,47.85,6.541,48.027,6.7c-0.052,0.132-0.086,0.25-0.142,0.357c-0.934,1.825-3.365,2.95-5.441,2.496
		c-0.147-0.032-0.314-0.23-0.368-0.387c-0.146-0.427-0.236-0.874-0.361-1.367c-1.744,1.054-3.077,2.372-3.932,4.152
		c-0.752,1.567-1.329,3.195-1.487,4.932c-0.223,2.418-0.127,4.804,1.177,6.966c1.083,1.793,2.604,3.16,4.336,4.299
		c0.311,0.204,0.418,0.413,0.411,0.782c-0.02,1.239-0.033,2.481,0.021,3.719c0.092,2.072,0.108,2.094,2.128,2.69
		c0.781,0.23,1.601,0.329,2.421,0.491c0.39-1.698,0.275-3.229-0.011-4.753c-0.094-0.498,0.059-0.841,0.508-1.042
		c0.171-0.077,0.371-0.087,0.557-0.128c0.003,0.207,0.086,0.461-0.005,0.61c-0.32,0.527-0.203,1.021-0.069,1.572
		c0.263,1.082,0.436,2.187,0.667,3.277c0.034,0.164,0.174,0.431,0.271,0.435c0.958,0.032,1.919,0.02,2.852,0.02
		c0-0.888-0.016-1.719,0.004-2.549c0.026-1.135,0.06-2.271,0.139-3.403c0.013-0.183,0.269-0.349,0.412-0.523
		c0.119,0.186,0.332,0.368,0.34,0.559c0.053,1.156,0.065,2.314,0.08,3.472c0.011,0.804,0.002,1.61,0.002,2.461
		c1.707-0.168,3.414-0.302,5.005-0.866c-0.301-1.793-0.598-3.49-0.857-5.195c-0.029-0.201,0.152-0.435,0.236-0.653
		c0.188,0.166,0.485,0.298,0.542,0.501c0.208,0.72,0.35,1.459,0.485,2.198C58.13,32.818,58.278,33.817,58.447,34.839z M46.857,7.035
		c-1.201-1.326-1.869-2.891-1.864-4.73c0-0.452-0.338-0.623-0.721-0.431c-0.351,0.178-0.73,0.415-0.945,0.729
		c-1.248,1.831-1.405,3.801-0.618,5.854c0.057,0.146,0.224,0.327,0.362,0.349C44.645,9.049,46.237,8.43,46.857,7.035z M55.984,7.646
		c0.925,1.019,2.035,1.331,3.293,1.2c0.135-0.014,0.339-0.096,0.378-0.198c0.66-1.688,0.617-3.752-0.85-5.124
		c-0.229-0.214-0.653-0.281-0.985-0.279c-0.086,0-0.237,0.508-0.249,0.788c-0.045,1.276-0.288,2.458-1.348,3.318
		C56.133,7.423,56.072,7.534,55.984,7.646z"/>
	<path d="M28.719,73.796c2.2-0.219,4.407-0.393,6.599-0.676c3.023-0.391,6.01-0.973,8.871-2.068c1.37-0.523,2.697-1.148,3.7-2.273
		c1.365-1.529,1.276-3.305-0.238-4.691c-1.285-1.176-2.857-1.844-4.478-2.396c-3.09-1.057-6.301-1.531-9.519-1.988
		c-3.88-0.553-7.779-0.539-11.679-0.529c-0.913,0.002-1.826,0.082-2.737,0.125c-0.345,0.018-0.691,0.059-1.034,0.039
		c-0.382-0.023-0.833-0.041-0.911-0.535c-0.085-0.537,0.338-0.752,0.75-0.887c0.39-0.127,0.823-0.33,1.091,0.256
		c0.056,0.123,0.351,0.193,0.533,0.191c1.728-0.02,3.452-0.074,5.18-0.088c5.28-0.039,10.502,0.484,15.649,1.686
		c2.279,0.531,4.53,1.172,6.516,2.459c0.671,0.436,1.312,0.977,1.822,1.592c1.285,1.549,1.226,3.541-0.073,5.078
		c-1.195,1.412-2.807,2.182-4.484,2.828c-3.09,1.189-6.32,1.822-9.595,2.17c-2.764,0.295-5.545,0.422-8.32,0.605
		c-0.338,0.021-0.696-0.029-1.021-0.125c-0.184-0.055-0.426-0.254-0.45-0.414c-0.029-0.197,0.084-0.527,0.242-0.619
		c0.996-0.59,2.088-0.766,3.218-0.512c0.174,0.039,0.281,0.375,0.419,0.574C28.753,73.665,28.736,73.731,28.719,73.796z"/>
	<path d="M54.563,74.511c-1.534,0.129-3.056,0.176-4.556,0.398c-5.417,0.799-10.829,1.652-16.239,2.494
		c-0.881,0.139-1.752,0.346-2.635,0.465c-0.229,0.031-0.486-0.152-0.731-0.238c0.136-0.219,0.221-0.527,0.417-0.641
		c0.523-0.297,1.08-0.557,1.654-0.736c0.23-0.07,0.537,0.107,0.811,0.172c-0.011,0.066-0.021,0.133-0.032,0.201
		c2.458-0.408,4.907-0.867,7.374-1.211c4.199-0.584,8.405-1.115,12.614-1.621c0.757-0.092,1.538,0.027,2.308,0.068
		c0.198,0.012,0.442,0.035,0.577,0.152c0.224,0.201,0.379,0.48,0.562,0.725c-0.239,0.15-0.466,0.328-0.723,0.436
		c-0.198,0.082-0.44,0.055-0.656,0.107C54.617,75.452,54.48,75.337,54.563,74.511z"/>
	<path d="M62.354,87.245c-0.559-0.668-1.288-0.979-2.056-1.156c-0.946-0.219-1.917-0.332-2.871-0.521
		c-0.453-0.092-0.92-0.197-1.329-0.4c-0.567-0.283-0.651-0.93-0.192-1.373c0.253-0.246,0.583-0.453,0.917-0.568
		c1.784-0.607,3.608-0.746,5.455-0.312c0.306,0.072,0.612,0.225,0.861,0.414c0.102,0.078,0.092,0.359,0.059,0.533
		c-0.012,0.055-0.312,0.133-0.413,0.074c-1.475-0.84-3.026-0.566-4.569-0.324c-0.438,0.066-0.87,0.201-1.289,0.346
		c-0.213,0.074-0.395,0.236-0.591,0.359c0,0.074-0.003,0.148-0.004,0.223c0.364,0.104,0.723,0.24,1.092,0.305
		c1.018,0.182,2.072,0.229,3.051,0.529c0.809,0.25,1.545,0.758,2.279,1.205c0.338,0.207,0.405,0.582,0.228,0.977
		c-0.436,0.973-2.371,1.717-3.326,1.271c-0.561-0.262-0.729-0.822-0.35-1.301c0.101-0.127,0.333-0.15,0.504-0.223
		c0.036,0.139,0.125,0.291,0.1,0.418c-0.086,0.426,0.123,0.586,0.492,0.553C61.175,88.2,61.827,87.882,62.354,87.245z"/>
	<path d="M64.671,85.81c0.438-0.578,0.771-1.088,1.172-1.537c0.748-0.842,1.33-0.75,1.779,0.27c0.35,0.789,0.712,1.553,1.619,1.93
		c-0.065-0.723-0.146-1.414-0.175-2.109c-0.008-0.172,0.154-0.35,0.239-0.527c0.153,0.154,0.341,0.285,0.448,0.465
		c0.073,0.127,0.018,0.32,0.053,0.479c0.076,0.338,0.196,0.672,0.254,1.014c0.054,0.312,0.067,0.635,0.06,0.953
		c-0.004,0.092-0.151,0.258-0.222,0.254c-0.684-0.045-1.464,0.283-1.968-0.484c-0.231-0.352-0.49-0.691-0.697-1.059
		c-0.167-0.295-0.278-0.621-0.48-1.084c-0.303,0.406-0.538,0.713-0.766,1.027c-0.298,0.41-0.553,0.857-0.894,1.227
		c-0.339,0.371-0.736,0.283-0.898-0.188c-0.139-0.395-0.229-0.828-0.235-1.248c-0.047-3.109-0.064-6.219-0.092-9.328
		c-0.002-0.061-0.019-0.131,0.006-0.182c0.09-0.197,0.192-0.389,0.291-0.582c0.091,0.199,0.256,0.398,0.26,0.6
		c0.07,3.088,0.119,6.176,0.177,9.264C64.604,85.202,64.641,85.444,64.671,85.81z"/>
	<path d="M45.68,80.942c0.36,1.924,0.71,3.734,1.024,5.553c0.037,0.219-0.063,0.615-0.21,0.68c-0.387,0.174-0.533-0.178-0.59-0.486
		c-0.303-1.637-0.592-3.273-0.884-4.91c-0.028-0.158-0.06-0.312-0.099-0.52c-0.383,0.09-0.73,0.213-1.083,0.232
		c-0.167,0.01-0.346-0.176-0.52-0.273c0.12-0.176,0.204-0.449,0.367-0.506c1.089-0.395,1.097-0.379,0.969-1.533
		c-0.07-0.625-0.155-1.25-0.23-1.875c-0.039-0.318,0.032-0.631,0.407-0.578c0.165,0.023,0.383,0.32,0.417,0.52
		c0.154,0.936,0.255,1.879,0.361,2.723c1.345-0.211,2.62-0.424,3.899-0.596c0.311-0.041,0.665,0.012,0.954,0.131
		c0.182,0.078,0.279,0.359,0.413,0.549c-0.193,0.088-0.41,0.283-0.577,0.248C48.701,79.956,47.264,80.565,45.68,80.942z"/>
	<path d="M60.518,68.399c0.901,0,1.712-0.012,2.521,0.004c0.891,0.02,1.534,0.377,1.6,0.857c0.057,0.414-0.438,0.881-1.254,1.166
		c-0.228,0.08-0.459,0.16-0.697,0.207c-0.624,0.123-1.244,0.219-1.205,1.096c0.006,0.135-0.227,0.381-0.365,0.395
		c-0.146,0.01-0.364-0.166-0.453-0.316c-0.132-0.221-0.195-0.49-0.255-0.744c-0.745-3.221-1.482-6.441-2.229-9.66
		c-0.098-0.412-0.269-0.811-0.347-1.227c-0.043-0.217,0.042-0.457,0.068-0.688c0.185,0.168,0.476,0.303,0.537,0.508
		c0.315,1.025,0.592,2.064,0.844,3.109C59.713,64.876,60.112,66.653,60.518,68.399z M60.673,69.196
		c0.089,0.367,0.168,0.689,0.252,1.043c1.106-0.08,2.123-0.221,2.98-0.863c-0.008-0.059-0.018-0.119-0.027-0.18
		C62.838,69.196,61.798,69.196,60.673,69.196z"/>
	<path d="M53.431,69.405c0.766-0.033,1.433,0,2.076-0.109c0.855-0.15,1.688-0.426,2.536-0.617c0.204-0.047,0.436,0.027,0.654,0.047
		c-0.138,0.188-0.248,0.514-0.417,0.549c-1.444,0.293-2.893,0.566-4.354,0.764c-0.41,0.059-0.951-0.051-1.082-0.594
		c-0.144-0.6,0.166-1.111,0.693-1.277c1.015-0.324,2.069-0.51,3.11-0.746c0.156-0.035,0.32-0.025,0.486-0.135
		c-0.784-0.043-1.564-0.094-2.347-0.125c-0.447-0.02-0.896,0.021-1.339-0.02c-0.164-0.016-0.312-0.186-0.465-0.283
		c0.146-0.135,0.294-0.27,0.442-0.402c0.012-0.01,0.039-0.008,0.06-0.006c1.494,0.1,2.992,0.168,4.483,0.314
		c0.456,0.047,1.125,0.182,1.063,0.779c-0.06,0.58-0.729,0.432-1.164,0.473c-1.029,0.102-2.067,0.123-3.092,0.252
		C54.221,68.341,53.663,68.538,53.431,69.405z"/>
	<path d="M52.894,83.446c-0.95,0-1.9,0-2.851,0c-0.183,0-0.381,0.039-0.544-0.02c-0.16-0.057-0.284-0.211-0.423-0.324
		c0.141-0.113,0.284-0.33,0.42-0.324c1.536,0.066,3.072,0.137,4.604,0.277c0.429,0.039,1.062,0.176,1.025,0.754
		c-0.036,0.596-0.685,0.451-1.081,0.494c-0.928,0.1-1.862,0.098-2.79,0.186c-0.691,0.066-1.368,0.219-1.753,1.08
		c0.361,0.051,0.677,0.17,0.961,0.119c1.234-0.217,2.457-0.492,3.687-0.725c0.204-0.037,0.426,0.029,0.641,0.047
		c-0.139,0.189-0.237,0.49-0.42,0.555c-1.482,0.527-3.008,0.861-4.588,0.723c-0.292-0.025-0.74-0.281-0.796-0.508
		c-0.076-0.311,0.045-0.881,0.274-1.016c0.643-0.387,1.371-0.654,2.092-0.875c0.49-0.152,1.025-0.148,1.541-0.215
		C52.893,83.599,52.894,83.522,52.894,83.446z"/>
	<path d="M77.952,85.087c0.292-0.398,0.521-0.789,0.82-1.107c0.594-0.627,1.254-0.635,1.861-0.029
		c0.358,0.357,0.697,0.742,0.989,1.154c0.491,0.693,1.167,1.023,1.97,1.209c0.211,0.051,0.373,0.311,0.557,0.475
		c-0.229,0.102-0.463,0.297-0.69,0.289c-0.931-0.035-1.637-0.545-2.235-1.213c-0.324-0.363-0.617-0.754-0.935-1.125
		c-0.48-0.557-0.86-0.564-1.222,0.082c-0.313,0.557-0.502,1.184-0.731,1.787c-0.078,0.209-0.068,0.459-0.181,0.641
		c-0.114,0.18-0.331,0.295-0.502,0.438c-0.104-0.176-0.271-0.34-0.3-0.529c-0.105-0.658-0.14-1.33-0.253-1.986
		c-0.066-0.393-0.262-0.768-0.335-1.16c-0.033-0.182,0.088-0.391,0.14-0.586c0.182,0.088,0.455,0.131,0.526,0.271
		C77.644,84.124,77.774,84.589,77.952,85.087z"/>
	<path d="M65.514,65.298c0-1.605,0-3.209,0.001-4.812c0-0.061-0.021-0.133,0.003-0.182c0.116-0.246,0.243-0.488,0.367-0.73
		c0.113,0.25,0.328,0.5,0.328,0.75c-0.005,2.863-0.054,5.725-0.058,8.588c-0.001,0.658,0.16,1.318,0.179,1.98
		c0.008,0.242-0.182,0.49-0.281,0.734c-0.142-0.184-0.371-0.352-0.41-0.555c-0.096-0.494-0.137-1.006-0.143-1.51
		c-0.018-1.422-0.007-2.844-0.007-4.264C65.502,65.298,65.508,65.298,65.514,65.298z"/>
	<path d="M69.889,70.335c-0.866-0.152-1.662-0.57-2.139-1.422c-0.143-0.256-0.187-0.652-0.104-0.932
		c0.271-0.906,0.885-1.561,1.785-1.855c0.295-0.098,0.717-0.061,0.99,0.084c0.511,0.273,0.995,0.627,1.42,1.023
		c0.655,0.617,0.678,1.244,0.115,1.941C71.449,69.808,70.841,70.302,69.889,70.335z M69.904,69.614
		c0.658,0.002,1.541-0.637,1.683-1.182c0.174-0.674-0.38-0.91-0.787-1.225c-0.112-0.086-0.243-0.15-0.37-0.211
		c-0.789-0.373-2.09,0.424-2.119,1.303c-0.004,0.115,0.02,0.254,0.085,0.344C68.792,69.198,69.34,69.511,69.904,69.614z"/>
	<path d="M33.505,62.612c0.109,0.223,0.29,0.438,0.315,0.67c0.098,0.906,0.109,1.82,0.22,2.725c0.208,1.691,0.496,3.365,1.21,4.939
		c0.084,0.186-0.035,0.463-0.06,0.699c-0.259-0.092-0.664-0.113-0.751-0.293c-0.293-0.594-0.575-1.225-0.677-1.869
		c-0.32-2.039-0.57-4.09-0.811-6.139c-0.026-0.23,0.172-0.488,0.266-0.732C33.314,62.612,33.41,62.612,33.505,62.612z"/>
	<path d="M73.525,86.606c-0.878-0.098-1.618-0.572-2.156-1.377c-0.064-0.098-0.105-0.221-0.12-0.34
		c-0.13-1.039,0.509-1.66,1.237-2.215c0.649-0.494,1.328-0.432,1.973,0.021c0.347,0.244,0.69,0.504,0.99,0.803
		c0.662,0.656,0.684,1.268,0.112,1.996C75.024,86.177,74.265,86.614,73.525,86.606z M73.576,86.089
		c0.485-0.305,0.892-0.471,1.172-0.764c0.241-0.254,0.483-0.654,0.467-0.977c-0.03-0.568-1.373-1.354-1.933-1.188
		c-0.664,0.199-1.092,0.686-1.321,1.328c-0.047,0.129-0.021,0.377,0.069,0.453C72.52,85.337,73.038,85.696,73.576,86.089z"/>
	<path d="M50.386,68.646c-0.017-0.26-0.059-0.523-0.042-0.781c0.007-0.111,0.138-0.309,0.207-0.307
		c0.136,0.004,0.291,0.1,0.39,0.199c0.073,0.076,0.077,0.225,0.103,0.342c0.129,0.553,0.26,1.105,0.379,1.662
		c0.032,0.154,0.069,0.334,0.022,0.477c-0.055,0.174-0.195,0.318-0.298,0.475c-0.169-0.113-0.444-0.199-0.486-0.348
		c-0.156-0.557-0.235-1.135-0.342-1.703C50.341,68.655,50.363,68.649,50.386,68.646z"/>
	<path d="M73.452,29.036c0.79,0,1.431,0.637,1.436,1.428c0.004,0.795-0.621,1.426-1.422,1.434c-0.839,0.008-1.477-0.626-1.464-1.452
		C72.016,29.65,72.647,29.036,73.452,29.036z M72.205,30.456c-0.005,0.7,0.514,1.239,1.211,1.255
		c0.691,0.017,1.248-0.511,1.268-1.201c0.02-0.71-0.544-1.297-1.246-1.295C72.763,29.217,72.21,29.773,72.205,30.456z"/>
	<path d="M69.723,81.54c-0.566-0.047-0.983-0.473-0.892-0.816c0.037-0.131,0.362-0.328,0.396-0.297
		c0.288,0.234,0.547,0.508,0.78,0.801C70.024,81.247,69.777,81.479,69.723,81.54z"/>
	<path d="M51.027,65.22c-0.632,0.018-0.862-0.285-0.91-0.695c-0.014-0.123,0.239-0.275,0.37-0.414
		c0.264,0.268,0.539,0.525,0.779,0.814C51.286,64.948,51.07,65.167,51.027,65.22z"/>
	<path d="M52.733,19.586c-0.066,1.63-0.393,3.194-1.079,4.664c-2.026,4.337-6.552,3.732-8.587,1.161
		c-1.331-1.681-1.979-3.607-1.983-5.755c-0.005-2.504,0.376-4.928,1.465-7.208c0.139-0.292,0.315-0.569,0.5-0.833
		c1.651-2.346,3.908-2.685,6.194-0.939c1.947,1.484,2.849,3.544,3.204,5.884C52.599,17.56,52.642,18.577,52.733,19.586z"/>
	<path d="M60.395,21.498c-0.264,0.885-0.434,1.812-0.812,2.644c-0.466,1.024-1.413,1.361-2.503,1.089
		c-1.851-0.464-2.838-1.995-2.299-3.814c0.331-1.114,0.811-2.21,1.398-3.213c0.684-1.167,2.06-1.142,2.873-0.066
		C59.795,19.118,60.239,20.207,60.395,21.498z"/>
	<path d="M73.266,30.444c-0.074,0.344-0.113,0.526-0.154,0.709c-0.038-0.003-0.075-0.006-0.112-0.01c0-0.458,0-0.916,0-1.374
		c0.804-0.083,0.825-0.044,0.739,0.664c-0.028,0.23,0.102,0.478,0.076,0.768C73.656,30.983,73.498,30.765,73.266,30.444z"/>
</g>
</svg>
