<?xml version="1.0" encoding="utf-8"?>
<!-- Generator: Adobe Illustrator 16.0.0, SVG Export Plug-In . SVG Version: 6.00 Build 0)  -->
<!DOCTYPE svg PUBLIC "-//W3C//DTD SVG 1.1//EN" "http://www.w3.org/Graphics/SVG/1.1/DTD/svg11.dtd">
<svg version="1.1" id="Layer_1" xmlns="http://www.w3.org/2000/svg" xmlns:xlink="http://www.w3.org/1999/xlink" x="0px" y="0px"
	 width="500px" height="150px" viewBox="0 0 500 150" enable-background="new 0 0 500 150" xml:space="preserve">
<rect y="-1" fill="#EF3A3A" stroke="#FFFFFF" stroke-miterlimit="10" width="500" height="151"/>
<path fill="#F9F9F9" d="M247.531,100.463c-0.09-0.12-0.24-0.3-0.3-0.45c0.09-0.12,0.149-0.24,0.24-0.359
	c0.09,0.119,0.24,0.3,0.33,0.42C247.711,100.223,247.621,100.343,247.531,100.463z M245.372,97.073
	c-0.061-0.09,0.029-0.149,0.12-0.03c0.57,0.78,1.2,1.53,1.829,2.37c-0.09,0.12-0.18,0.27-0.27,0.39
	C246.511,98.844,245.972,98.063,245.372,97.073z M234.215,123.465c2.37-3.419,5.399-7.828,7.018-10.166
	c0.03-0.061-0.06-0.12-0.09-0.061c-1.589,2.279-5.039,7.228-5.908,8.457c-0.15,0.24-0.24,0.12-0.15-0.06
	c0,0.029,4.169-6.358,5.878-8.877c0.03-0.031,0.121,0.18,0.15,0.149c2.85-4.408,5.608-8.486,8.397-12.716
	c-2.699-4.438-5.908-9.086-8.247-13.045c-1.29-2.159-1.68-2.759-3.269-5.788c-0.24-0.479-1.83,0.81-1.439,1.5
	c0.42,0.749,1.949,3.509,3.359,5.787c2.519,4.078,4.618,7.527,7.018,11.366c-2.459,3.809-4.589,6.838-6.928,10.437
	c-0.03,0.061,0,0.12,0.06,0.061c2.549-3.689,4.559-6.599,6.987-10.287c0.09,0.15,0.15,0.271,0.24,0.39
	c-2.579,3.719-5.728,7.947-7.677,10.977c-0.06,0.12-0.42,0-0.54,0.18c-1.41,2.129-2.969,4.108-4.499,6.328
	c-0.6,0.87-1.41,3.179-1.109,3.029c0.27-0.15,9.536-13.256,14.035-19.914c0.06-0.06,0.18-0.029,0.12,0.03
	c-3.719,5.549-13.016,19.073-14.245,20.304C233.076,121.846,233.795,123.675,234.215,123.465z M260.486,112.519
	c-2.009-3.929-4.469-8.067-6.477-12.056c-2.4,3.988,8.366-12.955,10.376-16.614c0.12-0.21-0.12-0.24-0.03-0.42
	c0.21-0.42,1.8-2.759,2.159-3.779c0.3-0.84-0.93-1.471-1.02-1.41c-0.48,0.239-8.907,13.557-9.627,14.756
	c-1.499,2.369-3.059,4.738-4.618,7.107c-0.15-0.27,6.987,11.815,7.707,13.106c0.6,1.019,3.209,5.218,3.449,5.607
	c0.149,0.24,0.299-0.39,0.209-0.57c-0.6-1.108-1.679-2.938-2.639-4.708c-0.061-0.09,0.03-0.18,0.091-0.09
	c0.989,1.739,1.979,3.389,2.669,4.528c0.09,0.15,0.269-0.6,0.149-0.93C262.556,116.117,261.236,113.987,260.486,112.519z
	 M261.656,120.526c-0.06-0.121-1.38-2.46-1.979-3.419c-1.14-1.92-2.249-3.809-3.359-5.669c0-0.029,0.091-0.029,0.091-0.06
	c-3.119-4.948-0.271-0.24-6.088-9.896c-0.27,0.419-0.569,0.84-0.839,1.259c-3.029,4.409-6.178,9.298-9.237,13.676
	c-1.08,1.62-4.229,6.538-4.559,7.197c-0.12,0.24,0.72,0.12,0.84-0.06c0.18-0.27,3.029-4.498,4.858-7.107c0.06-0.09,0.15,0,0.09,0.09
	c-1.799,2.639-4.318,6.628-4.318,6.777c0,0.33,1.77-0.779,2.159-1.229c0.3-0.359,11.006-16.284,11.006-16.284
	c1.349,2.22,2.009,3.419,3.418,5.817c0.03,0.061,0.15,0.12,0.03-0.09c-1.199-2.188-2.159-3.778-3.329-5.878
	c0.06-0.09,0.151-0.18,0.209-0.27c1.29,2.399,2.64,4.829,4.26,7.168c-0.091,0.06-0.331,0.21-0.451,0.3
	c1.08,1.889,2.159,3.809,3.21,5.758c0.479,0.81,1.889,2.099,1.769,1.739c-0.39-1.2-6.297-11.786-8.337-15.535
	c0-0.06,0.029-0.06,0.06-0.119c0.9,1.439,8.338,14.875,8.787,16.014C260.037,120.916,262.046,121.186,261.656,120.526z
	 M251.64,93.925c0.029-0.061,0.149-0.09,0.09,0.03c-0.12,0.27-0.57,1.229-0.66,1.438c-0.06-0.089-0.149-0.18-0.21-0.3
	C251.01,94.884,251.52,94.104,251.64,93.925z M239.014,80.88c0.27,0.359,7.258,10.825,11.396,17.753
	c2.969-4.528,5.938-9.086,9.026-13.794c0.479-0.78,4.108-6.239,4.289-6.6c0.209-0.42-1.499-0.21-1.949,0.33
	c-0.75,0.869-2.729,3.899-4.26,6.179c-2.278,3.389-6.867,10.346-6.747,10.136c-2.099-3.118-5.458-8.786-9.117-13.944
	C241.143,80.189,238.654,80.399,239.014,80.88z"/>
</svg>
