<?xml version="1.0" encoding="utf-8"?>
<!-- Generator: Adobe Illustrator 19.0.0, SVG Export Plug-In . SVG Version: 6.00 Build 0)  -->
<svg version="1.1" id="Layer_1" xmlns="http://www.w3.org/2000/svg" xmlns:xlink="http://www.w3.org/1999/xlink" x="0px" y="0px"
	 viewBox="-345 563 100 100" style="enable-background:new -345 563 100 100;" xml:space="preserve">
<style type="text/css">
	.st0{fill:#FCDE4C;}
	.st1{fill:#B21F24;}
	.st2{fill:#EC2224;}
	.st3{fill:#F0C318;}
</style>
<rect x="-335.7" y="566.1" class="st0" width="73.6" height="93.4"/>
<path class="st1" d="M-298.8,606.9c-0.1,0.1-0.3,0.1-0.4,0.1c-0.3,0-0.5-0.1-0.6-0.3l-7.2-11.9h-8.5v7.7c0,0.2-0.1,0.4-0.2,0.5
	l-0.1,0.1l-4.3,3.8c-0.1,0.1-0.3,0.2-0.5,0.2c-0.1,0-0.2,0-0.3-0.1c-0.2-0.1-0.4-0.3-0.4-0.6v-28.5c0-0.4,0.4-0.7,0.7-0.7h12.5
	c3.8,0,6.1,1.5,7.3,2.8c1.3,1.5,2.2,3.4,2.2,5.3c0,3.8-1.5,6.1-2.8,7.3c-1.1,1.1-2.5,1.8-4,2.1l6.7,11.2
	C-298.4,606.2-298.5,606.7-298.8,606.9 M-319.8,593.3h2.8v-14.7h-2.8V593.3z M-319.8,594.8v9.9l2.8-2.5v-7.4
	C-317,594.8-319.8,594.8-319.8,594.8z M-315.5,580.6v12.7h7.6L-315.5,580.6z M-302.3,591.4c1-1,2.4-2.9,2.4-6.2
	c0-1.1-0.5-2.8-1.8-4.2c-1-1.1-3-2.4-6.3-2.4h-6.9l8.8,14.6C-305.1,593.1-303.6,592.6-302.3,591.4"/>
<path class="st1" d="M-275.6,607c-0.1,0-0.3,0.1-0.4,0.1c-0.2,0-0.4-0.1-0.6-0.3l-8.5-13.1l-8.3,13.1c-0.1,0.3-0.4,0.3-0.7,0.3
	c-0.1,0-0.2,0-0.2,0l-0.1,0c-0.2-0.1-0.3-0.3-0.3-0.5l0-0.2v-28.6c0-0.4,0.4-0.7,0.7-0.7c0.4,0,0.8,0.3,0.8,0.7v13.7h2.8v-13.7
	c0-0.4,0.3-0.7,0.7-0.7c0.4,0,0.8,0.3,0.8,0.7v13.7h3.4l8.9-14.1c0.2-0.4,0.7-0.5,1-0.3c0.3,0.2,0.4,0.7,0.2,1l-8.8,14l8.8,13.7
	C-275.2,606.3-275.3,606.7-275.6,607 M-286.5,593h-6.8v10.7L-286.5,593z"/>
<polygon class="st2" points="-323,615.7 -335.7,620.2 -335.7,659.5 -262.1,659.5 -262.1,620.2 -274.6,615.7 "/>
<path class="st3" d="M-316.4,633.6l-2.3-4.5h-2.7v4.5h-0.7v-9.8h3.7c1.6,0,2.8,0.9,2.8,2.6c0,1.5-0.9,2.4-2.3,2.7l2.4,4.5
	C-315.6,633.6-316.4,633.6-316.4,633.6z M-318.6,624.4h-2.9v4h2.9c1.3,0,2.2-0.6,2.2-2C-316.4,625.1-317.3,624.4-318.6,624.4"/>
<path class="st3" d="M-313,630.4c0,1.7,0.8,2.6,2.2,2.6c0.8,0,1.3-0.2,1.8-0.8l0.5,0.4c-0.7,0.7-1.3,1-2.4,1c-1.8,0-2.8-1.2-2.8-3.4
	c0-2.1,1-3.4,2.7-3.4c1.7,0,2.7,1.2,2.7,3.2v0.3L-313,630.4L-313,630.4z M-309.3,628.6c-0.3-0.7-1-1.1-1.7-1.1
	c-0.8,0-1.4,0.4-1.7,1.1c-0.2,0.4-0.2,0.6-0.2,1.3h3.9C-309.1,629.2-309.2,629-309.3,628.6"/>
<path class="st3" d="M-305.2,627.5v6.1h-0.7v-6.1h-0.9v-0.5h0.9v-1.4c0-1,0.6-1.7,1.6-1.7h0.6v0.6h-0.5c-0.7,0-1,0.4-1,1.1v1.4h1.5
	v0.5L-305.2,627.5L-305.2,627.5z"/>
<path class="st3" d="M-300.3,633.6c-1.1,0-1.6-0.7-1.6-1.7v-8.1h0.7v8.1c0,0.7,0.2,1.1,1,1.1h0.5v0.6
	C-299.7,633.6-300.3,633.6-300.3,633.6z"/>
<path class="st3" d="M-298,630.4c0,1.7,0.8,2.6,2.2,2.6c0.8,0,1.3-0.2,1.8-0.8l0.5,0.4c-0.7,0.7-1.3,1-2.4,1c-1.8,0-2.8-1.2-2.8-3.4
	c0-2.1,1-3.4,2.7-3.4c1.7,0,2.7,1.2,2.7,3.2v0.3L-298,630.4L-298,630.4z M-294.3,628.6c-0.3-0.7-1-1.1-1.7-1.1
	c-0.8,0-1.4,0.4-1.7,1.1c-0.2,0.4-0.2,0.6-0.2,1.3h3.9C-294.1,629.2-294.1,629-294.3,628.6"/>
<polygon class="st3" points="-286.6,633.6 -288.9,629.9 -290.4,631.7 -290.4,633.6 -291.1,633.6 -291.1,623.8 -290.4,623.8 
	-290.4,630.7 -287.1,626.9 -286.2,626.9 -288.4,629.4 -285.7,633.6 "/>
<path class="st3" d="M-282,633.6c-1,0-1.6-0.7-1.6-1.7v-4.4h-0.9v-0.5h0.9v-2.1h0.7v2.1h1.5v0.5h-1.5v4.4c0,0.7,0.3,1.1,1,1.1h0.5
	v0.6L-282,633.6L-282,633.6z"/>
<path class="st3" d="M-275.3,632.9c-0.5,0.5-1.1,0.7-1.9,0.7c-0.7,0-1.4-0.3-1.9-0.7c-0.7-0.7-0.8-1.7-0.8-2.7s0.1-2,0.8-2.7
	c0.5-0.5,1.1-0.7,1.9-0.7c0.7,0,1.4,0.3,1.9,0.7c0.7,0.7,0.8,1.7,0.8,2.7S-274.6,632.2-275.3,632.9 M-275.8,628
	c-0.4-0.4-0.8-0.6-1.4-0.6c-0.5,0-1,0.2-1.4,0.6c-0.6,0.6-0.6,1.4-0.6,2.2c0,0.8,0,1.7,0.6,2.2c0.4,0.4,0.8,0.6,1.4,0.6
	c0.5,0,1-0.2,1.4-0.6c0.6-0.6,0.6-1.5,0.6-2.2C-275.2,629.5-275.2,628.6-275.8,628"/>
<polygon class="st3" points="-316,650.2 -319.1,644.7 -321.5,647.5 -321.5,650.2 -322.2,650.2 -322.2,640.3 -321.5,640.3 
	-321.5,646.5 -316.5,640.3 -315.6,640.3 -318.7,644.1 -315.1,650.2 "/>
<path class="st3" d="M-309.8,644.6c-0.4-0.4-0.7-0.5-1.3-0.5c-1.1,0-1.8,0.9-1.8,2v4.1h-0.7v-6.7h0.7v0.9c0.4-0.6,1.2-1,1.9-1
	c0.6,0,1.1,0.2,1.6,0.6L-309.8,644.6z"/>
<path class="st3" d="M-308,647c0,1.7,0.8,2.6,2.2,2.6c0.8,0,1.3-0.2,1.8-0.8l0.5,0.4c-0.7,0.7-1.3,1-2.4,1c-1.8,0-2.8-1.2-2.8-3.4
	c0-2.1,1-3.4,2.7-3.4c1.7,0,2.7,1.2,2.7,3.2v0.3L-308,647L-308,647z M-304.3,645.2c-0.3-0.7-1-1.1-1.7-1.1s-1.4,0.4-1.7,1.1
	c-0.2,0.4-0.2,0.6-0.2,1.3h3.9C-304.1,645.8-304.2,645.6-304.3,645.2"/>
<path class="st3" d="M-297.2,650.2v-0.7c-0.6,0.6-1.1,0.7-2,0.7c-1,0-1.5-0.2-2-0.6c-0.3-0.3-0.5-0.8-0.5-1.3c0-1.2,0.9-1.9,2.3-1.9
	h2.2v-0.7c0-1.1-0.5-1.6-1.9-1.6c-0.9,0-1.4,0.2-1.8,0.8l-0.5-0.4c0.6-0.8,1.3-1,2.3-1c1.8,0,2.6,0.8,2.6,2.2v4.6L-297.2,650.2
	L-297.2,650.2z M-297.2,647h-2.1c-1.1,0-1.7,0.5-1.7,1.3c0,0.9,0.5,1.3,1.7,1.3c0.6,0,1.2-0.1,1.7-0.5c0.2-0.2,0.4-0.6,0.4-1.3
	C-297.2,647.8-297.2,647-297.2,647z"/>
<path class="st3" d="M-292.1,650.2c-1,0-1.6-0.7-1.6-1.7V644h-0.9v-0.5h0.9v-2.1h0.7v2.1h1.5v0.5h-1.5v4.4c0,0.7,0.3,1.1,1,1.1h0.5
	v0.6L-292.1,650.2L-292.1,650.2z"/>
<path class="st3" d="M-289.5,640.3h0.9v0.9h-0.9V640.3z M-289.4,643.5h0.7v6.7h-0.7V643.5z"/>
<polygon class="st3" points="-284,650.2 -284.7,650.2 -287.2,643.5 -286.4,643.5 -284.4,649.3 -282.4,643.5 -281.6,643.5 "/>
<path class="st3" d="M-276.1,649.5c-0.5,0.5-1.1,0.7-1.9,0.7c-0.7,0-1.4-0.3-1.9-0.7c-0.7-0.7-0.8-1.7-0.8-2.7c0-1,0.1-2,0.8-2.7
	c0.5-0.5,1.1-0.7,1.9-0.7s1.4,0.3,1.9,0.7c0.7,0.7,0.8,1.7,0.8,2.7C-275.2,647.8-275.4,648.8-276.1,649.5 M-276.5,644.6
	c-0.4-0.4-0.8-0.6-1.4-0.6c-0.5,0-1,0.2-1.4,0.6c-0.6,0.6-0.6,1.5-0.6,2.2s0,1.7,0.6,2.2c0.4,0.4,0.8,0.6,1.4,0.6
	c0.5,0,1-0.2,1.4-0.6c0.6-0.6,0.6-1.5,0.6-2.2S-276,645.2-276.5,644.6"/>
</svg>
