<?xml version="1.0" encoding="utf-8"?>
<!-- Generator: Adobe Illustrator 16.0.0, SVG Export Plug-In . SVG Version: 6.00 Build 0)  -->
<!DOCTYPE svg PUBLIC "-//W3C//DTD SVG 1.1//EN" "http://www.w3.org/Graphics/SVG/1.1/DTD/svg11.dtd">
<svg version="1.1" id="Layer_1" xmlns="http://www.w3.org/2000/svg" xmlns:xlink="http://www.w3.org/1999/xlink" x="0px" y="0px"
	 width="100px" height="100px" viewBox="0 0 100 100" enable-background="new 0 0 100 100" xml:space="preserve">
<path fill="#4983C3" d="M15.249,81c-0.216-0.238-0.536-0.443-0.957-0.614c-0.422-0.171-0.849-0.265-1.282-0.281
	c-0.56-0.016-1.032,0.112-1.416,0.377c-0.385,0.266-0.581,0.663-0.587,1.2c0,0.16,0.019,0.303,0.056,0.437
	c0.037,0.135,0.083,0.25,0.139,0.341c0.056,0.094,0.144,0.179,0.263,0.256c0.119,0.079,0.224,0.144,0.313,0.192
	c0.09,0.049,0.223,0.1,0.397,0.152c0.176,0.053,0.316,0.089,0.419,0.113c0.104,0.021,0.261,0.053,0.471,0.1
	c0.083,0.015,0.142,0.024,0.18,0.031c0.292,0.066,0.542,0.132,0.75,0.192c0.209,0.061,0.431,0.14,0.667,0.24
	c0.235,0.103,0.437,0.227,0.604,0.376c0.168,0.15,0.304,0.322,0.408,0.516c0.127,0.298,0.191,0.592,0.191,0.884
	s-0.069,0.566-0.207,0.823c-0.138,0.257-0.318,0.485-0.538,0.682c-0.221,0.2-0.49,0.354-0.811,0.472
	c-0.321,0.115-0.661,0.174-1.019,0.174c-0.352,0-0.672-0.025-0.962-0.078c-0.291-0.054-0.556-0.136-0.795-0.251
	c-0.238-0.114-0.423-0.208-0.554-0.285c-0.13-0.074-0.3-0.194-0.509-0.353c-0.208-0.158-0.335-0.254-0.38-0.286l0.414-0.437
	c0.775,0.769,1.645,1.148,2.608,1.131c0.313,0.029,0.621,0.004,0.923-0.076c0.302-0.083,0.535-0.217,0.7-0.403
	c0.545-0.611,0.671-1.168,0.38-1.667c-0.291-0.501-0.921-0.84-1.892-1.021c-0.963-0.18-1.675-0.453-2.138-0.822
	c-0.464-0.369-0.695-0.844-0.695-1.428c0-0.597,0.222-1.085,0.667-1.467c0.445-0.381,1.073-0.594,1.887-0.637
	c0.224-0.016,0.44-0.014,0.649,0.004c0.208,0.021,0.398,0.057,0.565,0.107c0.169,0.054,0.315,0.107,0.443,0.158
	c0.127,0.053,0.252,0.118,0.375,0.203c0.124,0.082,0.215,0.145,0.274,0.19c0.06,0.045,0.133,0.105,0.219,0.179
	c0.086,0.074,0.133,0.115,0.139,0.123L15.249,81z"/>
<polygon fill="#4983C3" points="17.936,86.979 21.864,86.979 22.928,86.979 22.928,87.526 17.387,87.526 17.41,79.668 
	22.928,79.668 22.928,80.228 17.936,80.228 17.936,82.532 17.936,82.88 17.936,83.306 21.864,83.306 22.436,83.306 22.436,83.854 
	18.25,83.854 17.936,83.854 "/>
<polygon fill="#4983C3" points="31.895,87.526 31.347,87.526 31.347,80.63 28.312,85.22 28.234,85.22 25.089,80.642 25.089,87.526 
	24.541,87.526 24.541,79.668 25.089,79.668 28.28,84.302 31.425,79.668 31.895,79.668 "/>
<rect x="33.574" y="79.667" fill="#4983C3" width="0.548" height="7.859"/>
<path fill="#4983C3" d="M49.333,81c-0.216-0.238-0.535-0.443-0.956-0.614c-0.424-0.171-0.85-0.265-1.284-0.281
	c-0.56-0.016-1.03,0.112-1.414,0.377c-0.386,0.266-0.58,0.663-0.588,1.2c0,0.16,0.019,0.303,0.055,0.437
	c0.038,0.135,0.085,0.25,0.141,0.341c0.056,0.094,0.144,0.179,0.263,0.256c0.118,0.079,0.226,0.144,0.314,0.192
	s0.221,0.1,0.396,0.152c0.174,0.053,0.314,0.089,0.42,0.113c0.106,0.021,0.262,0.053,0.473,0.1c0.08,0.015,0.141,0.024,0.179,0.031
	c0.289,0.066,0.54,0.132,0.75,0.192c0.206,0.061,0.431,0.14,0.664,0.24c0.234,0.103,0.435,0.227,0.606,0.376
	c0.165,0.15,0.303,0.322,0.407,0.516c0.126,0.298,0.189,0.592,0.189,0.884s-0.068,0.566-0.205,0.823
	c-0.138,0.257-0.317,0.485-0.537,0.682c-0.22,0.2-0.489,0.354-0.811,0.472c-0.322,0.115-0.662,0.174-1.02,0.174
	c-0.35,0-0.672-0.025-0.964-0.078c-0.291-0.054-0.557-0.136-0.793-0.251c-0.237-0.114-0.426-0.208-0.555-0.285
	c-0.13-0.074-0.3-0.194-0.511-0.353c-0.209-0.158-0.336-0.254-0.381-0.286l0.414-0.437c0.776,0.769,1.646,1.148,2.607,1.131
	c0.313,0.029,0.622,0.004,0.924-0.076c0.303-0.083,0.535-0.217,0.7-0.403c0.546-0.611,0.673-1.168,0.382-1.667
	c-0.293-0.501-0.924-0.84-1.89-1.021c-0.964-0.18-1.676-0.453-2.14-0.822c-0.462-0.369-0.693-0.844-0.693-1.428
	c0-0.597,0.221-1.085,0.665-1.467c0.443-0.381,1.071-0.594,1.885-0.637c0.224-0.016,0.44-0.014,0.65,0.004
	c0.207,0.021,0.396,0.057,0.566,0.107c0.166,0.054,0.315,0.107,0.44,0.158c0.127,0.053,0.252,0.118,0.377,0.203
	c0.12,0.08,0.214,0.146,0.273,0.19c0.061,0.045,0.133,0.105,0.219,0.179c0.084,0.074,0.132,0.115,0.14,0.123L49.333,81z"/>
<polygon fill="#4983C3" points="51.471,87.526 51.493,79.668 57.015,79.668 57.015,80.228 52.021,80.228 52.021,82.532 
	52.021,82.88 52.021,83.305 55.951,83.305 56.297,83.305 56.297,83.854 52.334,83.854 52.021,83.854 52.021,87.526 "/>
<polygon fill="#4983C3" points="59.085,86.979 63.015,86.979 64.08,86.979 64.08,87.526 58.537,87.526 58.559,79.668 64.08,79.668 
	64.08,80.228 59.085,80.228 59.085,82.532 59.085,82.88 59.085,83.306 63.015,83.306 63.585,83.306 63.585,83.854 59.398,83.854 
	59.085,83.854 "/>
<path fill="#4983C3" d="M70.385,84.173c0.199,0.079,0.386,0.188,0.566,0.325c0.178,0.138,0.32,0.32,0.426,0.551
	c0.104,0.228,0.157,0.483,0.157,0.777c0,0.5,0.067,1.065,0.201,1.7h-0.604l-0.045-0.256c-0.037-0.165-0.071-0.387-0.101-0.667
	c-0.031-0.279-0.046-0.525-0.046-0.746c0-0.156-0.021-0.299-0.062-0.435c-0.041-0.134-0.087-0.249-0.145-0.345
	c-0.058-0.099-0.141-0.187-0.247-0.264c-0.112-0.077-0.205-0.145-0.292-0.197c-0.088-0.052-0.204-0.097-0.353-0.134
	c-0.151-0.036-0.272-0.065-0.365-0.083c-0.094-0.02-0.224-0.034-0.39-0.052c-0.167-0.016-0.29-0.022-0.363-0.026
	c-0.073-0.005-0.19-0.007-0.346-0.011c-0.159-0.005-0.255-0.008-0.293-0.008h-0.168h-1.656v3.225h-0.569V79.67h0.448h0.102h2.664
	c0.208,0,0.429,0.021,0.656,0.056c0.227,0.038,0.476,0.106,0.745,0.208c0.269,0.1,0.508,0.227,0.716,0.38
	c0.208,0.154,0.383,0.36,0.52,0.621c0.138,0.261,0.204,0.556,0.204,0.884c0,0.68-0.207,1.217-0.625,1.611
	c-0.097,0.097-0.286,0.204-0.56,0.319c-0.278,0.114-0.546,0.203-0.808,0.263C69.978,84.041,70.189,84.095,70.385,84.173
	 M66.261,83.753h2.361c0.891-0.008,1.536-0.175,1.943-0.503c0.405-0.329,0.609-0.807,0.609-1.435c0-0.49-0.206-0.881-0.62-1.168
	c-0.415-0.288-0.916-0.43-1.507-0.43h-2.787v1.668V83.753L66.261,83.753z"/>
<path fill="#4983C3" d="M72.876,87.526l3.604-7.859h0.562l3.737,7.859h-0.65l-1.006-2.217h-4.61l-1.031,2.217H72.876z
	 M78.878,84.794l-2.115-4.512l-2.005,4.512H78.878z"/>
<rect x="39.204" y="79.354" fill="#4983C3" width="0.529" height="4.048"/>
<path fill="#EB2227" d="M54.878,6.032v10.075c9.501,3.926,16.188,13.247,16.188,24.122c0,14.422-11.646,26.111-26.069,26.111
	c-14.417,0-26.041-11.689-26.041-26.111c0-10.875,6.419-20.196,16.17-24.122V6.032C20.375,10.356,9.465,24.03,9.465,40.229
	c0,19.676,15.926,35.624,35.599,35.624c19.677,0,35.529-15.948,35.529-35.624C80.591,24.03,70.129,10.356,54.878,6.032"/>
<rect x="39.733" y="1.044" fill="#4983C3" width="10.216" height="33.208"/>
<path fill="#F48220" d="M54.878,22.278v6.551c3.25,2.783,5.24,6.861,5.24,11.408c0,8.388-6.762,15.188-15.151,15.188
	c-8.384,0-15.132-6.8-15.132-15.188c0-4.584,1.791-8.692,5.292-11.478v-6.525c-6.501,3.506-10.65,10.254-10.65,18.004
	c0,11.358,9.192,20.565,20.546,20.565c11.359,0,20.482-9.206,20.482-20.565C65.505,32.519,61.128,25.795,54.878,22.278"/>
<path fill="#4983C3" d="M40.617,79.792v0.539c1.233,0.521,2.107,1.785,2.107,3.267c0,1.943-1.498,3.521-3.346,3.521
	c-1.849,0-3.348-1.577-3.348-3.521c0-1.485,0.88-2.751,2.118-3.269V79.79c-1.614,0.521-2.79,2.018-2.79,3.808
	c0,2.219,1.799,4.021,4.02,4.021c2.22,0,4.02-1.802,4.02-4.021C43.398,81.813,42.227,80.318,40.617,79.792z"/>
</svg>
