<?xml version="1.0" encoding="utf-8"?>
<!-- Generator: Adobe Illustrator 16.0.0, SVG Export Plug-In . SVG Version: 6.00 Build 0)  -->
<!DOCTYPE svg PUBLIC "-//W3C//DTD SVG 1.1//EN" "http://www.w3.org/Graphics/SVG/1.1/DTD/svg11.dtd">
<svg version="1.1" id="Layer_1" xmlns="http://www.w3.org/2000/svg" xmlns:xlink="http://www.w3.org/1999/xlink" x="0px" y="0px"
	 width="100px" height="100px" viewBox="0 0 100 100" enable-background="new 0 0 100 100" xml:space="preserve">
<g>
	<path fill="#6D6E70" d="M2.134,50.201c1.384,1.125,2.413,1.544,3.891,1.544c1.898,0,3.12-0.934,3.12-2.414
		c0-0.869-0.354-1.511-1.191-2.121c-0.386-0.289-0.994-0.611-2.218-1.224c-1.318-0.642-1.961-1.06-2.509-1.606
		c-0.707-0.706-1.093-1.64-1.093-2.67c0-2.535,2.155-4.337,5.21-4.337c1.35,0,2.345,0.255,3.601,0.899v2.379
		c-1.093-0.933-2.154-1.351-3.442-1.351c-1.798,0-3.084,0.931-3.084,2.25c0,1.156,0.515,1.672,2.861,2.796
		c1.544,0.74,2.219,1.191,2.86,1.769c0.839,0.773,1.288,1.865,1.288,3.058c0,2.667-2.218,4.5-5.466,4.5
		c-1.445,0-2.635-0.32-3.826-0.998V50.201z"/>
	<path fill="#6D6E70" d="M15.999,38.144c2.188-0.545,3.44-0.707,4.985-0.707c5.271,0,8.166,2.701,8.166,7.62
		c0,5.078-3.249,8.295-8.391,8.295c-0.805,0-1.608-0.098-2.411-0.227v6.534h-2.349V38.144z M18.347,51.164
		c0.964,0.192,1.512,0.258,2.346,0.258c3.891,0,6.173-2.249,6.173-6.173c0-3.762-2.153-5.883-5.82-5.883
		c-0.897,0-1.542,0.065-2.699,0.353V51.164z"/>
	<path fill="#4B4F54" d="M52.948,38.56c1.606-0.706,3.793-1.123,5.593-1.123c0.995,0,1.641,0.096,2.476,0.388v2.055
		c-0.899-0.354-1.573-0.514-2.539-0.514c-1.126,0-2.154,0.224-3.185,0.675v13.15h-2.345V38.56z"/>
	<path fill="#4B4F54" d="M64.206,39.204c1.964-1.218,3.698-1.8,5.563-1.8c1.863,0,3.182,0.708,3.76,1.995
		c0.356,0.739,0.451,1.605,0.451,3.664v9.84c-2.283,0.384-4.113,0.575-5.723,0.575c-3.248,0-4.888-1.382-4.888-4.051
		c0-3.407,2.412-5.014,8.134-5.464l0.354-0.034V43.48c0-2.09-0.032-2.476-0.257-2.989c-0.29-0.772-1.062-1.157-2.219-1.157
		c-1.673,0-3.247,0.671-5.177,2.152V39.204z M71.826,45.731c-4.502,0.354-6.174,1.253-6.174,3.442c0,1.605,0.933,2.375,2.926,2.375
		c0.997,0,2.026-0.093,3.248-0.224V45.731z"/>
	<path fill="#4B4F54" d="M79.518,29.079h2.347v9.065c1.382-0.482,2.539-0.707,3.89-0.707c2.06,0,3.729,0.548,4.664,1.511
		c0.932,0.932,1.252,2.089,1.252,4.209v10.035h-2.346v-9.808c0-1.609-0.225-2.442-0.836-3.054c-0.612-0.641-1.64-0.963-2.895-0.963
		c-1.221,0-2.377,0.257-3.729,0.867v12.959h-2.347V29.079z"/>
	<g>
		<path fill="#6D6E70" d="M96.283,49.235c1.053,0,1.911,0.853,1.911,1.907c0,1.052-0.858,1.904-1.918,1.904
			c-1.056,0-1.913-0.853-1.913-1.904C94.363,50.087,95.221,49.235,96.283,49.235z M96.283,52.859c0.922,0,1.673-0.768,1.673-1.72
			c0-0.951-0.751-1.718-1.673-1.718c-0.93,0-1.684,0.768-1.684,1.72C94.6,52.092,95.354,52.859,96.283,52.859z M95.578,50.013h0.039
			c0.222-0.017,0.394-0.026,0.542-0.026c0.296,0,0.477,0.044,0.623,0.155c0.158,0.112,0.244,0.28,0.244,0.481
			c0,0.304-0.177,0.517-0.512,0.606l0.046,0.051l0.144,0.171c0.103,0.115,0.35,0.39,0.468,0.517c0.09,0.093,0.178,0.173,0.239,0.231
			h-0.452l-0.042-0.049l-0.088-0.098c-0.191-0.212-0.437-0.508-0.615-0.743l-0.022-0.029c-0.055,0.002-0.095,0.002-0.102,0.002
			l-0.176-0.002c-0.015,0-0.024,0-0.049,0v0.913h-0.287V50.013z M95.865,51.038l0.049,0.003c0.064,0,0.117,0,0.165-0.014
			c0.413,0,0.608-0.119,0.608-0.39c0-0.261-0.195-0.4-0.546-0.4c-0.039,0-0.136,0-0.224,0.006l-0.053,0.002V51.038z"/>
	</g>
	<path fill-rule="evenodd" clip-rule="evenodd" fill="#4B4F54" d="M40.308,31.327c0,0-4.264-1.97,0.961-11.848
		c0,0,7.822,8.34,2.463,11.769C43.731,31.248,40.035,22.062,40.308,31.327z"/>
	<path fill-rule="evenodd" clip-rule="evenodd" fill="#4B4F54" d="M41.789,18.553l1.513-2.907c0,0,7.071,8.237,2.794,11.262
		C46.096,26.908,46.417,23.901,41.789,18.553z"/>
	<path fill-rule="evenodd" clip-rule="evenodd" fill="#005CB9" d="M44.629,31.912c0,0,1.151-3.987,9.551-0.568
		c0,0-4.893,7.198-8.654,4.051C45.527,35.394,53.193,33.044,44.629,31.912z"/>
	<path fill-rule="evenodd" clip-rule="evenodd" fill="#005CB9" d="M46.61,29.33c0,0,1.148-3.584,9.348-0.508l-1.062,1.525
		C54.896,30.347,49.591,28.169,46.61,29.33z"/>
	<path fill="#4B4F54" d="M41.003,54.699c-4.702,0-8.527-3.825-8.527-8.528c0-4.702,3.825-8.526,8.527-8.526
		c4.704,0,8.529,3.824,8.529,8.526C49.532,50.874,45.707,54.699,41.003,54.699L41.003,54.699z M41.003,39.917
		c-3.449,0-6.255,2.805-6.255,6.254s2.806,6.255,6.255,6.255c3.45,0,6.257-2.806,6.257-6.255S44.453,39.917,41.003,39.917
		L41.003,39.917z"/>
	<ellipse fill-rule="evenodd" clip-rule="evenodd" fill="#005CB9" cx="41.004" cy="46.17" rx="1.214" ry="1.19"/>
</g>
</svg>
